<svg version="1.0" xmlns="http://www.w3.org/2000/svg" viewBox="0 0 782 1258"><g fill="#FFF" stroke="#FFF" stroke-width="3"><path d="M0 629v629h782V0H0v629zM418 87c0 .5-2.1 2.9-4.6 5.2-4.9 4.5-8.4 10.3-8.4 13.9 0 1.6.4 1.9 1.8 1.4 8.2-3.4 18.6-3.1 26 .7 5.4 2.8 6.8 5.8 2.8 5.8-6 0-20.6 7.7-17.8 9.4.5.3 5.6 1.3 11.3 2.1 11.7 1.8 15 2.5 16.4 3.5.6.4 3.3 1.3 6 1.9 6.8 1.6 25.7 11.1 32.7 16.4 9.4 7.1 17.4 15 22.6 22.4 2.6 3.7 1.2 4.1 13.4-3.2 9.9-5.8 20-8.8 31.3-9.3 8.8-.3 10.9-.1 17.4 2.2 16.4 5.7 26.8 15.8 33.4 32.5 2.8 6.9 3.1 8.7 3.1 19.1.1 9.1-.3 12.5-1.8 16-4.8 11.7-6.8 15-12.3 20.2-6.1 5.6-12 9.1-21.4 12.5-6.8 2.5-8.6 2.7-23.2 2.8-17.8 0-16.1-.9-17.1 9-.6 6.7-4.5 24.7-5.6 26-.5.6.8 4.4 3.3 9.5 6.1 12.4 7.8 16.5 9.7 23.9 1.6 6.5 2 7 14.6 19.6 13.9 13.9 20.9 23.5 28.2 38.6 8.4 17.4 13.9 36.6 17.9 62.3 2.5 16.2 2.6 19.6 3 63.8.5 51 .2 48.5 6.1 45.4 6.3-3.3 11.2-13.4 14.2-29.3 2-10.3 2.2-13.5 1.7-36.5-.3-13.9-1.1-31.6-1.7-39.3-1.8-19-1.9-93.8-.3-102 .7-3.3 1.9-9.3 2.7-13.3 2.7-13 6.1-21.7 14.4-36.8 2.5-4.5 14.7-15.9 20.1-18.7 6.4-3.4 17.8-7.2 24-8.1 11.8-1.7 40.1 0 41.7 2.5.3.5 1.3.9 2.2.9 2.5 0 14.1 5.9 18.6 9.4 13.2 10.4 20.9 22.7 25.3 40.1 1.1 4.5 1.4 9.6 1 20.5-.4 13.3-.6 15.1-3.5 22.1-5.5 13.6-12.3 21.5-23.5 27.2-6.2 3.2-6.2 3.2-21.2 3.1-14.5-.1-15.3-.2-23.2-3.3-12.5-4.9-19.6-12.6-21-22.6-1.1-8.5 4.2-17.1 11.9-18.9 3.4-.8 8.9 1.4 14 5.4 4.9 4 8.5 3.9 12.5-.3 4.3-4.5 6.4-9 7-15.2 1.1-10.7-4.3-18.1-14.3-19.4-17-2.4-28.3 4.6-34.7 21.6-3.3 8.5-4.5 16.5-5.7 35.7-1.3 21.3 1.3 77.1 5.1 108.1 1.5 12.9.7 46.8-1.5 58-6.2 31.9-18.5 56.3-38 75.8-8 8-20.7 17.3-29.3 21.6L601 651v127.5c0 70.1-.3 127.5-.7 127.5-.5 0-4.8-3.8-9.6-8.4-12.5-12-12-11.6-10.2-6.6.8 2.3 4.6 9.4 8.4 15.8 9.5 16.1 10.4 21.1 7.1 38-1 5.2-1.9 7-5.6 10.7-6.4 6.6-11.8 8.1-17.8 5-2.7-1.5-3.1-1.4-4 .2-2.7 4.9-11.6 9.3-18.8 9.3-2.9 0-10.6-2.3-14.7-4.4-2.8-1.5-3.4-1.5-6.1-.1-7.2 3.7-23.4 2.8-33.8-2-10.3-4.7-14.7-11-14.6-21 .1-4.9.8-7.6 4.2-14.6 5.4-11.4 8.2-22.9 8.2-34 0-4.8-.3-9.4-.6-10.3-.5-1.2-2.6.1-9.4 5.9-4.9 4.1-9.3 7.5-9.9 7.5-1.3 0-1.7-1.9-3.1-14-.6-5.2-1.9-15.1-3-22-2.4-15.9-4.7-31.7-7-49.5-1-7.7-2.3-16.7-2.8-20-.6-3.3-1.6-10.5-2.2-16-1.6-14.2-5.9-35.4-8-39.5-2.1-4-5-6.9-10-9.9-3.4-2-4.7-2.1-42-2.1-37.2 0-38.7.1-42.5 2.1-7.1 3.7-9.2 6.6-12.3 16.3-1.6 5-3.3 12.5-3.6 16.6-.4 4.1-1.2 9.5-1.7 11.9-.6 2.5-1.9 11.7-3 20.5-1 8.9-2.1 16.7-2.4 17.4-.2.7-1.2 7.2-2 14.5-.9 7.2-2.2 16.8-3 21.2-.8 4.4-1.9 12.5-2.5 18-.6 5.5-1.7 13.6-2.5 18s-1.7 10.1-2 12.7c-.4 2.7-1 4.8-1.5 4.8s-3.4-3-6.6-6.8c-3.1-3.7-6.1-6.9-6.7-7.1-.6-.2-.8 5.7-.5 16.5.5 16.9.5 16.9 4.7 27.8 2.2 6 4.1 12.6 4.1 14.8 0 8.3-5.5 16-14.6 20.3-9.8 4.7-28.3 5.7-34.2 1.9-2.1-1.4-2.7-1.3-6.5.5-2.3 1.1-6.5 2.6-9.3 3.2-7.1 1.6-16.9-.9-21.4-5.6-2.8-2.9-3.5-3.2-8-2.7-5.8.5-9.9-1.6-15.8-8.4-4.3-4.9-5.5-9.4-5.5-21.5 0-7.4 1.3-10.8 9.4-24.4 4.5-7.6 7.7-17.6 6.7-20.6-.3-.9-4.5 2.6-11.9 9.8-6.3 6.2-11.8 10.8-12.2 10.4-1.3-1.3-.3-423.2 1-433.1.7-4.7 1.7-13.5 2.3-19.5.6-6.1 1.7-13.3 2.5-16 .7-2.8 1.6-7 2-9.5 1.6-10.1 9.2-30.7 16.2-44 7.3-13.7 14.2-22.9 26.4-34.9 6.1-6.1 6.7-7 7.3-12 .9-7.2 5.6-18.1 10.2-23.7 3.2-3.8 3.5-4.8 2.7-6.7-.6-1.3-1.8-7.2-2.7-13.3-1-6-2.1-12.5-2.7-14.5-.5-2-.9-5.2-.9-7.1v-3.4l-12.4.4c-14.2.5-23.6-.8-31.3-4.4-3-1.3-5.6-2.4-5.9-2.4-1 0-11-7.8-13.5-10.6-10.5-11.7-15-33.5-10-49.1 4.3-13.5 13.1-25.1 24-31.7 6.4-3.9 18.8-7.6 25.6-7.6 9.6 0 26 6 35.7 13.1l4.1 2.9 3.9-5.9c4.9-7.5 15.3-18.2 24.3-24.9 17.8-13.2 44.8-22.3 74.3-24.9 4-.4 5.2-.9 5.2-2.1.1-2.1 5.3-14.4 6.9-16.3.6-.8 2-2.6 3.2-4.1 1.9-2.6 11.7-9.8 13.4-9.8.4 0 2.1-.7 3.8-1.5 5.9-2.7 14.7-4.2 14.7-2.5zm-.4 1002.2c2.5 1.2 6.9 8.9 8.9 15.8.4 1.4 1.3 3.8 2.1 5.5 1.4 3.3 5.6 14.4 8.1 21.5.8 2.5 2.1 5.8 2.8 7.5.7 1.6 1.6 4.1 2 5.5.4 1.4 1.6 4.5 2.7 7 3.2 6.9 3.4 11.4.9 13.9s-7.7 2.8-10.8.6c-1.2-.8-2.9-3.6-3.9-6.2-1-2.7-2.3-5.7-3-6.8-.7-1.1-1.8-3.9-2.5-6.3l-1.2-4.2h-10.4c-9 0-10.4.2-11 1.7-.3 1-1.3 3.6-2.3 5.8-1 2.2-2.5 6-3.5 8.5-2.4 6.5-5.1 9-9.6 9-5.4 0-7.2-2.2-6.7-7.9.3-2.5 1.2-6.2 2-8.1.9-1.9 2.3-5.5 3.1-8 2.5-7.1 6.7-18.2 8.1-21.5.8-1.7 1.7-4.1 2.1-5.5.4-1.4 1.3-3.9 2-5.5.7-1.7 2-5.3 2.9-8 4.2-13 9.8-17.7 17.2-14.3zm-167.8 12.4c2.1 1.4 2.2 2.3 2.2 13.2 0 6.4-.3 20.2-.7 30.6-.6 16.9-.8 19.1-2.6 20.9-1.5 1.5-2.7 1.8-5.5 1.3-4.7-.8-4.3-.8-13.3 0-6.4.5-8.1.3-11.5-1.4-4.1-2.1-6.8-4.7-9.9-9.7-2.6-4-2.6-15.5 0-20.5 3.6-7.2 8.2-10.8 16.7-12.8 3.7-1 5.4-.9 8.8.3 2.4.8 4.4 1.5 4.6 1.5.2 0 .4-4.7.4-10.5 0-9.2.3-10.8 2-12.5 2.4-2.4 5.7-2.6 8.8-.4zm240.2.9c4.7 4.3.9 10.5-6.5 10.5-4.8 0-6.6 1.6-7.9 7.2-.6 2.8-.6 2.8 4.6 2.8 6.9 0 10.2 1.7 10.6 5.4.6 4.7-2.1 6.6-9.5 6.6H475v13.5c0 16.8-1 19.5-7.1 19.5-5.6 0-6.3-2.2-5.6-18.8.6-13.1.6-13.2-1.6-13.2-4.2 0-6.4-1.1-8.1-4.1-1.6-2.8-1.6-3.2-.2-5.4 1.6-2.4 3.3-3.1 8.6-3.7 2.2-.3 2.6-.9 3.1-5.5 1-8.2 5.6-14.1 12.8-16.4 3.9-1.2 10.9-.4 13.1 1.6zm42.3.6c2.1 2.6 1.6 6.6-1 8.6-.9.7-3.6 1.3-5.9 1.3-3.4 0-4.7.5-6.3 2.6-1.2 1.5-2.1 3.7-2.1 5 0 2.2.4 2.4 4.9 2.4 2.7 0 6.1.4 7.5 1 3.3 1.2 4.3 5.2 2.2 8.5-1.5 2.2-2.3 2.5-8 2.5h-6.3l-.6 9.7c-.4 5.4-.7 12.4-.7 15.5 0 6.4-1.3 7.8-6.9 7.8-4.9 0-5.5-2.4-4.7-18.2l.7-13.8h-2.6c-2.8 0-6.6-1.6-7.7-3.4-.4-.6-.8-2.3-.8-3.8 0-3.3 3.3-5.8 7.6-5.8 3 0 3.2-.3 3.8-4.5 1.3-8.5 6.6-15.4 13.5-17.6 4.5-1.5 11.3-.4 13.4 2.2zM315 1122.5c1 1.2 2.4 1.4 6.1.9 11.2-1.5 20.6 4.1 17.9 10.6-2.1 5-3.4 5.5-9.3 3.5-4.7-1.6-5.5-1.6-8.8-.2-3.5 1.4-3.6 1.7-4.2 7.7-.4 3.5-.7 9.2-.7 12.8 0 4.7-.5 7.1-1.7 8.4-2.1 2.4-8.8 2.5-10.2.1-1.1-2.1-.2-41.1 1.1-43.6 1.1-2.2 8-2.4 9.8-.2zm-29.5 1.3c6.6 2.3 11.5 8.4 11.5 14.6 0 6.1-2.6 8.1-12 9.4-10 1.4-16.9 2.8-17.5 3.4-.3.3.4 1.3 1.6 2.4 1.4 1.3 4 2 8.8 2.2 6.1.4 7 .2 9.9-2.3 3.5-3 7.9-3.6 9.3-1.4.5.8.9 2.9.9 4.7 0 7.2-9.9 11.9-23 11-12.1-.9-18.8-7.3-19.7-18.9-.7-8.5.9-13.7 5.7-19.2 6.3-7.1 14.7-9.2 24.5-5.9zm280.2-.3c5.8 1.7 10.7 6.5 11.8 11.5.8 3.8-.1 9.7-1.8 10.7-.7.4-4.8 1.3-9.2 2-12.1 1.9-17.5 2.9-18.1 3.6-.4.3.9 1.5 2.7 2.6 5 3.1 13.8 2.9 17.6-.3 4.4-3.6 6.8-4 9.2-1.5 3 3.3 2.6 6.3-1.4 10.2-4 3.9-9.6 5.7-17.7 5.7-10.5 0-16.5-3.4-20.7-11.7-2.2-4.4-3-15.6-1.2-16.7.4-.3 1.1-1.9 1.4-3.5 1-4.7 7.1-10.8 12.5-12.5 6.2-1.9 8.9-1.9 14.9-.1z"/><path d="M319.5 233.8c-5.5 1.9-10.8 6.1-14.1 10.8-3 4.3-3.7 6.4-4.1 11.6-1 11.8 3.7 20.8 13.7 26.3 4.8 2.6 6.5 3 13 2.9 6 0 8.3-.5 11.5-2.4 5.7-3.3 9.3-6.8 12.3-12 2.3-3.8 2.7-5.6 2.7-12 0-7.1-.3-7.9-4-13.5-5.7-8.5-11.5-11.8-21.4-12.1-4.2-.2-8.5 0-9.6.4zm21.4 20.1c1.6 1 .6 3.1-1.4 3.1-.7 0-1.7.9-2 2.1-1.3 4 5.4 8.2 6.9 4.3.3-.8 1-1.2 1.6-.9 1.9 1.2 1 3.7-2.4 7.1-2.6 2.6-4.2 3.4-6.9 3.4-6.8 0-12.4-7.7-9.7-13.2 2.8-5.5 9.8-8.5 13.9-5.9zm102.6-20c-3.6.7-10.1 3.7-13.3 6.4-.7.5-2.7 3.1-4.4 5.6-2.6 3.8-3.2 5.8-3.6 11.9-.6 8.9 1.3 14.4 6.7 20 5.7 5.8 11.4 8.2 19.7 8.2 11.1-.1 19.6-5.2 24.3-14.5 2.8-5.6 3.2-16 .8-21.6-4.6-11.2-17.8-18.2-30.2-16zm17.3 20.5 2.4 1.3-2.6 1.7c-2.8 1.8-3.4 4.4-1.4 6.4 1.5 1.5 5.1 1.5 6.6 0 2-2 2.4-.2.8 3.6-3.3 7.9-13.9 8-17.9.3-1.9-3.7-1.9-4-.2-7.6 1-2.3 2.9-4.5 4.8-5.4 3.9-1.9 4.6-2 7.5-.3zM375.5 463c-11 1.2-21.8 5.5-27.2 10.8-4.9 5-5.7 6.5-8.4 16.7-1.7 6.4-1.9 11.4-1.9 54.6v47.7l2.6 5.8c3.4 7.8 8.8 14.2 13.8 16.5 3.8 1.7 7.2 1.9 40.1 1.9 32.8 0 36.4-.2 40.1-1.9 4.7-2.1 9.9-7.9 13.4-14.8l2.5-4.8.3-43.5c.2-24.5-.1-47.9-.7-53.5-1.9-18.4-8-27.1-22.6-32.3-10.6-3.8-33.4-5.2-52-3.2zm37.1 654c-.3.8-1.2 3.4-2 5.7l-1.5 4.3h7.7l-1.4-4.8c-2-6.7-2.1-6.9-2.8-5.2zm-187.3 18.4c-6.2 2.8-8.2 11.4-3.9 17.1 3 3.9 7.4 5 12.2 3 2.7-1.1 3.4-2 3.4-4.2 0-1.5.3-5.1.6-7.9.6-4.7.4-5.3-1.7-6.7-3.7-2.4-7.1-2.8-10.6-1.3zm45.1.7c-2.4 2.6-2.6 3.1-.9 2.6 1.1-.3 4.9-1.1 8.4-1.8 6-1.1 6.2-1.3 4-2.5-4.2-2.3-8.2-1.7-11.5 1.7zm282.1-.7c-1.6 1.3-2.8 2.7-2.5 2.9.3.3 3.8-.1 7.8-1 6.3-1.4 7-1.8 5.4-2.9-2.7-2.1-7.4-1.6-10.7 1z"/></g><path d="M187.5 703.5c0 111.1.1 156.4.2 100.7.2-55.8.2-146.7 0-202-.1-55.4-.2-9.8-.2 101.3zm150-153c0 19.8.1 28 .2 18.3.2-9.7.2-25.9 0-36-.1-10.1-.2-2.1-.2 17.7zm113.9 11c0 13.7.2 19.5.3 12.8.2-6.7.2-17.9 0-25-.1-7-.3-1.6-.3 12.2zm-74.2 56.2c9.2.2 24.5.2 34 0 9.5-.1 2-.3-16.7-.3s-26.5.2-17.3.3z" stroke-width="3" fill="#E5E5E5" stroke="#E5E5E5"/><path d="M451.4 520.5c0 6.6.1 9.2.3 5.7.2-3.4.2-8.8 0-12-.2-3.1-.3-.3-.3 6.3z" fill="#E5CCCC" stroke="#E5CCCC" stroke-width="3"/><path d="M623.4 502c0 6.3.1 8.9.3 5.7.2-3.1.2-8.3 0-11.5-.2-3.1-.3-.5-.3 5.8z" fill="#CCB2B2" stroke="#CCB2B2" stroke-width="3"/><path d="M600.4 538.5c0 13.7.2 19.5.3 12.8.2-6.7.2-17.9 0-25-.1-7-.3-1.6-.3 12.2zm.1 239c0 69.8.1 98.3.2 63.2.2-35.1.2-92.3 0-127-.1-34.8-.2-6.1-.2 63.8z" stroke-width="3" fill="#B27F7F" stroke="#B27F7F"/><path d="M336.5 550.5c0 19.8.1 28 .2 18.3.2-9.7.2-25.9 0-36-.1-10.1-.2-2.1-.2 17.7zm41.8 68.2c9.3.2 24.1.2 33 0 8.9-.1 1.4-.3-16.8-.3-18.1 0-25.4.2-16.2.3z" stroke-width="3" fill="#997F66" stroke="#997F66"/><path d="M624.4 501.5c0 5.5.1 7.6.3 4.7.2-2.9.2-7.4 0-10-.2-2.6-.3-.2-.3 5.3zM374.2 723.7c10.8.2 28.8.2 40 0 11.2-.1 2.3-.2-19.7-.2s-31.1.1-20.3.2z" stroke-width="3" fill="#99664C" stroke="#99664C"/><g fill="#663319" stroke="#663319" stroke-width="3"><path d="M411.5 88.7c-1.1.2-2.9.8-4 1.3s-4.2 1.7-7 2.7c-6.7 2.4-16.5 12.1-19 18.9-1 2.7-2.2 5.3-2.7 5.8-.4.6-.8 2-.8 3.3 0 3.3-2.7 4.2-16 5.8-14 1.6-19.1 2.5-20.5 3.4-.5.4-3.5 1.3-6.5 2-9.2 2.2-24 8.8-32.7 14.6-7 4.7-9.7 7-17.3 14.6-7.3 7.5-10.1 10.9-14.1 17.8l-2 3.3-2.2-1.9c-3.5-3.1-11.9-8.3-14.4-8.9-1.3-.4-2.3-1-2.3-1.4 0-1.6-13.2-4-21.8-4-10.4 0-17.6 1.9-24.7 6.5-15.8 10.4-24.9 26.9-24.9 45.5 0 19.1 11.8 37.4 28.4 44 1.9.7 4 1.7 4.5 2.1 2.5 1.8 16 3.1 28.2 2.8l13.1-.4 1.1 5.5c.6 3 1.8 10.4 2.7 16.5.8 6 2.2 12.9 3 15.3 1.9 5.8 1.9 5.8-2.4 11.1-4.4 5.3-9.7 17.4-10.5 24.3-.6 4.2-1.5 5.5-10 14-10 10.1-20 24.3-26.1 36.9-2 4.2-3.6 8-3.6 8.4 0 .4-.9 2.6-1.9 4.9-5.6 11.9-11.5 39.2-13.8 63.8-1.5 15.3-1.7 41.7-2 226.9l-.4 209.7 12.3-12c10.9-10.7 12.3-11.8 13.1-10 1.9 4.1-4.1 22.4-9.5 28.9-2.4 3-7 14.2-7.5 18.3-.7 6.6 1.2 16.4 4 20.5 5.2 7.7 14.9 12 19.2 8.5 1.3-1.1 1.9-.8 3.8 1.6 1.2 1.5 2.7 3.3 3.2 4 1.7 2 7.5 3.4 14 3.4 6.2 0 15.5-2.4 15.5-4.1 0-1.4 4-1.1 5.5.5 3.6 3.5 22.2 3.1 31.1-.7 7.6-3.2 11-6.3 13.4-12 2.8-6.4 2.3-11.6-1.9-21.9-3.9-9.5-5.1-16.7-5.1-30.2 0-11.7.8-18.6 2-18.6.4 0 2.9 2.6 5.4 5.7 9 11.1 7.9 11.1 9.2.2.6-5.2 1.6-11.8 2.2-14.5.6-2.7 1.6-9.6 2.2-15.4.6-5.8 1.7-13.9 2.5-18s1.9-12.5 2.5-18.5c.6-6.1 1.6-12.6 2.1-14.6.5-1.9 1.8-10.7 2.9-19.5 2.9-23.2 5.8-41.5 6.8-42.8.5-.6 1.4-3 2.1-5.3 1.5-5.6 5.3-9.9 11.2-12.8l4.8-2.5h77.2l4.7 2.4c4.8 2.4 7.6 5 10.4 9.6 2.2 3.7 6.6 23.1 7.8 35 .6 5.8 1.7 13.9 2.5 18s2.1 13.7 3 21.4c.8 7.6 1.8 14.2 2 14.6.3.5 1.4 8.3 2.5 17.4 1 9.2 2.2 17 2.4 17.5.3.4 1.4 8.4 2.5 17.6 1.2 9.3 2.4 17.2 2.8 17.6.5.5 4.8-2.5 9.7-6.7 6.4-5.4 9.2-7.2 10-6.4.6.6 1.2 5.9 1.4 11.9.4 11.9-2.1 25.2-6 32-3 5.3-6.8 16-6.8 19.1 0 3.9 3.4 11.1 6.7 14.1 8.7 8.1 31.1 11.7 40 6.4 3-1.8 3.2-1.8 8.4.9 4.3 2.1 6.7 2.6 12.6 2.6 9 0 13.5-1.7 16.5-6.4 2.2-3.5 5.3-4.7 6-2.5.2.6 2.6 1.4 5.3 1.6 3.8.3 5.6 0 7.4-1.4 4.2-3.2 8.2-7.7 8.5-9.8.2-1.1.9-4.4 1.5-7.3 2.3-11.4.6-20.7-5.6-30-8-11.9-14.7-28.1-11.8-28.1.6 0 5.8 4.8 11.8 10.6l10.7 10.6V648.9l5.3-2.5c13.6-6.5 28.7-19.1 38.2-31.9 1.7-2.2 3.2-4.2 3.5-4.5.9-.8 6.5-10.1 8.8-14.5 4.1-7.9 7.9-17.1 9.1-22 .7-2.7 1.6-5.4 2.1-6 .4-.5 1.6-6 2.5-12 1-6.1 2.2-12 2.8-13.3 1.4-2.9 1.3-47.1 0-49.8-.6-1-1.8-13.8-2.7-28.4-.9-14.6-1.9-29.2-2.3-32.5-1-10.1-.7-48.5.5-58.5 1.3-10.8 3-19.6 4.2-21.9.5-.9 1.6-3.5 2.4-5.9.9-2.4 2.1-4.9 2.6-5.5.5-.7 2.1-2.6 3.5-4.4 1.4-1.7 4.7-4.4 7.3-5.9 3.9-2.3 6.2-2.9 13.2-3.2 11.1-.5 15.9.8 20.3 5.7 2.8 3.1 3.7 5.1 4.2 9.3 1.2 9.5-2.6 19.6-9.2 24.8-3.4 2.7-9.3 2.3-12.6-.8-3.2-2.9-9.5-6.2-11.9-6.2-3.1 0-8.8 4.7-10.4 8.6-1.8 4.3-1.8 9.6.1 13.9 2.2 5.4 10.9 13.1 16.9 15.1 2.8.9 5.7 2.2 6.5 2.8.9.7 7.1 1.1 17.5 1.1h16.1l5.6-3.2c9.9-5.8 17.4-14.8 20.5-24.6 1-2.9 2.1-5.7 2.5-6.3 1.9-2.4 3-19.8 1.8-29.4-.6-5.2-1.4-10-1.9-10.5-.4-.6-1.3-3-2-5.5-4.2-15.8-23-34.5-39.2-39.1-2.3-.7-4.8-1.6-5.3-2-.6-.4-5.7-1.3-11.4-1.8-10.6-1.1-32.3 0-34.5 1.8-.6.5-3.7 1.6-7 2.5-3.2 1-6.3 2.1-7 2.7-.6.5-2.9 2.2-5.2 3.7-2.2 1.5-4.9 3.4-6 4.2-2.9 2.3-10.4 11.5-10.4 12.8 0 .7-.4 1.2-.8 1.2-1 0-7.8 14.3-8.8 18.5-.4 1.6-1.1 3.5-1.5 4.1-1.1 1.3-4.7 20.7-6.1 32.4-1.4 11.7-.4 90.4 1.2 94.5 1.7 4.2 2 71.2.3 74.6-.6 1.3-1.7 5.2-2.4 8.7-1.2 6.3-4.6 13.6-8.5 18.5-2.7 3.3-11.3 7.3-11.9 5.4-.2-.6-.6-20.3-.9-43.7-.4-23.4-1.1-45.9-1.6-50-3.5-27-5-37.1-5.8-38.7-.5-1-1.3-3.8-1.7-6.3-1.8-11.4-11.1-34.1-19.8-48.5-6-9.9-19.1-24.8-28.8-32.8-4.1-3.3-4.8-4.5-6.3-10.8-1.9-7.6-4.5-14-10.7-26.2-3.9-7.7-3.9-8-2.4-11s5-20.4 6.2-30.7l.5-4.5h16.7c10.8 0 17.6-.4 19.2-1.2 1.3-.6 5-1.9 8.2-2.9 3.1-.9 5.7-2 5.7-2.4 0-.4 1.3-1.3 2.9-2 2.7-1.1 11.2-9.4 15.3-15 1-1.3 2.3-4 2.9-5.9.6-2 1.6-4.7 2.2-6 1.9-3.9 1.5-25.9-.6-29.6-.9-1.7-1.7-3.7-1.7-4.6 0-3.7-15-22.9-17.8-22.9-.5 0-1.7-.8-2.8-1.8-1-1-5.3-3-9.6-4.5-6.2-2.2-9.3-2.7-17.2-2.7-5.3 0-10.4.4-11.4.9-.9.6-4.4 1.8-7.7 2.7-6.3 1.9-9.6 3.5-18.2 9.1-5.7 3.6-7.6 3.5-9.8-.6-4-7.5-24.1-24.9-33.7-29.2-1.6-.7-2.8-1.6-2.8-2 0-.4-1.1-1-2.5-1.3-1.4-.4-4.9-1.7-7.8-3-2.8-1.3-7.4-2.9-10.2-3.6-2.7-.7-5.4-1.6-6-2.1-.5-.4-7-1.5-14.2-2.6-11.3-1.5-13.3-2.1-13.3-3.5 0-3.6 8.5-9 17.5-11.2l3-.8-4-2.1c-6-3.1-17.8-3.5-22.9-.8-3 1.5-4.3 1.8-5.3 1-1.5-1.3-1.7-4.5-.4-5.4.5-.3 1.2-1.8 1.6-3.4.3-1.6 2.8-5.2 5.5-8s4.6-5 4.2-5c-.4.1-1.6.3-2.7.6zm3.4 40.3c3.1.5 10.3 1.7 16.1 2.6 5.8.9 11 1.9 11.5 2.4.6.4 3.2 1.3 6 1.9 5.1 1.3 13.1 4.6 20 8.2 18.4 9.8 34 25.9 43.5 44.9 4.7 9.4 6.8 15.9 10.1 31 2.6 11.8 2.9 15.6 3 31 .1 12.2-.3 19.3-1.4 23.5-.8 3.3-2 9.1-2.7 13-.7 3.8-1.9 8.1-2.7 9.5-1.4 2.4-1.2 3 3 10.5 2.5 4.4 4.8 9.1 5.2 10.5.4 1.4 1.1 3 1.6 3.5.7 1 3.9 11.4 5.9 19.5 2.5 9.9 2 31.4-.9 36.7-.6 1-1.7 3.9-2.7 6.5-.9 2.7-2 4.8-2.3 4.8-.3 0-1.3 1.5-2 3.2-1.9 4.3-16.8 19-20.9 20.7-1.8.7-3.2 1.7-3.2 2.1 0 .4-3.7 2.4-8.2 4.5-12.3 5.6-13.7 6.2-20.3 8.1-3.3.9-6.9 2.1-8 2.5-1.1.5-6.7 1.9-12.5 3s-12.3 2.4-14.5 2.9c-2.2.5-10.1 1.3-17.5 1.9-7.4.6-18.4 1.6-24.5 2.2-8.8.9-14.6.8-29.2-.5-20.6-1.8-33-3.4-35.3-4.5-.8-.5-4.9-1.6-9-2.6s-7.7-2.1-8-2.4c-.3-.3-2.3-1.2-4.5-2-6-2-15.5-6.7-20.1-9.8-2.3-1.5-5.9-4-8-5.4-3.8-2.6-14.8-13.9-19-19.6-1.2-1.6-3.6-5.8-5.4-9.3-1.8-3.6-3.6-7.3-4.2-8.3-1.8-3.6-3.8-16.9-3.8-25.5 0-15.6 3.9-27.3 11.8-35.4 3.4-3.6 3.5-4 2.5-7-1.2-3.5-3.2-14.3-5.7-32-4.3-29.1.1-63.4 11-86.6 11.5-24.7 36.3-45.4 62.9-52.7 3.3-.9 6.9-2 8-2.5 3-1.3 6.6-1.9 19.2-3.5 6.4-.8 11.8-1.7 12.1-2 1-.9 37.4-.5 43.1.5zm152.5 36c15.3 5.1 25.5 16.1 30.6 32.9 1.9 6.1 2.2 9 1.8 16.2-.3 4.9-1 9.5-1.5 10.1-.6.7-1.3 2.6-1.7 4.3-1.6 6.7-9.5 15.7-18.8 21.3-8.4 5.2-15.3 6.6-30.9 6.7-10.7 0-15-.4-16.2-1.3-1.2-1-1.7-3.8-2-12-.6-19.2-5.9-41.4-13.5-56.6l-3.4-7 3.7-3.1c4.9-4.2 14.7-9.1 21.9-10.9 3.2-.9 6.1-1.8 6.4-2.1 1.4-1.4 18.1-.3 23.6 1.5zm-318.1 9.3c4.3 2 8.3 4.1 9 4.7.7.5 2.7 2.1 4.5 3.6 3.2 2.6 4 5.1 2.3 6.9-.5.6-2.3 5-4 10-4.6 13.2-7.4 30.4-7.8 47.6l-.4 14.7-3.1.6c-4.8 1-24 .7-29.8-.4-2.9-.6-8.6-2.6-12.6-4.5-28-13.5-33.3-50.8-10.6-74.2 10.3-10.6 17.7-13.4 33.7-13 10.3.3 11.5.5 18.8 4zm465 107.8c4 .6 7.7 1.5 8.2 1.9.6.4 3.3 1.5 6.2 2.4 2.8 1 5.7 2.4 6.3 3.2.7.7 1.8 1.4 2.4 1.4 2.1 0 13.3 10.9 17 16.5 4.8 7.2 9.3 18.4 10.5 26.5 2.1 12.9.8 28.3-2.9 36.6-1.1 2.4-2 4.7-2 5.1 0 1.5-6.3 9.6-9.9 12.8-5.6 5-12.8 8.3-19.8 9.1-7 .7-24.7-.9-26.6-2.4-.7-.5-2.9-1.5-5-2.2-4-1.3-11.5-7.8-13.6-11.7-.6-1.2-1.1-4.4-1.1-7.2 0-3.9.6-5.6 2.6-8 3.6-4.3 7.8-4.2 13 .3 10.2 8.7 19.7 5.8 26.6-8.1 2.8-5.7 3-6.9 2.7-14.5-.4-7.2-.8-8.8-3.1-11.8-4.3-5.6-8.4-8.1-15.4-9.3-18.8-3.2-33.7 5.5-40.6 23.7-3.3 8.5-3.7 10.5-5.8 27.8-2.2 18.3-2.6 38.1-1 52.8.6 5.2 1.9 22.1 3.1 37.5 1.1 15.4 2.5 33.8 3.1 41 .8 9.5.8 16.4 0 25.5-3.6 40.2-14.6 66.9-37.5 90.6-9.4 9.8-26.6 22.4-30.6 22.4-.8 0-1-11.2-.9-37.6l.3-37.6 4.9-1.9c10.2-3.8 15.7-12 20.4-29.9 2.7-10.4 2.7-10.7 2.5-42.1 0-17.5-.6-34-1.2-37-2-10.3-3.4-63.8-2.2-84.5.6-10.5 1.5-20.4 2-22 .6-1.6 1.5-6.2 2.1-10.3 2.8-17.2 11.5-34.7 22.4-44.9 4.8-4.4 16.5-11.2 19.5-11.2.9 0 2.1-.4 2.7-.9 2.6-2.7 28.4-3.9 40.7-2zm-165 74.1c7.4 7.5 17.7 20.5 17.7 22.4 0 .4.6 1.5 1.4 2.3.7.9 3 5 5.1 9.1 2 4.1 4.2 8.3 4.7 9.4 1.6 3 7.6 21.9 8.3 26.2.4 2.1 1.3 5.7 2 7.9s1.8 8.7 2.5 14.5c.6 5.8 1.6 12.5 2.1 15 2.4 11.8 3 65.4 2.7 243-.2 144.9-.6 185.5-1.5 185.5-.7 0-5.9-4.6-11.6-10.3-5.7-5.6-10.6-10.2-10.9-10.2-.7 0-3.7 8.4-8.3 23.5-2 6.6-3.8 12.6-4 13.3-.9 2.6-3.2 1-4.4-3.1-.7-2.3-2.4-6.6-3.7-9.5-1.3-2.9-2.4-5.8-2.4-6.5 0-.7-.6-2.1-1.4-3.2-.7-1.1-2.1-4.5-3.1-7.5s-2.1-6-2.5-6.5c-.4-.6-1.3-2.7-1.9-4.8-.7-2-1.6-3.7-2-3.7-.3 0-2.2 3-4 6.7-4.4 8.8-17.1 31.5-18.2 32.7-1.2 1.3-3.9-1.3-6.1-5.9-1.1-2.2-3.2-6.3-4.8-9-1.6-2.8-3.7-6.8-4.8-9-1.1-2.2-2.6-4.9-3.4-5.9-1.5-1.8-1.6-1.8-4.6 1-1.7 1.6-4.1 3.8-5.4 4.8-1.3 1.1-3.8 3.2-5.7 4.8-1.8 1.6-3.7 2.6-4.2 2.1-.4-.4-1.5-6.5-2.3-13.5-.9-6.9-1.8-13.2-2.1-14-.3-.7-1.4-8.5-2.4-17.3-1.1-8.9-2.2-16.7-2.5-17.5-.3-.8-1.5-9.1-2.6-18.3-1-9.2-2.1-17.1-2.4-17.5-.2-.4-1.2-7-2-14.7-2-16.9-6.1-35.4-8.9-40.4-2.7-4.7-6.4-8.2-12.2-11.5l-4.8-2.6h-80.5l-5.4 3.1c-6.4 3.8-11.4 9.6-12.9 15.2-.6 2.3-1.4 4.6-1.9 5.2-.4.5-1.3 4.1-1.9 8-.6 3.8-1.6 9.9-2.1 13.5-1.4 8.1-5.4 37.4-8 58-1.1 8.5-2.2 16.2-2.6 17-.3.8-1.4 8.4-2.4 17-2.3 18.4-4.2 29-5.1 29-.4 0-3.1-2.8-5.9-6.2-5.9-7.1-6.8-7.7-7.6-5.1-.3 1-1.9 4.6-3.5 8-1.6 3.4-2.9 6.4-2.9 6.8 0 .3-1.3 3.5-3 7-1.6 3.5-3 6.9-3 7.5 0 .5-.8 1-1.7 1-1.6-.1-10-13.2-23.2-36.1l-2.4-4.2-2 3.9c-1.1 2.1-6.6 12.9-12.2 23.8-5.6 11-10.7 20.2-11.3 20.4-.6.2-1.8-1.8-2.6-4.5-.9-2.6-2.9-8.6-4.7-13.3-1.7-4.7-4-11.2-5-14.5-1.1-3.3-2.4-6.4-2.9-6.9-.6-.6-5.2 3.2-11.9 9.8-6.1 6-11.4 10.5-12 10.2-.8-.5-1.1-56.3-1.1-193.8 0-164.8.2-196.6 1.6-216.7 3.4-51.2 11.3-79 30.5-107.6 6.6-9.9 19.6-23.7 20.2-21.5.2.8 1.1 6 2 11.5 1.7 10.7 2.1 11.8 8.1 23.4 12.2 23.8 37.6 41.9 70.6 50.3 12.9 3.3 21.9 4.6 41.6 5.9 16.7 1.1 21.8 1.1 41.7-.5 23.8-1.8 26.5-2.2 44.2-5.9 31.4-6.8 53.3-17.3 67.7-32.5 12.3-13.1 17.9-26.9 18.1-44.9.1-6.2.6-11.3 1-11.3s4.5 3.7 9 8.2zM267.7 885.5c3.7 6.4 8 13.4 9.5 15.8 1.5 2.3 3.7 5.9 4.8 7.9 2 3.7 4 5 4 2.6 0-1 2.3-6.2 6.6-15.2.8-1.6 1.4-3.5 1.4-4.3 0-.8.5-1.1 1-.8.6.3 1 4.5 1 9.2 0 8.7 1.6 20.9 3 22.8.4.5 1.5 3.5 2.5 6.5s2.1 5.9 2.6 6.4c1.7 1.9 1 10.7-1.3 14.7-4.6 8.2-23.4 13.4-36.1 9.8-5.3-1.4-7-4.6-6.5-11.9.8-10.5 6.2-15 18.1-15 6 0 6.7-.2 6.7-2s-.7-2-6.5-2c-11.1 0-18.4 4.5-21.2 12.9-1.5 4.8-1.6 10.4-.1 11.9.9.9.6 1.7-1.2 3.7-3.3 3.5-8.1 4.8-16.5 4.3-6.1-.3-7.8-.7-9.9-2.7-4.7-4.4-2.7-13.8 5.1-24 2.4-3.2 3-4.7 2.2-5.5-1.5-1.5-7.6 5.7-11.8 14.1-4.4 8.8-5.8 10.3-9.4 10.3-2.6 0-8.7-3.3-9.5-5.2-.2-.5-1.1-1.6-2-2.4-3.4-3.4-1.1-10.4 5.5-17.3 2.2-2.3 2.3-4.1 0-4.1-2 0-6.7 5.3-6.7 7.7 0 1.4-.4 2.1-1 1.8-1.8-1.1-.3-13.8 1.9-15.5.3-.3 1.4-2.1 2.4-4s3.3-6.2 5.3-9.4c1.9-3.2 3.9-8 4.6-10.5 2-8.2 3.9-9.1 5.7-2.9 1.2 4.3 2.7 8.5 7.6 21.5 2.1 5.4 3 6.9 3.9 6 .6-.7 6.2-11.4 12.4-24 8.6-17.2 11.8-22.7 13.2-22.7 1.3 0 3.9 3.5 8.7 11.5zm271-10.3c.5.7 1.5 2.9 2.2 4.8.7 1.9 1.9 4.6 2.6 6 .7 1.4 1.8 4.3 2.5 6.5s1.6 4.4 2 5c.4.5 1.3 2.8 2 5s2.3 6.4 3.6 9.2c1.3 2.9 2.6 6.4 3 7.8.3 1.4 1 2.7 1.4 3 .4.2 2.2-4.1 4-9.8 1.7-5.6 4.3-13.5 5.6-17.5 1.3-4 2.4-7.9 2.4-8.8 0-3.4 2.6-.4 4.9 5.6 1.3 3.5 3.9 8.8 5.7 11.9 10.6 18.2 10.6 18.2 11.2 24.7.2 3.5.1 6.4-.4 6.4s-2.2-1.9-3.9-4.1c-3.7-5.1-6.3-6.6-7.1-4.4-.4 1 .5 2.8 2.4 4.8 4 4.2 7.2 10.5 7.2 14.1 0 4.3-6.7 10.6-11.2 10.6-3.9 0-9.8-4.2-9.8-7 0-1-.6-2.3-1.4-2.9-.8-.6-2-2.6-2.7-4.4-1.7-4.2-7.8-11.7-9.5-11.7-2.3 0-1.6 2.2 2.1 6.9 2 2.5 3.8 5.6 4.2 7 .3 1.3 1.2 3.6 1.9 5 .8 1.4 1.4 3.4 1.4 4.4 0 3.4-2.9 7.5-6.1 8.6-5.1 1.8-14.8 1.3-19.7-.9l-4.3-2 .6-4.4c1.6-10.4-4.4-21.1-13-23.5-4.3-1.2-14.8-1.5-15.8-.5-.3.3-.3 1.2 0 2 .4 1 2.3 1.4 6.4 1.4 10.4 0 16 3.5 17.9 11.2 2.6 10.4-1 15.7-11.2 16.5-6.5.5-20.8-1.3-20.8-2.6 0-.4-1.6-1.3-3.5-2s-4.7-2.9-6.2-4.8c-2.4-3.1-2.8-4.6-2.7-9.7.1-5.1.8-7.5 4.2-14.1 4.8-9.4 7.3-19.4 8.1-32.5l.6-9.5 2.4 4c1.3 2.2 4.2 7.4 6.4 11.5 6.1 11.5 6.1 11.5 7.9 8.8.8-1.3 2.5-4.3 3.8-6.8 1.2-2.5 2.5-4.7 2.9-5 .3-.3 1.9-3 3.4-6 6.8-13.3 10.1-19 10.7-19 .4 0 1.2.6 1.7 1.2z"/><path d="M305.5 212.9c-4.5 2.7-7.6 6.9-8.2 10.8-.5 2.8-.3 3.5.8 3.1.8-.2 1.9-1.5 2.6-2.9 3-5.9 5.7-8.1 10.8-8.6 4.9-.6 7.5-1.7 7.5-3.4s-10.4-1-13.5 1zm156.2-1.2c-1.8 1.8-.5 3.3 2.8 3.3 5.9 0 10.2 2.5 13.3 7.4 2.6 4.4 4.5 5.6 5.7 3.6.7-1.1-3.3-7.6-6.7-10.8-3.6-3.3-13.1-5.5-15.1-3.5zM384 297.4c-2.5.6-6.3 2.4-8.6 3.8-4.3 2.8-13.4 12.7-13.4 14.7 0 2.4 3 .9 6.8-3.4 14.2-16.1 29.6-16.2 44-.3 3.7 4.1 5 4.6 5.8 2.3.4-.9-1.5-3.4-4.9-6.7-8.6-8.2-9.4-8.7-15.4-10.3-6.7-1.8-8.3-1.8-14.3-.1z"/><path d="M397.2 314.2c.3.7 2.2 1.4 4.4 1.6 3.7.2 3.8.1 2-1.3-2.4-1.8-6.9-2-6.4-.3zM378 316c-2 1.5-2.1 2-.8 2 2.2 0 6.8-2.1 6.8-3.2 0-1.5-3.4-.8-6 1.2zm-1.1 141c-5.6.5-12.6 1.9-16.9 3.4-13.9 4.9-20.5 11.5-25.1 25.1l-2.4 7v103l2.6 5.5c5.6 11.7 11.2 17.7 19.2 20.4 6.9 2.3 74 2.4 80.8.1 8.8-3 18.5-15.7 21-27.3 1.5-7.2.6-97.4-1.1-105.1-3.6-16.9-15.4-27.4-34.5-31-7.6-1.4-32.8-2.1-43.6-1.1zm32 4c7.4.6 14.8 1.7 16.5 2.4 1.7.8 4.8 2 6.9 2.6 5.6 1.7 13 9 16 15.8 3.9 8.6 4.9 25 4.5 73.2l-.3 40.5-3 6c-1.6 3.3-5.1 8.1-7.6 10.6-7.3 7.5-10 7.9-47.3 7.9-37.8 0-39.7-.4-48.2-8.9-3-2.9-5.4-5.7-5.4-6.2s-1-3.1-2.2-5.7c-2.3-4.7-2.3-4.9-2.3-55.7v-51l2.7-7.2c3.9-10.3 9-16.1 16.8-19 2.5-.9 5-2 5.6-2.4 1.2-1 12.6-2.7 20.4-3.2 11.6-.7 13.9-.7 26.9.3zm-167.8 15.2c-1 2.4-2.6 7.7-3.6 11.8-1 4.1-2.1 7.9-2.5 8.5-.5.5-1.6 5.3-2.5 10.5-.9 5.2-2 10.5-2.5 11.7-.5 1.2-1.7 10-2.6 19.5-1.3 13.4-1.5 22.4-1 40.3.7 23.2 1.6 32.1 5.4 49.7 2.6 12 8.8 32 12.8 41.3 8.7 20.3 10.6 23.4 12.4 20.5 1.2-2 3.7-.5 4.4 2.7 2 7.7 11.7 20.4 18.9 24.6 10.3 5.9 23.5 3.1 23.7-5.1 0-2.6.6-2.7 5.6-.6 4.8 2 10.3.6 13.3-3.3 2.4-2.9 2.8-10.6.9-14.8-1.5-3.3-.9-3.7 4.3-2.6 4.9 1.1 10.1-.5 11.7-3.6 3.6-6.6 2.1-15.2-3.7-20.9-3.7-3.8-4.5-4.5-10.5-9.2-7-5.4-16.5-22.1-20.6-36.2-7.1-24.1-8.5-53.8-4.4-94 .8-8 1.9-15.9 2.4-17.5.5-1.7 1.8-8.2 2.8-14.5 1.1-6.3 2.2-12.3 2.7-13.2.8-2.1-2-3.7-3.6-2.1-.6.6-2.1 7.1-3.4 14.4-1.3 7.4-2.6 14.1-2.9 14.9-.5 1.4-3.8 32.6-5.2 49.5-1.1 14.5 3 48.9 7.8 65 1.4 4.5 4.6 12.3 7.2 17.4 2.5 5.2 4.5 9.6 4.2 9.8-.2.2-5-1.8-10.6-4.6-9.5-4.8-14-6.2-14-4.3 0 3.6-3.1 24.6-3.8 25.8-1.1 1.9-.1 2.7-11-9-3.5-3.7-6.9-6.6-7.5-6.3-.7.2-1.8 2.3-2.5 4.8-4 13.4-6.7 21.5-7.5 22.7-1.2 1.6-2.4-.1-6-8.8-13.1-31.9-19.6-65.5-19.7-100.5 0-15.7 1.6-37.2 3.5-46 .8-3.9 1.9-9.9 2.5-13.5 1-6.3 2.4-11.6 7.6-28.3 2.8-9.2 2.9-10.7.9-10.7-.9 0-2.4 1.9-3.4 4.2zm56.5 172c.6.4 7.4 4 15 7.8 20.4 10.3 26.6 16.8 24.8 25.8-.9 4.4-2.7 5.5-7.8 5-4.5-.5-9-3.3-15.8-9.6-3.1-3-4-3.3-5.3-2.2-2.1 1.7-2 2 2.3 6.5 5.6 5.8 10.2 14.6 10.2 19.4 0 4.9-2 7.1-6.5 7.1-4.6 0-7.5-1.3-11-5-1.6-1.7-3.8-3.8-4.8-4.8-1.1-.9-2.3-2.7-2.8-4-1-2.5-3.1-2.9-4.8-.8-.9 1-.8 1.6.4 2.6.8.7 1.5 1.9 1.5 2.6 0 .8.4 1.4 1 1.4 1.3 0 6 9.3 6 11.8 0 3.1-2.7 4.5-8.5 4.5-4.3 0-6.3-.6-10-3-5-3.3-11.2-10.8-14.3-17.5-7.1-15.5-7.1-15.7-3.6-26.8 3.1-9.5 4.8-11.1 7.7-7 5.7 8.2 15.6 17.2 15.7 14.2 0-.4.7-3.6 1.4-7.2.8-3.6 1.7-9.7 2.1-13.5.4-3.9 1.2-7.5 1.7-8.2.9-1.2 3.2-.8 5.4.9zm243.9-175.3c-.3.5.3 3.3 1.4 6.3 5.7 15.7 11.5 42.7 13.2 61.8 1.4 15.6.5 59.4-1.5 70-4.9 26.7-7.7 36.5-16.4 58.5-3.9 10-5.1 12-6.4 10.7-.8-.8-3.2-8.4-6.7-21.2-1.1-4.1-2.3-6.6-3.3-6.8-.9-.2-4.6 3.1-8.8 7.8-3.9 4.4-7.8 8-8.5 8-1.5 0-3-6.4-4-16.5-.9-9.1-1.4-10.5-3.3-10.5-1 0-6.3 2.2-11.7 4.9-5.4 2.8-10.3 4.8-10.7 4.5-.5-.3-.1-1.8.8-3.2 6.6-10 12.3-26.7 15.6-45.7 2.7-15.7 3.1-48.2.9-66-2.6-21.7-6.2-44.3-8.6-54.3-.5-2.1-2.9-3-3.8-1.5-.4.7 2.1 15.8 5.3 32.8 2 10.2 4.5 41.4 4.5 55 0 12.9-2.3 36.2-4.5 44.5-4 15.7-10.4 30.6-16.7 38.6-1.6 1.9-6.6 6.6-11.1 10.5-9.1 7.7-11.2 11.2-11.2 18.3 0 9.3 5 13.5 13.6 11.6 2.6-.6 4.9-.8 5.2-.6.2.3-.3 2.1-1.2 4-5.2 11.1 3.3 21.1 14.6 17.1 2.3-.8 4.3-1.3 4.3-1.2.1.1.8 1.7 1.5 3.5 2.2 5.7 8.5 8 16.7 6.1 5.6-1.2 10.8-4.9 16.2-11.4 3.9-4.6 5-6.6 9.6-16.8 1.7-3.6 1.8-3.7 3.7-2.1 2.5 2.3 3.4 1.2 7.7-8.6 1.8-4.1 3.9-8.9 4.6-10.5 6.2-13.6 12.9-38.1 16.1-58 3.5-22.7 3.5-64.6-.1-87-2.1-13.1-5.1-27.6-6.4-30.5-.6-1.4-1.8-5.4-2.6-9-2.8-11.4-5.9-16.4-8-13.1zm-45 179.9c.3 3.2 1 7.3 1.5 9.2.4 1.9 1.1 5.9 1.5 8.7.4 2.9 1.2 5.6 1.8 6 .6.3 4.6-3.2 9.2-8 4.4-4.8 8.6-8.7 9.3-8.7.6 0 1.5 1.2 1.8 2.7.4 1.6 1 3.2 1.4 3.8 1.6 2.1 3.2 11.8 2.6 15.4-1.4 8.7-10.1 23.9-16.9 29.5-6.9 5.6-16.3 6.7-19.9 2.3-1.5-2-1.5-2.4.8-7.4 1.3-3 3-6.1 3.9-6.9 3-3 3.6-5.1 1.9-6.5-1.4-1.1-1.9-.9-3.7 1.6-3.1 4.3-9.8 11.1-12.4 12.4-1.2.6-4 1.1-6.2 1.1-4.4 0-7.1-2.6-7.1-6.8 0-3.6 5.3-14.2 9.2-18.4 5.8-6.2 5.8-6.1 4.3-8.1-1.2-1.7-1.6-1.6-5.1 2-6.4 6.4-13.3 10.3-18.1 10.3-5 0-6.3-1.7-6.3-8.3 0-3.4.7-5.3 3-8.2 3.5-4.5 7.9-7.8 12.3-9.6 1.8-.7 3.9-1.8 4.7-2.4.8-.6 3.1-1.8 5-2.5 1.9-.8 4-1.8 4.5-2.3 2.3-2 14.1-7.4 15.2-7 .6.3 1.4 3 1.8 6.1z"/></g><g fill="#7F3319" stroke="#7F3319" stroke-width="3"><path d="M370.2 128.8c-1.3.4 8.5.7 21.8.7s23.1-.3 21.8-.7c-1.3-.3-11.1-.6-21.8-.6-10.7 0-20.5.3-21.8.6zm-23.2 3.4c-5.6 1.1-7.4 1.7-6.9 2.3.2.2 4-.5 8.4-1.5 8.1-1.8 6.8-2.6-1.5-.8zm112.1 8.1c1.8 1.5 18.1 9.5 16.9 8.3-1.6-1.6-14.9-8.6-16.4-8.6-.5 0-.7.2-.5.3zm-158.2 11.5c-5.9 4-11.5 9.1-17.1 15.7-6 7-14.5 20.2-13.6 21 .3.3 2.2-2.6 4.2-6.4 4.6-8.4 14.2-19.5 22.8-26.3 7.3-5.8 7.3-5.8 6.7-5.8-.2 0-1.6.8-3 1.8zm180.1.9c7.3 5.8 15.4 14 20.2 20.5 4.5 6.1 7.2 8.9 5.2 5.5-4.6-7.6-21.6-25.3-26.8-27.8-1.1-.5-.5.3 1.4 1.8zm62.3 11.1c-.6.4 4 .7 10.2.7 6.2 0 10.8-.3 10.2-.7-.7-.4-5.2-.8-10.2-.8-4.9 0-9.5.4-10.2.8zm-11.8 3.5c-5.1 2.1-13.3 6.6-14.1 7.9-.4.6.8.2 2.7-1 1.9-1.1 6.4-3.4 9.9-5.1 6.4-2.9 7.4-4.1 1.5-1.8zm43.4 1.8c7.1 4.1 14.3 11.4 17.6 17.9 1.4 2.8 2.9 4.9 3.2 4.6.8-.8-4.4-9.3-8.6-13.9-3.6-4-14.4-11.7-16.5-11.7-.6 0 1.3 1.4 4.3 3.1zm-61.3 8.7c-1.5 1.8-1.5 2.2 1 7.6 1.4 3.2 2.8 5.5 3.1 5.3.2-.3-.8-2.8-2.2-5.7-2.5-4.9-2.5-5.3-.9-7.1.9-1 1.5-1.9 1.2-1.9-.3 0-1.2.8-2.2 1.8zm83.8 20.6c1.3 4 1.8 16.3.8 21.4-.7 4-.7 5.1.2 4.2 1.6-1.6 1.5-22.9-.2-25.5-1.2-1.8-1.3-1.8-.8-.1zm-414.1 10.3c-1 4.9-.8 17.5.3 19.6.6 1 .9-3.2.9-10.9 0-6.8-.1-12.4-.2-12.4s-.6 1.7-1 3.7zM523.5 251c0 13.4.3 22.8.8 21.2 1-3.5 1-38.8 0-42.4-.5-1.5-.8 8-.8 21.2zM321 228.6c-6.8 2.6-12.6 6-15.7 9.2-10.3 10.6-12.1 25.9-4.5 37.5 3.7 5.7 6.7 8.2 13.7 11.8 5.1 2.6 7.1 3.1 13.3 3.1 4 0 7.8-.4 8.5-1 .6-.5 2.9-1.5 4.9-2.1 5.2-1.7 12.5-9.1 15.5-15.9 4.2-9.2 3.6-16.6-2-28.1-1.4-2.7-10.4-11.1-12.1-11.1-.6 0-2.4-.7-4.1-1.6-3-1.7-14.8-2.8-17.5-1.8zm15 3.5c2.7.6 5 1.4 5 1.9s1 1.2 2.1 1.5c2.8.9 8.5 6.6 9.4 9.4.3 1.1 1 2.1 1.5 2.1 1.7 0 3.2 13.3 2 18.3-3.4 15.6-18.6 24.9-35.1 21.6-3.2-.6-5.9-1.4-5.9-1.8 0-.3-1.4-1.2-3.1-2-4.8-2.1-10.3-9.9-12.3-17.5-1.8-6.3-1.8-7-.1-12.4 2.8-9.7 5.3-13.1 12.6-17.8 7-4.4 14.2-5.4 23.9-3.3zm-78.4.6c-.8 5-.6 32.5.2 38.3.4 2.5.7-6 .7-18.7 0-12.8-.1-23.3-.1-23.3-.1 0-.4 1.7-.8 3.7zm182.9-2.8c-.6.5-2.7 1.4-4.8 2.1-4.7 1.5-13 9-14.8 13.3-.7 1.7-1.8 3.5-2.3 3.9-1.4.9-1.5 20.6-.1 21.6.6.4 1.6 1.9 2.2 3.4 2.1 4.7 8 10.3 14 13.4 5.2 2.6 6.8 2.9 15.1 2.9 5.1 0 9.6-.5 10-1 .4-.6 2.3-1.8 4.2-2.8 5.3-2.7 9.4-6.9 12.6-12.7 2.6-4.8 2.9-6.3 2.9-14.4-.1-7.8-.4-9.7-2.4-13.1-3.7-6.1-9.9-12.1-14.5-14-2.2-.9-4.9-2.1-5.8-2.6-2.3-1.2-15.1-1.2-16.3 0zm21.3 4.8c5.9 3 12 9.4 13.9 14.6.6 1.8 1.2 6.6 1.2 10.8.1 6.2-.4 8.4-2.5 12.7-2.5 5.1-8.6 11.2-11.1 11.2-.7 0-1.3.4-1.3 1 0 1.4-6.9 3-13.4 3-6.2 0-13.6-1.7-13.6-3.2 0-.4-.7-.8-1.5-.8s-3.3-1.8-5.5-4-4-4.7-4-5.5c0-.8-.4-1.5-1-1.5-1.5 0-3-6.9-3-13.8 0-10.2 5.2-19.1 14-23.8 5.3-2.8 6.8-3.2 14.9-3.3 6.2-.1 8.3.3 12.9 2.6zm-276.2-.7c.9 3.5 4.1 8.8 8.2 13.5 3.4 3.9 14.4 11.5 16.6 11.5.6 0-1.4-1.4-4.4-3.1-7.5-4.1-14.2-10.9-18-18.3-1.7-3.3-2.8-5-2.4-3.6zm343.6 11.6c-.2 6.5.1 8.4 1.5 9.5 2.3 1.9 30.9 2 33.8.1 1.9-1.3 1.9-1.3-.5-.7-4.7 1.1-22.5 1.7-28 .8l-5.5-.8-.6-8.5-.5-8.5-.2 8.1zm-277 5.6-.2 9.7-3.2.5c-1.8.3-4.6.8-6.3 1-1.6.2-.2.2 3.3.1 3.5-.2 6.5-.5 6.8-.8.3-.2.3-4.9.1-10.3l-.3-9.9-.2 9.7zm-37.6 9.2c1.7.8 5.9 1.7 9.5 2l6.4.6-7.1-1.4c-3.8-.7-8.1-1.6-9.5-2-1.7-.4-1.5-.2.7.8zM683 327.1c-4.5 3.1-11.7 11.5-10.8 12.5.3.3 1.5-1.1 2.7-3 2-3.2 5.5-6.6 11.3-10.8 4.1-3 1.4-1.9-3.2 1.3zM469.5 333c-1 1.6.4 3 3.1 3 3 0 3 .1-.2 6.7-3.2 6.5-11.4 15.1-20.1 21-4.2 2.9-17.6 9.3-19.4 9.3-.8 0-2.5.6-3.9 1.3-8.1 4.2-41.1 7.8-53.5 5.7-16.2-2.6-24-4.2-25-4.9-.5-.5-3.4-1.6-6.2-2.5-2.9-1-5.3-2.1-5.3-2.5 0-.4-1.5-1.2-3.3-1.9-6.6-2.4-24.9-21.4-23.2-24.2.3-.6 2.3-1 4.4-1 4.2 0 5.2-.6 4.4-2.6-.9-2.3-7.8-1.7-12.2 1-4.9 3.1-8 7.5-8.8 12.2-.8 5 1.5 4.2 4.2-1.4 2.3-5 4.4-5.3 6.9-1.1 1.1 1.8 3.8 5.1 6.1 7.4 2.4 2.3 5.5 6.8 6.9 10.1 1.4 3.2 3.3 7.2 4.2 8.9 1 1.6 2.3 4.2 3.1 5.8 2 3.8 12.8 14.6 18.6 18.5 6.8 4.5 16.7 9 22.9 10.3 2.9.6 5.9 1.6 6.7 2.2 1.8 1.5 32.9 1.6 36.2.1 1.3-.6 4.9-1.9 7.9-2.9 9.5-3.1 19.9-11 27.7-21 3.6-4.7 10.3-17.1 10.3-19.1 0-.8.4-1.4.8-1.4s1.3-2.6 2-5.8c1.1-5.5 1.8-6.7 7-13.2 1.2-1.6 2.9-4.4 3.7-6.4 1.7-4 4.9-4.9 5.8-1.6.6 2.5 3.7 2.7 3.7.2 0-2.7-4.8-9.2-7.6-10.3-3.3-1.2-7.1-1.2-7.9.1zm-9.6 34.8c-4 10.7-9.8 20-17.2 27.4-4.3 4.3-8.2 7.8-8.7 7.8s-1.5.6-2.2 1.3c-1.6 1.6-11.4 5.4-17.7 6.9-2.4.6-10.7.8-18.5.6-11.9-.4-15.5-.9-23.1-3.3-4.9-1.5-10.1-3.5-11.5-4.3-13-8-22.4-16.3-25.7-22.6-.9-1.6-2.2-3.6-2.9-4.4-1.8-1.7-1.8-5.2-.1-5.2.7 0 2.2.7 3.4 1.5 11 7.7 51.3 13.7 69.8 10.5 23.3-4.2 33.7-7.8 50-17.5 4.6-2.8 5.8-2.4 4.4 1.3zm79.2-17.1c.1 1.7.3 2.1.6 1 .6-2.4 1.2-2.2 7.3 2.9l5.5 4.6-5.9-5.6c-3.3-3.1-6.3-5.6-6.8-5.6-.4 0-.7 1.2-.7 2.7zm87.5 1.5c-.3 1.3-.8 7.9-1 14.8l-.5 12.5.8-10.1c.5-5.6 1.1-12.2 1.5-14.8.8-4.8.3-6.2-.8-2.4zm-390.2 7.2c-4.4 4.6-8.8 9.9-9.8 11.8-2.4 4.1-2.1 3.8 3.9-3.7 5.7-7.2 12.6-14.5 13.7-14.5.4 0 .8 1.3.8 3 0 3.1 2 13.3 2.5 12.8s-1.9-16.6-2.6-17.3c-.4-.3-4.2 3.2-8.5 7.9zm427.7 4.8c-.6 3.5-1.3 10.1-1.5 14.8-.4 6.8-.1 5.6 1.4-6 2-14.9 2.1-19.9.1-8.8zM249 375.5c0 1.3 6.8 15.1 8.4 17 .9 1.1-.1-1.5-2.4-5.8-2.2-4.3-4-8.5-4-9.2 0-.8-.4-1.7-1-2-.5-.3-1-.3-1 0zm322.8 13.3c2.6 5 4.9 8.9 5.1 8.6.5-.5-6.6-14.4-8.4-16.3-.7-.7.8 2.8 3.3 7.7zm52.6 6.7c0 8.2.2 11.5.3 7.2.2-4.3.2-11 0-15-.1-4-.3-.5-.3 7.8zM261 397.8c1.8 2.7 11.5 13.4 11.5 12.6 0-.3-6.6-8-11-12.9l-2.7-3 2.2 3.3zm258.3 7.8c-5 5.2-8.5 9-7.7 8.6 3.5-1.9 19.8-19.1 17.2-18.1-.2.1-4.4 4.4-9.5 9.5zm-243.8 7.3c2 2.4 10.9 8.7 15.5 11.1 3.6 1.8 1.4 0-5.5-4.5-3.3-2.1-7.3-5-9-6.4-2.8-2.4-2.8-2.4-1-.2zm350.1 19.6c.3 11.5.9 22.6 1.4 24.5.9 3.6.6-3.9-1-31.5-.7-12.2-.8-11.3-.4 7zM502 419c-9.6 5.8-10.3 6.5-2.5 2.5 5.9-3.1 11.1-6.6 9.5-6.5-.3.1-3.4 1.9-7 4zm160.7 15c.3 6.9.9 15.9 1.3 20 .6 5 .7 2.4.3-8-.3-8.5-.9-17.5-1.3-20-.5-2.6-.6.7-.3 8zm-75.4-1.9c.3.8 1.1 5 1.7 9.2.7 4.3 1.5 7.5 1.7 7.3.7-.7-1.7-14.7-2.8-16.5-.9-1.4-1-1.4-.6 0zM320 436.3c.8.9 13.2 3.9 13.7 3.3.3-.2-1.2-.9-3.3-1.5-6.2-1.5-10.9-2.4-10.4-1.8zm133.5.4c-1.1.2-4.4.9-7.3 1.4-3 .6-5.2 1.3-4.9 1.5.5.5 15.8-2.3 16.5-3.1.6-.6-1.3-.5-4.3.2zm-254.9 5c-1.4 6.8-2.6 16.1-2.5 19.3.1 1.9.9-2.1 1.9-9 1-6.9 1.7-12.6 1.5-12.8-.2-.2-.6.9-.9 2.5zm146.4.3c6.8 1.8 35.4 3.2 50.5 2.6 14.9-.6 35.9-2.6 35.2-3.2-.2-.2-10.2.4-22.2 1.3-18.8 1.4-24.5 1.5-40.5.5-10.2-.7-20.4-1.5-22.5-1.7l-4-.5 3.5 1zm33 13.9c-3 .3 4.4.6 16.5.6s19.3-.3 16-.6c-7.3-.8-25-.8-32.5 0zm214.6 9.1c1.7 14.4 2.3 78.6 2.4 241.6 0 100.7-.3 183.4-.7 183.8-.4.4-5.8-4.4-12-10.6l-11.2-11.2-1.4 3.4c-1.7 4.1-2.9 9-2.3 9 .2 0 1.2-2.3 2.1-5 .9-2.8 1.9-5 2.3-5 .3 0 5.2 4.6 10.9 10.2 5.7 5.7 10.9 10.3 11.6 10.3.9 0 1.3-40.6 1.5-185.5.3-179.2-.4-233.2-2.8-242-.9-3.3-.9-3.3-.4 1zm-351 8.2c-.8 1.3-1.7 3.4-2 4.8-.3 1.4.3.6 1.4-1.8 2.4-5.3 5.6-5.9 4.7-1-.5 2.9-.4 3 .5 1.1 2.2-4.6-1.8-7.4-4.6-3.1zm236.9 6.1c-.3.7.1 4 .9 7.3l1.5 5.9-.5-4.9c-.3-2.7-.8-5.5-1.1-6.2-.7-1.9 2.7-3 3.9-1.3.8 1.2.9 1.1.5-.1-.5-2-4.6-2.5-5.2-.7zm-170.9 4.8c-1.7 8.1-2.6 13.2-2.5 14.7.1.9 1-2.3 2-7.2s1.7-9.1 1.4-9.4c-.2-.2-.6.6-.9 1.9zm-113.9 10.1c-1.2 20.5-.8 396.6.4 397.4.6.3 5.9-4.2 12.1-10.2 10.6-10.4 11-10.8 12.5-8.9 1.5 1.9 1.5 1.9.8-.5-.4-1.4-.9-2.7-1.1-2.9-.3-.3-5.7 4.7-12.2 11l-11.7 11.4-.3-14.5c-.1-8-.1-99.9 0-204.3.2-104.3.3-189.7.2-189.7-.1 0-.4 5.1-.7 11.2zm291.3-6.1c0 2.6 3.2 19 3.7 18.6.5-.5-2.6-18.9-3.3-19.6-.2-.2-.4.2-.4 1zm-29.4 2.9c.3 1.9.8 25.1 1 51.5.4 40.2.3 48.9-1 53.5-1.9 7.3-1.2 7.8.9.6 1.5-5 1.6-11.3 1.2-53.9-.3-31.2-.8-49.4-1.5-51.7l-1.1-3.5.5 3.5zm-155.5 5.7c-2.2 13.1-2.2 13-1.2 10.8 1.1-2.5 3.3-16.6 2.7-17.2-.2-.2-.9 2.7-1.5 6.4zm367.6-1.2c.8 7.8.9 36.3 0 44-.5 5-.5 5.5.5 3 1.5-4.1 1.5-47.2-.1-50.5-.9-2-1-1.4-.4 3.5zM331.5 547c0 25 .1 35.3.2 22.7.2-12.5.2-32.9 0-45.5-.1-12.5-.2-2.2-.2 22.8zm-100.8-35.9c-1 4.6-1.5 8.4-1.2 8.7.4.5.7-.7 2.5-10.1.7-3.2 1-6.1.7-6.3-.2-.2-1.1 3.2-2 7.7zm252.4-4.1c0 .8.7 4.6 1.4 8.5l1.4 7-.5-7c-.3-3.9-1-7.7-1.5-8.5-.7-1.3-.8-1.3-.8 0zm-180.4 3.4c-.3.7-.8 4.7-1.1 8.7l-.5 7.4 1.4-8.5c1.3-8.1 1.4-10.8.2-7.6zm188 12.1c.3 4.4.9 10 1.4 12.5.6 3.2.6 2 .3-4-.3-4.7-1-10.3-1.4-12.5-.6-2.8-.7-1.6-.3 4zm-195.5 5.3c-.7 5.6-1.1 12.2-1.1 14.5.1 2.3.8-1.4 1.5-8.3.8-6.9 1.3-13.4 1.1-14.5-.1-1.1-.8 2.6-1.5 8.3zm258-4.8c0 1.4.6 6.5 1.3 11.5l1.4 9-.5-8c-.5-8.1-2.2-17.5-2.2-12.5zm-320.4 4.5c-.4 2.2-1 7.8-1.2 12.5l-.5 8.5 1.4-10.5c1.5-10.2 1.6-18.5.3-10.5zm392.8 9.6c-.9 3.9-1.5 7.4-1.2 7.6.2.2 1.1-2.8 2-6.8.9-3.9 1.5-7.4 1.2-7.6-.2-.2-1.1 2.8-2 6.8zm-64.9 6.9c.7 13.3.7 37.1-.1 51.5-.4 8.8-.4 9.4.6 4.5 1.3-7.1 1.3-51.4 0-60.5-1-6.3-1-5.8-.5 4.5zm-335 .7c-.8 8.4-.7 42.5.2 51.3.3 3.6.6-8 .6-25.7 0-17.8 0-32.3-.1-32.3s-.4 3-.7 6.7zm262.8 21.7c0 11 .3 18.7.6 17 .9-4 .9-26.8.1-32.4-.4-2.5-.7 4.5-.7 15.4zm131.7-13.2c-2.6 5.7-8.7 11.4-14.8 13.7l-4.9 1.9-.3 37.6c-.2 35.4-.1 37.6 1.5 37.5 1.1 0 1.3-.3.6-.6-1-.4-1.3-8.8-1.3-37.3v-36.8l3-.5c3.9-.8 10.4-5.2 13.3-9.1 3.1-4 6-9.6 5.4-10.3-.3-.2-1.4 1.5-2.5 3.9zM230.4 570c0 9.6.2 13.6.3 8.7.2-4.8.2-12.6 0-17.5-.1-4.8-.3-.8-.3 8.8zm433.7-10.9c-.7 3.3-1.5 6.8-1.7 7.8-.5 1.4-.4 1.4.6-.1 1.2-1.9 3.4-12.7 2.7-13.4-.2-.3-1 2.3-1.6 5.7zm-365.7 8.4c0 6.6.1 9.2.3 5.7.2-3.4.2-8.8 0-12-.2-3.1-.3-.3-.3 6.3zm-4.3 21.7c-.1 4.4 2.2 20 2.6 17.8.2-.8-.3-6-1.1-11.5s-1.4-8.3-1.5-6.3zm-62.5 9.3c.3 4.9.9 10.6 1.4 12.5 1 3.7.7-.5-1.1-15-.7-5.6-.7-5.3-.3 2.5zm260-1.3c-1.6 12.3-1.7 13.5-.7 10.5 1.1-3.3 2.6-15.7 1.8-15.7-.2 0-.7 2.4-1.1 5.2zM554 607c-.7 5.6-1 10.3-.7 10.6.2.3 1-4 1.7-9.6.7-5.5 1.1-10.2.8-10.5-.3-.3-1.1 4-1.8 9.5zm-219.9-6.3c1.5 4.1 5.7 11.1 7.2 12 .6.4.4-.4-.6-1.7-1-1.4-2.9-4.9-4.3-7.8-2.7-5.6-4-7-2.3-2.5z"/><path d="M451.4 606.2c-.9 1.8-3.9 5.7-6.8 8.7-2.8 2.9-4.1 4.8-2.9 4.2 3.5-1.8 14-16.1 11.9-16.1-.3 0-1.3 1.5-2.2 3.2zm188.7 4.7c-2.8 3.9-9.1 10.7-13.9 15.2-4.8 4.5-7.3 7.3-5.7 6.1 6.7-4.6 27.7-28.2 25.2-28.2-.2 0-2.7 3.1-5.6 6.9zm-262.9 8.8c9.2.2 24.5.2 34 0 9.5-.1 2-.3-16.7-.3s-26.5.2-17.3.3z"/><path d="M352 621.7c2.3 1.6 6.2 1.8 39 2.1 38.1.3 43.5.1 46.6-2.3 1.6-1.3 1.3-1.3-2.5 0-6.3 2.2-74.6 2.1-80.6 0-5.2-1.9-5.5-1.9-2.5.2zm197 11.9c-.7 3.2-1.4 6.5-1.7 7.4-.4 1.3-.4 1.3.6 0 1.2-1.8 3.5-11.9 2.8-12.7-.3-.2-1.1 2.2-1.7 5.3zM290.5 641c1.7.4 7.2 2.8 12.4 5.4 5.1 2.6 9.5 4.5 9.8 4.3.5-.6-3.5-8.7-4.2-8.7-.3 0 .2 1.4 1 3.1.9 1.7 1.4 3.3 1.2 3.6-.3.2-4.6-1.6-9.6-4.1-5-2.5-10.1-4.6-11.3-4.5-1.9.1-1.7.2.7.9zm177.4 8.5c-1.8 2.5-5.5 6.3-8.3 8.5-2.8 2.1-6.7 5.5-8.6 7.6-1.9 2 .1.7 4.5-3 8-6.8 13.7-12.6 15.6-15.9 1.9-3.3 0-1.7-3.2 2.8zm32.7 2c.3 3.9.9 8.6 1.4 10.5.8 3.5.8 3.5.8.5.1-1.7-.5-6.4-1.3-10.5l-1.4-7.5.5 7zm-215.5 5.6c-.7 5-1 9.3-.8 9.6.6.5 1.4-4.2 2.3-12.5 1-9.7-.2-7.3-1.5 2.9zm-20.9-4.9c-.7.7-1.2 1.6-1.2 2.2 0 .5.6.2 1.3-.8 1.8-2.4 2.8-1.8 10.7 6.9 3.5 3.8 7.1 7.4 7.9 7.9 1.6.9-10.3-12.1-14.2-15.7-2.3-2-2.9-2.1-4.5-.5zm251.2 4c-2.7 2.9-6.1 6.7-7.4 8.3-1.4 1.7-.5 1 1.9-1.5s6.1-6.2 8.2-8.3c2.1-2 3.5-3.7 3.1-3.7-.4 0-3 2.4-5.8 5.2zm14.2 17.8c.8 4.5 2.2 7.2 3.5 6.5 1.1-.7 4.1-7.6 3.6-8.2-.2-.2-1.2 1.5-2.3 3.8l-1.8 4.1-1.8-4.8c-1.5-4-1.7-4.3-1.2-1.4zm-188 2.1c.3 2 .1 5.3-.5 7.4-.7 2.7-.7 3.5 0 2.8 1.7-1.7 2.3-9.8 1-11.9-.9-1.6-1-1.3-.5 1.7zm-5.6 14c-1.9 1-4.2 1.7-5 1.5-6.3-1.8-8-1.7-8 .1 0 1.2.3 1.4.8.6.6-1 1.7-1 4.6-.2 4.1 1.1 8.4 0 10.7-2.7 1.4-1.7 1.3-1.7-3.1.7zm190.1 2.5c-1.2 2.5-2 4.8-1.8 5 .2.2 1.2-1.4 2.2-3.6 1.6-3.4 2-3.8 3.8-2.9 1.5.9 2.3.7 3.6-.7 1.5-1.7 1.5-1.7-.2-.5-1.5 1.2-2 1.1-3.6-.3-1.8-1.6-1.9-1.5-4 3zm-260.5 10.6c2.1 4.1 13.7 15.8 15.6 15.7.8 0 .6-.5-.6-1.2-4.2-2.6-9.8-8.2-12.8-12.8-3.6-5.6-4.6-6.4-2.2-1.7zm254.1 1.5c-3 4.6-7.1 9-11.2 12.1l-3 2.3 3.4-1.8c3.4-1.8 8.8-7.6 12.4-13.2 2.7-4.4 1.5-3.8-1.6.6zm-56.7 3.1c0 1.7 4.9 5.1 8.4 5.7 2 .4 4.8 0 7.4-1.1 5.4-2.1 5-2.8-.6-.9-5.1 1.8-9.4 1-12.7-2.3-1.4-1.3-2.5-2-2.5-1.4zm-141 1.7c-.7.8-2.9 2-4.9 2.6-3 .9-4.4.8-7.5-.5-4.9-2-5.6-2-5.5.1 0 1 .3 1.3.5.7.4-.9 1.6-.8 4.4.3 4.9 2 9.9 1.1 13-2.2 1.3-1.4 2.1-2.5 1.8-2.5-.3 0-1.1.7-1.8 1.5zm52.2 13.2c10.8.2 28.8.2 40 0 11.2-.1 2.3-.2-19.7-.2s-31.1.1-20.3.2zm-34.6 4.5c-3.5 4.6-8 15.8-5.8 14.4.5-.3 1.5-2.6 2.1-5.1.6-2.4 2.5-6.1 4.2-8 1.8-2 2.9-3.8 2.6-4.1-.3-.3-1.7 1-3.1 2.8zm115.5 13.3c0 .5.8 4.4 1.9 8.5 1.2 4.8 1.7 5.9 1.3 3-.5-4.4-3-13.4-3.2-11.5zM331 748.3c0 .2-.7 5.2-1.5 11.2-.9 5.9-1.4 11-1.1 11.2.2.2.9-2.6 1.4-6.4 1.9-11.8 2.3-16.3 1.8-16.3-.3 0-.6.1-.6.3zM460.5 772c.7 7.8 2.6 19.3 3.1 18.7.4-.4-2.5-22.7-3.2-24.2-.2-.6-.2 1.9.1 5.5zm-135.4 19.2c-.7 5.1-1.4 10.6-1.7 12.3-.3 2.3-.2 2.5.5 1 1-2.4 3.5-21.5 2.8-22.1-.2-.2-.9 3.7-1.6 8.8zM465.5 808c.7 8 2.6 19.3 3.1 18.7.5-.5-2.4-22.7-3.1-24.2-.3-.6-.3 1.9 0 5.5zm-145.9 21.2c-1.7 12.8-1.6 17.3.2 6.6 1.5-8.8 2.6-18.8 2-18.8-.3 0-1.3 5.5-2.2 12.2zM470.7 844c.3 3.6.9 8.3 1.3 10.5.7 3.4.8 3.6.8 1 .1-1.7-.5-6.4-1.3-10.5l-1.4-7.5.6 6.5zm-155.6 18c-.7 5.2-1.5 11.1-1.8 13-.3 1.9-.3 3.2.1 2.9.8-.8 3.9-22.6 3.3-24.2-.2-.6-.9 3.1-1.6 8.3zm-16.4 8.4c-.3.7 0 1.3.7 1.2.7 0 3.6 2.7 6.5 6.1 5 6 7.1 7.5 7.1 5.2 0-.5-.4-.8-.9-.5-.4.3-3.2-2.4-6.1-5.9-6-7.5-6.6-8-7.3-6.1zm176.9 8.1c.3 3.3.8 6.3 1.3 6.8.8.8 9-5.1 9-6.7.1-.4-1.5.6-3.4 2.3-2 1.7-4 3.1-4.4 3.1-.5 0-1.4-2.6-1.9-5.8l-1.1-5.7.5 6zm54.8-3.7c-2.8 4.5-12.5 23.2-12.1 23.2.7 0 13.9-24.1 13.5-24.5-.2-.2-.8.4-1.4 1.3zm33.8 14.4c-1.2 3.9-2 7.3-1.8 7.6.3.2 1.4-2.8 2.6-6.8 1.2-4 2-7.4 1.7-7.6-.2-.2-1.4 2.8-2.5 6.8zm-287.8 3c1.5 2.4 3.4 5.8 4.3 7.5 2.1 4.2 4.5 4.2 6.1.1 1.5-4.1.9-4.8-.8-.8-.7 1.6-1.5 3-1.9 3-.3 0-2.6-3.2-5-7-2.3-3.9-4.5-7-4.8-7-.3 0 .7 1.9 2.1 4.2zm-38.8 9.5-4.5 8.8-1.1-3.3c-.7-1.8-1.4-3.1-1.6-2.9-.7.6 1.7 6.7 2.6 6.7.8 0 7.8-12.3 9.3-16.3 1.6-4.4-.7-.9-4.7 7zm323-1.3c-.3 1.4-1.1 3.8-1.7 5.3l-1 2.8-2-4c-1.1-2.2-1.7-3.2-1.4-2.2.3 1.1.8 3 1.1 4.3 1 3.9 3.5 2.4 5.1-3 .8-2.6 1.2-5 1-5.3-.3-.2-.7.7-1.1 2.1z"/></g><path d="M188.5 709.5c0 107.2.1 151 .2 97.2.2-53.8.2-141.6 0-195-.1-53.5-.2-9.5-.2 97.8zM452.4 562c0 14 .2 19.8.3 12.7.2-7 .2-18.4 0-25.5-.1-7-.3-1.2-.3 12.8z" stroke-width="3" fill="#B27F66" stroke="#B27F66"/><path d="M625.4 395c0 9.1.2 12.8.3 8.2.2-4.5.2-11.9 0-16.5-.1-4.5-.3-.8-.3 8.3zm4 107c0 10.7.2 15.1.3 9.7.2-5.3.2-14.1 0-19.5-.1-5.3-.3-.9-.3 9.8zM194.5 695c0 108.1.1 152.3.2 98.3.2-54.1.2-142.5 0-196.5-.1-54.1-.2-9.9-.2 98.2zm136-146.5c0 22.5.1 31.9.2 20.8.2-11.1.2-29.5 0-41-.1-11.4-.2-2.4-.2 20.2zM458.4 562c0 13.5.2 19 .3 12.2.2-6.7.2-17.7 0-24.5-.1-6.7-.3-1.2-.3 12.3zm98 8.5c0 7.7.2 10.7.3 6.7.2-4 .2-10.3 0-14-.2-3.7-.3-.4-.3 7.3zm-68-3.5c0 5.2.1 7.4.3 4.7.2-2.6.2-6.8 0-9.5-.2-2.6-.3-.4-.3 4.8zM203.5 882.2l-8 8.3 8.3-8c7.6-7.4 8.7-8.5 7.9-8.5-.1 0-3.8 3.7-8.2 8.2z" stroke-width="3" fill="#994C19" stroke="#994C19"/><path d="M251.4 242.3c-.3.8-.4 5.2-.2 9.8l.3 8.4.5-9.8c.5-9.6.4-10.9-.6-8.4zm7 9.2c0 4.9.1 7.1.3 4.8.2-2.3.2-6.4 0-9-.2-2.6-.3-.8-.3 4.2zM377 380.1c2.4.7 21.5 1.1 19.5.4-.5-.2-5.7-.5-11.5-.8-5.8-.2-9.4 0-8 .4zm284.4 37.4c0 5.5.1 7.6.3 4.7.2-2.9.2-7.4 0-10-.2-2.6-.3-.2-.3 5.3zm-282.6 28.2c3.4.2 9 .2 12.5 0 3.4-.2.6-.3-6.3-.3-6.9 0-9.7.1-6.2.3zM195.3 488c0 4.7.2 6.6.4 4.2.2-2.3.2-6.1 0-8.5-.2-2.3-.4-.4-.4 4.3zm263 42c0 4.7.2 6.6.4 4.2.2-2.3.2-6.1 0-8.5-.2-2.3-.4-.4-.4 4.3zm-165.9 36c0 10.2.2 14.3.3 9.2.2-5 .2-13.4 0-18.5-.1-5-.3-.9-.3 9.3zm203 .5c0 4.9.1 7.1.3 4.8.2-2.3.2-6.4 0-9-.2-2.6-.3-.8-.3 4.2zm-264 4.5c0 6.9.1 9.7.3 6.2.2-3.4.2-9 0-12.5-.2-3.4-.3-.6-.3 6.3zm145.4 53.7c10.1.2 26.3.2 36 0 9.7-.1 1.5-.2-18.3-.2s-27.8.1-17.7.2zm-3.5 93c12 .2 31.4.2 43 0 11.7-.1 1.9-.2-21.8-.2-23.6 0-33.2.1-21.2.2z" stroke-width="3" fill="#994C33" stroke="#994C33"/><path d="M376 130c-33.1 2.6-60.2 11.8-79.4 27-4.8 3.8-14.1 14.1-18 20-14 21-19.7 43.4-19.5 76.7.1 19.7 1 27.9 2.2 19.3.4-2.5.9-7.2 1.3-10.4.3-3.3 1-6.6 1.4-7.5.5-.9 1.4-4.3 2-7.6 1.2-6.1 2-8.1 7.3-19.5 9.3-20 28.2-35.3 52.6-42.5 22.2-6.5 45.4-1.3 61.3 13.8 3.1 2.9 3.3 2.9 8.8-1.4 10.4-8.2 28.8-14.9 40.8-14.9 12.7 0 34.4 8.1 45.3 16.8 3.4 2.7 18.5 18 20.5 20.8 4.9 6.7 12.9 23.9 14 29.9.3 2.2 1 4.5 1.5 5 .7.9 2.8 14.6 3 19.5 0 .8.5.4 1.1-1 .6-1.5 1.1-10.6 1.1-22 .1-17.8-.1-20.6-2.7-32.5-1.5-7.1-3.4-14.2-4.2-15.7-.8-1.5-1.4-3.2-1.4-3.9 0-2.1-8.9-18.9-13.4-25.2-14.9-20.9-43.6-37.7-71.3-41.7-4.3-.6-10-1.5-12.8-2-7.3-1.3-30.5-1.8-41.5-1zm165 36c-7.5 2.1-16 5.9-23.5 10.8l-4 2.6 3.7 7.7c2.1 4.3 4 8.9 4.4 10.3.7 2.9 1.9 3.4 2.8 1.1.3-.8 1.7-2 3.1-2.5 1.4-.5 2.5-1.3 2.5-1.8s2.8-2.2 6.3-3.8c8.3-3.9 17.2-4 23.3-.4 5.1 3.1 11.3 10.4 12.1 14.2.3 1.6 1 3.1 1.4 3.4.5.3.9 2.3.9 4.4 0 7.3-7 16.9-15 20.5-1.9.9-4.6 2.2-5.9 2.8-1.4.7-6.8 1.2-12.5 1.2h-10.1l.3 8.5c.2 5 .8 8.8 1.5 9.2.7.4 7 .8 14.2.8 11.4 0 14-.3 21-2.6 9.4-3.2 14.6-6.5 20.8-13.4 6.4-7.1 9-14.2 9.5-26 .4-10.5-1.4-18.2-6.5-26.9-9.9-17-30.8-25.4-50.3-20.1zm-322 6.1c-22.9 4.5-39.7 32.4-33.5 55.7 6.3 23.8 26.6 35.8 56.8 33.6l8.7-.7v-17.5l-10.2-.4c-9.1-.3-11-.7-16.1-3.3-9.6-4.9-15.7-13.1-15.7-21.1 0-3.5 2.8-11.5 4.7-13.5 6.6-6.8 8.4-8.1 13.1-9.9 2.9-1.1 5.9-2 6.7-2 3.4 0 14.9 5.2 19.1 8.6 2.4 2 4.6 3.5 4.8 3.3.2-.2 1.1-2.9 2.1-5.9 1-3 2.6-7.2 3.6-9.2l1.9-3.7-4.9-3.5c-13-9.6-27.3-13.2-41.1-10.5zm433.8 125c-10.8 8.8-18.8 26-23.5 50.3-2.8 13.9-2.8 14.5-2.7 52.1.1 25.7.7 44.2 1.8 57 .9 10.9 1.6 29.3 1.6 43.3 0 26.7-1.5 38.3-6.7 50.7-4 9.6-10.9 16.5-18.5 18.6l-3.8 1V606c0 19.8.4 36 .8 36 1.3 0 12.3-6.8 17.9-11.2 6.7-5.2 16.1-15.1 22.7-24.2 20.2-27.7 29.5-72 24.2-114.6-.8-6.3-2-19.2-2.6-28.5-.6-9.4-1.5-22.5-2-29.3-1.5-18.7-1.2-47.6.6-62.5 3.1-25.8 10.6-40.8 23.9-47.5l4-2-3-.7c-1.6-.3-3.7-1-4.5-1.4-.9-.5-3.5-1.2-5.8-1.6-2.7-.4-4.2-1.2-4.2-2.2 0-.8 4.8-6.1 10.8-11.9l10.7-10.4h-19l-19 .1-3.7 3zm-112 64.7c-.5 11.4-3.2 21.6-7.9 29.7-5.7 9.9-17.1 21.2-28.4 28.2-6.8 4.2-17.6 9.3-19.7 9.3-.9 0-1.9.4-2.2.8-.3.5-3.3 1.7-6.8 2.6-3.5 1-7.4 2.2-8.7 2.8-5.1 2-32.1 6.9-43.6 7.8-6.6.6-16.1 1.5-21.2 2-12.5 1.4-22 1.2-40.7-.5-19.2-1.8-20.4-2-33.4-5.2-23.3-5.7-38.9-13.4-54.6-26.8-14.2-12.2-25.2-30.9-27.7-47-2.1-13.4-1.5-12.6-5.7-7.9-8.3 9.1-10.9 12.2-14.4 17.4-5.3 8-11 18.6-13.6 25.5-10.4 26.9-14 45.9-16.1 84-1.2 21.3-1.6 404.5-.4 404.5.4 0 5.6-4.8 11.5-10.7l10.9-10.7 1.5 2.8c.8 1.6 2.1 5.4 3 8.5.9 3.1 2 6 2.4 6.6.4.5 1.3 2.8 1.9 5 .7 2.2 2.4 7.2 3.9 11.1l2.6 7 6.4-12.5c3.5-7 8.8-17.4 11.8-23.3 3-5.9 5.9-11 6.4-11.3.5-.3 2 1.1 3.4 3.2 3.1 4.8 12.2 19.6 17.8 29 2.4 4 4.5 7.3 4.8 7.3.3 0 1.1-1.2 1.7-2.8 3.3-7.9 7.4-17.5 10.2-23.7l3.2-7 3.2 3.5c1.8 1.9 4.3 5 5.6 6.7 1.2 1.8 2.6 3.3 3 3.3.5 0 1.1-1.9 1.4-4.3.4-2.3 1.8-12.5 3.2-22.7 1.4-10.2 3.6-26.4 5-36 1.4-9.6 3.6-25.6 5-35.5 4.3-31.2 5.2-35.8 8-44.3 3.1-9.2 7.7-15.1 15.3-19 4.2-2.2 4.8-2.2 45.8-2.2 39.5 0 41.7.1 45.4 2 5.6 2.9 10.8 7.7 13.1 12.1 3 6.1 6.7 22.1 8.9 38.9 1.1 8.5 3.1 23.4 4.5 33 1.4 9.6 3.6 25.6 5 35.5 1.9 14 5.9 42.4 6.5 45.5 0 .3.4 0 .8-.6.9-1.4 16.4-14.4 17.2-14.4.3 0 4.5 7.2 9.4 16.1 5.2 9.4 9.2 15.7 9.8 15.1.5-.5 5.7-9.6 11.6-20.3 5.9-10.7 11.1-19.4 11.6-19.4.6 0 2.7 4.5 4.8 10l6.2 15.5c1.3 3 3.7 8.8 5.2 12.8s3.1 6.9 3.4 6.5c.4-.5 2.2-5.5 3.9-11.3 4.4-14.2 7.5-23.2 8.5-24.9.6-1 3.8 1.6 12.3 10l11.4 11.4-.4-207.5-.3-207.5-2.7-19.5c-1.5-10.7-3-20.2-3.3-21-.3-.8-1.4-4.9-2.4-9-4.6-18.7-12.2-36.2-21.9-50.5-5.9-8.7-15-19.3-19.2-22.4l-2.7-2-.4 10.7zM417.5 456c23.4 3.4 36.3 15.2 39.6 36.1 1.8 11.6 1.8 98.9 0 105.4-1.9 6.7-9.2 17.7-14.4 21.5-7.9 5.8-10.7 6.1-50.4 5.8-34-.3-36-.4-40.3-2.4-6.7-3.2-13.5-10.5-17.8-19.3l-3.7-7.6-.3-43.4c-.4-55.7.6-66 7.8-77.6 5.5-8.9 17.9-16 32.1-18.4 7.5-1.2 39-1.3 47.4-.1zm-171.1 15.6c2 2 2 1.5-.8 10.4-6.1 18.9-7.8 25.8-11.9 50.5-1.5 8.8-1.5 65.6 0 74 4.9 27.7 9 42.6 17.6 63.8 1.7 4.2 3.4 7.4 3.8 7 .3-.5 1.1-2.6 1.7-4.8 3.3-12.1 5.5-19.1 6.4-20.3 2.3-2.8 5.4-1.2 12.1 6.3 3.8 4.1 7.2 7.5 7.6 7.5.4 0 1.4-5.4 2.1-12 1.2-11.5 2.4-15 5.1-15 .8 0 16.3 7 19.1 8.7.9.5.6-.3-4.4-10.9-2-4.2-4.2-9.6-4.8-12-.6-2.4-1.8-6.2-2.5-8.5-2.4-7.1-5.5-35.5-5.5-50 0-12.9 3-47.2 5.1-57.2.5-2.5 1.8-10 3-16.6 2.2-13.1 4.3-17 7.7-14.8 1 .6 1.6 2.2 1.5 3.9-.1 2.7-3.2 20.6-5.2 30.4-2 10-5.3 51.7-4.8 61 .8 13.6 3.6 35.6 5.2 40.4.7 2.3 1.9 6.1 2.5 8.6.7 2.5 2.3 6.9 3.6 9.8 1.3 2.9 2.4 5.5 2.4 5.9 0 1.8 10.9 16.3 14.2 18.8 8.4 6.5 11 8.9 13.5 13.2 2.2 3.8 2.5 5.2 2.1 11-.4 5.9-.7 6.8-3.7 9.5s-3.9 3-8.6 2.6l-5.1-.4.9 4.1c1.4 6.3.2 10.8-3.9 14.4-3.7 3.3-8.7 4.1-13.7 2.2-2.2-.9-2.7-.6-3.8 2.1-3.9 9.4-19.7 9.2-30.8-.5-4.7-4.1-7.4-7.9-11.7-16.4-3.1-6.2-3.9-7.1-5.4-6.3-1.1.6-2.2.5-3.2-.3-2.9-2.3-12.3-24.1-16.7-38.7-1.3-4.1-2.9-9.3-3.6-11.5-1.8-5.1-6.1-26.6-7.4-37-2.6-20.1-2.1-60.5.9-77.3 3.2-18.2 4.5-24 7.1-33.7 6.2-22.3 8.3-26 12.3-21.9zm298.8-.4c1.5 1.2 3.5 6.6 8.3 22.8 2.1 6.7 5 21.1 7.2 35 2.1 13.5 2.5 63.9.5 77.5-3.2 22.7-9.4 45.8-17.4 65-7.6 18.2-10.5 22.6-13.8 20.5-1-.6-2.3 1.1-5.2 6.8-5 10.1-11.1 17-18.2 20.6-4.8 2.5-6.5 2.8-12.1 2.4-7-.4-10.8-2.8-11.9-7.3-.6-2.2-.9-2.3-3.7-1.3-1.7.6-5.1.8-7.7.5-8-.9-12.7-9.2-9.9-17.4l1.3-3.9-5.7.4c-5.5.4-6 .3-8.8-2.8-3.4-3.7-4.6-9-3.6-15.2.7-4.2 4.9-9 17.6-20.4 20.5-18.3 30-66 23.9-120.4-1.2-10.7-3-23.8-4-29-4.8-24.7-4.9-28-1.2-28 3.1 0 4 1.9 6.2 13.5 1.1 6.1 2.5 13.2 3 16 1.6 8 4 29.8 5.1 45.8 2.2 32.6-3.4 67.8-14.2 88.4-2.1 4-3.6 7.3-3.3 7.3.2 0 4.5-2 9.4-4.5s9.6-4.5 10.4-4.5c2.6 0 3.5 2.5 5 14.4.9 6.6 1.8 12.1 2.1 12.4.2.2 4-3.3 8.3-7.8 9.7-10.1 10.8-10 14 1.2 6.1 21.2 5.8 20.5 6.7 17.8.4-1.4 1.8-4.8 3-7.5 7.5-17.1 14.9-45.2 17.6-67 1.6-12.4 1.6-51.5.1-65.2-2-17.9-6-36.1-12.3-55.9-2.2-7-2.4-10-.6-10.7 1.9-.8 2.2-.8 3.9.5z" stroke-width="3" fill="#B24C33" stroke="#B24C33"/><path d="M416 382c-1.9.4-5.7 1.1-8.3 1.5-2.7.3-4.7.9-4.4 1.1.6.6 14.5-1.6 17.2-2.6 2.5-1.1.2-1.1-4.5 0zm-54 .9c1.4.4 5.4 1 9 1.4 3.6.3 5.4.2 4-.2-1.4-.4-5.4-1.1-9-1.4-3.7-.3-5.4-.3-4 .2zM594.5 702c0 103.7.1 146.1.2 94.2.2-51.8.2-136.6 0-188.5-.1-51.8-.2-9.4-.2 94.3z" stroke-width="3" fill="#993319" stroke="#993319"/><path d="M427.6 183.9c-1.7.3 2.3.6 8.8.6 6.4 0 10.7-.3 9.4-.7-2.9-.8-14.4-.8-18.2.1zM684.1 304c-5.7 5.5-10.2 10.2-10 10.4.2.2 5.1-4.3 10.9-10 5.8-5.7 10.3-10.4 10-10.4-.3 0-5.2 4.5-10.9 10z" stroke-width="3" fill="#B26633" stroke="#B26633"/><path d="M657.3 293.2c-.2.5 8 .7 18.4.6 19-.2 17-.6-5.5-1-6.8-.2-12.6 0-12.9.4z" fill="#E5B27F" stroke="#E5B27F" stroke-width="3"/><path d="M337.5 184.6c-7.7 1.2-18.9 5-28.2 9.6-28.9 14.2-44.7 43.3-46 84.8-.5 13.8-.3 16.5 1.7 24.2l2.2 8.7-3.7 3.8c-2.1 2.1-5.4 7.2-7.4 11.3-3.4 7.1-3.6 8-3.9 20.1-.3 7.3.1 14.9.7 18 7.7 36.1 42.8 62.9 92.2 70.4 14.1 2.1 41.9 3.4 54.4 2.4 26.6-2 36.2-3.1 47.7-5.5 47.5-9.5 74.2-26.7 83.5-53.9 6.7-19.5 2.2-46.8-11.7-71.4-3.9-6.9-4-7.3-2.6-10.4.9-1.8 2-5.4 2.6-8 2.1-9.6-2.2-35.8-8.1-49.3-9.1-20.8-25.9-38.2-45.9-47.6-7.5-3.6-21-6.8-28.2-6.8-12.5 0-28.8 6-40 14.6-3.1 2.4-5.9 4.4-6.3 4.4-.4 0-3.2-2.2-6.3-4.8-7.2-6.2-12.9-9.3-21.5-12.1-6.8-2.1-19.3-3.4-25.2-2.5zm-18.4 25.3c3.5 2.9 1.6 5.4-4.6 6.3-5.9.8-9.2 3.2-11.8 8.2-1.6 3-2.4 3.7-4.6 3.4-3.8-.4-3.9-4.2-.1-10.1 2.3-3.7 4.3-5.4 8.3-7.2 6.4-2.9 9.8-3.1 12.8-.6zm155.9 1.6c5.6 2.9 11.6 12.5 9.9 15.7-1.7 3.2-4.7 2.1-8.1-3.1-3.7-5.6-6.2-7.1-11.8-7.1-2.9 0-4.2-.5-5-1.9-1.2-2.4-.4-4.8 1.8-5.5 2.5-.7 10.3.4 13.2 1.9zm-132.7 18.7c20.7 10.4 25 36.7 8.6 52.5-15.1 14.5-40.1 11.5-51.5-6.2-6-9.4-6.5-23.5-1.2-32.4 9.6-16.2 28.1-22 44.1-13.9zm118-.7c7.9 3.2 14.7 9.3 18.4 16.5 2.4 4.7 2.8 6.7 2.8 14 0 7.4-.4 9.2-2.9 14-3.9 7.5-8 11.6-15.6 15.3-5.7 2.8-7.4 3.2-14.5 3.2-6.4-.1-9.1-.6-13.5-2.6-6.6-3.1-13.2-9.5-16.8-16.4-2.3-4.3-2.7-6.2-2.6-13.5 0-7.2.4-9.3 2.7-13.6 8.3-16.1 26.1-23.3 42-16.9zm-59.6 66.6c4.4 1.6 10.3 6 15.5 11.4 5.1 5.2 5.5 6.4 3.6 8.3-2.2 2.2-4.3 1.3-10-4.2-6.7-6.5-10.3-8.5-16.8-9.3-7.5-.9-13.1 1.7-21.2 9.9-7.1 7-8.7 7.8-10.8 5.3-1.8-2.2-.4-4.9 6.2-11.4 8.4-8.3 14.2-11.1 23.4-11.1 4 0 8.5.5 10.1 1.1zm2.9 16.5c2.1 1 3.4 2.4 3.4 3.5 0 1.6-.7 1.9-4.1 1.9-5 0-7.9-1.5-7.9-4 0-3.2 3.5-3.8 8.6-1.4zm-18 .9c.9 2.2-1.3 4.3-5.8 5.7-3 .9-4.1.9-5.1-.1-.9-1-.5-1.9 2.1-4.2 3.5-3.1 7.9-3.8 8.8-1.4zm92.2 17.6c3.2 1.1 9.2 8.8 9.2 11.9 0 4-5.2 5.4-7.1 1.9-1-2-1.2-1.9-3.5 2.1-1.3 2.3-3.7 5.9-5.3 7.9-1.5 2-3.6 6.3-4.5 9.6-1 3.3-3.9 10.3-6.4 15.5-3.9 7.8-6.2 11-13.2 18.1-9.4 9.5-14 12.4-26.2 16.5-7.5 2.5-9.6 2.8-21.8 2.8-7.4 0-15.3-.5-17.5-1.1-2.2-.6-6.6-1.8-9.8-2.7-17-4.7-31.7-15.4-41.8-30.4-2.7-4.1-4.9-7.8-4.9-8.3 0-2.9-5-11.2-10.1-16.8-3.3-3.5-5.9-6.8-5.9-7.2 0-2.3-1.9-.5-3.3 3.1-1.8 4.6-4.2 6-6.4 3.7-1.4-1.4-1.5-2.2-.4-5.8 1.8-6 5.8-10.5 11.3-12.9 7.4-3.2 12.8-2.2 12.8 2.4 0 2.5-1.7 3.6-5.6 3.6-3.3 0-3 1.1 1.9 7.2 14.2 17.5 36.8 26.1 68.2 26.2 38.9.1 70.3-13.5 82.8-35.8l2.4-4.4-2.3-1.1c-1.6-.7-2.4-1.9-2.4-3.5 0-3.6 3.9-4.6 9.8-2.5zM542 190c-4.8 1.6-10.5 4.9-14.7 8.5-3.7 3.1-4.1 3.9-3.2 5.6.6 1.1 2.3 8.4 3.8 16.2l2.7 14.2 4.5.7c12.9 2.3 29.8-5.2 34.8-15.5 2.7-5.6 2.6-10-.3-16.2-5.3-11.2-17.1-16.9-27.6-13.5zm-316.5 7.3c-14.6 6.9-19.1 25.9-8.4 35.3 7.4 6.4 20.1 10.3 29.2 9 5.1-.8 5.3-1 6-9.6.2-2.5 1.2-9 2.2-14.5l1.8-9.9-3.9-3.4c-4.7-4.1-13.2-8.2-18.2-8.8-2.6-.4-5.3.3-8.7 1.9zm457 86.3c-5 .8-17.8 5.3-21 7.4l-3 2h18.2c11.8 0 18.4.4 18.8 1.1.4.5-4.2 5.7-10.1 11.4-6 5.7-10.7 10.5-10.4 10.7.3.3 4.7 1.5 9.8 2.7 6.8 1.6 10.7 2 15 1.6 7.9-.9 16.3.8 21.6 4.5 13.6 9.3 12.7 33.4-1.8 44.9-3.1 2.5-4.8 3.1-8.5 3.1-4.9 0-6.2-.6-13.7-5.7-4.3-3-4.8-3.1-7.4-1.8-3.4 1.7-4 3.3-4 9.5 0 3.8.6 5.6 2.8 8.2 4.3 5.3 6.2 6.5 14.2 9.5 6.8 2.5 8.7 2.8 20.5 2.8 12.8-.1 13.1-.1 18.7-3.3 7.2-4.1 11.9-9.6 16.4-18.9 4-8.2 5.4-15.3 5.4-26.9 0-19.3-6.7-35.4-19.6-47.4-6.9-6.4-10.1-8.3-20.4-12.4-7-2.8-8.5-3-23-3.2-8.5-.1-16.8 0-18.5.2zM292.1 657.8c-2.7 22.4-4.7 25.1-12.4 16.6-10.5-11.7-11.6-12.7-12.1-11.3-.2.8-1.3 4-2.5 7.2-2.7 7.6-2.7 8.8.6 17.5 3.6 9.4 10.8 19.9 16 23.5 5 3.3 12 4.5 14.7 2.4 1.9-1.4 1.9-1.6.2-6-.9-2.5-3-6.2-4.7-8.3-3.4-4.3-3.6-5.5-1.1-7.7 2.8-2.5 3.8-2.1 7 2.5 6.1 8.8 14.2 14 18.7 12 5.2-2.4 2.4-12.5-6.4-23-5.7-7-5.7-6.9-3.7-9.1 2.6-2.9 4-2.6 7.8 1.1 7.3 7.3 15 11.5 18.7 10.3 2.3-.7 3.5-5.2 2.6-9.5-1.1-4.9-9.6-11.3-26.6-19.9l-15.7-7.9-1.1 9.6zm185.9-1.6c-10.3 5.2-17.3 9.4-20.7 12.6-5.1 4.5-5.3 5-5.3 9.9 0 5.9 1.6 7.9 5.7 6.8 3.6-.8 11.9-6.4 15.7-10.4 3.4-3.6 4.7-3.8 6.9-1.3 2.1 2.3 2.1 3.4-.1 5.8-7.1 7.8-12.2 16.8-12.2 21.6 0 4.1 3.8 6.3 8.3 4.9 3.3-1.1 14.7-11.9 14.7-13.9 0-1.4 2.7-2.3 4.5-1.6.9.4 2 1.5 2.6 2.6.8 1.6.4 2.7-2.3 6.1-3.9 4.9-5.8 8.8-5.8 12.2 0 2 .7 2.5 3.4 3.1 7.1 1.3 15.7-4.2 22.1-14.2 1.9-3 3.5-5.6 3.5-5.9 0-.2 1.1-2.8 2.4-5.7 3.6-8.2 3.7-9.6.7-18.7l-2.7-8.4-4 4.3c-11.5 12.7-14.2 14.7-15.9 11.9-1.1-1.6-3.4-13.7-4.1-20.9-.4-3.6-.9-7-1.3-7.5-.4-.7-6.7 2-16.1 6.7zM526.5 896c-6 11-11.4 19.9-12 19.7-.5-.2-3.6-5.3-7-11.3l-6-10.9-1.1 8c-1.5 11.3-3.9 19.6-8.5 29.2-4.5 9.4-4.9 13.8-1.8 19.3 3.3 5.9 11 9.2 23 9.8 14.4.7 18.1-2 16.5-12.1-1.4-8.3-5.4-11.3-16.7-12.5-8.2-.8-10.7-2.8-7.7-5.9 4.1-4 20-.8 26.1 5.3 4.3 4.3 6 9.3 6 17.7 0 5.2.3 6 2.6 7.1 6.7 3.5 18 2.7 21.4-1.5 1.8-2.2 2.3-7.4.8-8.3-.4-.3-1.1-1.8-1.4-3.3-.3-1.6-2.4-5.2-4.6-8.2-4.5-5.9-5.1-8.6-2.1-9.6 3.7-1.2 7.4 2.8 13.5 14 4.9 9.2 7.1 11.5 11 11.5 4 0 9.5-5.4 9.5-9.3 0-3-3.5-9.1-7.5-13.1-3.3-3.3-3.1-6.9.4-7.4 1.6-.3 3.5.7 5.8 3l3.6 3.3-.7-4.4c-.4-2.8-3.2-8.7-7.5-16-3.7-6.4-7.4-13.2-8.1-15.1-.7-1.9-1.6-3.9-2-4.3-.4-.5-2.2 3.8-4 9.5-1.7 5.7-3.5 11-3.9 11.8-.4.8-1.6 4.6-2.6 8.3-1 3.8-2.3 6.6-2.9 6.4-.6-.2-2.1-2.8-3.3-5.8-1.1-3-2.6-6.7-3.3-8.2-.7-1.5-2-4.9-3-7.5-4.3-11-6.2-15.9-7.4-18.7-.8-1.7-1.9-4.7-2.6-6.8-.6-2-1.2-3.7-1.3-3.7-.1 0-5.1 9-11.2 20zm-233.9 4.7c-.4 1.8-.7 3.6-.7 4 0 .5-.7 1.2-1.5 1.6-.8.5-1.3 1.6-1 2.5.3.9-.5 5.3-1.7 9.7l-2.3 8-5.9.6-6 .6 5.2.1c6.7.3 8.3.9 8.3 3.7 0 2.6-1.7 3.5-6.8 3.5-8.4 0-15.3 3.6-17.3 8.9-1.8 4.7-1.3 11.1 1 13.4 2 2 3.2 2.2 12.9 2.1 9.6 0 11.3-.3 16.4-2.8 5.9-2.9 7.7-4.8 9.6-10.4 1-2.9.7-4.5-1.9-12-4.6-13.1-5.8-17.8-6.7-27.7-.6-7.4-.9-8.4-1.6-5.8zm-82.4 31.6c-2.7 2.9-6.2 8.9-6.2 10.5 0 2.2 4.8 7.8 8.4 9.7 3.4 1.9 3.5 1.9 5.6 0 3.2-2.9 6.1-9.3 4.5-9.8-.6-.3-3.2-3.2-5.7-6.6l-4.6-6-2 2.2zm25.2 6.1c-4.6 6.1-6.4 10.4-6.4 15.2 0 3.8.4 4.5 2.9 5.8 6.3 3.3 15.8 2.8 21.8-1 3-1.9 1.9-4.2-5.9-12.5-3.3-3.5-6.8-7.6-7.7-9l-1.6-2.6-3.1 4.1z" stroke-width="3" fill="#FC9" stroke="#FC9"/><path d="M334 255.6c-2.8 1.5-5.9 5.3-6 7.3 0 .8 1.1 2.9 2.6 4.8 3.3 4.3 7.9 4.6 11.5.6 1.3-1.4 1.8-2.3 1.1-1.9-4.3 2.5-9.2-3.5-7.2-8.9 1.3-3.4 1.2-3.5-2-1.9zm118 2.4c-2.2 2.2-2.6 7-.9 10.1 1.5 3 5.6 4.2 9.5 2.9 4.3-1.5 5.3-4 1.5-4-4.9 0-8.2-6.5-4.9-9.8.9-.9.7-1.2-1-1.2-1.2 0-3.1.9-4.2 2z" stroke-width="3" fill="#331900" stroke="#331900"/><path d="M453.5 369.1c-11.8 7.5-29 13.4-45 15.5-25.4 3.4-58.2-1-73.1-9.8-4.1-2.4-4.2-2-.7 3.5 5 8 11.8 15.1 19.1 19.8l7.4 4.7 5-3.1c4.6-2.9 5.9-3.2 13.2-3.2 5.6 0 9.7.6 13.3 1.9l5.3 2 4.7-2.5c4.1-2 6.2-2.4 14.8-2.4 8.4 0 10.7.3 14.3 2.2l4.3 2.3 4.6-4.3c2.5-2.3 6.2-6.7 8.3-9.7 3.9-5.7 10.4-18.9 9.7-19.6-.2-.2-2.5 1-5.2 2.7z" fill="#CC1919" stroke="#CC1919" stroke-width="3"/><path d="M408.4 397.9c-1.7.5-4.2 1.5-5.5 2.4-3.1 2.2-6.7 2.1-12.9-.3-6.9-2.7-15.2-2.6-20.8.4-3.5 1.8-4.1 2.4-3 3.4 1.6 1.3 12.2 4.2 15.5 4.2 1.2 0 2.5.4 2.8 1 .7 1.2 26.7 1.4 28.1.2.5-.5 3.4-1.4 6.4-2.2 5.7-1.3 13-4.9 13-6.3 0-2.9-15.4-4.7-23.6-2.8z" fill="#FFCCE5" stroke="#FFCCE5" stroke-width="3"/><path d="M286.9 914.8c-.7.9-1.4 2.8-1.4 4.2-.1 1.4-.4 3.8-.9 5.5-.5 2-.4 2.7.2 2 1-1 4.4-12.6 3.9-13.2-.2-.1-1 .5-1.8 1.5zM213 930.5c0 1.3 8.9 12.5 10 12.5.4 0 1.1-.8 1.5-1.8.5-1.3.4-1.4-.6-.5-.9.9-1.8.4-4.1-2.5-1.6-2-3.8-4.8-4.9-6.2-1-1.3-1.9-2-1.9-1.5zm26.7 2.2c-.4.3-.7 1.2-.7 1.9 0 1.4 12.8 16.4 14 16.4.4 0 1-1.4 1.2-3 .3-1.7.1-3-.4-3-.4 0-.8.9-.8 2s-.4 2-1 2c-.5 0-1-.4-1-.8 0-.5-2.5-3.7-5.5-7.2-3.1-3.5-5.3-7-5.1-7.7.6-1.4.3-1.7-.7-.6z" stroke-width="3" fill="#FFCCB2" stroke="#FFCCB2"/><path d="M256.4 881.5c-1 2.5-2.1 4.5-2.5 4.5-.4 0-1.5 2.2-2.5 5-1 2.7-2.1 5-2.5 5-.4 0-1.5 2.2-2.5 5-1 2.7-2.1 5-2.5 5-.3 0-1.4 2.1-2.4 4.7s-2.2 5.2-2.7 5.8c-.5.5-1.9 3-3.1 5.5-2.7 5.3-4.4 6.1-5.3 2.3-.4-1.5-1-3-1.4-3.3-.3-.3-1.5-3.4-2.5-7s-2.2-6.7-2.5-7c-.3-.3-1.2-2.8-2.1-5.5-.8-2.8-1.9-5-2.4-5-.4 0-1.6 2.4-2.7 5.4-1 3-2.2 5.7-2.6 6-.4.3-1.6 2.3-2.5 4.3-1 2.1-2.2 3.8-2.7 3.8-.4 0-1.5 2-2.3 4.4l-1.5 4.3 3-1.1c2.6-1 3.1-.8 4.8 1.4 1.2 1.6 1.5 2.7.8 3.1-1.1.7-.6 1.9 1.8 4.9.7.8 2.6 3.2 4.2 5.2 2.8 3.6 3 3.7 4.6 1.9.9-.9 1.6-2.3 1.6-3 0-1.5 8.6-10.1 10-10.1 2 0 4.3 3 4.3 5.5 0 1.5 2 4.8 5.3 8.6 3 3.5 5.4 6.6 5.4 7.1 0 .4.5.8 1 .8.6 0 1-.9 1-2s.4-2 .9-2 1.1-1.7 1.5-3.9c.7-4.6 6.6-10.5 11.5-11.6 1.7-.3 3.3-1.1 3.6-1.6.4-.5 3.5-.9 7-.9h6.4l1-3.8c1.5-5 1.4-6.2-.4-6.2-.8 0-2.2-1.5-3-3.3-1.8-3.8-5.9-10.7-7.3-12.3-.6-.6-2-2.9-3.1-5-3.4-6.1-6.3-10.9-7-11.4-.4-.3-1.5-2.2-2.4-4.3-1-2-2.2-3.7-2.6-3.7-.4 0-1.6 2-2.7 4.5z" fill="#FFE5B2" stroke="#FFE5B2" stroke-width="3"/><path d="M462.4 1154c0 5.8.1 8.1.3 5.2.2-2.8.2-7.6 0-10.5-.2-2.8-.3-.5-.3 5.3z" fill="#E5FFFF" stroke="#E5FFFF" stroke-width="3"/><path d="M304.3 1157c0 4.7.2 6.6.4 4.2.2-2.3.2-6.1 0-8.5-.2-2.3-.4-.4-.4 4.3z" fill="#667FB2" stroke="#667FB2" stroke-width="3"/><path d="M408.7 1091.1c-1.7 1-5.6 8.6-7.2 13.9-.4 1.4-1.3 3.8-2 5.5-.7 1.6-3.2 8.2-5.5 14.5-2.2 6.3-4.7 12.8-5.4 14.5-.8 1.6-1.9 4.8-2.6 7-.7 2.2-1.6 4.4-2 5-.4.5-1.3 3.1-2 5.7-1.1 4.2-1 5.1.4 7.3 3.2 4.8 10.1 2.2 12.1-4.5.4-1.4 1.6-4.3 2.6-6.5s2.5-5.7 3.3-7.8l1.5-3.7h10.9c11.6 0 12.3.3 13.7 5 .4 1.4 1.8 4.9 3.1 7.8 1.3 2.9 2.4 5.7 2.4 6.2 0 1.6 5.4 6 7.3 6 3.7 0 5.7-1.9 5.7-5.5 0-2.8-3.7-14.2-7.1-22-.5-1.1-1.8-4.5-2.8-7.5-6-17.2-14.5-37.8-16.3-39.7-2.3-2.5-7-3-10.1-1.2zm7.9 30 2.1 6.4-5.4.3c-3.1.2-5.7.1-5.9-.1-.2-.2.6-2.8 1.7-5.8s2.2-6 2.4-6.7c1-2.8 3-.4 5.1 5.9zM241 1104.6c-.6 1.4-1 6.3-1 10.9 0 11.5-.1 11.7-5.7 9.8-8.4-2.9-17.8.8-23.1 9.1-2.3 3.5-2.7 5.2-2.7 11.8 0 6.9.3 8 3 12 1.8 2.5 4.9 5.3 7.5 6.6 3.9 2 5.4 2.2 10.5 1.7 7.5-.9 10.3-.9 13.5 0 1.6.4 3.3.1 4.5-.9 1.9-1.4 2-2.9 2.5-30.3.3-15.8.2-29.8-.2-31.1-.6-1.7-1.5-2.2-4.3-2.2-2.9 0-3.7.5-4.5 2.6zm-3.3 31.5c.9.8 1.3 3.8 1.3 9.4 0 9.5-1.2 11.3-7.9 12.2-6 .8-9.6-1.1-12.1-6.3-1.7-3.8-1.9-5.1-1-8.4 2.1-8 8.5-12 14.9-9.4 1.9.8 4 1.9 4.8 2.5zm237.8-33.2c-4.6 2-8.3 6.8-9.5 12.8-.7 3.2-1.4 6.3-1.5 6.9-.2.6-2.2 1.4-4.5 1.7-4.6.6-7 2.2-7 4.7 0 2.7 3.3 5 7.4 5h3.8l-.3 14.9c-.4 15.5.2 18.1 4 18.1 4.2-.1 4.6-1.3 5.1-17.2l.5-15.3 6.5-.5c7.8-.6 9-1.3 9-5 0-2.3-.6-3-3.1-3.9-1.8-.6-5.2-1.1-7.5-1.1-4.3 0-4.4-.1-4.4-3.4 0-4.8 3.3-8.6 7.5-8.6 5.7 0 8.5-1.6 8.5-4.8 0-1.5-.5-3.3-1.2-4-1.3-1.3-10.2-1.5-13.3-.3zm40.7.8c-4.4 2.2-8 8-9 14.5l-.7 5.2-4.5.9c-5.1 1-7.3 3.1-6.4 6.1.9 2.8 2.3 3.6 6.7 3.6h3.7v15.3c0 15.7.5 17.7 4.1 17.7 4.3 0 4.9-2.4 4.9-18.1V1134h6.1c7.6 0 9.9-1.2 9.9-5 0-3.3-1.4-4-10-4.9-5.4-.6-5.5-.7-5.2-3.6.2-1.7 1-4 1.8-5.2 1.4-2.2 2.4-2.6 9.7-3.8 2.8-.4 4.1-1.3 5-3.2 1-2.2.8-2.8-1.2-4.4-2.9-2.4-10.3-2.5-14.9-.2zm-209.6 19.9c-1.4 1.3-1.6 4.7-1.6 22v20.4l2.4.6c3.5.8 6.2-1 7-4.7.3-1.7.6-7.8.6-13.4v-10.3l3.4-1.6c4.3-2 8.8-2 12.6-.1 2.8 1.4 3.1 1.4 5-.5 1.1-1.1 2-2.9 2-4 0-2.6-3.3-5.8-6.7-6.5-1.6-.4-3.7-.8-4.8-1-1-.2-3.8 0-6.2.5-3.7.9-4.6.7-6.3-1-2.4-2.4-5.3-2.6-7.4-.4zm-37.6 2c-6.8 3-10.4 7.8-12 16.4-1.3 6.8.3 13.9 4.1 18.3 7.5 8.8 27.7 8.5 34.3-.5 1.6-2.3 1.8-3.2.8-5.3-1.5-3.2-3.3-3.2-7.1.1-3.4 2.8-9 4-14.5 3-3.7-.7-9.6-5-9.6-7 0-.7 5.1-2 13.6-3.3 7.5-1.2 14.2-2.7 15-3.4 2.3-1.9 1.8-10.1-.8-13.4-4.6-5.9-16.1-8.2-23.8-4.9zm14.1 8c4 2 3.2 3.8-2.2 4.5-2.4.4-6.5 1-9.1 1.4-4 .6-4.8.5-4.8-.8 0-.8 1.4-2.7 3.1-4.1 3.6-3 8.4-3.4 13-1zm266.3-7.8c-14.6 6.9-16 31.2-2.1 38.4 5 2.6 15.9 3 22 .9 7.2-2.5 11.8-11 6.7-12.6-2-.6-6 1-6 2.4 0 2.8-12 4-17.3 1.7-3.9-1.6-7.4-5.3-6.1-6.5.5-.5 6.7-1.8 13.8-3 7.1-1.1 13.5-2.6 14.2-3.2 1.9-1.5 1.8-8.3-.1-12.3-2.2-4.6-6.6-6.8-14.4-7.3-5.1-.3-7.6.1-10.7 1.5zm15.5 8.1c3.2 2.4 2.1 3.7-3.6 4.4-2.7.3-6.7.9-9 1.3-5.2.8-5.6-.5-1.4-4.7 2.4-2.3 3.8-2.9 7.3-2.9 2.6 0 5.2.8 6.7 1.9z" stroke-width="3" fill="#4C7FB2" stroke="#4C7FB2"/><path d="M408.3 1142.7c3.2.2 8.1.2 11 0 2.9-.2.3-.3-5.8-.3-6 0-8.4.1-5.2.3z" fill="#66B2CC" stroke="#66B2CC" stroke-width="3"/></svg>