<svg version="1.0" xmlns="http://www.w3.org/2000/svg" viewBox="0 0 780 1255"><g fill="#FFF" stroke="#FFF" stroke-width="3"><path d="M0 627.5V1255h780V0H0v627.5zm286.3-508.3c15.4 5.2 30.7 17.6 37.9 30.8 3.9 7.1 4.2 7.2 11.3 4 6.9-3.1 18.9-6.1 40-10 3.8-.7 14-1.3 22.5-1.3s18.7.6 22.5 1.3c22.8 4.2 34.1 7.1 43.8 11.4 3.2 1.4 6.2 2.6 6.7 2.6s2.2-2.3 3.6-5.2c17.6-34.6 59.2-46.7 92.4-26.8 13.1 7.9 21.9 18.7 27.9 34.5 2.4 6.4 2.6 8.3 2.6 21s-.3 14.7-2.7 21c-3.8 10-7 15.3-13.9 22.9-6.2 6.7-12.6 11.5-21.1 15.6-5.4 2.6-5.2 2.4-3.8 4.8 2.1 3.5 5.3 14.1 8.2 27.2 2.7 12.1 3 15.4 3.1 31 .1 15.5-.2 19-2.7 31-1.5 7.4-3.1 13.9-3.5 14.5-.4.5-1.3 3-2 5.5s-2.4 6.9-3.7 9.8c-1.3 2.9-2.4 5.8-2.4 6.5 0 .7 2.9 3.4 6.5 6 8.2 6.2 20.5 18.5 26.1 26.2 2.4 3.3 4.8 6.4 5.2 7 3.6 4.6 10.7 18.5 14.6 28.5 11.4 28.9 16.1 57.7 16.1 98 0 30.8-2.4 46.1-11.7 74-1.7 5.2-3.7 10.4-4.4 11.5-.6 1.1-1.5 3.1-1.9 4.5-.9 3-10 19.4-12.9 23.3-1.2 1.5-3.1 4-4.2 5.5-4.5 5.7-4.2 6.5 4.3 12.4 25.8 18.1 43.6 51.9 47.4 89.8 1.1 11 .4 43.3-1.1 53.7-2.1 13.7-5.1 30.6-5.6 31.4-.3.5-1.4 4-2.4 7.7s-2.6 8.1-3.4 9.7c-.9 1.7-1.6 3.4-1.6 3.9 0 3.7-14.4 26.7-20.9 33.2l-3.1 3.1 8.9-.5c24-1.3 41.5 6.2 51.8 22.1 5 7.7 6.7 13.9 5.3 18.3-2.9 8.6-12.3 14.6-27.5 17.4-14.6 2.7-67.4 2.1-92.5-1-3.6-.4-14.6-1.8-24.5-2.9-9.9-1.2-19.8-2.5-22-3.1-12-2.9-22-3.2-123.5-3-84.9.1-105.2.4-113 1.6-5.2.8-16.2 2.3-24.5 3.4-8.2 1.1-18.1 2.4-21.9 3-3.8.6-16.5 1.5-28.1 2.1-43.7 2.3-69.8-2.6-79.1-14.9-2.6-3.3-2.9-4.5-2.9-11.2 0-6.4.5-8.5 3.2-14.1 6-12.4 15-19.4 29.3-22.9 9.5-2.2 14.5-2.5 21.7-1 2.6.5 8.2 1.7 12.3 2.5 4.2.8 11 2.8 15.3 4.4l7.7 2.9V779.1l-.1-124.6-4-2.5c-5.4-3.3-13.4-12-16.7-18.4-2.5-4.7-2.7-6-2.7-16.6 0-10.3.3-12.2 2.9-18.7 3.4-8.5 9.6-15.9 15.9-19.1l4.6-2.3.3-110.2.3-110.2 2.3-4.5c1.3-2.5 3.4-5.6 4.5-6.9 3.6-3.9 12.4-7.3 20.8-7.8l7.6-.6-.9-5.1c-.5-2.8-1.3-7.6-1.8-10.7-1.3-7.1-1.3-27.3 0-33.6.5-2.6 1.7-8.9 2.6-13.8.9-5 3.1-13.5 5-19s3.8-10.8 4.1-11.7c.4-1.4-.4-2.2-3.3-3.5-14.3-6.5-26.3-20.6-32.5-38.3-2-5.5-2.3-8.6-2.4-19.5 0-11.8.3-13.7 2.9-21 8-22.5 28.5-40 51-43.6 8-1.2 22.9-.1 29.9 2.3zm145.2 967.7c14.4 1.4 23.7 6.5 27.1 14.8 2.3 5.3 1.8 14.2-1.1 19.8l-2.4 4.8 4 4.1c8 8.3 8 21.6 0 28.9-6.9 6.3-25.4 10.2-41 8.8-6-.6-6.7-.9-8.3-3.8-1.8-2.9-1.8-4.4-.8-21.5.5-10.1 1-25.4 1-34 0-8.6.4-16.8 1-18.3 1.7-4.5 5.1-5.1 20.5-3.6zM277 1100.2l2.3 2.1-.7 30.1-.7 30.1-2.5 2.2c-2.9 2.6-5.2 2.9-7.9.9-1.7-1.2-2.5-1.2-5.4 0-10.1 4.2-24.1-2.7-27.1-13.4-2.6-9.5 0-19.2 6.7-25.1 6.5-5.8 14.9-7.5 22.6-4.5 1.5.5 1.7-.4 1.7-9.5 0-9.5.2-10.4 2.5-12.6 3-3.1 5.4-3.2 8.5-.3zm209.5 10c2 .9 2.5 1.8 2.5 4.9 0 3.3-.5 4.1-3.1 5.5-3.8 1.9-7.3 1.2-9.5-2.1-4-6.1 2.7-11.7 10.1-8.3zm19.8-.3c4.7 1.8 4.7 8-.1 10.5-2.5 1.3-2.5 1.4-.5 2 1.2.4 2.4 1.4 2.8 2.4.4.9.6 8.2.5 16.2 0 11.5.2 14.9 1.4 16.5 1.9 2.5 2 6.2.2 8.1-1.9 1.9-6.5 1.8-8.7-.2-1.5-1.4-2-1.4-5.4 0-6.8 2.9-16.2 1.7-21.7-2.7-7-5.5-7-25.7 0-33 5.2-5.5 11-8.1 18.4-8.1 6.2-.1 6.6-.2 4.9-1.6-3.3-2.5-3.1-8.2.2-9.8 2.8-1.4 4.9-1.4 8-.3zm-163.6 11.4c.7.5 2.9.6 4.8.3 5.9-1.1 12.4.3 16.1 3.6 3.9 3.4 4.1 4.8 1.7 8.9-2 3.3-5 3.8-8.8 1.3-2.8-1.8-7.7-1.3-10.9 1.1-1.6 1.2-2 3.2-2.4 14.1-.4 11-.7 12.8-2.5 14.5-2.4 2.2-5.6 2.4-8.2.5-1.8-1.3-1.9-2.7-1.6-22.2.1-11.9.7-21.4 1.3-22.1 1.8-2.2 7.8-2.2 10.5 0zm184-1.1c1.5.6 6.2 1.2 10.4 1.2 6.5.1 8.1.5 11.7 2.9 4.7 3.1 5.5 6.4 2.6 10.6-1.8 2.5-4.1 2.5-10.1 0-2.7-1.1-3.7-1-7.1.5l-4 1.8-.6 12.7c-.4 6.9-1 13.3-1.5 14.1-1.4 2.5-5.7 3.5-8.6 2l-2.5-1.3V1144c0-21.6.3-23.3 4.5-24.3 1.1-.3 2.1-.5 2.2-.6.1 0 1.4.4 3 1.1zm-209.2 4.3c4.1 3.1 6.5 7.8 6.5 12.8 0 6.3-1.8 7.3-18.5 9.8-13.4 2-13.8 2.2-7.6 5.7 5.8 3.3 12.5 3 17.5-.8 6-4.6 9.6-3.6 9.6 2.6 0 4.8-3.2 8-10.6 10.4-11.7 3.9-23.1.8-28.9-8-2.7-4.1-3-5.2-3-12.5.1-8.9 2.2-13.9 8.1-18.8 4.8-4 7.2-4.7 15.6-4.4 6.6.3 8.2.8 11.3 3.2z"/><path d="M333.1 218.7c-4.4.9-12.7 6.2-15.9 10.2-4 5-7.2 13.4-7.2 19.1 0 5.5 3.1 14 6.8 18.6 10.9 13.8 34.4 14.1 45.6.7 3.5-4.1 7.6-14.6 7.6-19.2-.1-10.4-7.5-22-17.3-26.9-4.6-2.3-14.7-3.6-19.6-2.5zm16 24.4c1.9 1 1.8 1.1-1.3 3.3-2.7 1.7-3.3 2.8-3.3 5.6 0 2.7.6 3.7 2.8 5 2.5 1.4 3 1.3 5.6-.2 4.9-2.7 5.5.1 1.5 6.2-3.1 4.7-8.1 6.7-14 5.6-11-2.1-14-17.3-4.7-23.9 4-2.9 9.8-3.6 13.4-1.6zm93.4-24.2c-13.1 3.2-22.8 15.6-22.7 29.1.2 23.4 26.4 37.5 45.8 24.6 6.5-4.3 10.1-9.5 12.4-17.9 1.7-6 1.7-6.6-.1-13.6-4.2-16.5-19.4-26.1-35.4-22.2zm16 24.5c1.8 1.3 1.7 1.4-1.2 2.9-1.7.9-3.2 2.4-3.5 3.4-1.5 6 3.9 10.2 9.3 7.1 3.7-2.2 4.5-.8 2 3.9-3.2 6.3-5.5 7.8-12.2 7.8-5.3 0-6.2-.3-9.1-3.3-3-3-3.3-3.7-3.3-9.6 0-5.5.4-6.8 2.5-9.1 1.4-1.5 3.4-3.1 4.5-3.5 3.2-1.4 8.9-1.1 11 .4zM379.3 310c-3.1 1.3-2.9 1.9 1.2 3.6 2.2.9 6.9 1.4 12.8 1.4 13 0 19.7-2.5 13.1-5-3.2-1.2-24.1-1.2-27.1 0zm-18.2 179c-6.4 1.5-11.6 6.9-13.1 13.6-1.3 5.6-1.2 72.2.1 78.3 1.3 6.1 3.8 9.5 9.2 12.4 4.1 2.2 4.8 2.2 40.7 2.1 34.2 0 37-.2 44.9-2.2 17.3-4.5 23.4-12 27.3-33.2.5-3 .8-13.1.5-22.5-.4-15.2-.8-17.9-3.2-25.4-5-14.9-14.3-21.3-33.8-23.2-11.3-1-67.9-1-72.6.1zm-2.2 235.3c-5 1.7-8.6 4.8-10.7 9.4-1.5 3.3-1.7 7.2-1.7 28.8 0 13.7.4 26.7.8 28.7 1 4.8 4.9 9.3 10 11.8 3.8 1.9 6.3 2 43.9 2 22 0 41.8-.4 44.1-.9 2.3-.5 6.6-1.4 9.6-2 7.9-1.6 13.6-5.6 17.6-12.2 4.6-7.4 6.2-19.9 4.6-34.9-1.6-14.4-6.4-22.7-15.3-26.4-2.4-1-5.2-2.2-6.3-2.7-4.8-2.1-21.4-2.9-56-2.8-25.4 0-38.1.4-40.6 1.2zM425 1110v10h5.5c7.2 0 10.7-1.9 13-7 1.8-4 1.8-4.1-.2-6.8-2.7-3.7-7.9-6.1-13.5-6.2H425v10zm-1 35v10h4.1c5.9 0 18.1-3.7 20.2-6.2 4.3-5 .7-9.4-9.9-11.9-4.3-1-9.4-1.9-11.1-1.9H424v10zm-170.7-11.8c-5.5 1.4-8.2 10.5-5.2 17.2 2.1 4.6 9.6 6.2 14.4 3 2.3-1.5 2.5-2.2 2.5-9.4 0-5.4-.4-8.1-1.4-8.9-2.4-2-6.9-2.8-10.3-1.9zm236.2-.2c-6.9 2.8-10.2 13.7-6.4 21.1 1.2 2.4 5.2 3.1 9.5 1.6l3.8-1.2v-11.2l.1-11.3-2.5.1c-1.4 0-3.4.4-4.5.9zm-191.3.6c-3 2.1-2.8 3.7.6 3 1.5-.3 5.2-.8 8.1-1.2 5-.6 5.3-.8 3.6-2-2.5-1.9-9.5-1.8-12.3.2z"/></g><path d="M381.8 805.7c7.8.2 20.6.2 28.5 0 7.8-.1 1.4-.3-14.3-.3-15.7 0-22.1.2-14.2.3z" fill="#E5E5CC" stroke="#E5E5CC" stroke-width="3"/><path d="M346.4 541.5c0 17.6.2 24.7.3 15.7.2-9 .2-23.4 0-32-.1-8.6-.3-1.3-.3 16.3z" fill="#E5CCCC" stroke="#E5CCCC" stroke-width="3"/><path d="M196.5 470.5c0 58.8.1 82.8.2 53.2.2-29.6.2-77.8 0-107-.1-29.3-.2-5.1-.2 53.8zm0 308c0 68.7.1 96.7.2 62.2.2-34.6.2-90.8 0-125-.1-34.2-.2-6-.2 62.8zm185.3-55.8c8.9.2 23.5.2 32.5 0 8.9-.1 1.6-.3-16.3-.3-17.9 0-25.2.2-16.2.3zm-65.5 225c22.5.2 58.9.2 81 0 22.1-.1 3.8-.2-40.8-.2-44.5 0-62.6.1-40.2.2z" stroke-width="3" fill="#CCCCB2" stroke="#CCCCB2"/><path d="M380.3 487.7c7.5.2 19.9.2 27.5 0 7.5-.1 1.3-.3-13.8-.3-15.1 0-21.3.2-13.7.3zM345.4 764c0 12.4.2 17.4.3 11.2.2-6.1.2-16.3 0-22.5-.1-6.1-.3-1.1-.3 11.3z" stroke-width="3" fill="#CCB2B2" stroke="#CCB2B2"/><path d="M380.3 596.7c8.2.2 21.2.2 29 0 7.8-.1 1.2-.3-14.8-.3-15.9 0-22.3.2-14.2.3z" fill="#997F66" stroke="#997F66" stroke-width="3"/><path d="M381.3 721.7c9.2.2 24.2.2 33.5 0 9.2-.1 1.6-.3-16.8-.3-18.4 0-26 .2-16.7.3zm0 85c9.7.2 25.7.2 35.5 0 9.7-.1 1.7-.2-17.8-.2s-27.5.1-17.7.2zm-66 140c22.5.2 58.9.2 81 0 22.1-.1 3.8-.2-40.8-.2-44.5 0-62.6.1-40.2.2z" stroke-width="3" fill="#7F664C" stroke="#7F664C"/><path d="M379.3 486.7c8.1.2 21.3.2 29.5 0 8.1-.1 1.4-.3-14.8-.3s-22.9.2-14.7.3zM344.4 764c0 13.5.2 19 .3 12.2.2-6.7.2-17.7 0-24.5-.1-6.7-.3-1.2-.3 12.3z" stroke-width="3" fill="#664C33" stroke="#664C33"/><g fill="#663319" stroke="#663319" stroke-width="3"><path d="M256.5 118.7c-9.4 1.3-24.6 8.9-32 16-5.2 5-12.5 14.4-12.5 16.1 0 .5-.6 1.5-1.4 2.1-.8.7-2.2 4.2-3.2 7.9-.9 3.7-2.1 7.1-2.6 7.6-.4.6-.8 6-.8 12 0 12.2 2.1 20.9 7.7 31.6 4 7.8 17.3 21 25.1 24.9 3.6 1.8 6.2 3.8 6.2 4.7 0 .8-.9 3.6-2 6.2-5.3 12.3-8.6 26.9-10.1 44.7-1.1 12.1-1 16.1.4 29 1 8.3 1.7 15.6 1.7 16.2 0 .9-2 1.3-6.7 1.3-11.6 0-21.1 5-25.6 13.3l-2.2 4.2-.3 111.2c-.2 104.8-.3 111.3-2 111.3-3 .1-11 6.3-14.6 11.4-1.9 2.6-4 6.9-4.7 9.5-.6 2.5-1.7 5.2-2.2 5.9-.6.7-1 5.5-1 10.5 0 8.1.4 10 3.1 15.8 3.4 7.4 11.6 16.4 17.5 19.3l3.7 1.7v136.2c0 89.6.3 137.4 1 139.8 1.7 6.1 6.3 11.4 12.6 14.5l5.6 2.8 117.7-.3c122.1-.2 143.5-.5 153.6-2.2 3.3-.6 11.2-1.9 17.5-2.9 21-3.5 35-7.2 50.5-13.5 11.5-4.7 15.4-6.9 34.9-20.1 3.3-2.3 17.7-19.4 21.3-25.3 13.4-22.5 20.6-47.4 23.3-81.1 1.1-13.1 1.1-38.1 0-46-1.2-9.1-4.8-24.9-6.4-28.5-.7-1.7-1.9-4.7-2.6-6.8-2.5-7.9-13.9-28-17.7-31.2-.6-.6-2.7-2.9-4.7-5.3-4-4.8-13.6-13.1-18.1-15.5-6.4-3.5-6.7-4-4.7-7.8.9-1.9 3.5-5.8 5.6-8.8 4.2-5.7 6.2-9 9.5-15.6 1.1-2.3 2.3-4.4 2.7-4.8 2.1-2 10.6-25.5 13.5-36.8 1.1-4.6 2.4-10 2.9-11.9 1.5-6.1 4.4-33.1 4.5-41.5.1-23.8-6.4-75.2-10.4-82.5-.4-.8-1.6-4.2-2.5-7.5-3.5-12.2-14.2-33.5-22.2-44.1-6.4-8.6-21.8-24.3-27.4-28-8.2-5.4-8.3-5.8-4.6-13.7 1.4-2.9 3.2-7.9 4.1-11.2 1-3.3 2.1-6.5 2.5-7 .4-.6 1.5-5.7 2.4-11.5 1-5.8 2.2-12.4 2.7-14.7 1.2-5.5 1.2-26.1-.1-31.5-.5-2.4-1.7-9-2.6-14.8-.9-5.8-2-11-2.4-11.5-.4-.6-1.6-3.9-2.6-7.5-.9-3.6-2.3-7.4-3.1-8.5-2.2-3.3-1.5-4.3 5.5-7.7 3.7-1.8 7.4-3.8 8.2-4.5 15.4-12.3 20.6-19.3 25.3-33.9 3.2-9.9 4.1-18.2 2.9-25.9-2.6-15.9-7.8-26.7-17.8-36.9-7.6-7.8-14.5-12.2-25.7-16.4-6.4-2.4-8.6-2.7-20.3-2.7-8.4 0-13.6.4-14.5 1.2-.8.6-3.4 1.6-5.8 2.3-6.4 1.7-13.9 6.2-21 12.6-6.8 6.2-11.1 12-15.4 20.6-3 6.3-2.9 6.2-5.5 4.8-2.3-1.3-16.2-6.3-24.5-8.9-3.8-1.2-11.4-2.8-17-3.6-5.6-.8-13-2-16.3-2.5-3.4-.6-9.9-1-14.4-1s-11 .4-14.4 1c-3.3.5-10.7 1.7-16.3 2.5-10.7 1.5-18.6 3.7-31.7 8.7-9.1 3.4-8.4 3.7-13.2-5.2-9-16.5-25.6-28.4-44.4-32-4.6-.9-16.1-1-21.5-.3zm29.4 6c9.5 3.3 16.9 7.9 24.1 15.2 5.4 5.4 12.3 16.4 13.6 21.7.4 1.4 1.2 2.3 1.8 2 28.3-11.8 44.2-15.1 72.6-15.1 26.4 0 44.5 3.6 68 13.4 9.7 4.1 9.1 4.1 10.1.8.4-1.6 2-5.2 3.5-8 17.3-33.2 58.1-43.4 88-22.1 3.4 2.4 8.1 6.5 10.4 9.1 4.7 5.4 10.5 15.3 11.6 19.8.4 1.6 1.2 3.6 1.8 4.4.7.9 1.1 6.4 1.1 14.5 0 11.1-.4 14.1-2.3 19.4-5.7 16-16.1 28-30.1 35-4.6 2.3-9.2 4.2-10.3 4.2-2.1 0-1.9 1.8.8 7.2.8 1.5 2.7 6.7 4.3 11.5 12.3 37 9.6 76.1-7.5 112.1-12.1 25.4-33.7 49.6-58.1 65.1-29.2 18.5-63.5 27.4-99.4 25.8-13-.6-32.6-3.3-34.4-4.7-.5-.4-3.5-1.3-6.5-2-11.1-2.6-29.7-11.1-43-19.6-22.1-14.2-40.3-33.4-52.7-55.4-8.8-15.6-15.1-32.7-17.2-46.5-.7-4.4-1.6-10.7-2.2-14.1-1.2-8.1-1.2-21.1.2-29.3 3.5-22 4.8-26.9 11.9-45 1.1-2.9 2-5.4 1.8-5.5-.2-.1-2.9-1.4-6.1-2.9-15.1-7.2-25.3-18.5-31.5-35-2.3-6.3-2.7-8.7-2.7-19.2 0-10.6.3-12.8 2.7-19 3.8-10.2 7.4-16.1 13.7-22.5 16.8-17 40.1-22.8 62-15.3zm-50.1 223c1.2 3.2 2.5 7.1 2.8 8.8.4 1.6 1.8 5.1 3.1 7.6 1.3 2.6 2.3 5 2.3 5.4 0 .4 2.3 4.9 5.2 9.9 16.3 28.8 40.9 52.3 69.4 66.5 18.1 9 31.5 13.3 52.2 16.7 13.2 2.1 18 2.5 30.2 2.1 15.6-.4 31.5-2.6 42-5.7 3.6-1 8.1-2.3 10-2.9 5.2-1.4 15.5-5.8 24-10 26.7-13.5 50.8-35.5 66.1-60.5 2.8-4.7 5.8-8.6 6.5-8.6 2.9 0 23.8 19 30.4 27.6 8.8 11.5 13.1 19 21.1 36.9 1.8 4 6.1 18.2 8.1 26.5 4.6 19.8 6.8 38.1 7.5 64.5.4 14.9.1 20.7-1.7 33.5-2.2 16.3-2.4 17.2-6.4 31.5-7.2 26.1-20.4 50.5-35.5 65.6-8.7 8.6-13.2 11.8-27.5 19.4-17.7 9.4-33.6 14.3-57.3 17.6-25.1 3.4-61.8 1.7-88.3-4.2-48.3-10.7-72.4-23.1-100.4-51.4-19.2-19.4-31.2-37.7-33.2-50.5l-.7-4.5 3.9 3.6c5.6 5.2 9.1 7.3 15.7 9.7 5 1.8 5.9 1.8 6.4.6.7-2-.3-2.8-5.2-4.2-9.2-2.6-19.5-12.7-19.7-19.2-.1-3 4.2-10.4 7-11.9 1.2-.7 3.3.8 8.1 5.8 5.6 5.7 7.6 7 13.1 8.8 4.5 1.4 6.9 1.7 7.8 1 1.5-1.2-.2-3.7-2.6-3.7-3.8 0-9.7-2.7-13.7-6.2-8-7.1-6.8-10.8 3.7-10.8 16.4 0 35.9 9.9 51.3 26.1 5.9 6.2 7.8 7.6 12 8.7 2.8.7 6.8 1.7 9 2.3 2.7.7 15.8.9 39.5.6 32.2-.5 36.2-.7 43.5-2.7 15-4 22.8-11.6 27.6-27 2.2-6.9 2.4-9.2 2.4-29s-.2-22.1-2.4-29c-4.4-14.1-10.1-20.8-21.7-25.4-9.6-3.9-21.7-4.8-58.9-4.4-32.9.3-33 .3-37.9 2.8-6.1 3.1-10.1 8.5-11.6 15.5-.7 3.4-1 18.4-.8 43.4.2 20.9 0 38.1-.4 38.1-.5 0-2.5-1.5-4.5-3.4-14-12.4-31.4-20.1-45.8-20.1-16.8 0-27.6 8.6-29.1 23.3-1.6 14.8 5.5 31.1 22 50.7 28.4 33.8 60.1 53.5 100.6 62.6 4.7 1.1 9.6 2.4 11 2.9 5.5 2.1 39.1 6.1 54.9 6.7 36.4 1.2 69-5.4 96.1-19.4 7.8-4.1 14.9-8.8 24.4-16.2l5.6-4.3 4.7 2.8c20.1 11.7 36.7 33.7 44.6 58.9 6.8 21.3 8.5 37.6 6.8 65.1-3 52.3-15.4 85-40.9 108.5-27.2 25-66.8 37.2-132.9 41-9.9.5-64.9.8-130 .7l-112.8-.3-4.5-2.6c-2.7-1.6-5.7-4.5-7.5-7.5l-3-4.7-.3-136.5-.2-136.5 4.2.7c13.2 2.2 21.5 2.6 29.2 1.6 9.3-1.3 12.6-2.7 17.8-7.3 14.5-12.9 8.5-37.2-13.7-55.4-11.3-9.2-20.5-14-30-15.7l-7-1.2-.3-106.5c-.1-71.9.1-108 .8-111.4 2.5-11.5 10.7-17.1 25.6-17.4l6.2-.1 2 5.7zm196 139.3c6.8.5 13.7 1.6 15.5 2.4 1.8.8 4.2 1.7 5.4 2.1 3.2.9 9.1 5.9 12 10.2 5.1 7.4 7.4 17.3 8 33.8.5 14.5-.8 31.7-2.7 34-.4.5-1.1 2.4-1.4 4.1-1 4.5-5.8 11.7-10 14.9-2 1.5-6.7 3.9-10.4 5.3l-6.7 2.6-40.3.4c-40 .3-40.3.3-44.7-1.9-2.5-1.3-5.7-4-7.2-6.2l-2.8-4v-43.2c0-39.2.2-43.3 1.7-45.7 2.7-4.1 8.1-7.8 12.9-8.7 6.1-1.2 55.7-1.3 70.7-.1zm-215.4 97.7c12.9 5.8 26.5 16.8 33.3 27 3.8 5.8 7.7 16.9 6.2 17.9-1.9 1.1-8.9-.8-13.4-3.8-2.5-1.6-5.9-5-7.7-7.4-1.7-2.4-3.5-4.4-3.9-4.4-2 0-1.9 2.5.4 5.9 4 6.1 10.5 10.8 17.6 12.7 3.5 1 6.5 2.3 6.7 2.9.8 1.9-2.3 7.9-5.6 11-2.5 2.4-3.9 3-7.5 2.9-6.4-.1-14.8-4.8-20.6-11.4-3.8-4.3-5.1-5.2-6-4.3-1 1-.8 1.7.6 3.5 5.3 6.4 8.5 9.2 13.3 11.9 2.8 1.7 5.2 3.5 5.2 4 0 1.2-16.7 1.1-23.2-.2-17-3.4-25.2-8.9-31.2-21.1-3.2-6.2-3.6-8-3.6-14.5 0-13.3 6.3-27 14.9-32.5 6.3-3.9 15.7-4 24.5-.1z"/><path d="M356.9 719.4c-8.6 3.1-13 8.4-14.9 18.1-1.5 7.8-.8 52.4.9 57.7 1.7 5.5 5.9 9.8 11.8 12.5 5.3 2.3 5.5 2.3 46.6 2.3 37.3 0 42.2-.2 50.6-2 14.9-3.2 21.2-7.3 26.2-17.1 6.3-12.5 6.3-40.3.1-52.7-5.4-10.8-15.7-17.2-31.3-19.2-11.7-1.5-85.6-1.2-90 .4zm85.5 2.7c16.8 1.4 25.4 5.6 31.8 15.2 3.8 5.7 5.1 14.6 4.6 31.2-.3 12.7-.6 14.5-3.1 19.7-3.7 7.9-9.7 12.7-19.5 15.7-7.5 2.4-8.6 2.4-51.4 2.8-41.9.4-43.8.4-48-1.6-5.8-2.6-9.2-6.5-11.2-12.8-1.3-4.2-1.6-9.6-1.6-28.5 0-20.7.2-23.9 2-28.8 2.3-6.6 7.5-11.5 13.4-12.9 5.7-1.2 68.5-1.3 83 0z"/></g><path d="M197.5 470.5c0 58.8.1 82.8.2 53.2.2-29.6.2-77.8 0-107-.1-29.3-.2-5.1-.2 53.8zm0 309c0 68.7.1 96.7.2 62.2.2-34.6.2-90.8 0-125-.1-34.2-.2-6-.2 62.8z" stroke-width="3" fill="#7F6666" stroke="#7F6666"/><path d="M233.4 304c0 6.3.1 8.9.3 5.7.2-3.1.2-8.3 0-11.5-.2-3.1-.3-.5-.3 5.8zm329 .5c0 5.5.1 7.6.3 4.7.2-2.9.2-7.4 0-10-.2-2.6-.3-.2-.3 5.3zm-221 237c0 18.1.2 25.7.3 16.8.2-8.9.2-23.7 0-33-.1-9.2-.3-2-.3 16.2zm292 234.5c0 6.3.1 8.9.3 5.7.2-3.1.2-8.3 0-11.5-.2-3.1-.3-.5-.3 5.8zm-253.2 34.7c9.2.2 24.5.2 34 0 9.5-.1 2-.3-16.7-.3s-26.5.2-17.3.3zM233.5 947c5.5.4 14.7.7 20.5.7l10.5-.1-12-.6c-6.6-.4-15.8-.7-20.5-.7h-8.5l10 .7z" stroke-width="3" fill="#664C19" stroke="#664C19"/><g fill="#7F4C19" stroke="#7F4C19" stroke-width="3"><path d="M392.8 148.7c2.8.2 7.6.2 10.5 0 2.8-.2.5-.3-5.3-.3s-8.1.1-5.2.3zM592.3 181c0 4.7.2 6.6.4 4.2.2-2.3.2-6.1 0-8.5-.2-2.3-.4-.4-.4 4.3zM397 366c0 20.3-.1 22-1.7 22-3.9-.1-15.7-2.1-16.7-2.9-.6-.5-2.2-1.2-3.6-1.6-6.9-2.1-16.2-11.8-18.1-19-.6-2.1-1.6-3.5-2.5-3.5-1.9 0-1.3 2.6 2.2 9.2 6.9 13.1 21.3 20.1 41.4 20.2 15.1.1 28.4-4.6 35.6-12.6 6-6.5 10.3-16.8 7.1-16.8-.9 0-1.8 1.3-2.2 3.2-.8 4.1-4.4 9.6-8.7 13.7-4.3 4.1-15.7 8.7-23.5 9.5l-6.3.7V366c0-18.9-.2-22-1.5-22s-1.5 3.1-1.5 22zM201.5 470c0 58.6.1 82.5.2 53.3.2-29.3.2-77.3 0-106.5-.1-29.3-.2-5.4-.2 53.2zm190.8-9.3c3.1.2 8.3.2 11.5 0 3.1-.2.5-.3-5.8-.3s-8.9.1-5.7.3zm.5 5c2.8.2 7.6.2 10.5 0 2.8-.2.5-.3-5.3-.3s-8.1.1-5.2.3zm-14.1 17c9.4.2 25.2.2 35 0 9.8-.1 2.1-.2-17.2-.2-19.2-.1-27.3.1-17.8.2zM196.3 582.8c-.6.4 2.9.7 7.8.7 4.8 0 8.1-.3 7.1-.7-2.3-.9-13.4-.9-14.9 0zm5.2 73.4c-.3.7-.4 60.7-.3 133.3l.3 132 .3-132.7c.2-125.4.3-132.7 2-133.1 1.6-.4 1.6-.5-.1-.6-1 0-2 .5-2.2 1.1zm251.3 45.5c3.4.2 9 .2 12.5 0 3.4-.2.6-.3-6.3-.3-6.9 0-9.7.1-6.2.3zm-72.5 16c11.4.2 30 .2 41.5 0 11.4-.1 2-.2-20.8-.2s-32.2.1-20.7.2zM340.4 764c0 14 .2 19.8.3 12.7.2-7 .2-18.4 0-25.5-.1-7-.3-1.2-.3 12.8zm143 .5c0 6 .1 8.4.3 5.2.2-3.2.2-8.1 0-11-.2-2.9-.3-.3-.3 5.8z"/><path d="M136.8 897.6c-11.1 2.6-20 10.5-25.6 22.3-3 6.4-3.4 8.1-3 13.5.3 5.3.8 6.6 3.8 9.8 4.6 4.7 11.9 8.4 20 9.9 3.6.6 7.6 1.5 8.9 2.1 3.8 1.4 37.2 2 51.6.9 16.3-1.2 40-3.8 48.5-5.1 16.7-2.8 16.3-2.6 6-3.1-5.2-.3-10.2-.2-11 .2-.8.5-6.4 1.3-12.5 1.9-6 .7-14.8 1.6-19.5 2.1-10.9 1.2-50.6 1.6-51.6.6-1.3-1.2 3.5-9.3 7.6-13.1 2.3-2 6.1-4.1 9.5-5 3.4-1.1 5.5-2.2 5.2-2.9-.7-2.1-3.6-2-9.3.3-6.3 2.6-13.3 9.7-16.4 16.7-2.2 5-1.7 5-16.5 1.3-6.9-1.7-7-1.7-6.8-4.9.2-4.9 6.2-16.1 11.4-21.3 5.8-5.7 9.5-7.7 16-8.5 3.9-.5 4.9-.9 4.7-2.2-.5-2.1-7.7-1.6-13.5.9-8.7 3.8-18.1 15.5-21.4 26.7-1.4 4.8-2.7 5.3-6.9 2.3-8.7-6.2-5.3-23 6.9-34.2 6.2-5.7 9.5-7.2 20.1-9.4 7.2-1.4 8.7-1.4 18.2.1 13.9 2.2 29.8 6.8 33.6 9.8.9.7 1.2.4 1.2-1.1 0-2.2-3.7-4.3-11-6.2-2.5-.7-5-1.6-5.6-2.1-1.9-1.6-18.7-3.9-27.8-3.8-5 0-11.7.7-14.8 1.5zm463.3 5.4c-1.8.4-4.1 1.5-5 2.5-1.5 1.5-1.4 1.6 1.4.9 5.2-1.3 28.6-1 34.3.5 15.1 3.8 28.4 16.7 29.8 28.9.3 2-.1 4.8-.8 6.2-1.3 2.3-7.2 7-8.9 7-.4 0-1.7-2.5-2.9-5.6-5.3-14.2-13.6-22.8-25.3-26.2-6.1-1.8-7.4-1.9-8.6-.8-1.9 2-.5 3.6 3.3 3.6 10.6 0 21 9.2 27.1 24.1 2.2 5.5 2.3 6 .6 6.8-2.1 1.2-12.1 2.8-21.4 3.5-6.7.5-6.8.5-7.8-2.2-3.9-10.7-12-21-18.7-23.7-4.9-2.1-11.7-2.4-11.7-.5 0 .9 1.5 1.7 4 2.1 6.2 1.1 8.7 2.4 12.9 6.5 3.8 3.9 9.6 14 9.6 16.9 0 1.3-1.8 1.5-11.3 1.5-11.7 0-57.5-2.7-58.7-3.5-.4-.3-9-1.4-19.1-2.5-10.1-1.1-19.7-2.5-21.4-3-5-1.5-21.6-1.6-20-.1.6.4 5.7 1.4 11.5 2 5.8.7 11.9 1.7 13.5 2.2 1.7.5 11.6 1.9 22 3 10.5 1.1 22.4 2.4 26.5 2.9 13.6 1.6 61.5 2.4 74.3 1.1 6.5-.6 12.6-1.6 13.5-2.1.9-.5 4.3-1.6 7.5-2.6 3.1-.9 5.7-2 5.7-2.3 0-.4 1.3-1.5 3-2.4 1.9-1.2 3.4-3.1 4.1-5.6 2.9-9.6-2.8-20.7-16-31.4-1.1-.9-2.3-1.7-2.6-1.7-.3 0-2.8-1.1-5.6-2.5-2.9-1.3-7.7-2.9-10.7-3.5-6.4-1.2-23.1-1.2-28.1 0zm-322.9 39.7c30.2.2 79.4.2 109.5 0 30.2-.1 5.5-.2-54.7-.2s-84.9.1-54.8.2z"/></g><path d="M379.8 601.7c7.8.2 20.6.2 28.5 0 7.8-.1 1.4-.3-14.3-.3-15.7 0-22.1.2-14.2.3z" fill="#994C19" stroke="#994C19" stroke-width="3"/><path d="M147.3 895.7c2.6.2 6.7.2 9 0s.2-.3-4.8-.3c-4.9 0-6.8.1-4.2.3zm16.5 58c2.9.2 7.4.2 10 0 2.6-.2.2-.3-5.3-.3s-7.6.1-4.7.3z" stroke-width="3" fill="#7F4C33" stroke="#7F4C33"/><path d="M234.3 305c0 4.7.2 6.6.4 4.2.2-2.3.2-6.1 0-8.5-.2-2.3-.4-.4-.4 4.3zm1.4 19c.3 3.6.9 7.4 1.4 8.5.9 2.2.2-4.2-1.2-11-.6-2.9-.7-2.2-.2 2.5zm-33.2 146c0 93.9.2 106.5 1.5 106.6.9 0 1-.1.3-.3-1-.4-1.3-23-1.6-106.6l-.2-106.2V470zM525 411c-4 4.4-7 8-6.7 8 .3 0 3.7-3.6 7.7-8s7-8 6.7-8c-.3 0-3.7 3.6-7.7 8zm-108 47.1c-4.1.5-7.9 1.1-8.5 1.4-1.6.7 14.7-.7 17.5-1.6 3.3-1 .9-.9-9 .2zm-33 8.1c2.5.3 8.8.7 14 .7 5.2 0 11.5-.4 14-.7 2.5-.4-3.8-.7-14-.7s-16.5.3-14 .7zm-4.2 15.5c8.4.2 21.9.2 30 0 8.1-.1 1.2-.3-15.3-.3s-23.1.2-14.7.3zm233.4 18.8c0 2.2.3 6.5.8 9.5.6 4.8.7 5 .8 1.5 0-2.2-.3-6.5-.8-9.5-.6-4.8-.7-5-.8-1.5zM340.4 542c0 17.9.2 25.2.3 16.2.2-8.9.2-23.5 0-32.5-.1-8.9-.3-1.6-.3 16.3zm89.1 59-8 .6 7.5.1c4.1.1 8.6-.3 10-.7 2.9-.9 2.3-.9-9.5 0zm-169 30.6c0 4.6.3 7.6.7 6.6.9-2.3.9-12.4 0-13.8-.4-.7-.7 2.6-.7 7.2zm-58 25.6c-.3.7-.4 60.7-.3 133.3l.3 132 .3-132.7.2-132.7 2.3-.4 2.2-.4-2.3-.2c-1.2 0-2.5.5-2.7 1.1zm228 48.9c3.9.8 18.2 1.2 17.4.5-.2-.2-5.1-.6-10.9-.8-6.7-.4-9-.2-6.5.3zm46-.1-6 .7 5 .1c2.8 0 7-.3 9.5-.7 4-.8 4.1-.8 1-.8-1.9 0-6.2.3-9.5.7zm-95.7 10.7c10 .2 26.4.2 36.5 0 10-.1 1.8-.2-18.3-.2s-28.3.1-18.2.2zm-41.4 47.8c0 12.1.2 16.9.3 10.7.2-6.2.2-16.1 0-22-.1-5.9-.3-.8-.3 11.3zm62.1 46.5-41 .5 40.5.1c22.3.1 41.9-.2 43.5-.6 2.5-.6 2.6-.7.5-.6-1.4 0-20.9.3-43.5.6zm78 128.1c-2.5.4-1.1.5 4 .2 4.4-.3 8.2-.7 8.4-.9.7-.7-8.1-.2-12.4.7zm-202.8 2.6c30.4.2 80.2.2 110.5 0 30.4-.1 5.6-.2-55.2-.2-60.8 0-85.6.1-55.3.2zM511 947c1.9.5 6.4 1.1 10 1.4l6.5.5-8-1.4c-8.8-1.5-14.1-1.8-8.5-.5zm-290.9.4c.2.2 3.3.6 6.7 1 4.4.5 6.2.4 5.7-.3-.3-.6-3.4-1.1-6.7-1.1-3.4 0-5.9.2-5.7.4zm-67.5 3.1c-.3.9 0 1.8.7 2.1.7.2 10 .3 20.7.1l19.5-.2-20.2-.3c-17.5-.2-20.2-.4-19.7-1.7.4-.8.4-1.5.1-1.5-.3 0-.8.7-1.1 1.5zm448.9 3.5-10 .6 9.7.2c5.6.1 9.9-.2 10.3-.8.3-.6.5-.9.3-.8-.2.1-4.8.5-10.3.8z" stroke-width="3" fill="#963" stroke="#963"/><g fill="#B26633" stroke="#B26633" stroke-width="3"><path d="M255.5 124c-6.3 1.4-15.9 5.5-20.9 8.9-5.8 4-14.3 12.7-16.3 16.6-.9 1.6-2.1 3.7-2.8 4.5-.7.8-2.4 5-3.9 9.3-3.5 10.3-3.7 25.4-.5 34.9 4.3 12.5 11.8 23.2 20.9 29.9 4.5 3.4 14.9 8.9 16.6 8.9 1.9 0 1.8 1.1-1.2 7.7-7.4 16.9-12.4 40.5-12.4 59.4 0 17.4 4.9 43.3 10.5 55.4.8 1.6 2.1 4.8 3 7 2.4 6.1 10.2 19.1 16.4 27.5 5.1 6.9 22.5 25.2 27.9 29.3 10.7 8.2 37.2 23.7 40.5 23.7.5 0 2.3.7 4 1.5 5.3 2.4 19.7 6.4 28.7 7.9 21.8 3.7 34.2 4.4 45.4 2.7 3.4-.6 10.4-1.5 15.6-2.2 5.2-.6 10.6-1.6 12-2.1 1.4-.6 5.4-1.9 9-2.9 28.3-7.8 57.1-26.7 76.4-49.9 9.2-11.1 14.9-19.5 19.6-29 2.3-4.7 4.6-9.3 5.1-10.3 2.2-4.1 7-20.1 9.1-30.3 3.3-15.8 3.2-40.4 0-55.9-2.3-10.8-6.8-25.3-9.6-31-2.8-5.8-2.5-6.6 3-8.5 5-1.7 6.3-2.4 14.9-7.8 9.3-5.9 17.7-17.1 22.1-29.7 2.4-6.9 2.8-9.4 2.7-18.5-.1-9.1-.5-11.6-3.1-18.7-3.6-9.7-7.6-15.9-15-23-6.3-6.1-11.2-9.1-20.8-12.9-6.2-2.5-8.1-2.8-19.4-2.7-11.2 0-13.2.3-19.5 2.7-3.8 1.5-9.1 4.1-11.7 5.7-9.7 6.3-22.3 22.7-24.3 31.6-.8 4.1-2 4.9-4.8 3-3-2-13.8-6.2-24.4-9.7-35.5-11.4-80.4-9.6-113.4 4.6-3.1 1.3-7 2.7-8.7 3-2.8.6-3.1.3-4.2-3.2-3.2-9.7-11.4-20.4-20.6-27-10-7.1-19.8-10.5-31.9-11-5.5-.2-11.8.1-14 .6zm19.8 36.4c9.1 4 13.8 12.2 13.9 24.1.1 8.3-2 13.6-6.5 16.9-2.3 1.7-4.3 2.1-11 2.1-7.4 0-8.7-.3-13.8-3.2-17.1-9.9-17.1-30.9 0-39.8 5.9-3.1 10.7-3.1 17.4-.1zm265.4-.3c8.1 3.5 12.4 8.6 13.7 16.4 1.6 9.3-3.2 18.5-12.3 23.8-5.1 2.9-6.4 3.2-13.8 3.2-6.7 0-8.7-.4-11-2.1-4.2-3.1-6.7-8.8-6.7-15.9-.1-12.3 4.6-20.9 13.8-25.1 6.4-2.9 10.1-3 16.3-.3zm-185.3 60.5c9.2 5.1 16 17.1 15.9 27.9 0 10.7-7.4 22.3-17.4 27.7-3.7 1.9-5.9 2.3-13.9 2.3-8.2 0-10.2-.3-14.4-2.5-6.8-3.5-12.7-10.4-15.4-18.1-2.8-8-2.8-11.8 0-19.9 6.2-18.5 28.2-26.9 45.2-17.4zm107.1-1.1c8.5 4 13.5 9.7 16.5 18.6 2.4 7.3 2.5 11.7.6 18-2.1 6.8-3.9 9.9-8.3 14-7.7 7.3-10.7 8.4-21.8 8.4-9.1 0-10.4-.2-14.7-2.8-6.6-3.9-10.5-8.2-13.9-15.4-12-25.8 15.7-52.8 41.6-40.8zM413.4 300c19.6 2.3 35.1 8.9 47.2 20.3 19 17.8 21.8 46 6.8 68.7-19.3 29.1-61.8 42.4-97.8 30.6-17.2-5.7-26.9-12-37.2-24.1-10.1-11.9-14.4-23.4-14.4-38.2.1-14.8 5.3-26.7 16.5-37.1 11.4-10.7 25.6-17.2 43.3-19.6 5.9-.9 12.1-1.7 13.7-2 3.5-.5 9.4-.1 21.9 1.4z"/><path d="M214.4 346.4c-3 1.4-6.4 4-8 6.2l-2.9 3.7-.3 109.8-.2 109.7 2.2.6c1.3.3 3.5.6 4.9.6 4.1 0 20.1 8.5 28.2 14.9 14.2 11.3 23.7 27.1 23.7 39.5 0 6.3-3.4 14.3-8.1 18.8-7.6 7.4-15 9.3-32.3 8.4-6.6-.3-13.6-.9-15.4-1.2l-3.2-.6.2 135.9.3 136 2.8 4c1.7 2.5 4.6 4.8 7.5 6.2l4.7 2.2 127.5-.4c88.1-.2 129.5-.7 134-1.4 3.6-.6 11.2-1.7 17-2.3 16.2-1.8 45.5-8.7 54.5-12.9 1.1-.6 6-2.8 10.9-5.1 4.9-2.2 12.3-6.4 16.5-9.3 7.4-5.1 21-17.7 24.4-22.7.9-1.4 3-4.4 4.7-6.7 3.1-4.4 13-24.5 13-26.4 0-.6 1.1-4.3 2.4-8.2 1.4-4 3.7-14.6 5.2-23.7 2.5-15 2.8-18.9 2.8-43l.1-26.5-3.2-12.5c-8.2-32-21.9-53-44.8-68.6-5-3.4-7.1-3.8-9.2-1.7-8.2 8-27.7 19.5-42.8 25.1-14 5.3-21.1 7.1-37.2 9.8-13.5 2.2-18.9 2.6-36.8 2.5-18.4 0-23.4-.4-40.5-3-23.3-3.6-47.7-9.4-56.5-13.5-1.6-.8-4.1-1.7-5.5-2.1-5-1.5-23.7-11.3-30.5-16-23.1-16-46-40.2-56.6-59.9-4.7-8.7-5.7-11.8-6.9-20.5-2.1-15.6 3.9-27.1 16.8-32 10.7-4.2 27.5-2 41.2 5.2 7.1 3.7 15.5 9.3 18.6 12.5l2.9 2.9-.3-32.6c-.4-39.3.4-49.7 4.6-55.6 4.2-5.7 9.7-9.2 16.8-10.4 7.4-1.3 53.5-1.4 69.9-.1 14.4 1.1 23.6 4.1 30.4 9.8 6.5 5.4 9.5 10.3 12.7 20.7 2.8 8.7 2.9 9.7 2.9 29.5-.1 18.6-.3 21.2-2.4 28-5.8 18.4-13.4 25.7-31.4 29.9-8.1 1.9-11.9 2.1-45.4 2.1-37.9 0-37.2.1-49.6-4.3-1.5-.5-5-3.6-7.8-6.8-13.1-15.2-34.1-26.2-50.1-26.3-9.3 0-10.1 1.1-4.5 6.7 3.4 3.5 5.9 5 10.3 6.3 6.8 1.9 8.4 2.9 8.4 5.5 0 4.1-8.4 3.1-17.5-2.1-4.6-2.6-6.8-4.8-10.9-10.5-1.4-2-1.6-1.9-4.5 1.5-1.6 1.9-3.3 4.7-3.6 6.2-1.4 6.1 7.1 15.4 17.4 19 6.3 2.2 8.1 3.4 8.1 5.4 0 5.5-13.8 1.9-22.5-5.8l-3.6-3.1.7 2.9c1.2 4.9 6 14.5 11.3 22.4 9.4 14 31.5 36.1 45.9 46 8.4 5.8 25.8 15.1 31.7 17 2.2.7 4.5 1.6 5 2 3.4 2.6 40.8 11.6 56.5 13.6 33 4.1 48 4.2 72.5.4 43.7-6.7 75.1-24.3 93.9-52.5 5.8-8.7 14.1-25.2 16.6-33 .7-2.2 1.6-4.5 2-5 1.8-2.2 7.4-26.1 9-38 3.5-26.3 3.5-34.8-.1-68.5-5.7-54.7-24.2-92.6-57.9-118.5-6-4.6-6-4.6-7-2.3-6.2 13.6-25.1 35.8-43 50.1-8.2 6.6-35.7 22.7-38.8 22.7-.7 0-3.1.9-5.5 1.9-2.3 1.1-6.9 2.7-10.2 3.6-3.3.9-8.2 2.3-11 3.1-7.9 2.1-32.9 5.4-41.5 5.4-7.3 0-30.2-2.8-40.2-5-6.3-1.3-17.8-4.8-21.3-6.4-1.6-.8-4.1-1.7-5.5-2.1-4.5-1.3-22.4-10.8-30-15.9-27.1-18.2-47.7-42.8-60.6-72.3-1.8-4-3.5-8.5-3.8-10-.4-1.6-1.5-4.7-2.4-7l-1.7-4.3H226c-4.7 0-7.9.7-11.6 2.4zM442 717c24.6 2.2 36.9 11.2 40.9 29.8 1.4 6.6 1.4 29.1 0 35.2-3.6 16.3-12.9 24.2-32.4 27.9-9.9 1.9-14.7 2.1-49.4 2.1-33.7 0-39.1-.2-44-1.7-7.2-2.3-14.2-8.9-16-15.3-1.8-6.2-2.6-45.5-1.2-55.1 1.9-12.4 9-20.8 19.3-22.8 6.2-1.2 69.2-1.3 82.8-.1z"/><path d="M196.3 584c-5.4 1.7-11.5 8.9-14.8 17.7-5.9 15.5-3.3 28.6 8 39.7 4.5 4.4 6.8 5.9 12.4 7.6 7.3 2.2 23.4 4.1 26.5 3 1.7-.6 1.5-.9-1.5-2.8-7.1-4.6-14.3-13-13.3-15.6 1.3-3.3 3.8-2.8 7.9 1.6 6.5 7.1 11.9 10.8 17.8 12 4.8 1 5.8.9 8.1-.6 3.1-2 6.7-7.5 6.4-9.5-.2-.9-3.1-2.3-6.8-3.4-5.5-1.6-7.3-2.8-12.8-8.4-5.1-5.1-6.3-7-6-9.1.4-3.7 3.9-4.2 6.1-.8 4.6 6.9 12.9 12.6 18.4 12.6 2 0 2.4-.4 1.8-1.8-.4-.9-1.3-3.7-2.2-6.1-4-11.7-19.5-26.2-35.9-33.7-6-2.7-15.3-3.8-20.1-2.4z"/></g><path d="M140.8 900.8c-.9.4 4.7.7 12.4.7 7.8 0 12.9-.3 11.2-.6-4-.9-21.5-.9-23.6-.1zm506.7 16.9c2.2 2.1 5.3 5.4 6.8 7.3 3.6 4.5 2.3 1.7-1.5-3.2-1.6-2.1-4.4-4.7-6.1-5.9-2.8-1.9-2.7-1.7.8 1.8zm-45.3 12.2c2.1 1.8 5.1 4.8 6.8 6.9 1.6 2 3 3.2 3 2.6 0-1.4-8.7-10.2-11.4-11.5-1.1-.6-.4.3 1.6 2zm-434.7-1.2c-1.1.3-2.4.8-2.8 1.3-.5.4 1.2.3 3.6-.3 5.6-1.2 7.9-.5 7.5 2.5-.2 1.8-1.2 2.4-4.1 2.9-2 .3-4.1.9-4.5 1.3-1 1.1 7.1-.5 8.6-1.7s1.6-3.9 0-5.5c-1.2-1.2-4.5-1.4-8.3-.5zm490 1.8c2 5.9 1.7 9.1-1 12.5l-2.7 3.5 3.1-3.3c3.5-3.7 4-8 1.5-12.2-1.1-1.7-1.3-1.9-.9-.5zm-502.2 5.7c-3.8 4-8.3 10.7-8.3 12.2.1.6.9-.5 1.9-2.4 1.1-1.9 3.8-5.6 6.1-8.3 4.7-5.4 5-6.3.3-1.5zm61.2 11.8c.4.6-1.2 1-4.2 1.1-2.6 0-5.7.5-6.8 1-1.5.7-1 .8 2 .4 2.2-.2 7.1-.7 10.8-1.1 3.7-.3 6.7-.8 6.5-.9-.2-.1-2.2-.5-4.6-.9-2.9-.4-4.1-.3-3.7.4zm317 .9c6.3 1.3 16.2 2.1 14.5 1.2-.8-.5-5.3-1.1-10-1.4-5.5-.4-7.1-.3-4.5.2zm74.5-.4c0 .6.5 1.7 1 2.5.8 1.3-.6 1.6-9.8 2.1l-10.7.5 11.3.2c11.3.2 11.3.2 10.7-2.1-.8-2.5-2.5-4.7-2.5-3.2z" stroke-width="3" fill="#B27F33" stroke="#B27F33"/><path d="M138.3 902.4c-9.6 2.4-17.2 9-22.3 19.2-4.1 8.3-4.1 14 0 18.4 2.9 3.1 5 3.3 5 .3 0-.8 1.5-4.5 3.2-8.2 4.3-8.7 14-18.5 20-20.2 2.4-.7 4.7-1.6 5.3-2.1 2.7-2.3 11.5-.1 11.5 3 0 1.7-3.6 4.2-6.1 4.2-8.4 0-18.4 7.7-23.6 18.1-1.7 3.5-3.5 7.6-3.8 9.1-.6 2.5-.5 2.7 5.2 3.8 3.2.6 7.2 1.5 8.9 2.1 4.3 1.3 4.1 1.4 6.2-3.4 4.4-9.6 14.7-17.7 23.1-18 3.1-.2 4.6.3 5.5 1.5 1.8 2.8-.4 5-6.3 6.4-5.6 1.2-8.7 3.6-13.2 10.1-2.4 3.4-2.6 4.2-1.3 4.7 3.6 1.4 40.3-.1 55.9-2.2 4.3-.6 5.4-1 4-1.6-13.9-5.1-19.5-13.6-19.5-29.7v-6l-5.5-2.5c-3.1-1.3-6-2.4-6.6-2.4-.6 0-2.5-.6-4.2-1.4-9-4-31.6-5.7-41.4-3.2zm459.9 5.7c-6 .7-7.2 1.4-14.1 7.1-5.7 4.7-25.4 14.4-35.6 17.4-2.7.8-5.9 1.9-7 2.5-3.8 1.9-30.5 7.7-36 7.9l-3 .1 3.5 1.4c1.9.8 12.3 2.4 23 3.5s23.1 2.5 27.5 3c4.4.4 18.2 1.2 30.8 1.6l22.7.7-2.1-5.2c-3.8-9-12.4-16.1-19.7-16.1-1.5 0-3.3-.5-4-1.2-1.7-1.7-1.5-5.5.4-6.2 2.3-.9 7.2-.7 9.2.3.9.5 3.1 1.5 4.9 2.1 5.2 1.9 11.9 9.5 15.9 17.8 2.1 4.2 3.8 7.8 3.9 7.9.5.8 22.1-2 23.5-3 1.6-1.1 1.7-1.6.4-5.5-2-5.7-6.6-12.4-11.6-16.7-4.1-3.5-7.5-4.8-14.9-6-3.7-.6-5.4-3-4.2-6.1.6-1.6 9.3-2 12.1-.5.9.5 3.2 1.5 5 2.2 6 2.2 14.5 11.6 18.8 20.6 2.1 4.5 4.4 8.2 5.1 8.3 1.8 0 6.3-5.9 6.3-8.4 0-12-15.7-26.5-32-29.6-6.1-1.2-19.6-1.1-28.8.1z" stroke-width="3" fill="#B27F4C" stroke="#B27F4C"/><path d="M395.4 365c0 11.8.2 16.7.3 10.7.2-5.9.2-15.5 0-21.5-.1-5.9-.3-1-.3 10.8zm6 0c0 11.8.2 16.7.3 10.7.2-5.9.2-15.5 0-21.5-.1-5.9-.3-1-.3 10.8z" stroke-width="3" fill="#E5CC99" stroke="#E5CC99"/><path d="M260.3 160.8c-.6.4 2.2.7 6.2.7s6.8-.3 6.1-.7c-.6-.4-3.3-.8-6.1-.8-2.7 0-5.5.4-6.2.8zm267.1 0c-.7.4 2.1.7 6.1.7 4 0 6.8-.3 6.2-.7-.7-.4-3.4-.8-6.2-.8-2.7 0-5.5.4-6.1.8zM394.4 365c0 11.8.2 16.7.3 10.7.2-5.9.2-15.5 0-21.5-.1-5.9-.3-1-.3 10.8z" stroke-width="3" fill="#FFE5B2" stroke="#FFE5B2"/><path d="M258.9 162.4c-7.7 2.7-12.9 12.6-11.4 21.6 1 5.7 5.9 11.3 13.3 15 5.5 2.8 7 3.2 12.5 2.8 5.4-.3 6.6-.8 9.5-3.7 4.4-4.4 5.7-10.5 4.1-18.9-.6-3.4-1.5-6.2-2-6.2s-.9-.5-.9-1.1c0-.6-1-2.5-2.2-4.1-4.2-5.9-14.6-8.4-22.9-5.4zm267.6-.7c-13.1 3.6-19 26.6-9.3 36.4 2.9 2.9 4.1 3.4 9.5 3.7 5.2.4 7 0 11.8-2.3 14.1-6.9 18.2-19 10.4-30.5-1.7-2.5-4.3-5.1-5.8-5.9-2.8-1.4-13.4-2.3-16.6-1.4zm-164 144.5c-4.9 1.7-9.2 3.4-9.5 3.7-.3.3-2.2 1.4-4.2 2.3-2 .9-4.7 2.5-6 3.5-4.2 3.2-14.3 14.1-16.5 17.7-2.6 4.2-5.3 12.8-5.3 16.7 0 1.5-.4 3.1-1 3.4-1.2.8-1.3 6.9-.1 9.3.5.9 1.3 4.2 1.9 7.4 3.8 20.5 24.5 40.7 48.7 47.3 3.3.9 7.1 2.2 8.4 2.8 3.1 1.6 35.2 1.7 37.2.1.8-.6 4.6-1.9 8.4-2.9 3.9-1 7.2-2.1 7.5-2.5.3-.4 2.6-1.5 5.3-2.5 2.6-1 4.7-2.1 4.7-2.6 0-.4.9-1 2-1.4 3.6-1.1 14.9-11.1 19.6-17.3 4.2-5.4 8.5-15.1 9.5-21.3.6-3.5 1.6-7.4 2.1-8.6.6-1.2.8-3.4.4-5-.4-1.5-1.1-5.3-1.7-8.3-1.5-8.4-6.6-17.6-13.5-24.5-7.8-7.5-9-8.5-13.9-11-2.2-1.1-4.2-2.3-4.5-2.6-.5-.6-15.4-5.9-16.5-5.9-.4 0 1.2 2.1 3.5 4.6l4.2 4.6-.4 7c-.2 4.8-.9 7.4-1.9 8.2-.8.6-1.8 1.8-2.1 2.7-1.6 4.1-14.4 11.4-21.8 12.4l-5 .7v20.9c0 19.6.1 20.9 1.8 20.9 1 0 2.2-.3 2.6-.7.4-.4 3.4-1.3 6.8-2 7.2-1.5 15.9-7 19-12.2 1.2-2 2.5-3.8 2.8-4.1.3-.3 1.2-2.4 1.9-4.8 1.1-3.9 1.5-4.3 3.9-4 3.3.4 4 3.3 2.2 9.2-1.5 4.9-8.4 14.3-11.6 15.8-1.3.6-2.4 1.5-2.4 1.9 0 .4-2.1 1.5-4.7 2.5-2.7 1-5.3 2.1-5.8 2.5-1.7 1.2-13.4 2.9-20.5 2.9s-18.2-1.6-20.8-2.9c-.9-.5-3.7-1.7-6-2.7-4.1-1.7-12.6-9.1-16.4-14.3-2-2.9-4.2-11.6-3.4-13.7.4-1 1.6-1.4 3.3-1.2 2.2.2 2.9 1 3.7 3.8.6 1.9 1.6 4.1 2.3 4.8.7.7 1.3 1.9 1.3 2.6 0 1.9 7 8.2 12.4 11 2.6 1.4 7 2.9 9.7 3.2 2.7.4 5.2 1.1 5.5 1.5.3.5 1.4.9 2.5.9 1.8 0 1.9-.9 1.9-20.9v-20.8l-5.5-1.1c-14.2-2.9-26.4-15.3-25.3-25.6.3-2.4 1.2-5.1 1.9-6.1 2.3-2.7 4.5-4.9 7-6.8 3.3-2.5.8-2.1-9.6 1.5z" stroke-width="3" fill="#FFE5CC" stroke="#FFE5CC"/><path d="M335.9 246.8c-2.6 2.3-3.3 3.8-3.7 8-.4 4.9-.2 5.4 3.1 8.7 3 3 4.2 3.5 8.2 3.5 3.8 0 5.2-.5 7.6-2.9 3.4-3.5 3.8-5.6.8-4.8-2.8.7-7.7-1.1-8.9-3.3-1.8-3.3-1.1-7 1.6-9.5l2.7-2.5h-4.1c-3.2 0-4.9.7-7.3 2.8zm109.3.3c-2.8 2.7-3.2 3.8-3.2 8.1 0 4.4.4 5.4 3.4 8.4 2.6 2.6 4.2 3.4 6.9 3.4 5.1 0 8-1.4 9.9-4.8l1.8-2.9-3.9.1c-5.3.1-8.1-2.5-8.1-7.5 0-2.6.7-4.5 2.2-5.9l2.2-2h-4c-3.1 0-4.7.7-7.2 3.1zm-55.7 53.8c-1.1.5-4.2 1.4-6.9 2-5.9 1.4-13.1 6.2-15.1 10.1-3 5.9-1 14.2 4.8 19.2 8.7 7.7 22 11.6 32.5 9.7 15-2.8 28.8-15.9 26.4-25.1-1.6-6.3-8.8-11.9-18.4-14.5-7.2-1.8-20.3-2.7-23.3-1.4zm19.8 8.4c3.7 2.4 3.4 3.5-1.5 5.7-3.3 1.5-6.6 2-13.8 2-13.6 0-20-2.2-18.4-6.4 1-2.6 6.2-3.5 18.9-3.3 9.6.2 12.6.6 14.8 2z" stroke-width="3" fill="#331919" stroke="#331919"/><path d="M396.4 365c0 11.8.2 16.7.3 10.7.2-5.9.2-15.5 0-21.5-.1-5.9-.3-1-.3 10.8zm4 0c0 11.8.2 16.7.3 10.7.2-5.9.2-15.5 0-21.5-.1-5.9-.3-1-.3 10.8z" stroke-width="3" fill="#99664C" stroke="#99664C"/><path d="M413.7 1090.1c-1.2 2-1.6 8.7-2.2 37.9-.8 40.6-1.4 37.9 8.2 38.7 12.4 1 31.6-3.2 37.7-8.3 4.1-3.5 5.6-7 5.6-13.5 0-6.1-1.5-9.4-6.7-14.5l-4.1-4.1 2.6-3.7c3.1-4.4 4.2-13.7 2.2-19.6-2.9-8.8-13-13.6-30.6-14.7-11-.6-11.2-.6-12.7 1.8zm24.6 9.8c7.8 3.6 9.8 7.8 6.8 14.3-2.7 6-6.2 7.8-15 7.8H423v-11.3c0-6.3.3-11.7.7-12 1.3-1.4 10.6-.6 14.6 1.2zm1.7 35.2c.8.4 2.7 1 4.2 1.4 3.6.7 7.8 5.3 7.8 8.5 0 3.4-4.1 7.7-8.2 8.5-1.8.4-3.8 1.2-4.5 1.7-.7.5-4.8 1.2-9.3 1.5l-8 .6v-11c0-7.4.4-11.3 1.3-12.2 1.3-1.3 13.6-.6 16.7 1zm-170.8-32.9c-.8.8-1.2 4.7-1.2 11.9 0 11.7-.4 12.5-5.3 10.1-7.2-3.6-20.4 1.4-24.1 9.3-2.4 5-3.1 12.7-1.6 18 2.7 9.7 14.1 15.3 24.5 12.1 3.2-1 5.3-1.2 5.9-.6 1.2 1.2 5.6 1.3 7.4.1 1.1-.7 1.4-7 1.5-31.2l.2-30.4-3-.3c-1.7-.2-3.6.3-4.3 1zm-5.4 30.8 3.2 2v17.8l-3.4 2.1c-4.3 2.7-10.5 2.7-13.9.1-4.7-3.7-6.9-10.6-4.8-14.8.5-.9 1.4-2.9 2.1-4.3.7-1.5 2.2-3.2 3.4-3.7 3.5-1.7 9.8-1.4 13.4.8zm215-20.9c-2.1 1.2-2.3 4-.6 5.7 2 2 7.6 1.5 8.8-.7 1.3-2.5 1.3-2.7-.6-4.5-1.8-1.8-5.1-2-7.6-.5zm19.8.5c-3.2 3.1-1.1 6.4 3.9 6.4 3.5 0 5.5-1.5 5.5-4.2 0-3.5-6.6-5.1-9.4-2.2zm-163.8 9.6c-1.4 1.1-1.7 4.5-2 21.3l-.3 20h8l1-13.8 1-13.9 3-1.6c4.2-2.2 11-2 13.6.4 2 1.8 2.1 1.8 3.5-.1 2.1-2.9 1.7-5.9-1.2-8.6-2.3-2.1-3.5-2.4-10.7-2.4-4.7 0-9.1-.5-10.4-1.3-2.7-1.5-3.5-1.5-5.5 0zm186 0c-1.4 1.1-1.7 4.2-1.9 20.3-.1 10.4-.1 19.6 0 20.3.1.9 1.3 1.2 3.9 1 3.6-.3 3.7-.5 4.4-4.8.3-2.5.7-8.6.7-13.5l.1-9.1 3.2-1.9c3.9-2.3 10.7-2.4 13.8-.2 2.2 1.5 2.5 1.5 4.2 0 2.8-2.5 2.2-5.9-1.4-8.5-2.8-1.9-4.5-2.3-11.3-2.3-4.6 0-8.9-.5-10.2-1.3-1.2-.6-2.6-1.2-3-1.2-.5 0-1.6.6-2.5 1.2zm-223.8 1.6c-4.3 2-8.5 6.2-10.6 10.6-4.6 9.6-2.5 20.4 5.2 26.2 3 2.3 4.8 2.8 11.5 3.2 12.1.7 19.9-3 19.9-9.6 0-3.5-2.4-3.6-7.1-.3-3.5 2.6-5.1 3.1-9.9 3.1-4.7 0-6.4-.5-9.8-3-2.4-1.7-4.2-3.8-4.2-4.9 0-1.6 1-2.1 5.8-2.6 3.1-.3 7.1-1 8.7-1.4 1.7-.5 5.3-1.2 8.2-1.6 6.5-.8 7.7-2.2 7-8.1-.4-3.6-1.3-5.5-4.1-8.3-3.5-3.4-3.9-3.6-11.4-3.8-4.2-.2-8.4.1-9.2.5zm12.9 7.3c2.9 1.4 4.1 2.5 3.9 3.7-.3 1.3-2.4 1.9-10.3 2.9-5.4.7-10.1 1-10.4.7-1.1-1 2.8-6 6.1-7.6 4.3-2.2 5.6-2.2 10.7.3zm177.8-7.4c-3.7 1-9.9 5.1-12.2 8.3-4.4 6-5.5 18.5-2.2 25.7 2 4.6 13.9 9.5 18 7.5 1.2-.6 3.9-1.6 5.9-2.3 3.4-1.2 4-1.1 6.1.9 2.9 2.7 4.3 2.8 5.7.3.7-1.4.5-3.1-.6-6.3-1.2-3.3-1.5-7.6-1.2-18.1.2-12.4.1-14-1.5-15.2-1.7-1.2-14.1-1.8-18-.8zm10.7 7.5c.1.2 0 5.8-.2 12.6-.4 12-.4 12.3-2.9 13.3-2.9 1.1-10.3 1.2-11.9.1-1.9-1.2-4.4-7-4.4-10.1 0-3.7 3.1-11 5.6-13.3 3-2.6 6.6-3.8 10.3-3.3 1.8.2 3.4.5 3.5.7z" stroke-width="3" fill="#667F00" stroke="#667F00"/><path d="M411.4 1120.5c0 4.9.1 7.1.3 4.8.2-2.3.2-6.4 0-9-.2-2.6-.3-.8-.3 4.2zm-1 27.5c0 8.5.2 12 .3 7.7.2-4.2.2-11.2 0-15.5-.1-4.2-.3-.7-.3 7.8zm-113.1 16.2c.6.4 4.4.7 8.2.7 8.1-.1 6.9-.6-2.7-1.1-3.7-.2-6.2 0-5.5.4z" stroke-width="3" fill="#667F19" stroke="#667F19"/></svg>