<svg version="1.0" xmlns="http://www.w3.org/2000/svg" viewBox="0 0 782 1257"><g fill="#FFF" stroke="#FFF" stroke-width="3"><path d="M0 628.5V1257h782V0H0v628.5zm520.6-473.2c7 4.5 12.3 10.6 26.4 30.3 21.1 29.5 34.1 41.6 50.4 47 8.3 2.7 12.8 3 15.9.9 4.2-2.7 14.1-5.5 19.7-5.5 11 0 23 5.8 31.1 14.9 6.3 7.1 8.2 13.2 8.2 25.6-.1 8.4-2.3 21.5-4.2 23.9-.4.6-1.5 3.1-2.4 5.6-1.4 3.7-1.5 6.3-.8 15 .9 11.5.1 26.9-1.9 34.6-1.2 4.8-1.2 5 2.4 10.4 2 3 4.4 7.5 5.3 10 .9 2.5 2 5 2.5 5.7 1.5 1.9 3.7 16.3 3.8 24.1 0 11.8-1.8 20.9-6.1 29.9-9.9 20.8-25.6 32.1-57.9 41.9-8.4 2.5-16 5-16.9 5.5-1.6.8-7.7 3-19.5 7-3.3 1.1-6.4 2.3-7 2.8-2.6 2-34.8 12.1-41.9 13-18.1 2.5-32.4 1-53.7-5.7-13.9-4.4-41-14.8-60-23-1.4-.6-6.7-2.7-11.8-4.7-18.1-6.9-28.8-14.9-38.2-28.5-3.2-4.5-7.6-13.9-8.5-17.9-.3-1.7-1-3.1-1.4-3.1-2 0-10.2 6.4-15.1 11.7-12.2 13.3-15.4 26-17 68.3-.5 14.6-1 29.8-1 33.8v7.3l5.3-3c6.2-3.6 13-4.9 15.2-3.1 2.9 2.4 1.1 12.5-3 17-1.4 1.5-1.2 1.8 1 2.8 3.6 1.6 4.2 5.5 1.7 11.3l-2 4.9h2.6c6.2 0 8.3 7.1 3.5 11.7-5.1 4.7-10.2 7.7-21.6 12.6l-2.9 1.2.7 33.5c.4 18.4 1.1 42 1.4 52.4l.6 19 4.4-8.7c6.9-13.6 12.9-18.3 17.4-13.8 1.7 1.6 2.2 3.6 2.5 9.1.4 6.3.6 7 2.6 7 4.3.1 7.6 4.8 7.6 11.1 0 1.6.2 2.9.4 2.9.1 0 1.7-.5 3.5-1.1 2.5-.9 3.6-.8 5.6.5 3.1 2 3.2 5.2.4 12.5-1.9 5.2-11 19.3-13.3 20.9-.6.4-3.1 2.9-5.6 5.5l-4.4 4.7 4.9 5.1c8.5 8.6 24.3 18.8 39.1 25.1 7.1 3 20.8 6.7 29.4 7.8 10.8 1.5 36 1.5 47.6 0 13.2-1.8 40.2-9.1 46.9-12.8 1.1-.6 5.2-2.6 9.1-4.6 32.1-15.7 51.9-43 42.7-58.7-4-6.8-18.8-5.6-22.2 1.8-1.2 2.6-1.5 14.1-.5 16.7.9 2.5 6.3 2 10.1-1 2.6-2 3.3-3.2 3.3-5.9 0-1.9-.4-3.7-1-4-1.6-1-1.2-5.5.6-6.2 1-.3 2.6.4 4.2 2.1 2.3 2.2 2.7 3.5 2.7 8.1 0 4.8-.4 5.8-3.4 8.9-8.9 9.2-19.9 8.7-23.2-1.1-1.9-6-.7-17.5 2.4-22.2 2.9-4.4 5.7-6.1 12.9-8.1 10.1-2.7 23 5 25.6 15.3 1.6 6.1 1.4 24.3-.2 33.7-2 11.3-8.2 31.8-13.1 43.5-3.3 7.8-13.6 28.1-18.1 35.4-13.5 22.2-34.9 45.4-55.4 60.1-28.9 20.7-65.8 33.2-102.8 34.9-18 .8-42.9-.3-52.8-2.3-4.4-.9-11.5-2.2-15.9-3-28.8-5.2-64-21.4-87.4-40.3-8.3-6.6-21.6-19.8-28-27.8-6.4-7.9-16.1-21.9-16.1-23.2 0-.5-1-2.4-2.3-4.3-9.4-14.2-20-47.3-23.3-72.4-2.9-22.4-3.3-34.8-3.3-113.8l-.1-78.6-2.3-2.9c-2-2.4-26.4-36.2-35-48.4-3.2-4.7-3.3-5.2-.9-8.7 1.1-1.5 3.1-4.6 4.5-7 1.5-2.3 3.9-6.1 5.4-8.5 1.4-2.3 3.4-5.3 4.3-6.7 1.9-2.7 5-8.6 5-9.4 0-.2-6.3-5.4-14-11.6-7.7-6.2-14-11.5-14-11.9 0-.3 6.3-6.9 13.9-14.5l13.9-13.9-1.5-3.6c-.8-2-2.5-5.9-3.8-8.6-1.2-2.8-3.2-7-4.3-9.5-1.1-2.5-3.2-7.1-4.7-10.3-1.5-3.2-2.3-6.2-1.9-6.7.9-.7 15.6-5.2 24.2-7.3 3.7-.9 4.3-1.4 3.9-3.1-.3-1.2-1.5-6.8-2.6-12.6-1.2-5.8-2.8-13-3.6-16-.7-3-1.7-7.6-2-10.2-.8-5.5-.3-5.9 9.5-7.7 3.6-.7 8.5-1.8 11-2.6 2.5-.7 7.2-1.9 10.5-2.5 3.3-.6 6.7-1.3 7.6-1.6 1.3-.3 1.9-3.6 3.3-16.2.9-8.6 2-17.7 2.4-20.2l.7-4.5h4.5c2.5 0 10.9.4 18.6.8l14.2.8 6.8-21c6-18.3 7.2-21.1 9-21.1 1.1 0 2.4.4 3 .8.5.5 2.9 1.4 5.4 2.1 2.5.7 6.4 2.2 8.7 3.2 2.3 1 4.7 1.9 5.3 1.9.6 0 3.8 1.2 7.2 2.6 7.1 3 6.6 3.4 10.4-8.6 1.5-4.7 3.1-9 3.5-9.5.4-.6 1.5-3.6 2.4-6.8.9-3.2 2.3-7 3.1-8.5.8-1.5 1.4-3.3 1.4-4 0-.6.3-1.2.6-1.2.6 0 7.5 3.8 19.8 11 12 6.9 28.6 16 29.3 16 .8 0 18.5-23.1 27.3-35.5 2.5-3.5 5.1-6.7 5.9-7 .7-.3 3.2.6 5.5 1.9 2.2 1.3 7.7 4.5 12.1 7.1 4.4 2.5 12.1 7 17 10 8.7 5.1 20.5 12.1 30.3 17.7l4.6 2.7 5.5-5.2c10.6-10 24.7-27.5 36.6-45.7 5.8-8.7 13.5-16.8 18.5-19.3 4.7-2.4 12.5-1.7 17.6 1.6zm-199.7 935.9c6.1 2.9 8.1 5.2 8.1 9.1 0 3.9-2.3 7.5-5.7 8.8-2 .7-3.5.5-6.7-1.3-3-1.6-5.9-2.2-11-2.2l-6.9-.1-5.3 5.9c-5.9 6.5-6.9 9.8-6.7 21.8.2 12.6 5.8 19.8 15.1 19.8 2.8 0 7.2-1.3 12.3-3.5 9.3-4.1 9.8-4.1 13.2-1.5 3.2 2.5 4.4 7.4 2.6 10.7-3 5.6-16.2 10.5-28.4 10.5-13.7 0-22.6-5.5-28-17.4-4.9-10.8-4.4-32.2 1.1-43 5-9.8 14.7-17.9 23.7-19.8 6.4-1.4 17.5-.3 22.6 2.2zm-179 10.5 2.4 1.6-.7 30.4c-.4 16.7-.9 31-1.2 31.7-.3.8-1.9 2-3.6 2.7-2.5 1-3.4 1-5.6-.4-2.4-1.3-3.1-1.4-6.1-.1-10.4 4.4-24.4-3.2-27.1-14.8-2.2-9 .4-18.2 6.7-23.8 6.5-5.7 15.3-7.5 22.6-4.5 1.5.7 1.7-.2 1.7-9.4 0-9.5.2-10.4 2.5-12.6 2.8-2.9 5.1-3.1 8.4-.8zm205.8.5c2.1 2 2.3 3 2.3 12.4v10.3l3.3-.7c8.2-1.8 15.1-.5 19.5 3.8 4.2 4 4.7 6.2 4.7 22.6 0 12.6-.2 14.4-1.9 16.3-2.3 2.6-6.7 2.7-8.9.3-1.2-1.3-1.6-4.8-1.9-15.5-.3-15.1-.6-15.7-6.5-15.7-1.9 0-4.3.9-5.9 2.3-2.5 2.2-2.7 3.1-3.5 13.3-1.1 13.8-1.3 14.8-4.4 16.4-3.1 1.7-7.2.1-8.3-3.2-.5-1.3-.6-15.5-.3-31.6.6-29.4.6-29.4 3-31.3 3.1-2.5 5.9-2.4 8.8.3zm205.3.3 2.3 2.4-.7 24.3c-.8 31.3-1.3 35.4-3.9 37.9-2.7 2.5-4.9 2.4-7.9-.4l-2.5-2.4.4-23.9c.5-30.7.9-35.6 3.4-38.3 2.6-2.8 6-2.7 8.9.4zm-42.9 10.6c3 3 2.2 7-1.9 9.1-4.2 2.1-8.9.7-10.3-2.9-2.4-6.4 7.1-11.3 12.2-6.2zm20.1-.4c2.6 2.4 2.3 6.9-.6 8.8l-2.4 1.6 2.4 2.4c2.3 2.3 2.4 2.6 1.7 14.8-.5 10.3-.3 13.3 1.2 18.1 2.3 7.3 1.2 10.6-3.6 10.6-1.8 0-4-.7-5-1.6-1.5-1.4-2-1.4-5.4 0-5.3 2.2-13.1 1.9-18-.7-2.9-1.6-4.8-3.7-6.7-7.6-3.4-6.6-3.6-11.9-.8-19.8 2.3-6.5 4.7-9.5 10.9-13.1 3.7-2.2 5.8-2.6 11.7-2.7 4 0 7-.3 6.7-.8-.2-.4-1-.7-1.8-.7-2.8 0-3.4-6.3-.8-9.2 2-2.3 8-2.4 10.5-.1zm-91.3 10c1.7 1.2 4.2 1.6 8.7 1.4 4.6-.2 7.2.3 9.3 1.5 2.7 1.6 3.1 1.6 6.4.1 5-2.4 15.3-2.3 19.4.3 5.9 3.6 7.3 8.1 7.3 23.8 0 12.6-.2 14.2-2.1 16.6-2.5 3.2-6.1 3.4-8.9.4-1.8-1.9-2-3.5-2-13.9 0-14-.8-16.9-4.7-16.9-5.9 0-7.3 3.4-7.3 17.1 0 9.3-.2 10.2-2.5 12.4-2.9 3-6.8 3.2-9.5.5-1.8-1.8-2-3.3-2-14.4 0-14-.3-15.6-3.4-15.6-5.1.1-6.6 3.6-6.6 16 0 11.2-.7 13.3-5 15.5-2.9 1.5-3.1 1.5-5.6-1l-2.5-2.5.6-19.8c.6-18 .9-19.8 2.7-21.5 2.5-2.1 4.7-2.2 7.7 0zm222.1 0c2 1.5 4.1 1.7 10.7 1.5 9.5-.5 13 1 16.6 6.8 2 3.2 2.2 4.8 2.2 18.7 0 14.4-.1 15.3-2.2 17.2-2.7 2.5-6 2.7-8.5.4-1.6-1.4-1.8-3.3-1.8-15.3 0-9.2-.4-14-1.2-14.8-2.1-2.1-7.4-1.4-10.6 1.3-2.9 2.4-3 2.8-3.7 14.4-.4 6.5-1 12.3-1.4 12.8-.3.6-1.7 1.6-3 2.3-2 1-2.7.9-5-.8l-2.6-1.9.1-20.3c.1-19.8.2-20.4 2.4-22.2 2.8-2.3 4.9-2.3 8-.1zm-474.1 2.8c1.2 1.1 1.4 4.5 1.2 16.7-.2 12.4.1 15.7 1.3 17.3 3.2 4.2.9 9.5-4.1 9.5-1.7 0-3.6-.7-4.3-1.5-1.3-1.5-5.5-1.2-7.5.6-1.9 1.9-11.5 1-16.4-1.5-4-2.1-5.1-3.3-6.9-7.7-6.1-14.6 1.7-31.4 16.2-35 4.8-1.2 18.8-.1 20.5 1.6zm38.2-1.4c1.1.5 2.9 2.4 3.9 4.1 1.7 2.8 1.7 3.4.4 6-1.7 3.2-3.2 3.4-9.6 1.2-3.3-1.1-5.6-1.3-7.9-.6-5.1 1.3-4.3 3.5 1.4 4.4 7.4 1 13.2 4.9 15.2 10.3 4.4 11.5-3 19.5-18 19.5-13.3 0-21.5-6.9-15.8-13.2 2-2.2 5.8-2.3 10.8-.2 3.6 1.5 11.5 1.2 11.5-.4-.1-2.1-2.4-3.3-9-4.7-4.5-.9-8.3-2.4-9.7-3.7-6.3-5.9-2.4-19.1 6.7-22.7 3.4-1.3 17.6-1.4 20.1 0zm194.1.4c2.6 1 2.8 2.7 2.5 18-.2 12 .1 14.5 1.7 17.8 1.7 3.5 1.7 3.9.2 6.2-2 3-7.2 3.5-9.1.8-1.2-1.6-1.5-1.6-5.7 0-10.1 3.9-20.2.8-24.7-7.4-3.6-6.7-3.4-16.6.6-23.9 3.2-5.9 8.4-10.2 14.3-11.9 3.7-1 17.3-.8 20.2.4zm172.1-.1c4.3 1.7 9.7 8 9.9 11.4.5 9.9-.3 10.5-18.7 13.3-13.3 2-13.6 2.3-6.3 6 5.6 2.8 12.4 2.2 16.8-1.4 5.2-4.5 9.4-3.2 9.4 2.9 0 2.8-.7 4.3-3.1 6.4-3.9 3.5-13.4 6.4-19 5.7-6-.6-13.2-4.6-16.7-9-2.8-3.4-3.1-4.8-3.5-11.8-.3-6.6 0-8.6 1.9-12.1 2.9-5.7 7.8-10.7 11.5-11.7 4.7-1.4 14.2-1.2 17.8.3zm43.4-.3c7.7 2.9 11.2 9.8 11.3 22 0 11.6-2.3 16.3-10 20.1-15.4 7.7-30-1.5-30-18.8 0-7.2 3.1-15.4 7.3-19.2 4.9-4.6 15.1-6.5 21.4-4.1z"/><path d="M399 274c-11.3 3.6-18.7 9.9-23.1 19.8-3.6 7.8-4.9 15.7-4.9 28.8 0 8.6 1.6 26.2 2.5 27.2.2.2 1.8-.4 3.6-1.3 3.8-2 16.4-4.4 23.2-4.5 2.6 0 4.7-.2 4.7-.5 0-.2-.9-1.9-2-3.7-5.1-8.4-1-20.8 8.7-26.5 4.1-2.4 5.9-2.8 12-2.8 6.5 0 7.6.3 11.9 3.3l4.7 3.4-.6-9.5c-.5-6.9-1.4-11.4-3.3-16.4-3.4-8.6-6.3-12.1-12.6-15.6-4.5-2.4-6.1-2.7-13.7-2.6-4.7 0-9.7.4-11.1.9zm212.5-.1c-13.6 3.6-21.5 17-21.5 36.8v6.3l4.2-2.7c3.7-2.5 5.1-2.8 12.2-2.8 7.3 0 8.5.3 12.6 3 3.2 2.1 5.3 4.6 7.2 8.5 3.3 6.7 3.4 11.1.5 17.1l-2.3 4.6 9.6.6c5.2.3 11.5 1.3 14 2.2 2.5.9 5.2 1.9 6.1 2.1 2.7.9 4.4-9.2 4.3-26.6 0-13.5-.3-16.4-2.3-22-4.6-13.3-9.6-19.4-19.8-24.1-6.6-3.1-19-4.6-24.8-3z"/><path d="M425.6 321.1c-3.1 2.5-3.3 4.8-.6 7.7 2.4 2.6 4.7 2.8 7.8.6 2.8-1.9 2.8-5.7 0-8.4-2.7-2.5-3.9-2.5-7.2.1zm171.6.5c-2.4 1.7-3 6.2-1 8.2 1.7 1.7 6.4 1.5 8.2-.4 4.7-4.6-1.8-11.6-7.2-7.8zm-478.9 813.5c-4.1 1.2-6.3 5.2-6.3 11.4 0 8.5 7.4 12.9 15 9 2.7-1.4 2.9-1.9 3.2-8.7.2-4 .2-7.8 0-8.5-.3-.9-7.6-4.6-8.5-4.2-.1 0-1.7.5-3.4 1zm391.9.9c-3.3 2-7.2 9.1-7.2 13 0 3.5 3.2 8.8 5.7 9.4 2.6.7 7.1-.2 9.1-1.7.8-.6 1.2-4.3 1.2-11.8V1134h-2.7c-1.6 0-4.3.9-6.1 2zm-342.8-.4c-5.5 2.7-8.3 10.3-6.4 17.4 1.4 5.2 4.5 6.7 10.4 4.8l4.1-1.3V1134H173c-1.4 0-3.9.7-5.6 1.6zm233.3 0c-1.9 1-3.7 3.5-5.3 7.1-2.2 4.9-2.3 5.9-1.2 9.5 1.5 5.1 4.6 7.2 9 6.3 5.6-1.2 5.8-1.8 5.8-13.6V1134h-2.7c-1.6.1-4.1.8-5.6 1.6zm174.2 1-2.4 2.6 3-.5c1.7-.3 5.1-.9 7.8-1.2 7.2-1 5.7-3.5-2.2-3.5-2.8 0-4.4.7-6.2 2.6zm47.8-.4c-2.2 1.7-4.7 8-4.7 11.8 0 8.8 7.5 13 13.4 7.5 2.4-2.2 2.6-3.1 2.6-9.9 0-5.4-.4-7.9-1.6-9-1.9-1.9-7.4-2.1-9.7-.4z"/></g><path d="M320.4 600.5c0 5.5.1 7.6.3 4.7.2-2.9.2-7.4 0-10-.2-2.6-.3-.2-.3 5.3z" fill="#CCE5B2" stroke="#CCE5B2" stroke-width="3"/><path d="M158.5 628.5c0 39.6.1 55.7.2 35.7.2-20 .2-52.4 0-72-.1-19.6-.2-3.3-.2 36.3zM319.4 600c0 5.8.1 8.1.3 5.2.2-2.8.2-7.6 0-10.5-.2-2.8-.3-.5-.3 5.3zm116.4 188.7c3.4.2 9 .2 12.5 0 3.4-.2.6-.3-6.3-.3-6.9 0-9.7.1-6.2.3z" stroke-width="3" fill="#667F19" stroke="#667F19"/><g fill="#667F00" stroke="#667F00" stroke-width="3"><path d="M502 156.7c-4.9 2.7-9.2 7.8-18.9 21.8-11.4 16.5-13.2 19-17.9 24.5-8.2 9.6-22.2 23.7-25 25.1-1.5.8-4.8 2.9-7.3 4.7-7.2 5-10.5 5.9-13.7 3.5-5-3.7-16.3-7.3-22.7-7.3-10.3 0-22.3 5.6-29.7 13.8l-3.7 4.1-11 1c-29.9 2.8-67.6 12.9-91.1 24.5-41.3 20.4-73.3 58.2-88.7 104.6-3.1 9.6-6.9 25.9-8.7 38-5.5 36.1-5.1 22.8-4.7 171 .2 76.1.7 137.5 1.2 138.8.5 1.3.9 4.7.9 7.7 0 6.7 2.9 29.7 4 31 .4.5 1.3 4.1 2 8 .7 3.8 1.8 8.3 2.5 10 .7 1.6 2.2 5.7 3.3 9 1.1 3.3 2.7 7.8 3.5 10.1 2.8 7.4 14.7 29.3 18.9 34.9 21.5 28.3 42.3 46 69.9 59.6 22.9 11.3 38.3 16.4 60.3 19.9 6.5 1 14.1 2.4 17 3.1 3.3.8 13 1.2 28.1 1.2 20.4-.1 24.7-.4 38-2.8 23.9-4.3 36.5-8.3 55.9-18.1 9-4.5 22-12.4 27-16.4 12.5-10.1 25.5-22.6 33.6-32.6 12-14.5 25-35.6 32.4-52.3 3.1-7.1 4.4-10.4 9.5-24.4 3.4-9.2 7.1-26.3 8-36.7 2.2-24.9-3.9-35.9-20-36-7.3 0-11.9 2-15.5 6.7-2.6 3.4-2.9 4.7-3.2 12.4-.4 8-.2 8.7 2.3 11.7 2.2 2.7 3.4 3.2 7 3.2 3.7 0 4.9-.6 9.4-4.8 5.6-5.3 6.5-8.6 3.6-14.2-2.6-4.9-4.7-3.7-2.4 1.4.7 1.4.9 4 .5 6-1.2 6.1-10.7 10.7-15.6 7.6-1.2-.7-1.5-3.1-1.5-10.4 0-10.6.8-12.3 7.9-15.7 8.1-3.9 15.9-1.5 19.5 5.7 2.2 4.7 2.8 12.2 1.1 15.2-.5.9-1.8 3.7-3 6.2-2.6 5.7-4.3 8.6-6.3 10.8-25.8 28.3-65 44.6-113.2 47-12.6.6-34.6-2.2-46.5-6-8.4-2.6-21.1-7.9-23.1-9.5-.8-.7-1.9-1.3-2.4-1.3-.4 0-3.1-1.4-5.9-3.2-14-8.8-29.6-23.8-24.8-23.8.4 0 3.4-2.6 6.6-5.7 6.3-6.3 13.7-16.9 16.2-22.9.8-2.2 2-4.9 2.6-6.1 2.2-4.5-3.4-6.6-10.3-3.8-1.4.5-1.7-.4-2.1-5.6-.5-6.8-2.1-8.9-7-8.9H346v-7c0-5.6-.4-7.4-2-9-1.6-1.6-2.4-1.8-4.4-.9-3.2 1.5-5.8 5.2-11.3 16-3 6.1-4.9 8.7-5.5 8.1-1.1-1.1-2.1-28.2-3.2-80.2l-.6-28.6 7-3.2c3.9-1.8 7.5-3.2 8-3.2.6 0 1-.4 1-.8 0-.5 1-1.4 2.3-1.9 9.9-4.7 11.7-12.6 3.1-13.9-2.4-.3-4.4-.8-4.4-1 0-.2 1.1-2 2.5-4.1 3.2-4.6 3.1-9.3-.2-10.8-3.2-1.4-3.5-3-1.2-5.9 1.1-1.4 2.7-4.6 3.6-7.1 1.7-5.1.7-7.5-3-7.5-2.7 0-9.7 2.2-9.7 3 0 .9-7.9 4.5-8.5 3.9-.7-.8 1.4-65.5 2.4-74.4 1.2-10.3 4.1-20.6 7.7-27.5 5.4-10.3 24.2-26.5 26.5-22.9.5.8.9 2.2.9 3.2 0 2.4 4.4 12 8.3 18.2 5.6 8.7 15.6 17.7 26.2 23.3 4.5 2.4 16.4 7.2 17.7 7.2.5 0 3.3 1.1 6.1 2.4 2.9 1.3 9.8 4.2 15.5 6.5 5.6 2.2 11 4.5 12 5 .9.6 3.7 1.7 6.2 2.5s8.3 2.9 13 4.6c13.9 5.1 24 8.1 32 9.5 8.9 1.6 26.1 1.9 34.5.5 5.7-.9 20.7-5.2 25-7.1 1.1-.5 4.5-1.8 7.5-2.8 3-1.1 9.1-3.4 13.5-5.1 10.1-4 20.6-7.7 27-9.6 2.8-.9 5.9-2 7-2.5 1.1-.5 5.2-1.8 9-2.9 25.7-6.9 45-21.8 52.2-40.4.9-2.2 2-4.6 2.4-5.1 3.6-4.9 3.6-39.3 0-44-.5-.5-1.6-3.6-2.6-6.8-1-3.1-2.1-5.7-2.5-5.7-.4 0-1.3-1.3-2-2.9-.6-1.6-2.1-3.8-3.1-4.7-1.7-1.5-1.9-2.6-1.3-7.3.3-3.1 1.1-6.2 1.7-6.9 1.6-2 1.6-34.5 0-36.4-1-1.1-.7-2.6 1.2-7.4 1.4-3.2 2.5-6.5 2.5-7.2 0-.6.4-1.2.8-1.2.9 0 2.8-8.9 3.7-17.5 1.3-11.7-2.6-23.8-10-31-5.3-5.2-13.6-9.4-20-10.3-2.2-.2-4.6-.9-5.2-1.5-.9-.6-2.2-.6-4 .1-1.6.6-4.6 1.3-6.7 1.6-2.2.3-6.3 1.7-9.2 3.2-4.6 2.3-6 2.6-10.8 2-3.1-.4-5.8-1.2-6.1-1.7-.4-.5-1.4-.9-2.4-.9-2.1 0-13.7-5.9-17.1-8.7-10.3-8.5-18.7-17.8-29.1-32.6-3.1-4.5-6.5-9.1-7.3-10.2-.9-1.1-3.4-4.5-5.6-7.5-10-13.6-19.6-21.1-26.8-20.9-2 0-5.7 1.2-8.2 2.6zm14.8 3.2c3.5 1.9 12.3 10.3 15.3 14.7 9.7 14.6 23.4 32.9 29.8 39.9 11.6 12.8 27.2 23.2 37.4 25.1 2 .3 3.7 1 3.7 1.4 0 .5-2.2 3.1-4.9 5.9-7.1 7.3-14.3 17.2-21.1 29.2-6.6 11.7-8.3 16.9-5.6 16.9.9 0 2-.8 2.3-1.8 1-2.5 10.1-19.1 13.1-23.7 5.1-7.7 16-20.1 21.3-24.1 10.3-7.9 13.1-8.9 24.9-8.9 10.1 0 10.7.1 16.5 3.4 7.5 4.1 12 8.8 15.1 15.5 4.1 8.7 3.2 25.9-2 37.8-.9 2.1-2 3.8-2.4 3.8-.4 0-1.6-2.1-2.6-4.6-1-2.5-4.3-7-7.2-10-8.7-9-20.8-13.1-35-12.1-20.8 1.5-31.6 18.8-31.3 50.2.1 6 .4 10.1.6 9 .3-1.1 1-3.1 1.6-4.5.5-1.4.9-3.5.8-4.7-.1-1.2.5-7.4 1.4-13.9 2.4-17.2 6.8-25 17.4-30.5 3.8-1.9 5.9-2.3 14.1-2.2 9.4.1 12 .7 21.6 5.4 5.1 2.5 14.4 14 14.4 17.8 0 .9.7 2.9 1.5 4.5 2.7 5.2 3.9 21.4 2.5 35.9-1.6 17.5-2.4 18.5-10.8 14.7-2.6-1.2-8.7-2.4-15.2-3-9.9-1-11.1-1-13.7.7l-2.7 1.8 12.4.7c13.5.7 22.8 3.4 27.7 8 3.4 3.2 7.6 11.1 10.4 19.3 2.1 6 2.4 8.9 2.4 21 0 12.8-.2 14.6-2.7 21.3-7.6 20.1-22.7 33-48.3 41.2-21.8 7.1-37.6 12.6-49 17-15.7 6.2-36.1 12.9-42.9 14.1-4.3.7-11.7.9-19.5.6-17.1-.7-32.4-5.1-66.6-18.9-5.5-2.2-16.7-6.7-25-10-19.9-7.8-24.9-10.2-32.1-15.4-10.8-7.6-17.8-17.1-22.5-30.4-3.3-9.5-3.4-28.3-.1-39 2.7-8.5 7.9-18.4 11.4-21.7 5.6-5.3 21.9-9.1 33.9-8 3.2.3 5.9.3 5.9.1 0-.2-1.6-1.1-3.6-1.9-6.7-2.8-20.7-1.6-31.2 2.7-4.2 1.6-5.6 1.8-6.2.9-1.1-1.8-3-19.9-3-28.6 0-19.6 4.4-32.9 14-42.3 9.7-9.6 33.9-12.2 44.3-4.9 1.8 1.2 3.5 2.6 3.9 3.2.3.5 1.5 2.1 2.7 3.4 1.1 1.2 2.5 3.9 3.2 6 .6 2 1.5 4 1.9 4.6 1.2 1.5 3 14.6 3 21.3 0 3.3.7 7.5 1.5 9.3 1.5 3.2 1.5 2.6 1.2-11.1-.4-11.9-.9-15.7-2.8-21.2-2.9-8.5-8-15.4-14.3-19.3-4.8-2.9-5.2-3-18-3s-13.2.1-19.8 3.3c-7.6 3.7-14.9 11.1-18 17.9-1 2.4-2.3 4.3-2.7 4.3-1.3 0-4-7-5.6-14.5-3.7-17.7.1-30.7 11.5-39.2 5.4-3.9 15.4-7.3 21.9-7.3 18.8.1 38.8 18.4 55.4 50.7 2.8 5.6 4.8 8.3 6 8.3 2.4 0 2.2-1-2.4-10.3-6.7-13.3-20.1-32.4-26.3-37.6-2.5-2.1-1.9-3.4 2.2-5.3 9.6-4.5 33.2-27.2 43-41.5 2-2.9 7.5-10.8 12.1-17.5 9.7-14.3 12.3-17.3 17.1-19.8 4.5-2.5 8.2-2.5 12.8-.1zm-157.6 95.3c-.4 1.8-.7 8-.6 13.8.1 10.8 2 19.2 6.6 28.4 1.8 3.5 1.9 4.6.8 14.2-1 10.1-.6 19.1 1.9 36.9.8 5.6.7 6.3-2 10.1-6.9 10.1-12.2 29-11.8 41.9l.2 7-5.9 3.5c-7.1 4.1-18 14.9-21.6 21.2-4.2 7.6-7.7 19.6-8.7 30.3-1.2 11.8-3.1 49.9-3.4 67l-.2 11.9-4 2.7c-5.6 3.7-14.8 6.9-19.9 6.9-5.2 0-8.7-2.5-11.9-8.3-4.5-8.7-2.2-32.6 6-60.2 8.3-28.2 8.7-30.1 8.8-44.5 0-12.9-.1-13.7-2.8-18.8-1.9-3.6-3.3-5.2-4.7-5.2-2.6 0-2.5.8.8 6.6 2.6 4.7 2.7 5.4 2.5 17.9-.1 13.5-.8 17.4-6.8 37-10.4 34.2-12.9 60.7-6.6 70.8 4.3 7 6.5 8.2 15 8.2s13.2-1.7 24.6-8.7c9.4-5.9 17.8-10.5 20.3-11.3 3.7-1.1 2.7 2.5-2.7 10.7-4.6 6.8-4.8 7.3-2.8 7.6 5.5.7 6.7 1.3 6.7 3.3 0 3-1.7 5.9-6.3 10.6l-4.1 4.3h7.8c6.8 0 7.7.2 7.4 1.7-.3 1.5-10.1 9.1-12 9.2-.4.1-3.1 1.2-6 2.5-7.6 3.5-23.4 6.6-33.1 6.6-18.4 0-35.3-7.5-42.7-19-1.5-2.5-3.9-7.9-5.2-12-2.1-6.7-2.3-9.3-2.2-25.5.1-20 2.3-35.2 9.1-61.8 2.6-10.2 3.2-14.2 2.4-15-1.7-1.7-2.7 0-5.5 10.3-11.6 43.4-13.6 81.3-5.2 100.3 4.7 10.4 13.7 18.2 27.1 23.3 8.9 3.3 25.9 4.3 37.8 2.1 5.5-.9 8-1 8.2-.3.2.6.8 20.9 1.4 45.1.7 24.2 1.5 49.6 1.8 56.6l.6 12.5-3.3 3.8c-11.4 13-23.8 7-36.1-17.4-3.9-7.8-7.7-17.3-10.1-24.9-1.1-3.6-2.6-7.2-3.4-8-4.4-4.7-1.3 9.8 5.8 26.4 10.2 23.8 24.1 37.5 35.1 34.4 8.5-2.3 14.3-9 23.3-26.4 3.1-6 6.8-12.5 8.1-14.3 2.1-2.8 2.7-3.1 4-2 1.3 1 1.5 2.9 1 10.5l-.5 9.3 3.8-2c3.6-1.9 4-1.9 5.6-.3 1.7 1.7 1.6 6.1-.3 15.3l-.6 3.5 2.4-1.8c3.9-2.8 10.1-5.9 10.6-5.3 2.5 2.5-6.3 17.8-15.8 27.4-21.9 22.3-47.1 29.3-67.9 18.9-7.5-3.8-19.7-15.2-25.7-24.2-8.5-12.7-14.8-25.2-21.8-43.3-1.6-4-3.3-7.1-3.9-6.9-3 1.1.6 11.9 10.1 31.1 12.9 26.2 27.4 42.3 44.3 49.3 9 3.7 23.2 3.9 33.5.4 7-2.4 16.5-7.1 19.8-9.9 1.6-1.5 2.2-1.1 7.5 3.9 19.6 18.9 40.1 29.4 68.2 35 16.3 3.3 42.1 3.3 60 .1 33.8-6.2 61.5-18.9 81.9-37.8 5.7-5.3 9.2-9.7 15.8-20 1-1.6 1.2-1.2 1.2 2.9.2 10-8.1 39.9-15.8 57.2-13.4 30-28.4 51.7-50.5 72.8-15 14.3-42.7 32.1-57.1 36.7-2.2.7-4.4 1.6-5 2-2.5 1.9-24.4 7.1-38 9.1-30 4.3-63.7 2.3-95-5.6-20.1-5.1-30.2-9.2-49.8-19.9-17-9.3-40.3-28.8-53.1-44.5-19.2-23.6-31.2-49.5-37.6-81.1-5.7-28.4-6.9-63.8-6.5-199 .2-104.6 1-125.1 5.5-148 1-5.2 2.4-12.4 3-16 5.6-31.3 22.3-63.5 46-88.4 6.5-6.9 27-24.3 29.9-25.4.9-.3 3.1-1.6 5-2.9 15.9-10.8 54.1-23.2 85.6-27.8 6-.9 11.2-1.8 11.4-2.1.2-.2 2.8-.4 5.7-.4h5.4l-.8 3.2z"/><path d="M441.6 343.4c-.8 1.9-2.4 3.7-3.5 4.1-1.2.3-2.1 1-2.1 1.4 0 .5-2 1.4-4.5 2-2.5.6-4.5 1.3-4.5 1.5 0 .4 12.3 4.6 13.3 4.6.2 0 1-2.8 1.6-6.3.7-3.4 1.4-7.2 1.7-8.5.7-3.3-.4-2.7-2 1.2zm144.8 1.1c.3 1.6.8 5.1 1.2 7.8.3 2.6.9 4.9 1.3 5 .3.2 4.2-.9 8.6-2.4 6.8-2.3 7.5-2.8 4.6-2.8-4.8-.1-11.2-3.5-13.9-7.3l-2.4-3.3.6 3z"/></g><path d="M157.5 628c0 39.9.1 56.2.2 36.2.2-19.9.2-52.5 0-72.5-.1-19.9-.2-3.6-.2 36.3z" fill="#CCCCB2" stroke="#CCCCB2" stroke-width="3"/><path d="M162.4 506c0 15.1.2 21.3.3 13.7.2-7.5.2-19.9 0-27.5-.1-7.5-.3-1.3-.3 13.8zm0 139.5c0 15.9.2 22.3.3 14.2.2-8.2.2-21.2 0-29-.1-7.8-.3-1.2-.3 14.8z" stroke-width="3" fill="#7F7F00" stroke="#7F7F00"/><path d="M163.4 506c0 15.1.2 21.3.3 13.7.2-7.5.2-19.9 0-27.5-.1-7.5-.3-1.3-.3 13.8zm0 140c0 15.7.2 22.1.3 14.2.2-7.8.2-20.6 0-28.5-.1-7.8-.3-1.4-.3 14.3z" stroke-width="3" fill="#B27F00" stroke="#B27F00"/><g fill="#FF7F00" stroke="#FF7F00" stroke-width="3"><path d="M503.9 161.8c-4.6 3-7.8 6.7-14.3 16.7-2.1 3.3-5.9 8.7-8.4 12l-4.5 5.9 2.3 4.1c7.2 12.5 22 28.2 29.2 31 4.7 1.7 4.8 1.7 9.5-.6 3.4-1.7 6.3-4.4 10-9.4 4.9-6.4 15.3-25.9 15.3-28.5 0-1.6-13.4-19.6-18.9-25.3-4.8-5-10.6-8.7-13.9-8.7-1 0-3.8 1.3-6.3 2.8zm-129.4 32c-.6.4-2.6 2.9-4.5 5.5s-4.6 6.3-6 8.1c-1.4 1.8-3.6 4.8-5 6.6-1.4 1.8-3.6 4.8-5 6.6-1.4 1.8-4.1 5.5-6 8.1-4.3 6-5.6 7.3-6.8 7.3-1 0-10.4-5-11.2-6-.3-.3-2-1.2-3.8-2-1.9-.7-3.9-1.8-4.5-2.5-.7-.6-2.5-1.8-4.2-2.7-1.6-.8-7.5-4.1-12.9-7.1-5.5-3.1-10.3-5.4-10.7-5.2-.3.3-1.2 2.6-1.9 5.2-.6 2.7-1.8 6.1-2.5 7.8-.7 1.6-2.1 5.5-3 8.5-1 3-2.1 5.9-2.5 6.5-.4.5-1.3 3.1-2 5.7-.7 2.7-1.8 4.8-2.4 4.8-1.9 0-12-3.1-13.1-4-.5-.4-3.6-1.6-6.7-2.5-3.2-.9-7-2.3-8.6-3.1-1.6-.7-4.2-1.7-5.9-2-2.9-.6-3-.5-5.6 6.8-1.4 4-4.3 12.5-6.3 18.8-2.1 6.3-4.1 12-4.6 12.6-.5.7-6.4.9-18.7.6l-17.9-.5-.7 8.9c-.8 10.8-2.4 25.1-3.1 28.1-.5 1.8-1.7 2.4-6.2 3.3-3.2.6-8.2 1.8-11.2 2.6s-9.2 2.2-13.7 3.1c-8.2 1.7-8.3 1.7-8.3 4.8 0 1.7.4 3.5.9 4 .4.6 1.6 5.9 2.5 12 .9 6 2.1 11.9 2.6 13 .6 1.1 1.4 4.6 1.8 7.8 1 6.4.7 6.7-5.3 8.1-3.5.8-19.8 5.8-20.4 6.2-.6.5 2 6.7 13.5 31.7l1.7 3.9-13.2 13.2-13.1 13.2 10.7 8.7c6 4.7 12 9.6 13.6 10.9 3.1 2.5 3.4 4.5 1.2 7.3-.8 1.1-2.9 4.2-4.7 7-1.7 2.7-4.6 7.2-6.3 10-1.8 2.7-4.7 7.4-6.4 10.3-3 5.2-3.1 5.4-1.4 7.7 1 1.2 2.5 3.3 3.3 4.5.8 1.3 3.1 4.4 5 7.1 1.9 2.6 4.2 5.7 5 6.9 2.2 3.2 8.9 12.3 9.8 13.5.5.6 1.7 2.4 2.8 4 4.5 7.2 4.4 8.3 4.4-38.4 0-40.6.2-45.6 2.5-64.8 3.4-28.6 7.8-48.4 15-67.6 2.7-7.3 11.3-25 14.3-29.5 1-1.5 3.4-5 5.2-7.7 7.9-11.8 21.3-26.7 33.5-37 23.5-20 59.5-35.1 101.1-42.5 20.3-3.6 22.7-4 28.1-4 4.8 0 5.5-.3 9-4.1 8.1-8.7 20.2-14.3 30.9-14.2 6.5 0 16.9 3.2 21.7 6.5 3.4 2.5 6.6 2 13-1.9 5.2-3.1 5.6-3.9 2.7-4.8-1.1-.3-2.6-1.2-3.2-1.9-.7-.7-4.7-3.1-8.8-5.5-10.9-6.2-15.4-8.8-16.5-9.8-.5-.4-2.1-1.4-3.5-2-1.4-.7-5.4-3.1-9-5.3-3.6-2.2-7.6-4.5-9-5.2-1.4-.7-3.6-2-4.9-3-2.6-2-3.1-2.1-4.6-1z"/><path d="M284.5 268.9c-2.7 1-7.1 2.6-9.7 3.5-11.6 4.3-32.8 16.6-32.8 19.1 0 .7 2.8 3.6 6.3 6.3 12.7 10.1 23.5 15.4 34.7 17.3 8.1 1.3 13.1.4 16.1-2.8 2.1-2.2 2.4-3.4 2.3-10.6-.1-5.7-.8-10.2-2.3-14.5-2.8-8.1-8.2-20.2-9-20.2-.3.1-2.8.9-5.6 1.9zm-95.8 83.4c-7.7 15.5-16.6 40.9-15.4 44.2 1.1 2.7 26.5 5.8 37.3 4.5 6.8-.8 8.9-1.7 12.3-5.4 2.1-2.3 2.3-3.2 1.8-8.8-1-12-10.6-25.8-28.8-41.6l-2.5-2.2-4.7 9.3zM164 506c0 14.8.2 27 .5 27 3.6 0 25.8-4.8 31.5-6.8 13.1-4.5 18.2-9.4 16.5-15.9-1.3-5.5-16.7-18.3-29-24.3-4.9-2.4-17.3-7-18.7-7-.5 0-.8 12.1-.8 27zm0 140c0 15.4.1 28 .3 28 1.7 0 19.3-7.1 27.2-11 11.9-5.8 18.3-11.1 19.2-15.8.5-3.2.2-3.8-5.6-9.2-5.7-5.4-24.1-16-27.6-16-.7 0-3.2-.9-5.6-2-8.4-3.8-7.9-5.6-7.9 26zm12.5 113.7c-2.7.2-5.3.7-5.7 1.1-.9.9 2.1 14 5.6 24.2 4.6 13.5 12 30 13.4 30 .7 0 9.2-5.3 17.8-11.1 6.1-4.1 16.1-14.4 18.4-18.8 7.1-14-6.8-23.8-36-25.4-4.7-.2-10.7-.2-13.5 0zM536 794.9c-7.8 2.4-12 7.6-12 14.9.1 6.9 5.3 23.7 7.1 22.6.8-.4 4.4-5.8 9.4-13.9 3.8-6.1 12.3-23.4 11.7-23.9-.8-.9-13.3-.6-16.2.3zm-245.5 60c-7.9 3.7-20.1 13.6-27.6 22.3-3.3 3.9-5.9 7.2-5.7 7.4.2.2 3.8 2.2 7.8 4.4 10.8 5.9 27 12.5 39.7 16l6.2 1.7 1.5-5.1c4.1-14.1 4.9-36.1 1.7-43.3-2.4-5.2-4.5-6.3-11.8-6.3-4.2.1-7.4.8-11.8 2.9zm144.8 6.6c-9.4 4.1-18.7 20.2-22.8 39.8-2.2 10.2-2.6 9.7 6.2 8 11.4-2.2 29.3-8.3 41.6-14.4 5.7-2.8 5.7-2.8-.3-15.2-4.5-9.5-10-16.4-14.7-18.3-4-1.7-5.9-1.7-10 .1z"/></g><path d="M157.5 503c0 22.8.1 32.2.2 20.7.2-11.4.2-30 0-41.5-.1-11.4-.2-2-.2 20.8z" fill="#CC7F00" stroke="#CC7F00" stroke-width="3"/><path d="M349.3 1117c0 4.7.2 6.6.4 4.2.2-2.3.2-6.1 0-8.5-.2-2.3-.4-.4-.4 4.3z" fill="#FFE5E5" stroke="#FFE5E5" stroke-width="3"/><path d="M371.5 189.2c-1 1.7-2.4 3.8-3.2 4.7-5.2 6.1-6.3 7.5-6.3 8 0 .3-1.4 2.2-3 4.1-1.6 1.9-3 3.8-3 4.1 0 .3-1.1 1.9-2.5 3.5-4.6 5.4-5 5.9-6.9 8.9-1.1 1.6-3 4-4.2 5.4l-2.2 2.4-8.9-4.8c-4.8-2.7-9-5.2-9.3-5.6-.3-.4-2.4-1.5-4.8-2.4-2.3-1-4.2-2.1-4.2-2.5 0-.5-1.6-1.4-3.5-2-1.9-.6-3.8-1.7-4.2-2.4-.5-.7-2.4-1.8-4.3-2.6-1.9-.7-4-1.8-4.5-2.5-.6-.7-2-1.5-3.3-1.9-1.7-.6-2.2-.3-2.2 1.1 0 1-.7 3.1-1.5 4.7s-2.3 5.4-3.1 8.5c-.9 3.1-2 5.8-2.4 6.1-.4.3-1.2 2.7-1.9 5.4-1.8 7.3-4.9 13.6-6.7 13.6-.9 0-4.9-1.4-9.1-3-4.1-1.7-8-3-8.6-3-.6 0-2.9-.8-5.1-1.9-12.8-5.9-14.1-5.7-16.2 3.4-1 4.1-2.1 7.5-2.5 7.5-.4 0-1.5 3.3-2.4 7.2-1 4-2.1 7.5-2.4 7.8-.4.3-1.3 2.7-2.2 5.5l-1.5 5h-37.9l-1.3 18.5c-1.5 21.3-1.5 21.3-10.6 22.5-3.1.3-5.8 1-6 1.4-.3.4-5.3 1.6-11.1 2.7-5.8 1-10.5 2.2-10.5 2.6 0 .4-1.1.8-2.5.8-2.7 0-3.4 2.5-1.5 5.8.6.9 1.9 6.4 3 12.2 1.1 5.8 2.7 14 3.5 18.3.9 4.3 1.4 8.5 1.1 9.2-.3.8-2.5 1.7-5 2-2.5.4-4.6 1.1-4.6 1.5 0 .4-3.6 1.5-7.9 2.4-9.4 2-10.7 3.2-8.7 7.2 2.2 4.4 6.3 13.5 7.7 17.4.7 1.9 1.6 3.7 2 4 .8.6 4.9 10.9 4.9 12.4 0 .5-6.1 6.9-13.5 14.4-7.4 7.4-13.5 13.6-13.5 13.6 0 .1 2.4 2 5.2 4.1 2.9 2.2 5.5 4.2 5.8 4.5.3.3 3 2.5 6 4.8 8.3 6.4 11 9 11 10.7 0 .8-.4 1.5-.9 1.5s-1.4 1.4-2.1 3c-.7 1.7-1.8 3.4-2.4 3.8-.6.4-2 2.6-3 4.9-1.1 2.4-2.3 4.3-2.8 4.3-.4 0-1.5 1.8-2.4 4-.9 2.2-2 4-2.4 4-.4 0-1.5 1.6-2.4 3.5-.9 1.9-2.1 3.5-2.6 3.5-.6 0-1 .4-1 .9 0 1.2 5.2 9.1 6 9.1.3 0 1.4 1.7 2.5 3.7 1.1 2.1 2.8 4.4 3.7 5.1 1 .7 1.8 1.9 1.8 2.7 0 .8.6 1.8 1.3 2.2.7.4 2.1 2.1 3.1 3.8 1.1 1.6 2.8 3.8 3.8 4.9 1 1.1 1.8 2.3 1.8 2.7 0 .4.6 1.4 1.3 2.1.7.7 2.8 3.5 4.7 6.3 5.8 8.3 8 10.8 8 9.1 0-1.5-6.1-11.3-7.8-12.6-.4-.3-2.5-3.2-4.7-6.4-2.2-3.3-4.5-6.4-5-7-.6-.6-2-2.5-3.1-4.1-1-1.7-2.2-3.5-2.6-4-.5-.6-2.6-3.5-4.7-6.5-2.2-3-4.5-6-5.1-6.7-1.5-1.8-1.2-5.9.5-7.3.8-.7 1.5-1.7 1.5-2.1 0-.8 5-8.7 7.7-12.4.5-.6 1.7-2.7 2.8-4.8 1.1-2 2.2-3.7 2.6-3.7.4 0 1.2-1.4 1.9-3.1.7-1.7 2-3.7 2.8-4.5 1.2-1.3 1.1-1.7-1.1-3.4-13.1-10.3-25.3-20.3-25.5-20.9-.1-.4 5.6-6.7 12.8-13.9 14.8-14.9 14-12.7 8.3-25.2-1.9-4.1-4.4-9.5-5.4-12-1.1-2.5-2.7-5.9-3.6-7.7-1.8-3.7-1.2-6.3 1.5-6.3 1 0 2.2-.4 2.8-.9.5-.5 4.3-1.6 8.4-2.6 4.1-1 7.9-2.1 8.5-2.6.5-.5 1.7-.9 2.7-.9 1.3 0 1.8-.8 1.8-2.8 0-1.5-.4-3.2-.9-3.8-.4-.5-1.6-5.9-2.5-11.9-.9-6.1-2-11.7-2.3-12.5-1.6-3.7-3-13.6-2.2-14.6.5-.7 3.1-1.5 5.7-1.9 2.6-.4 5.2-1 5.7-1.5.6-.4 5.5-1.6 11-2.5 5.5-1 10.5-2.1 11-2.5.6-.4 2.2-1 3.6-1.4 2.6-.6 2.7-.6 3.4-13.3.4-7.1 1.1-13.3 1.5-13.8.5-.6 1-3.5 1.2-6.5l.3-5.5 12.5.1c6.9.1 15.1.5 18.3.9 4.5.6 5.7.5 5.7-.6 0-.8.7-2.7 1.5-4.3.8-1.6 2.2-5.6 3.1-9 .9-3.3 1.9-6.6 2.4-7.1.5-.6 1.5-3.7 2.4-7 .8-3.4 2.3-7.5 3.1-9.3 1.6-3.2 3.5-5.1 3.5-3.5 0 .5 2.1 1.5 4.7 2.1 2.6.7 6.1 1.9 7.8 2.7 1.6.7 4.8 1.9 7 2.5 2.2.7 5.8 2 8 3 8.5 3.8 8.1 3.9 10.5-4.2 1.2-4 2.5-7.8 2.9-8.3.4-.6 1.6-3.7 2.6-7s2.1-6.5 2.5-7c.4-.6 1.3-3.1 2-5.8.9-3.4 1.8-4.7 3.1-4.7 1 0 2 .4 2.3.9.5.8 21.6 12.9 31.9 18.3 1.7.9 3.7 2.2 4.4 2.7.7.6 2.8 1.8 4.7 2.8 3.5 1.6 3.6 1.6 5.8-.9 1.3-1.5 4.8-6.1 7.8-10.2 3-4.2 6.4-8.8 7.5-10.1 5-6.1 13.5-17.9 13.5-18.7 0-1.9 8.1-.2 10 2.1.3.3 2.3 1.5 4.5 2.6s4.2 2.3 4.5 2.6c.3.3 2.3 1.6 4.5 2.8 2.2 1.1 5.8 3.2 8 4.6 2.2 1.3 6 3.6 8.5 5s6.3 3.7 8.5 5c2.2 1.4 5.8 3.5 8 4.6 2.2 1.2 4.2 2.4 4.5 2.8 1.3 1.5 4.8 2.8 5.9 2.2.9-.6.1-1.5-2.4-3-2-1.1-4-2.1-4.6-2.1-.5 0-.9-.4-.9-.8 0-.5-1.9-1.7-4.2-2.8-2.4-1-5.2-2.7-6.2-3.6-1.1-1-2.5-1.8-3.2-1.8-.7 0-1.9-.7-2.8-1.5-.8-.9-3.1-2.2-5.1-3-1.9-.9-3.5-1.9-3.5-2.4 0-.4-2-1.6-4.5-2.7-2.5-1-4.5-2.1-4.5-2.5 0-.4-1.4-1.2-3.1-1.9-1.7-.7-3.6-1.8-4.2-2.4-.7-.7-3-2-5.2-3-2.2-1.1-4.4-2.4-5-3.1-.5-.6-2.2-1.6-3.6-2.2-2.3-1-2.8-.8-4.4 1.9z" fill="#E54C00" stroke="#E54C00" stroke-width="3"/><path d="M372 191.9c0 .4-1.4 2.6-3.1 4.7-3.3 4.2-5.3 7.4-4.5 7.4.6 0 9.6-11.6 9.6-12.4 0-.3-.4-.6-1-.6-.5 0-1 .4-1 .9zm11 3.5c0 .2 7.1 4.5 15.8 9.6 8.6 5.1 18.9 11.2 22.7 13.5 9.7 5.8 11.5 6.7 11.5 5.7 0-.4-1.9-1.8-4.2-3-2.4-1.2-6.1-3.3-8.3-4.7-2.2-1.3-6-3.6-8.5-5s-6.3-3.7-8.5-5c-2.2-1.4-5.8-3.5-8-4.6-2.2-1.2-4.2-2.4-4.5-2.8-1.3-1.6-8-4.7-8-3.7zm-22.1 11.8c-.6 1.3-1.9 3.1-2.8 4-.9.9-4.1 5.1-7.1 9.3-3 4.2-6.5 8.8-7.8 10.3-2.2 2.5-2.3 2.5-5.8.9-1.9-1-4-2.2-4.7-2.8-.7-.5-2.7-1.8-4.4-2.7-10.3-5.4-31.4-17.5-31.9-18.3-1.4-2.4-4.1-.7-5.3 3.2-1.5 5.1-.7 6.4.9 1.5.6-2 1.7-3.6 2.3-3.6 1.1 0 9.8 4.9 39.4 21.9 4 2.2 7.4 4.1 7.7 4.1.2 0 4.1-5.1 8.7-11.2 4.6-6.2 9.7-13 11.2-15 1.6-2.1 2.4-3.8 1.8-3.8-.6 0-1.6 1-2.2 2.2zm-72.2 10.5c-.2.4-1.2 3.5-2.2 6.8-1 3.3-2.2 6.4-2.6 7-.4.5-1.7 4.3-2.9 8.3-1.9 6.7-2.3 7.2-4.3 6.6-4.6-1.4-5.1-1.4-1.8.1 2.1 1 3.7 1.3 4.3.7 1.2-1.2 11-29.3 10.4-29.9-.2-.2-.6-.1-.9.4zM248 236.9c6.5 2.6 9.7 3.5 8.5 2.3-1.1-1-10.2-4.2-11.9-4.1-.6 0 .9.8 3.4 1.8zm14 5c6.5 2.6 9.7 3.5 8.5 2.3-1.1-1-10.2-4.2-11.9-4.1-.6 0 .9.8 3.4 1.8zm-71.3 31.8c-.4.3-.7 1.8-.6 3.2l.1 2.6.7-2.5.7-2.5 13.5.3c8.8.1 12.7-.1 11.4-.7-2.3-1.1-24.8-1.4-25.8-.4zm-2 12c-.3.4-.8 6.6-1.2 13.6l-.7 12.8-2.9.6c-1.6.3-3.2 1-3.5 1.5-.7 1.1 5.6.1 6.8-1.1.7-.7 3-27.2 2.4-27.8-.2-.3-.6-.1-.9.4zM165 317.2c-5.8 1.2-7.4 1.7-6.8 2.3.5.6 14.9-2.2 15.7-3 .7-.7-3.9-.4-8.9.7zm-14.2 3.5c-4.2.6-4.7 2.1-3.4 9 .6 3.4 1.5 6.5 1.9 7 .5.4.5-1 .1-3.2-.5-2.2-.9-5.5-.9-7.4 0-3.3.3-3.6 4.5-4.7 4.4-1.2 3.3-1.5-2.2-.7zm.3 24.1c-.2 2.7 2.2 15.7 3.1 16.7.7.6.8-.4.4-3-1-5.8-3.4-15.2-3.5-13.7zm-10.8 27c-6.6 1.8-10.1 3.9-4.4 2.7 4.5-1 14-4.4 12.1-4.3-.8 0-4.3.7-7.7 1.6zm-9.3 12.7c0 .4 1.1 3.1 2.4 5.9 1.3 2.8 3.1 6.9 4 9 .9 2.2 1.8 3.7 2.1 3.4.3-.2-1.3-4.4-3.4-9.2-3.7-8.4-5.1-10.9-5.1-9.1zm9 19.6c0 .4.7 2.3 1.5 4.2.8 2 1.5 3.9 1.5 4.2 0 .3-5.9 6.5-13 13.7-7.2 7.2-12.9 13.5-12.8 13.9.2.6 12.4 10.6 25.7 21 1.5 1.3 2.1 2.3 1.5 2.7-.6.4-1.9 2.3-2.9 4.2-1 1.9-2.1 3.7-2.4 4-1.4 1.1-4.2 6.2-3.8 6.7.3.3 1.7-1.4 3.1-3.6 1.4-2.3 3.7-5.9 5.1-8.1 1.4-2.2 2.5-4.2 2.5-4.4 0-.2-6.1-5.3-13.5-11.2-7.4-5.9-13.5-11.2-13.5-11.8 0-.6 5.6-6.7 12.5-13.6 6.9-6.9 12.5-13.2 12.5-14-.1-1.5-3.9-9.1-4-7.9zm-7 76.8c0 .5-1.6 3.2-3.5 6s-3.5 5.5-3.5 6c0 .4-.7 1.4-1.5 2.1-1.7 1.4-2 5.5-.5 7.3.6.7 2.9 3.7 5.1 6.7 2.1 3 4.2 5.9 4.7 6.5.4.5 1.6 2.3 2.6 4 1.1 1.6 2.5 3.5 3.1 4.1.5.6 2.8 3.7 5 7 2.2 3.2 4.5 6.3 5.1 6.9.5.5 2.3 2.9 3.9 5.3 1.5 2.3 3 4 3.3 3.7.3-.2 0-1-.5-1.7-7.6-9.9-32.3-44.9-32.3-45.9s3.5-6.9 9.8-16.7c.9-1.4 1-2.2.3-2.2-.6 0-1.1.4-1.1.9z" stroke-width="3" fill="#E56600" stroke="#E56600"/><g fill="#F60" stroke="#F60" stroke-width="3"><path d="M358.1 213c-9 12.1-16.6 22-16.8 22-.2 0-2.8-1.4-5.8-3.1-3-1.7-5.5-2.7-5.5-2.2 0 .8 9.8 6.3 11.3 6.3 1.1 0 2.5-1.5 6.7-7.3 1.9-2.6 4.6-6.3 6-8.1 6.3-8.3 7.7-10.1 10-13.2 1.4-1.8 4.1-5.5 6-8.3 4.3-6.1 5.6-6.7 9.2-4.1 1.5 1.1 3.1 2 3.5 2 .4 0 2.3 1 4.2 2.3 7.9 5.2 16.3 9.9 16.7 9.4.4-.4-27.9-17.8-28.8-17.7-.2 0-7.7 9.9-16.7 22zm-65.6-2.3c-1.4 3.7-9.5 27.6-9.5 28.1 0 1.9 2-2.1 3.5-6.8.9-3 2.3-6.9 3-8.5.7-1.7 1.9-5.1 2.5-7.8.7-2.6 1.6-4.9 1.9-5.2.4-.2 5.2 2.1 10.7 5.2 5.4 3 11.3 6.2 12.9 7.1 1.7.8 3.2 1.9 3.5 2.2.8 1.2 7.1 4.2 7.6 3.7.6-.6-1.5-1.9-19.6-12.1-7.5-4.2-14.1-7.6-14.7-7.6-.6 0-1.4.8-1.8 1.7zm112.5-.9c0 .4 1.9 1.8 4.3 3 5.9 3.2 19 10.9 20.3 12 2 1.8 7.4 4.3 7.4 3.4 0-.5-1.9-1.9-4.2-3.2-2.4-1.3-8.6-4.9-13.8-8-12.5-7.5-14-8.2-14-7.2zm-170.3 44.9-6.6 19.8h-17.9c-9.9 0-18.3.3-18.7.7-.6.6-3.4 28.1-3.5 34.7-.1 8.7 2.1-7.7 3.6-25.8l.6-8.4 17.9.5c12.3.3 18.2.1 18.7-.6.5-.6 2.5-6.3 4.6-12.6 2-6.3 4.9-14.8 6.3-18.8 2.6-7.3 2.7-7.4 5.6-6.8 1.7.3 4.3 1.3 5.9 2 1.6.8 5.4 2.2 8.6 3.1 3.1.9 6.2 2.1 6.7 2.5 1.1.9 11.2 4 13 4 .7 0 1.7-1.8 2.4-4.1 1.5-5.1.7-6.4-.9-1.5-.6 2-1.5 3.8-1.9 4.1-.5.2-8.8-2.5-18.6-6-9.9-3.6-18.2-6.5-18.6-6.5-.3 0-3.6 8.9-7.2 19.7z"/><path d="M179.2 315.3c-4.6 1-8.1 2.1-7.9 2.4.6.5 15.8-2.4 16.5-3.2 1.2-1.2-.9-1-8.6.8zm-21.7 5-9 2.2-.1 3.5c-.2 3.2-.1 3.2.3.4.4-3 .7-3.1 7.6-4.4 7.7-1.4 15.6-3.9 12.2-3.9-1.1 0-6 1-11 2.2zm-8.5 10.2c0 2.3 3.3 17.5 3.7 17.1.7-.7-1.9-16-2.8-17.1-.6-.6-.9-.6-.9 0zm5.3 26.5c.3 1.4.8 4.5 1.2 7l.7 4.5-10.9 3.2c-5.9 1.8-12 3.5-13.5 3.9-3.4.8-3.4 1-.4 7.6 8 17.6 12.6 28.3 12.6 29.2 0 .6-5.6 6.7-12.5 13.6-6.9 6.9-12.5 13-12.5 13.6 0 .6 6.1 5.9 13.5 11.8s13.5 10.9 13.5 11.2c0 .4-5.8 9.8-15.5 24.9-3.6 5.5-6.5 10.6-6.5 11.3 0 .8 7 11.1 15.7 23 17.4 24.2 17.3 24.1 17.3 22.5 0-.6-.6-1.8-1.3-2.5-.7-.7-2.1-2.6-3.1-4.3-1.1-1.6-2.3-3.4-2.8-4-.9-1.2-7.6-10.3-9.8-13.5-.8-1.2-3.1-4.3-5-6.9-1.9-2.7-4.2-5.8-5-7.1-.8-1.2-2.3-3.3-3.3-4.5-1.7-2.3-1.6-2.5 1.4-7.7 1.7-2.9 4.6-7.6 6.4-10.3 1.7-2.8 4.6-7.3 6.3-10 1.8-2.8 3.9-5.9 4.7-7 2.2-2.8 1.9-4.8-1.2-7.3-1.6-1.3-7.6-6.2-13.6-10.9l-10.7-8.7 13.1-13.2 13.2-13.2-1.7-3.9c-11.5-25-14.1-31.2-13.5-31.7.6-.4 16.9-5.4 20.4-6.2 6.1-1.4 6.3-1.7 5.3-8.6-.6-3.5-1.4-6.8-2-7.3-.7-.7-.9-.2-.5 1.5z"/></g><path d="M163.5 575.5c0 23.1.1 32.4.2 20.7.2-11.7.2-30.6 0-42-.1-11.4-.2-1.8-.2 21.3zm-.1 111c0 6.6.1 9.2.3 5.7.2-3.4.2-8.8 0-12-.2-3.1-.3-.3-.3 6.3z" stroke-width="3" fill="#7F9900" stroke="#7F9900"/><path d="M480 205.6c0 1.1 6 8.8 10.9 14.1 5.4 5.8 4.4 4.4-4.3-6.5-3.6-4.5-6.6-7.9-6.6-7.6zm-239.4 87.7c.3.8 2.2 2.8 4.2 4.4 8.4 6.7 13.4 10.3 14.4 10.3.6 0-.8-1.3-3.1-2.8-2.3-1.6-6.9-5.2-10.1-8.1-3.3-2.8-5.7-4.6-5.4-3.8zm-28 67.2c4.6 5.3 6.3 6.8 4.8 4.2-1.8-2.9-7.7-9.7-8.6-9.7-.5 0 1.2 2.5 3.8 5.5zm-18.1 130.1c.6.6 4 3.4 7.8 6.4 3.7 2.9 6.7 5.7 6.7 6.1 0 .4.7.9 1.4 1.2 2.8 1.1.5-1.8-5.2-6.4-5.4-4.3-12.9-9.4-10.7-7.3zM207 654c-2.5 2.5-5.6 5.4-7 6.3l-2.5 1.8 2.5-1.2c3.7-1.7 9.9-6.8 11.1-9.1 1.7-3.1.7-2.6-4.1 2.2zm-31.3 103.7c-.3.5 4.1.8 9.8.8 5.7.1 10.1-.3 9.9-.7-.6-1-19.1-1.1-19.7-.1zm46.5 9.3c5.3 3.5 7.3 7.4 6.5 13-.3 2.3-.1 3.8.4 3.4.5-.3.9-2.6.9-5.1 0-5.2-2.3-9.1-7.4-12.2-5.2-3.2-5.5-2.5-.4.9zm-2 27c-3.5 3.9-6 7-5.6 7 1 0 12.4-12.1 12.4-13.2 0-1.3-.1-1.2-6.8 6.2zm315.4-1.2c-.2.4 3 .6 7.2.4 11.7-.4 12.7-.9 2.5-1.1-5 0-9.4.2-9.7.7zm-337.1 18.3c-8.5 5.6-10.6 7.5-5.4 4.6 4.6-2.4 13.7-8.5 14.3-9.6 1-1.5 1.1-1.6-8.9 5zm68.9 58.1c-3.1 2.9-6 6.2-6.6 7.3-.6 1.1 2.2-1.1 6.1-5 3.9-3.8 7.1-7.1 7.1-7.2 0-1-1.8.3-6.6 4.9zm185.8-3.5c1.1 2.6 7.1 11.3 7.5 11 .5-.6-6.5-11.7-7.3-11.7-.3 0-.4.3-.2.7z" stroke-width="3" fill="#9C0" stroke="#9C0"/><path d="M445.4 316.5c0 6 .1 8.4.3 5.2.2-3.2.2-8.1 0-11-.2-2.9-.3-.3-.3 5.8zM314 600.8l.5 8.7.3-7.9c.2-4.4-.1-8.3-.5-8.7-.4-.4-.6 3.1-.3 7.9zm1.4 40.7c0 7.1.1 9.9.3 6.2.2-3.7.2-9.6 0-13-.2-3.4-.3-.4-.3 6.8z" stroke-width="3" fill="#690" stroke="#690"/><g fill="#7FCC00" stroke="#7FCC00" stroke-width="3"><path d="M544 196.4c0 .9-.4 1.6-.8 1.6s-1.4 2-2.1 4.6c-.7 2.5-1.9 5-2.5 5.7-.7.7-2 3-3 5.2-1.1 2.2-2.5 4.4-3.2 4.8-.8.4-1.4 1.4-1.4 2.2 0 .8-.9 2-2 2.7-1.1.7-2 1.8-2 2.5 0 2.6-10.6 9.3-14.6 9.3-3.8 0-11.5-5.1-18.4-12.1-7.9-8.2-14-15.8-14-17.7 0-.6-.6-1.5-1.4-1.9-.8-.5-1.9-1.9-2.4-3.2-.8-2.3-1-2.2-4.4 2.7-8.2 11.4-28.7 30.9-37.3 35.5-6.3 3.4-6.3 3 .2 10.2 7.4 8 15.4 19.8 21.6 32.1 5.1 9.8 5.3 10.6 3.4 12.3-2.1 1.7-4.1-.4-8.3-8.9-11.6-23.1-27.8-41.4-42.1-47.4-9.3-3.9-17.7-3.7-26.8.8-8.9 4.3-14.7 10.1-17.6 17.8-1.9 5.1-2.1 7.1-1.6 15.1.4 5.7 1.5 11.9 3 16.2l2.4 7 2.1-4.1c7.6-14.8 21.5-22.8 39.7-22.8 7.5.1 9.9.5 14.5 2.6 5.7 2.7 11.2 7.8 14.7 13.8 5.3 9 8.1 28.8 6.5 45.5-1.6 15.2-4.4 29.5-5.8 29.5-.8 0-4.3-1.1-7.8-2.4-8.9-3.4-25.3-6-33.5-5.3-3.6.2-9.9 1.2-14 2.2-9.2 2.1-13.8 6.4-18.7 17.2-7.8 17.2-8.1 39.3-.7 55.2 4.5 9.7 12.5 18.7 22 24.8 5.6 3.5 20.3 10.3 22.5 10.3.7 0 2.6.7 4.2 1.5 5 2.6 46.3 19 56.6 22.5 23 7.7 40.7 9.7 58 6.6 7.6-1.4 18.9-5 33.5-10.6 15.7-6.1 40.2-14.7 50.7-17.9 23.2-7 36.7-15.1 45.6-27.4 12.3-16.9 14.8-42 6.2-62.8-5.4-13-10.1-16.9-23.7-19.5-14.5-2.7-30.5-1.3-45.4 4.1-4 1.4-7.3 2.4-7.5 2.3-.1-.2-1.2-4.9-2.4-10.6-2.5-12.7-3.6-35-2.1-45.4 4-28.4 22.5-41.1 49-33.8 11.2 3.1 19.5 9.6 24.8 19.3 1.7 3 3 4.4 3.6 3.8 1.3-1.3 5.6-19.8 5.7-24.1 0-4.3-2.1-12.5-4.3-16.5-3.8-6.9-10-11.8-19.4-15.1-8.3-2.9-11.3-3-19.5-.4-16.2 5-30.9 20.5-45.3 48-3.8 7.2-5.5 9.5-7 9.5-3.5 0-2.9-4 2-13.2 6.6-12.5 14.3-23.8 21.9-31.9l6.5-7.1-5.7-1.7c-15.5-4.8-29.2-15.7-43.5-34.7-6.7-9-8.7-10.9-8.7-8.5zm-49.5 182.1c5.1 5 2.3 18.6-3.8 18.5-2.7-.1-5.1-1.9-8.3-6.1-4.9-6.7-1.7-14.9 5.7-14.9 2.9 0 4.7.7 6.4 2.5zm46.8-.7c3.3 3.7 3.7 6.7 1.4 11-4.8 8.8-11.4 10.5-14.3 3.7-1.8-4.4-1.8-8.8.1-12.5 1.7-3.3 2.7-3.8 7.6-3.9 2.2-.1 4.2.6 5.2 1.7zm-140.9 24.8c2.4.9 2 5.1-.5 5.7-2.1.6-2.1.7 1 4.6 5.2 6.5 15.3 14.2 24.1 18.4 13 6.2 28.4 6.2 46 .2 5.8-2 13.4-4.5 17-5.6 3.6-1.1 7.9-2.4 9.7-3 5.8-1.8 20.7-3 29.3-2.4 9.4.8 14.1 2.1 24.5 7 16.3 7.7 25.7 10.5 35.5 10.5 14.1 0 28.5-7.3 38.2-19.5 3.9-4.9 4-5 1.6-5.5-1.6-.4-2.3-1.3-2.3-3 0-5.3 9.4-2.7 13.6 3.7 2.3 3.4 2.5 8.9.4 9.7-2.4.9-4.5-.4-4.5-2.9 0-2-1.5-.9-8.7 6.4-13.5 13.4-24.4 17.8-41.8 16.9-10.4-.6-16.5-2.5-34.5-10.6-12.3-5.5-12.7-5.6-23.6-6-14.3-.6-25.5 1-37.9 5.3-22.5 7.9-30.1 9.7-40.9 9.7-11.2 0-18.4-1.9-28.6-7.5-6.5-3.6-16.2-11.4-20.8-16.8-3.7-4.3-5.2-4.9-5.2-2 0 2.5-1.4 3.4-4 2.6-4.7-1.5-1.2-11.2 5.2-14.7 3.6-1.9 4.9-2.1 7.2-1.2z"/><path d="M342.5 254.5c-17.4 2.9-43 8.6-48.6 11-1.7.6-1.5 4.5.1 4.5.5 0 1.6 2.4 2.6 5.2.9 2.9 2 5.5 2.4 5.8 1 .7 4 13.1 4 16.6 0 1.7.5 3.5 1.2 4.2.9.9.9 1.5 0 2.4-.7.7-1.2 2.3-1.2 3.5 0 4.5-2.7 8.2-6.6 8.9-6 1.1-19.5-.2-24.4-2.3-2.5-1.1-6-2.6-7.7-3.3-1.8-.7-3.3-1.6-3.3-2.1s-.6-.9-1.4-.9c-1.7 0-12.6-8.1-17.3-12.8L239 292l-9.2 7.8c-10.7 9-22.4 22.1-30.2 33.7l-5.3 7.9 3.6 2.9c5.3 4.1 18.9 18.6 19.6 20.8.4 1 1 1.9 1.4 1.9.4 0 1.6 1.9 2.7 4.2 1 2.4 2.1 4.5 2.5 4.8 1.4 1.2 3.1 11.5 2.5 15.8-1.2 9.2-8.4 11.8-29 10.9-7.2-.4-15.8-1.2-19.2-2l-6.1-1.3-1.2 4.6c-2.4 8.9-6.2 40.8-6.8 56.6l-.6 16.2 3.4.7c1.9.4 3.9 1.1 4.4 1.5.6.5 3.6 1.6 6.8 2.5 3.1.9 5.7 2 5.7 2.4 0 .4 1.5 1.2 3.3 1.9 1.8.6 4.1 1.8 5.2 2.7 1.1.8 4.3 3.2 7.1 5.2 8.2 6.1 10.8 8.6 13.2 12.6 2.1 3.7 3.1 10.7 1.4 10.7-.5 0-1.4 1.1-2 2.5-.6 1.4-1.8 2.5-2.6 2.5-.7 0-1.9.7-2.6 1.4-.6.8-3.5 2.2-6.3 3.1-2.9.9-5.9 2-6.8 2.5-2.3 1.2-17.3 4-21.5 4-1.9 0-3.4.4-3.4 1 0 .5-1.1 1-2.5 1H164v81l4 .6c2.2.4 4 .9 4 1.3s2.1 1.3 4.8 2.1c5.6 1.6 23.2 10.5 24.8 12.6.6.8 1.5 1.4 2 1.4 1.6 0 8.4 7.6 8.5 9.6.6 5.8-.2 7.9-4.6 11.9-4.7 4.4-21.7 13.4-29.5 15.6-2.5.7-4.9 1.6-5.5 1.9-.5.4-2.8 1.3-4.9 2l-3.9 1.3.6 26.1c.5 17.2 1.4 31.2 2.7 41 1.1 8.1 2 15 2 15.2 0 .9 5.9.3 6.5-.6.8-1.3 19.2-1.3 20 0 .3.6 2.4 1 4.6 1 4.7 0 16.9 2.9 16.9 4 0 .4 1.1 1.1 2.5 1.4 1.4.4 4.3 2.4 6.5 4.6 3.4 3.4 4 4.6 4 8.2 0 2.3-.9 6.1-2.1 8.5-2.3 4.8-13.6 16.5-19 19.8-.9.5-4.3 2.8-7.5 5-3.3 2.2-7.1 4.6-8.6 5.4-2.6 1.3-2.6 1.5-1.1 4 12.3 19.9 24 33.8 39.3 46.6 10.5 8.8 24.4 17.8 24.9 16.3.5-1.7 2.4-3.8 10.7-12.2 9.6-9.5 10.8-10.6 12.2-10.6.7 0 1.5-.6 1.8-1.4.3-.7 2.4-2.2 4.7-3.2 2.3-1 4.4-2.1 4.7-2.5 1-1.3 8.6-2.9 14.3-2.9 5.1 0 6.1.4 8.6 2.9 3.4 3.5 5.1 10.1 5.1 19.6 0 8.2-2.8 29.7-4 30.9-.6.6-1 1.8-1 2.7 0 1.4 1.5 2 7.3 2.9 3.9.7 10.1 1.9 13.7 2.7 13.8 3.1 71 2.7 74.2-.5.4-.4 1.5-4.8 2.3-9.7.9-4.9 1.9-9.4 2.4-9.9.4-.6 1.3-3 1.9-5.3 1.3-4.3 6-13.9 8.4-16.9 2.9-3.7 8.4-8.6 10.6-9.5 3.5-1.4 11-1.1 14 .6 4.7 2.5 11.9 11.8 13.7 17.6.4 1.3 1.1 2.6 1.5 2.9.4.3 1.4 2.5 2.2 4.9.8 2.5 1.9 4.6 2.4 4.8 1.5.5 18.4-10.8 27.5-18.3 13.9-11.5 33.9-33.9 33.9-37.9 0-.9-.6-2.2-1.3-3-.8-.7-2-4.2-2.7-7.7-.7-3.5-1.7-6.7-2.1-7.3-1.2-1.3-1.1-12.5.1-12.5.6 0 1-.8 1-1.9 0-2.7 4.5-7 8-7.7 1.7-.4 3.3-1.1 3.6-1.5.3-.5 4.5-.9 9.4-.9h9l1.6-3.8c2.9-6.8 7.3-19.6 9.8-28.2 2.4-8.5 5.1-23.8 4.3-24.6-.2-.2-2 2-4 4.9-11.8 17.1-35.2 33.1-62.2 42.7-20.3 7.2-39 10.3-62.5 10.3-17.5 0-28.6-1.3-41-4.9-22.5-6.5-38.4-15.3-53.5-29.5l-8.2-7.9-3.8 2.6c-6.5 4.4-15.7 8.1-24.4 10-32.4 6.8-60.3-18.1-81.6-72.9-3-7.5-3-11.2-.1-11.2 2.3 0 2.6.6 7.2 12.5 12.6 33 30.7 56.5 49.5 64.1 7.9 3.2 21 3.2 30.4 0 14.1-4.7 31-17.6 39.5-30.1 4.2-6.2 9.3-16 8.7-16.6-.6-.6-9.3 4.4-10.7 6.1-2 2.4-4.1 1.9-3.5-.8 2.6-10.8 2.4-17.7-.4-17.7-.9.1-2.7.7-4.1 1.5-1.4.8-2.9 1.4-3.4 1.5-.4 0-.5-3.9-.2-8.8 1.1-14.7-.9-14.3-9.4 2.3-7 13.5-11.1 19.6-16.6 24.4-13 11.4-28.2 3.8-40.3-20.3-4.7-9.5-10.1-22-10.1-23.5 0-.7-.9-3.6-1.9-6.6-1.6-4.4-1.7-5.7-.6-7.1 1.3-1.9 4.3-1.4 4.9.8 6.7 22.9 14.6 39.5 23 48.4 8.8 9.4 15 10 22.8 2.2l4.1-4.1-.6-7.6c-.3-4.2-1.1-29.9-1.8-57.1-.7-27.2-1.3-49.6-1.4-49.8-.1-.1-3.1.4-6.6 1.3-14.1 3.3-33.7 1.2-45.8-4.9-12.3-6.3-18.8-14.2-23.3-28.6-2.1-6.8-2.3-9.3-2.2-26.5.1-20.7 2.2-35.5 8.6-61 3.4-13.4 5.1-17.5 7.4-17.5 2.8 0 2.6 3.1-.9 17.3-7.6 30.5-9 40.3-9.1 62.2 0 16.8 1.2 24.2 5.4 32.5 4.4 8.6 11 14.1 22.6 18.6 6.3 2.5 8.1 2.7 20.9 2.8 12.5.1 15-.2 23.4-2.7 5.2-1.6 11.3-3.7 13.5-4.9 5.7-2.8 13.6-8.1 13.6-9.2 0-.5-3.6-.6-8-.3s-8 .2-8-.2 1.8-2.5 4.1-4.6c4.5-4.4 6.9-8.4 6.9-11.5 0-1.7-.6-2-4.5-2-2.7 0-4.5-.5-4.5-1.1 0-.7 1.5-3.1 3.4-5.3 1.9-2.3 4.1-5.9 5-7.9 1.4-3.4 1.4-3.7-.3-3.7-.9 0-4.2 1.5-7.2 3.3-3 1.9-8.4 5.2-12.1 7.5-21.5 13.3-35 12.4-42.1-2.8-4.6-9.8-2.1-35.5 6-62 6.6-21.8 9.3-34.7 9.3-45.1 0-8.7-.3-10.1-3.1-15.7-3.1-6.4-3.1-8.2.1-8.2 4.6 0 9 11.8 9 24 0 6.5-2.2 21.9-3.9 27.5-9.3 30.4-11.8 40.9-13.1 54.8-1.3 13.2-.2 21.5 3.5 26.3 1.4 1.9 3.7 3.7 5.1 4 4.9 1.2 12.4-.5 19.7-4.4l7.2-3.8.7-27.5c1.3-49.3 3.5-65.7 10.8-79.7 5.5-10.6 15-20.2 24.8-25.1l4.2-2.1v-10.3c.1-14.8 3.4-26.7 10.4-37.4l3.4-5.2-1.5-8.3c-1.3-7.2-1.8-26.5-1.1-42.8.1-2-.9-5.9-2.4-9-5.1-10.7-7.2-29.8-4.3-38.8.7-2.1.5-2.2-3.6-2.1-2.4.1-8 .7-12.4 1.4z"/></g><path d="M614.8 267.7c2.3.2 6.1.2 8.5 0 2.3-.2.4-.4-4.3-.4s-6.6.2-4.2.4zm7.5 83c2.6.2 6.7.2 9 0s.2-.3-4.8-.3c-4.9 0-6.8.1-4.2.3zm-113 142c2.6.2 6.7.2 9 0s.2-.3-4.8-.3c-4.9 0-6.8.1-4.2.3zm-194.9 20.8c0 6 .1 8.4.3 5.2.2-3.2.2-8.1 0-11-.2-2.9-.3-.3-.3 5.8zM271.3 528c0 4.7.2 6.6.4 4.2.2-2.3.2-6.1 0-8.5-.2-2.3-.4-.4-.4 4.3zm43.1 92.5c0 4.9.1 7.1.3 4.8.2-2.3.2-6.4 0-9-.2-2.6-.3-.8-.3 4.2zm2 67c0 5.5.1 7.6.3 4.7.2-2.9.2-7.4 0-10-.2-2.6-.3-.2-.3 5.3zm46.4 227.2c3.9.2 10.5.2 14.5 0 3.9-.1.7-.3-7.3-.3s-11.2.2-7.2.3z" stroke-width="3" fill="#7FB200" stroke="#7FB200"/><path d="M416.2 313c-11.8 5-16.9 17.3-11 26.6 3 4.7 5.5 6.5 12.2 8.7 6.8 2.3 10.3 2.1 16.1-1.1 6.2-3.4 8.5-7.5 8.5-15.4 0-11.8-6.4-19-17.5-19.5-3.3-.1-7 .2-8.3.7zm18.6 7.3c2.8 2.6 2.9 7 .2 9.7-4.7 4.7-14 1.1-14-5.4 0-2.2 3.1-5.9 6-6.9 2.2-.8 5.2.2 7.8 2.6zm164.2-6.5c-3.7 1.7-7 4.6-9.4 8.2-3.4 5.2-3.7 14.1-.5 19.5 5.2 8.7 17.3 11.3 27.4 5.7 6.8-3.7 9.5-8 9.5-15.1 0-7.5-2.3-11.8-8.5-15.8-4.3-2.8-5.8-3.3-11-3.2-3.3 0-6.7.3-7.5.7zm5 5.2c1 .5 2.5 2.3 3.3 3.9 1.2 2.4 1.2 3.2-.1 5.7-1.8 3.6-3 4.4-6.4 4.4-4 0-5.7-1-7.3-4.1-3.3-6.3 4.1-13.3 10.5-9.9z" stroke-width="3" fill="#191900" stroke="#191900"/><path d="M484.8 378.5c-4.4 2.4-4.2 8.4.5 13.2 3.5 3.7 7.1 4.3 8.7 1.4 1.4-2.7 1.3-11.4-.2-13.4-1.9-2.3-5.9-2.9-9-1.2zm48.2-.8c-2.6 1.1-3.9 3.7-4 8 0 8.9 4.2 11.9 9.2 6.5 5.4-5.7 5.9-8.7 2.3-12.6-2.3-2.5-4.4-3.1-7.5-1.9z" stroke-width="3" fill="#334C00" stroke="#334C00"/><path d="M396.5 403.7c-3.9 1-7.5 4.4-8.6 8.4-.9 2.8-.9 4.3-.2 5 1.6 1.6 3.3.2 3.3-2.7 0-1.3.4-2.4 1-2.4.5 0 4.7 3.7 9.3 8.2 5.3 5.3 11 9.9 16 12.7 12.5 7.1 14.5 7.6 29.7 7.5h13.5l15-5.1c36.6-12.6 51.7-13.3 73.5-3.3 16.3 7.4 25.2 10.2 35 10.7 17.3 1 33-6.2 44.7-20.7 2.5-3 4.8-5.4 5.2-5.3.3.1.8 1.2 1.1 2.5.3 1.3 1.4 2.5 2.4 2.6 1.7.4 1.8-.1 1.3-3.3-.7-4.5-3.8-8.1-8.3-9.5-5.2-1.7-7.9 1.1-2.9 3 1.4.5 2.5 1.4 2.5 2 0 2-15.5 16.6-20.4 19.3-8.4 4.6-14.8 6-25.5 5.4-10.6-.5-14-1.6-34-10.5-12.3-5.4-12.6-5.5-24-6-14.9-.6-26.2 1-39.2 5.4-24.1 8.1-29.8 9.5-40.4 9.5-8.5.1-11-.3-17-2.6-3.8-1.4-9.5-4.3-12.5-6.3-5.6-3.7-21-17.9-21-19.4 0-.5 1.2-1.3 2.6-1.8 4.1-1.6 2.3-4.3-2.1-3.3z" fill="#4C6600" stroke="#4C6600" stroke-width="3"/><path d="M543.4 1105.3c-.2.7-.3 7.4-.2 14.8l.3 13.4.5-14.8c.3-8.1.4-14.7.2-14.7-.1 0-.5.6-.8 1.3zm9 24.2c0 11.5.2 16.1.3 10.2.2-5.9.2-15.4 0-21-.1-5.6-.3-.8-.3 10.8zm-74.2 21.2c-.1 7.2.1 13.4.6 13.6.4.3.6-3.6.4-8.6-.4-16.6-.8-18.4-1-5zm15.5-10c-1 .9-.9 15.1.1 15.6.4.3.7-3.3.7-7.9 0-4.6 0-8.4-.1-8.4 0 0-.4.3-.7.7z" stroke-width="3" fill="#B24C19" stroke="#B24C19"/><path d="M297.3 1091.2c-2.4.5-4.3 1.3-4.3 1.7 0 .5-1.3 1.4-3 2.1-4 1.7-12.6 11.4-14.1 15.8-.6 2.1-1.7 4.3-2.3 5.1-1.6 2.1-1.5 31.3.2 31.8.6.3 1.2.9 1.2 1.5 0 2.2 3.6 8.4 6.5 11 1.6 1.5 5 3.5 7.5 4.4 2.5.9 5.5 2.1 6.6 2.6 5.1 2.4 25.8-2.4 29.9-6.8 2.7-2.9 3.4-8.1 1.3-10.2-1.9-1.9-6.6-1.4-12.2 1.4-7.1 3.7-17.6 4-22.4.6-5.2-3.7-6.5-7.4-7-18.9-.5-12.5.9-17.4 6.9-23.8 6.6-7 15.7-8.3 25.4-3.5 3.9 2 4.1 2 6.5.2 1.7-1.3 2.6-3 2.8-5.5.3-3.3-.1-3.8-3.7-6.1-6.8-4.3-16.3-5.6-25.8-3.4zm-162.6 12.6c-1.4 1.5-1.7 4-1.7 12.5 0 6.4-.4 10.7-1 10.7-.5 0-2.9-.5-5.3-1.1-6.6-1.8-12.8-.5-17.7 3.8-5 4.5-6.7 7.5-7.5 13.9-2 15.1 10 25.7 24.9 21.9 3.4-.9 5.6-1 6.9-.4 1 .6 3 .9 4.5.7 2.7-.3 2.7-.5 3.3-9.3 1.2-16.7 1-52-.3-53.3-1.7-1.7-4.2-1.5-6.1.6zm-5.6 30.9c2.9 1.7 2.9 1.8 2.9 10.9v9.2l-3.4 2.1c-4.9 3.1-10.8 2.8-14.7-.7-2.5-2.3-3.3-3.8-3.6-7.9-.7-6.5 1.1-11.9 4.5-13.8 3.7-2 10.8-1.9 14.3.2zm210.8-30.9c-1.3 1.5-1.7 6.7-2.2 30.9-.7 31.8-.7 31.8 4.9 31.1 3.6-.4 4.2-2.4 4.3-15.4.1-9.6.2-10.1 2.9-12.6 3.2-3.2 7-4.2 11.7-3.4 4.4.9 4.9 2.4 4.6 16.7-.1 10.4 0 11.8 1.9 14.2 2.6 3.2 3 3.3 5.8.7 2-1.9 2.2-3 2.2-14.9 0-7.2-.5-14.3-1.2-16.2-1.7-4.9-6.1-8.7-11.1-9.4-3.6-.5-5.9-.3-13.2 1.5-3.5.8-3.7.2-3-10 .6-8.4.5-10.4-.9-12.5-1.9-3-4.5-3.2-6.7-.7zm205.4-.6c-.4.7-1.1 8.5-1.5 17.3-.3 8.8-1 22.1-1.3 29.5-.8 15-.3 16.5 5.2 15.8 2.8-.3 2.8-.4 3.5-8.8 1.2-15.7.9-52.5-.4-53.8-1.6-1.6-4.5-1.5-5.5 0zm-44.3 11.2c-.6.8-1 2.5-.8 3.8.2 1.8 1 2.4 3.6 2.6 3.8.4 6.2-1.2 6.2-3.9 0-3.4-6.6-5.3-9-2.5zm20.8-.3c-2.8 1.6-2.3 5.7.7 6.5 4.2 1 7.5-.3 7.5-3.1 0-3.7-4.5-5.6-8.2-3.4zm-89.1 10.1c-1.3 1.1-1.7 4.3-2.3 20-.7 19.6-.4 21.8 3.6 21.8 3.8 0 5-3.1 5.1-13.6 0-12 1.3-16.4 5.2-17.7 7.6-2.5 10 2 9.5 18.3-.3 11.6.1 12.9 4.3 13 3.4 0 4.2-3.1 5.7-20.7.4-4.5 1.2-8.7 1.9-9.4.6-.6 3.1-1.4 5.6-1.6 6.8-.8 7.7 1.1 7.7 16.3 0 6.7.3 12.9.6 13.8.6 1.7 5.9 2.3 6.8.8.2-.4 1-5.6 1.6-11.6 1.1-9.5 1-11.4-.6-16.7-2.1-7-4.7-9.7-10.5-11-5-1.2-9.1-.4-13.7 2.3-3.3 2.1-3.4 2.1-6 .1-3.6-2.6-8.9-3.5-13.2-2.3-2.7.8-3.7.7-4.5-.3-1.6-2.1-4.9-2.8-6.8-1.5zm221.5.7c-2.1 1.8-2.2 2.6-2.2 20.9v19.2l2.6.6c4.7 1.2 5.7-1.2 6.2-14.3.5-11.6.5-11.8 3.4-14.2 4.2-3.4 10.9-4 13.7-1.2 1.9 1.9 2.1 3.2 2.1 15.6 0 12.2.2 13.5 1.9 14.5 2.4 1.2 4.8.4 6.1-2.1 1.1-1.9 1.2-25 .2-28.7-1.1-3.7-6.1-8.1-10.5-9.3-3-.8-5.6-.8-9.9.1-5.3 1-5.9.9-7.8-1-2.5-2.5-3.1-2.5-5.8-.1zm-445.8.2c-6 1.4-10.3 6.3-11 12.5-.6 5.1-.5 5.4 3.8 9 .8.6 4.7 1.7 8.8 2.5 6.8 1.3 7.6 1.7 8.5 4.2.8 2.4.6 3.1-1 4.3-2.4 1.8-10.3 1.7-13.5-.1-3.9-2.2-7.7-1.9-8.3.7-1 3.5 1.6 6.2 7.7 8.1 6.4 1.9 9.8 2.1 12.4.8.9-.5 3.2-1.5 5.1-2.2 3.6-1.3 7.1-6 7.1-9.5 0-4.8-2.8-9-7.8-11.7-2.7-1.5-6-2.7-7.3-2.7-4.8 0-6.9-1.1-6.9-3.6 0-1.3.9-2.8 1.9-3.4 2.6-1.4 10.7-1.3 14.8.2 2.4.9 3.6.9 4.4.1 1.6-1.6.3-6-2.4-7.7-2.9-2-11.2-2.7-16.3-1.5zm-41.9.6c-3.6.9-10.1 5.5-12.3 8.7-2.1 3.1-4.4 10.5-4.4 14.1 0 7.9 4.8 15.9 10.1 17.1 1.4.3 3.8 1 5.3 1.6 2.1.8 3.6.7 6-.5 6.4-3 8.7-3.1 11.4-.6l2.4 2.3 2-2c2-1.9 2-2.2.5-6.5-1.3-3.4-1.6-7.5-1.3-18.1.2-9.8-.1-14.1-.9-14.9-1.3-1.3-15.1-2.1-18.8-1.2zm8.7 6.3c2.2 1.1 2.3 1.6 2.3 12.8 0 14.2-.6 15.2-9.6 15.2-5.5 0-5.8-.1-7.8-3.6-4.4-7.5-.9-19 7-23 5.3-2.7 5.3-2.6 8.1-1.4zm224.8-6.1c-4.1 1.3-10.5 5.7-12.3 8.5-1 1.4-2 4-2.4 5.6-.3 1.7-1 3.3-1.4 3.6-1.2.7-1.1 8 0 10.2.5.9 1.5 3.2 2.2 5.1 1.3 3.6 6 7.1 9.6 7.1 1.2 0 2.5.4 2.8 1 .7 1.2 5.5 1.4 5.5.2 0-.5 2.3-1.4 5.2-2.1 5-1.3 5.2-1.3 7.1 1 2.6 3.3 5.3 1.5 4.9-3.2-.2-1.9-.6-10.7-.8-19.7-.5-15.7-.6-16.3-2.7-17.1-2.9-1-14.6-1.2-17.7-.2zm9.3 6.5c1.4 1.1 1.7 3 1.7 12.9 0 10.8-.1 11.7-2.2 13.1-1.3 1-4.4 1.6-7.5 1.6-4.6 0-5.4-.3-7.2-2.9-1.6-2.2-2.1-4.4-2.1-8.9 0-3.3.3-6.2.8-6.4.4-.2 1.4-1.6 2.3-3.2.9-1.6 2.9-3.5 4.5-4.4 1.6-.8 3.6-1.9 4.4-2.3 2.1-1.1 3.3-1 5.3.5zm100.5-6.7c-1.4.2-3.2 1.1-3.8 1.9-.7.8-1.8 1.4-2.4 1.4-1.9 0-6.3 5.1-8 9.2-2 4.8-2 15.6-.1 20.6 1.5 3.8 6.3 7.2 10 7.2.9 0 2.4.5 3.5 1.2 1.4.9 2.4.9 4.2 0 1.3-.6 4.2-1.6 6.5-2.3 4-1.1 4.4-1 6.2.9 2.4 2.8 3.5 2.8 5-.2 1.1-1.9 1.1-2.8 0-4.7-1-1.7-1.4-6.7-1.4-18.1 0-8.6-.3-16-.7-16.4-.9-.8-15-1.4-19-.7zm9.5 6.7c1.4 1.1 1.7 3 1.7 12.9 0 10.8-.1 11.7-2.2 13.1-3.5 2.5-12.2 2.1-14.7-.5-2.3-2.5-3.6-8.6-2.6-12.6 1-4.8 5.8-10.7 9.3-11.8 1.8-.5 3.2-1.3 3.2-1.7 0-1.3 3.3-.9 5.3.6zm55.1-6.6c-3.6 1.2-6.9 4.6-9.8 9.9-5 9-3.7 19 3.2 25.6 3.5 3.3 7.9 4.7 15.2 4.7 7.5 0 12.5-1.6 15.5-4.8 2.8-3.1 3.2-5.4 1-7.2-1.2-1-2-.9-4.1.6-5.3 3.7-7 4.4-11.8 4.4-5.7 0-13.1-3.7-14.1-7.1-.4-1.1-.5-2.2-.3-2.4.2-.3 3.1-.7 6.4-1 3.2-.4 6.8-1 7.9-1.5 1.1-.5 4.5-1.1 7.5-1.5 7.6-.8 8.5-1.6 8.4-7-.1-4.1-.6-5.2-4.2-8.8-4.1-4-4.4-4.2-11.4-4.4-4-.1-8.2.1-9.4.5zm12.8 6.9c2.7 1.2 3.8 2.3 3.8 3.9 0 1.9-.7 2.2-6.7 2.8-3.8.4-8.3.9-10 1.2-2.8.5-3.3.3-3.3-1.4 0-2.6 6.7-8.2 9.9-8.2 1.3 0 4.2.8 6.3 1.7zm32.3-6.2c-1.6.8-3.9 2.2-5 3.2-2.4 2.1-5.5 8.6-5.5 11.3 0 1-.4 2.2-1 2.5-.5.3-1 1.9-1 3.5s.5 3.2 1 3.5c.6.3 1 1.5 1 2.7 0 3.5 3.1 8.7 6.5 10.8 2.4 1.5 5 2 9.7 2 8.5 0 12.1-1.3 15.5-5.8 2.5-3.3 2.8-4.6 3.1-13 .3-7.9.1-9.8-1.7-13.3-2.7-5-4.2-6.6-7.6-7.9-3.7-1.4-11.5-1.2-15 .5zm14.8 8.4c.8.8 1.2 4.8 1.2 10.6 0 8.7-.2 9.6-2.5 11.7-1.8 1.7-3.6 2.3-7.1 2.3-3.8 0-5-.5-7.2-3-2.1-2.4-2.6-4-2.7-8.1 0-5.7 3.5-13.2 6.7-14.6 2.5-1 10.2-.3 11.6 1.1z" stroke-width="3" fill="#B23300" stroke="#B23300"/></svg>