<svg version="1.0" xmlns="http://www.w3.org/2000/svg" viewBox="0 0 782 1255"><g fill="#FFF" stroke="#FFF" stroke-width="3"><path d="M0 627.5V1255h782V0H0v627.5zm562-468c10.4 2.2 10.7 2.3 14.6 5.7 4.1 3.6 4.5 8.1 1.3 13.7-1.2 2-10.6 11.9-20.9 22.1-25.3 25-30 32-30 44.2v6.4l6.8 3.7c32.8 18.3 65.2 45 85.8 70.8 6 7.6 16.8 23.3 21.7 31.9 3.7 6.4 17 32.8 18.6 37 .8 1.9 2.4 5.7 3.6 8.5 1.2 2.7 3.7 9.3 5.4 14.5 1.8 5.2 3.7 10.2 4.1 11.2.5.9 1.6 4.5 2.5 8 .9 3.4 2 7.2 2.5 8.3 1.3 2.7 5.9 20.4 7.6 29 .8 3.8 2 9.5 2.8 12.5.8 3 2 9.3 2.6 14 .7 4.7 1.6 9.9 2.1 11.6.9 3 4.7 37.2 5.6 50.8.6 8.2-2.3 55.3-4.2 71.1-1.9 14.9-5.3 36.6-6.1 38.5-.3.8-1.3 4.6-2 8.5-.8 3.8-2.1 9.5-3 12.5-6.8 23.7-10.5 34.5-15.1 44.7-1.2 2.8-2.3 5.5-2.3 6 0 1.5-11.5 23.9-16.5 32.3-20.3 33.5-43.2 56.9-76 77.8-5.6 3.5-25 12.3-32.6 14.6-19.6 6.2-50.4 12-72.4 13.7-15.4 1.2-51.4.6-61-1-16.4-2.8-29.1-5.3-33.3-6.5-26.8-8.1-38.1-12.6-54.2-21.5l-10.9-6.2-5.8 2.4c-19.4 8.1-38.1 11-56.1 8.8-9.5-1.2-23.6-5.4-28.8-8.7-17.2-10.6-26.7-19.2-37-33.4-4.6-6.3-14.8-24.3-15.9-28-.4-1.4-1.1-3-1.6-3.6-2.1-2.6-9.3-26.7-8.6-28.7.2-.6 2.2 1.1 4.6 3.6 3.2 3.4 6.2 5.3 11.3 7.3 5.8 2.2 19.6 4.9 20.6 4 .1-.2-1.3-1.5-3.2-3-1.9-1.4-4.7-5.2-6.3-8.3l-2.8-5.8-.8-69c-.4-38-.5-83.2-.2-100.5.5-27 .4-32.2-1-36.8-1.4-4.6-1.9-5.2-4.3-5.2-1.5 0-4 .8-5.7 1.8-6.9 4.2-18 6.5-21.3 4.3-4.5-2.8-1.9-16.7 4.3-23.1 2.1-2.1 6.4-5 9.7-6.5 5.6-2.5 6.9-2.7 16.4-2.3 5.7.2 10.4 0 10.4-.5 0-.4-2.3-3.2-5.1-6.2-3.9-4.1-6.7-6-11.8-7.9-3.6-1.5-8.3-2.6-10.2-2.6-3.2 0-12.2 2.2-30.9 7.4-8.2 2.3-13.5 2.1-15.4-.6-.9-1.2-1.6-3.2-1.6-4.3 0-1.2-1.4-2.9-3.4-4.2-1.9-1.2-4.3-4.2-5.6-6.8-7.8-16.1 7-45.9 41.5-83.5 2.8-3 6.2-7.1 7.7-9 3.5-4.8 7.4-18.5 8.8-31 .6-5.8 2-14.8 3-20 1-5.2 2.1-11.5 2.5-14 .4-2.5 1.3-5.6 2-7 .7-1.4 1.6-4.1 2-6 1.3-6.6 8.1-20.4 14.8-30.5 5.7-8.4 18.7-21.6 28.7-29.1 13-9.9 34.5-19.8 59-27.3 5.8-1.8 12.7-3.9 15.3-4.7 6.3-1.9 21.1-5.2 31.7-7 23.6-3.9 29.7-4.7 43.6-5.3l15.2-.6 6.6-6c9-8 18.1-15.1 23.6-18.2 2.5-1.5 5.2-3.2 6-3.9 1.7-1.5 21.1-11.4 22.3-11.4.4 0 2.6-.9 5-2 12.4-5.7 37-12.1 57.7-14.9 18-2.4 51.3-2.7 62-.6zm-178 930.6c5.2 1.1 12.3 3.3 15.8 5 7.3 3.3 16.7 10.3 20.6 15.1 1.4 1.8 3.1 3.9 3.7 4.6.5.6 2.3 4 3.9 7.5 2.5 5.1 3 7.5 3 13.6 0 8.6-2 13.7-8.3 21.4-7.3 8.9-17.3 11.7-41.3 11.7-16.8 0-15.9 1.6-15.6-26.6.2-24.1 1-45.4 1.8-49.1.3-1.9 4.4-5.1 6.4-5.3.3 0 4.8.9 10 2.1zm-149.9 12.1c2 2.2 2.1 2.9 1.5 14.3-.3 6.6-.9 20.1-1.3 29.9-.6 15.9-.8 18.1-2.6 19.9-1.4 1.4-2.6 1.7-5 1.2-1.8-.3-4.5-.6-6.2-.4-12.1.8-16 .4-20-2.2-2.2-1.5-5.4-4.6-7-6.9-2.7-3.9-3-5.1-3-12 0-6.8.4-8.3 3.1-12.6 5.4-8.8 17.9-13.8 25.3-10.1l3.1 1.5v-10.2c0-8.9.3-10.5 2-12.4 2.7-2.9 7.3-2.9 10.1 0zm262-1.2c1.8 1 1.9 2.3 1.8 24.3-.1 12.8-.4 27-.7 31.7-.6 7.7-.9 8.6-3.3 9.9-3.6 2-7.5.8-8.6-2.6-.4-1.6-.6-15.7-.3-31.5.5-26.3.7-28.8 2.4-30.7 2.1-2.3 5.6-2.7 8.7-1.1zm47.2.1c2 .5 3.7 1.6 3.7 2.4 0 1 1 1.2 3.9.8 3.4-.5 4.3-.2 6.5 2.2 3.3 3.5 3.3 6.5.1 9.9-3.1 3.4-7.3 3.4-10.9.1-1.4-1.3-2.6-2.8-2.6-3.2 0-1.2-10.8-.3-11.8 1-.5.7-1.3 2.7-1.7 4.4l-.7 3.3h11.6c16.3 0 15.6-1 15.6 21.9 0 9.9-.4 19.1-1 20.5-1.7 4.5-10.1 4.8-11.6.3-.5-1.2-.7-8.4-.5-16l.3-13.7h-13.9l-.9 17c-1.1 18.9-1.6 20.4-7.8 20.4-6.4 0-6.6-.7-6.6-19.9v-17.2l-4.1-.6c-4.6-.6-5.9-1.9-5.9-5.8 0-3.7 2-5.7 6.5-6.7 2.8-.6 4.1-1.3 4.3-2.7.7-4.9 3.8-12.8 5.9-14.7 4.1-3.9 14.5-5.7 21.6-3.7zm-244.4 21.3c.9 1.1 2 1.2 4.7.4 7.1-1.9 17.8 2 19 6.9.8 3-.8 6.8-3.4 8.2-1.3.7-3 .4-6.1-1-4.2-1.9-4.4-1.9-8.5 0l-4.3 1.8-.6 12.8c-.8 14.4-1.7 16.5-7.2 16.5-5.8 0-6-1.1-5.6-23.3.2-12.7.7-20.7 1.4-21.9 1.4-2.2 8.9-2.5 10.6-.4zm271.8.5c1.3 1.4 2.3 1.7 3.3 1.1.8-.5 4.3-1 7.7-1 7.7 0 12.5 2.6 15.6 8.4 2 3.6 2.2 5.6 2.2 17.6 0 16-1.1 19-6.9 19-5.7 0-6.7-2.8-6.4-17.4.4-16.1-1.2-18.2-10.2-13.6l-4 2-.1 6.3c0 11.6-1.4 19.8-3.4 21.3-2.7 2-5.2 1.7-7.6-.7-2.1-2.1-2.1-2.8-1.7-21.9.3-14.4.8-20.3 1.7-21.4 1.9-2.2 7.6-2 9.8.3zm-296.9 3c4.9 3.8 8 10.9 6.6 14.8-1.6 4.6-5.1 6.1-16.9 7.4-6 .7-11.4 1.6-12 2.1-.6.6 0 1.8 1.8 3.4 2.3 2 3.9 2.4 9.1 2.4 4.6 0 6.7-.4 7.7-1.6.7-.8 2.6-2.2 4.2-3 2.5-1.4 3.1-1.4 5.3.1 1.6 1 2.4 2.5 2.4 4.3-.1 3.5-1.5 5.2-7 8.7-6.7 4.2-16.7 4.7-24.3 1.2-7.6-3.4-11-8.6-11.5-17.4-.6-8.6 1.3-14.8 5.9-19.5 5.4-5.5 9.1-6.9 17.6-6.5 6.2.3 7.6.8 11.1 3.6zm195.6-.6c5.2 4 6.9 7.2 7 12.9.1 6.9-1.9 8.2-15.3 9.7-15.7 1.8-16.8 2.5-10.8 6.1 4.8 2.9 13 2.7 17.2-.4 5.4-4.2 9.2-3.9 10 .8.9 4.5-.6 7-6.3 10.3-4.1 2.5-5.7 2.8-13.2 2.8-7.5 0-9-.3-13-2.7-6.9-4.2-9.4-8.7-9.8-17.5-.4-6.4-.1-8 2.3-12.8 1.8-3.7 4-6.4 6.8-8.4 5.9-3.9 6.3-4.1 14.3-3.8 6 .2 7.6.6 10.8 3z"/><path d="M212 340.4c0 1.3.6 2.9 1.4 3.5 1.1 1 1.7.7 2.9-1 2-2.7 1.1-4.9-1.9-4.9-1.9 0-2.4.5-2.4 2.4zm72.7 129.3c-2.7.2-6.3 1.3-8 2.4-1.8 1-4 1.9-5 1.9-3.4 0-13.2 5.8-18 10.6-4.6 4.7-11.7 15.9-11.7 18.6 0 .7-.7 2.6-1.5 4.2-1.9 3.6-4.1 22.4-2.8 23.7.6.6 1.4-.7 2.2-3.3 3.2-10.8 9.9-21.9 16.2-26.9 9.8-7.7 27.2-7.9 33.9-.2 8.4 9.5 5.1 23-6.1 24.8-10 1.5-11.7 2.4-14.3 6.8-3.6 6.2-4.6 16.8-4.6 50.4 0 31.2-.1 30.4 5.4 42.8.8 1.6 1.9 4.7 2.5 6.7 1.4 4.4 2.2 5 8.6 7.3 5.4 2 19.7 8.7 23 10.7 10.9 6.9 22.7 17.4 29.4 26.2 12.4 16.1 20.9 38.8 23.2 61.6 1.1 10.9.7 41.7-.7 46.5-.5 1.8.3 2.4 6.3 4.3 29.2 9.4 55.6 3.6 73.8-16 19.5-21 31.4-51.5 41.5-105.8.5-2.5.9-9.3.9-15.2l.1-10.7-6-1.2c-14.8-2.9-31.1-17.8-42-38.3-6.8-12.9-10.1-23.2-14.1-44.6-1.6-8.7-1.3-37.3.5-45.9 1.8-8.5 1.8-8.5-5.8-13.6-11.6-7.6-32.4-16.9-44.1-19.6-2.7-.7-5.8-1.6-6.8-2.1-2.5-1.3-26.1-4.8-38.7-5.8-10.5-.9-28.2-1-37.3-.3zm-65.6 9.5-3.3.9.6 6c1.2 10.6 1.9 11 4.7 2.8 1.4-4.1 2.9-8.2 3.3-9.2.9-1.9 0-2.1-5.3-.5zm-6.4 102.5c-.3.4-.8 13.6-1.2 29.1-.7 27.4-.7 28.4 1.1 28 1.8-.3 2-2 2.7-21.3.9-25.5.6-35.7-1-36.2-.6-.2-1.3 0-1.6.4zm27 17c-2.3 4.1-4.1 60.5-2.7 86.1 1.1 20.6 1.5 23.8 4.5 37.7 1.8 8.7 2.6 10.1 4.9 9.2 1.2-.5 1.3-1.3.1-5.9-5.7-23.5-7.2-48.1-5.5-89.1 1.7-39.7 1.7-38 .3-38.4-.6-.2-1.3 0-1.6.4zm-40 78.9c-1 1-.9 15.8.2 28.8.6 6.1 1.5 17.2 2.1 24.6 1.2 13.8 1.7 16.8 4.4 27.9 1.7 6.7 4.4 13.1 5.5 13.1.3 0 1.2-.4 2-.9 1.1-.7 1.1-1.3-.3-3.7-2.4-4.4-6.4-23-7.6-35.7-.6-6.1-1.4-20.9-1.8-32.7-.6-18.2-.9-21.5-2.2-21.8-.9-.1-1.9 0-2.3.4zm182.3 447c0 9.3-.3 19.9-.7 23.6l-.6 6.8h5.6c12.3 0 20.5-2.8 25-8.3 2.9-3.7 3.2-4.8 3.2-10.7 0-6.1-.3-6.9-4.2-12.1-7.1-9.6-14.5-14.5-23.4-15.6l-4.9-.6v16.9zm-176.1 12.3c-2.4 2.5-2.9 3.7-2.9 8 0 4.1.5 5.6 2.8 8.2 3.3 3.6 8.4 4.3 12.6 1.6 2.4-1.6 2.6-2.2 2.6-9.7 0-7-.2-8.1-2.2-9.4-3.8-2.7-9.5-2-12.9 1.3zm49.5-2.9c-1.2.4-2.4 1.6-2.8 2.5-.5 1.4-.1 1.6 2.2 1.1 1.5-.3 5.2-.8 8.1-1.2 5-.6 5.3-.8 3.6-2-2.1-1.5-7.8-1.7-11.1-.4zm195.2 1.1c-1.5 1.2-2.5 2.3-2.3 2.5.2.3 3.9-.1 8.2-.7 7-1.1 7.6-1.3 6-2.5-2.8-2.1-8.8-1.7-11.9.7z"/></g><path d="M333.2 439c-21.4 3-52.2 13.6-65.3 22.4-1.2.8 7.6 1.1 32.5 1.1 33.1.1 34.5.1 48 2.8 27.4 5.4 49.4 13.8 66.7 25.6 5.4 3.6 5.9 3.7 5.9 1.5 0-2 4.6-16.7 6.5-20.9.7-1.7 1.7-4.1 2.1-5.5.3-1.4 1.8-4.7 3.1-7.4 2-3.9 2.2-5 1.1-5.7-2.5-1.6-26.3-8.8-34.3-10.5-4.4-.9-9.8-2.1-12-2.6-5.6-1.2-46.6-1.9-54.3-.8zm180.6 87.5c-2 1.4-4.1 2.5-4.7 2.5-.5 0-1.4.6-1.8 1.3-.4.7-1.8 2-3.1 2.9-3.6 2.4-11.8 13.2-14.6 19.2-3.6 7.5-4.7 14-4.8 27.1 0 10.4 2.5 29.8 4.2 32 .9 1.2 2.9 9.9 3.1 14 .4 6.4-.2 8.7-2.9 11.5-2.8 2.7-2.8 3-3.1 16.1-.1 7.4-.7 15.4-1.2 17.9-.5 2.5-2 9.7-3.3 16-3.3 15.7-10.7 41.9-12.6 44.5-.4.5-1.3 2.8-2 4.9-.7 2.2-2.6 6.5-4.1 9.7-1.6 3.2-2.9 6-2.9 6.4 0 1.2-8.7 14.3-13.6 20.6-6.9 8.7-15.9 16-26.9 21.8l-4 2.1 5-.6c13.1-1.7 33.5-10.8 47-20.9 6.7-5.1 17-15.1 23.2-22.5 3.6-4.3 13.3-18.8 13.3-19.8 0-.4 1-2.3 2.3-4.2 2.1-3.2 5.2-9.7 10.5-22 4.8-11.4 10.6-30.3 14.6-48 4.5-20.2 6.1-34.7 6.1-57 0-22.3-1.4-33.2-6.1-49-3.9-13.2-10.9-29-12.8-29-.6 0-2.8 1.1-4.8 2.5zm-249.4 40c0 6 .1 8.4.3 5.2.2-3.2.2-8.1 0-11-.2-2.9-.3-.3-.3 5.8zM178.5 615c0 19.5.1 27.5.2 17.7.2-9.7.2-25.7 0-35.5-.1-9.7-.2-1.7-.2 17.8z" stroke-width="3" fill="#E5FFFF" stroke="#E5FFFF"/><path d="M296.3 462.7c3.1.2 8.3.2 11.5 0 3.1-.2.5-.3-5.8-.3s-8.9.1-5.7.3z" fill="#99B2CC" stroke="#99B2CC" stroke-width="3"/><path d="M297.3 468.7c2.6.2 6.8.2 9.5 0 2.6-.2.4-.3-4.8-.3s-7.4.1-4.7.3z" fill="#7F99B2" stroke="#7F99B2" stroke-width="3"/><path d="M356.4 757c0 5.2.1 7.4.3 4.7.2-2.6.2-6.8 0-9.5-.2-2.6-.3-.4-.3 4.8z" fill="#4C7F99" stroke="#4C7F99" stroke-width="3"/><path d="M516 159.9c-4.1.5-13.1 1.6-19.9 2.5-42.4 5.8-82.9 24-109.2 49.1l-6.6 6.3-14.4.7c-32.6 1.5-71.7 9.5-104.5 21.3-18.4 6.6-31.9 13-42.4 20-9.4 6.4-26.1 22.3-30.6 29.2-1.6 2.5-3.2 4.7-3.6 5-1.4 1.1-11 21.3-12.4 26.3-.8 2.8-1.9 6.1-2.4 7.2-1.4 2.9-4.7 21.5-7 39-1.1 8.2-2.4 15.9-2.9 17-.6 1.1-1.3 3.6-1.6 5.5-1 5-5 11.6-11.1 18.2-13.5 14.7-34.4 41.8-34.4 44.7 0 .4-.8 1.9-1.8 3.2-1 1.3-3.1 5.5-4.7 9.4-2.6 6.1-3 8.2-3 16.5 0 10.6 1 12.8 7.3 16.9 2.9 2 4.4 2.2 11 1.8 13.2-.7 30.7-4.1 60.7-11.8 17-4.3 29.8-7.9 31.7-8.9 1.6-.9 16.4-4.3 26.3-6 13.7-2.5 37.4-4.4 58.7-4.7 21.5-.4 25.3-.2 40.7 2.1 17.2 2.6 19.8 3.2 37.1 8.8 11.1 3.6 26.1 10.8 34.7 16.6 9.1 6.2 9.2 6.4 8.1 11.4-2.3 9.8-3.2 27.8-2.1 40.1 1.1 12 4.3 29.3 6.2 33.2.5 1.1 1.5 3.8 2.1 6 1.7 5.5 10.3 21.6 14.9 27.8 4.8 6.4 13.1 14.4 19.2 18.5 4 2.7 9.7 4.8 18.2 6.6 2.7.6 2.7.7 2.6 8.9 0 4.5-.4 11.3-.9 15.2-1.5 12.1-8.7 45.2-10.9 50-.6 1.1-1.7 4.5-2.5 7.6-.9 3.1-2.3 6.9-3.1 8.5-.8 1.6-1.5 3.3-1.5 3.8 0 1.8-7.4 17.1-11.3 23.5-17.7 28.6-40.2 40.6-70.2 37.2-5.8-.7-13.8-2.2-17.7-3.5l-7.3-2.4-.1-28.8c-.1-17-.6-30.5-1.2-32.9-4.5-16.7-5.5-20.1-6.1-21-.4-.6-1.6-3.3-2.6-6-1-2.8-2.3-5.7-2.9-6.5-.7-.8-1.7-2.8-2.4-4.3s-3.1-5.3-5.4-8.5c-17.8-24.1-44-39.4-74.8-43.7l-4.5-.6 3.3 2.8c3.4 2.8 3.4 3 4.3 14.3.5 6.3.7 24.8.3 41-.6 29.5-.2 34.6 3 48 1.9 7.8 7.1 21.1 10.3 26.2 4 6.6 3.7 6.7-8.1 3.8-8.7-2.2-30.2-2.8-36.6-1-6.3 1.7-29.1 2.8-41.5 2-14.7-1.1-23.1-3.7-29.1-9.2l-4.2-3.8 1 4.7c.6 2.7 1.4 5.2 1.8 5.8.4.5 1.3 2.8 2 5 1.7 5.9 7.2 18.8 8.7 20.6.7.8 1.3 1.9 1.3 2.3 0 2.3 14 22.8 20.3 29.6 2.8 3.1 14.1 12.8 18.2 15.6 5.3 3.6 14.2 8.4 15.6 8.4.8 0 2.8.7 4.4 1.6 7.2 3.8 29 5.5 44 3.4 7.2-1.1 24.7-6.2 29.4-8.6 3.8-2 7.2-1.7 11.1.9 3.4 2.3 23.1 12.1 30 15 10 4.2 33.5 11.1 43.5 12.7 3.9.6 10.4 1.9 14.5 2.8 6.2 1.4 13.4 1.7 40.5 1.7 22.4 0 35.3-.4 40-1.3 36.6-6.6 42.5-7.9 55-11.8 27.7-8.6 53.1-24.9 76.6-49.1 8.5-8.8 12.7-13.5 16.4-18.7 7.4-10.3 9.6-13.2 10.3-14.1 1.5-2 12.1-20.1 13.1-22.5.6-1.4 1.5-3.2 2-4 .9-1.4 4-8 9.4-20 1.3-3 3-7.3 3.7-9.5.7-2.2 1.6-4.5 2-5 .4-.6 1.3-3.3 2-6 .7-2.8 1.9-6.4 2.6-8 2.9-6.7 9.3-33.8 13-55 3.3-19.2 5.1-37.7 6.4-66.4 1.1-21.3 1-26.6-.5-42-2-21.2-2.8-27.4-5.9-45.6-3.2-18.3-10.5-50.5-12.6-55-.5-1.1-1.8-5.2-2.8-9-2.4-8.6-9.1-27.2-12.2-33.9-1.2-2.8-2.8-6.7-3.6-8.8-3.8-11-17.9-37-28.3-52.3-23.7-35.2-55.2-63.1-98.3-87.4-6.6-3.7-7.3-5.3-6.5-13.9 1-10.9 7.6-20.1 30.4-42.2 23-22.5 25.9-27 20.6-33-4.2-4.7-14.4-6.9-35.8-7.4-9.3-.2-20.4-.1-24.5.3zm41.3 5.1c9.7 1.1 15.4 3 16.3 5.5 1.6 4.1-1.4 7.8-26.4 32-18.7 18.1-25.1 27.9-26 39.7-.3 4.2-.9 6.8-1.6 6.8-.7 0-3-.9-5.1-2.1-6-3.1-24.9-10.7-34.5-13.9-25.5-8.4-50.7-13-78.7-14.6-7.3-.4-13.3-1-13.3-1.3 0-.9 8.7-9 13.5-12.7 28.4-21.4 68.7-36.1 107.3-39.3 14.3-1.2 38.4-1.2 48.5-.1zm-144.7 59.5c40.8 4.3 69.4 12.2 103.9 29 50.9 24.8 91.8 61 117.4 104.1 6.1 10.1 15.6 28.4 19.3 37 .9 2.1 2.7 6.1 3.8 8.9 3.2 7.3 11.9 31.9 14.2 40 10.2 35.6 15.9 64 19.4 95.9 1.7 16.2 1.9 49.6.4 71.1-1.2 16.3-5.8 48.6-9.4 65-6.6 30.2-14.5 53.2-27.8 80.2-6 12.3-7.8 15.4-17.4 29.8-22.2 33.3-54.4 60.7-87.9 74.5-7.3 3.1-13.6 5-27 8.1-4.4 1-10.9 2.6-14.5 3.4-7 1.7-23 3.9-40.5 5.6-23.7 2.4-61.9-.6-86-6.7-11.7-2.9-29.6-8.3-31-9.4-.5-.4-2.8-1.3-5-2-4.4-1.5-22.5-10.6-29.7-15l-4.7-2.9-7.3 3c-4 1.7-10.7 4-14.8 5.1-4.1 1.1-9.3 2.5-11.5 3.1-2.2.6-10.1 1.1-17.5 1.1-12 0-14.5-.3-23-2.8-27.3-8.2-49.1-29.6-64.6-63.4-6.1-13.2-6.4-14.8-3.1-13.7 13.4 4.1 30.6 5.4 49.7 3.5 43.2-4.1 59.2-1.6 72.7 11.3 5.3 5 6.5 5.8 7.8 4.7 2.4-2 1.8-3.2-4.1-9-12.7-12.4-21.9-31.3-25.2-51.7-1.7-10.4-1.9-16.3-1.7-50.8.3-37.2.4-39 2.2-38.7 8.9 1.7 31.6 11.8 37.5 16.7 1.6 1.4 3.3 2.5 3.7 2.5 1.4 0 14.6 13.4 18.8 19 9.3 12.4 14.7 24.3 18.9 41.5 2.4 9.5 2.8 13.6 3.1 30 .2 10.4 0 22.6-.5 26.9-1.1 9.8-.2 11.9 5.6 14.2 6.3 2.4 26.8 6.4 32.9 6.4 7.6 0 22.8-3.8 30.4-7.6 8.3-4.1 17-11.1 23.5-18.8 5.6-6.6 14.1-20 16.4-25.6.7-1.9 1.7-4 2.2-4.7 2.4-3.1 11.8-31.5 15.1-45.8 5.6-23.6 6.7-30.4 7.3-45 .7-14 .9-15.1 3-16.8 4.3-3.4 4.1-8.5-1-26.6-2.5-8.5-4.8-28.9-4.1-35.1 3.1-26.4 13.6-41 38.1-52.9 8-3.9 10.2-5.4 9.7-6.7-.4-1.1-1.3-1.4-3.2-.9-3.2.8-14.1 6.2-19.9 9.8-6.6 4.3-16.5 14.6-20.6 21.6-4.8 8.2-8.6 23.6-8.6 34.6 0 8.9 3.6 29.5 6.9 39.2 2.7 8.1 2.7 10.8-.5 14-2.2 2.2-3.2 2.5-7.4 2.1-6.8-.7-15.3-5.2-22.9-12.3-19.3-18-29.9-44.3-32.7-81.7-.6-8 1.1-26.4 3.7-39.8 3.4-17.2 14-44.8 22.9-59.1 3.4-5.6 3.8-7.9 1.3-7.9-1.7 0-3.2 2-7.3 9.5-.9 1.6-2.1 3.9-2.7 5-1.9 3.4-7 14.9-7.8 17.5-.4 1.4-1.6 4.3-2.6 6.6-1 2.2-2.3 6.2-3 9-.6 2.7-1.5 5.3-1.9 5.9-.4.5-1.1 2.9-1.5 5.2-.4 2.4-.8 4.3-1 4.3-.2 0-3.1-1.8-6.4-4-7.5-5-23.3-13.3-28.6-15-2.2-.7-4.5-1.6-5-2.1-.6-.4-4.4-1.6-8.5-2.7s-8.8-2.5-10.5-3.1c-1.6-.5-7.7-1.7-13.4-2.6-5.8-.9-10.8-1.8-11.2-2-.4-.3-8.4-1-17.8-1.5-29.6-1.8-77.7 2.2-98.6 8.2-3.8 1.1-10.8 3.1-15.5 4.4-4.7 1.4-11.4 3.3-15 4.3-3.6 1.1-13.7 3.6-22.5 5.6-8.8 2-18.5 4.3-21.5 5-7.1 1.6-8.6.7-2.6-1.5 2.5-1 7.9-3.5 11.8-5.5 29-14.7 46-33.9 49.8-56.4 1.1-6.5 1.4-7.1 3.6-7.1 3.3 0 3.2-3.9-.2-7.9-3-3.6-4.7-3.8-9.1-1.1-4.3 2.6-4.3 5-.2 5h3.2l-.7 6c-1.4 11.9-7.3 24.1-16.7 34.4-10.1 11-22.9 19.6-39.9 26.9-8 3.4-28.4 9.7-31.6 9.7-1.4 0-3.2-1.2-4.8-3.3-7-9.1.1-29.5 18.8-54 4.1-5.4 19-23.2 22.7-27.2 8.8-9.4 12-16.9 14.4-33.5.8-5.8 2-13 2.5-16s1.7-9.8 2.5-15c5.4-32.6 19.7-57.7 43.5-75.9 12.9-9.9 17.9-12.7 34.5-19.5 50.7-20.8 113.3-30.3 164.1-25.1z" fill="#33667F" stroke="#33667F" stroke-width="3"/><path d="M263.4 675.5c0 8.8.2 12.3.3 7.7.2-4.6.2-11.8 0-16-.1-4.2-.3-.5-.3 8.3z" fill="#369" stroke="#369" stroke-width="3"/><path d="M387.8 223.7c2.3.2 6.1.2 8.5 0 2.3-.2.4-.4-4.3-.4s-6.6.2-4.2.4z" fill="#337F99" stroke="#337F99" stroke-width="3"/><path d="M529.3 164.7c3.1.2 8.3.2 11.5 0 3.1-.2.5-.3-5.8-.3s-8.9.1-5.7.3zM351.4 757c0 5.8.1 8.1.3 5.2.2-2.8.2-7.6 0-10.5-.2-2.8-.3-.5-.3 5.3z" stroke-width="3" fill="#4C7FB2" stroke="#4C7FB2"/><path d="M499.5 167.4c-34.3 4.8-62.9 15.1-88 31.7-5.5 3.6-12.7 9.1-16 12.2l-6 5.6 9.5.1c9.4.1 11.8.3 33.5 3.4 25 3.6 56.8 13.1 79.8 24.1 3 1.4 5.6 2.5 6 2.5.3 0 .8-2.4 1.2-5.3 1.7-12.6 10.4-24.9 32.4-45.7 15-14.1 21.1-21.1 21.1-24 0-6.7-40.1-9.2-73.5-4.6zm-136 57.2c-5.6.4-15.6 1.6-32.5 4-30.1 4.2-66.3 14.6-92.4 26.7-23.6 10.8-46.5 33.1-56.3 54.7-6.3 13.8-11.5 35.8-14.3 59.5-.6 5.5-1.6 11.6-2.1 13.5-.6 1.9-1.7 5.9-2.4 8.7-1.8 6.6-5.3 12.2-11.9 19.3-2.8 3-7.1 7.9-9.6 10.8-2.5 3-5.4 6.4-6.5 7.6-3 3.4-11.4 15.3-16.1 22.7-11.5 18.2-14.7 35.1-7.3 39.7 1.6 1 3.1.9 8.2-.4 9.6-2.4 18.7-5.4 24.5-8 2.9-1.3 5.5-2.4 5.7-2.4.3 0 4.9-2.5 10.2-5.5 10.5-5.9 20.6-14 27.2-22 7.2-8.5 13-22.5 13.1-31.2 0-2.5-.4-3.2-2.2-3.5-1.6-.2-2.4-1.1-2.6-2.9-.4-3.3 3.5-6.1 8.4-6.1 4.1 0 6.2 1.6 8.1 6 1.6 3.9.2 7.7-2.7 6.9-1.5-.4-1.9.4-2.4 4.4-1.8 13.4-10.6 28.8-22.8 39.7-9.7 8.8-14.4 11.9-30.3 20.2-3.3 1.7-5.1 2.8-4 2.5 1.1-.4 6.7-1.7 12.5-3 11.4-2.6 24.5-5.9 38.5-9.9 5-1.3 14-3.9 20-5.5 6.1-1.7 16.9-3.8 24-4.7 14.5-1.7 13.5-1.5 19-4.9 13.7-8.6 36.2-18 48-20 2.2-.4 6.3-1.3 9-2.1 17.2-4.7 53.5-4.4 75.7.6 13.1 3 28.2 7.5 35 10.4l3.7 1.6 3.1-5.8c1.8-3.1 4.2-7.4 5.3-9.4 2.4-4.5 5.5-5.8 7.3-3.3 1.4 1.9 1 3.7-1.8 7.7-2.3 3.4-12.3 23.5-13.3 26.8-.4 1.4-1.3 3.8-2 5.5-3 6.9-6.6 20.3-9 33.1-9.2 50.2 6.6 101.2 37.8 121.5 7.1 4.6 14.7 6.5 18.5 4.7 3.8-1.8 4-6.7.8-17.6-1.4-4.8-3.3-13.2-4.1-18.7-5-33.6 4.1-58.1 27.6-73.6 15.9-10.5 25.4-13.4 25.4-7.9 0 2.5-1 3.3-7.6 5.8l-3.4 1.4 4.2 8.6c7.3 15 10.8 27.4 14.3 50.7 1.2 7.3 1.1 34.9 0 42.5-.4 3-1.3 9.3-1.9 14-2.4 17.5-10.9 51.6-14.7 58.7-.7 1.6-1.4 3.5-1.4 4.3 0 .8-1.1 3.7-2.5 6.5-1.3 2.7-2.5 5.4-2.5 5.8 0 .8-5.8 12.7-8.4 17.2-10.7 19.1-25.7 37-39.7 47.2-12.8 9.4-32.7 18.1-46.4 20.3-8.8 1.4-24.9 2.5-33.7 2.4-15.1-.3-36.8-5.8-36.8-9.4 0-1-.4-2-1-2.2-.6-.2-.5-6.3.2-16.5 4.5-64.8-20.4-108.3-72.1-125.8-4.1-1.4-7.9-2.5-8.5-2.5-.8 0-1 12.5-.9 41.8.2 41 .2 41.9 2.7 52.5 1.5 5.9 3.1 11.5 3.6 12.5.5.9 1.7 3.5 2.5 5.7 3.1 7.9 10.6 19.2 17.4 26.5 5.6 5.9 6.8 7.7 6 9.1-2.1 4-4.9 3.4-10.8-2.4-6.9-6.9-14.3-10.4-25.9-12.3-11.2-1.8-18.2-1.8-35 .2-17.7 2.1-48.4 1.5-55.2-.9-7.3-2.7-7.3-2.6-2.9 7.1 10.4 22.8 22.5 39.4 37.2 51 7.2 5.6 15.5 10.4 21.2 12.2 2.2.7 4.5 1.6 5 2 2.8 2.1 15.5 3.3 28.9 2.7 14.4-.6 23.1-2.4 36.1-7.8 10.5-4.4 10.7-4.4 15.6-1.3 15.8 10.1 35.1 18.1 61.9 25.8 6.1 1.7 25.3 5.2 37 6.7 10.1 1.3 53.9 1.3 62 0 3.6-.5 11.5-1.7 17.5-2.6 30.4-4.5 60.7-14.2 76-24.2 17.9-11.7 26.1-18.1 37.2-29.1 20-19.7 35-41 47.8-67.7 8.5-17.8 8.9-18.9 13.8-33.5 13.9-41.3 18.9-69.7 22.2-124.3 1.3-21.8 1.4-29.8.6-36.5-.6-4.8-1.8-15.4-2.6-23.5s-1.9-16.5-2.4-18.5-1.5-7.3-2.1-11.7c-1.8-12.9-8.1-39.8-14.4-61-2.7-9.2-9.4-27.7-14.1-39.5-2.8-7.1-17.3-36.3-20.7-42-20.5-33.7-41.9-56.5-75.5-80.8-9.9-7.1-40-25.2-41.9-25.2-.3 0-3.2-1.3-6.7-2.9-18.1-8.6-39.7-16.1-56.2-19.5-3.8-.8-7.7-1.7-8.5-2-.8-.3-9.4-1.7-19-3.1-16.9-2.5-49.5-4-63.5-2.9zM227.3 330.2c3.8 2.7 5.7 6.8 5.7 12.3 0 8.7-5.4 14.5-13.6 14.5-8.5 0-13.4-5.7-13.4-15.6 0-5.4.2-5.9 4-9.5 5.6-5.3 11.3-5.9 17.3-1.7z" stroke-width="3" fill="#69C" stroke="#69C"/><path d="M213.9 331.3c-9.3 6.2-8.6 17.7 1.3 22.8 4 2 4.2 2 8 .3 5.8-2.6 7.8-5.7 7.8-11.8 0-5.8-1.5-8.5-6.4-11.5-4.3-2.7-6.5-2.6-10.7.2zm5.1 6.6c1.5 2.9 1.2 4.5-1.1 7-2.1 2.2-5.5 2.1-7.1-.3-1-1.4-1-7-.1-7.9 1.5-1.6 7.2-.7 8.3 1.2z" fill="#001933" stroke="#001933" stroke-width="3"/><path d="M179.4 718c0 5.2.1 7.4.3 4.7.2-2.6.2-6.8 0-9.5-.2-2.6-.3-.4-.3 4.8z" fill="#B2E5FF" stroke="#B2E5FF" stroke-width="3"/><path d="M354.3 437.7c2.6.2 6.7.2 9 0s.2-.3-4.8-.3c-4.9 0-6.8.1-4.2.3zM264.4 593c0 8.5.2 12 .3 7.7.2-4.2.2-11.2 0-15.5-.1-4.2-.3-.7-.3 7.8z" stroke-width="3" fill="#CCE5FF" stroke="#CCE5FF"/><path d="M262.4 713.5c0 6 .1 8.4.3 5.2.2-3.2.2-8.1 0-11-.2-2.9-.3-.3-.3 5.8z" fill="#337FB2" stroke="#337FB2" stroke-width="3"/><path d="M262.4 679c0 13.5.2 19 .3 12.2.2-6.7.2-17.7 0-24.5-.1-6.7-.3-1.2-.3 12.3z" fill="#337FCC" stroke="#337FCC" stroke-width="3"/><path d="M252.5 472.7c-24.8 3.3-24.8 3.3-27.3 9.1-1.1 2.6-2.6 7-3.3 9.7-1.2 5-2.5 7.5-3.9 7.5-1.2 0-3-8.4-3-13.9v-5l-4.2 1.4c-2.4.8-6.3 1.9-8.7 2.5l-4.4 1.1.6 5c.7 5.5-.5 6.4-2.7 2.1-2.7-5.2-3.3-5.3-14.2-2.6-5.4 1.4-12.8 3.2-16.4 4-3.6.8-9.2 2.1-12.6 2.9-7.6 1.9-27.2 4.5-33.7 4.5-4.7 0-4.8.1-4.5 2.7.3 2.6.7 2.8 5.3 3.1 2.8.1 7.3-.4 10-1.2 2.8-.8 10.4-2.9 16.9-4.7l11.9-3.3 7.1 1.8c3.9 1 8.3 2.4 9.7 3.2 4.8 2.4 14.9 13.8 14.9 16.8 0 .4-1.6.5-3.6.1-2-.3-7.6-.6-12.4-.6-9.8 0-15.3 1.8-21.4 7.2-4.1 3.6-6.9 10.9-6.4 17.1l.3 4.3h6c4.7 0 7.5-.8 12.8-3.3 9.9-4.7 11.9-4.2 13.8 3.5.6 2.2 1.2 46.9 1.4 103.1.3 63.8.9 100.9 1.6 104 2.3 10.6 10.2 17.2 20.7 17.2 5.6 0 7.7-1 5.3-2.4-.4-.3-1.1-1.8-1.5-3.3-.3-1.6-1.5-6.2-2.6-10.3-4.4-16.1-8.1-78-4.8-80.1 2.1-1.4 3.6-1 5.2 1.3 1.3 1.8 1.6 5.3 1.6 17.1 0 16 1.6 41.5 3 48.7 2.5 12.9 4.4 19.9 6.3 23.7 2.4 5.1 1.8 5 20.7 2.8 11.9-1.4 14.3-1.4 24.4 0 6.1.8 12.4 1.8 13.9 2.1l2.9.7-3.1-6.1c-4.8-9.5-7.9-18.5-10.2-29.6-1.9-9.2-2.1-13.2-1.9-45 0-19.2-.2-38.1-.6-42-.7-6.6-1-7.4-4.8-11l-4.1-3.8 7 .5c3.9.3 8.5.9 10.2 1.3l3.3.6-2-5.7c-1.1-3.2-2.4-6.3-2.8-6.9-.5-.6-1.8-3.8-2.9-7.1-1.8-5.6-2-8.4-1.8-39 .1-35.9.8-41.5 5.3-48 2.3-3.3 3.7-4.2 8.2-5.3 13.1-3.2 12.9-3.1 15.1-7.3 1.9-3.8 1.9-4.3.4-8.8-.8-2.6-3.1-6.3-5.1-8.2-3.2-3.1-4.1-3.4-10.7-3.7-8.9-.5-14.3.9-19.1 4.7-6.8 5.4-11.3 13-16.8 27.8-1.6 4.6-3.4 8.3-3.9 8.3-1.2 0-1.1-19.2.1-24.5 2.7-12.4 8.6-23.3 16.7-31.1 5.3-5 9.9-7.7 18.3-10.4 5.1-1.7 5.2-1.8 2-1.8-1.9 0-11.6 1.1-21.5 2.5zm-35.4 135.8c-.2 21.9-.6 28.5-1.7 30.2-1.7 2.6-2.4 2.8-4.7 1-1.5-1.1-1.6-3.8-.9-29.2.4-15.4 1.1-28.6 1.6-29.3.4-.7 2-1.2 3.4-1l2.7.3-.4 28zm26.8-10.8c.5 1.1.5 5.8-.2 12.3-1.5 15-1.4 85.9.1 93.5 5.6 28.1 5.7 29.9 2.7 30.3-4.2.5-4.5-.4-9.2-23.3-1.3-6.6-1.6-15.2-1.7-49-.1-44.7.7-61.7 3.1-64 1.9-2 4-1.9 5.2.2z" fill="#3399E5" stroke="#3399E5" stroke-width="3"/><path d="M263.4 569c0 9.1.2 12.8.3 8.2.2-4.5.2-11.9 0-16.5-.1-4.5-.3-.8-.3 8.3zm-83 98.5c0 6.6.1 9.2.3 5.7.2-3.4.2-8.8 0-12-.2-3.1-.3-.3-.3 6.3z" stroke-width="3" fill="#4C99E5" stroke="#4C99E5"/><path d="M179.3 607c0 4.7.2 6.6.4 4.2.2-2.3.2-6.1 0-8.5-.2-2.3-.4-.4-.4 4.3zm1.1 117c0 9.6.2 13.6.3 8.7.2-4.8.2-12.6 0-17.5-.1-4.8-.3-.8-.3 8.8z" stroke-width="3" fill="#4CB2FF" stroke="#4CB2FF"/><path d="M179.4 631c0 9.1.2 12.8.3 8.2.2-4.5.2-11.9 0-16.5-.1-4.5-.3-.8-.3 8.3z" fill="#66B2FF" stroke="#66B2FF" stroke-width="3"/><path d="M179.4 669c0 5.2.1 7.4.3 4.7.2-2.6.2-6.8 0-9.5-.2-2.6-.3-.4-.3 4.8z" fill="#7FCCFF" stroke="#7FCCFF" stroke-width="3"/><path d="M180.4 693c0 8 .2 11.2.3 7.2.2-3.9.2-10.5 0-14.5-.1-3.9-.3-.7-.3 7.3z" fill="#4C99FF" stroke="#4C99FF" stroke-width="3"/><path d="M179.4 690c0 6.9.1 9.7.3 6.2.2-3.4.2-9 0-12.5-.2-3.4-.3-.6-.3 6.3z" fill="#9CF" stroke="#9CF" stroke-width="3"/><path d="M529.3 1121c.3 1.2 2.5 1.5 11.8 1.6h11.4l-11-.3c-7.1-.3-11.2-.8-11.8-1.6-.6-.9-.7-.8-.4.3zm-241.9 18c0 5.2.1 7.4.3 4.7.2-2.6.2-6.8 0-9.5-.2-2.6-.3-.4-.3 4.8z" stroke-width="3" fill="#FFE5CC" stroke="#FFE5CC"/><path d="M233.4 1124.5c0 9.9.2 13.8.3 8.7.2-5.1.2-13.2 0-18-.1-4.8-.3-.6-.3 9.3zm262.9-5.5c0 4.7.2 6.6.4 4.2.2-2.3.2-6.1 0-8.5-.2-2.3-.4-.4-.4 4.3zm34.7 14.6c5.8.8 14.8.8 14.3.1-.2-.4-4.1-.6-8.6-.6-4.5.1-7.1.3-5.7.5zm57 17.2.5 13.7.3-12.9c.1-7.1-.1-13.3-.5-13.7-.4-.5-.6 5.4-.3 12.9zm-61 2.9c-.3 7.8-.1 13.9.3 13.4.4-.4.6-6.8.5-14.2l-.3-13.4-.5 14.2z" stroke-width="3" fill="#FF7F19" stroke="#FF7F19"/><path d="M535.3 1123.7c3.1.2 8.3.2 11.5 0 3.1-.2.5-.3-5.8-.3s-8.9.1-5.7.3z" fill="#FFB266" stroke="#FFB266" stroke-width="3"/><path d="M369.6 1093.7c-1.1 2.2-1.4 10.1-1.7 37.1-.4 29.6-.2 34.4 1.1 35.3.9.6 7.9.9 19 .6 16.1-.4 17.9-.7 23-3 6.5-2.9 11.6-8.1 15.6-15.6 2.4-4.5 2.8-6.4 2.7-12.5-.1-9.9-4.1-17.7-13.7-27.2-10.8-10.6-26.4-17.3-40.3-17.4-3.6 0-4.5.4-5.7 2.7zm24.6 14.3c1.3.6 3.4 1.7 4.8 2.5 3.6 2 14 12.5 14 14.1 0 .8.4 1.4 1 1.4 1.6 0 3.2 8.2 2.6 12.8-.3 2.5-1.9 6.2-3.8 8.8-4.3 6-11 8.5-23.3 8.7l-9 .2-.3-22c-.2-12.1 0-23.5.3-25.4l.6-3.4 5.4.7c3 .3 6.4 1.1 7.7 1.6zm-168.9-4.8c-.4.7-1 6.1-1.3 12-.3 5.8-.8 10.9-1.2 11.3-.3.4-2-.1-3.7-.9-4.6-2.4-10.5-2-15.9 1.1-2.6 1.5-5 3.3-5.5 4-.4.6-1.3 1.8-2 2.5-3.3 3.3-4.7 12.9-2.8 19.5 1.2 4 5.7 9 10.3 11.4 4.2 2.2 12.4 2.5 16.3.7 2.1-.9 3.1-.9 4.6 0 3.3 2.1 6.8 1.5 7.5-1.3.9-3.8 2-57.3 1.2-59.6-.8-2.2-6.2-2.7-7.5-.7zm-5.7 30.9 3.4 2.1v8.7c0 10.6-1.1 12.2-9.4 12.9-4.8.4-5.6.1-8.5-2.4-3.5-3.2-4.8-8-3.7-13.7.7-3.5 4-8 6.6-9 3.3-1.2 8.4-.6 11.6 1.4zm268.6-30.4c-1.3 2.5-2.2 58.5-1 60.6 1.4 2.7 6.6 2.2 7.7-.6 1.1-2.9 1.8-58.8.7-60.5-1.1-1.9-6.4-1.5-7.4.5zm40.9-.7c-1.8.4-4.4 1.9-5.7 3.2-2.5 2.4-6.4 12.2-6.4 15.8 0 1.7-.7 2-3.9 2-4.5 0-6.4 1.8-5.9 5.7.3 2.5.8 2.9 4.8 3.3l4.5.5v17.1c0 18.3.5 20.4 5.1 20.4 4.3 0 5.4-3.3 5.5-17 0-6.9.3-14.3.7-16.5l.7-4h17l-.4 14.1c-.2 9.3.1 14.9.8 16.3 1.5 2.8 6.6 2.9 8.1.2 1.5-2.9 1.3-37.4-.2-38.9-.8-.8-5.3-1.2-13.6-1.2h-12.4l.7-4.3c1.3-7.6 1.5-7.8 13.3-9.1 3.6-.3 4.2-.1 4.2 1.4 0 2.3 3.6 5 6.7 5 2.3 0 5.3-3.4 5.3-6.1 0-3.2-3.5-5.2-7.9-4.4-3.3.5-4.1.4-4.1-.9 0-3.3-8.4-4.6-16.9-2.6zM291 1123c-1.2.7-1.7 4.9-2.4 20.4-1 21.8-.8 22.9 4.8 22.4l3.1-.3.8-12c1.1-16.2 1.1-16.2 5.5-18.1 4.9-2.1 7.6-2 11.8.2 3.5 1.9 3.6 1.9 5-.1 2.5-3.4 1.4-6.7-3.1-9.2-4.4-2.5-10-2.9-13.9-1.2-2.1 1-2.9.8-5.2-1-2.9-2.3-4.2-2.5-6.4-1.1zm273-.3c-.8.3-1.8 1.1-2.2 1.7-1.1 1.5-1 38.8.1 40.4 1.3 2.1 5.4 1 6.8-1.8.8-1.6 1.3-6.7 1.3-13.7V1138l5-2.5c6.3-3.2 8.5-3.1 11.5.1 2.3 2.5 2.5 3.4 2.7 16.3l.3 13.6 2.7.3c4.7.6 5.8-2.6 5.8-16.2 0-10.1-.3-12.7-2.2-16.7-1.7-4-2.9-5.1-6.9-6.8-5.7-2.5-7.3-2.6-12.9-.6-4.2 1.5-4.3 1.4-6.6-1-2.4-2.6-2.9-2.7-5.4-1.8zm-314.1 4.5c-6.5 5.1-8 7.7-8.6 15.1-1 11.8 1.6 17.6 9.8 21.7 10.5 5.4 28.9-.2 28.9-8.8 0-2.8-2.9-3.5-5.8-1.5-5 3.6-6.8 4.3-11.5 4.3-2.7 0-6.5-.7-8.4-1.6-3.9-1.9-7.1-6-5.7-7.4.5-.5 6.1-1.6 12.5-2.3 16.9-2.1 19.3-4 16.4-12.7-2.3-6.8-7.7-10-16.9-10-5.7 0-6.9.4-10.7 3.2zm16.7 5.3c2.5 1 3.5 2 3.2 3.2-.3 1.5-2.1 2-9.8 3-5.2.6-9.7.9-10 .7-.2-.3.2-1.7 1.1-3.2 2.8-5 8.9-6.5 15.5-3.7zm180.9-6.2c-2.2 1.2-5.3 4.3-7 6.7-2.8 4.1-3 5.2-3 13 0 7.5.3 8.9 2.5 11.9 6 8 19.2 10.6 29 5.6 5.3-2.7 7.3-5.3 6.8-8.8-.4-3.2-3.1-3.2-6.9 0-2.9 2.5-4.1 2.8-10.3 2.8-5.9 0-7.6-.4-10.3-2.4-3.1-2.3-4.8-5.7-3.3-6.6.4-.2 5.2-.9 10.6-1.6 12.9-1.4 17.1-2.5 18.4-4.9 2.7-5.1-.6-12.7-7.1-16-5.4-2.8-14.2-2.7-19.4.3zm15.5 6.2c1.7.9 3 2.4 3 3.4 0 1.5-1.1 1.9-6.7 2.5-3.8.4-8.3.9-10 1.2-2.5.5-3.3.3-3.3-.8 0-1.8 3.9-6.3 6-7.1 2.9-1.1 8.1-.7 11 .8z" stroke-width="3" fill="#FF7F00" stroke="#FF7F00"/></svg>