<svg version="1.0" xmlns="http://www.w3.org/2000/svg" viewBox="0 0 782 1259"><g fill="#FFF" stroke="#FFF" stroke-width="3"><path d="M0 629.5V1259h782V0H0v629.5zm286-502c11 2 25.1 5.3 26.4 6.3.6.5 3.1 1.4 5.6 2.1 6.4 1.8 23 10.2 31.4 15.8 14.4 9.7 33.7 31.2 37.6 42 2.5 6.8 4.4 9.3 7.1 9.3 1.4 0 7 .7 12.5 1.5 5.4.8 10.4 1.5 11 1.5.7 0 1.3-2.8 1.6-6.9.8-11.2 6.9-19.4 18.3-24.7 5.7-2.6 8.1-2.4 9.1.8.7 2.4.6 2.5-7.3 6.8-8.9 4.7-12.3 9.6-13 18.3-.4 4.7-.2 6.6.8 7.2.8.6 1.7.2 2.3-1 2.2-3.8 7-8.7 10-10.2 6.1-3.2 21.8-1.4 22.9 2.7.3 1-.1 2.6-.7 3.6-1 1.3-1.8 1.4-5.2.5-8.3-2.3-15.4-.7-18.8 4.1-2.2 3.1-2 3.5 1.6 4.4 5.1 1.1 23.3 9.9 31.2 15 8.5 5.6 21.4 16.4 27.5 23.1 13.2 14.5 28.7 39.7 36.3 59.3 2 5.2 8.7 18 11.9 22.7 3.4 4.9 9.8 10.5 14.4 12.7 4.9 2.3 12.9 2 18.3-.6 8.8-4.5 17-16.5 20.8-30.8 2.4-8.9 2.4-27.2.1-36-2.5-9.5-8-19.8-14.5-27.6-10.7-12.8-12-16.2-7.8-21.1 2.4-2.7 2.7-2.8 14.3-3.1 6.5-.2 12.2-.8 12.7-1.3s1.1-4.5 1.2-8.9c.5-14.1 4.2-21 11.4-21 7.9 0 20.6 15.2 37.3 45 10.6 18.8 14.5 28.9 18.1 46.3 4 19.2 3.7 37.3-.8 58-6.8 31.1-24.5 58.4-50.3 77.8-22.9 17.2-48.6 26.1-82.3 28.5l-9.5.7-8.7 8.2c-7.9 7.6-24.6 20.5-26.4 20.5-.4 0-1.5.6-2.3 1.4-1.7 1.4-10.8 6.2-18.2 9.6-16.9 7.6-41.8 12.4-61.8 11.9l-13.1-.4v6.1c0 11.6 3.5 18.7 11.5 23.2 2.7 1.5 10.4 1.7 83 2.2 73.4.5 80.4.7 85.3 2.3 6.5 2.2 12.3 7.3 15.4 13.5l2.3 4.7v125l-2.4 4.8c-2.9 6-6.8 9.9-12.8 12.8l-4.8 2.4-80.5.5c-79.1.5-80.6.5-85 2.6-10.5 4.8-12.3 10.9-11.8 39.4.3 17.5.5 20 2.5 24.2 2.7 5.9 8 9.5 15.9 10.8 3.6.6 51.8 1 121.6 1h115.6l5.7 2.2c3.9 1.4 6.8 3.5 9.6 6.6 7 8 6.9 7.3 6.9 73.9 0 39.4-.4 60.9-1.1 63.7-1.5 6-8.5 13.7-15.1 16.7l-5.3 2.4-101.5.6c-267.1 1.7-295.8 1.5-309-2.2-1.9-.6-6-1.7-9-2.5-7.2-2-22.3-10.1-31.9-17.1-13.3-9.8-27.9-26.2-34.1-38.3-7.4-14.5-13-34.7-13-47.1v-6.7l-3.7-1.3c-5.4-1.7-14.7-11.4-17.7-18.4-8.4-18.9-4.6-44 11.7-76.3 2.9-5.7 5.7-10.8 6.3-11.3.8-.6 1.3 3.8 1.8 15.6.6 16.5 2.1 34.1 3.2 40.3 1.5 8.1 5.2-1.4 6.2-16.2.7-9.8 1.8-12.4 3.7-8.7 8.7 16.8 10.1 21.3 11.1 34.1.7 10-.8 22.3-3.6 28.8l-2 4.7 2.7 6.5c10 23.8 28.7 41.7 45.3 43.7l5 .6v-348l-8.2-.5c-10.6-.7-23.5-4.7-34-10.5-23-12.6-38.3-32.8-45.5-59.7-2.6-10-2.7-10.6-2.8-44.6-.1-21-.6-36.7-1.3-40-3.2-15.9-6.5-29.6-9.2-39-1.7-5.8-3.8-13-4.6-16-.8-3-2.1-7.1-2.8-9-.8-1.9-2.8-8-4.6-13.5-1.7-5.5-4-12.7-5-16-1-3.3-2.9-9.8-4-14.5-1.2-4.7-2.7-10.3-3.3-12.5-.6-2.2-1.1-11-1.1-19.5l-.1-15.6 3.8-7.6c7.6-15.5 22.6-24 51.2-28.9 22.3-3.9 42.2-4.6 55.5-1.9 2.5.5 8.2 1.7 12.8 2.6 4.5.8 9.5 2.2 11 2.9 1.5.7 3.8 1.6 5.1 2 2.1.6 2.3.5 1.7-2.2-1.8-9.4-2.8-20.6-2.3-28 .4-7 1-9.2 3.4-13.1 3.1-5.1 8.9-9.6 14.3-11 5.2-1.4 20.4-1.3 29 .3zm100.8 963.6c3.5 1.2 5.6 5.4 4.7 9.1-1.2 4.6-6.7 5.8-25.8 5.8H349v11h15.9c14.5 0 16.1.2 18.5 2.1 1.9 1.5 2.6 3 2.6 5.4 0 2.4-.7 3.9-2.6 5.4-2.5 1.9-4 2.1-19 2.1H348v21.8l18.1.4c17.6.3 18.1.4 20 2.7 2.7 3.3 2.5 8.6-.3 10.5-1.9 1.3-6.2 1.6-26.4 1.6h-24.3l-1.9-2.5c-1.8-2.3-1.9-3.8-1.5-24.7.2-12.3.8-28.1 1.3-35.3 1.1-17.7-.9-16.5 28-16.5 13.5 0 23.9.4 25.8 1.1zm-184.9 11.6 2.4 1.6-.7 30.6c-.7 29.8-.7 30.7-2.9 32.4-1.6 1.4-3.1 1.7-5.7 1.3-4.8-.8-4.8-.8-11.2 0-8.5 1-12.4-.1-17.8-5.2-5.6-5.3-7.7-11.3-6.5-19.2 1-6.7 2.7-10.2 7-14.4 5.6-5.4 15.5-7.2 22.8-4.3 1.5.7 1.7-.2 1.7-9.3 0-8.5.3-10.3 2.1-12.6 2.4-3 5.4-3.3 8.8-.9zm207-.1 2.4 1.7-.5 30.3c-.4 27.7-.6 30.5-2.3 32.4-2.4 2.6-7.6 2.6-10 0-1.7-1.9-1.8-3.6-1.1-25.3 1-30.1 1.8-38.6 3.6-39.7 2.3-1.4 5.3-1.2 7.9.6zm91.3 1.1c2.5 2.3 2.3 6.8-.4 8.7-1.2.9-3.9 1.6-6 1.6-3.9 0-7.8 2.7-7.8 5.4 0 .8-.3 2.1-.6 3-.5 1.3.3 1.6 4.7 1.6 6.9 0 10.3 1.7 10.7 5.4.6 4.7-2.1 6.6-9.5 6.6H485v14c0 16.3-.9 19-6.5 19-5.3 0-5.8-1.4-5.6-17.4l.2-14.3-4-.7c-4.8-.7-7.7-4.2-6.7-8.1.7-2.8 4-4.5 8.7-4.5 2.7 0 2.9-.3 2.9-3.8 0-8 5.9-15.7 13.8-18.3 3.6-1.1 10.2-.2 12.4 1.8zm116.9-.8c2.3 1.8 2.4 2.5 2.1 11.5l-.3 9.6h4.1c6.8 0 10.1 5.5 6.4 10.8-1.2 1.7-2.5 2.2-5.8 2.2h-4.3l-.6 8.2c-.4 4.6-.7 10.9-.7 14 0 4.5-.5 6.3-2 7.8-2.3 2.3-6.8 2.6-9.6.6-1.8-1.3-1.9-2.5-1.6-16l.4-14.6h-4.4c-5.5 0-6.8-1.3-6.8-6.7 0-4.8 1.7-6.3 7.3-6.3h3.5l.7-10c.6-8.6 1-10.2 2.8-11.5 2.9-2 6-1.9 8.8.4zM267 1123.6c1 1.2 2.5 1.4 6.5.9 9.2-1.2 18.5 2.9 18.5 8.1 0 1.3-1 3.5-2.3 5l-2.3 2.6-5.1-1.8c-4.6-1.6-5.4-1.6-8.9-.3-4.6 1.7-5.3 4-5.3 18.6-.1 10.4-1.1 12.3-6.4 12.3-6.2 0-6.1.2-5.8-22.7.2-17.3.5-21.1 1.8-22.6 2-2.1 7.6-2.2 9.3-.1zm295.2.1c1.6 1.4 3.5 1.7 9.9 1.4 9.8-.3 12.9.8 16.6 6.2 2.8 4 2.8 4.1 2.7 19.6-.2 17.2-.6 18.1-6.9 18.1-5.1 0-5.5-1.1-5.5-16 0-9.2-.4-14-1.2-14.8-2.9-2.9-12.4 0-13.2 4.1-.3 1.2-.7 6.9-.8 12.6-.4 9.4-.6 10.5-2.7 12.2-3 2.4-6.3 2.4-8.6-.1-1.6-1.7-1.7-3.8-1.3-20.8.3-15.8.7-19.3 2.1-21.5 2.1-3.2 6.1-3.6 8.9-1zm-320.5 2.9c5.2 3.9 7.5 8.3 7 13.7-.2 2.7-.9 5.3-1.5 5.9-1 1-10.7 2.9-22.5 4.4-5.7.8-6.6 1.8-3.4 3.9 6.1 4 15.6 3.8 20.1-.4 4.1-3.9 9.5-1.8 9.6 3.6 0 3.4-6.1 8.8-11.3 10.2-13.5 3.4-25.4-.6-29.8-9.9-3.2-6.7-3.5-12.4-.9-19.3 4.2-11.1 9.9-14.9 22.2-14.5 5.9.2 8.3.8 10.5 2.4zm208.9 0c5.2 3.8 6.9 7.1 6.9 13.1 0 6.6-1.2 7.8-9.3 8.7-5.6.6-16.4 2.5-19.1 3.2-1.1.4-1 .8.3 2.3 3.9 4.3 16.5 4.5 20.9.3 3.3-3.1 7.1-2.9 8.6.5 2.3 5.1-2.3 10.9-10.5 13.2-5 1.4-15 1.3-19.1-.2-11.5-4.3-16.5-18.4-10.8-30.6 4.8-10.2 9.9-13.3 21.7-12.9 5.9.2 8.3.8 10.4 2.4zm93.5.3c1.4 1.7 1.6 4 1.1 14.9-.4 10.5-.2 13.8 1.2 18 1.3 3.9 1.5 5.6.6 7.1-1.5 2.9-5.5 3.7-8.4 1.8-2.1-1.4-2.9-1.4-8.1-.1-11 2.9-20.6-1.2-24.1-10.1-2.3-6.2-1.5-16.5 1.7-22.1 5.3-9.2 13-12.6 26.4-11.9 6.5.3 8.3.8 9.6 2.4z"/><path d="M456.8 295c-19.5 4.9-27.2 29.6-14.1 44.9 10.2 12 27.4 13.1 39.1 2.6 5.7-5.1 8-9.3 9.2-16.8 2.9-18.8-15.5-35.4-34.2-30.7zm21.2 18.9c3.8 2.7 5.1 6 4.7 11.4-.5 5.5-2.2 7.7-7.8 10.3-4.1 1.8-4.1 1.8-8.7-.6-5.7-3.1-7.4-6-6.9-12.3.8-9.8 10.7-14.4 18.7-8.8z"/><path d="M467.2 319.2c.2 1.7 1 2.3 2.8 2.3 1.8 0 2.6-.6 2.8-2.3.3-1.9-.1-2.2-2.8-2.2-2.7 0-3.1.3-2.8 2.2zm-290 817.3c-3.7 1.6-5.2 4.8-5.2 10.8 0 5.4 2.1 8.3 6.8 9.8 3.1.9 4.5.8 7.5-.5l3.7-1.5v-16.7l-3.5-1.7c-4.3-2-5-2-9.3-.2zm46.6-.4c-5.3 3.9-2.9 4.4 8 1.7 3.8-1 4-1.2 2.5-2.4-2.6-2-7.4-1.6-10.5.7zm208.8 0c-3.2 2.5-3.4 4.1-.3 3.5 12.8-2.7 13.1-2.8 10.6-4.2-3.5-1.9-7.3-1.7-10.3.7zm92.5-.2c-4.6 2.4-8.1 8.5-8.1 13.9 0 3.5.6 4.9 3 7.4 2.6 2.5 3.5 2.9 6.3 2.3 6.2-1.4 6.8-2.7 6.5-14.4-.3-9.8-.5-10.6-2.3-10.8-1.1-.2-3.5.6-5.4 1.6z"/></g><path d="M227 697.2c-.3 96.1-.2 174.4.3 173.9.4-.4.6-79 .5-174.7l-.3-173.9-.5 174.7zm229.2-163.5c20.7.2 54.9.2 76 0 21.1-.1 4.1-.2-37.7-.2-41.8 0-59 .1-38.3.2zm181.1 409c2.6.2 6.7.2 9 0s.2-.3-4.8-.3c-4.9 0-6.8.1-4.2.3zm-169 1c3.7.2 9.6.2 13 0 3.4-.2.4-.3-6.8-.3-7.1 0-9.9.1-6.2.3zm-180.5 1c4.6.2 11.8.2 16 0 4.2-.1.5-.3-8.3-.3s-12.3.2-7.7.3z" stroke-width="3" fill="#E5E5E5" stroke="#E5E5E5"/><path d="M235.5 699c0 97.1.1 136.8.2 88.2.2-48.5.2-127.9 0-176.5-.1-48.5-.2-8.8-.2 88.3zm366.8 243.7c4.3.2 11 .2 15 0 4-.1.5-.3-7.8-.3-8.2 0-11.5.2-7.2.3zm-164 1c3.1.2 8.3.2 11.5 0 3.1-.2.5-.3-5.8-.3s-8.9.1-5.7.3z" stroke-width="3" fill="#CCC" stroke="#CCC"/><path d="M380.3 210.7c3.1.2 8.3.2 11.5 0 3.1-.2.5-.3-5.8-.3s-8.9.1-5.7.3zM234.5 700c0 97.6.1 137.6.2 88.8.2-48.9.2-128.7 0-177.5-.1-48.9-.2-8.9-.2 88.7zm219.8-159.3c21.3.2 56.1.2 77.5 0 21.3-.1 3.8-.2-38.8-.2-42.6 0-60.1.1-38.7.2zM391.4 738c0 11.3.2 15.9.3 10.2.2-5.6.2-14.8 0-20.5-.1-5.6-.3-1-.3 10.3zm208.4 197.7c5.7.2 14.7.2 20 0 5.3-.1.7-.3-10.3-.3s-15.4.2-9.7.3zm-179.5 1c7.6.2 19.8.2 27 0 7.3-.1 1.1-.3-13.8-.3-14.8 0-20.8.2-13.2.3zm-132.5 1c5 .2 13.4.2 18.5 0 5-.1.9-.3-9.3-.3-10.2 0-14.3.2-9.2.3z" stroke-width="3" fill="#B2B2CC" stroke="#B2B2CC"/><path d="M153.8 729.2c.5 10.7.9 11.7 1.1 2.5 0-4.8-.2-8.7-.6-8.7-.5 0-.7 2.8-.5 6.2zm323.9 48.5c31.4.2 83.2.2 115 0 31.8-.1 6.1-.2-57.2-.2-63.2 0-89.3.1-57.8.2zm-13.4 159c2.6.2 6.8.2 9.5 0 2.6-.2.4-.3-4.8-.3s-7.4.1-4.7.3zm-142.5 1c3.9.2 10.5.2 14.5 0 3.9-.1.7-.3-7.3-.3s-11.2.2-7.2.3zm240 5c3.4.2 9 .2 12.5 0 3.4-.2.6-.3-6.3-.3-6.9 0-9.7.1-6.2.3zm-154 1c2.9.2 7.4.2 10 0 2.6-.2.2-.3-5.3-.3s-7.6.1-4.7.3z" stroke-width="3" fill="#B2B2B2" stroke="#B2B2B2"/><g fill="#CCCCE5" stroke="#CCCCE5" stroke-width="3"><path d="M263.5 134c-6 .9-11.1 3.6-13.7 7.2-2.1 3.1-2.3 4.2-2.3 17.3 0 8.1.5 15.3 1.2 17 .6 1.6 1.4 4.6 1.7 6.6.5 2.7 1.4 4 3.9 5.3 11.1 5.9 18.9 11.8 28.4 21.3 5 5.1 9.4 10.1 9.8 11.3.5 1.6 1.2 1.9 3.3 1.4 1.5-.4 3.2-1.1 3.8-1.5 1.3-1.1 20.6-7.4 25.4-8.4 1.9-.4 5.5-1.3 7.9-2.1 4-1.3 14-3.1 30.1-5.4 3.6-.5 9.3-.9 12.8-.9 3.4-.1 6.2-.3 6.2-.6 0-.9-3.4-9-3.9-9.5-.3-.3-2.6-3.4-5-6.9-5.5-8-6.6-9.4-11.6-14.4-12.8-12.7-32.4-24.5-48.6-29.3-3-.9-5.8-1.9-6.4-2.4-.5-.4-5.3-1.5-10.5-2.4-5.2-1-10.6-2.1-12-2.6-3.4-1.1-15.6-1.8-20.5-1z"/><path d="M161.5 182.6c-5.5.8-10.9 1.8-12 2.4-1.1.5-4.4 1.4-7.3 1.9-3 .6-7.8 2.2-10.8 3.6-3 1.4-5.8 2.5-6.2 2.5-.4 0-3.1 2.1-5.9 4.7-10.1 9.4-13.3 20.2-11.3 38.4.6 5.7 1.5 10.8 1.9 11.4.4.5 1.6 5 2.6 10 1 4.9 2.1 9.2 2.5 9.5.4.3 1.5 3.9 2.5 8s2.1 7.9 2.5 8.5c.5.5 1.6 3.9 2.5 7.5.9 3.6 2.2 7.8 2.9 9.5.8 1.6 1.9 5.5 2.6 8.5.7 3 1.6 5.7 2 6 .4.3 1.5 3.9 2.4 8 1 4.1 2.2 8.4 2.7 9.5.9 2.1 4.1 16 6.4 28 1.8 9.1 3.8 30.5 3.6 37.5 0 3-.3 13.6-.7 23.4-.3 10.8-.1 18.8.4 20 .6 1.2 1.8 6 2.7 10.8 1 4.9 2.1 8.8 2.4 8.8.4 0 1.5 2.5 2.5 5.5.9 3 2.1 5.5 2.5 5.5.5 0 1.4 1.4 2.1 3.1.7 1.7 1.8 3.6 2.4 4.2.6.7 2.8 3.5 4.9 6.2 2.1 2.8 5.4 6.4 7.4 8 2 1.7 4.4 3.7 5.2 4.5 5.3 5 19.8 12.4 27.7 14.1 3.3.7 6.4 1.6 7 2.1 1.8 1.4 18.5 2.1 24.4 1 16.6-3.1 32.7-10.1 40.4-17.7 1.2-1.1 3.7-3.4 5.7-5 2-1.7 6.9-7.2 10.9-12.3 4-5 7.6-9.2 8.2-9.2 4.1 0 6.2 4.5 3.3 7.4-.8.8-1.5 1.8-1.5 2.2 0 .4-2.8 4.1-6.2 8.3-6.1 7.5-19.2 19.3-22.2 19.9-.9.2-1.6.7-1.6 1.2 0 1.1-13.9 7.8-17.8 8.6-1.8.4-3.5 1-3.7 1.5-.3.4-3.9 1.3-8 2l-7.5 1.2v175.1c0 96.3-.3 176.1-.6 177.4-.9 3.1-4.3 3.7-13.5 2.5-7.3-1-18.3-5.1-22.5-8.5-5.6-4.4-15.8-14.8-17.6-17.8-1.2-1.9-2.5-3.7-2.9-4-.8-.6-7.9-14.2-9.7-18.8-1.2-2.8-1.6-3-3.3-2.1-2.3 1.2-2.2 2.9.7 21.9 3.7 24.3 19.2 48.9 40.9 65 3.3 2.5 6.2 4.7 6.5 5 .3.3 2.3 1.5 4.5 2.7 11.5 6.2 18.7 9.2 24.5 10.3 3.6.7 7 1.6 7.5 2.1 3.7 2.8 29.7 3.1 214.7 2 184.1-1.1 187.5-1.1 191.6-3.1 2.2-1.1 4.5-2 5.1-2 .5 0 1.8-1.3 2.8-3 .9-1.6 2-3 2.4-3 .4 0 1-1.6 1.4-3.6.7-4-.3-5.4-4.2-5.4-4 0-13.1-5.1-16-8.8-2-2.7-2.8-5-3.1-9.4-.4-5.1-.1-6.4 2.2-9.9 2.9-4.3 9.1-7.8 13.7-7.9 1.5 0 4.1-.3 5.8-.6 2.5-.5 3.1-1.1 2.9-2.7-.2-1.7-1.5-2.4-6.8-3.4-6.7-1.4-13.6-5.2-14.7-8.1-.4-.9-1.1-2-1.7-2.4-.5-.3-1.2-3.4-1.4-6.7-.4-4.9 0-6.6 1.8-9.6 3.4-5.4 9.2-8.7 16.7-9.3 5.7-.4 6.3-.7 6.3-2.7 0-1.9-.7-2.3-4.7-2.8-16.5-2-25.6-17-17.3-28.5 3.6-5 5.8-6.2 13.4-7.6l5.9-1.1-3.4-3.6c-1.9-2-5.2-4.3-7.4-5-3.2-1.1-27.2-1.5-124.5-1.9-123.5-.5-122.9-.5-127.6-4.2-4.3-3.4-9.4-8.9-9.4-10 0-.7-.8-2.7-1.8-4.3-1.5-2.6-1.7-6.1-1.7-28.4 0-19.5.3-25.5 1.2-25.9.7-.2 1.3-1 1.3-1.8 0-4.8 5.6-11 13.2-14.7l5.5-2.7h75.9c71.3 0 88.9-.6 90.4-2.9.3-.4 1.5-1.3 2.7-2 1.3-.6 3.2-2.9 4.3-5l1.9-3.9-4.3-.6c-5.9-.9-12.3-5.8-14.7-11.3-5-11.8 1.2-22 15.2-24.6 4.6-.8 5.9-1.4 5.9-2.9 0-1.1-1-2-2.7-2.4-1.6-.3-4.2-1.2-6-2-1.7-.8-3.6-1.4-4.1-1.4-2 0-7-5.5-8.6-9.4-2.1-5.1-2-8.5.3-13.8 2.8-6.3 9-9.8 17.2-9.8 3.6 0 3.9-.2 3.9-2.8 0-2.6-.4-2.9-5.9-4-22.9-4.7-22.4-32.7.7-35.9 2.3-.3 4.2-.8 4.2-1 0-1.3-4.2-8.2-6.2-10-5.2-4.9-3.3-4.8-87.8-5.1-46.1-.1-80.3-.6-81.5-1.1-1.1-.5-3.6-1.5-5.5-2.1-4.8-1.5-10.5-7-13.6-13.3-2-4.1-2.7-7.3-3.1-15-.4-5.9-1-10-1.7-10.2-.6-.1-5.5-1-10.8-2-5.4-.9-9.8-2.1-9.8-2.5 0-.5-1.8-1.1-4.1-1.5-5.2-.9-8.3-4-6.6-6.6.7-1.1 2.2-1.9 3.5-1.9 2.5 0 12.3 2.5 15.7 4 6.8 3 44.7 7.2 46.8 5.1.6-.6 2.9-1.1 5.1-1.1 5.3 0 22.7-2.8 24-3.9.6-.4 3.4-1.4 6.1-2.1 2.8-.7 5.9-1.8 7-2.4 1.1-.7 4.3-2.1 7-3.1 2.8-1 5.2-2.1 5.5-2.5.3-.4 2.1-1.5 4-2.4 7.9-3.6 21.9-13.8 31.3-22.7 5-4.7 5.8-5.9 4.1-5.9-5.5 0-24.4-13.8-24.4-17.7 0-.7-.4-1.3-.9-1.3-1 0-5.1-10.1-5.1-12.5 0-1.5 2.6-4.5 4-4.5 1.5 0 4 3.1 4.7 5.7 1.6 6.7 10.7 16.5 19.3 20.9 5.4 2.8 5.8 2.9 21 2.8 12.3-.1 17.4-.5 24.5-2.2 15.2-3.7 18-4.5 19-5.2.6-.4 2.8-1.3 5-2 4.1-1.3 24.6-11.6 25.5-12.8.3-.4 1.8-1.6 3.3-2.5 1.6-1 3.8-2.6 5-3.5 3.1-2.5 19.9-19.6 21.9-22.3 4.1-5.5 7.4-10.6 8.6-12.9.6-1.4 1.6-3.2 2.2-4 1.8-2.8 6.8-14.5 8.1-19 .7-2.5 1.6-4.7 2-5 .9-.7 3.9-17.7 3.9-22.2 0-2 .5-4 1-4.3.6-.4 1-5.3 1-11.5s-.4-11.1-1-11.5c-.5-.3-1-2.1-1-3.9 0-4.6-2.9-20.8-3.9-22-.5-.6-1.6-3.4-2.4-6.1-.9-2.8-2.7-7.4-4.1-10.2-1.4-2.9-2.6-5.7-2.6-6.3 0-.5-.4-1-.9-1s-1.6-1.9-2.6-4.2c-.9-2.4-2-4.5-2.4-4.8-.4-.3-1.5-2.3-2.5-4.4-1-2.2-2.3-4.5-2.8-5-.5-.6-2.4-3.6-4.3-6.6-8-12.8-17.5-24-20.5-24-1.9 0-3 5-3 13 0 6.1-.5 8.7-2.2 11.9-2.8 5.3-6.5 6.6-16.8 5.7-8.1-.7-11-.2-11 1.8 0 .6 2.1 3.6 4.6 6.6 9.6 11.6 15.4 21.7 17.4 30.5.6 2.7 1.7 6.1 2.3 7.4 1.6 3.2 1.6 30.3.1 32.2-.6.8-1.4 2.6-1.6 4.1-.5 2.5-.2 2.8 2.1 2.8 5.3 0 14 9.7 12.6 14-.9 3-6.2 2.7-7.6-.3-1.4-3.2-6.2-5.9-9.1-5.2-1.5.4-2.9 2.1-4 4.6-1.6 3.9-1.6 3.9.7 5.2 6 3.1 10.9 14.6 6.9 16.1-3.1 1.2-4.2.5-7.4-4.4-4.1-6.4-6.1-7-10.5-3.1-1.9 1.6-5.6 4.2-8.2 5.8-4.3 2.5-5.8 2.8-13.3 2.8-7.7 0-9-.3-14-3.2-9.1-5.2-17.8-15.6-23.5-28.1-1.5-3.1-3.5-7.5-4.6-9.8-1-2.2-1.9-4.5-1.9-5 0-1.3-10.9-22.6-12.6-24.5-.8-.8-1.4-1.9-1.4-2.3 0-.7-5.8-9.5-9.3-13.9-8.7-11.2-18-20.6-26.6-27-3.1-2.3-5.8-4.5-6.1-4.8-.3-.3-2.1-1.4-4-2.4s-3.7-2.1-4-2.4c-.8-1.1-15.3-7.9-18.2-8.6-1.6-.4-2.8-1-2.8-1.4 0-.4-3.5-1.5-7.7-2.5-4.3-1-8.2-2.2-8.8-2.6-2.2-1.7-22-3.5-38-3.4-16.4 0-37.9 1.8-40 3.4-.5.4-5.3 1.5-10.5 2.5s-9.9 2.1-10.5 2.5c-.5.5-3.9 1.6-7.5 2.5-3.6.9-6.9 2-7.5 2.5-.5.4-3.5 1.5-6.5 2.5s-6 2.2-6.7 2.7c-2.7 2.1-6.7.4-9.7-4.2-4.3-6.6-18.2-20-25.1-24.5-3.3-2.1-7.6-4.9-9.6-6.2-1.9-1.2-3.8-2.3-4.2-2.3-.3 0-3-1.1-5.9-2.4-2.9-1.3-7.3-3-9.8-3.7-2.5-.7-5-1.6-5.5-2-.6-.4-5.8-1.5-11.6-2.3-13.1-2-39.4-1.9-53.4 0zm39.7 46.9c12.9 2.7 30.7 13.8 48.9 30.5 16.9 15.6 31 37.1 38.8 59.2 10.3 29.2 8.6 58.5-5 85.3-4.4 8.7-6.8 12.3-12.7 19.7-18.4 23-45.1 37.3-64.4 34.4-7.4-1.1-13.8-6.1-17.4-13.4-4.3-8.7-4.7-14.5-2.4-36.8 4.3-40.8 1.8-69.2-9.5-106.9-5-17-6-22.6-5.9-35 .1-21.3 5.6-33.6 16.5-37 5.6-1.7 5.2-1.7 13.1 0zm275.4 67.3c4.4 2.3 10.3 8.3 13.1 13.4 1.3 2.4 1.8 5.5 1.8 11.8 0 9.8-1.8 14.1-8.1 20.3-6.1 5.9-9.7 7.2-19.9 7.2-8 0-9.5-.3-13.5-2.7-6.2-3.6-9.4-7.3-12.6-14.2-5.5-12-1.2-25.4 10.8-34.5 6.1-4.6 20.7-5.3 28.4-1.3zm-90.7 107.4c8.5 4.5 15.1 15.1 15.1 24.4 0 5.7-3.8 14-8.6 18.9-13.2 13.1-36.9 8.2-43.4-9.1-5.8-15.5 1.9-31.3 17.8-36.5 4.4-1.4 14.4-.2 19.1 2.3z"/><path d="M398.4 737.5c0 8.2.2 11.5.3 7.2.2-4.3.2-11 0-15-.1-4-.3-.5-.3 7.8z"/></g><path d="M454.8 692.7c21 .2 55.4.2 76.5 0 21-.1 3.8-.2-38.3-.2-42.1 0-59.3.1-38.2.2zm2.4 6c20.1.2 53.4.2 74 0 20.5-.1 4-.2-36.7-.2s-57.5.1-37.3.2zm35.1 238c7.5.2 19.9.2 27.5 0 7.5-.1 1.3-.3-13.8-.3-15.1 0-21.3.2-13.7.3zm-132.5 1c8.9.2 23.5.2 32.5 0 8.9-.1 1.6-.3-16.3-.3-17.9 0-25.2.2-16.2.3z" stroke-width="3" fill="#9999B2" stroke="#9999B2"/><path d="M480.3 783.7c31.3.2 82.1.2 113 0 30.9-.1 5.4-.2-56.8-.2-62.1 0-87.4.1-56.2.2zm38.5 159c3.4.2 8.8.2 12 0 3.1-.2.3-.3-6.3-.3s-9.2.1-5.7.3z" stroke-width="3" fill="#999" stroke="#999"/><path d="M596.4 576.5c0 9.3.2 13.3.3 8.8.2-4.5.2-12.2 0-17-.1-4.8-.3-1.2-.3 8.2zm0 41.5c0 9.6.2 13.6.3 8.7.2-4.8.2-12.6 0-17.5-.1-4.8-.3-.8-.3 8.8zm-204 120c0 10.2.2 14.3.3 9.2.2-5 .2-13.4 0-18.5-.1-5-.3-.9-.3 9.3zm174.4 198.7c8.3.2 22.1.2 30.5 0 8.3-.1 1.5-.3-15.3-.3s-23.6.2-15.2.3zm-131 1c6.1.2 16.3.2 22.5 0 6.1-.1 1.1-.3-11.3-.3s-17.4.2-11.2.3zm-149.5 1c3.1.2 8.3.2 11.5 0 3.1-.2.5-.3-5.8-.3s-8.9.1-5.7.3zm327 3c3.1.2 8.3.2 11.5 0 3.1-.2.5-.3-5.8-.3s-8.9.1-5.7.3zm-136 1c4.8.2 12.5.2 17 0 4.5-.1.6-.3-8.8-.3-9.3 0-13 .2-8.2.3z" stroke-width="3" fill="#7F7F99" stroke="#7F7F99"/><path d="M450.3 942.7c3.7.2 9.6.2 13 0 3.4-.2.4-.3-6.8-.3-7.1 0-9.9.1-6.2.3z" fill="#7F7F7F" stroke="#7F7F7F" stroke-width="3"/><path d="M143.4 398c0 6.3.1 8.9.3 5.7.2-3.1.2-8.3 0-11.5-.2-3.1-.3-.5-.3 5.8zm267.4 97.7c2.8.2 7.6.2 10.5 0 2.8-.2.5-.3-5.3-.3s-8.1.1-5.2.3zm46.5 39c20.2.2 53.2.2 73.5 0 20.2-.1 3.6-.2-36.8-.2s-57 .1-36.7.2zm1.5 163c20.4.2 54 .2 74.5 0 20.4-.1 3.7-.2-37.3-.2s-57.7.1-37.2.2zm-61.4 39.8c0 10.4.2 14.6.3 9.2.2-5.4.2-13.9 0-19-.1-5.1-.3-.7-.3 9.8zm78.4 45.2c32.1.2 84.3.2 116 0 31.7-.1 5.5-.2-58.3-.2s-89.8.1-57.7.2zm21.5 155c5.9.2 15.5.2 21.5 0 5.9-.1 1-.3-10.8-.3s-16.7.2-10.7.3zm-171.5 1c4.6.2 11.8.2 16 0 4.2-.1.5-.3-8.3-.3s-12.3.2-7.7.3zm238.5 3c3.7.2 9.7.2 13.5 0 3.7-.2.6-.3-6.8-.3-7.4 0-10.5.1-6.7.3zm-165.5 1c5.6.2 14.8.2 20.5 0 5.6-.1 1-.3-10.3-.3s-15.9.2-10.2.3zm-107 1c9 .2 23.4.2 32 0 8.6-.1 1.3-.3-16.3-.3s-24.7.2-15.7.3z" stroke-width="3" fill="#66667F" stroke="#66667F"/><path d="M676.4 818c0 7.4.1 10.5.3 6.7.2-3.7.2-9.7 0-13.5-.2-3.7-.3-.6-.3 6.8zm0 39.5c0 10.4.2 14.6.3 9.2.2-5.4.2-13.9 0-19-.1-5.1-.3-.7-.3 9.8zm0 39c0 8.8.2 12.3.3 7.7.2-4.6.2-11.8 0-16-.1-4.2-.3-.5-.3 8.3z" stroke-width="3" fill="#667F7F" stroke="#667F7F"/><path d="M257.7 128.7c-6.4 1.7-13.5 8.1-15.5 14.2-1.6 4.6-1.5 19.6.3 31.1.8 5.2 1.2 9.6 1 9.8-.3.3-3.7-.7-7.7-2-22.5-7.8-44.2-9.4-72.3-5.3-9.8 1.5-18.6 3-19.4 3.4-.9.5-3.8 1.4-6.6 2-5.2 1.3-16.6 6.5-19.9 9.1-4.5 3.5-9.5 9.7-12.2 14.9-2.6 5.2-2.9 6.6-3.2 18.6-.3 13.3.4 18.6 4.7 36.5 1.1 4.7 2.5 9.2 3 10.1.5.9 1.7 4.7 2.6 8.5 1 3.8 2.1 7.3 2.5 7.9.4.5 1.5 4.1 2.5 8 1 3.8 2.2 7.4 2.6 8 .4.5 1.5 3.9 2.4 7.5.9 3.6 2.2 7.8 3 9.5.7 1.6 1.8 5.7 2.5 9s1.6 6.4 2 7c.4.5 1.5 5.3 2.5 10.5.9 5.2 2.1 10.3 2.6 11.2 2.3 4.5 4 31.4 3.4 55.3-.4 14-.2 26.1.3 29 1.5 7.5 5.4 21.9 6.2 22.5.4.3 1.5 2.6 2.5 5.2s2.4 5.3 3.1 5.9c.8.6 1.4 1.6 1.4 2.1 0 1.9 7.3 11.2 14 17.9 16 16.1 37.4 25 62.3 25.9.4 0 .7 79 .7 175.5V873h-2.7c-9.7-.1-19.8-4.8-31.1-14.5-5.3-4.5-19.2-25.2-19.2-28.5 0-.7-1-3.2-2.2-5.6-2-4.1-2-4.4-.4-6.9 4.3-6.6 5.9-27.7 3.1-40.8-1.4-6.7-6.5-19-8.3-20.1-.5-.3-1.2 3.1-1.6 7.6-.4 4.5-1 8.6-1.4 9.2-.4.6-1.1 2.9-1.7 5.1-.7 2.9-1.6 4.1-3.2 4.3-2.2.3-2.5-.3-3.8-6.5-.8-3.8-2.6-26.1-3.2-39.6l-.4-9.8-2.3 3.4c-1.3 1.9-2.9 5.1-3.6 7.1-.6 1.9-1.5 3.8-2 4.1-.5.3-1.6 2.9-2.6 5.8-.9 2.8-2 5.6-2.4 6.2-.9 1.1-4.6 15.3-6.1 23.5-1.2 6.4-.7 24.3.8 26.2.5.7 1.7 3.4 2.7 5.9 2.6 7.2 13.9 17.9 18.9 17.9.9 0 1.7.8 1.8 1.7.6 13 4.6 35.9 6.7 38.6.5.7 1.7 3.4 2.7 6.2 1 2.7 2.3 5.7 2.9 6.5.6.8 1.9 3.1 2.9 5 5.6 11.1 20.7 27.1 35.3 37.5 7.3 5.1 22.6 12.8 29.4 14.6 20 5.5 14.5 5.3 145.5 5 66.6-.2 155.2-.7 197-1l76-.7 5.1-2.7c5.5-2.8 10.2-8 12.5-13.7 1.7-4.6 2.5-112.9.9-123-1.7-10-9.3-20-15.3-20-.8 0-1.7-.6-1.9-1.3-.4-.9-26.2-1.3-122.9-1.7l-122.4-.5-3.5-2.2c-5.2-3.2-7.6-6.2-9.9-12.3-1.9-4.9-2.1-7.6-2.1-25 .1-26.9 1.9-32.2 13-38.1l4.5-2.4 81.5-.5c46-.3 82.4-.9 83.5-1.4 6.5-3 12.6-10 14.6-16.8 1.5-5.2 2.3-114.6.8-121.6-2.1-10.2-8-17.5-16.5-20.3-3-1-22.5-1.4-83.9-1.8-75-.6-80.3-.7-84.2-2.5-5.4-2.3-10-7.5-10.9-12.1-.3-1.9-1-3.8-1.5-4.1-.5-.3-.9-4.1-.9-8.5V500h17.5c9.6 0 18.4-.4 19.7-.9 1.3-.5 6.1-1.5 10.8-2.1 4.7-.7 9.9-1.8 11.5-2.6 1.7-.7 5.3-1.9 8.1-2.7 2.8-.8 6-2 7-2.5 1.1-.6 5.7-2.9 10.4-5.2 7.3-3.6 22.5-13 24-14.9.3-.3 2.1-1.8 4-3.3 1.9-1.4 7-6 11.2-10l7.7-7.5 10.9-.6c12.1-.7 24.6-2.3 27.7-3.6 1.1-.5 5.2-1.7 9-2.6 3.9-1 7.5-2.1 8-2.5.6-.4 2.8-1.3 5-2 5-1.6 22-10.5 25.6-13.3 1.5-1.2 4.9-3.8 7.6-5.7 6.2-4.6 18.3-16.9 23.9-24.5 2.4-3.3 4.8-6.5 5.4-7.2 2.4-2.9 10.9-20.7 13.7-28.8 6-16.9 8.9-38.7 7.4-54.8-1-10.7-4.7-30.5-6.1-32.2-.4-.5-1.5-3.3-2.4-6.1-3.1-9.5-19.7-39.7-28.1-51.1-9.5-12.9-14.7-17.3-20.3-17.3-5.4 0-7.9 5.7-9.1 20.8-.4 5.7-1.1 8.6-2.1 9.2-.8.5-6.3 1-12.1 1-9.2 0-11 .3-13.3 2.1-2.8 2.2-3.3 5.1-1.3 8.5 1.2 2.1 6.9 9.3 9.6 12.1 5.4 5.6 11.6 18.5 13.8 28.6 2.1 9.4 2.7 21.3 1.5 25.7-.6 1.9-1.6 6.2-2.2 9.5-1.4 6.9-5.1 15.5-8.6 19.9-1.3 1.7-3.2 4.1-4.1 5.3-3.4 4.4-11.3 8.6-16.7 9.1-5.5.4-13.6-1.3-13.6-2.8 0-.6-.6-1-1.3-1-3.7 0-18.3-19.3-21.7-28.7-.6-1.5-1.7-4.2-2.5-5.8-.7-1.7-3-6.6-5-11-1.9-4.4-4-8.7-4.5-9.5-.5-.8-1.9-3.3-3.1-5.5-10.7-20-30.1-41.8-48-53.6-12-8-25.3-14.7-33.7-16.9-3.8-1-4.2-1.4-3.6-3.3.3-1.2 2-3.6 3.7-5.4 3.6-3.9 9.5-5.1 16.4-3.4 4.8 1.3 7.8.2 5.7-1.9-2-2-12.6-3.3-17.1-2.1-4.6 1.3-10.2 6-12.1 10.3-1.2 2.8-2.7 3.4-4.8 2-2-1.2-2.6-7-1.4-12.8 1.5-7 6.1-12.4 14.2-16.5 3.2-1.6 5.8-3.3 5.8-3.9 0-4.9-14 2.7-20.8 11.3-2.3 3-3.2 6.8-3.2 13.9v7l-4.2-.6c-2.4-.3-9-1.1-14.7-1.6-10.3-1-13.1-2-13.1-4.6 0-.8-.4-1.4-.8-1.4s-1.4-1.7-2.1-3.8c-1.9-5.4-7-13.1-15-22.9-4.3-5.2-21.3-20.3-22.9-20.3-.5 0-1.7-.8-2.8-1.8-2.5-2.2-24-12.8-27.9-13.7-1.6-.4-4.3-1.3-6-2-3.1-1.5-17-4.9-26-6.5-5.2-.9-24.7-1.1-27.8-.3zM285 133c11.9 2.3 23.3 5.1 25.1 6.1 1.1.6 4.2 1.7 6.7 2.4 8.6 2.6 27.5 12.8 35.7 19.3 9.7 7.7 25.5 25.7 25.5 29.1 0 .6.4 1.1.9 1.1s1.7 2.1 2.7 4.7c.9 2.7 2.1 5.2 2.6 5.7 2.2 2.6.2 3.2-13.4 4.4-27.4 2.4-47.5 7-69.5 15.7-7.9 3.2-8.9 3.1-10.9-.7-2-3.9-16.1-18.1-22.4-22.5-4.7-3.3-8.7-5.8-15.5-9.6-3.8-2.1-4.1-2.6-5.3-9.2-.7-3.9-1.5-12.4-1.8-19-.9-17.5.5-21.3 10.1-26.4 3.3-1.8 5.6-2.1 14.5-2 5.8 0 12.5.4 15 .9zm-73.5 46.9c13.8 2.5 18.1 3.4 19 4.1.6.5 3.3 1.5 6 2.3 2.8.8 9.1 3.6 13.9 6.1 15.4 8.1 28 18.8 37 31.4 2.1 2.8 4.2 5.2 4.7 5.2.8 0 9.4-3.2 13.4-4.9 3.6-1.6 18.8-6.3 27-8.3 20.2-4.9 44.6-7.4 62-6.3 12.7.7 31.5 3.3 33 4.4.5.5 3.5 1.4 6.5 2.1 8.9 2 23.2 8.8 35.3 16.7 3.7 2.5 7.3 5 8 5.6.6.7 3.8 3.4 7 6.1 8.3 7 16.6 16.8 24.7 29.1 2.2 3.3 4.5 6.6 5.1 7.3 1.6 2 11.3 21.8 15.2 31.2 11.9 28.7 25.9 41.5 43.3 39.7 5.8-.6 12.8-4.3 17.4-9.2 1.3-1.4 3.4-2.5 4.6-2.5 2.5 0 8.9 6 9.9 9.1.8 2.6 3.5 2.4 3.5-.2 0-2.7-4.8-9.3-8.2-11.4-3.4-1.9-3.4-2.3-.7-7.5 3.8-7.3 8.2-7.9 14.2-2 3.6 3.7 6.7 4.6 6.7 2.1 0-3.2-10.3-11.1-14.5-11.1-.8 0-1.5-.1-1.5-.3 0-.1.8-3.4 1.7-7.2 2.3-9.3 2.2-23.9-.1-33.8-3-13.3-8.2-23-18.5-35.2-9.5-11.1-8.6-12 10.6-11.5 6.9.2 7.4 0 10.3-2.8 2.7-2.8 3-3.6 3-9.9.1-6.5 1.6-14.4 3.3-17.1 2.8-4.3 11.5 3.2 22 19.1 11.3 17.1 23.6 40.2 25.3 47.2.4 1.6 1.1 3.5 1.6 4.1 1.1 1.5 4.5 18.2 5.9 28.9 1.1 8.3.5 25.4-1.1 31.5-.5 1.9-1.7 7.3-2.5 12-.9 4.7-2 8.9-2.4 9.5-.5.5-1.1 2.3-1.5 4-1 4.1-8.8 20-12.8 26-13.9 20.9-30.8 35.9-51.8 45.8-14.2 6.7-18.9 8.3-37.5 12.4-4.5 1-12.6 1.6-22.5 1.7-15.4.1-15.5.1-22-3-9.7-4.7-17.7-14-21.4-24.7-.7-2.2-3-1.8-3.4.6-.5 2.6 4.8 12.8 9.2 17.6 5 5.4 12.8 10.5 18.4 12 2.3.7 4.2 1.7 4.2 2.4 0 1.8-11.2 12.1-23.5 21.6-2.8 2.1-15.6 9.5-20.5 11.7-3 1.4-6.3 3-7.3 3.5-4 2.1-19.6 6.9-26.2 7.9-3.8.7-8.9 1.6-11.2 2.1-5.6 1.2-30.2 1.2-35.5-.1-2.4-.5-8.6-1.7-13.8-2.5-5.2-.9-9.9-2-10.5-2.4-1.2-.9-9.6-3.1-12-3.1-1 0-1.5.7-1.3 1.6.2 1.1 2.2 2.2 5.3 3.1 2.8.8 5.9 1.8 7 2.3 1.1.5 5.8 1.6 10.3 2.5 4.6.8 8.8 1.7 9.3 2.1.5.3.9 3.8.9 7.9 0 11 2.4 17.9 8.5 24.2 3 3.1 6.6 5.6 9 6.4 3.1 1 22.4 1.4 84 1.9 58.9.4 81 .9 83.7 1.8 4.1 1.4 9.3 6.8 11.4 11.8 2.2 5.3 1.9 6.4-2.2 6.4-5.1 0-14.1 4.5-15.9 8-1.7 3.3-2 10.4-.5 14.6 1.4 4 9.3 9.2 15.3 10l4.7.7v4.2c0 4.3 0 4.3-4.2 5-7.5 1.1-10.6 2.5-13.8 6.1-2.6 3-3 4.3-3 9 0 8.7 2.8 12.3 12.3 16 3.3 1.3 6.7 2.4 7.4 2.4.8 0 1.3 1.3 1.3 3.9v3.8l-5 .7c-5.9.8-13.4 5-14.9 8.3-1.6 3.5-1.3 11.9.4 15.4.9 1.6 3.2 4 5.3 5.3 3.7 2.3 5.1 2.8 10.5 4 1.5.4 2.7 1.3 2.7 2 0 2.2-5.2 9.5-7.2 10.2-1 .3-1.8.9-1.8 1.4 0 .4-1 1.1-2.2 1.6-1.3.4-39 1.1-83.8 1.4l-81.5.5-5 2.7c-6.8 3.6-10 7.2-13 14.8-2.4 6.1-2.5 7.4-2.5 27s.1 20.9 2.5 27c2.9 7.5 5.8 10.8 12.3 14.1l4.7 2.4 121 .5 121 .5 4.7 2.2c4.5 2.1 11.4 9.6 10.3 11.3-.2.4-2.9 1-6 1.3-19 2-22.7 22.2-5.5 30.1 3.1 1.4 7 2.6 8.7 2.6 3.8 0 5.5 2 5.1 5.7-.3 2.6-.6 2.8-5.3 3.1-2.7.1-6.4.9-8.2 1.7-1.7.8-3.5 1.5-3.9 1.5-1.3 0-5.4 4.3-5.4 5.7 0 .7-.4 1.3-1 1.3-.5 0-1 2.3-1 5 0 9.4 7.6 16.5 18.9 17.8 5.1.5 6.1 1.4 6.1 5.5 0 3.1.1 3-9.4 4.5-3.8.6-8.1 1.9-9.5 3-10.2 7.6-7.1 22.4 5.8 27.3 3.1 1.1 7.1 2.3 9 2.6 3.3.6 3.3.6 2.7 5.1-.8 6.3-4.2 10.8-10.1 14l-5 2.7-65.5.6c-36 .4-124.2.8-196 1-131.2.4-140.8.2-148.5-3-1.1-.5-4.7-1.6-8-2.4-10.2-2.7-26-12.1-39.9-24-9.1-7.8-23.8-27.9-26.1-35.7-.4-1.4-1.5-4.3-2.5-6.5-3.4-7.6-7.9-34.3-6.5-38.5.3-.8 1.7-2.3 3.1-3.3 2.5-1.8 2.6-1.8 3.9 0 .8 1 1.7 2.9 2 4.3 2.6 10.6 17.7 30.9 28.4 38.3 9.3 6.4 21.1 10.3 29.1 9.5l3.5-.3.5-177.5c.3-97.6.6-177.5.8-177.6.1-.1 3-.4 6.3-.8 3.4-.3 6.7-1 7.3-1.4.6-.5 3.4-1.5 6.1-2.2 15.8-4.3 35.9-19.8 46.8-36.3 3.5-5.2 4-7.7 1.7-7.7-.5 0-3.4 3.3-6.4 7.4-3.1 4-7.5 9.2-9.7 11.5-9.7 9.7-26.1 19.9-34.9 21.6-1.9.4-4 1.1-4.6 1.6-2.3 1.9-20.4 3.1-29.7 1.9-5-.6-9.6-1.5-10.2-1.9-.5-.5-2.6-1.1-4.5-1.5-5.9-1.1-20-8.6-27.4-14.6-8.5-6.8-19.3-20.7-23.1-29.5-1-2.2-2.4-5.4-3.2-7-1.2-2.7-2.8-8.7-5.5-20.5-.6-2.8-.7-13.2-.3-27.2.6-21.7-.4-42.4-2.5-52.3-4.5-20.9-9.3-40.4-11-44-.5-1.1-1.6-4.7-2.5-8-.9-3.3-2-6.9-2.6-8-.9-2-3.2-9.4-7-23-1.1-3.9-2.4-7.7-2.8-8.6-.5-.8-1.6-4.9-2.6-9-.9-4-2-8.1-2.5-9-1.7-3.3-3.2-18.2-2.9-29.1.4-10 .7-11.9 3.2-16.8 7.1-13.6 23-22 48.7-25.6 5.8-.8 12.5-1.9 15-2.3 5.8-1.2 30.7-.7 38.5.8z" fill="#4C4C66" stroke="#4C4C66" stroke-width="3"/><path d="M233.5 699c0 97.1.1 136.8.2 88.2.2-48.5.2-127.9 0-176.5-.1-48.5-.2-8.8-.2 88.3zm226.8-159.3c20.3.2 53.1.2 73 0 19.9-.1 3.4-.2-36.8-.2-40.1 0-56.4.1-36.2.2zm-102 403c2.6.2 6.7.2 9 0s.2-.3-4.8-.3c-4.9 0-6.8.1-4.2.3z" stroke-width="3" fill="#4C6666" stroke="#4C6666"/><path d="M153.3 734c0 4.7.2 6.6.4 4.2.2-2.3.2-6.1 0-8.5-.2-2.3-.4-.4-.4 4.3zm222 208.7c2.6.2 6.8.2 9.5 0 2.6-.2.4-.3-4.8-.3s-7.4.1-4.7.3z" stroke-width="3" fill="#666" stroke="#666"/><path d="m228 696.8.5 174.7.3-173.9c.1-95.7-.1-174.3-.5-174.7-.5-.5-.6 77.8-.3 173.9z" fill="#7F9999" stroke="#7F9999" stroke-width="3"/><path d="M172.3 252.6c-1.2 5.8-.8 27.5.6 30.4l1.2 2.5-.6-2.5c-1.3-6.3-1.6-19.2-.7-26 1.2-8 .9-10.7-.5-4.4zm83.7 13.9c8.8 9.6 9.8 10.6 6.3 6-1.7-2.2-5.3-6-7.9-8.5-3.7-3.4-3.4-2.9 1.6 2.5zM185.2 331c0 .8.6 4.9 1.3 9 1.4 7.4 1.4 7.5.9 1.5-.4-5.6-2.2-13.9-2.2-10.5zm4.2 42c0 5.8.1 8.1.3 5.2.2-2.8.2-7.6 0-10.5-.2-2.8-.3-.5-.3 5.3zm-2.8 39.1c-.4 4.4-.5 8.3-.3 8.5.3.3.8-3.1 1.2-7.6.4-4.5.5-8.3.2-8.6-.2-.3-.8 3.2-1.1 7.7z" stroke-width="3" fill="#E5CCE5" stroke="#E5CCE5"/><path d="M188 229.7c-9.1 3.4-14.2 14.1-15.6 32.2-.8 11.3.6 20.7 6.6 42.1 6.6 23.9 8.8 35.2 10.1 52.9 1.1 15.6.1 44.4-2.2 60.9-1.2 8.5-.5 18.3 1.7 24.5 3.6 10.1 11.9 15.7 23.4 15.7 20.4 0 44-14.5 61.2-37.4 6.7-9.1 14.5-24.5 17.6-35.1 14.1-47.5-9.1-102.8-58.6-139.5-9.3-6.9-21.1-13.3-28.6-15.5-4.9-1.5-12.7-1.9-15.6-.8zm177.3 173.7c-10.6 3.5-17.3 13.1-17.3 24.8 0 7.9 1.4 11.9 6 17.2 11.1 12.6 30.9 11.9 40.6-1.4 12.4-17 1.7-40.4-19.1-41.6-3.4-.2-7.8.2-10.2 1z" stroke-width="3" fill="#FFCCE5" stroke="#FFCCE5"/><path d="M466 314.6c-4 2.7-5 4.5-5 9.4 0 2.5.6 5.3 1.3 6.1 1.9 2.4 6.4 4.9 8.7 4.9 2.3 0 6.8-2.5 8.8-4.9 1.5-1.8 1.6-9.5.2-12.2-1.3-2.3-6.1-4.9-9.2-4.9-1.3 0-3.5.7-4.8 1.6zm7.8 1.6c3.4 3.4-.4 8.6-5.4 7.4-2.8-.7-4.2-4.9-2.4-7.1 1.5-1.8 6.1-2 7.8-.3z" fill="#191933" stroke="#191933" stroke-width="3"/><path d="M358.3 1105.7c4.8.2 12.6.2 17.5 0 4.8-.1.8-.3-8.8-.3-9.6 0-13.6.2-8.7.3zm-25.9 16.8c0 5.5.1 7.6.3 4.7.2-2.9.2-7.4 0-10-.2-2.6-.3-.2-.3 5.3zm219 19.5c0 5.2.1 7.4.3 4.7.2-2.6.2-6.8 0-9.5-.2-2.6-.3-.4-.3 4.8zm-154 6.5c0 7.1.1 9.9.3 6.2.2-3.7.2-9.6 0-13-.2-3.4-.3-.4-.3 6.8zm87 8c0 4.9.1 7.1.3 4.8.2-2.3.2-6.4 0-9-.2-2.6-.3-.8-.3 4.2z" stroke-width="3" fill="#FFFFE5" stroke="#FFFFE5"/><path d="M366.3 1154.7c2.6.2 6.8.2 9.5 0 2.6-.2.4-.3-4.8-.3s-7.4.1-4.7.3z" fill="#FFE5CC" stroke="#FFE5CC" stroke-width="3"/><path d="M349.8 1090.7c3.4.2 8.8.2 12 0 3.1-.2.3-.3-6.3-.3s-9.2.1-5.7.3z" fill="#FFE5B2" stroke="#FFE5B2" stroke-width="3"/><path d="M361.3 1117.7c3.1.2 8.3.2 11.5 0 3.1-.2.5-.3-5.8-.3s-8.9.1-5.7.3zm-.5 14c3.4.2 8.8.2 12 0 3.1-.2.3-.3-6.3-.3s-9.2.1-5.7.3z" stroke-width="3" fill="#FC9" stroke="#FC9"/><path d="M590.4 1149.5c0 6 .1 8.4.3 5.2.2-3.2.2-8.1 0-11-.2-2.9-.3-.3-.3 5.8z" fill="#E5B266" stroke="#E5B266" stroke-width="3"/><path d="M345.8 1091.7c3.9.2 10.5.2 14.5 0 3.9-.1.7-.3-7.3-.3s-11.2.2-7.2.3zM202.3 1134c0 4.7.2 6.6.4 4.2.2-2.3.2-6.1 0-8.5-.2-2.3-.4-.4-.4 4.3zm150 21.7c2.6.2 6.7.2 9 0s.2-.3-4.8-.3c-4.9 0-6.8.1-4.2.3zm5 13c4.3.2 11 .2 15 0 4-.1.5-.3-7.8-.3-8.2 0-11.5.2-7.2.3z" stroke-width="3" fill="#E5B24C" stroke="#E5B24C"/><path d="M370.8 1091.7c2.3.2 6.1.2 8.5 0 2.3-.2.4-.4-4.3-.4s-6.6.2-4.2.4zm28.6 28.8c0 6 .1 8.4.3 5.2.2-3.2.2-8.1 0-11-.2-2.9-.3-.3-.3 5.8z" stroke-width="3" fill="#E59933" stroke="#E59933"/><path d="M366.8 1104.7c2.8.2 7.6.2 10.5 0 2.8-.2.5-.3-5.3-.3s-8.1.1-5.2.3z" fill="#E5CC7F" stroke="#E5CC7F" stroke-width="3"/><path d="M337 1093c-1.2.7-1.6 4.9-2.2 22.2-.4 11.7-1 27.5-1.4 35.1-.6 12.7-.5 13.9 1.2 15.2 1.5 1.1 6.7 1.4 25.4 1.5 12.9 0 24-.4 24.7-.8 1.2-.8 1.6-2.4 1.4-5.9-.2-3.4-4.9-4.3-23.2-4.3H346v-12.4c0-10.4.3-12.5 1.6-13 .9-.3 8.6-.6 17.3-.6 14.4 0 15.9-.2 17.9-2 2.5-2.4 2.5-2.5 1.2-5.1-2.2-4-6.1-4.9-22-4.9h-15v-7c0-6.4.2-7 2.3-7.5 1.2-.2 10.4-.6 20.5-.7 15-.3 18.4-.6 19.2-1.8 1.5-2.4 1.2-4.8-1-7-1.9-1.9-3.3-2-25.7-2-13.2 0-24.5.5-25.3 1zm-142.4 11.6c-1.3 1.2-1.6 3.9-1.6 12.6v11l-3.2-.8c-1.8-.5-6.1-.8-9.5-.9-5.3 0-6.7.4-10.5 3.1-2.3 1.8-5.1 4.5-6 6.1-2.3 3.9-3.3 12.8-1.9 17.9 1.2 4.5 6.1 10.2 10.5 12.2 3.3 1.5 12.4 1.6 16.2.2 1.8-.7 3-.7 4 0 .7.6 2.8 1 4.6.8l3.3-.3.6-10c.9-13.3 1.1-49.9.3-51.9-.8-2.1-4.8-2.1-6.8 0zm-6.8 30.6 4.2 2.3v18.5l-4 2c-4.7 2.4-7.7 2.5-11.9.4-4-2-6.1-6.1-6.1-11.6.1-5.7 1.8-9.4 5.5-11.7 4-2.6 7.2-2.6 12.3.1zm213.5-31c-.4.7-1.1 13.2-1.4 27.8-.4 14.6-1 27.5-1.4 28.6-.9 2.7 2.1 6.4 5.1 6.4 5 0 5.2-1.3 5.5-32.8.3-24.8.1-29.5-1.1-30.2-2.1-1.4-5.7-1.2-6.7.2zm83.6 1.3c-4.9 2.6-8.9 8.6-8.9 13.6 0 5.6-1 6.9-5 6.9-3.9 0-7 2-7 4.4 0 2.3 3.6 4.6 7.3 4.6h3.7v15.4c0 16.7.7 18.9 4.9 16.6 1.9-1 2.1-2 2.1-10.4 0-5.1.3-12.1.6-15.5l.7-6.1h5.4c6 0 10.3-2.1 10.3-5.1 0-2.6-3.1-3.9-9.6-3.9h-5.7l.5-5.2c.7-6.4 3.2-8.8 9.2-8.8 6.5 0 9-4.2 4.4-7.4-3.1-2.2-7.5-1.9-12.9.9zm123.7 0c-1.2 1.8-1.6 4.8-1.6 11.5v9h-5c-5.6 0-7.5 2-6.4 6.5.6 2.3 1.1 2.5 6.1 2.5h5.5l-.7 14.5c-.8 15.9-.4 17.5 4.4 17.5 4.7 0 5.1-1.3 5.1-16.6 0-15.9-.2-15.4 7.6-15.4 3.9 0 4.4-.3 5-2.7 1-4-.7-5.8-6-6.1l-4.6-.3v-9.8c0-8.2-.3-10.1-1.8-11.4-2.6-2.4-5.7-2.1-7.6.8zm-348.2 18.7c-2 .9-2.1 2-2.8 21-.4 11.8-.3 20.5.2 21s2.5.8 4.3.6l3.4-.3 1-13.5c.6-7.4 1.3-14 1.7-14.6.4-.6 2.8-1.7 5.3-2.3 3.5-.9 5.3-.8 8.6.3 4.9 1.7 6.7 1.2 7.5-2.1 1.4-5.3-6-8.9-16.1-7.8-4.1.4-6.5.3-7-.4-1.2-2-4-2.9-6.1-1.9zm295.4.5c-1.2 1.4-1.7 5.7-2.1 20.3-.6 19.1-.1 22 3.2 22 3.2 0 4.1-2.5 4.7-13.6.3-6 1.1-11.9 1.7-13.2 2.1-4.4 11.3-6.7 15.3-3.8 1.7 1.3 2 3.1 2.4 15.8l.5 14.3 3.3.3c2.7.3 3.4-.1 4.2-2.3 1.3-3.4 1.3-23.9 0-28.7-2.1-7.4-10.5-11-20.5-8.8-4.5 1-5 .9-7.5-1.5-3.1-3-3.3-3-5.2-.8zm-334.8 2.4c-3.7 1.5-8.6 7.1-10.1 11.5-3.3 9.8-.6 20.3 6.4 25.1 3.3 2.3 5.3 2.8 11.3 3.1 11.5.6 19.4-3.3 19.4-9.7 0-4.1-1.7-4.8-4.8-1.9-5.7 5.2-12 6.1-19.5 2.9-4.2-1.8-6.7-4.4-6.7-6.9 0-1.1 2.9-1.8 17-3.8 5.7-.9 11-2 11.7-2.6 1.8-1.5 1.6-7.7-.5-11.8-2.4-4.8-7.1-7-15.2-6.9-3.6 0-7.6.5-9 1zm16 7.4c2.8 2.5 2.5 4.2-.7 4.9-7.3 1.5-16.9 2.4-17.6 1.7-1.2-1.2 2-5.9 5.2-7.7 3.3-1.8 10.5-1.2 13.1 1.1zm193-7.4c-3.8 1.6-7 4.9-9.6 10.3-4.6 9.4-2.5 19.6 5.2 25.9 3.2 2.7 4.6 3.1 11.4 3.5 12.1.7 20-3.2 20-9.8 0-3.9-2.6-5.1-4.9-2.2-2 2.6-8.3 5.2-12.6 5.2-5.5 0-13.5-4.7-13.5-8 0-2 .8-2.2 17.5-4.8 10.2-1.6 11-1.9 11.9-4.3 2-5.8-1.9-13.6-7.9-15.9-3.3-1.3-14.2-1.2-17.5.1zm14.8 6.9c1.7 1.1 3.2 2.6 3.2 3.4 0 1.6-1.9 2.1-12.4 3.5-9.8 1.4-10.7.5-5.2-5.3 2.7-2.9 4.1-3.6 7.2-3.6 2.2 0 5.4.9 7.2 2zm77.3-6.9c-12.1 3.6-19 20.3-13.1 31.8 2.8 5.7 4.4 6.8 10.7 8.1 4.8 1 6.5 1 11.5-.6 5.4-1.6 5.9-1.6 7.6-.1 4.1 3.7 8 .9 6.4-4.5-2.8-9-3-11-1.9-21.4 1.1-10.4 1-10.7-1.1-12.4-2.4-2-14.4-2.5-20.1-.9zm11 5.9c1.7 1 1.9 2.2 1.8 12.7 0 13.8-.9 15.2-9.5 15.3-4.2 0-5.5-.5-7.5-2.6s-2.4-3.6-2.4-8.8c0-7.6 2.8-12.3 9-15.5 4.6-2.4 5.8-2.5 8.6-1.1z" stroke-width="3" fill="#CC7F00" stroke="#CC7F00"/><path d="M357.8 1103.7c5 .2 13.4.2 18.5 0 5-.1.9-.3-9.3-.3-10.2 0-14.3.2-9.2.3zm-23.4 18.3c0 6.3.1 8.9.3 5.7.2-3.1.2-8.3 0-11.5-.2-3.1-.3-.5-.3 5.8zm219 18.5c0 7.7.2 10.7.3 6.7.2-4 .2-10.3 0-14-.2-3.7-.3-.4-.3 7.3zm-198.6-9.8c3.9.2 10.5.2 14.5 0 3.9-.1.7-.3-7.3-.3s-11.2.2-7.2.3zm44.6 14.3c0 5.2.1 7.4.3 4.7.2-2.6.2-6.8 0-9.5-.2-2.6-.3-.4-.3 4.8zm83 9c0 6.3.1 8.9.3 5.7.2-3.1.2-8.3 0-11.5-.2-3.1-.3-.5-.3 5.8zm-134.6 13.7c6.1.2 16.3.2 22.5 0 6.1-.1 1.1-.3-11.3-.3s-17.4.2-11.2.3z" stroke-width="3" fill="#CC9919" stroke="#CC9919"/></svg>