<svg version="1.0" xmlns="http://www.w3.org/2000/svg" viewBox="0 0 783 1262"><g fill="#FFF" stroke="#FFF" stroke-width="3"><path d="M0 631v631h783V0H0v631zm396-488.1c1.9.5 6.4 1.7 10 2.6 16.1 3.9 37.3 13.6 49.1 22.5 3 2.2 5.7 4 6.1 4 .5 0 4.5-2 9.1-4.4 13.6-7.4 26.5-11.5 46.2-14.6 2.8-.5 11.1-.9 18.5-.9 13.8 0 17.3.4 31.7 3.3 12.1 2.4 26.5 8.2 36.8 14.6l3 1.9 7.5-5.1c9-6.1 21.4-12.7 29-15.3 3-1.1 6-2.3 6.6-2.7.6-.4 4.8-1.7 9.5-2.8 4.6-1.2 10-2.6 11.9-3.1 1.9-.5 9.6-1.2 17.1-1.6l13.5-.6 1.7 4.4c2.4 6.6 3.4 12.1 4.7 25.9 2.9 30.7-2.8 60-16.9 87.4-2.3 4.3-4.1 8.3-4.1 8.9 0 .5 1.8 3.9 4.1 7.4 10.5 16.7 22.1 46.2 26.5 67.3.8 4.1 1.9 9.3 2.4 11.5 1.4 6.2 2.4 25.5 1.4 25.5s-5.5-2.9-6.4-4.1c-1.4-1.8-13.7-6.9-18-7.5-2.8-.4-5-.4-5-.1 0 .3 2.8 3.4 6.3 6.9 3.4 3.5 7.4 7.9 8.8 9.8 2.3 3.1 6.9 11.3 6.9 12.3 0 .2-4.8 1-10.7 1.7-6 .7-11.2 1.6-11.8 2-.5.4-3.8 1.2-7.2 1.9-6 1.1-22.6 6.1-26.8 8-1.1.5-5.6 2.5-10 4.5s-8.7 4.1-9.5 4.6c-.8.5-3.2 1.9-5.4 3.1-5.5 3-15.9 10.3-24.6 17.4-6.9 5.6-14.7 11.3-19.5 14.2-6.7 4.1-13.6 7.6-17.5 8.9-2.4.8-4.9 1.9-5.5 2.4-2.2 1.8-24.7 6-32 6-12.4 0-39.2-7.3-43.8-11.9-.6-.6-1.6-1.1-2.3-1.1-1.7 0-16.9-10.4-23.6-16.1-3.1-2.7-5.9-4.9-6.2-4.9-.2 0-.6 1-.8 2.2-.3 2-.8 2.2-5.6 1.9-2.9-.1-6.7-.7-8.5-1.2-10.2-2.9-22.8.7-28.1 7.9l-3.1 4.4-.3 22.3c-.4 25.3.5 32.7 4.3 36.5l2.6 2.5 2.4-3.1c5.6-7.2 18.3-12.8 31.5-13.9 19.7-1.7 42.6 7.1 50.1 19.1l2.1 3.4H522c17.5 0 18-.1 19.1-2.2.7-1.3 1.8-2.8 2.5-3.5.7-.7 1.4-1.6 1.6-2.1 1.1-2.9 12.2-10.1 18.9-12.3 10.2-3.3 26.3-3.4 35.8-.1 18.2 6.3 30.4 21.8 31.8 40.7.7 9.5-.1 13.3-3.7 17.4l-3 3.4v106.3l-2.5 6.4c-3 7.6-6.2 11.2-13 14.8l-5 2.7-89 .5c-82.9.5-89.2.6-92.6 2.3-4.7 2.3-9.3 7.3-10.8 11.6-.8 2.4-1.1 26.8-1.1 84.7V871h15.4c21.4 0 35.6 3.6 44.5 11.4 3.8 3.4 9.9 12 12.7 18.3 3.2 6.7 4.4 18.8 2.5 24.5-1.6 4.9-7.4 11.3-12.4 13.7-10.5 5-12 5.1-116.6 5.1-94.3 0-97.6-.1-104-2-9.2-2.8-15.1-8-18.5-16.5L232 919V692.3l-15.2-1.1c-50.9-3.8-88-20.9-113.8-52.7-15.4-19-27.7-47.2-32.5-75-.9-5-2-11.3-2.6-14-2.7-14.3-2-82.5 1.1-95.9.5-2.2 1.9-10.2 3-17.6 1.1-7.4 3.1-18.9 4.4-25.5 2.2-10.8 3.5-15.9 9-37 .9-3.3 2.8-10 4.3-14.8 3.2-10.1 2.7-10 13.7-4.6 18.7 9.1 34.5 20.9 50.6 37.6 13 13.4 26.8 32.6 32.6 45.3 1.4 3 3.1 6.6 3.8 8 2.1 3.7 8.6 20.7 8.6 22.3 0 .7.4 1.7.9 2.2 1.1 1.3 6.7 24.7 8.6 36 2.8 17.1 8.3 43.9 13.1 63.5 2.5 10.3 3 12.1 7.6 27l2.3 7.5.5-157.5.5-157.5 2.6-5.5c2.9-6.2 7.6-10.8 14.6-14.2l4.8-2.3 60.9-.3c56.2-.3 61-.2 62.7 1.4 3.7 3.3 3.2.3-1.3-8.4-10.8-20.6-15.6-37.1-17.8-61.4-1.6-17.4.5-39.3 4.8-52.2l1.7-4.9 13.5.6c7.4.4 15.1 1.1 17 1.6zm23.8 952.4c4.9 4.5 3.1 10.8-3.5 12.6-2.1.6-10.4 1.1-18.5 1.1H383v11h13.8c13.8 0 16.8.7 19.4 4.4 1.7 2.4.8 6.5-1.8 8.5-2.4 1.9-4 2.1-17.5 2.1H382v12.7c-.1 20.3-1.5 24.3-8.6 24.3-4.5 0-6.4-.9-7.4-3.4-1.1-3 .7-69.2 2.1-71.7.5-1.1 2-2.4 3.2-2.9 1.2-.5 12.2-.8 24.3-.7 19.9.2 22.4.4 24.2 2zm-183.6 10.9c2 2 2.1 2.6 1.5 19.2-.4 9.4-.7 22.8-.7 29.7 0 11.4-.2 12.7-2.1 14.8-1.8 1.9-2.8 2.2-5.8 1.7-4.7-.8-5.6-.8-11.8 0-7.1.9-11.3-.1-16.1-3.8-14.3-11-9.5-35.1 7.8-39.8 4.2-1.1 10.5-.9 14.3.6 1.5.6 1.7-.4 1.7-10 0-9.3.3-10.9 2-12.6 2.6-2.6 6.5-2.5 9.2.2zm288.6-.6c2 1.4 2.2 2.3 2.2 12.5 0 6 .3 10.9.8 10.9.4 0 2.7-.5 5.1-1.1 6.2-1.4 14 .4 17.3 3.9 3.9 4.2 4.8 8.4 4.8 22.7 0 11.2-.3 13.6-1.7 15.3-2.8 3.1-5.6 3.5-8.6 1.1-2.7-2-2.7-2.3-2.7-13.9 0-14.9-.7-17-5.5-17-3.7 0-7.5 1.5-8.7 3.3-.3.6-1 6.4-1.3 12.8-.8 13.1-2.1 15.9-7.4 15.9-5.5 0-5.6-.6-5.2-32.4.3-27.9.8-33.2 3.4-34.8 1.9-1.2 5.1-.9 7.5.8zm-224.5 20.6c1.2.7 5.4 1.3 9.2 1.3 8.2 0 12.5 1.6 14.7 5.3 1.3 2.3 1.3 3.2.2 5.8-1.7 4.1-3.6 4.7-8.4 2.8-2.6-1.1-5.2-1.4-7.5-1-6 1.2-6.5 2.4-6.5 15.7 0 10.6-.2 12.1-2 13.9-2.1 2.1-6.5 2.6-9 1-1.6-1-1.6-1.7-1.2-26.7.2-13.1.5-16.5 1.8-17.7 1.9-1.9 5.7-2.1 8.7-.4zm163.4 2c.9.7 1.1 6.2.6 21.6-.5 19.1-.7 20.8-2.5 22.4-2.6 2.3-5 2.3-7.9 0-1.8-1.5-3.5-1.8-9.3-1.5-8.9.5-12.8-1.4-16.2-7.7-2.2-4.1-2.4-5.6-2.4-18.7 0-16.4.5-17.6 7.4-17.1l4.1.3.6 13.5c.3 7.4.9 14.2 1.3 15.2 1.6 3.6 9.4 2.9 11.5-1.1.6-1.1 1.1-6.4 1.2-11.8.1-5.4.4-10.9.8-12.3 1.2-4.4 7-5.9 10.8-2.8zm122.6-1.3c7.4 1.7 11.2 8.5 7.1 12.5-2 2-2.6 2-8.3-.5-4.5-1.9-5.1-1.9-8.6-.5-4 1.7-4.3 3.9-.4 4.4 4.6.5 10.2 2.4 13 4.4 3.7 2.8 6.3 8.8 5.6 13.2-1.3 7.8-7.2 11.8-17.6 12-12.7.1-18.1-2.5-18.1-8.8 0-4.5 2-6 6.7-5.1 2.1.3 6.6.9 10.1 1.2 5.2.4 6.2.2 6.2-1.1 0-2-2.4-3.2-8-4.1-13.6-2.2-17.6-10.8-10-21.3 4.3-6 13-8.4 22.3-6.3zm-313.4 1.7c5.1 2 9 7.1 9.7 12.8.9 6.3-1.9 9-10.1 9.9-11.9 1.4-19.5 3.1-19.5 4.5 0 .7 2.1 2.2 4.6 3.4 5.7 2.5 12.4 1.8 17.1-1.8 3.8-2.9 6.9-3.1 8.3-.5 5.1 9.6-12 18.3-27.4 14-5.7-1.6-9.3-4.6-12.1-10.3-5.6-11.2-1.1-26 9.5-31.4 5.4-2.7 14.1-3 19.9-.6zm227 0c4.8 1.9 7.9 7 6.2 10.2-1.7 3.1-4.5 3.5-9 1.2-7.1-3.6-13.4-1.8-16.5 4.7-3.3 6.8-.9 13.5 5.6 15.5 2.9.9 4.6.8 8.7-.6 8.6-2.8 12.1-1.8 12.1 3.4 0 5.6-6.8 9-17.8 9-16.2 0-23.9-11.2-20.1-29.1 1.3-6.1 7.3-13.4 12.3-14.8 5-1.5 14.2-1.2 18.5.5z"/><path d="M453.7 321.7c-1.4 1.3-.7 3.3 1.1 3.3 2.4 0 3.2-.8 2.5-2.6-.5-1.5-2.5-1.9-3.6-.7zm138.8.3c-.4.7-.3 1.6.3 2.2 1.4 1.4 4.5.2 4-1.5-.6-1.6-3.4-2.1-4.3-.7zm-382.3 817.6c-7.7 5.4-6.5 18 2 20.6 3.2.9 4.4.8 7.8-.7l4-1.8v-7.9c0-7.8 0-7.8-3.2-9.8-4-2.4-7.6-2.5-10.6-.4zm46.6-.5c-1.6 1.1-2.8 2.5-2.8 3 0 1 5.8.4 12.5-1.3 3.7-.9 3.8-1.1 2-2.4-2.7-2-8.6-1.7-11.7.7z"/></g><path d="M389.4 187.5c0 5.5.1 7.6.3 4.7.2-2.9.2-7.4 0-10-.2-2.6-.3-.2-.3 5.3zm113 246.3c.4.7 2.5 1.2 4.6 1.2 3 0 4.5.7 7 3.1 1.7 1.7 3.3 2.9 3.6 2.7 1.1-1.2-6.8-6.8-9.6-6.8-1.5 0-3.6-.3-4.6-.7-1.2-.4-1.5-.3-1 .5zm56.6-.1c-4.6.3-6.1 1-9 3.7-1.9 1.8-4.4 3.8-5.5 4.4-1.1.6-1.4 1.2-.7 1.2s3.2-1.8 5.6-4c3.9-3.6 4.9-4 9.4-4 2.8 0 5.4-.5 5.7-1 .3-.6.5-.9.3-.8-.2.1-2.8.3-5.8.5zm-35 10.5c0 .5 3.6.8 7.9.8 4.4 0 8.2-.3 8.4-.8.3-.4-3.3-.7-7.9-.7-4.6 0-8.4.3-8.4.7zM418.9 548.7c1.8 3.6 5.2 5.3 10.3 5.3 2.6 0 4.9-.4 5.2-.8.3-.5-1.9-.7-4.9-.4-5.2.4-5.6.3-8.6-2.9-2.1-2.2-2.8-2.6-2-1.2z" stroke-width="3" fill="#FFE5CC" stroke="#FFE5CC"/><path d="M409.4 477.5c0 9.3.2 13.3.3 8.8.2-4.5.2-12.2 0-17-.1-4.8-.3-1.2-.3 8.2zm62.9 213.2c22.4.2 59 .2 81.5 0 22.4-.1 4-.2-40.8-.2s-63.2.1-40.7.2zM409.5 792c0 43.7.1 61.6.2 39.7.2-21.8.2-57.6 0-79.5-.1-21.8-.2-3.9-.2 39.8z" stroke-width="3" fill="#E5B27F" stroke="#E5B27F"/><path d="M72.4 508.5c0 5.5.1 7.6.3 4.7.2-2.9.2-7.4 0-10-.2-2.6-.3-.2-.3 5.3zm440.4 11.2c5 .2 13.4.2 18.5 0 5-.1.9-.3-9.3-.3-10.2 0-14.3.2-9.2.3zM239.4 892.5c0 11.5.2 16.1.3 10.2.2-5.9.2-15.4 0-21-.1-5.6-.3-.8-.3 10.8z" stroke-width="3" fill="#E59966" stroke="#E59966"/><path d="M624.5 611c0 28.3.1 39.9.2 25.7.2-14.1.2-37.3 0-51.5-.1-14.1-.2-2.5-.2 25.8zM232.4 885.5c0 16.5.2 23.4.3 15.3.2-8.1.2-21.6 0-30-.1-8.4-.3-1.8-.3 14.7z" stroke-width="3" fill="#E5CCB2" stroke="#E5CCB2"/><path d="M232.5 450c0 85.5.1 120.5.2 77.7.2-42.7.2-112.7 0-155.5-.1-42.7-.2-7.7-.2 77.8zm-2.3 241.6c1.7.5 1.8 5.5 2.1 82.5l.2 81.9v-82.2c0-81.5 0-82.3-2-82.5-1.5-.1-1.6-.1-.3.3z" stroke-width="3" fill="#FFCCB2" stroke="#FFCCB2"/><path d="M300.8 943.7c22.1.2 58.3.2 80.5 0 22.1-.1 4-.2-40.3-.2s-62.4.1-40.2.2zm94.5 150c3.7.2 9.7.2 13.5 0 3.7-.2.6-.3-6.8-.3-7.4 0-10.5.1-6.7.3zm147.1 60.8c0 5.5.1 7.6.3 4.7.2-2.9.2-7.4 0-10-.2-2.6-.3-.2-.3 5.3z" stroke-width="3" fill="#FFE5E5" stroke="#FFE5E5"/><path d="M410.4 478c0 8.5.2 12 .3 7.7.2-4.2.2-11.2 0-15.5-.1-4.2-.3-.7-.3 7.8zm.1 315.5c0 42.9.1 60.3.2 38.7.2-21.7.2-56.8 0-78-.1-21.3-.2-3.6-.2 39.3zm19.3 150.2c5 .2 13.4.2 18.5 0 5-.1.9-.3-9.3-.3-10.2 0-14.3.2-9.2.3z" stroke-width="3" fill="#FFFFE5" stroke="#FFFFE5"/><path d="M432.2 942.7c3.7.2 10 .2 14 0 4-.1 1-.3-6.7-.3s-11 .1-7.3.3z" fill="#C63" stroke="#C63" stroke-width="3"/><g fill="#CC4C00" stroke="#CC4C00" stroke-width="3"><path d="M365.9 146.3c-.6 2.3-1.5 5-2 5.9-4 7.7-4 58 0 67.3.5 1.1 1.6 4.9 2.5 8.5 2.4 9 5.8 17.8 11.7 29.4 3.5 6.9 4.9 10.6 4.4 12.3-.7 2.8-1.5 2.9-4.5.3-2.4-2-3.3-2.1-62.9-1.8l-60.6.3-5.3 2.8c-6.2 3.2-9.4 6.6-11.7 12.2-1 2.2-2.1 4.8-2.6 5.7-.5 1-.9 69.4-.9 162-.1 144.1-.2 160.1-1.6 158.3-.8-1.1-1.8-3.2-2.1-4.8-.3-1.5-.9-2.7-1.2-2.7-.4 0-1.5-3.5-2.6-7.8-1-4.2-2.2-8.2-2.6-8.7-.4-.6-1.4-4.6-2.4-9-.9-4.4-2-8.9-2.5-10-.5-1.1-1.7-6.1-2.5-11-.9-5-2.1-9.9-2.5-11-.5-1.1-1.6-6.7-2.5-12.5-.9-5.8-2-11.4-2.5-12.5-.5-1.1-1.6-7.2-2.5-13.5-.9-6.3-2-12.4-2.5-13.5-.5-1.1-1.6-5.8-2.6-10.5-.9-4.7-1.9-9-2.3-9.5-.4-.6-1.6-3.9-2.6-7.5-1.1-3.6-2.2-6.7-2.6-7-.3-.3-1.2-2.3-1.9-4.5-1.6-4.8-11.6-24.4-13.6-26.6-.8-.8-1.4-1.9-1.4-2.2 0-.9-6.9-11.4-9-13.8-.8-1-2.6-3.2-4-5.1-4.9-6.5-20.7-22.2-28.5-28.4-4.4-3.5-8.8-7-9.7-7.9-1-.8-2.1-1.5-2.5-1.5-.3 0-2.1-1.1-3.9-2.5-4.3-3.3-24.5-13.6-25.4-13-.5.3-1.4 2.9-2 5.7-.7 2.9-1.6 5.7-2 6.3-.4.5-1.6 4.8-2.6 9.5-.9 4.7-2 8.7-2.4 9-.3.3-1.5 4.5-2.5 9.5-1 4.9-2.1 9.4-2.5 10-.4.5-1.5 6.2-2.5 12.5s-2.1 11.9-2.5 12.5c-.4.5-1.5 7.7-2.4 16-.9 8.2-2.1 16.6-2.6 18.5-2.2 8.4-3 63.9-1.1 79 1.7 13.2 5.1 32.4 6.1 34.5.5 1.1 1.7 4.9 2.6 8.5.8 3.6 1.9 6.9 2.3 7.5.4.5 1.6 3.8 2.7 7.3 1 3.4 2.2 6.2 2.5 6.2.4 0 1.5 2.2 2.5 5 1 2.7 2.1 5 2.4 5 .4 0 1.5 2 2.6 4.5 1 2.5 2.1 4.5 2.4 4.5.3 0 1.4 1.5 2.4 3.2 3 5.2 10.6 14.4 17.1 20.8 8.5 8.3 12.6 11.6 22.4 17.8 5.5 3.4 21.8 11.2 23.5 11.2.9 0 1.6.4 1.6.8 0 .5 3.3 1.6 7.3 2.7 3.9 1 7.7 2.1 8.2 2.5 1.2.9 18.7 4 22.5 4 1.4 0 3 .4 3.6 1 .5.5 7.6 1.2 15.8 1.6l14.9.7-.4 113.6-.4 113.6 2.4 6.3c2.9 7.6 9.8 14.3 17 16.4 3.7 1 23.9 1.3 106.1 1.2 92.6 0 102-.2 107.2-1.7 16.8-5.1 23.3-19.6 16.3-36.6-6.7-16.3-18.1-25.8-33.5-28.2-4.1-.6-9.1-1.5-11.2-2.1-2.1-.6-7.2-.8-12.5-.4-4.8.4-10.6.7-12.8.9l-4 .2-.3-81.4c-.1-45.5.2-81.9.7-82.5.4-.6 1.1-2.8 1.5-4.8.8-4.4 4.2-8.8 9.4-12l3.7-2.3 89.9-.5c70.7-.4 90-.8 90.4-1.8.2-.6.8-1.2 1.3-1.2s2.6-.7 4.7-1.6c5.2-2.3 11-10.4 11.8-16.6.4-2.6 1-4.8 1.5-4.8s.9-23.6.9-53v-53.1l2.5-2.3c3.4-3.1 4.6-10.1 3.3-18.5-.6-3.6-1.6-7.4-2.3-8.6-.7-1.1-1.5-3.2-1.9-4.7-.3-1.4-1.7-4-3.1-5.6-1.4-1.7-2.5-3.3-2.5-3.7 0-1.2-5.7-6.1-10.7-9.3-2.7-1.6-7.7-3.8-11.3-4.8-7.7-2.1-23.8-3-25.3-1.5-.6.6-2.1 1.1-3.2 1.1-3 0-11.7 3.1-13.3 4.7-.7.7-1.7 1.3-2.1 1.3-1.7 0-9.9 8.8-12.1 12.9-1 2-1.9 2.1-19.9 2.1h-18.8l-2.7-3.9c-2.9-4.2-8.9-9.4-13-11.2-1.4-.7-2.6-1.5-2.6-1.9 0-.4-3.5-1.5-7.7-2.4-4.3-.9-9.2-2.1-10.9-2.6-3.8-1.2-18.1-1.3-18.8-.1-.3.5-2.6 1.2-5.1 1.6-8 1.1-16.2 5.9-21.2 12.2l-3.1 3.8-2.7-2.5c-1.5-1.4-3.1-3.3-3.7-4.4-2-3.7-3.1-13.4-3.5-31.1-.4-17.5-.1-20.2 3-29 2.5-6.9 12.3-12.5 21.9-12.5 6.1.1 17.5 1.5 20.1 2.5 1.4.6 1.7.2 1.7-2.4 0-1.7.2-3.1.5-3.1 1.3 0 6.5 3.1 7.2 4.3.4.6 3.5 3.2 6.8 5.7s6.4 4.9 7 5.3c3 2.4 12.1 7.7 13.1 7.7.7 0 1.9.6 2.6 1.3 3.4 3.3 19.9 8.2 32.3 9.6 11.5 1.2 34.4-1.1 38-3.9.6-.4 2.1-1.1 3.5-1.5 2.6-.7 17.1-7.6 20.5-9.8 5.1-3.1 13-8.9 23.7-17.4 6.4-5.1 11.9-9.3 12.2-9.3.3 0 2.5-1.4 4.9-3 2.5-1.7 4.9-3 5.5-3 .5 0 1.5-.6 2.1-1.3.6-.8 2.9-2 5.1-2.7 2.2-.7 4-1.6 4-2 0-.4 2.1-1.5 4.8-2.5 2.6-.9 6.6-2.5 8.9-3.6 2.4-1 4.8-1.9 5.5-1.9.7 0 2.5-.6 4-1.4 1.4-.8 6.1-2.2 10.5-3.1 4.3-1 8.7-2.1 9.8-2.6 2.7-1.2 14.1-2.9 19.3-2.9 4.9 0 5.2-1 1.9-5.9-1.2-1.9-2.7-4.2-3.2-5-1.6-2.5-5.6-6.9-9.4-10.4-6.8-6.3-9.1-8.6-9.1-9.2 0-1 8.7-.5 14 .9 5.7 1.5 14.1 5.7 17.4 8.8 1.1 1 2 1.7 2.2 1.5.5-.5-1.9-22.2-2.5-22.7-.4-.3-1.5-5.2-2.5-11s-2.1-11-2.5-11.5c-.4-.6-1.6-4.2-2.6-8-1-3.9-2.1-7.5-2.5-8-.4-.6-1.3-2.8-2-5-2-6.5-11.6-27.4-13.1-28.5-.3-.3-1.4-2.1-2.4-4s-2.7-4.7-3.8-6.2c-2.1-2.9-1.8-8.6.7-11 .7-.7 2.1-3.4 3.1-6.1 1-2.6 2.1-4.7 2.5-4.7.3 0 1.4-2.6 2.4-5.8 1-3.1 2.2-6.2 2.6-6.7.4-.6 1.5-4.2 2.4-8 1-3.9 2.2-7.8 2.7-8.8 2-3.8 4.1-28.1 3.5-41.2-.5-12.6-2-24.4-3.3-27.5-.4-.8-1.1-3.3-1.7-5.4l-1.1-4-7.5.2c-10.2.3-20.3 1.3-21.5 2.2-.5.4-5 1.5-10 2.5-4.9 1-9.2 2.1-9.5 2.5-.3.3-2.5 1.2-5 2-4.5 1.4-15.1 6.2-18 8.1-.8.5-2.6 1.5-4 2.2-4 1.9-13.7 8.4-14.4 9.6-1.3 2-10.6.3-10.6-1.9 0-.3-2.2-1.4-5-2.4-2.7-1-5-2.1-5-2.6 0-.4-2.8-1.5-6.2-2.5-3.5-.9-6.8-2.1-7.4-2.6-.6-.5-5.8-1.6-11.5-2.5-5.7-.9-11.2-2-12.1-2.5-2.3-1.2-34.3-1.2-36.6 0-.9.5-6.4 1.6-12.2 2.5-5.7 1-10.7 2-11 2.5-.3.4-2.5 1.3-5 2-4.4 1.3-15.2 6.3-22 10.2-2.1 1.1-4.4 1.7-5.8 1.4-1.9-.5-8-4.5-12.9-8.5-2.2-1.8-22.7-12-24.1-12-.7 0-3.1-.9-5.3-1.9-2.2-1.1-7.7-2.7-12.2-3.6-4.5-.9-9-2.1-10-2.6-.9-.5-6.5-1.2-12.5-1.5-5.9-.3-11.9-.7-13.4-.9-2.5-.4-2.8 0-3.9 3.8zM390 149c2.5.5 8.1 1.7 12.5 2.6 4.4.9 8.5 1.9 9 2.3.6.4 3 1.3 5.5 2 5.6 1.6 24.2 10.8 30.7 15.2 2.6 1.8 6.5 5.1 8.5 7.3l3.7 3.9 3.4-2.6c10.3-7.8 32.3-16.6 47.3-18.9 10.3-1.5 38.8-1.5 48.4 0 8.6 1.4 22.8 5.6 28 8.3 1.9 1 4.6 2.3 6 2.9 1.4.6 4.3 2.2 6.5 3.5 8.5 5.2 7.9 5.2 13.2.8 5.7-4.8 20.6-13.8 25.4-15.5 1.9-.6 4.3-1.7 5.4-2.4 5.7-3.4 30.5-9.4 46.2-11 7-.7 6.4-1.3 9.8 9.6 2.2 7.4 3.2 35.3 1.6 47.2-2.6 19.4-10.4 42.2-19.9 58.2l-2.9 5 5.9 9.4c5.1 8 9.6 16.8 15.3 29.7 3.6 8.2 11 33.4 12.5 42.5.6 3.6 1.3 7.5 1.5 8.7.7 3.1-1 2.9-5.4-.6-8.9-7-22.9-12.3-36.1-13.5-15.3-1.4-45.6 4.6-62.7 12.5-2.4 1-4.5 1.9-4.9 1.9-1.3 0-20.6 9.5-28.9 14.3-4.9 2.9-9.9 5.7-11 6.2-2.3 1.2-3.2 4.2-1.7 5.7.7.7 1.5.6 2.6-.4.8-.8 2.9-2.1 4.8-2.8 1.8-.8 3.5-1.7 3.8-2 .8-1 9.8-6 17.5-9.7 3.9-1.8 8.7-4.2 10.7-5.3 2-1.1 4.2-2 4.7-2 .6 0 3.4-1.1 6.3-2.4 2.9-1.2 7.6-2.9 10.3-3.6 2.8-.7 5.5-1.6 6-2 1-.7 6.6-1.9 19.5-4.2 9.5-1.7 21.9-2.1 26-.9 1.9.5 6.2 1.5 9.6 2.1 7.2 1.4 17.8 6.8 18.2 9.3.3 1.6-.1 1.7-3.5 1.1-5.5-1.2-16.1-.7-21.3.9l-4.5 1.3 3.5 1.8c1.9 1 4.2 2.5 5 3.2.8.8 3.8 3.3 6.7 5.5 6 4.6 13.3 13.4 13.3 15.9 0 1.4-1.4 1.9-6.7 2.8-7.9 1.2-22.9 4.8-25.8 6.1-1.1.5-4.5 1.7-7.5 2.7-3 .9-5.9 2-6.5 2.4-.5.3-3.2 1.5-5.9 2.5-6.5 2.4-23.1 11-27.1 14.1-1.8 1.3-3.5 2.4-3.8 2.4-.4 0-1.5.7-2.4 1.5-1 .9-5.2 4.2-9.3 7.5-4.1 3.3-8.1 6.5-8.9 7.2-6.1 5.1-24.5 15.9-30.6 17.8-2.2.7-4.5 1.7-5.1 2.2-2.5 1.9-17.4 4-28.9 4-11.9 0-25.8-2.1-27.9-4.2-.5-.5-1.7-1-2.6-1-1.8-.1-14.7-6.5-21-10.5-2.5-1.5-9-6.4-14.5-10.9-13.1-10.6-16.7-13.3-25-18.7-9.6-6.3-28.3-15.9-30.8-15.9-.6 0-2.9-.9-5.1-1.9-5.6-2.7-18.1-6-30.3-7.9-6.5-1-10.3-2.1-10.3-2.8 0-2.1 12.3-12.4 16-13.4 1.9-.5 5.5-1 8-1h4.5l-2.5-2c-5-3.8-20.2-10.6-25.8-11.5-6.6-1.1-5.3-3.6 2.8-5.6 3.6-.8 7.2-1.8 8-2.2 2.8-1.2 18.5-2.7 28.5-2.7 11.1 0 26.9 1.5 30 2.9 1.1.5 5.5 1.6 9.8 2.6 4.4.9 9.1 2.3 10.5 3.1 1.5.8 3.3 1.4 4.1 1.4.8 0 3.3.8 5.5 1.9 15.2 6.9 23.8 11.3 28.5 14.5 2.9 2 5.6 3.6 6 3.6.3 0 1.7.9 3.1 1.9 2.4 1.9 2.4 1.9 3.5-.2 1-2 .5-2.6-6.9-7.5-8.7-5.6-27.6-15.2-36.6-18.4-5.3-1.9-19.7-6.1-27-7.8-13.7-3.3-40.6-3.5-56.5-.5-8.5 1.6-21.5 5.4-23.3 6.8-.7.5-1.5.7-1.9.3-.9-.8 1.5-11.2 3.7-16.1 1-2.2 2.3-5.9 2.9-8.2.6-2.3 1.8-5.4 2.6-7 .8-1.5 1.5-3.2 1.5-3.6 0-.8 3.1-8.2 8.3-20.2 1.2-2.7 5.4-11.4 9.3-19.2 5.4-11 6.8-14.6 5.8-15.3-1.3-1.2-11.4-21.5-13.4-27-.6-1.9-1.6-4.4-2.1-5.5-1.9-4.3-6-22.2-6.9-30.4-1.9-16.7-.8-36.8 2.7-49.1.8-3 1.8-5.9 2-6.3.6-1 12.2-.1 19.3 1.3zm-13.6 125.9c2 2.2 1.6 4.5-1.4 9.6-1 1.6-3.2 6.4-5 10.5-1.8 4.1-3.8 8.8-4.5 10.5-3.1 7-6.8 16.3-8.1 20.5-.8 2.5-1.8 5.4-2.4 6.5-1.7 3.7-8 23.4-8.6 27.3l-.6 3.8 10 1.2c10.4 1.2 21.2 4.8 21.2 6.9 0 .7-.4 1.3-.8 1.3-1.8 0-11 8.6-17.4 16.1l-4.8 5.6 11.8 1.1c24.9 2.4 53 12.4 74.6 26.6 9.6 6.3 11.3 8 9.8 9.9-.9 1-3 1.1-8.9.5-10-1-16.6-.1-22.7 2.9-6 3-9 6.2-12.4 13.3-2.6 5.5-2.7 5.7-2.7 28 0 20.9.2 23 2.3 29.5 1.6 4.6 3.6 8.3 5.9 10.7 3.3 3.4 3.5 4 2.5 6.3-.6 1.4-1.6 6.5-2.2 11.3-1.7 13.7.9 21.6 8 24.4 3.7 1.4 15.2 1.1 20.2-.7 4.8-1.6 7.8-1.9 7.8-.7 0 .5 2.8 2.3 6.1 4 10.1 5.2 15.1 4.4 26.5-4.3.9-.6 2.5-.5 4.7.3 8.2 3 16.8.1 21.4-7.1 2.3-3.5 2.7-5.2 2.6-10.2-.1-3.3-.9-7.7-1.8-9.8-.8-2.1-1.3-4.2-1-4.7.4-.6 7.3-1 16.1-1h15.5l-.8 7.2c-1 8.8-.7 18.2.8 22.5.6 1.8 2.6 4.6 4.5 6.3 4.4 3.8 9.1 4 17.4.3 6.7-2.9 5.5-3.1 15.5 2.5 3.9 2.1 14 2.2 18 0 1.7-.9 4.3-2.8 5.8-4.4l2.7-2.7 5.1 1.7c2.8.9 6.4 1.6 8 1.6h2.9v52.7c0 34.2-.4 54.2-1.1 56.6-1.5 5.7-7.2 11.4-13.3 13.4-4.6 1.6-12.8 1.8-92.6 2.3l-87.5.5-4.8 2.4c-5.6 2.7-10.1 7.8-13 14.6-2.1 4.9-2.2 6-2.5 88.6l-.3 83.6-7.7 1.3c-9.1 1.4-21.9 4.9-35.7 9.7-5.5 1.9-12.7 4.3-16 5.3-3.3 1.1-9.8 3.5-14.5 5.5-4.6 1.9-9.1 3.5-10 3.5-1.2 0-6.2-5.8-22.2-26.3-1.6-2.1-1.8-1.9-16.2 12.3-8.1 8-15.3 14.6-16.1 14.8-.9.2-2.1-1.1-3.2-3.5-.9-2.1-2.2-4.5-2.9-5.3-.6-.8-3-5.1-5.4-9.5-2.3-4.4-6.4-12.1-9.1-17.2l-4.9-9.1.2-283.4c.3-259.2.4-283.6 1.9-286.8 2.4-5.1 7-9 13.1-11.1 4.9-1.7 9.7-1.8 62.9-1.9 55.6 0 57.6.1 59.3 1.9zm-268.3 88.3c5.2 2.9 9.9 5.6 10.4 6 1.4 1.1 13.3 10 15.9 11.8 2.4 1.7 22.2 21.5 24.9 24.8 4.1 5.2 12.5 16.9 14.1 19.7 1 1.6 2.8 4.8 4.2 7 3.4 5.6 6.4 11.8 6.4 13.2 0 .7.4 1.3.8 1.3.5 0 1.7 2.6 2.8 5.7 1 3.2 2.2 6 2.5 6.3.4.3 1.4 3.2 2.3 6.5.9 3.3 2.1 6.7 2.5 7.5.4.8 1.6 5.1 2.6 9.5.9 4.4 2.1 8.7 2.5 9.6.4.8 1.6 7.5 2.6 14.7 1 7.3 2.2 13.2 2.6 13.2.4 0 .8 1.2.8 2.7.1 6.9 9.8 50.9 15.1 68.1 3.4 11.1 8.2 23.5 10.1 26.4 1.6 2.4 1.8 5.4 1.8 35.7V686l-5.2-.1c-9.6-.1-38.6-3.8-45.2-5.8-1.7-.5-6.5-1.9-10.6-3.1-4.1-1.2-7.9-2.5-8.5-2.9-.5-.5-2.7-1.4-4.8-2.1-2.1-.6-6.1-2.4-9-3.9-5-2.5-6.3-3.3-15.2-9-5.2-3.3-15.7-12.3-21.4-18.4-16.9-18-31-47.8-36.6-77.8-.9-4.6-2.1-10.9-2.6-13.9-2.6-13.8-2.5-70.8.1-87 .5-3.6 1.7-12.1 2.6-19 .8-6.9 2-14.3 2.5-16.5.6-2.2 1.9-8.5 2.9-14s3.3-15.2 5-21.5c1.7-6.3 3.9-15.2 5-19.7 2.3-9.5 3.9-13.3 5.5-13.3.7 0 5.4 2.3 10.6 5.2zM594 504c1.4.5 3.8 1.1 5.4 1.5 4.5 1 11.1 5.2 14.8 9.4 5.6 6.5 6.8 8.4 7.9 12.6.6 2.2 1.6 4.6 2.2 5.3.5.7 1.1 5 1.1 9.6.1 7.8-.1 8.5-2.4 10.4-3 2.6-10.3 2.9-14.7.7-2.9-1.4-3.1-1.9-3.5-8.8-.3-3.9-1-8.1-1.6-9.2-.6-1.1-2.3-4.6-3.7-7.8-1.8-3.8-3.2-5.7-4.4-5.7-3 0-3 1 0 6.7 1.6 3 2.9 6.3 2.9 7.3 0 1.1.4 2.1.9 2.4 1.2.8 2.1 7.3 1.4 10.7-.5 2.7-3.3 6.2-7.8 9.8-3.2 2.6-10.8 2.6-15.9 0-6-3-6.8-4-7.8-10.2-1.1-6.6-1.1-6.2.3-13.2 1.6-7.9 1.7-11.7.3-12.2-1.1-.4-2.3 2.3-5.3 11.8-.6 1.9-1.1 7.2-1.1 11.7 0 9.1-.1 9.3-8.3 11.1-5.6 1.3-9.9 0-11.8-3.6-.9-1.7-1.4-5.9-1.4-12.2.1-15 4.5-24.6 14.9-32.5 7.8-5.8 28-8.9 37.6-5.6zm-120.7 1c8.2 2.1 14.8 5.4 19.6 9.9 4.7 4.4 9 12.1 9.7 17.3.4 2.7 1.1 5.1 1.5 5.4 2.7 1.7-1.1 12.2-5.1 14.4-2 1.1-11.2 1.3-14.6.4-1.9-.5-2.3-1.6-2.9-7.7-1.1-11.5-5-21.2-8-20-1.7.6-1.4 2.4 1 7.8 2.2 4.8 3.7 18 2.4 20.8-1.5 3.4-8.2 6.7-13.5 6.7-2.4 0-4.4-.4-4.4-.8s-1.5-1.3-3.3-2c-1.8-.7-4.4-2.7-5.7-4.4-2.2-3-2.5-4.3-2.4-12.8 0-5.6.6-10.4 1.3-11.8 1-1.8 1-2.6 0-3.8-3-3.6-5.9 5.1-5.9 17.8v9.7l-3.7 1.8c-2.5 1.2-6.1 1.8-10.5 1.8-6.1 0-7-.3-9.5-2.8-2.7-2.6-2.8-3.2-2.8-12.5.1-8.4.5-10.5 2.8-15.5 5.2-11.2 11.3-16.6 22.1-19.7 8.5-2.5 22.1-2.5 31.9 0zM247 881.2c3.3 6.2 6.5 12 7.1 12.8.5.8 1.9 3.5 3.1 6 1.1 2.5 2.4 4.7 2.8 5 .4.3 1.3 1.6 2 2.9 1.2 2.3 1.5 2.1 16.4-12.8 8.3-8.3 15.9-15.1 16.8-15.1.9 0 1.8.6 2.1 1.4 1.2 2.9 18.9 24.6 20.2 24.6.7 0 3.5-1 6.2-2.1 9.2-4.1 24.4-9.7 36.8-13.5 2.8-.8 6.4-2.1 8-2.9 1.7-.7 5.9-1.9 9.5-2.6 3.6-.6 7-1.6 7.7-2.1.6-.5 6.4-1.6 13-2.4 6.5-.8 14.3-1.9 17.4-2.4 7-1.3 16.7-1.3 22.1 0 2.4.5 7.4 1.4 11.2 2 7.2 1.1 13.5 4.2 18.4 8.8 2.9 2.8 9.2 12.2 9.2 13.8 0 .5.7 2.2 1.5 3.8.8 1.6 1.8 5.2 2.1 8.1.8 6.8-2.3 13.7-7.9 17.2-4.5 2.8-6.5 2.2-4.3-1.3 1-1.4 1.6-4.6 1.6-8.1 0-7.7-3.9-14.5-12.2-21.4-7.8-6.4-12.3-8.8-14-7.1-1 1-.6 1.8 1.7 3.7 1.7 1.3 3.5 2.4 4 2.5 2.1 0 12.5 10.7 14.6 14.8 2.7 5.5 2.2 11.3-1.5 16.9-3 4.5-5.2 5.3-14.1 5.3h-5.2l-.5-8.8c-.3-5.1-1.2-10.3-2.2-12.3-4-8.5-16.1-17.5-21-15.6-2.7 1.1-1.8 2.4 3.2 4.5 5.7 2.5 11.9 8.2 13.8 12.8.8 1.9 1.4 6.8 1.4 11.4v8.1l-91.2-.3-91.3-.3-4.7-2.3c-5.7-2.8-8.4-6-9.9-11.6-.6-2.2-1.5-4.9-2-5.8-.5-1-.9-11.9-.9-24.3 0-18.7.2-22.5 1.4-22.5.8 0 4.2 5.1 7.6 11.2z"/><path d="M479.2 407.6c-3 2.1-2.7 6.8.4 7.2 1.2.2 3.5 2.3 5.4 5 1.9 2.8 5.5 6.1 8.8 8.2 5.7 3.5 5.8 3.5 17.2 3.5 12.4 0 14-.5 20.2-6.3l2.7-2.5 2.8 2.7c5.3 5.3 7.9 6.1 19.8 6.1 10.3 0 11.3-.2 15.8-2.8 5.6-3.3 10.7-8.2 12.4-12 1.1-2.3 1.7-2.6 3.8-2.1 2.5.6 3 0 2.6-3.6-.3-2.5-4.1-5-7.7-5-2.7 0-3.4.4-3.4 1.9 0 1.1.5 2.3 1 2.6 1.4.9.2 4.4-2.7 7.9-5.9 7.1-15 10.3-25.6 9.1-9.9-1.1-14.7-4.9-16.2-12.8-1.1-5.8-5.5-4.7-5.5 1.4 0 1-1.6 3.7-3.6 5.8-2.8 3.2-4.6 4.2-9.2 5.2-6.1 1.2-14.5.6-19.5-1.5-7.5-3.1-16.4-15.6-11.3-15.6 1.1 0 1.6-.6 1.4-1.8-.4-2.3-6.6-2.8-9.6-.6z"/></g><path d="M434.8 941.7c3.4.2 8.8.2 12 0 3.1-.2.3-.3-6.3-.3s-9.2.1-5.7.3z" fill="#CC4C19" stroke="#CC4C19" stroke-width="3"/><path d="M530.3 159.7c2.6.2 6.8.2 9.5 0 2.6-.2.4-.3-4.8-.3s-7.4.1-4.7.3zm-242.1 114c15.9.2 41.7.2 57.5 0 15.9-.1 2.9-.2-28.7-.2-31.6 0-44.6.1-28.8.2zm-55.4 179.9c-.2 85.6 0 155.8.5 156.1.4.2.7-69.8.7-155.6 0-85.9-.2-156.1-.5-156.1s-.6 70-.7 155.6zm169-107.9c2.9.2 7.4.2 10 0 2.6-.2.2-.3-5.3-.3s-7.6.1-4.7.3zm6.6 131.3c0 10.2.2 14.3.3 9.2.2-5 .2-13.4 0-18.5-.1-5-.3-.9-.3 9.3zm44.4 26.7c2.3.2 6.1.2 8.5 0 2.3-.2.4-.4-4.3-.4s-6.6.2-4.2.4zm69.7 16.3-19 .6 18.7.2c11.6.1 18.9-.2 19.3-.8.3-.6.5-.9.3-.8-.2.1-8.8.5-19.3.8zm-15.8 6.3c-.3.8-.1 2 .4 2.8.8 1.1.9.9.7-.6-.3-1.9.4-2 15.2-2.5l15.5-.6-15.6-.2c-12.3-.2-15.8.1-16.2 1.1zm-81.5 158.5c-2.1.6 116.6.5 154.8-.1 9.1-.1-21.5-.3-68-.4-46.5 0-85.5.2-86.8.5zM233.5 774c0 45.9.1 64.7.2 41.8.2-23 .2-60.6 0-83.5-.1-23-.2-4.2-.2 41.7zm175 17.5c0 44.5.1 62.9.2 40.8.2-22.1.2-58.5 0-81-.1-22.4-.2-4.4-.2 40.2zM238.2 893.2c-.1 12.5.1 22.9.6 23.1.4.3.6-6.3.4-14.6-.4-28.4-.8-31.3-1-8.5zm41.3-7-15 15.3 15.2-14.9 15.2-15 2.3 2 2.3 1.9-1.9-2.3c-1.1-1.2-2.2-2.2-2.5-2.2-.4 0-7.4 6.9-15.6 15.2zm-1.5 9.5-15.5 15.8 15.8-15.5c14.6-14.4 16.2-16 15.4-16-.1 0-7.2 7.1-15.7 15.7zm24.3 47c23 .2 60.4.2 83 0 22.7-.1 3.9-.2-41.8-.2-45.6 0-64.2.1-41.2.2z" stroke-width="3" fill="#CC6619" stroke="#CC6619"/><path d="M412.8 936.7c4.6.2 11.8.2 16 0 4.2-.1.5-.3-8.3-.3s-12.3.2-7.7.3z" fill="#CC7F33" stroke="#CC7F33" stroke-width="3"/><path d="M349.3 936.7c10.3.2 27.1.2 37.5 0 10.3-.1 1.8-.2-18.8-.2s-29.1.1-18.7.2z" fill="#CC7F4C" stroke="#CC7F4C" stroke-width="3"/><path d="M292.2 267.7c15.3.2 40.3.2 55.5 0 15.3-.1 2.8-.2-27.7-.2s-43 .1-27.8.2z" fill="#C96" stroke="#C96" stroke-width="3"/><path d="M291.8 266.7c15.6.2 40.8.2 56 0 15.2-.1 2.5-.2-28.3-.2s-43.3.1-27.7.2z" fill="#FCC" stroke="#FCC" stroke-width="3"/><path d="M701.4 185.5c0 5.5.1 7.6.3 4.7.2-2.9.2-7.4 0-10-.2-2.6-.3-.2-.3 5.3zM239.5 576c0 153.7.1 216.6.2 139.7.2-76.8.2-202.6 0-279.5-.1-76.8-.2-13.9-.2 139.8z" stroke-width="3" fill="#E56619" stroke="#E56619"/><path d="M366.4 185c0 6.9.1 9.7.3 6.2.2-3.4.2-9 0-12.5-.2-3.4-.3-.6-.3 6.3zm292.9 157.7c3.2.2 8.1.2 11 0 2.9-.2.3-.3-5.8-.3-6 0-8.4.1-5.2.3zM402.4 477c0 11.3.2 15.9.3 10.2.2-5.6.2-14.8 0-20.5-.1-5.6-.3-1-.3 10.3zm112.4 49.7c3.9.2 10.5.2 14.5 0 3.9-.1.7-.3-7.3-.3s-11.2.2-7.2.3zm100.4 34.9c1.7.5 1.8 4 2.1 50l.2 49.4v-49.7c0-49 0-49.8-2-50-1.5-.1-1.6-.1-.3.3zm-383 91.1-.2 31.2-4.2.4-4.3.4 4.3.1c2.6.1 4.4-.3 4.7-1.1.3-.7.4-14.9.2-31.7l-.2-30.5-.3 31.2zm240.1 31c23 .2 60.4.2 83 0 22.7-.1 3.9-.2-41.8-.2-45.6 0-64.2.1-41.2.2zM402 791.2c-.3 45.5-.2 82.4.3 81.9.4-.4.6-37.6.5-82.7l-.3-81.9-.5 82.7zm-122.5 94-15 15.3 15.5-15c8.5-8.3 15.6-15.1 15.9-15.3.2-.1 0-.2-.5-.2s-7.7 6.9-15.9 15.2z" stroke-width="3" fill="#E57F19" stroke="#E57F19"/><g fill="#FF7F33" stroke="#FF7F33" stroke-width="3"><path d="M369.6 155.7c-2.4 8.8-3.4 37.1-1.7 49.7 1.4 10.3 5.1 24.7 8.7 33.7 3.3 8.3 12.3 26.2 13.6 27 .6.4-2 6.9-6.4 16-4.2 8.5-8.2 17-9.1 18.9-4.9 11.3-7.6 17.8-8.2 20-.4 1.4-1.1 2.9-1.5 3.5-.4.5-1.5 3.7-2.5 7-.9 3.3-2 6.4-2.5 7-1.1 1.3-4.4 13.4-3.8 14 .2.2 4.9-.9 10.3-2.4 5.5-1.6 13.2-3.4 17.2-4 9.7-1.5 36-1.3 45.8.3 26.3 4.4 53.6 15.5 75.8 30.8 2.8 1.9 2.9 1.9 7 0 6.4-3 14.4-4.5 22.7-4.5 7.8.1 18.7 2.4 23 5 2.4 1.4 3 1.2 12.5-4.3 14.2-8.1 32.2-17 38.5-18.9 1.4-.4 3-1.1 3.5-1.5 1.7-1.2 21.4-6.9 30-8.6 4.4-.9 13.3-1.8 19.7-2.1 9.7-.4 13.2-.1 21 1.8 10 2.4 19 6.4 25.1 11.1 2 1.6 3.7 2.8 3.7 2.5 0-2.1-3.5-18.6-5.1-24.2-6.5-22.7-13.4-38.6-24.6-56.9l-5.5-9.1 5-9.5c14.8-27.8 20.3-53.4 18.1-84.5-.5-7.1-1.7-15.6-2.5-18.7l-1.7-5.8h-5.4c-6.9 0-28.8 4.4-37.8 7.6-15.5 5.5-29.9 13.3-39.2 21.1-5.7 4.8-6 4.9-8.2 2.9-3.1-2.8-19.8-10.9-28-13.7-24.3-8.3-61-8.2-84.7.1-9.5 3.3-20.7 8.7-27 13-2.5 1.6-5 3-5.6 3-.6 0-2.7-1.7-4.8-3.8-7.1-7.4-23.1-16.4-39.2-22.2-10-3.5-31.7-8-39.1-8h-5.3l-1.8 6.7zm27.5 21.3c3 .5 6.3 1.4 7.4 1.9 1.1.6 4.5 1.7 7.6 2.5 4.9 1.4 23 10 26.2 12.6.7.5 2.8 2.3 4.7 3.9l3.5 3-4 3.3c-10.8 8.8-22 21.3-30.1 33.5-3.2 4.8-5.9 9-6.1 9.2-.5.7-3.4-2.2-6.2-6.5-4-5.9-8.7-19.2-10.5-29.9-2-12-3-25.3-2.1-30.4.8-4.6 1-4.7 9.6-3.1zM683 187c0 26.2-4.8 44.9-14.6 57.3-1.2 1.5-2.6 2.7-3.1 2.7s-2.2-2.9-3.8-6.5c-1.6-3.6-3.1-6.5-3.5-6.5-.3 0-1.3-1.5-2.2-3.3-3.1-6.5-25.1-27.7-28.8-27.7-1.2 0-1.3-2-.2-3.6 1.7-2.5 10.9-8.5 18.8-12.4 10.5-5.1 28.2-10.7 34.7-10.9l2.7-.1v11zm-234.8 91.7c1 .9 1.8 2.2 1.8 2.9 0 1.2-7.6 5.4-9.7 5.4-1.4 0-9.3 7.2-9.3 8.5 0 1.6-2.7 2.8-3.5 1.6-.3-.5.8-3.9 2.4-7.5 4.6-10.1 13.4-15.4 18.3-10.9zm174.5 1.3c3.2 2.5 7.8 10.2 8.8 14.7.9 4.5-.3 4.1-4.5-1.1-3.2-4.1-12.3-9.6-15.8-9.6-1.9 0-1.4-4.8.6-6 2.4-1.5 7.7-.5 10.9 2zm-157.2 34.8c3.2 2.7 5.5 6.4 5.5 9.1 0 3.5-3.4 8.3-7.5 10.5-3.6 2-3.6 1.9-8-.2-8.1-3.9-9.7-12.4-3.3-18.4 3.6-3.3 10-3.8 13.3-1zM603 314c0 .5.6 1 1.4 1 1.6 0 5.6 6.3 5.6 8.9 0 3.4-3.1 7.9-6.7 10.1-3.4 2-4.1 2.1-7.6.9-5-1.6-8.7-6.4-8.7-11.2 0-2.8.8-4.4 3.5-7.2 3-3 4.3-3.5 8-3.5 2.5 0 4.5.4 4.5 1z"/><path d="M255.6 276c-7 2.2-11 5.8-13.3 11.9-1.7 4.4-1.8 19.3-1.8 286.6v282l12 21.7 12 21.7 15-14.9c13.4-13.4 17.5-16.7 17.5-14.3 0 .7 3.3 5.1 12.3 16.3.7.8 3 3.9 5.2 6.8 2.1 2.8 4.2 5.2 4.6 5.2.3 0 3.6-1.3 7.2-3 3.6-1.6 11-4.5 16.4-6.3 5.4-1.9 13.9-4.8 18.8-6.5 9.5-3.2 17.5-5.4 29-7.8 3.9-.8 8-1.7 9.3-2l2.2-.4V709.1l2.4-6.7c3.8-10.5 10.8-16.3 22-18.3 4-.7 33.9-1.1 88.7-1.1 81 0 82.9 0 88.3-2 7.6-2.9 11.1-7.1 12.5-15.2.7-4.2 1.1-23.7 1.1-55v-48.6l-4.2-.7c-2.4-.4-5.5-1.4-7-2.1-2.5-1.3-2.9-1.2-5.5 1.2-5.4 5-10 6.6-17.2 6.2-5.3-.3-7.6-1.1-11.8-3.7-4.8-3-5.4-3.1-7.5-1.8-1.3.9-4.9 2.3-8 3.3-5.4 1.6-5.9 1.6-10.3 0-7.3-2.8-9.8-7.6-10.3-19.6-.2-5.2.1-11.4.6-13.8l1-4.2h-14.4c-7.9 0-14.4.1-14.4.2 0 .2.7 2.5 1.5 5.2 4.6 15.3-3.1 27.6-17.4 27.6-2.7 0-6.2-.5-7.7-1-2.3-.9-3.1-.7-5.3 1.4-8.7 8.1-21.6 7.8-30.8-.7-2.3-2-2.3-2-6.5-.1-6.2 2.8-20.6 2.7-24.4-.2-6.2-4.6-6.9-6.5-6.9-19.2.1-8.5.5-12.7 1.7-15.4 1.6-3.5 1.5-3.7-.4-5.5-7.7-6.9-9.8-15.7-9.8-41.8 0-16.7.3-21 1.9-26 2.5-8.1 7.8-14 15.9-17.8 6.2-2.9 6.7-3 17.8-2.5 6.3.3 11.4.2 11.4-.3 0-2.9-31-20.3-42.5-23.9-2.2-.7-4.5-1.6-5.1-2.1-3.2-2.5-30.5-7.8-41-7.8-3.9-.1-7.3-.4-7.7-.7-1.2-1.2 5.1-9 13.7-17.1l8.5-8.1-3.3-1.6c-3.1-1.4-8.8-2.5-22.8-4.2-2.7-.3-4.8-1-4.8-1.6 0-2.9 4.7-18.5 10.9-35.8 3.7-10.3 10.9-27.5 16.4-39 5-10.5 5.3-11.7 3.9-13.3-1.4-1.6-5.4-1.7-57.6-1.6-52 0-56.5.1-62 1.9zM163 514c0 23.3-.3 32-1.1 32-1.2 0-10.9-5.7-11.9-6.9-.3-.3-2.1-1.5-4-2.5-1.9-1.1-3.9-2.4-4.5-2.8-2.1-1.7-17.8-11.8-18.4-11.8-.3 0-2.4-1.4-4.6-3.1l-4-3-.3 33c-.3 36.4 0 35.2-6.3 30.6-3.6-2.8-16.8-12.5-20.7-15.3-1.3-.9-4-2.9-5.9-4.5-2-1.5-3.7-2.7-3.9-2.7-1.3 0 5.3 25.9 9.3 36.8 13.5 36.3 38.3 62.7 72.3 76.9 16.6 6.9 40.7 12 61.8 13l11.2.6v-31.4c0-30.3-.1-31.5-2.1-34.9-6.4-10.5-17.1-48.4-23.9-84.5l-1.9-10.1-9.3-9.5c-5.1-5.3-14.1-14.6-20-20.7-5.9-6.2-11-11.2-11.3-11.2-.3 0-.5 14.4-.5 32z"/></g><path d="M113.4 532c0 8.5.2 12 .3 7.7.2-4.2.2-11.2 0-15.5-.1-4.2-.3-.7-.3 7.8z" fill="#FFB27F" stroke="#FFB27F" stroke-width="3"/><path d="M162.5 481.2c-.8 2.2-1 64.6-.2 64.1.4-.2.7-14.9.7-32.6v-32.1l3.8 3.5 3.7 3.4-3.4-3.8c-3.9-4.1-4-4.2-4.6-2.5zm-49.5 83c-.3 9.7-.2 17.4.3 16.9.4-.4.6-8.4.5-17.7l-.3-16.9-.5 17.7z" stroke-width="3" fill="#FFB266" stroke="#FFB266"/><path d="M161.4 511.5c0 18.1.2 25.7.3 16.8.2-8.9.2-23.7 0-33-.1-9.2-.3-2-.3 16.2zm-48.9 3.8c-.3.7-.4 15.6-.3 33.2l.3 32 .5-33.3c.3-18.2.4-33.2.2-33.2-.1 0-.5.6-.7 1.3zM240 894.5c0 11.5.2 20.6.5 20.4.6-.7.8-40 .1-40.7-.3-.3-.6 8.8-.6 20.3z" stroke-width="3" fill="#FFE5B2" stroke="#FFE5B2"/><path d="M304.8 935.7c24.4.2 64 .2 88 0 24-.1 4.1-.2-44.3-.2s-68.1.1-43.7.2z" fill="#FC9" stroke="#FC9" stroke-width="3"/><path d="M390.3 191.6c.6 13.7 2.4 28.4 3.7 29.4.3.3 1.2 2.5 1.9 5 1.4 4.9 6.3 14.1 8.5 15.9 1.1.9 2.1 0 5.2-4.6 5.3-7.8 5-7.4 8.1-11.3 1.5-1.9 7.7-8.4 13.7-14.4l11-10.9-3.8-3.2c-6.3-5.3-24.2-13.8-32.8-15.6-2.9-.6-5.8-1.5-6.3-2-.6-.4-3.1-1.1-5.5-1.5l-4.3-.7.6 13.9zM675 178.7c-1.4.3-2.9.8-3.5 1.3-.5.4-2.6 1.1-4.5 1.4-7.2 1.4-26.6 9.9-31.4 13.7-5 4-7 6.1-5.9 6.5.6.3 2.1 1.4 3.4 2.5 1.2 1 2.6 1.9 3.2 1.9 1.5 0 18 17.3 19.7 20.6.8 1.6 2.2 3.8 3.1 4.9.9 1.1 2.7 4.1 4 6.7 2 3.9 2.6 4.5 3.9 3.5 2.6-2 7.6-11.9 9-17.7.7-3 1.6-6 2-6.5 1.3-1.7 3-18.3 3-29.3 0-11.1.3-10.6-6-9.5zm-28.5 173.8c-9.4 1.8-23.9 5.7-24.5 6.5-.3.4-1.8 1-3.5 1.4-3.3.8-13.5 5.1-23 9.7-3.3 1.6-6.5 2.9-7.2 2.9-.7 0-1.3.4-1.3.8s-1.9 1.8-4.2 3.1c-2.4 1.2-6.5 3.5-9.3 5.1-2.7 1.6-6.5 3.6-8.2 4.5-1.8.8-3.3 2.2-3.3 3 0 5.8-16.3 20.5-22.7 20.5-.8 0-1.3 1.2-1.3 3 0 1.6.5 3 1 3 .6 0 1 .6 1 1.3 0 1.6 4.1 5.7 5.7 5.7.6 0 1.3.6 1.6 1.2.2.9 2.9 1.3 8.8 1.3 7.5-.1 8.9-.4 12.9-3 7.3-4.6 12.7-11.5 9-11.5-1.5 0-1.2-4.9.4-6.6 1.6-1.6 9.6-1.9 9.6-.4 0 .5.7 1 1.6 1 .8 0 2.2 1.6 2.9 3.5 2 4.6.6 8.5-3 8.5-1.5 0-2.8.7-3.2 1.7-1.6 4.6-10.3 12-15.7 13.4-2.3.6-4.9 1.5-5.8 2-1 .5-3.9.9-6.4.9-4.1 0-5.2.5-9 4-2.4 2.2-5.2 4-6.3 4-1.1 0-2.3.4-2.6 1-.3.5-4.2 1-8.6 1-4.6 0-7.9-.4-7.9-1s-.6-1-1.4-1c-2 0-5.7-2.2-9-5.3-2-1.8-4-2.7-6.3-2.7-1.8 0-4.1-.4-5.1-.9-.9-.5-3.6-1.5-6-2.2-4.2-1.2-15.2-10.6-15.2-12.9 0-.6-1.3-1.6-3-2.1-2.6-.9-3-1.6-3-4.6 0-4.1 1.5-7.3 3.5-7.3.8 0 1.5-.5 1.5-1 0-1.4 8.4-1.2 9.8.2 1.7 1.7 1.5 6.7-.3 7.4-2.2.9 3 7.8 7.5 10.1 1.9 1 3.8 2.2 4.2 2.7.3.6 4.4 1 9 1 7.3 0 8.8-.3 12.4-2.6 2.9-1.9 4.5-3.9 5.8-7.3 1-2.5 1.7-4.7 1.5-4.9l-6.2-3.1c-6.3-3.1-12.9-9.7-16.2-16.1-1.2-2.1-3.3-4.5-4.8-5.2-1.5-.7-2.7-1.7-2.7-2.3 0-.5-.5-.9-1-.9-.6 0-2.9-1.2-5.3-2.7-4.8-3.1-6.3-4-16.8-9.4-4.1-2.1-7.9-3.9-8.2-3.9-.4 0-2.6-.9-5-1.9-7.1-3.2-23.7-7.9-32.2-9.1-4.4-.7-9.6-1.6-11.5-2.2-4.8-1.3-26.6-.4-37 1.5-4.7.9-10.2 1.9-12.2 2.3-4.9.9-4.8 2 0 2.8 2.1.3 6 1.7 8.6 3.1 2.6 1.4 5.1 2.5 5.7 2.5 1.3 0 12.9 8 12.9 9 0 1.3-2.9 2-8.4 2-4.2 0-6.1.6-10.6 3.6-2.9 1.9-5.9 4.3-6.6 5.2-1.7 2.3 0 4.2 4 4.2 3.7 0 16.3 2.6 19.1 3.9 1.1.5 5 1.7 8.8 2.7 3.7.9 6.7 2.1 6.7 2.5 0 .5.7.9 1.5.9 2.8 0 22.4 9.8 31.6 15.8 7.8 5.1 11.5 7.6 12.5 8.6.7.6 2.7 2.2 4.5 3.6 1.8 1.4 4.3 3.5 5.6 4.7 9.4 8.9 30.7 21.6 40.8 24.3 2.8.7 5.5 1.7 6.1 2.1 2.4 1.9 19.7 3 29.8 1.9 5.6-.7 10.5-1.5 11.1-1.9.5-.4 4-1.6 7.8-2.7 3.7-1 6.7-2.2 6.7-2.5 0-.3 2.1-1.4 4.7-2.4s5.6-2.7 6.7-3.7c1.1-1 2.3-1.8 2.8-1.8.7 0 3.2-1.7 11.7-7.8 1.3-.9 6.2-4.7 10.7-8.4 11.6-9.3 22.9-16.5 33.9-21.6 3.9-1.8 7.8-3.8 8.9-4.4 1-.5 4.2-1.7 7-2.5s5.6-1.9 6.1-2.3c.6-.5 3.3-1.4 6-2 2.8-.7 7.7-2 11-3.1 3.3-1 9.5-2.4 13.8-3.1l7.9-1.3-5.4-5.7c-6.6-7-17.2-15.6-21.6-17.5-4.7-2-3.9-4.5 1.8-5.6 2.5-.5 4.9-1.3 5.5-1.8.5-.5 4.1-.9 8-1h7l-5.3-2.4c-2.9-1.3-7.8-2.9-10.9-3.5-7.6-1.4-24.2-1.1-32.8.5zm-550 12.2c-.4 2.1-1 4.2-1.4 4.8-.4.5-1.6 4.8-2.6 9.5-.9 4.7-2.1 8.9-2.5 9.5-.5.5-1.6 5-2.5 10-.9 4.9-2 9.7-2.4 10.5-.4.8-1.6 6.9-2.6 13.5-.9 6.6-2.1 12.9-2.6 14-1 2.2-3.9 29-3.9 35.8 0 2.4-.5 4.8-1 5.3-1.4 1.4-1.6 57.4-.2 60 .5 1.1 1.2 5 1.5 8.9.7 7.2.5 7 7.2 12.1 1.1.8 5.4 3.9 9.5 6.9 4.1 2.9 8.2 5.9 9 6.7.9.7 3.5 2.5 5.8 4.1l4.2 2.7v-32.4c0-19.8.4-32.7 1-33.1.9-.6 9.2 4.2 9.8 5.7.2.5.8.8 1.3.8.7 0 18.2 11 26.8 16.9 1.3.9 4.1 2.6 6.3 3.9l3.8 2.3v-32.6c0-24.1.3-32.5 1.2-32.5 1 0 15.5 14.4 32.1 31.9 3.8 4 7.1 7.1 7.3 6.8.6-.6-1.5-14.6-2.6-17.2-.4-1.1-1.6-6.3-2.5-11.5-1-5.2-2.1-9.7-2.4-10-.4-.3-1.3-3-2-6s-2.1-7.3-3.1-9.5-2.1-5-2.4-6.2c-.4-1.1-3.2-7-6.4-13-8.7-16.7-10.4-19.8-11.2-20.3-.5-.3-2.5-3-4.6-6-7.8-11.4-22.2-26.4-34.4-35.9-3.6-2.7-7.3-5.7-8.2-6.5-1-.9-2.1-1.6-2.5-1.6-.5 0-2.6-1.4-4.7-3-2.2-1.7-4.4-3-5-3-.6 0-3.1-1.4-5.5-3-2.4-1.7-5-3-5.6-3-.7 0-1.6 1.7-2 3.7zm355 141.1c-6.1.4-14.5 2.2-14.5 3.1 0 .5-1.4 1.4-3 2.1-5.3 2.2-10.6 9.4-13.5 18-3.5 10.9-3.4 16.9.4 20.9 3.2 3.5 6.3 3.9 14.9 2l4.9-1 .5-13.1c.5-11.3.8-13.3 2.6-15 2.3-2.3 6.6-1.9 7.6.7.3.9.1 4.9-.5 9s-.8 9.9-.4 13c.5 4.7 1.1 5.9 4.1 8.1 6.2 4.8 16.3 4.2 19.8-1.1 1.7-2.6 1.2-7.2-2.4-19-2.5-8.5-2.1-11.5 1.8-11.5 1.5 0 3.4.8 4.3 1.8 1.9 2.2 4.9 12.7 4.9 17 0 1.8.4 3.2.9 3.2.6 0 1.1 1.5 1.3 3.2.3 3.1.5 3.3 4.7 3.6 6.7.5 9-.4 10.8-4.4 1.5-3 1.5-4.3.5-10.6-.7-4-1.9-7.9-2.7-8.8-.8-.9-1.5-2.2-1.5-2.9 0-2.1-10.7-11.9-14.5-13.2-1.9-.7-3.5-1.6-3.5-2 0-1.5-19.2-3.7-27.5-3.1zm124.5-.2c-8.7 1.5-14 2.8-14 3.5 0 .4-1 1.1-2.2 1.5-2.1.6-7.7 6-10.9 10.3-.9 1.2-2.2 4.3-2.9 6.9-.6 2.6-1.6 5.5-2.1 6.4-.5 1-.9 4.4-.9 7.6 0 6.1 2.7 13.5 5.3 14.5 1.7.7 9.6-1 11.3-2.4.6-.5 1.3-5.5 1.6-12 .3-6.1 1-11.4 1.6-11.8.6-.3 1.3-2.3 1.7-4.3.8-4 3-5.4 6.6-4.3 2.3.8 2.3 1.5 0 16-1.5 9.2-.5 14.1 3.6 17.2 5.1 3.9 12.2 4.3 17.2 1 2.2-1.5 4.2-3.5 4.6-4.7.3-1.1 1.1-2 1.6-2 1.1 0 1.2-4.7 0-5.4-.4-.3-1.1-2.3-1.5-4.4-.3-2.1-1.7-6-3.1-8.6-3.1-5.9-3.3-10.2-.4-10.9 3.7-1 6.5 1.2 8.3 6.4 1 2.7 2.1 4.9 2.6 4.9 1 0 3 10.3 3 15.6 0 4.2.1 4.3 3.8 5 9.5 1.8 13.2-.4 13.2-7.9 0-2.3-.4-4.7-.8-5.3-.5-.5-1.4-3.3-2.1-6.3-2.2-8.7-9.4-18.4-15.8-21-1.8-.7-3.3-1.7-3.3-2.1 0-1.9-19.8-4.4-26-3.4zm-334.9 390c-.1 26.3 1 30 10.4 36.3l4 2.6 90.3.3 90.2.3v-6.9c0-6-.4-7.5-3-11.4-3-4.4-8.6-8.9-13.6-10.8-3.1-1.2-4-3.4-2.6-6.6 1.5-3 4.2-3.1 10.4-.1 5.7 2.8 14.5 11.5 15.4 15.4.4 1.5 1.1 3.1 1.6 3.4.6.3 1.2 4.3 1.5 8.8l.6 8.1h4.6c2.6 0 5.6-.7 6.7-1.5 2.8-1.9 5.4-7.5 5.4-11.4 0-3.7-2.9-9.7-6.2-12.8-5.5-5.1-7.7-6.9-10.9-8.7-3.9-2.2-4.9-3.4-4.9-5.8 0-4.7 6.1-5.7 10.6-1.7 1.1 1.1 2.4 1.9 3 1.9 2 0 12.5 10.8 14.9 15.4 2 3.9 2.5 6.4 2.5 11.9 0 6.3.1 6.8 1.7 5.6 6.5-5.5 5.3-19.1-2.9-31-3.9-5.6-10.9-11.9-13.2-11.9-.6 0-2.3-.7-3.9-1.5-3.6-1.9-15.8-3.5-26.2-3.5-10.1 0-28.3 1.7-31 2.9-1.1.5-5.8 1.7-10.5 2.6-4.7.9-9.4 2-10.5 2.5-1.1.5-4.7 1.7-8 2.6-3.3.9-6.4 2-7 2.4-.5.5-3.9 1.6-7.5 2.5-3.6.9-6.9 2-7.5 2.5-.5.4-3.7 1.5-7 2.6-3.3 1-6.2 2.1-6.5 2.5-.3.4-2.5 1.4-5 2.2-2.5.8-5.8 2.2-7.4 3.1-2.8 1.4-3 1.3-5.8-1.2-1.5-1.5-2.8-3.1-2.8-3.6s-.9-1.8-2.1-3c-2.9-3-13.9-17-13.9-17.7 0-.4-7.1 6.5-15.8 15.2-9.3 9.3-16.2 15.5-16.9 15.1-1.2-.8-6.9-10.7-10.5-18.2-1.1-2.5-2.4-4.7-2.7-5-.3-.3-1.5-2.3-2.6-4.5s-2.3-4.2-2.7-4.5c-.4-.3-1.1-1.7-1.7-3-.7-1.8-1 3.3-1 17.6z" stroke-width="3" fill="#FFC" stroke="#FFC"/><path d="M455 316.2c-4 2.8-5.6 5.7-2 3.8 4.6-2.5 9.4 2.7 5.6 6-2.2 1.8-5.9.8-7.3-2-1.2-2.4-1.3-2.4-1.3-.3 0 5.9 6.1 11.1 11.5 9.7 3.3-.8 7.5-5.9 7.5-9 0-3.6-2.8-7.3-6.8-8.9-4.2-1.8-3.3-1.9-7.2.7zm138.9.1c-6.5 4.4-6.1 12.9.7 16.2 3.9 1.8 6.8 1.3 10.1-1.7 4.9-4.6 3.2-12.7-3.2-15.4-4.3-1.7-3.6-1.8-7.6.9zm2.9 3.6c.8.5 1.2 2.1 1 3.7-.4 3.5-4.4 4.7-6.5 1.8-1.7-2.3-1.6-2.9.3-4.8 1.7-1.8 3.2-2 5.2-.7z" stroke-width="3" fill="#331900" stroke="#331900"/><path d="M438.2 281.6c-3.3 2.6-7 8.4-5.3 8.4.5 0 1.1-.6 1.4-1.3.3-.7 3.5-2.6 7.1-4.2 5.2-2.2 6.3-3.1 5.5-4.2-1.7-2-5.1-1.5-8.7 1.3zm174.3-1.6c-.8 1.3.3 3 2 3 1.9 0 8.4 3.6 11.4 6.3l2.3 2.2-2-4c-1.1-2.3-3.2-4.7-4.6-5.5-1.4-.7-2.6-1.7-2.6-2.2 0-1.2-5.8-1-6.5.2z" stroke-width="3" stroke="#000"/><path d="M525.5 375c-1.6.5-5.1 1.4-7.6 2-5.1 1.3-9.9 5.1-9.9 7.9 0 6.1 11.8 19.5 18.7 21.4 2.4.6 4.3 1.5 4.3 1.9 0 1.1 5.3 1 6.6 0 .5-.5 2.7-1.4 4.9-2 4.9-1.4 13.6-9.7 16.6-15.8 3.7-7.8 1-11.2-11.8-14.4-8.1-2-16.6-2.4-21.8-1z" fill="#630" stroke="#630" stroke-width="3"/><path d="M279.8 936.7c9.4.2 25 .2 34.5 0 9.4-.1 1.7-.3-17.3-.3s-26.7.2-17.2.3z" fill="#E57F4C" stroke="#E57F4C" stroke-width="3"/><path d="M532.1 428.2c-.6 1-3.1 2.7-5.4 3.7l-4.2 1.9 3 1.2c3.3 1.3 14 .9 15.5-.6.6-.6-.5-2.2-3.3-4.6-4.2-3.5-4.4-3.5-5.6-1.6z" fill="#FFB2CC" stroke="#FFB2CC" stroke-width="3"/><path d="M544.6 433.4c.7 1.9-3.8 3.8-10.3 4.4-6.3.5-11.7-.8-13.8-3.4-.8-.9-2.1-1-4.5-.4-1.9.4-2.8.8-1.9.9.9.1 2.4 1 3.5 2.2 2.5 2.8 4.6 3.8 9.8 4.8 6.9 1.3 15.1-.4 19.7-4.1 2.1-1.7 3.6-3.4 3.4-3.8-.8-1.2-6.3-1.8-5.9-.6zM370.8 1096c-2.4 1.5-2.6 3.8-3.3 39.7l-.6 32.2 2.6 1.7c1.5.9 3.4 1.4 4.7 1 5.2-1.4 5.3-1.5 5.8-19.3l.5-16.8 15.6-.5c11.1-.4 16.1-.9 17.2-1.9 2.3-1.9 2.1-6.4-.4-8.7-1.8-1.7-3.9-1.9-16.3-2.1-7.7-.1-14.5-.2-14.9-.2-.4-.1-.7-3.1-.5-6.9l.3-6.7 17.5-.5c11.6-.3 18.3-.9 19.8-1.8 2.5-1.5 2.9-4.9.8-7.8-1.3-1.8-3-1.9-24.3-2.1-14.2-.2-23.4.1-24.5.7zm-142.5 11.2c-.6.7-1.3 6.2-1.7 12.2-.3 6-.8 11.1-1 11.4-.3.2-1.9-.1-3.7-.7-4.4-1.5-11.3-1.4-15.2.3-4.7 2-9.4 6.8-10.2 10.4-.3 1.8-1.1 3.4-1.6 3.7-1.9 1.2-1 10.3 1.5 15 3.2 5.9 5.9 8.1 12.3 10.1 4.5 1.3 6 1.3 10.5.2 3.6-.9 6.2-1.1 7.9-.4 1.4.5 3.8.6 5.1.3l2.6-.7.7-20.2c.3-11.2.5-25.3.3-31.3l-.3-11-3.1-.3c-1.7-.2-3.5.3-4.1 1zm-6.8 31.1 4 2.2.3 8.7.3 8.8-3.3 2c-3.5 2.1-9.1 2.6-13.1 1.1-3-1.2-6.7-7.2-6.7-11 0-4 3.2-9.9 6.6-12.1 3.8-2.4 7-2.3 11.9.3zm295.7-31.1c-1.1 1.5-2.7 58.4-1.7 61 .4 1.1 1.8 1.8 3.4 1.8 5.1 0 5.5-1 6.1-14.3.3-8.1 1-12.9 1.8-14 3.2-3.9 14.2-4.6 15.6-1.1.3.9.6 7.1.6 13.8 0 13.3 1.1 16.6 5.4 16.6 4.7 0 5.6-2.6 5.6-16.2 0-19.8-3.3-25.2-15.4-25.3-3.4 0-7.8.4-10 .9l-3.8.9.7-10.5c.8-12.2 0-14.8-4.4-14.8-1.6 0-3.3.6-3.9 1.2zm-223.3 19.5c-1.5.3-1.8 2.9-2.4 17.6-.4 9.5-.5 19-.3 21.2.3 3.9.4 4 4.3 4h4l.8-13.5c.5-7.9 1.3-14 2-14.7 2.6-2.5 8.7-3.3 13.5-1.6 4.5 1.5 4.7 1.5 6.4-.8 2.4-2.9 2-4.7-1.5-7.3-2.4-1.7-4.3-2.1-11.3-2.1-5.1 0-8.8-.5-9.2-1.1-.9-1.4-4.2-2.3-6.3-1.7zm278.6 2.4c-7 2.6-10.5 7.4-10.5 14.4 0 1.8.7 4.1 1.6 5 2.1 2 8 4.5 10.9 4.5 6.6 0 11.6 4.9 7.8 7.7-2.3 1.7-9.1 1.6-14.2-.2-2.3-.8-4.8-1.2-5.6-.9-4.1 1.6-1.8 8.7 3.3 10.1 4.3 1.2 17.4.9 20.7-.5 3.3-1.4 7.5-7.1 7.5-10 0-5.6-6.7-12.7-12.8-13.8-8.1-1.4-9.7-2-10-4.1-.2-1.5.6-2.5 2.9-3.7 4.1-2 8.2-2 12.1 0 4 2.1 7.8 1.1 7.8-2 0-2.9-2.5-5.1-7.9-7.1-5.4-1.9-7.3-1.8-13.6.6zm-315.3.1c-8.6 1.9-14.2 10.4-14.2 21.6 0 6.4.3 7.4 3.3 11.4 4.5 6 8.6 7.8 17.5 7.8 11.2 0 18.2-3.9 18.2-10 0-4.3-2.5-4.9-6-1.5-3.2 3-9.9 4.3-16.3 3.1-3.7-.7-8.7-4.6-8.7-6.8 0-1.5 6.6-3.2 19-4.8 9.5-1.2 11-2.3 11-7.9 0-9.6-11.4-15.8-23.8-12.9zm11.4 7.4c1.9.9 3.4 2 3.4 2.5s.1 1.2.3 1.6c.1.5-1.8 1.1-4.3 1.5-2.5.4-6.7 1.1-9.5 1.6-2.7.6-5.4.6-5.8.2-2.3-2.2 5.4-9 10.1-9 1.3 0 3.9.7 5.8 1.6zm161.2-7.5c-1.6.9-1.8 2.8-1.8 15.7 0 12.8.3 15.1 2 17.9 3.3 5.5 6 6.6 14.9 6.1 6.8-.4 8.2-.2 9.5 1.4 1.6 1.9 3.3 2.2 6 1.2 1.1-.4 1.6-1.9 1.6-5.3 0-2.5.5-11.5 1.2-20 1.1-14.6 1-15.4-.7-16.7-2.2-1.6-4.4-1.8-6.5-.4-1.1.7-1.6 4-2 13.4-.6 11.4-.8 12.8-3 15.1-1.8 1.9-3.4 2.5-6.6 2.5-6.5 0-7.4-2.2-7.4-17.4 0-11.4-.2-12.6-1.9-13.6-2.4-1.2-3.1-1.2-5.3.1zm50.7 1.3c-6.7 3-10.5 10.6-10.5 20.8 0 6.9 1.6 11.3 5.7 15.1 6.5 6.1 25.8 5.3 29.3-1.3 2.4-4.4-1.6-6.9-7.3-4.5-4.1 1.7-10.4 2-14.1.5-2.6-1-6.6-7.5-6.6-10.8 0-3.6 3.9-10 7.5-12.1 4.5-2.6 7-2.6 12.3-.1 4.9 2.4 7.1 2.5 7.8.5 1.2-2.9-.5-6.1-4.1-7.8-4.3-2.1-15.6-2.2-20-.3z" stroke-width="3" fill="#CC667F" stroke="#CC667F"/><path d="M388.3 1107.7c3.2.2 8.1.2 11 0 2.9-.2.3-.3-5.8-.3-6 0-8.4.1-5.2.3zm127.1 16.3c0 5.2.1 7.4.3 4.7.2-2.6.2-6.8 0-9.5-.2-2.6-.3-.4-.3 4.8zm-88 20c0 6.9.1 9.7.3 6.2.2-3.4.2-9 0-12.5-.2-3.4-.3-.6-.3 6.3zm87 10.5c0 5.5.1 7.6.3 4.7.2-2.9.2-7.4 0-10-.2-2.6-.3-.2-.3 5.3zm-224 6c0 4.9.1 7.1.3 4.8.2-2.3.2-6.4 0-9-.2-2.6-.3-.8-.3 4.2z" stroke-width="3" fill="#CC7F99" stroke="#CC7F99"/><path d="M390.8 1108.7c4.6.2 11.8.2 16 0 4.2-.1.5-.3-8.3-.3s-12.3.2-7.7.3z" fill="#FFE5FF" stroke="#FFE5FF" stroke-width="3"/><path d="M395.3 1094.7c3.7.2 9.7.2 13.5 0 3.7-.2.6-.3-6.8-.3-7.4 0-10.5.1-6.7.3z" fill="#CC99B2" stroke="#CC99B2" stroke-width="3"/><path d="M381.7 1134.7c-.3.5 3.8.7 9.1.5 17.2-.4 19-.8 5-1-7.5-.1-13.9.1-14.1.5z" fill="#E5B2CC" stroke="#E5B2CC" stroke-width="3"/><path d="M393.8 1120.7c2.9.2 7.4.2 10 0 2.6-.2.2-.3-5.3-.3s-7.6.1-4.7.3z" fill="#E5CCE5" stroke="#E5CCE5" stroke-width="3"/></svg>