<svg version="1.0" xmlns="http://www.w3.org/2000/svg" viewBox="0 0 784 1259"><g fill="#FFF" stroke="#FFF" stroke-width="3"><path d="M0 629.5V1259h784V0H0v629.5zM470.1 86.1c13.8 4.7 21.2 23.3 14.4 36.1-1.4 2.6-2.5 5.1-2.5 5.6 0 1.5 6.9 11.2 10.5 14.7 1.8 1.8 4.7 3.6 6.6 4 1.9.4 4.8 1.3 6.4 2.1 1.7.7 4.8 2 7.1 2.8l4.1 1.4 2.6-4c3.7-5.8 5.3-13.9 3.3-17.5-5.1-9.6-5.9-12-6-17.9 0-14.2 12.2-26.4 26.5-26.4 4.2 0 7 .7 11.6 3 9.8 4.9 14.3 12.4 14.3 23.7 0 8.7-2 13.1-9.4 20.7-4.9 5.1-6 7.1-8.1 14.1-1.4 4.4-2.5 9.1-2.5 10.3 0 4.7 4.1 17.2 5.6 17.2.4 0 2.8-1.8 5.5-4.1 2.6-2.2 8.8-6.3 13.6-9.1 18.9-10.9 36.6-14.3 57.2-11.2l3.4.5-.6 7.9c-.6 7.9-2.4 16.7-3.7 18.5-.4.5-1.3 2.8-2 5-1.6 5-5.1 11.2-11.2 19.7l-4.8 6.6.6 7c.4 4.2.2 9.6-.6 13.6-1.2 6.5-1.2 6.6 1.8 11.3 16.7 26.7 26.4 64.4 22.2 86.3-3 15.7-6.2 23.4-14.1 33.2-16.4 20.4-46.1 30.2-92.4 30.2-17.8.1-20.8-.2-27.9-2.2-13.6-3.9-20.6-8.7-27-18.6-3.3-4.9-4.4-7.2-11.7-23.6-7.5-16.8-17.3-29.8-26.3-34.8-3-1.8-10.4-4.4-16.3-5.9-9.7-2.4-12.6-2.7-28.3-2.7-16.2 0-18.2.3-27 2.8-20.6 6-31.6 16.8-38.4 37.6-2.6 8.1-3.8 15.5-5.8 35-1.8 17.8-1.8 206.2 0 224 2.7 26.3 5 36.2 11.2 47.8 7.4 13.9 21.2 23.2 39 26.3 10.5 1.9 35.5 1.7 46-.4 31.6-6 46.2-25.1 49-64.4.5-7.6 1-15.3 1-17.1v-3.3l-23.3.2c-20.6.2-23.7 0-27.2-1.6-10.2-4.7-14.6-10.6-17-23.1-1.1-6.1-1.5-15.5-1.5-40.7V494l-3.7 2.3c-6.8 4.3-9.4 7.3-18.3 20.7-.9 1.4-2.4 4.7-3.3 7.4-1.7 4.8-1.6 5.1.5 9.5 2.8 5.6 3 14.2.6 25.1-1.6 7-6.6 21.7-8.7 25.7-.5 1-2.8 6-5.1 11.1-5.6 12.5-9 18.4-10.4 17.9-1.3-.4-5.9-12.2-8.8-22.7-4.9-18-5.1-19.5-5.2-33.5-.1-12.9.1-14.4 2.4-19 1.3-2.7 4-6.4 5.8-8.1 2.5-2.3 3.7-4.4 4.2-7.5 3-17.8 7.1-29.4 14.2-39.6 11.8-17.2 32.9-29.7 56.3-33.5 5.9-.9 32-1.3 100.5-1.5 80.9-.3 93.4-.1 99.4 1.2 3.8.9 8 2.2 9.5 3 4 2.1 8.7 7.5 11.3 13l2.3 5v88c0 65.3-.3 89.4-1.2 93.5-.7 3-1.9 10.9-2.8 17.5-.9 6.6-2 13.3-2.6 15-.5 1.6-1.8 6.4-2.8 10.5-3 11.9-5.9 21.3-7.5 24.5-.9 1.7-1.6 3.4-1.6 3.8 0 1.8-6.5 15.6-11.3 24.1-19.2 34.2-44.5 59.2-76.8 76l-6.7 3.5-.7 13.8c-.4 7.6-1.1 18.1-1.5 23.3-.5 5.2-1.6 20.9-2.5 34.9l-1.7 25.5 2.2 13c2 11.7 2.2 13.7 1 19.6-1.7 8.7-3.5 12.8-7.3 16.8-5.4 5.6-10.9 7.7-20.7 7.7-7.6 0-9.1-.3-13.9-3-4-2.2-6.3-4.4-8.5-8-3-4.8-3.1-5.4-3.1-16.5 0-9.9.4-12.6 2.7-19.3l2.7-7.8-1.4-10.7c-.8-5.9-1.6-11.4-1.9-12.2-.3-.8-1.5-8.5-2.6-17-2.5-19.6-5.2-38.4-5.6-38.9-.2-.2-2.3 0-4.8.3-2.8.5-4.7 1.3-5.1 2.4-.3.9-1.5 14.7-2.5 30.7-1.1 15.9-2.4 32.2-3 36.1-1 6.2-.9 7.9.7 12.5 1.4 4.2 1.8 8.5 1.8 18.9 0 12.2-.2 13.9-2.3 18-5.6 10.6-12.3 14.4-25.7 14.4-9.6 0-14.2-1.7-19.1-6.8-7.4-7.8-8.3-25-2.3-43 1.8-5.3 1.9-6.8 1-11.1-.6-2.8-2-12.2-3-21-1.1-8.8-2.2-16.7-2.5-17.5-.3-.8-1.2-7.3-2.1-14.5-.9-7.1-1.7-13-1.8-13.1-.1-.1-5.3-.4-11.4-.6l-11.3-.3-.5 4.5c-.3 2.5-1 7.9-1.5 12s-1.7 16.9-2.5 28.5c-.9 11.5-1.8 22.2-2.1 23.8-.3 1.5.1 5.5 1 9 5.6 23.4 1.3 40.6-12 47.3-5 2.5-6.8 2.9-14.3 2.9-7 0-9.4-.5-12.8-2.3-5.8-3-9.9-7.7-11.4-12.9-2.2-7.8.1-32.7 3.4-35.9 1-1 .9-7.8-.2-10.7-.5-1.3-1.7-7.5-2.5-13.8-.9-6.3-2.1-13.2-2.7-15.4-.5-2.2-1.9-9.4-2.9-16-4.9-31-5.1-31.5-9.6-31.5-2 0-2.1.7-3.3 19.7-.7 10.9-1.7 23.8-2.2 28.8-3 28.5-3.1 34.1-.8 43.1 3.9 15.5 1.5 32-5.9 39.4-4.9 5-11.7 7.5-20.7 7.5-13.2 0-20.7-4.9-24.6-16.1-2.7-7.4-2.2-15.9 1.6-29.3l2.6-9.4-2.1-12.1c-1.1-6.6-3.1-18.2-4.4-25.6-6.2-34.3-7.6-42.5-10-56-4.8-27.1-3.4-23.9-14.7-33.1-22.9-18.9-46.5-53.7-55.5-81.9-.8-2.5-2.1-5.9-2.8-7.5-.8-1.7-1.9-5.7-2.6-9-.7-3.3-1.6-6.7-2.1-7.6-1-1.9-4.3-18.7-6.7-33.9-1.5-9.4-1.7-26.4-1.7-169s.2-159.6 1.7-169c2.4-15.1 5.7-32 6.7-33.9.5-.9 1.6-5 2.5-9.1 1-4.1 2.1-7.9 2.6-8.5.4-.5 1.5-3.3 2.3-6 3.2-10.1 12-28.8 18-38 5-7.5 12.2-17.8 14.7-20.9 2.7-3.3 22.1-22.8 26.1-26.2 7.9-6.7 26.6-18.6 37.9-24.1 9.4-4.6 20.6-9.3 22.2-9.3.7 0 2.6-.7 4.2-1.5 4.5-2.4 29.4-8.8 44.6-11.5 20.6-3.7 66-6.1 78-4.1 3.6.6 12.5 1.7 19.8 2.6 7.3.8 14.1 1.9 15 2.4.9.4 3.5 1.1 5.7 1.5l4 .6-3-1.6c-4.9-2.7-9.6-7.6-11.8-12.4-2.6-5.6-2.7-16.7-.3-22.2 2.1-4.9 7.8-10.6 13-12.9 4.7-2.1 15.4-2.5 20.7-.8zm-96.6 1007.7c11.9 5.7 16.8 15 11 20.7-3.4 3.5-6.3 3.1-12.9-1.6-9.6-6.9-18.2-7.4-25.9-1.5-5.3 4-7.9 7.9-10.1 15-1.5 4.7-1.6 6.3-.6 11.3 1.6 7.5 3.5 11.2 7.3 14.3 2.6 2.1 4.2 2.5 9.7 2.5 5.6 0 7.1-.4 10.9-3 2.5-1.7 5.3-4.5 6.4-6.3l1.9-3.2h-9.7c-9.3 0-9.7-.1-12.6-2.9-3.4-3.4-3.7-6.9-1-10.2 1.6-2.1 3.1-2.5 10.8-3.1 4.8-.3 12.5-.7 17.1-.7 7.5-.1 8.5.1 10.7 2.4 2.8 2.7 3 5.2 1.4 14-3.4 18.3-17.3 29.6-36.4 29.7-17 .1-27.9-8.9-31.9-26.5-2.1-8.9-2-14.5.4-23.9 3-12.1 9.4-20.9 18.5-25.5 7.2-3.7 9-4.1 19.5-4.2 8.5-.1 10.2.2 15.5 2.7zm-165 10.6 2.4 2.4-.5 23.9c-.9 33.8-1.2 37-4.6 39.1-2.6 1.5-3 1.5-5.5 0-2.5-1.4-3.3-1.5-6.8-.2-2.2.7-5.6 1.4-7.5 1.4-4.6 0-12.6-4.6-16.4-9.3-3-3.7-3.1-4.3-3.1-13.1 0-8.6.2-9.6 2.9-13.5 4.2-6 10.5-9.5 17.5-9.5 3.1-.1 6.5.2 7.7.7 2 .7 2.1.4 2.7-9.5.6-9.4.9-10.5 3.3-12.6 3.2-2.8 4.9-2.8 7.9.2zm327.1 1.1c1.5 1.5 2.3 3.2 2 4.1-.3.9-.6 2-.6 2.5 0 1.5-5.7 3.9-9.4 3.9-3.9 0-6.6 2.8-6.6 6.7 0 2.1.5 2.3 4.4 2.3 8.6 0 12.7 3.4 10.4 8.5-1.3 2.8-2.8 3.3-10.3 3.7l-5 .3-.7 14.8c-.7 16-1.6 18.7-6.4 18.7-4.5 0-5.4-3.2-5.4-18.6v-14.1l-4-.7c-10.2-1.6-8-12.6 2.6-12.6 1.3 0 2.4-.2 2.4-.4 0-3.2 2.6-11.8 4.3-14.4 4.6-7 17.3-9.7 22.3-4.7zm40.4-1.2c1.4.7 2.6 2.1 2.8 3.1 1 5.2-2.6 8.6-9.1 8.6-4.4 0-5.7 1.1-6.7 5.4l-.8 3.6h5.2c6.9 0 10 1.7 10.4 5.6.5 4.8-1.8 6.4-9.4 6.4H562v14.4c0 13-.2 14.6-2.1 17-2.3 3-5.4 3.3-8.1.9-1.6-1.4-1.8-3.3-1.8-16.3v-14.7l-3.6-.6c-4.8-.8-6.4-2.3-6.4-6.2 0-4 1.7-5.5 6.8-6.2 3.8-.5 4-.7 4.6-5.1.9-6.8 5-13 9.9-15.3 4.8-2.1 11.1-2.4 14.7-.6zm-344.7 4.9c1.7 2.1 2.3 6.5.9 8.4-1.1 1.6-5.5 4.4-6.8 4.4-2.6 0-7.4-5.2-7.4-7.8.1-2.8 2.5-6.5 5-7.5 2.4-1 6.4.2 8.3 2.5zm174.1-1.1c2 1.6 2.6 2.9 2.6 5.8 0 4.2-1.9 6.5-6.2 7.6-2.2.6-3.3.1-5.8-2.3-3.8-3.8-3.8-6.6-.1-10.3 3.5-3.4 5.9-3.6 9.5-.8zm29.1 17.2c8.6.4 10.7 1.1 14.5 5.2l2.5 2.6-2 3.7c-2.3 4.3-5.2 5.1-8.9 2.6-2.9-1.8-7.8-1.3-11 1.1-1.6 1.2-2 3.2-2.4 14-.4 11.9-.6 12.7-3 14.5-2.9 2.3-5.1 2.5-7.6.7-1.7-1.2-1.8-3.2-1.7-22.2.1-14 .6-21.4 1.3-22.3.9-1 2.5-1.2 5.7-.8 2.5.3 8.2.7 12.6.9zm-206.5.7c3 1.6 3.5 5.7 3 23.6-.4 15.1-.7 17.5-2.4 19.3-2.5 2.7-5.7 2.7-8.3-.2-2.6-2.8-2.6-1.9-2.4-21.8.1-16.2.2-16.7 2.6-19.3 2.6-2.8 4.5-3.2 7.5-1.6zm41.4 1c7 3.4 11.1 11.9 8.6 17.9-1.3 3.3-4.4 4.3-19.9 6.5-4.7.6-8.6 1.6-8.8 2.2-.7 2.1 6.5 5.4 11.6 5.4 3.6 0 5.8-.7 9.4-3.1 5.3-3.5 8.3-3.2 9.3.8 1.8 7.1-7.5 13.7-19.6 13.8-8.7 0-15.3-3.2-19.5-9.5-2.7-4-3-5.3-3-12.1 0-6 .5-8.5 2.4-12.2 2.4-4.7 6.9-8.9 11.3-10.7 4.2-1.6 13.9-1.1 18.2 1zm135.3.6 2.5 2.5-.6 17.7c-.6 14.6-1 18.1-2.5 20.2-2.4 3.4-5.7 3.7-8.7.9-2.3-2.2-2.4-2.7-2.4-17.3 0-8.3.5-17.1 1.1-19.6 1.6-7.3 5.9-9.1 10.6-4.4zm86.6.2c1.7 1.5 1.8 2.8 1.2 13.7-.4 8-.3 13.5.5 16.5 2.1 8 2.2 10 1 11.5-1.7 2.1-7.7 1.9-8.8-.2-.9-1.5-1.3-1.5-5.4 0-5.9 2.3-12.4 2.1-17.8-.6-10.7-5.2-12.6-22.6-3.8-34.9 2.1-3 8.2-6.6 13.3-7.9 4.7-1.2 17.7.1 19.8 1.9zm122-1.4c1.8.7 4.7 3 6.5 5 2.7 3.2 3.2 4.4 3.2 9 0 7.7-.6 8-20.3 11-4.8.7-9 1.5-9.3 1.9-.3.3 1.2 1.7 3.3 3.1 5.5 3.8 12.6 3.6 17.9-.4 2.1-1.6 4.6-3 5.5-3 2.4 0 4.2 2.7 4.2 6.2 0 4.2-4.5 8.1-11.6 10.2-7.2 2.1-10.5 2-17-.4-9.3-3.5-13.7-10-13.7-20.5 0-10.2 4.8-18.4 13-21.9 4.4-1.9 14-2 18.3-.2z"/><path d="M484.5 189c-9.7 1.4-19.6 9-24.5 18.6-2.1 4.2-2.5 6.2-2.5 14.4 0 8.1.4 10.2 2.5 14.5 10.8 21.6 40 25.5 55.1 7.4 5.9-7.1 7-9.8 7.6-19.2.8-10.6-1.4-17.8-7.5-24.7-7.4-8.5-19.2-12.7-30.7-11zm22.5 21.4c8.5 4.3 11.3 13.9 6.5 22.1-4.2 7.3-13.2 9.8-20.9 6-6.1-3.1-8.1-6.5-8.1-14 0-7.4 1.9-10.7 8.1-14.2 5.1-2.8 8.9-2.8 14.4.1z"/><path d="M495.2 215.2c-1.7 1.7-1.5 5.5.4 6.2 4.7 1.8 7.9-.9 6.3-5.2-.9-2.4-4.7-3-6.7-1zm67.8-25.9c-10.7 3.8-17.5 10.2-21.7 20.3-6.8 16.7 2.1 36.2 19.5 42.8 8.6 3.3 14.9 3.3 23.1.1 8.5-3.3 14.1-8.1 18.2-15.7 3.1-5.9 3.4-6.9 3.4-15.3-.1-8.1-.4-9.6-3.2-15-3.6-6.9-7.8-11.2-14.7-15-4-2.2-6.5-2.8-13-3.1-4.8-.2-9.5.2-11.6.9zm27.9 21.1c5.1 3.3 7.4 8.4 6.9 15.1-.7 8.7-6.5 14-15.3 14-11.9 0-19.8-11.7-14.9-22 4.2-8.9 15.1-12.2 23.3-7.1z"/><path d="M578.8 214.1c-2.2 1.2-2.3 5.2-.3 6.9.8.7 2.5 1 4 .6 2-.5 2.5-1.3 2.5-3.6 0-1.9-.7-3.3-1.9-4-2.3-1.2-2.2-1.2-4.3.1zM184 1137.7c-4.6 2.4-6.2 5.6-5.7 11.7.4 4 1 5.4 3.2 7.2 3.7 2.9 6.6 3.4 10.6 1.7 4.5-1.9 4.9-2.7 4.9-11 0-6.4-.3-7.4-2.2-8.7-3.9-2.5-7.1-2.8-10.8-.9zm67.9.9-2.4 2.6 4.3-.6c2.3-.3 6-.9 8.2-1.2 6.8-1 4.4-3.4-3.4-3.4-3.3 0-4.8.6-6.7 2.6zm219.5-.7c-2.9 1.8-7.4 9.4-7.4 12.6 0 .8.7 3.2 1.6 5.4 1.8 4.6 4.6 5.7 10.4 4.1l4-1.1V1136h-2.7c-1.6 0-4.2.9-5.9 1.9zm125.7.2c-1.2 1.2-2.1 2.3-1.9 2.5.2.1 3.3-.1 6.8-.6 3.6-.5 7.2-1 8-1 1.1-.1 1-.4-.4-1.5-3-2.3-9.8-1.9-12.5.6z"/></g><path d="M473.8 448.7c26.1.2 68.4.2 94 0 25.7-.1 4.4-.2-47.3-.2-51.7 0-72.7.1-46.7.2zM398.4 528c0 19 .2 26.7.3 17.2.2-9.4.2-25 0-34.5-.1-9.4-.3-1.7-.3 17.3z" stroke-width="3" fill="#FFFFE5" stroke="#FFFFE5"/><path d="M145.5 491c0 67.4.1 94.9.2 61.2.2-33.6.2-88.8 0-122.5-.1-33.6-.2-6.1-.2 61.3z" fill="#E5994C" stroke="#E5994C" stroke-width="3"/><path d="M454.6 87.1c-12.3 3-20 14.9-18.1 27.7 2.5 16.8 21.2 25.8 36.5 17.6 4.4-2.4 6.1-4 8.8-8.9 4.7-8.3 5-15.9.8-23.6-1.7-3-3.9-6.2-5-7.2-6.1-5.2-15.4-7.5-23-5.6zm76.9 4.8c-8.8 5.1-12.9 11.6-12.9 21.2-.1 5.4.4 7.5 2.8 12 4 7.3 6.2 9.3 12 11.3 5.8 1.9 16.8 2.1 19.9.4 6.5-3.4 12-10.8 13.7-18.2 4.5-20.1-17.8-36.9-35.5-26.7zM323 138.1c-50.4 10.5-85.2 28.2-115 58.3l-8.5 8.6 3 2.5c1.7 1.4 5.2 3.9 8 5.7 4.7 3.1 5.5 3.3 14 3.3 10 0 10.1 0 26.5-10.9 10-6.6 20.9-12.2 27.9-14.2 3.1-.9 6.4-2 7.3-2.5 1-.5 8.8-1.3 17.4-1.9 13.4-.8 16.5-1.3 21.3-3.5 10.5-4.9 13.6-10.6 12.9-23.9-.4-5.7-1.3-10.2-3.4-15.4-3.1-7.9-3-7.8-11.4-6.1zm9.7 109.2c-2.6.7-6.7 2.7-9 4.6-4.3 3.5-9.8 11.4-11.2 16.1-.4 1.4-1.3 3.8-2 5.5-.8 1.6-1.8 5.4-2.4 8.2-1.8 8.9-7 19.8-12 25.3-3.6 4-6.3 5.7-12.6 8.3-13.4 5.4-16.6 8.9-22.2 23.9-2.4 6.3-2.8 8.8-2.8 18.4 0 10.4.2 11.4 3 16.9 3.3 6.4 10.6 13.3 18.8 17.9 6.8 3.8 19.8 8.2 26.7 9.1 3 .4 6.1 1.2 6.8 1.8.7.5 1.4.8 1.6.6.1-.2.8-7.6 1.5-16.4 3-40.2 7.6-55.5 21.2-70 10.1-10.7 22.8-15.5 45.2-17.1 9-.6 11.2-1.4 8.7-2.9-.5-.3-1-1.3-1-2.1 0-.9-1.3-4.5-3-8.1-1.6-3.5-3-6.6-3-6.8 0-1.5-9.4-14-14.1-18.6-12.4-12.6-25.8-17.7-38.2-14.6zM180 272.6c-3 .8-7.5 2.5-10 3.8-2.5 1.3-5.7 2.6-7.2 3-2.9.7-2.7.3-6.2 14.1-1.9 7.7-4.4 21.9-6.3 36.5-1.2 9.5-1.6 30.9-2 120.8-.3 62.8-.1 109.8.4 110.3 1.4 1.4 11-4.9 17.7-11.7 7.7-7.6 8.2-8.3 10.2-13.6 1-2.4 2.1-4.8 2.6-5.4.4-.6 1.7-5.2 2.8-10.2 1.1-5.1 2.9-13.2 3.9-18 2.9-12.9 5.8-18.5 14.6-28.2 7.9-8.5 8.8-9.6 13.5-15.4 2.7-3.2 6.2-8.5 9.8-14.7 2.8-4.7 5.4-14 6-21.3.7-10.2-5.3-25.2-13.9-34.6-1.8-1.9-5.3-5.8-7.9-8.7-6.3-6.9-10.9-15.2-12.1-22-1.7-8.8.2-16.3 7.5-31 8.2-16.5 8.6-17.8 8.6-28.8 0-9.9-1-13.9-4.8-19.7-4.2-6.5-14.7-8.5-27.2-5.2zm238.9 181c-29.2 4.5-51.9 21.8-61.8 47.1-1.7 4.3-6.4 24.5-5.8 24.9.1.1 3.8.4 8.3.6l8 .4 3.7-7.6c7.4-15.3 18.1-26.4 28.5-29.5l2.2-.6v36.2c0 22.1.4 38.7 1.1 42.6 1.5 8.4 5.9 14.9 12.5 18.3 4.8 2.4 5.4 2.5 29.7 2.8l24.7.3v10.5c0 5.8-.5 14.6-1 19.7-.6 5.1-1.2 10-1.3 11.1-.2 1.5.6 1.9 4.2 2.3 2.5.2 5.3.9 6.2 1.4 1 .5 7.1.9 13.5.9 10.1 0 12.8-.4 19.3-2.6 4.2-1.4 7.8-2.9 8.1-3.3.3-.4 1.8-1.6 3.3-2.8 7.2-5.5 10.7-15.3 10.7-29.8 0-16.3-3.8-27.2-12.4-36.3-2.3-2.4-9-7.6-15.1-11.7-15.9-10.6-18.5-14.2-18.5-25.2.1-6.9.7-9 10-34.8 4.2-11.8 4.3-18.2.3-23.9-1.6-2.3-4.6-5-6.8-6.1-2.2-1.1-4.5-2.5-5.3-3.2-.7-.7-2.9-1.7-5-2.3-5.4-1.5-50.8-1.1-61.3.6zM627 476.9c-10.8 10.9-16.3 18.5-20.9 28.4-3.9 8.5-5.5 15.7-5.5 25.7 0 7.8 2.6 23.1 4.4 25.5 1.4 1.9 3 12.9 3 20.9 0 9.3-.7 11.1-8.4 20.5-7.3 9-11.2 17.1-12.6 26.1-.6 4.1-1.6 9.7-2.1 12.3-2.5 13.3.5 35.9 6.4 47.5 3.5 7 9.4 12.9 16 16.1 3.8 1.8 17.6 4.5 18.5 3.7.2-.2 1.9-6.6 3.8-14.2 3.4-13.9 5.5-27.3 7.4-47.9 1.1-12.2 1.2-165.5.1-169.4-.4-1.4-1.1-2.5-1.6-2.7-.6-.1-4.4 3.3-8.5 7.5zm-329.8 29.6c-13.4 3.7-22.5 12.9-25.2 25.4-2.3 11.1-.4 37 4 54.1 1.7 6.6 1.5 24.9-.4 32.8-.9 3.7-2.6 10.5-3.7 15.2-3.9 16.1-4.8 22.5-4.9 33.8 0 6.2.5 13.4 1.2 15.9 2.5 10 9.9 19.4 18 22.7 2.4 1 5.1 2.2 6 2.7 3.3 1.7 14.1.9 21.6-1.6 8.1-2.6 18.8-9.4 24.3-15.2 2-2.1 5.9-6.8 8.7-10.5l5.1-6.6-6.7-5.4c-11.8-9.5-20.4-22.2-23.6-35.4-2.7-10.6-5.6-68.4-5.6-111.2V504l-5.2.1c-2.9.1-9.1 1.1-13.6 2.4zM170.5 643.8c-2.5.2-9.7 3.4-17.7 7.7-2.4 1.3-2.3 4.8.8 21.9 16.1 89.1 68.1 145.4 154.5 167.1 20.3 5.1 18.6 6 19.4-9.2 1.2-21-.4-35.6-5.1-45.3-1.3-2.7-2.4-5.2-2.4-5.6 0-.3-1.2-2.2-2.7-4.2-10.1-13.5-24.4-20.1-43.6-20.2-4.3 0-9.7-.4-12-.9-2.3-.5-6.8-1.5-10-2.1-3.1-.6-8.3-2.4-11.4-4-6.3-3.2-15.9-12-18.3-16.6-.8-1.6-2-3.6-2.6-4.4-1.8-2.3-7.1-18.9-8.8-27.7-.9-4.3-2.5-12.5-3.6-18.3-1.1-5.8-2.6-11.9-3.4-13.5-.8-1.7-1.7-4.1-2.1-5.5-.4-1.4-2-4.1-3.4-6-6.9-9.2-17.4-14.2-27.6-13.2zm335.7 43.3c-12.3 2.1-26.9 11-43.2 26.5-6.2 5.8-18.2 14.4-20.2 14.4-.5 0-2.8.9-5.1 1.9-6.2 2.9-17.7 4.1-37.7 4.1-16.3 0-18.1.2-21.8 2.2-2.4 1.2-4.6 3.3-5.3 5-1.7 4.2-.7 19.3 1.6 24.3 2.5 5.2 10.7 13.3 17 16.9 4.9 2.7 16.7 6 27.5 7.6 7 1.1 28.8 1.1 36 0 35.6-5.1 67.7-20.8 82.6-40.5 6.9-9.1 7.9-12.1 7.9-23.5 0-8.8-.4-11.5-2.4-16.5-5.2-13-12.9-20.6-23-22.5-6-1.1-6.5-1.1-13.9.1z" stroke-width="3" fill="#E56600" stroke="#E56600"/><path d="M382.8 128.7c3.4.2 9 .2 12.5 0 3.4-.2.6-.3-6.3-.3-6.9 0-9.7.1-6.2.3z" fill="#FFE5CC" stroke="#FFE5CC" stroke-width="3"/><g fill="#CC7F00" stroke="#CC7F00" stroke-width="3"><path d="M478.3 129.1c-1.7 1.7.3 5.5 7.4 14.1 4.5 5.5 6.9 7.7 9.2 8.1 1.7.4 5.1 1.6 7.5 2.7 2.5 1.1 4.8 2 5.2 2 2.1 0 23.7 10.9 32.4 16.4 14.5 9 20.3 14.6 15.4 14.6-2.5 0-9 4.7-12.8 9.3-20.8 25.4-3.2 63.5 29.6 63.8 12 .1 23.9-5.4 30.3-14 1.7-2.2 3.5-4.1 4-4 2.1 0 14 22.9 16.6 32 .7 2.4 1.6 4.9 2 5.4.4.6 1.9 6.6 3.3 13.5 2.7 12.9 3.6 32.3 1.7 37.2-.5 1.3-1.4 4.5-2 7.3-2.8 12-11.9 24.3-23.6 32-8.4 5.5-19.5 9.9-32.8 12.9-6.4 1.5-42.5 4.6-46.2 4-10-1.6-17.3-7.8-20.1-16.9-1.7-5.6-1.9-19.9-.4-26 1.4-5.9 1.3-9.5-.5-9.5-.8 0-1.7 1-2 2.2-.3 1.3-1.2 5.2-2 8.8-3 13.3-.8 26.6 6 35.5 1.9 2.5 3.2 4.5 2.7 4.5-2.9-.1-13.6-3.3-16.8-5.1-9.3-5.3-13.6-11.1-21.9-29.4-7.1-15.9-9.4-20-16.3-29.2-9.5-12.9-14.4-15.8-36.2-21.4-5.5-1.4-24.1-2.4-24.8-1.2-.4.5-6.3 1.5-13.2 2.1-21.2 2-30.6 5.7-41.6 16.7-6.5 6.5-10.5 12.9-13.5 21.4-2.1 6-2.3 7.1-1.1 7.1.5 0 1.4-2.2 2-5 1.7-7.2 6.8-15.7 13.7-22.5 13.4-13.5 35.1-19.1 64-16.6 19.6 1.7 34.1 6.6 41.6 14.1 7.4 7.4 17.2 23.1 21.9 35 2.5 6.4 7.4 16.5 8.7 17.8.7.7 1.3 1.7 1.3 2.2 0 1.8 9.9 10.2 14.9 12.7 8.6 4.2 21.5 6.4 36.9 6.4 7.3-.1 14.3-.3 15.5-.6 1.2-.3 8.5-1.2 16.2-2 7.7-.9 16.6-2.5 19.8-3.5 3.1-1.1 6.2-2 6.9-2 1.8 0 13.9-5.9 19.5-9.6 12.9-8.5 22.3-21.9 25.9-36.9 2-8.4 2.9-27.6 1.5-32.5-.5-1.9-1.7-7.8-2.7-13-.9-5.2-2-10-2.4-10.5-.4-.6-1.5-3.3-2.3-6-.9-2.8-2.4-6.8-3.6-9.1-1.1-2.2-2.3-5.2-2.6-6.7-.4-1.4-1.3-3.1-2.1-3.8-.8-.6-1.4-1.7-1.4-2.3 0-1.2-5.9-10.9-8.1-13.5-1-1.1-.9-1.8.2-3.5 1-1.5 1.4-5.5 1.4-14.1v-12.1l4-5.4c2.2-3 4.5-6.1 5.2-6.8.7-.7 1.3-1.8 1.3-2.4 0-.5.8-2.2 1.9-3.6 1-1.5 2.6-5.2 3.6-8.2 1-3 2.1-6 2.5-6.5 1-1.4 3-13.3 3-18.2v-4.1l-8.4-.7c-8.4-.7-24.2.7-27.4 2.5-1 .5-4.2 1.7-7.2 2.6-7 2.2-20.8 10.2-27.6 15.9-4.8 4.2-5.5 4.4-7.9 3.3-1.6-.7-2.8-2.2-3.2-4-.3-1.6-1-3.1-1.4-3.4-1-.6-1.2-19.7-.3-20.7.8-.8 5.3-11.7 4.8-11.7-.2 0-1.4.5-2.7 1.1-3.8 1.7-7.1 13.8-6.5 23.9.5 8.5.3 8.7-5.2 5-1.4-1-5.9-3.4-10-5.5s-7.7-4-7.9-4.2c-.3-.2.5-1.6 1.7-3.3 2.9-3.9 6.2-12.4 6.2-15.9 0-1.6-.7-3.4-1.5-4.1-1.3-1.1-1.5-.8-1.5 1.6 0 3.9-3.7 13.4-6.3 16.1-2.7 3-4.4 2.9-13-.6-4-1.5-8.5-3.1-10.2-3.5-2.1-.5-4.8-2.8-8.7-7.5-3.2-3.8-5.8-7.3-5.8-7.8s-.6-1.7-1.3-2.6c-.9-1.3-1.5-1.5-2.4-.6zm149.5 33.6c-.6 7.3-3.9 17.7-8.2 25.8-4 7.4-9.8 15.5-11.1 15.5-.6 0-2.1-1.8-3.4-4-2.7-4.8-8.9-10.3-15.6-13.8-4.3-2.2-6.7-2.7-17-3.1-14.7-.7-15.4-1.6-6.8-8.5 9.2-7.3 24.6-14.6 36.8-17.5 2.2-.5 8.9-.9 14.9-1l10.9-.1-.5 6.7zM588.6 190c7.5 3.8 12.2 8.7 16 16.7 2.4 5 2.8 7.1 2.9 14.8 0 8.1-.3 9.6-3 14.9-2.9 5.7-11.5 15.6-13.6 15.6-.5 0-3.1 1-5.7 2.2-3.7 1.8-6.5 2.3-12.8 2.3-4.4 0-9.2-.5-10.5-1.2-1.3-.6-4.1-1.9-6.2-2.9-2.1-.9-5.7-3.6-8-5.9-3.9-3.8-4.9-5.5-8.8-13.9-1.7-3.6-1.9-21.4-.3-22.4.6-.4 1.6-2.3 2.3-4.3 1.4-4.4 8.1-11.7 13.6-14.9 10.3-5.9 23.4-6.3 34.1-1z"/><path d="M365 131.1c-20.8 1.3-53.8 6.2-59.5 8.9-1.1.6-5.1 1.7-9 2.6-3.8.8-7.4 1.9-8 2.4-.5.4-3.7 1.6-7 2.5-3.3 1-6.5 2.1-7.1 2.6-.6.5-3.1 1.6-5.5 2.4-5.1 1.8-21.8 10.2-25.3 12.8-.6.4-3.8 2.5-7.1 4.7-8.5 5.6-10.1 6.8-17.5 13.1-7.6 6.5-23.3 22.9-25.7 26.7-.9 1.5-2.1 3.1-2.7 3.7-.6.5-3 3.9-5.3 7.5l-5 7.5c-.5.5-1.7 2.9-2.7 5.2-1.1 2.4-2.2 4.3-2.5 4.3-.4 0-1.5 2.2-2.6 5-1.1 2.7-2.2 5-2.6 5-.3 0-1.1 1.9-1.8 4.2-.7 2.4-1.8 5.2-2.5 6.3-.7 1.1-2.1 4.7-3.1 8-.9 3.3-2 6.4-2.5 7-.4.5-1.5 4.6-2.5 8.9-.9 4.4-2.1 8.7-2.6 9.5-.5.9-1.9 7-3 13.6s-2.5 14.5-3.1 17.5c-1.6 8.4-2.3 303.6-.8 324.9.7 9.1 1.6 17.2 2 18 .5.9 1.6 6.5 2.5 12.6 1 6 2.1 11.4 2.5 12 .4.5 1.5 4.6 2.5 9 .9 4.4 2.1 8.4 2.5 9 .5.5 1.6 3.7 2.5 7 1 3.3 2.3 6.9 3 8 .7 1.1 1.8 3.6 2.4 5.5.6 1.9 2.7 6.4 4.6 10 1.9 3.6 4.1 7.6 4.8 9 1.5 3 6.8 12.1 7.9 13.5 5.4 6.8 8.8 11.4 8.8 11.7 0 .7 7.7 9.3 14.1 15.7 5.8 5.8 9.6 9.3 16.7 15 3.1 2.5 4.2 4.1 4.2 6.2 0 1.5.4 3 .9 3.3.4.3 1.6 6.5 2.6 13.8 1 7.3 2.1 13.7 2.5 14.3.4.5 1.5 6.6 2.4 13.5 1 6.9 2.1 13.4 2.6 14.5.5 1.1 1.7 7.4 2.5 14 .9 6.6 1.9 12.7 2.3 13.5.3.8 1.5 7.5 2.7 14.9 1.8 12.1 2.2 13.5 4.3 14.2 2 .7 2.2.6 1.8-.9-.3-.9-1.5-7.1-2.5-13.7-3.5-21.4-6.1-35.9-7.5-42.5-.8-3.6-2-10.3-2.6-15-.6-4.7-1.6-9.9-2.1-11.5-1.2-4-5.1-29.7-4.5-30.2.2-.2 4.8 2.3 10.3 5.5 5.4 3.3 12.1 6.9 14.8 8.2 10.6 4.8 21 9 25.9 10.4 9.3 2.7 9 1.8 7.7 20.7-.7 9-1.8 22.7-2.6 30.4-.8 7.7-1.7 19.7-2.1 26.8-.6 11.6-.5 12.7 1 12.1.9-.3 1.6-.7 1.7-.8.1-.3 3.1-37.7 4.7-59.3 1-13.3 2.1-24.5 2.5-24.9.3-.4 2.6-.3 4.9.2l4.3.9 1.3 7.5c3.1 17.8 6.3 36.5 8.6 50 4.1 24.1 4.6 25.8 6.6 26.3 2.1.5 2.1-.6-.1-10.1-.5-2.4-1.8-9.8-2.9-16.5-3.4-21.2-6-36-7.5-43.5-2.4-11.6-2.4-11.6 3.8-10.8 2.8.4 9.5 1.6 14.7 2.6 5.2 1 14.5 2.2 20.7 2.6 6.1.4 11.7 1 12.3 1.4 1 .6 1 2.9.2 10.1-.6 5.2-1.6 16.1-2.2 24.4-.6 8.2-1.8 20.4-2.6 27-.8 6.6-1.4 12.2-1.4 12.6 0 .4.9.5 1.9.2 2.3-.6 2.2-.2 5.3-37 1.3-14.9 2.6-27.5 3.1-27.9.4-.4.7-2.7.7-5.1v-4.4l13.3.3 13.2.3 1.3 12c.8 6.6 1.7 12.9 2.2 14 .5 1.1 1.6 9.2 2.5 18 .9 8.8 2.1 16.8 2.6 17.7.5 1 .9 3.5.9 5.5 0 4.2.7 5.7 3.1 6.5 1.7.7 1.7.5-.2-10.5-.6-3.2-1.9-12.5-2.9-20.5-1-8.1-2.6-19.4-3.4-25.2-.9-5.8-1.8-11.9-2-13.7-.6-4 .2-4.3 10.7-4.4 4.5 0 14.7-.6 22.7-1.3 8-.7 14.7-1.2 15-1 .7.3-2.3 44.5-4 59.9-1.4 13.1-1.2 17.9.9 16.5 1.7-1 2.1-4.7 5.2-47.5 1.1-16 2.5-29.5 3-30.1 1-1.2 11.7-2.9 12.6-2.1.6.6 2.3 12.2 5.6 36.7 1.2 9.1 2.5 16.9 2.8 17.5.4.5 1.2 6.5 2 13.2 1.1 11.1 1.4 12.2 3.4 12.5 2 .4 2.1.2 1.3-4.6-1.3-8.7-3.9-26.5-5.8-40.6-1.1-7.4-2.6-17.5-3.5-22.4-2.4-13.8-2.8-12.9 6.8-15.5 11.7-3.2 28.2-8.6 35.2-11.5 3.3-1.4 6.6-2.6 7.3-2.6 1.3 0 1.3-.4-1.3 31.5-.8 9.9-1.9 26.3-2.5 36.5-.5 10.2-1.3 21.1-1.6 24.2-.6 5.4-.5 5.6 1.5 5.1 1.4-.4 2.1-1.4 2.2-3.2.1-4.7 6.5-97.3 6.8-97.9 0-.1.7-.2 1.5-.2s1.6-.4 1.8-.9c.2-.4 2.3-1.8 4.8-2.9 2.5-1.2 7.2-4 10.5-6.1 3.3-2.2 6.6-4.4 7.4-4.7.8-.4 2.2-1.4 3-2.1.9-.7 5.7-4.6 10.6-8.7 12.8-10.4 24.7-23.4 33-36.1 2.2-3.3 4.3-6.2 4.6-6.5 1.1-1 10.6-18.7 12.3-23 1-2.5 2.1-5 2.6-5.5.4-.6 1.5-3.5 2.5-6.5s2.1-6 2.5-6.5c.4-.6 1.5-3.7 2.4-7 .9-3.3 2.1-6.9 2.6-8 .5-1.1 1.6-5.8 2.5-10.5.9-4.7 2.1-9.4 2.5-10.5.5-1.1 1.4-6.1 2-11 .6-5 1.6-12.8 2.2-17.5 1.4-10.4 2.3-178.7.9-180.4-.4-.6-1.4-2.8-2-4.8-.7-2-3.1-5.5-5.4-7.8-7.7-7.5-2-7.1-115.3-6.7-100.4.3-107.8.6-111.9 3.7-.5.4-2.8 1.3-5 2-4.4 1.4-13.1 6.1-18.5 9.9-4.9 3.4-16.5 15.4-18.2 18.8-.8 1.5-2.2 4.1-3.2 5.8-3.8 6.9-6.6 14.6-8 22-.8 4.4-1.8 9.2-2.2 10.7-.3 1.6-.2 2.8.3 2.8.6 0 2-4.7 3.1-10.5 3.7-18.3 9.4-29.5 20.8-40.9 11.7-11.8 27-19.1 46.1-22.1 7.7-1.3 15.2-1.5 35.3-1 14 .3 56.6.9 94.5 1.3 38 .5 70.2 1.2 71.7 1.7 3.7 1 11.7 8.1 12.4 11.1.3 1.3 1.1 2.2 1.6 2.1.6-.1 1.5 1.3 2 3.1.5 2 .7 39.4.5 88.5-.4 94.5-.5 96.5-7.6 127.6-1.7 7.3-3.1 13.5-3.1 13.6 0 .2-.7 1.1-1.6 2-.9.9-3.2 5.9-5 11.2-7.5 21.7-20.5 44.2-35.8 62.2-6.8 8.1-21.8 22.1-28.2 26.5-5.1 3.4-14.6 9.7-18.4 12.2-4.2 2.7-20 10.2-29 13.7-15.8 6.3-35.8 11.6-52.6 14.1-5.6.9-10.8 1.8-11.5 2-4 1.4-28.3 2.7-52 2.7-26.4 0-45.5-1.2-53.4-3.3-2.2-.5-7.4-1-11.5-1-13.8 0-48.1-10.3-68.4-20.5-51.4-25.8-85-68.2-101.3-127.8-3.4-12.3-8.4-41.7-7.3-43 .4-.5.4-6.2 0-12.5-.5-6.3-.9-26.1-.9-44-.1-22-.5-33-1.2-33.7-1.5-1.5-.6-217.1 1-230.3 2.4-20.3 8.8-50.5 10.9-51.9.5-.3 2.3-4.7 4.1-9.6 4.7-13.1 5-13.8 11.8-27.3 6.3-12.3 13.6-24.1 19.9-31.9 1.9-2.3 3.4-4.7 3.4-5.5 0-1.5 17.8-19.3 25.5-25.5 11.9-9.5 28.7-19.5 43.5-25.8 19.2-8.1 54.2-17.8 62.7-17.3 2.1.1 9.4-.4 16.3-1 32.7-3 43.9-3.5 52.8-2.3 4.8.6 13.4 1.6 19.1 2.1 10.5 1 28.1 4.7 35.9 7.6 3.7 1.4 4.2 1.9 4.2 4.7 0 4.9-2.7 16.5-4.3 18.8-1.5 2-1.5 2-4.8-.9-16.8-14.6-42.5-23.5-63.2-21.7-8.4.7-8.6.7-9.2 3.5-1.9 8.5 3.6 24.6 14.2 41.7 2.3 3.8 17.2 22 20.2 24.7 2 1.8 4.1 1.5 4.1-.7 0-.7-2.3-3.6-5-6.4-13.7-14.6-23.9-31-27.9-45.4-3-10.6-2.9-11.6 1.7-12.8 2-.6 5.7-1.1 8.2-1.1 5.6 0 23.1 3.5 27.4 5.4 1.7.8 4.7 2.2 6.6 3 7.8 3.4 16.7 9.5 24.3 16.8 2.8 2.6 5.2 2.9 5.5.5.1-.7 1.5-5.1 3.1-9.9 5-14.4 5.1-26.9.3-27.6-1.8-.3-2.2.1-2 2 .2 1.6-.1 2.2-1.2 1.9-23.1-6.1-26-6.6-46.8-8.6-17.5-1.6-23.7-1.7-46.2-.4z"/><path d="M480.7 184c-14.8 3.8-26.3 16.4-28.8 31.7-2.8 17.2 5.5 33.3 21.4 41.5 5.8 3.1 6.8 3.3 16.7 3.3 9.8 0 10.9-.2 16.6-3.2 10.8-5.6 16.2-11.6 20.3-22.6 5.3-14.5.2-33.1-11.6-42.5-7.8-6.1-13.7-8.4-22.6-8.8-4.5-.2-9.9.1-12 .6zm25.8 6.6c8.1 4.6 14.9 12.4 16.6 18.9.5 2.2 1.4 5 1.9 6.3 1.6 3.7 1.2 8.8-1.5 17-3.2 10-9.2 16.8-18.8 21.2-5.6 2.6-7.7 3-14.7 3-6.9 0-9.1-.4-14.5-2.9-15.8-7.4-23.6-24.4-19.1-41.9.9-3.5 2.3-7 3.1-7.8.8-.9 1.5-1.9 1.5-2.4 0-1.9 9-9.4 14.5-12.2 5.7-2.8 6.5-2.9 16-2.5 8.7.4 10.6.8 15 3.3zM321.1 352.7c-1.5 7.6-3.1 19-3.1 22.8 0 2.3.3 2.7 1 1.5.5-.8 1-3.3 1-5.5s.7-8.5 1.5-13.9c1.7-11 1.4-13.9-.4-4.9zm-4.6 39.3c-.4 6.6-1.1 12-1.6 12s-.9 20.5-.9 50c0 32.7.3 50 1 50 .6 0 1.1 8.5 1.2 23.2.1 12.8.5-15 .8-61.7.4-46.8.6-85.1.5-85.3-.1-.1-.6 5.1-1 11.8zm78.6 99.7c-9.8 5.1-23.3 22.4-26.6 34-1.3 4.8 1.2 2 3-3.2 1-3 2.2-5.5 2.6-5.5.4 0 1.1-1 1.5-2.3.7-2.5 6.6-10.8 10-14.2 3.6-3.6 11.3-8.5 13.5-8.5 1.8 0 1.9 1 1.9 37.7 0 23.6.4 39.3 1.1 41.8 1.7 6.3 6.8 13.1 11.4 15.2 2.2.9 4.3 2.2 4.7 2.8.5.6 9.9 1.1 25 1.3 16 .3 24.5.7 25 1.4 1.3 2.2-1.5 39.1-3.1 41.3-.4.5-1.6 4-2.5 7.7-1 3.8-2.1 6.8-2.5 6.8-.4 0-1.2 1.5-1.9 3.4-.7 1.8-2.4 4.6-3.7 6-1.4 1.5-2.5 3-2.5 3.5 0 1.5-13.9 11-19.8 13.5-9.7 4.1-21.8 5.9-38.7 5.9-27.5 0-42.3-4.7-54.6-17.4-3.7-3.8-7.3-8.5-8-10.4-.7-1.9-1.6-3.5-2.1-3.5-.4 0-1.5-2.6-2.4-5.8-.9-3.1-2-6.2-2.4-6.7-1-1.3-3.9-19.7-4.2-26.1-.1-4.5-.2-4.6-.5-1.1-.8 7.1 1.5 24.2 4.2 31.2 4.6 12.2 15.9 26.5 25.6 32.2 1.6 1 2.7 2.3 2.5 3-.6 1.6 7.5 4.6 18.9 6.9 6.5 1.4 13.1 1.9 23.5 1.8 35-.1 57.1-10.8 68.4-33.2 3.6-7.1 6.8-17.5 5.6-18.2-.6-.4-.6-2.7 0-6 .5-3 1.3-12.8 1.6-21.7l.7-16.2-24.9-.3c-24.4-.3-25-.3-29.9-2.9-6.6-3.3-10.9-9.6-12.4-18.2-.7-3.9-1.1-20.5-1.1-42.5 0-19.9-.4-36.2-.8-36.2s-3.2 1.2-6.1 2.7zm-77.7 78.8c0 6.6.1 9.2.3 5.7.2-3.4.2-8.8 0-12-.2-3.1-.3-.3-.3 6.3z"/></g><path d="M146.5 491c0 73.4.1 103.5.2 66.7.2-36.7.2-96.7 0-133.5-.1-36.7-.2-6.6-.2 66.8zm171-5.5c0 40.7.1 57.2.2 36.7.2-20.6.2-53.9 0-74-.1-20.2-.2-3.4-.2 37.3zm156.3-34.8c26.1.2 68.4.2 94 0 25.7-.1 4.4-.2-47.3-.2-51.7 0-72.7.1-46.7.2zm-73.4 77.8c0 18.7.2 26.2.3 16.7.2-9.5.2-24.8 0-34-.1-9.2-.3-1.4-.3 17.3z" stroke-width="3" fill="#CC7F19" stroke="#CC7F19"/><path d="M437 591.7c16 .7 30.8.7 30.3 0-.2-.4-8.6-.6-18.6-.5-10 .1-15.3.3-11.7.5z" fill="#E5CC99" stroke="#E5CC99" stroke-width="3"/><path d="M641.5 548.5c0 37.4.1 52.6.2 33.7.2-18.9.2-49.5 0-68-.1-18.5-.2-3.1-.2 34.3z" fill="#E5CCB2" stroke="#E5CCB2" stroke-width="3"/><path d="M399.4 530c0 16.8.2 23.6.3 15.2.2-8.3.2-22.1 0-30.5-.1-8.3-.3-1.5-.3 15.3z" fill="#E5B27F" stroke="#E5B27F" stroke-width="3"/><path d="M473.7 449.7c25.4.2 67.2.2 93 0 25.7-.1 5-.2-46.2-.2-51.1 0-72.2.1-46.8.2z" fill="#E5B266" stroke="#E5B266" stroke-width="3"/><path d="M318.5 491.5c0 42.3.1 59.5.2 38.2.2-21.4.2-56 0-77-.1-21-.2-3.6-.2 38.8z" fill="#E5B24C" stroke="#E5B24C" stroke-width="3"/><path d="M318.4 396.5c0 4.9.1 7.1.3 4.8.2-2.3.2-6.4 0-9-.2-2.6-.3-.8-.3 4.2zM640.5 550c0 40.4.1 57 .2 36.7.2-20.2.2-53.2 0-73.5-.1-20.2-.2-3.6-.2 36.8zM388.8 680.7c2.3.2 6.1.2 8.5 0 2.3-.2.4-.4-4.3-.4s-6.6.2-4.2.4z" stroke-width="3" fill="#C93" stroke="#C93"/><path d="M401.3 733.7c3.2.2 8.1.2 11 0 2.9-.2.3-.3-5.8-.3-6 0-8.4.1-5.2.3zm29 58c3.1.2 8.3.2 11.5 0 3.1-.2.5-.3-5.8-.3s-8.9.1-5.7.3z" stroke-width="3" fill="#F90" stroke="#F90"/><path d="M516.8 454.7c17.7.2 46.7.2 64.5 0 17.7-.1 3.2-.2-32.3-.2s-50 .1-32.2.2z" fill="#E59900" stroke="#E59900" stroke-width="3"/><path d="M338.2 161.7c-.1 3.9-.5 8-.8 9-.5 1.7-.5 1.7.6.1.6-1.1.9-4.8.7-9l-.3-7.3-.2 7.2zm-67.8 385.8c0 7.1.1 9.9.3 6.2.2-3.7.2-9.6 0-13-.2-3.4-.3-.4-.3 6.8zm262.1 49c0 8 .3 13.6.7 12.3.3-1.3.6-6.8.6-12.3 0-5.5-.3-11-.6-12.3-.4-1.3-.7 4.3-.7 12.3zm-266.1 71c0 5.5.1 7.6.3 4.7.2-2.9.2-7.4 0-10-.2-2.6-.3-.2-.3 5.3zm1.9 88.2c2.6.2 6.7.2 9 0s.2-.3-4.8-.3c-4.9 0-6.8.1-4.2.3zm60.1 63.3c0 6.3.1 8.9.3 5.7.2-3.1.2-8.3 0-11.5-.2-3.1-.3-.5-.3 5.8z" stroke-width="3" fill="#E57F00" stroke="#E57F00"/><path d="M469 135.4c-1.9.7-3.6 1.9-3.7 2.7-.6 4.7-.8 19.9-.2 18.3.4-1 .8-5.8.8-10.6l.1-8.6 3-.7c1.6-.4 3.2-1.1 3.5-1.6.4-.5.5-.9.3-.8-.2 0-1.9.6-3.8 1.3zm-111.5.6c-2.7.4 1.3.5 9 .2 7.7-.2 14.2-.6 14.4-.8.7-.7-18.1-.1-23.4.6zm45 0c2.8.5 7.3.8 10 .8l5-.1-5.5-.7c-3-.5-7.5-.8-10-.8l-4.5.1 5 .7zm53.4 9.2c2.2 1.1 2.3 1.7 1.8 7.3-.3 3.6-.2 5.2.3 4 1.2-2.8 1.2-11.5.1-11.5-.5 0-1.8-.2-2.8-.5-1-.3-.7 0 .6.7zm87.4 3.4c-.4 1.6-.8 6.3-.8 10.5 0 6.3-.3 7.6-1.5 7.2-1.3-.4-1.3-.4 0 .6 2.6 1.9 3 1.2 2.4-4.2-.3-2.8-.1-7.7.4-10.7 1.1-5.9.8-8.1-.5-3.4zM339.5 162c0 3.7.3 6.6.8 6.3.9-.6.9-10.4-.1-12-.4-.6-.7 1.9-.7 5.7zm272.8-4.3c2.6.2 6.8.2 9.5 0 2.6-.2.4-.3-4.8-.3s-7.4.1-4.7.3zm-15.1 32.2c2.6 2.3 5.9 5.6 7.3 7.4 1.3 1.8 2.5 2.9 2.5 2.6 0-1.5-6.4-8.5-10.3-11.2l-4.2-3 4.7 4.2zm-193.8 5.7c2.5 3.3 6 7.4 7.8 9 1.7 1.6.9.2-1.9-3.1-8.9-10.4-10.6-12.2-5.9-5.9zm-4.9 4.9c10 13.2 18.2 19.3 19.9 14.9.9-2.4.7-3.1-.5-1.2-1.8 3.2-4.7 1.9-10.8-5-11.4-12.8-12.8-14.3-8.6-8.7zm131 20.9c0 5.2.3 8.9.7 8.2 1-1.4.9-13.5 0-15.9-.4-.9-.7 2.5-.7 7.7zm72.1 27.4-4.8 5.7 4.9-5.1c4.8-5 4.9-5 6.6-3l1.8 2.1-1.1-2.2c-.5-1.2-1.4-2.4-1.8-2.7-.4-.2-2.9 2.1-5.6 5.2zm-60.1-.9c2.7 3.2 11.4 10.1 12.8 10.1.7 0-.6-1.2-2.8-2.6-2.2-1.5-5.8-4.3-8-6.3s-3.1-2.5-2-1.2zm-165.4 17.7c3.5 4.4 6.6 7.9 6.8 7.8.5-.5-7.3-10.5-10.5-13.4-1.5-1.4.2 1.1 3.7 5.6zm186.7-4.4c.9.4 5.3.7 9.7.7 4.4 0 8.8-.3 9.7-.7 1-.4-3.4-.7-9.7-.7-6.3 0-10.7.3-9.7.7zm-376.7 7.7c-1.4.4.8.7 5.3.7 4.2 0 6.9-.4 5.9-.8-2.2-.8-8-.8-11.2.1zm441.5 28.2c.3 3.2.9 7 1.4 8.5 1.2 3.6.2-5.3-1.1-10.6-.7-2.7-.7-2.3-.3 2.1zm-183.9 11.8c2.1 1.5 6.1 5.5 8.8 8.7 6.6 7.9 6.9 8.3 5.5 5.5-1.7-3.3-15.4-17.1-17-17.1-.7 0 .5 1.3 2.7 2.9zm62 35.3c-1.6 9.2-1.8 15-.7 20.2 1.5 7.5 2.3 6.7.9-.9-.7-4.1-.7-8.1 0-13.8 1.1-7.9.9-12-.2-5.5zm-7.2-.2c-1.1 1.7-.9 23 .2 24.1.5.5.6-1.6.2-5.7-.4-3.6-.3-9.4.1-12.7.8-6.5.7-7.6-.5-5.7zm115 15.4c-3.3 3.5-7.3 7.3-9 8.5-1.6 1.2-2.1 1.8-.9 1.2 2.9-1.4 11.9-9.7 14.5-13.2 1.1-1.6 1.9-2.9 1.7-2.8-.2 0-3 2.9-6.3 6.3zm-62.9 23.7c-4.3.5-8.1 1.1-8.5 1.4-.7.8 12.3-.4 18.4-1.5 5.5-1.1.6-1-9.9.1zm-238.1 70.4c0 27.5.1 38.6.2 24.7.2-13.9.2-36.4 0-50-.1-13.6-.2-2.2-.2 25.3zm-83-45c1.3 3.8 1.7 17 .7 21.4-.8 3.3-.8 4.1.1 3.2 1.7-1.7 1.6-22-.1-24.6l-1.4-2 .7 2zm262 48.8c1.7 1.2 4 3.2 5.3 4.4 1.2 1.2 2.2 1.8 2.2 1.3s-1.7-2.3-3.7-4l-3.8-3.1 64.3.3c35.4.2 63.3 0 62-.4-1.3-.3-30.9-.6-65.8-.7h-63.5l3 2.2zm-292.2 19.9c-3.5 3.8-6.3 7.4-6.3 8 0 .6 1-.2 2.2-1.8 1.2-1.6 4.4-5.3 7.2-8.2 2.8-2.8 4.6-5.2 4.1-5.1-.6 0-3.8 3.2-7.2 7.1zm85.1 32.7c-5.7 4.2-12.4 12-12.4 14.5 0 .6 1.3-1 2.8-3.5 2.8-4.3 7.1-8.6 12.2-12.1 1.4-.9 2.2-1.7 1.9-1.7-.3-.1-2.4 1.2-4.5 2.8zm314.2 11.7c-.8 2.2-.7 17.7.2 19.1.4.6.7-3.8.7-9.8 0-6-.1-10.9-.1-10.9-.1 0-.5.7-.8 1.6zm-330 16c-.9 2.2-.7 18.7.2 20.1.4.6.7-4 .7-10.3 0-6.3-.1-11.4-.1-11.4-.1 0-.5.7-.8 1.6zm-117.1 59.9c0 19.8.1 28 .2 18.3.2-9.7.2-25.9 0-36-.1-10.1-.2-2.1-.2 17.7zm383-.5c0 5.4.3 9.3.7 8.7.4-.7.8-4.6.8-8.7s-.4-8-.8-8.7c-.4-.6-.7 3.3-.7 8.7zm48.8 32.6c-.4 1.6-.8 10.6-.8 20.1 0 13.5.3 17.5 1.4 18.5 1.2 1.1 1.3 1 .8-.4-1.2-3.5-1.8-22.5-.9-31.3.9-9.5.8-11.6-.5-6.9zm-209 55.6c.7.4 9.3.8 19.2.8 9.9 0 18.5-.4 19.2-.8.6-.4-8-.7-19.2-.7s-19.8.3-19.2.7zM271 695.7c0 1.7 8.3 9.9 11.9 11.7 4.6 2.4 3.8 1.3-1.5-2-2.5-1.6-5.9-4.7-7.5-6.8-1.6-2.2-2.9-3.5-2.9-2.9zm18.2 14.2c.9.6 3.7 1.4 6.1 1.7 5.3.8 17.7-.4 17.7-1.6 0-.4-1.9-.3-4.2.2-4.3 1-15.6.6-19.3-.7-1.7-.6-1.8-.5-.3.4zm90.1 23.1c-1.3.5-2.3 1.2-2.3 1.6 0 .3.8.3 1.8-.1.9-.4 4.4-1.1 7.7-1.5l6-.7-5.5-.1c-3 0-6.5.3-7.7.8zm22-.3c3.2.2 8.1.2 11 0 2.9-.2.3-.3-5.8-.3-6 0-8.4.1-5.2.3zm-143.8 20.4c3.9 1 22.9 1.7 21.3.8-.7-.4-6.5-.9-12.8-1.1-6.3-.3-10.1-.1-8.5.3zm72 65.9c0 5.4.3 9.3.7 8.7.4-.7.8-4.6.8-8.7s-.4-8-.8-8.7c-.4-.6-.7 3.3-.7 8.7zm3.5 23.9c5.6 1.4 12.8 2.2 10.4 1.2-1.1-.5-4.7-1.2-8-1.5-4.4-.4-5-.3-2.4.3zm1.5 7c.6.5 4.4 1.2 8.5 1.5l7.5.5-6-.9c-3.3-.5-7.1-1.2-8.5-1.5-1.7-.4-2.2-.3-1.5.4zM441 851c-2.8.6-2.4.7 1.7.4l5.1-.4-.5 7.8c-.3 4.2-.3 7.5-.1 7.2.3-.3.8-4 1.1-8.3.7-8.6 1-8.4-7.3-6.7zm-77.3 7.7c-.7 3.7-1.8 21.1-1.2 19.8.6-1.4 2.5-21.9 2-22.3-.1-.2-.6.9-.8 2.5zm155 1.5c-.7 3.8-1.8 30.3-1.2 27.3.6-3 2.4-29.9 2.1-30.3-.2-.1-.6 1.2-.9 3zm-230.1 28.5c-.8 6.9-1.7 23-1.1 21.8.6-1.4 2.5-25.8 2.1-26.3-.2-.2-.7 1.8-1 4.5zm155 16.5c-.9 7.6-1.8 22.3-1.3 21.8.6-.6 2.8-25.3 2.2-25.8-.2-.2-.6 1.6-.9 4zm-84.7 6c-.5 2-1.3 15.6-.8 15 .7-.8 2-15.2 1.3-15.2-.2 0-.4.1-.5.2z" stroke-width="3" fill="#FC0" stroke="#FC0"/><path d="M313.5 453.5c0 27.5.1 38.6.2 24.7.2-13.9.2-36.4 0-50-.1-13.6-.2-2.2-.2 25.3zm-163.1 138c0 15.9.2 22.3.3 14.2.2-8.2.2-21.2 0-29-.1-7.8-.3-1.2-.3 14.8z" stroke-width="3" fill="#E5B200" stroke="#E5B200"/><path d="M385.8 133.7c2.3.2 6.1.2 8.5 0 2.3-.2.4-.4-4.3-.4s-6.6.2-4.2.4z" fill="#C90" stroke="#C90" stroke-width="3"/><path d="M583.4 649.5c0 4.9.1 7.1.3 4.8.2-2.3.2-6.4 0-9-.2-2.6-.3-.8-.3 4.2z" fill="#FFB200" stroke="#FFB200" stroke-width="3"/><path d="M472 135.1c-1.9 1-4 1.9-4.7 1.9-.8 0-1.3 3.1-1.6 9.7-.4 9.9-2.2 18.2-5.8 26-2.5 5.4-5.1 5.6-9.9.7-1.9-2-6-5.2-9-7.1-3-2-6.6-4.3-8-5.2-1.4-1-4.5-2.5-7-3.5s-4.9-2.1-5.5-2.6c-3-2.3-20.2-4.6-32.2-4.1-4.2.1-4.3.2-4.3 3.4 0 1.8.4 3.7.9 4.3.4.5 1.4 3.1 2 5.9 2.6 11 12.9 27.2 26 41 2.6 2.7 5 5.8 5.4 6.8 1 2.7-.3 4.7-3.1 4.7-2.7 0-7.8-4.9-16-15.5-2.6-3.3-5-6.5-5.4-7-4.3-5.4-11.4-18.4-12.9-23.6-.7-2.4-1.7-5-2.3-5.8-.6-.7-1.2-5.5-1.4-10.6-.5-11.7-.6-11.7 16.2-11.7 14.4 0 25.3 2.5 39 9.2 7.8 3.8 10.4 5.5 18.9 12.1 1.5 1.2 3 2 3.2 1.8.8-.9 3.5-13 3.5-16.1 0-4-1.5-4.8-14.6-7.9-27-6.4-63.8-7.5-103.6-3.3-5.5.6-5.6.7-4.3 2.8 1.6 2.5 4.5 13.2 5.2 19.4.7 5.6-2.1 14.4-5.6 18.3-3.2 3.4-10.1 7.3-14.8 8.4-1.8.3-8.8 1-15.5 1.5-14.8 1-23.6 3-32.3 7-3.5 1.6-6.7 3-7 3-.3 0-1.8.8-3.3 1.9-10.1 7-23.6 15.1-27.7 16.7-3.7 1.5-14.8 1.7-19.4.4-1.8-.5-5.7-2.7-8.6-4.9l-5.4-4.1-3.4 4.3c-11.2 13.8-25.9 41.1-30.7 57.2-.7 2.2-1.8 4.6-2.4 5.4-.7.8.5.6 3-.7 13.4-6.8 27.2-8.6 35-4.5 8.5 4.5 11.9 13.7 11.2 30.2-.3 9.3-.6 10.1-5.5 20.1-10.6 21.7-10.7 21.9-10.7 30-.1 6.6.3 8.3 3.4 14.4 1.9 3.7 6.7 10.5 10.8 15 12.3 13.7 14.3 16.7 17.8 26.6 2.3 6.5 2.6 8.6 2.1 16-.2 4.7-.9 9.5-1.5 10.5-.6 1.1-1.8 4.2-2.8 7-1.7 4.9-6.2 12.7-7.6 13.3-.5.2-.8.8-.8 1.4 0 1.3-5.2 7.7-14 17-7.4 7.9-13 15.2-13 17 0 .6-.6 2.4-1.4 4.1-.8 1.8-2.2 7-3.1 11.7-.9 4.7-2 9.4-2.5 10.5-.4 1.1-1.3 4.8-2 8.3-.6 3.4-2.2 8.4-3.6 11.1-1.3 2.7-2.4 5.4-2.4 5.9 0 2.1-14.6 16-19.7 18.8l-5.3 2.9V596c0 18.4.3 37.8.6 43.1l.7 9.5 6.6-3.3c5.7-2.8 7.6-3.3 14.1-3.3 6.3 0 8.3.4 12.8 2.8 11.5 6.1 17.9 15.6 20.7 30.6.9 4.5 2 9.7 2.5 11.6.6 1.9 1.7 7.5 2.5 12.5.9 4.9 2 9.9 2.5 11 .5 1.1 1.6 4.3 2.5 7.2 7.2 23 25.3 35.3 51.6 35.3 4.6 0 9.6.4 11.3.9 1.7.5 5.9 1.4 9.3 2.1 20.1 3.5 35.5 21 38.5 43.2.5 4.6 1.5 9.2 2 10.4.9 1.9.7 10.2-.8 25.5l-.6 6.6 7.9 1.2c4.3.6 11.9 1.6 16.8 2.2 11.6 1.4 68.4 1.4 79.5.1 15.3-1.9 35.5-5.2 37.5-6.2 1.1-.5 5.8-1.7 10.5-2.6 4.7-.9 9-2 9.5-2.4.6-.4 3.7-1.5 7-2.4 3.3-.9 7.4-2.3 9-3.1 1.7-.8 6.6-3 11-4.9 4.4-2 10.5-4.9 13.5-6.5 3-1.7 7.3-4 9.4-5.2 12.7-6.9 30.5-22 44.6-37.9 9.9-11.2 28-42.5 32-55.5.7-2.2 1.6-4.5 2-5 .4-.6 1.1-2.4 1.4-4.1.7-2.9.5-3.1-3.6-4.3-2.4-.8-6.4-2-8.9-2.7-5.5-1.7-15.1-9.9-17-14.6-.7-1.8-1.8-3.8-2.4-4.4-.6-.7-1.7-3.8-2.4-7-.7-3.3-1.8-7-2.5-8.3-1.5-3.2-1.5-34.3 0-39.6.7-2.2 1.9-7.1 2.8-11 .9-3.8 2-7.2 2.5-7.5.5-.3 1.2-1.5 1.5-2.8.4-1.3 2.9-4.9 5.5-8 7.4-9 9.1-11.8 9.9-16.4 1-4.8-.2-19.2-1.8-22.3-4-8.1-7.5-35-5.2-39.9.6-1.2 1.5-4.3 2.2-7 2.7-12 10.8-24.7 23.7-37.3 6.2-6.1 7.3-7.6 6.7-9.7-.8-3.4-7.4-8.4-12.6-9.6-2.6-.6-28.4-1-65.8-1h-61.5l3.2 2.5c1.7 1.4 4.1 4.1 5.4 6.1 1.9 3.2 2.1 4.5 1.7 12.5-.3 4.9-1 9.5-1.5 10.1-.6.7-1.8 3.8-2.8 6.8-1 3-2.1 5.9-2.5 6.5-.4.5-1.9 4.7-3.4 9.2-2.5 7.9-3.7 21.3-1.8 21.3.4 0 1.3 1.4 2 3 1.2 2.6 11.9 12 13.6 12 1.5 0 12.6 8.4 16.8 12.7 6 6.2 9.6 13.3 11.9 23.6 2.4 10.7 2.4 19-.2 28.4-3 11.2-10 19.6-18.7 22.4-2 .6-4.3 1.6-5.1 2.2-1.9 1.6-24.3 2.1-32.6.8-7.7-1.2-8-1-9.1 4.9-.7 3.8-6.3 15.6-9.1 19.1-5.1 6.4-10 11.2-12.7 12.6-1.7.9-3.3 1.9-3.6 2.2-1.5 2-13.2 6.5-21 8.1-4.9 1-9.4 2.1-10 2.5-1.8 1.1-36.6.7-38.7-.4-1-.5-4.6-1.4-8-2-3.5-.5-7.8-1.7-9.8-2.6-3.9-1.9-3.9-1.9-8.9 5-3.9 5.4-14.8 15.7-18.3 17.5-1.5.8-3.5 1.9-4.3 2.6-.8.6-3.3 1.7-5.5 2.4s-4.5 1.7-5.2 2.2c-.6.5-5.1 1.2-10 1.5-7.9.5-9.4.3-15.1-2-12-4.9-18.9-12.9-21.8-25.5-2.6-10.8-.9-39.3 2.7-46.7 1.2-2.4 4.7-20.1 6.1-30.7.7-5.2.6-9.4-.1-13.5-5.9-32.5-7.1-39.8-7.1-46.4 0-14.2 4.8-27.5 12.3-33.8 6.8-5.8 16.9-10.1 23.9-10.1 1.8 0 4.3-.3 5.6-.6l2.2-.6v-97.4l-9.2-1.7c-5-1-9.6-2.1-10.2-2.6-.6-.5-2.9-1.4-5.1-2.1-11.2-3.6-23.3-13.4-27.9-22.6-3.5-6.9-4.6-18.6-2.7-28.5 2-10.2 7.1-21 12.2-25.9 3.3-3.2 6.2-4.8 17.7-9.6 3.6-1.5 7.1-4.7 12.3-11.2.6-.7 1.8-3.4 2.6-6 .9-2.6 1.9-5.2 2.4-5.7.4-.6 1.5-4.4 2.5-8.5.9-4.1 2-8 2.4-8.5.4-.6 1.5-3.4 2.4-6.3 1-2.8 2.1-5.2 2.6-5.2s1.1-.9 1.5-1.9c1.1-3.5 8.9-10.1 14.3-12.1 10-3.8 21.4-1.6 33.5 6.4 6.1 4.1 15.6 14 19.4 20.3 3.5 5.7 9.1 17.4 9.8 20.5.7 2.6 1.1 2.8 6.4 2.9 13.1.1 32.8 4.7 41.5 9.5 4.4 2.5 14.1 12.1 17.4 17.3.9 1.4 1.9 2.8 2.3 3.1 1.3 1 8.9 15.8 8.9 17.4 0 .9.4 1.6.8 1.6s1.6 2.4 2.7 5.2c1 2.9 2.1 5.5 2.4 5.8.4.3 1.5 2.5 2.6 5 4.4 10 14.6 18.7 24.3 20.6l3.1.6-2.6-5.3c-1.5-3-3.1-6.5-3.7-7.8-1.3-2.8-1.2-23.3 0-25.2.5-.8 1.4-3.7 1.9-6.4.9-4.4 1.3-5 3.8-5.3 3.7-.4 4.3 1.5 2.8 9.8-1.7 9.3-1.5 22.6.4 27.9 2.9 8.3 9.7 13.6 18.8 14.9 2.2.3 9.2-.1 15.6-.7 6.4-.7 15.7-1.7 20.6-2.2 21.9-2.3 42.7-11.9 53.1-24.6 7.5-9 9-12.7 13.4-32.4 2.7-12.2-2.6-40.5-11-58.6-1.1-2.4-2-4.6-2-5 0-.5-2.2-4.5-4.8-8.9l-4.7-8.1-3 3.7c-3.3 4.1-10.6 9.4-14.5 10.5-1.4.4-3.1 1.3-3.9 1.9-1.9 1.5-23.3 1.5-25.2 0-.8-.6-3.2-1.7-5.3-2.4-4.8-1.6-16.6-13-18.5-18-.7-1.9-2-5-2.8-6.9-1.2-2.6-1.4-5.8-1-13.5.5-10.7 1.9-14.6 7.9-23 2.9-4 12.1-11.6 14-11.6 1.4 0-3.1-3.1-15.2-10.8-10.7-6.7-16.2-9.6-27-14.2-4.1-1.8-8.8-3.8-10.5-4.5-1.6-.7-4.6-1.8-6.6-2.4-4.6-1.5-17.9-15.6-17.9-19 0-1.5-.9-1.3-5 1zm-50.7 35.6c8 2.2 13.1 5.5 17 11.2 4.2 6.1 4.3 11.3.4 14.7-3.1 2.6-8.5 3.2-13.2 1.4-6.4-2.4-14.1-14.5-15.2-23.8-.6-5.1-.5-5.2 2.1-5.2 1.4 0 5.4.8 8.9 1.7zm76.4 11.2c2.8.6 7.5 2.2 10.6 3.6 5.6 2.7 15.7 11.7 15.7 14.1 0 .7.5 1.4 1 1.6.6.2 2.1 3.5 3.5 7.3 2.5 7.1 3.5 20 1.7 22-.5.6-1.4 3-2.1 5.5-2.3 8.2-10.4 17.9-17.9 21.5-2.1 1-5 2.5-6.7 3.3-2.1 1.1-6 1.6-13 1.6-8.3.1-10.8-.3-14.7-2.2-2.6-1.2-5-2.2-5.4-2.2-.4 0-3.1-2.1-6.1-4.6-11.1-9.5-14.9-18.6-14.1-34.3.6-11.5 2.7-16.6 10.1-24.7 9.6-10.5 23.4-15.1 37.4-12.5zm74.8 142.4c2.7 6.5 2.8 8.4.6 10.6-2.6 2.6-4.5 2-10.2-3.2-1.9-1.7-2.5-6-1.3-9.1.4-1.1 1.9-1.6 5.1-1.6 4 0 4.5.3 5.8 3.3zm28.3-2.1c1.7 1.7 1.5 5.9-.3 8.5-.8 1.2-3.1 3.1-5 4.3-3.4 2.1-3.7 2.1-5.5.5-2.1-1.9-2.7-6.9-1-8 .6-.3 1-1.4 1-2.4 0-2.7 2.1-4.1 6-4.1 2 0 4.1.5 4.8 1.2zM526 686.3c6.5 2.4 11.8 7.8 16.5 16.9 6.8 13.4 7.4 28.6 1.6 39.8-4.3 8.4-12.5 17.6-19.8 22.6-3.2 2.1-6 4.2-6.3 4.5-1.2 1.3-15.9 8.9-17.3 8.9-.8 0-1.7.4-1.9.8-.8 1.9-21.3 8.2-36.8 11.2-13.3 2.6-49.2 2-54.9-1-.9-.5-4.6-1.6-8.3-2.5-3.7-.9-7.2-2.3-7.9-3.1-.6-.8-1.7-1.4-2.3-1.4-2.6 0-12.2-10-15.1-15.5-2.4-4.8-3-7.4-3.3-14.4-.5-11.7.9-15.6 6.8-18.7 4.3-2.3 5.4-2.4 23.3-2.4 17.7 0 31.9-1.2 34.2-3 .6-.4 2.1-1.1 3.5-1.5 5.1-1.4 16.5-8.9 23.4-15.4 8.2-7.8 18.4-16.1 19.6-16.1.5 0 1.5-.6 2.2-1.4 2-2 13.6-7.6 17.8-8.6 5.4-1.3 21.1-1.1 25 .3zm5-546c0 1.3-.4 2.7-.8 3.2-.5.6-1.7 3.1-2.6 5.7-1 2.7-2.2 4.8-2.7 4.8-2.2 0-.6 2.7 2.9 4.6 2 1.1 6.2 3.5 9.2 5.2l5.5 3 .1-9.1c.1-6.3.7-10.2 1.8-12.2 2.2-4.1 2.1-4.5-1.7-4.5-1.8 0-3.7-.4-4.2-.9-.6-.4-2.5-1.1-4.2-1.4-2.9-.6-3.3-.4-3.3 1.6zm72 18.4c-1.4.2-3.2.7-4 1-.8.4-4.2 1.6-7.5 2.7-3.3 1.2-8.7 3.6-12 5.4-5.9 3.2-16.7 11.2-16.9 12.5-.1.4 4.9.9 10.9 1 10 .3 11.5.6 17 3.4 6.5 3.3 13.4 9.4 16.5 14.5l1.9 3.1 2.1-3.6c1.2-2.1 2.6-3.7 3-3.7.4 0 1.5-1.9 2.5-4.2.9-2.4 2-4.5 2.4-4.8 1.2-.7 6.9-18.9 7.6-23.8l.5-4.2-10.7.1c-6 .1-11.9.4-13.3.6zM236.3 817.3c.3 1.2 1.1 6 1.7 10.7.6 4.7 1.5 9.4 2 10.5.5 1.1 1.6 7.4 2.5 14 .9 6.6 2 12.9 2.5 14 .5 1.1 1.6 7.4 2.5 14 .9 6.6 2 12.9 2.5 14 .5 1.1 1.6 7.2 2.5 13.5.9 6.3 2.2 13.2 2.8 15.2 1.1 3.4 1.6 3.8 5.3 4.4 4.6.7 23.9.2 24.7-.6.5-.5 1.9-18.1 5.3-63.3 1.9-24.8 2.2-23.4-6.6-25.8-2.5-.6-6.9-2.3-9.8-3.5-2.9-1.3-5.5-2.4-5.8-2.4-1.2 0-13.7-6.2-22.8-11.4-8.7-5-9.8-5.3-9.3-3.3zm277.8 16.3c-3 1.3-8 3.2-11 4.1-3.1.9-6.3 2-7.1 2.4-1.5.9-15.1 4.6-20.2 5.6-3.2.6-3.4 2.5-1.7 12.3 1.2 6.7 5.3 34.3 7.9 53.9 1.1 7.9 2.2 14.6 2.5 14.9.8.9 23 1.5 26.7.8l3.4-.6 1.8-33.3c.9-18.2 2.1-34.6 2.6-36.2 1.1-3.9 2.1-26.5 1.2-26.4-.4 0-3.1 1.1-6.1 2.5zM314 850c0 1.7.4 3.8 1 4.8.5.9 1.9 7.5 3 14.7 1.7 11.5 3.8 23.8 8.3 49.5 1.1 6.5 1.5 7.5 3.7 8.1 3.8 1.1 24.3 1 26-.1 1.7-1 1.7-1.4 5.3-43 1.3-15.1 2.7-28.2 3.1-29.1.6-1.4-.6-1.7-10.1-2.4-5.9-.4-12.8-1.1-15.3-1.5-14.8-2.7-22.7-4-23.7-4-.8 0-1.3 1.3-1.3 3zm129.9 1.4c-.2.2-9.6.9-20.9 1.6-11.3.7-20.6 1.3-20.7 1.4 0 0 .5 4.8 1.3 10.6s2.6 18.4 3.9 28c1.4 9.6 3 21.2 3.6 25.6l1.2 8.2 3.6.6c5.2.8 23.4.7 24.8-.2 1.2-.8 2-8.4 4.7-45.2.8-10.7 1.7-22.1 1.9-25.3.4-4.9.3-5.7-1.2-5.7-1 0-2 .2-2.2.4z" stroke-width="3" fill="#FFE519" stroke="#FFE519"/><path d="M385.3 135.7c2.6.2 6.7.2 9 0s.2-.3-4.8-.3c-4.9 0-6.8.1-4.2.3zm203.4 192c-1.4 1.3-.6 6 1.2 7.7 1.5 1.4 2.4 1.5 4 .6 2.8-1.4 2.7-1.5-1.1-1.5-3.1 0-3.3-.2-3.3-3.8 0-2 0-3.7-.1-3.7 0 0-.4.3-.7.7zM259.3 928.3c2.9 1.1 21.6 1.1 24.4.1 1.4-.6-3.2-.9-12.2-.9-8.5 0-13.5.3-12.2.8zm72 0c3 1.1 22 1.2 24 .1 1-.6-3.7-.9-12.3-.9-8.3 0-13 .3-11.7.8zm85 0c3 1.2 21.9 1.2 23.9.1 1.1-.6-3.4-.9-12.2-.9-8.4 0-13 .3-11.7.8zm72 0c2.9 1.1 21.6 1.2 24.4.1 1.4-.6-3.1-.9-12.2-.9-8.7 0-13.5.3-12.2.8z" stroke-width="3" fill="#FFCC19" stroke="#FFCC19"/><path d="M412.5 175.7c.9 5.4 5.4 13.8 9.2 17.5 2.5 2.4 4.3 3.2 8.3 3.6 4.3.4 5.5.1 7.5-1.8 3.2-3 3.2-6 0-10.9-4.6-7.3-12.8-12-21.4-12.1h-4.3l.7 3.7z" fill="#FF99B2" stroke="#FF99B2" stroke-width="3"/><path d="M576.7 211.1c-2.1 1.1-4.6 3.3-5.5 4.9-.9 1.7-2 3-2.4 3-.5 0-.8 1.8-.8 4.1 0 5.8 4.7 12.4 10 14 9 2.7 18-3.7 18-12.9 0-5.8-3-10.7-7.6-12.4-1.8-.6-3.4-1.6-3.4-2 0-1.4-4.3-.7-8.3 1.3zm9.1 2.1c.7.7 1.2 2.9 1.2 5 0 3.2-.4 4-2.6 4.8-3.6 1.4-6 1.2-7.8-.6-1.8-1.8-2.1-5.6-.6-8.5 1.2-2.2 7.8-2.7 9.8-.7zm-93.6-.2c-3.5 2.1-6.2 7.2-6.2 11.5 0 7.6 6.1 13.5 13.8 13.5 5.6 0 9.6-2.4 11.8-6.9.9-2 2-4.3 2.4-5.1.4-.8.4-2.2 0-3-.4-.8-1.5-3.1-2.4-5.1-1-1.9-3-4.3-4.6-5.2-3.9-2.3-10.7-2.2-14.8.3zm11.2 1.2c3.3 4.7.7 9.8-5 9.8-3.9 0-6.4-2.2-6.4-5.6 0-5.7 8.3-8.7 11.4-4.2z" stroke-width="3" fill="#331900" stroke="#331900"/><path d="M564.3 323.7c-2.1.8-1.5 3.8 1.5 6.6 5.3 5 8.1 2.3 4.7-4.3-1.5-2.8-3.3-3.5-6.2-2.3zm27.8 2.4c-2.5 7.3.4 9.4 5.2 3.9 3.1-3.4 3.4-5.5 1.1-6.4-3.4-1.3-5.2-.6-6.3 2.5zM349.8 528.7c-1 .2-1.8.9-1.8 1.4 0 .5-1.1 1.4-2.5 1.9s-3 2.1-3.5 3.5-1.3 2.5-1.8 2.5c-1.5 0-3.2 9.8-3.2 18 0 9.4 1.8 23.4 3.1 23.8.5.2.9 1.1.9 2 0 2.4 3.2 14.6 3.9 15.2.4.3 1.5 3.5 2.5 7.2 1 3.8 2.1 6.8 2.5 6.8.7-.1 8.1-15.4 8.1-16.9 0-.6.4-1.1.9-1.1s1.7-2.2 2.5-4.8c.9-2.7 2.5-6.6 3.6-8.8 1.1-2.1 2-4.4 2-5.2 0-.7.8-3.2 1.9-5.5 2.8-6.2 4.4-17.4 3.9-26.2-.5-7.5-.7-8-4.3-11.2-3.5-3.1-4.2-3.3-10.4-3.2-3.6.1-7.4.3-8.3.6zM248.9 930.6c-.5 1.5-1.5 5.8-2.1 9.5-.7 3.8-1.6 6.9-2 6.9-.4 0-.8 3.4-.8 7.5s.4 7.5.9 7.5 1.2 1.6 1.5 3.6c1 4.8 6.9 11.2 11.2 12 1.9.3 3.7 1 4 1.5.7 1.2 14.4 1.1 14.4-.1 0-.6.7-1 1.5-1 5 0 12.8-7.1 15.1-13.8 3.1-9.3 1.3-36.2-2.6-36.2-.9 0-2.2.6-2.9 1.2-.8.9-5.6 1.3-16.3 1.3-11.2 0-15.2-.3-15.6-1.3-.2-.6-1.5-1.2-2.8-1.2-1.7 0-2.7.8-3.5 2.6zm72.5.4c-.4 1.6-1 3-1.4 3-1.3 0-3.3 12.7-3.3 21-.1 7.6 1.3 13.1 4 15.8.7.8 1.7 2.2 2.3 3.2.5 1 3 2.4 5.5 3.1 2.5.7 4.5 1.7 4.5 2.1 0 1.4 12.7.9 15.6-.7 1.6-.8 3.6-1.5 4.4-1.5 2.6 0 7.7-5.3 10.6-11 2.7-5.1 2.9-6.3 2.8-16.5 0-10.3-1.1-17-3.3-20.5-.9-1.2-1.3-1.2-3.7 0-3.6 2-30.7 2.1-32.6.2-2.2-2.2-4.8-1.4-5.4 1.8zm84.9-1.3c-.4 1-.9 2-1.3 2.3-1.1.9-3.1 11.2-3.7 19.1-.8 10.5.8 16.8 5.7 21.8 2.5 2.6 5.2 4.2 7.4 4.7 2 .3 3.6 1 3.6 1.5s3.2.9 7 .9c3.9 0 7-.4 7-.9s1.6-1.2 3.5-1.5c3.4-.7 11.5-7.2 11.5-9.3 0-.7.8-1.9 1.8-2.9 1.5-1.5 1.7-3.8 1.7-17.2 0-11.5-.3-15.6-1.2-16-.7-.2-1.3-1.2-1.3-2.3 0-2.1-3.6-2.7-4.3-.7-.3 1-4.3 1.3-15.5 1.3-10.7 0-15.5-.4-16.4-1.3-1.8-1.8-4.8-1.5-5.5.5zm69.7 7c-1.3 4.9-2.5 12.4-2.7 16.9-.4 7.2-.1 8.7 2.3 13.8 2.7 5.8 6.1 9 10.7 10.1 1.5.4 3 1.1 3.3 1.6.7 1.1 13.7 1.2 14.9.1.6-.5 3-1.6 5.5-2.5 5.1-1.9 10.1-8.2 11.9-15.2 2.3-8.4.4-32.1-2.6-33.2-.7-.3-2.1.1-3 .8-2.2 1.9-30.6 2-32.5.1-.6-.6-2.2-1.2-3.4-1.2-1.9 0-2.4 1.1-4.4 8.7z" stroke-width="3" fill="#7F4C19" stroke="#7F4C19"/><path d="M393.4 1145.5c0 6 .1 8.4.3 5.2.2-3.2.2-8.1 0-11-.2-2.9-.3-.3-.3 5.8zm112.3-7.8c2.1.4 2.3 1.1 2.6 8.9l.3 8.4v-8.7c-.1-8.7-.1-8.8-2.6-8.9-2.1-.1-2.1 0-.3.3z" stroke-width="3" fill="#E5FFE5" stroke="#E5FFE5"/><path d="M561.4 1156.5c0 4.9.1 7.1.3 4.8.2-2.3.2-6.4 0-9-.2-2.6-.3-.8-.3 4.2z" fill="#CCE5CC" stroke="#CCE5CC" stroke-width="3"/><path d="M370.3 1126.7c2.6.2 6.8.2 9.5 0 2.6-.2.4-.3-4.8-.3s-7.4.1-4.7.3zm178.4 10c1.9.4 2.3 1.2 2.6 5.9l.4 5.4-.1-5.7c-.1-5.5-.2-5.8-2.6-5.9-2.1-.1-2.1 0-.3.3z" stroke-width="3" fill="#7FB27F" stroke="#7FB27F"/><path d="M208.4 1130.5c0 7.1.1 9.9.3 6.2.2-3.7.2-9.6 0-13-.2-3.4-.3-.4-.3 6.8zm186.9 7.5c0 4.7.2 6.6.4 4.2.2-2.3.2-6.1 0-8.5-.2-2.3-.4-.4-.4 4.3zm123.1 10c0 6.9.1 9.7.3 6.2.2-3.4.2-9 0-12.5-.2-3.4-.3-.6-.3 6.3zm-289.1 8c0 4.7.2 6.6.4 4.2.2-2.3.2-6.1 0-8.5-.2-2.3-.4-.4-.4 4.3z" stroke-width="3" fill="#4C994C" stroke="#4C994C"/><path d="M351 1092.9c-7.7 1.3-15.1 5.3-20.3 11-2.6 2.9-4.7 5.9-4.7 6.7 0 .8-.4 1.4-.9 1.4-.4 0-1.6 2.8-2.6 6.1-3.3 12-1.6 32 3.3 38.1 5.1 6.4 9.5 9.7 15.6 11.7 7 2.2 12.1 2.6 15.8 1.2 1.3-.5 4.8-1.6 7.8-2.5 11.7-3.4 20.3-15.1 21.6-29.3.9-10.1.6-10.3-16.5-10.3-7.6 0-15.2.5-17 1.1-5.3 1.9-6.6 6.4-2.9 9.9 1.9 1.7 3.5 2 12.5 2 5.7 0 10.3.4 10.3.9 0 2-2 6.1-4.1 8.5-6.2 7.2-20 9.5-27.2 4.6-2-1.4-4.4-4.1-5.2-6-.9-1.9-2-4.3-2.5-5.2-1.3-2.2-1.3-17.8-.1-17.8.5 0 1.2-1.7 1.6-3.7.8-4.5 8.6-12.5 14-14.3 2-.7 6.7-1 10.3-.8 6 .3 7.3.8 12.3 4.6 6.1 4.6 8.7 5.2 11.2 2.4 3-3.3 2.1-7.4-2.5-11.9-7.4-7.1-18.6-10.2-29.8-8.4zm-150.3 13.9c-1.4 1.5-1.7 4-1.7 12 0 9.8-1.1 13.3-3.1 10.1-.6-1-3-1.4-8.1-1.4-7.6 0-8.8.5-14.2 6.2-4.1 4.2-4.7 5.4-5.6 10.6-1.9 11.6 3.2 20.2 13.6 23.3 4.9 1.4 5.9 1.4 11-.1 4-1.2 6-1.3 6.7-.6 1.7 1.7 6.5 1.3 7.6-.7 1.1-2.1 1.8-58.2.7-60-1.1-1.8-5.1-1.4-6.9.6zm-5.7 29.7c3.8 1.9 4.3 4.1 3.5 13.4-.6 7.1-.9 7.9-3.5 9.4-1.5 1-4.9 1.7-7.4 1.7-8 0-12.7-6.8-11.1-16.2 1.1-6.2 5.1-9.8 11-9.8 2.5 0 5.9.7 7.5 1.5zm326.3-30.2c-1.8.7-4.2 2.3-5.4 3.5-2.4 2.6-4.9 10-4.9 14.4 0 2.6-.2 2.8-4.3 2.8-4.3 0-7.7 2.1-7.7 4.8 0 2 4.4 4.2 8.3 4.2h3.8l-.7 14.3c-.7 14.7 0 18.7 3.1 18.7.8 0 2.1-1 2.9-2.2 1.3-1.8 1.6-5.2 1.6-16.5V1136h5.4c9.7 0 14.3-3.4 9.7-7.2-1.7-1.3-4-1.8-8.2-1.8-6.5 0-8.3-1.5-6.1-5.1.7-1 1.2-2.5 1.2-3.3 0-2.3 5.5-5.6 9.2-5.6 4.5 0 7.2-2 6.4-4.7-1.1-3.3-8-4.3-14.3-2zm43.2-.6c-5.7 1.5-10.4 8.2-11.4 16.3l-.6 4.5-4.7.5c-5.5.7-6 1.1-6 4.6 0 3.2 1.6 4.4 6.5 4.4h3.7v15.4c0 12.6.3 15.6 1.5 16.6 1.3 1.1 2 1.1 4 0 2.4-1.3 2.5-1.6 2.7-16.4l.3-15.1 6.5-.6c8-.6 9-1.2 9-4.8 0-3.3-1.7-4.1-9.7-4.1H561v-4.1c0-5.5 4.4-9.9 9.9-9.9 4 0 6.1-1.4 6.1-4.2 0-3.2-6.1-4.7-12.5-3.1zm-343 5.4c-1.5 2.8-1.5 3.3 0 5.5 2.2 3.4 3.9 3.9 6.9 1.9 3.1-2.1 3.5-6.4.8-8.8-2.9-2.7-5.9-2.1-7.7 1.4zm176.2-1.3c-3.3 3.6-1 10.2 3.5 10.2 4.2 0 6.3-7.3 3-10.3-2.4-2.2-4.5-2.1-6.5.1zm21.1 16.4c-1.3 1.1-1.7 4.6-2.1 20.3-.3 10.4-.3 19.6 0 20.2.5 1.4 5.1 1.7 7 .5.7-.4 1.5-5.8 2-14.2l.8-13.5 3-1.4c4.2-2 11-1.8 13.5.4 2 1.8 2.1 1.8 3.5-.1 2.2-2.9 1.8-5.8-1.1-8.5-2.3-2.1-3.5-2.4-10.7-2.5-4.5 0-9.5-.5-11-1.2-3.4-1.5-3-1.5-4.9 0zm-196.6 2c-1.1 1.5-1.9 9-2.8 25.6-.6 10.8-.6 11.3 1.6 13.2 2.7 2.4 3.1 2.4 5.6.6 1.7-1.3 1.9-3 2.2-19.6.4-18.8 0-21-3.8-21-1 0-2.2.6-2.8 1.2zm29.8-.5c-7.7 3.2-13 12.2-13 22 0 3.5.4 6.3 1 6.3s1 .7 1 1.5c0 2.6 6 8.4 9.8 9.5 12.5 3.4 27.2-1.2 27.2-8.5 0-3.8-2.3-4-7.1-.6-3.4 2.5-5.2 3.1-9.5 3.1-7.7 0-13.4-3-14.8-7.6-.6-2-.1-2.2 6.6-3.2 23-3.4 23.8-3.8 23.8-9.4 0-3.7-2.1-7.7-5.6-10.7-2.4-2.1-4.1-2.5-10.4-2.8-4.1-.1-8.2 0-9 .4zm12.9 7.4c6 2.9 5.3 5.2-1.9 6.1-3 .3-7.6.9-10.2 1.2-4.3.6-4.8.5-4.8-1.2 0-3 6.3-7.9 10.6-8.1 1.1-.1 3.9.8 6.3 2zm132.3-6.9c-.5.7-1.3 7.1-1.6 14.3-1.3 24.2-1.4 22.5 1.7 24.8l2.7 2.1 2.5-2.6c2.5-2.7 2.5-3 2.5-19.6 0-15.1-.2-17.1-1.8-18.5-2.2-2-4.6-2.2-6-.5zm74.3-.4c-4.7 1.7-10.5 5.4-12.2 7.9-4.5 6.5-6.6 16.9-4.4 21.1.5.9 1.5 3.1 2.3 4.9 1.2 3.1 2.4 3.9 11.6 7.4 2.9 1.1 6.2 1.2 6.2.1 0-.5 2.3-1.4 5.2-2.1 4.9-1.3 5.2-1.3 7 .9 3.6 4.4 7 .2 4.8-5.9-1-2.5-1.3-7.9-1.2-17.6.1-7.7-.2-14.6-.7-15.4-1-1.5-15.1-2.5-18.6-1.3zm8 6.4c2.5 1.1 2.5 1.2 2.5 12.9 0 11-.1 11.9-2.2 13.3-1.3 1-4.3 1.6-7.3 1.6-7.2 0-9.5-2.7-9.5-11 0-6.9 3-12.8 7.8-15 1.5-.7 3.4-1.6 4.2-2.1.8-.4 1.6-.8 1.7-.8.1-.1 1.4.4 2.8 1.1zm117.1-6.5c-1 .3-2.8 1.4-3.9 2.4-1.2 1-2.4 1.9-2.9 1.9-1.1 0-5.9 10.9-6.5 14.8-1.2 7.1 5.5 18 12.5 20.3 4.2 1.4 17.6.7 21.4-1.1 1.4-.7 3.4-2.8 4.4-4.6 1.7-3.2 1.7-3.5.2-5-1.6-1.6-1.9-1.6-4.4.2-5.8 4.1-6.9 4.5-12.9 4.2-6.4-.4-11.9-3.3-13.1-7.1-.8-2.5-.7-2.5 6.2-3.2 3.2-.4 6.8-1 7.9-1.5 1.1-.4 4.7-1.2 8-1.7 5.1-.7 6.2-1.2 7.3-3.5 1.8-3.9-.1-9.5-4.6-13.3-3.1-2.6-4.3-3-10.6-3.2-3.9-.1-8 .1-9 .4zm12.9 7.2c1.7 1 3.1 2.7 3.3 3.8.3 1.8-.4 2.1-6.5 2.7-3.7.4-8.5.9-10.5 1.3-5 .7-5-.9.2-5.9 4.6-4.3 8.4-4.9 13.5-1.9z" stroke-width="3" fill="#337F33" stroke="#337F33"/></svg>