<svg version="1.0" xmlns="http://www.w3.org/2000/svg" viewBox="0 0 784 1258"><g fill="#FFF" stroke="#FFF" stroke-width="3"><path d="M0 629v629h784V0H0v629zm308.1-484.1c5.2 2.3 12 8.5 14.3 13 1.2 2.3 2.5 3.2 5.4 3.6 10.1 1.7 22 4.9 27.9 7.6 2.4 1.1 5.3 2.4 6.5 3 1.3.5 4.1 2.1 6.3 3.4l3.9 2.4 3.7-3.4c10.4-9.3 25-5.9 40.6 9.5 19.2 18.9 36.4 44.7 41.4 62 .7 2.5 1.6 4.9 1.9 5.5 4.4 6.3 4.4 48.2 0 54-.4.5-1 2.3-1.4 4-.8 3.2-6.3 14.8-9.9 20.6-6.4 10.4-19.8 24.1-31.2 32-14.1 9.8-31.3 16.8-41.2 16.9H373v16.6c0 15.9.1 16.7 2.7 22.2 2.4 5.1 2.7 6.9 2.8 16.7 0 10.3-.2 11.3-2.8 15.7l-2.8 4.8.3 57.2.3 57.3 2.7 4.2c3.4 5.1 5.8 6.8 12.9 8.9 4.8 1.5 10.4 1.6 50.6 1 52.3-.7 53.2-.8 58.7-8.4l3.1-4.4.6-47.6c.4-26.3.7-79.2.8-117.8.1-67.6.2-70.3 2.1-76 2.4-6.8 6.5-11.5 13.5-15.2l5-2.7 37.5-.5c37-.5 37.5-.5 40.7-2.8 8.4-6 14.6-18.5 19.7-39.7.8-3.3 2.4-9.8 3.6-14.4 4.9-19.4 11.6-25.1 21.4-18.3 3.5 2.4 10.4 10.5 10.5 12.4.1.4 1.2 3.2 2.6 6.2 1.3 2.9 3.2 9.6 4.1 14.7 2.1 11.7 2.9 35.3 1.5 43.9-4 24.4-3.9 21.8-4 300-.2 263.3-.2 267.7-2.2 277.5-4.7 23.7-17.6 38.2-37 41.5-4.2.7-22.2 1-52.9.8-46.4-.3-46.5-.3-51.2-2.6-2.6-1.3-6.2-4.2-7.9-6.4-6.6-8.3-6.3-4.4-6.9-89.8-.6-85.5-.2-81.7-6.9-87.3-1.8-1.4-5-3.1-7.1-3.7-2.6-.7-20.7-1-53.2-.8l-49.3.3-3.8 2.4c-2.1 1.3-5 4.2-6.5 6.5l-2.7 4.1-.5 66-.5 66-2.4 6.5c-6.1 16.9-15.6 27.4-31.2 34.4-3 1.4-7.9 3-10.9 3.6-7.3 1.4-88.3 1.3-93.5-.1-9.1-2.4-16.3-10.2-18.4-19.7-.8-3.9-1.1-68.8-1.1-238.6 0-196.4-.2-233.5-1.4-234.5-.7-.6-2.6-3.9-4.1-7.3-3.7-8.3-3.2-15.5 1.9-26.1l3.6-7.5v-18.6c0-18.4 0-18.7-2.2-19.5-1.3-.5-7.5-2.5-13.8-4.6-39-12.7-64.4-37.1-73.7-70.8-4.4-15.8-4.3-36.3 0-58l1.4-6.8-2.7-2.7c-1.5-1.5-3.5-5.2-4.5-8.1-1.9-5.7-1.9-5.1 1.7-25.1 1.1-6 4.7-13.8 8.6-18.5 6-7.3 16.2-9.4 26.3-5.3 7.5 3 11.6 7.1 13.6 13.8 1 3 2.2 5.8 2.7 6.2.5.3 4.8 1.2 9.5 1.9 13.7 1.9 32.1.2 50.1-4.8 6-1.7 7.1-2.5 15-10.5 7.6-7.9 12.3-11.6 21.2-17.2 3-1.8 14.7-6.1 18.8-7 5.1-1 16.5.3 21.1 2.3zm85.3 947.2c2.6 2 2.6 2.1 2.6 16v13.9h18.5c10.2 0 18.5-.1 18.6-.3 0-.1.4-6.5.8-14.1.7-12.8 1-14.1 3.1-15.8 2.9-2.3 7.2-2.3 10.1.1l2.4 1.9-.3 24.4c-.4 37.9-1 47.6-3.5 49.9-3 2.8-8.2 2.5-11.4-.7l-2.6-2.6.6-13.4.7-13.4h-37.8l-.7 13.7c-.6 12-1 14.1-2.8 16-2 2.3-5.9 2.9-9.2 1.7-3-1.2-4.5-5.9-3.9-12.1.3-3.2.9-18.8 1.2-34.6.7-28.8.7-28.9 3.1-30.8 3-2.5 7.2-2.4 10.5.2zm-145.5 11.5c1.9 2.5 2 3.5 1.4 31.7-.6 31.3-.9 33.1-5.8 34.3-1.4.3-3.3 0-4.6-1-1.9-1.3-2.6-1.3-5.7-.1-5.1 2.2-10 1.8-16.1-1.3-6.6-3.3-10.8-8.8-11.7-15.4-2.1-15 7.1-27.1 20.6-27.2 3-.1 6.7.2 8.3.7l2.7.7v-10.4c0-10.1.1-10.5 2.6-12.5 3.5-2.8 5.8-2.6 8.3.5zm335.8 0c2.6 2.6 2.6 2.7 2 13.7-.4 6.2-.9 19.1-1.3 28.7-.3 9.6-.7 18.5-.9 19.6-.3 1.2-1.8 2.7-3.5 3.4-2.5 1-3.4 1-5.5-.4-2.2-1.5-2.8-1.5-6.1-.1-7.1 2.9-14.9 1.1-21.2-4.8-5.3-5-6.6-8.3-6.6-16.3.1-5.9.5-8 2.7-11.6 5.7-9.8 17.4-14.2 27-10.3 1.5.6 1.7-.1 1.7-8.7 0-7.1.4-9.9 1.7-11.8 3.3-4.9 6.1-5.3 10-1.4zm-270.2 20.7c.7 1 1.9 1.1 4 .5 6.5-1.9 16.3.9 19.8 5.7 1 1.4-.1 5.6-2 7.7-2 2.2-4.6 2.3-7.8.2-2.9-1.9-7-1.4-11 1.2-2.4 1.6-2.5 1.9-2.5 13.9 0 9.9-.3 12.7-1.6 13.9-2.5 2.6-6.1 3-9 1.1l-2.6-1.7.7-20.6c.6-19.4.8-20.8 2.8-22.5 2.4-2.1 7.4-1.7 9.2.6zm194-1.1c1.4.6 2.5 1.4 2.5 1.7 0 .3 4.5.6 9.9.6 9.2 0 10.1.2 12.6 2.5 4.7 4.3 5.5 7.6 5.5 23.4 0 13.7-.1 14.6-2.2 16.6-2.8 2.6-6 2.6-8.4-.1-1.7-1.9-1.9-3.4-1.6-13.8.2-6.8-.1-12.8-.8-14.5-1-2.7-1.3-2.8-5.6-2.3-7.3.8-8 2-8.7 15-.7 13-1 14-4.4 16.2-2.4 1.6-2.7 1.6-5.2-.3l-2.6-1.9V1146c0-20 0-20.2 2.4-22.1 2.7-2.2 3.2-2.3 6.6-.7zm-222.8 2.3c4.8 2 8 5.6 9.3 10.6 1.4 5.2-.2 10.7-3.3 11.3-1.2.2-4.7.9-7.7 1.6-3 .6-8.2 1.4-11.5 1.8-3.2.4-5.9 1.1-5.9 1.7 0 .5 1.5 2 3.4 3.2 5 3.4 11.4 3.1 17.3-.8 5.3-3.5 8.2-3.2 9.8.8 2.1 5.6-6.5 12.4-17.3 13.9-5.6.8-14.9-1.9-18.8-5.4-3.8-3.6-7-10.7-7-16.1 0-9.4 5.8-19.4 13.4-22.7 4.2-1.8 13.8-1.7 18.3.1zm181.4.2c1 1.2 1.4 5.1 1.4 14.5 0 11.8.2 13.1 2 14.4 2.6 2 7.4 1.1 9.8-1.7 1.4-1.8 1.7-4.1 1.7-13.7 0-9.3.3-11.9 1.7-13.4 2.1-2.4 8.8-2.5 10.1-.2.5 1 .7 10.4.4 21.8-.5 22-.9 23.6-6.4 23.6-1.5 0-3.6-.8-4.5-1.8-1.4-1.3-3.5-1.7-10.5-1.7-8.2 0-8.8-.1-11.7-2.9-4.3-4.1-5.1-7.9-5.1-23.8 0-11.1.3-14 1.6-15.2 2-2.1 7.8-2 9.5.1z"/><path d="M292.5 169.1c-10.2 1.5-27.1 5-29 5.8-1.1.5-4.5 1.7-7.5 2.6-3 .9-6.9 2.3-8.6 3.1-1.8.7-5.5 1.9-8.4 2.6-5.9 1.4-5.7 0-2 14.7 1.1 4.7 2.4 9 2.9 9.5.5.6 1.6 3.6 2.6 6.6 1 3 2.3 6.2 3 7 .6.8 1.8 3.1 2.5 5 .8 1.9 2.2 4.4 3.2 5.4 1 1.1 1.8 2.4 1.8 2.9 0 2.6 18 22.6 24.6 27.3C288 269 299.5 275 307 277c2.5.7 5 1.5 5.5 2 3.2 2.4 41.2 6 42.5 4 .4-.6 1.2-4.7 2-9.3.7-4.5 1.6-8.7 2-9.2.5-.6 1.6-7.5 2.5-15.5.9-8 2-15.9 2.5-17.5.5-1.7 1.1-10.4 1.5-19.5.3-9.1 1.1-18.9 1.7-21.8 1.2-5.8 1-6.1-5.6-9.5-11.9-6.1-20.5-9-34.6-11.7-5.4-1.1-27.5-1-34.5.1zm7.7 43c3.3 1.7 5.8 6.6 5.8 11.3 0 2.5-.4 4.6-.8 4.6-.5 0-1.4 1-1.9 2.3-.7 1.4-3 3.1-5.7 4.1-4.6 1.7-4.8 1.7-9.1-.3-5.6-2.6-7.9-6.7-7.2-12.9 1-8.8 10.5-13.4 18.9-9.1z"/><path d="M289.7 214.6c-.4.4-.7 1.8-.7 3 0 1.7.7 2.5 2.6 3 3.1.8 4.7-.6 4.2-3.7-.2-1.7-1-2.5-2.8-2.7-1.4-.2-2.9 0-3.3.4zm296.8 229c-1.1.3-3.6.9-5.5 1.4-1.9.5-6.9 1.7-11 2.6-4.1.9-7.9 2-8.5 2.4-.5.4-2.7 1.3-4.8 2-10.6 3.4-26.6 13.6-38.2 24.2l-7.5 7v21.6c-.1 33.6-1.6 63.9-3.4 69-2.3 6.4-9 12.8-15.8 15.2-4.7 1.6-8.3 2-19.9 2h-14.1l.4 12.7c.4 9.3.9 13.6 2.1 15.8.9 1.6 1.7 3.5 1.7 4.1 0 1.5 6.2 10.5 9.4 13.8 10.3 10.2 28 16.2 51.4 17.3 22.1 1.1 41.1-8.7 48.7-25.2 1-2.2 2.1-4.2 2.4-4.5.3-.3 1.5-3 2.5-6s2.2-6 2.6-6.5c.4-.6 1.5-3.7 2.5-7 .9-3.3 2-6.5 2.5-7 .4-.6 1-2.4 1.4-4 .7-2.9 2-6 7.3-17.2 3.5-7.5 8.9-15.1 14.2-20.1 5-4.7 15-11.2 17.2-11.2.8 0 2.6-.6 4.1-1.4 3.4-1.8 11.8-3.6 16.6-3.6 2 0 4.7-.3 6-.6l2.2-.6v-88.3l-2.8-1.3c-3.3-1.4-17.9-4.8-26.7-6.2-5.8-.9-33-1.2-37-.4zM222 742.5V814h2.1c6.6 0 21.6-6.3 28.7-12.1 7.7-6.2 15.8-19.9 18.1-31 2.5-11.7 1-40-2.5-46.8-.8-1.4-1.4-3.2-1.4-4 0-1.8-5.4-12.3-9.8-19.1-5.1-7.9-18.5-20.8-26.8-25.8-3.8-2.3-7.3-4.2-7.7-4.2-.4 0-.7 32.2-.7 71.5zm1 394.2c-2.7 1.4-3.8 2.8-4.9 6.2-3.4 10.7 5.1 18.7 14.7 13.7 3.2-1.7 3.2-1.7 3.2-9.6 0-7.2-.2-8.1-2.2-9.4-3.9-2.5-7.1-2.8-10.8-.9zm337.3-1c-4 .8-7.3 5.9-7.3 11.2 0 5.6 2 8.8 6.7 10.8 3.2 1.3 3.8 1.2 7.1-.5 3.6-1.8 3.7-2.1 4.4-8.8.4-3.8.5-7.7.2-8.7-.8-2.5-7-4.8-11.1-4zm-291.4 1.2c-1.3 1.1-2.2 2.2-1.9 2.5.7.6 14.1-1.2 14.9-2 1.1-1-2.5-2.4-6.5-2.4-2.6 0-5.1.7-6.5 1.9z"/></g><path d="M661.5 496.5c0 27.5.1 38.6.2 24.7.2-13.9.2-36.4 0-50-.1-13.6-.2-2.2-.2 25.3zm-8-1c0 24.7.1 34.7.2 22.2.2-12.6.2-32.8 0-45-.1-12.2-.2-2-.2 22.8zM510.4 509c0 14 .2 19.8.3 12.7.2-7 .2-18.4 0-25.5-.1-7-.3-1.2-.3 12.8zm-8-4c0 10.2.2 14.3.3 9.2.2-5 .2-13.4 0-18.5-.1-5-.3-.9-.3 9.3zm-41.1 78.7c4.2.2 11.2.2 15.5 0 4.2-.1.7-.3-7.8-.3s-12 .2-7.7.3z" stroke-width="3" fill="#FFFFE5" stroke="#FFFFE5"/><path d="M502.4 542.5c0 11 .2 15.6.3 10.3.2-5.3.2-14.3 0-20-.1-5.7-.3-1.3-.3 9.7z" fill="#FFE5E5" stroke="#FFE5E5" stroke-width="3"/><path d="M540.3 311.7c6.4.2 17 .2 23.5 0 6.4-.1 1.1-.3-11.8-.3s-18.2.2-11.7.3zm-30.9 225.8c0 8.2.2 11.5.3 7.2.2-4.3.2-11 0-15-.1-4-.3-.5-.3 7.8zm-45.1 53.2c3.7.2 9.7.2 13.5 0 3.7-.2.6-.3-6.8-.3-7.4 0-10.5.1-6.7.3z" stroke-width="3" fill="#FFE5CC" stroke="#FFE5CC"/><path d="M660.5 393.5c0 29.1.1 40.9.2 26.2.2-14.8.2-38.6 0-53-.1-14.4-.2-2.4-.2 26.8zm-445.1-14c0 10.4.2 14.6.3 9.2.2-5.4.2-13.9 0-19-.1-5.1-.3-.7-.3 9.8zm.1 171.5c0 60.2.1 84.9.2 54.7.2-30.1.2-79.3 0-109.5-.1-30.1-.2-5.4-.2 54.8zm439-55c0 24.5.1 34.5.2 22.2.2-12.2.2-32.2 0-44.5-.1-12.2-.2-2.2-.2 22.3zm-145.1 4.5c0 7.7.2 10.7.3 6.7.2-4 .2-10.3 0-14-.2-3.7-.3-.4-.3 7.3zm151.1 209c0 89.6.1 126.2.2 81.2.2-45 .2-118.4 0-163-.1-44.7-.2-7.9-.2 81.8zm-245.7 32.2c12.7.2 33.7.2 46.5 0 12.7-.1 2.3-.2-23.3-.2s-36 .1-23.2.2zM215.5 864.5c0 23.6.1 33.2.2 21.2.2-12 .2-31.4 0-43-.1-11.7-.2-1.9-.2 21.8z" stroke-width="3" fill="#E5CCB2" stroke="#E5CCB2"/><path d="M221.5 742c0 39.3.1 55.4.2 35.7.2-19.6.2-51.8 0-71.5-.1-19.6-.2-3.5-.2 35.8z" fill="#E5CC99" stroke="#E5CC99" stroke-width="3"/><path d="M372.4 395.5c0 8.8.2 12.3.3 7.7.2-4.6.2-11.8 0-16-.1-4.2-.3-.5-.3 8.3zm288.1 101c0 27.5.1 38.6.2 24.7.2-13.9.2-36.4 0-50-.1-13.6-.2-2.2-.2 25.3zm-288 12.5c0 29.4.1 41.5.2 26.7.2-14.7.2-38.7 0-53.5-.1-14.7-.2-2.6-.2 26.8zm130.9 4c0 9.6.2 13.6.3 8.7.2-4.8.2-12.6 0-17.5-.1-4.8-.3-.8-.3 8.8zM372.5 820.5c0 31.3.1 44 .2 28.2.2-15.9.2-41.5 0-57-.1-15.5-.2-2.6-.2 28.8z" stroke-width="3" fill="#E5B299" stroke="#E5B299"/><path d="M544.3 312.7c8.2.2 21.2.2 29 0 7.8-.1 1.2-.3-14.8-.3-15.9 0-22.3.2-14.2.3zm-136.5 272c8.3.2 22.1.2 30.5 0 8.3-.1 1.5-.3-15.3-.3s-23.6.2-15.2.3z" stroke-width="3" fill="#C96" stroke="#C96"/><path d="M215.5 740.5c0 44 .1 61.9.2 39.7.2-22.2.2-58.2 0-80-.1-21.8-.2-3.7-.2 40.3zm47.3 192.2c5 .2 13.4.2 18.5 0 5-.1.9-.3-9.3-.3-10.2 0-14.3.2-9.2.3zm37 0c3.4.2 9 .2 12.5 0 3.4-.2.6-.3-6.3-.3-6.9 0-9.7.1-6.2.3zm249.4 0c4.8.2 12.9.2 18 0 5.1-.1 1.2-.3-8.7-.3-9.9 0-14.1.2-9.3.3zm39.1 0c4.2.2 11.2.2 15.5 0 4.2-.1.7-.3-7.8-.3s-12 .2-7.7.3z" stroke-width="3" fill="#CC997F" stroke="#CC997F"/><path d="M503.5 411c0 38.8.1 54.6.2 35.2.2-19.3.2-51.1 0-70.5-.1-19.3-.2-3.5-.2 35.3zm0 422.5c0 38.5.1 54.1.2 34.7.2-19.5.2-51 0-70-.1-19.1-.2-3.2-.2 35.3z" stroke-width="3" fill="#E5CCCC" stroke="#E5CCCC"/><path d="M371.4 379.3c-.2.7-.3 8-.2 16.2l.3 15 .5-16.3c.3-8.9.4-16.2.2-16.2-.1 0-.5.6-.8 1.3zm.1 129.7c0 29.4.1 41.5.2 26.7.2-14.7.2-38.7 0-53.5-.1-14.7-.2-2.6-.2 26.8zm137 14c0 21.7.1 30.6.2 19.7.2-10.8.2-28.6 0-39.5-.1-10.8-.2-1.9-.2 19.8zm-40.2 61.7c3.2.2 8.1.2 11 0 2.9-.2.3-.3-5.8-.3-6 0-8.4.1-5.2.3zM216.5 740.5c0 44.5.1 62.9.2 40.8.2-22.1.2-58.5 0-81-.1-22.4-.2-4.4-.2 40.2zm155 79.5c0 31.1.1 43.8.2 28.3.2-15.6.2-41 0-56.5-.1-15.6-.2-2.9-.2 28.2zM262.8 931.7c5 .2 13.4.2 18.5 0 5-.1.9-.3-9.3-.3-10.2 0-14.3.2-9.2.3zm37.4 0c3.7.2 10 .2 14 0 4-.1 1-.3-6.7-.3s-11 .1-7.3.3zm249.6 0c5 .2 13.4.2 18.5 0 5-.1.9-.3-9.3-.3-10.2 0-14.3.2-9.2.3zm39.5 0c4.8.2 12.6.2 17.5 0 4.8-.1.8-.3-8.8-.3-9.6 0-13.6.2-8.7.3z" stroke-width="3" fill="#B26633" stroke="#B26633"/><g fill="#B26619" stroke="#B26619" stroke-width="3"><path d="M287.6 148.1c-3.3.5-6.5 1.4-7 2-.8.9-.6 1 .9.4 3.5-1.3 17.9-1.8 22-.7 3.6 1 3.8 1 2.1-.3-1.1-.8-3.4-1.5-5-1.5-1.7 0-4-.2-5.1-.4-1.1-.2-4.7 0-7.9.5zm-14.6 4.7c-7.4 3.8-17 10.8-17 12.6 0 .5 1.2-.2 2.8-1.6 3.5-3.2 8.2-6.4 14.6-9.9 5.6-3.1 5.3-3.9-.4-1.1zm-23.1 12.9c-3.2 3.1-5.7 5.8-5.5 6 .2.3 3.1-2.3 6.5-5.6 7.6-7.7 6.9-8-1-.4zm29.6-1.2c-.5.1-3.6.8-6.8 1.5-3.1.7-5.5 1.5-5.3 1.7.6.6 14-1.9 15.1-2.9.9-.8-.9-1-3-.3zm-27.3 3.8c-4.4 4.6-1.6 5.7 6.7 2.5 4.2-1.6 1.6-1.9-2.9-.3-5.2 1.9-6.1 1.3-3-2 1.3-1.4 2.1-2.5 1.8-2.5-.2 0-1.4 1-2.6 2.3zm132.9 6.6c-.8.6.3.7 3 .4 3.6-.4 5.5.1 10.3 2.6 3.2 1.7 5.3 2.5 4.6 1.6-3.2-3.9-14.4-6.8-17.9-4.6zm29.2 15.4c5.1 5.1 12.7 13.9 17 19.5 4.2 5.7 7.7 10 7.7 9.7 0-.8-3.2-5.7-4.7-7.3-.7-.8-1.7-2.2-2.3-3.1-2.1-4.1-24.6-28.1-26.2-28.1-.5 0 3.4 4.2 8.5 9.3zm-226.6-5.1c.6 1.1 11.5 1 13.2-.1.9-.6-1.4-.9-6.1-.8-4.2.1-7.4.5-7.1.9zm-8.5 3c2.9.8 27.4.8 31.2-.1 1.7-.3-5.2-.6-15.3-.6-10 0-17.2.3-15.9.7zm192.9 4.5c-.7 3.2-1.1 8.9-.9 12.8l.4 7 .2-8.1c.1-4.5.9-10.1 1.7-12.4 1.8-5 1.8-5 .6-5-.4 0-1.4 2.6-2 5.7zm67.9 29.8c.7.8 3 4.8 5.2 8.8 2.1 3.9 3.6 6.1 3.2 4.7-.3-1.4-1.8-4.5-3.3-7-1.4-2.5-2.9-5.3-3.3-6.3-.4-.9-1.3-1.7-1.9-1.7-.8 0-.8.4.1 1.5zm-310.4 7.3c-.3.5-.7 4.7-1 9.3l-.5 8.4 1.3-9c1.3-8.9 1.3-10.5.2-8.7zm239.1 6.9c-.7 1.1-2 16.9-1.4 16.3.7-.7 2.8-16.2 2.3-16.7-.2-.2-.6-.1-.9.4zm267.4 3.5c-1.4 2.2-1.3 2.3.6.5 3.4-3 8.5.3 13.9 9 1.3 2.1 2.4 3.3 2.4 2.7 0-1.8-4.9-8.7-8.3-11.6-3.9-3.4-6.8-3.5-8.6-.6zm-386 1.5c7.8 10.2 20.8 23.8 21.7 22.8.2-.2-2.7-3.3-6.5-6.8-3.8-3.6-8.6-9-10.8-12.1-2.2-3-4.4-5.5-4.9-5.6-.5 0-.2.8.5 1.7zm-122.9 14.4c-.2 9.7 1.5 24.9 3 26.4.6.6.8.1.4-1.5-1.5-7.4-2-11.5-2.6-22l-.7-11.5-.1 8.6zm146.2 9.7c.7 1.2 12 9.2 13 9.2.4 0 .6-.5.6-1 0-.6-.5-1-1-1-1 0-5.1-2.6-11-6.7-1.3-1-2.1-1.2-1.6-.5zm385.2 9.2c.9 5.4.9 37.1 0 43.2-.6 3.7-.5 4 .6 2.3 1.8-2.9 1.8-45.2 0-48-1.1-1.7-1.2-1.4-.6 2.5zm4.8 20.5c0 9.3.2 13.3.3 8.8.2-4.5.2-12.2 0-17-.1-4.8-.3-1.2-.3 8.2zM324.9 288c6.2 1.5 14.7 2.2 13.6 1.2-.5-.5-4.6-1.2-9-1.5-5-.3-6.7-.2-4.6.3zM190 297.6c-.7 2-2.9 5.5-4.9 7.7-2.4 2.7-2.8 3.6-1.3 2.5 3-2 6.9-7.7 7.8-11.2.9-3.9-.3-3.1-1.6 1zm420.2 9.4c-2.9 3.3-6 6-6.8 6-.8 0-1.4.4-1.4 1 0 2 2 .9 6.9-4 4.3-4.3 7.9-9.1 6.9-9-.2 0-2.7 2.7-5.6 6zm-422.5 1.4c-1.2 1.3-3.7 3.1-5.5 4-1.9 1-3.1 2-2.8 2.3.3.3 2-.4 3.8-1.5 3.5-2.2 8.7-7.2 7.4-7.2-.4 0-1.7 1.1-2.9 2.4zm-43.7 4.1c0 1.1.6 1.5 1.8 1.1.9-.3 3.2-.2 5 .3 1.7.5 3.2.6 3.2.1 0-.4-1.2-1-2.7-1.3-1.6-.3-3.8-.8-5-1.2-1.8-.6-2.3-.3-2.3 1zm3.1 4.2c2.2 2.8 9.2 9.7 11.4 11.3 1.1.7-1.1-1.9-5-5.8-6.7-7-9.2-9.1-6.4-5.5zm13.9 13.2c0 .8 13 9.4 13.5 8.9.1-.2-2.8-2.4-6.6-5s-6.9-4.3-6.9-3.9zm347.7 3.8c-1.3 1.2-.8 143.3.4 143.3.6 0 2.9-1.8 5.1-4 2.2-2.2 3.6-4 3.1-4s-2.2 1.3-3.8 3c-1.6 1.6-3.3 3-3.7 3-.5 0-.7-32-.6-71 .2-39.1.3-71 .2-71 0 0-.4.3-.7.7zm-79.2 9.8c-4.9 5-10.6 10.4-12.5 11.9-1.9 1.5-2.7 2.3-1.8 1.9 5-2.4 25.1-21.6 23.7-22.7-.2-.1-4.4 3.9-9.4 8.9zm75-6.3c-.8 4.9-1.1 230.9-.3 229.4.6-1.1 1.7-232.6 1.1-232.6-.1 0-.5 1.5-.8 3.2zm151.1.5c-.3 2.1-.6 27.1-.6 55.5v51.7l-3.2-1c-4-1.1-5-.3-1.4 1.1 5.9 2.2 5.5 5.8 5.8-54.8.2-30.6.2-55.8.2-56-.1-.1-.4 1.4-.8 3.5zm-224.1 9.6c-3.8 3.9-5.9 6.3-4.5 5.2 4-3.2 12.9-12.5 11.9-12.5-.2 0-3.5 3.3-7.4 7.3zm-90.7 1.9c-.2 2.9-.1 6.6.3 8.3.5 2 .7.2.8-5.3.1-9.2-.5-10.9-1.1-3zM238.2 360c1.4.4 5.9 1 10 1.3l7.3.6-7.5-1.4c-4.1-.8-8.6-1.4-10-1.4l-2.5.1 2.7.8zm108.4 3c1.2 4.3 11.1 11.6 13.1 9.6.3-.3.1-.6-.6-.6-2.3 0-9.2-5.1-11.2-8.3-1.7-2.7-1.9-2.8-1.3-.7zm-114.1-.1c5 1.5 10.5 2 10.5 1 0-.5-1.2-.9-2.7-.9-1.6 0-4.6-.2-6.8-.5-3.6-.4-3.7-.4-1 .4zm131.2 15.2 3.3.9.3 16.3.3 16.2-.1-17v-17l-3.5-.2-3.5-.2 3.2 1zm211.4 61.4c-6.1 1.4-9 2.5-6 2.5 2.4-.1 14-2.7 14.6-3.4.9-.9-1.3-.6-8.6.9zm49-1.1c.7.8 17 3.8 17.6 3.2.2-.2-1.9-.9-4.9-1.5-9.4-1.8-13.3-2.4-12.7-1.7zM535 455.7c-5 3-16 11.1-16 11.9 0 .7 1.6-.3 8-5.2 3-2.3 6.9-4.9 8.7-5.8 1.7-.9 3.5-2 3.8-2.6.9-1.4.5-1.3-4.5 1.7zM367.5 511c0 30 .1 42.2.2 27.2.2-14.9.2-39.5 0-54.5-.1-14.9-.2-2.7-.2 27.3zm287 203.3c0 92.5-.3 170-.7 172.1-.6 3.1-.5 3.7.5 2.7.9-.9 1.3-39.8 1.5-172.1.1-94.1-.1-171-.5-171-.5 0-.8 75.7-.8 168.3zm-44.4-152.4c-3.8 3.8-7.7 8.4-8.6 10.2-2 4-1.6 3.6 5.5-5.4 2.9-3.7 5.6-6.7 5.9-6.7 1.3-.1 6.5-5 5.3-5-.7 0-4.4 3.1-8.1 6.9zm-224.3 22.2c1.1 1.2 9.6 1.4 49.5 1.5h48.2l-48-.5c-26.4-.4-48.7-1-49.5-1.5-1.2-.7-1.3-.7-.2.5zm-5.8 1.4c0 .3 1.7 1.2 3.8 2.2 3.2 1.5 8.1 1.8 35.9 2.1 32.1.3 32.2.4 32.6 2.5.3 1.4.5 1.1.4-.8l-.2-3-33.5-.5c-23.3-.3-34.3-.9-36.2-1.7-1.6-.7-2.8-1-2.8-.8zm77 3.2c0 .5 4.6.7 10.2.5 18.7-.4 20.5-.8 5.1-1-8.4-.1-15.3.1-15.3.5zm-3 31.5c0 3.4 6.4 14.1 11.8 19.9 5.9 6.3 12.2 11 12.2 9 0-.5-.9-1.3-2-1.6-5.7-1.8-16.6-15.1-19.6-23.9-1.6-4.6-2.4-5.7-2.4-3.4zm118.5 17.7c-.9 2.9-11 12.6-14.5 14.1-1.6.7-3 1.7-3 2.2 0 1.8 6.5-2.7 12.2-8.4 5.9-6 8.6-9.8 6.9-9.8-.5 0-1.2.9-1.6 1.9zm-75.8 19.5c5.7 1.9 13.7 3 12.9 1.8-.3-.5-2.7-1.2-5.3-1.5-2.6-.3-6.4-.9-8.3-1.2-3.2-.5-3.2-.4.7.9zm24.1 3.3c2.3.2 6.1.2 8.5 0 2.3-.2.4-.4-4.3-.4s-6.6.2-4.2.4zm-289.8 8c0 .5 1.6 1.7 3.5 2.7 1.9 1.1 3.5 2.3 3.5 2.7 0 .4.8 1 1.8 1.3 2.1.7 15.7 14.3 19.9 19.8 1.5 2.1 3.6 4.8 4.6 6 1.9 2.3 1.9 2.2.1-.7-5.2-8.9-15.2-19.6-25.4-27.1-7-5.1-8-5.7-8-4.7zm46.5 83.2c0 9.6.3 15.6.7 13.5.9-4.9.9-20.5 0-26.4-.4-2.5-.7 3.1-.7 12.9zm136.2-15.2c13.3.2 35.3.2 49 0 13.6-.1 2.8-.2-24.2-.2-26.9 0-38.1.1-24.8.2zm-35.8 4.3c-4.3 2.8-10.2 11-8 11 .6 0 1.3-1.1 1.7-2.4.7-2.8 6-8.1 9.2-9.1 1.2-.3 2.2-1.1 2.2-1.6 0-1.3-.2-1.2-5.1 2.1zm115.1-2.5c0 .2 1.5 1.3 3.4 2.2 1.9 1 4.8 3.5 6.5 5.7 3.3 4.2 4.2 4.1 1.4-.1-2.5-3.8-11.3-9.9-11.3-7.8zm14.8 93.3c.1 42.7.6 78 1 78.4.9.9.4-151.6-.6-154.1-.4-1.1-.6 33-.4 75.7zm-3.8.2c.3 42.2.7 77.1 1 77.3.3.3.4-34 .2-76.1-.1-42.2-.6-77-1-77.4-.4-.4-.5 33.9-.2 76.2zm-136.5-12c0 32.7.1 46.1.2 29.7.2-16.3.2-43.1 0-59.5-.1-16.3-.2-2.9-.2 29.8zm-100.8-25.7c-4.1 6.4-12.5 14-18.9 17.3-4.7 2.4-6.5 4-3 2.7 6.9-2.6 21.1-15.3 24.7-22.4 2.5-4.7.8-3.3-2.8 2.4zm-35.1 23.3c-2.6.7-5.1 1.6-5.5 1.9-.9 1 7-.6 10.4-2 3.8-1.7 1.4-1.6-4.9.1zm65.8 69.2c-5.5 4-10 9.4-11.5 13.9-1.6 4.5-1.6 16.8 0 20.3 1 2.2 1.1 2.1.6-1.3-1.1-7.1-.6-16.2 1-20.2 1.8-4.2 10.8-13.5 13.1-13.5 2.7 0 2.9.1 2.6 1.7-.2.8.1 1.2.7.8.6-.3 1.1-1.5 1.1-2.6 0-2.8-3-2.4-7.6.9zm248.6-1.2c-4.2 2.8-10.1 8.8-11.7 11.7-2.4 4.6-.8 4.2 2-.5s6-7.9 10.6-10.2c4-2.1 4.4-2 3.6.6-.6 1.8-.5 2 .5 1.1 1.5-1.4.6-4.3-1.2-4.3-.8 0-2.5.7-3.8 1.6zm37.2 2c-3 2-5.1 3.8-4.9 4.1.3.2 2.6-1.2 5.2-3.1 4.6-3.5 7.5-4.5 7.5-2.6 0 .5-1.9 2.2-4.2 3.7-2.4 1.5-4.6 3.3-5.1 4-.4.7-1.4 1.9-2.2 2.7-1.6 1.5-3.5 5.9-3.5 7.9 0 .6 1.1-1.2 2.5-3.9 2.2-4.4 4.5-6.7 11.9-11.8 2.1-1.4 1.6-4.6-.6-4.6-.7 0-3.7 1.6-6.6 3.6z"/><path d="M292 897.2c-1.1 1.8-2.5 4.8-3.1 6.7-1.3 3.8-.7 14 1 16.8.9 1.4 1 1 .4-2.2-1.5-7.7-.6-15.2 2.2-20 2.9-5.1 2.5-6.2-.5-1.3zm-46 3.9c-1.5 3.5-1.6 15.1-.2 18.8.6 1.6.7-.6.4-6.2-.3-5 0-9.9.7-11.8 1.5-4.2.7-4.9-.9-.8zm3 4c-.6 2.2-.8 6.1-.4 8.7 1.2 8.4 1.9 7.3 1.9-2.9 0-5.4-.1-9.9-.2-9.9s-.7 1.8-1.3 4.1zm105.1 5c-2.4 2.8-6.7 6.6-9.5 8.5-4.9 3.3-5.7 4.6-1.5 2.3 4.2-2.2 13-10.4 14.8-13.7 1.7-3.1 1.2-2.7-3.8 2.9zm-133 .8c-.3 4.6 8.1 15.1 12 15.1.7 0-.6-1.3-2.9-3-4.2-3-5.8-5.1-7.9-10.5-.6-1.7-1.2-2.4-1.2-1.6zm289.9 6c0 1.6 6.2 7.4 9.3 8.8 4.7 2.2 5.5 1.4 1-.8-2.4-1.1-5.6-3.6-7.3-5.5-1.6-1.9-3-3-3-2.5zm65.5 2.6c.4 1.6 1.2 4.1 1.8 5.5l1.2 2.5H598l18.5.1-18.2-.3-18.2-.3-2.1-5.3c-1.1-2.8-1.8-3.9-1.5-2.2zm-42.9 4.2c.6 3 .4 3.2-2.7 3.6-3.1.3-3 .4.9.5 4.6.2 5.1-.6 2.7-4.8l-1.5-2.5.6 3.2zm-282.5-.6c-.1.8.5 2.3 1.2 3.2 1.1 1.6 3.1 1.7 19.2 1.4l18-.2-18.2-.3-18.1-.2-1-2.8c-.6-1.5-1.1-2-1.1-1.1zm322.5 1.1.6 2.8-17.3.3-17.4.3 18.3.2c19.3.2 20.1 0 16.7-4.4-1.5-1.8-1.5-1.8-.9.8zm-282.5-.6c-.1.5.5 1.8 1.2 2.7 1.1 1.6 2.9 1.7 15.7 1.4l14.5-.3-14.6-.2c-14-.2-14.6-.3-15.7-2.5-.6-1.2-1.1-1.7-1.1-1.1z"/></g><g fill="#B24C19" stroke="#B24C19" stroke-width="3"><path d="M287 144.9c0 .5-1.9 1.1-4.2 1.5-4.7.8-16.8 6.6-20.1 9.6-1.1 1.1-2.5 2-3 2s-5.3 4.4-10.7 9.9c-8.5 8.6-10.3 9.9-14.1 10.5-2.4.4-4.8 1.1-5.5 1.7-1.2 1-8.2 2.3-21.4 4-14.3 1.9-18.3 2.1-20.4 1.1-1.1-.6-4.6-1.3-7.6-1.6-3-.3-6.5-.9-7.7-1.2-3.7-1-2.8 2.2 1 3.6 7.8 2.8 45.6 2 49.4-1.2.7-.5 2.2-.8 3.5-.6 1.8.2 2.4 1 2.6 3.8.2 1.9.7 3.9 1.2 4.5.4.5 1.6 4.7 2.5 9.2 1 4.6 2.1 8.3 2.5 8.3.4 0 1.5 2.7 2.4 6 .9 3.3 2 6 2.5 6 .4 0 1.5 2.2 2.5 5 1 2.7 2.1 5 2.5 5 .3 0 1.5 1.7 2.6 3.7 1.1 2.1 2.2 4 2.5 4.3.3.3 2.5 3.1 4.8 6.2 6.5 8.5 20.5 21.1 28.2 25.4 1.9 1 4.1 2.5 4.8 3.1.7.7 3.1 1.8 5.2 2.4 2.2.7 4 1.6 4 2 0 .4 2.6 1.5 5.8 2.4 3.1.9 6.6 2 7.7 2.6 2.7 1.3 18 3.9 23.2 3.9 2.3 0 4.5.4 4.8 1 .3.5 4.4 1 9.1 1 7.7 0 8.3.1 7.5 1.7-.6 1-1.7 5.4-2.7 9.8-.9 4.4-1.9 8.4-2.3 9-.4.5-1.6 4.8-2.6 9.5s-2.2 8.7-2.5 9c-2.3 1.7-3.9 29.5-2 34.4.8 2.3 4.8 6.7 9.3 10.3 1.7 1.4 8 3.2 12.2 3.5l3 .3.3 16.2c.2 13.6.5 16.3 1.7 16.3 1.3 0 1.5-2.6 1.5-16 0-15.8 0-16 2.3-16.4 1.2-.2 5.5-1 9.5-1.6 3.9-.7 7.2-1.5 7.2-2 0-.4 2.7-1.5 6-2.4 3.3-.9 6-2 6-2.4 0-.4 1.9-1.6 4.3-2.7 2.3-1.1 4.8-2.6 5.5-3.2.7-.7 1.6-1.3 2-1.3.4 0 2-1.1 3.6-2.5s3.2-2.5 3.6-2.5c.9 0 20-19 20-19.9 0-.4.9-1.7 2-2.9 2.5-2.6 5.4-7.3 8.2-13.2 1.1-2.5 2.4-4.7 2.8-5 .3-.3 1.4-3.2 2.4-6.5s2.2-6.9 2.7-8c1.3-2.9 2.9-15 2.9-22.7 0-7.2-1.9-22-2.9-22.8-.4-.3-1.4-3.7-2.4-7.5-1-3.9-2.3-7.2-2.8-7.3-.5-.2-.9-.9-.9-1.6 0-1.5-6.6-14.5-10.3-20.3-1.5-2.4-2.7-4.6-2.7-5 0-.5-.9-1.4-2-2.1-1.1-.7-2-1.7-2-2.4 0-.6-.7-1.8-1.5-2.7-5.5-6.1-8.5-9.6-8.5-10.2 0-1.8-19.7-19.9-21.6-19.9-.5 0-1.7-.8-2.5-1.8-.9-1-4.3-2.4-7.6-3.1-7.7-1.7-11.7-.5-17.1 5-3.8 3.8-6.2 4.9-6.2 2.9 0-.5-1.7-1.7-3.7-2.7-2.1-.9-4.4-2.3-5.1-3-.7-.7-1.7-1.3-2.2-1.3-.5 0-3.3-1.1-6.2-2.4-2.9-1.3-8.1-3-11.5-3.7-3.5-.7-6.3-1.6-6.3-2 0-.3-3.1-.9-7-1.3-5.8-.6-7-1-7.6-2.8-1.9-6.2-12.7-14.8-18.5-14.8-1.1 0-1.9-.5-1.9-1 0-.6-3-1-7-1-3.8 0-7 .4-7 .9zm20.5 5.6c5 2.6 9 6.4 9.9 9.1.6 2 .2 2.1-16.5 3.3-9.4.7-17.8 1.6-18.7 2.1-1 .5-5.7 1.6-10.7 2.5-4.9.9-10.3 2.2-12 3-5.2 2.3-9.5 2.9-9.5 1.2 0-3.2 17.1-16.7 25-19.6 1.9-.7 4.4-1.7 5.6-2.3 6.5-3.1 20.5-2.7 26.9.7zm21 16.6c5 .6 10.4 1.7 12 2.4 1.7.7 5 1.8 7.5 2.6 5.2 1.5 12.7 5 18.7 8.8 3.3 2 4.3 3.2 4.3 5.3 0 1.4-.5 2.8-1.2 3-.8.3-1.6 8.6-2.5 26.4-.8 14.2-1.8 26-2.4 26.2-.5.2-.9 1.6-.9 3 0 4.1-3.3 25.6-4 26.2-.4.3-1.2 3.8-1.9 7.7l-1.3 7.3h-11.9c-6.6 0-12.7-.4-13.7-.9-.9-.5-6.4-1.6-12.2-2.5-5.7-.9-10.6-2-11-2.5-.3-.4-1.8-1.1-3.5-1.5-3.2-.8-17.7-7.4-18.5-8.4-.3-.4-2-1.6-3.9-2.6-3.9-2.2-5.3-3.2-12.4-9.6-5.8-5.1-7.1-6.5-11-11.1-1.5-1.9-3.4-4.1-4.1-4.9-.7-.8-1.9-3-2.7-4.8-.8-1.7-1.7-3.2-2.1-3.2-.4 0-2.6-3.9-4.8-8.8-2.3-4.8-4.7-9.8-5.5-11.2-.7-1.4-1.8-5-2.5-8s-1.6-6-2.1-6.5c-1.1-1.5-3.2-14.2-2.6-15.9.3-.7 2.1-1.6 4.1-2 1.9-.4 4.8-1.3 6.3-2.1s5.2-2 8-2.6c2.9-.7 5.3-1.5 5.3-1.9 0-.4 3.5-1.5 7.8-2.4 4.2-1 8.7-2.1 9.8-2.6 1.9-.7 10.2-2.1 20.9-3.3 6.9-.9 25.6-.6 34 .4zm68.7 8.9c2.5 1.1 5.1 2.7 5.8 3.5.7.8 1.8 1.5 2.4 1.5 2.1 0 23.7 23 27.3 29.1 1 1.6 2 2.9 2.3 2.9.3 0 1.4 1.7 2.5 3.7 1.1 2.1 2.3 4.1 2.8 4.4 1.1.8 4.4 6.5 6.8 11.9 1.1 2.5 2.5 5.4 3 6.4.6 1 2.4 6 4.1 11 2.6 7.8 3.1 11.1 3.5 23.3.6 13.7-.7 28.3-2.7 30.8-.4.5-1.6 3.6-2.6 6.7-1 3.2-2.1 5.8-2.5 5.8-.4 0-1.2 1.4-1.8 3.1-1.3 3.8-7.1 12.9-8.3 12.9-.4 0-.8.6-.8 1.4 0 2-16 17.8-21.9 21.6-2.8 1.9-5.1 3.6-5.1 3.9 0 .4-2 1.5-4.5 2.6s-4.5 2.3-4.5 2.7c0 .3-1.7 1.2-3.7 1.8-2.1.7-4.8 1.8-5.9 2.6-6.7 4.1-30.6 5.6-37.8 2.3-9.8-4.5-12.1-12.6-9.3-32.2 1-6.7 2.1-12.4 2.6-12.7.4-.3 1.6-4.3 2.5-9 1-4.7 2.2-9 2.5-9.5.4-.6 1.6-4.8 2.6-9.5s2.2-8.7 2.6-9c.3-.3 1.4-5.2 2.4-11 .9-5.8 2.1-11 2.6-11.6.5-.6 1.6-7.3 2.5-15 .8-7.6 2-14.7 2.5-15.7.5-.9 1.2-10.2 1.5-20.5.5-17.9 1.7-27.4 3.6-29.7.5-.5 1.7-2.6 2.7-4.5 2.1-4.1 8.3-8 12.7-8 1.7 0 5.2.9 7.6 2zm-270.1 54.2c-.7 5.1-1.7 10.1-2.2 11-1.3 2.4-1.2 30.8.1 30.8.6 0 1 1.5 1 3.2 0 3.8 2.5 14.9 3.9 17.5.5 1 2.8 5.6 5.1 10.3 2.3 4.7 4.8 8.9 5.6 9.3.8.4 1.4 1.3 1.4 2s1.6 2.7 3.5 4.6c1.9 1.9 3.5 3.7 3.5 4.1 0 1 15.6 14 16.8 14 .6 0 1.5.6 1.9 1.2.4.7 2.6 2.2 4.8 3.3 2.2 1.1 4.5 2.5 5.1 3 .6.6 3.1 1.7 5.5 2.5s4.6 1.7 4.9 2.1c.6.9 9.6 3.9 11.5 3.9.8 0 1.5.4 1.5.9s3.3 1.7 7.2 2.6c4 .9 7.6 2.2 8 2.8.4.7.8 9.3.8 19.1 0 9.9.3 17.6.7 17.3.3-.4 1.2-.2 2 .4 1.1 1 1.3-1.9 1.3-17 0-18 0-18.1 2.2-18.1 4.1 0 19.3 2.4 19.8 3.1.9 1.3 22.6 2.3 23.4 1.1 1-1.7-.1-1.9-12.9-3.2-6.6-.6-14.5-1.7-17.5-2.5-3-.7-8.9-1.9-13-2.5-4.1-.7-7.9-1.6-8.5-2-.5-.4-4.1-1.5-8-2.4-3.8-1-7.4-2.1-8-2.5-.5-.5-3.5-1.6-6.5-2.6s-5.7-2.1-6-2.5c-.3-.4-2.6-1.5-5.2-2.5-2.7-1-4.8-2.2-4.8-2.6 0-.5-.5-.9-1.1-.9-1.2 0-11.2-6.4-14.8-9.5-3.4-2.9-12.3-11.8-14.3-14.3-2.5-3.1-2.3-4.6.5-3.7 1.2.3 3.3.9 4.7 1.2 1.4.3 2.8 1 3.2 1.6.3.5 5.1 1.2 10.6 1.5 9.5.4 10.4.3 15.3-2.3 6.9-3.5 10.1-6.9 13.3-13.6 2.9-6.3 3.3-8.9 1.1-8.9-.8 0-1.9 1.7-2.5 4.1-1.1 4.2-5.7 11.9-6.9 11.9-.4 0-1.7.9-2.9 2.1-3.3 3-12 4.1-21.7 2.8-4.4-.6-8.2-1.4-8.5-1.8-.3-.3-3.1-1.4-6.2-2.4-5.5-1.7-9.8-5.3-9.8-8.3 0-.7-.9-2.8-1.9-4.6-1-1.8-2.2-5.1-2.6-7.3-.4-2.2-1.1-4.5-1.5-5-.5-.6-1.5-6.1-2.1-12.2-1-8.8-1-14.1-.1-25.4.7-7.8 1.6-14.7 2.1-15.3 1.6-2 1.8-7.5.3-8.1-.7-.3-1.5-.5-1.6-.5-.2 0-.9 4.2-1.5 9.2z"/><path d="M638 234.8c0 .4-1.3 1.6-3 2.5-1.6 1-3 2.3-3 2.8 0 .6-.9 2.8-2 5.1-1.1 2.2-2.7 8-3.6 12.7-1 4.7-2 8.8-2.3 9.1-.4.3-1.2 3.3-1.9 6.8-1.5 7.3-7 22.1-8.9 24-.7.7-1.3 1.9-1.3 2.5 0 .7-2.6 3.7-5.7 6.7l-5.6 5.5-38.9.5c-24.9.3-39.1.9-39.6 1.5-.4.6-2.5 1.9-4.7 2.8-5.4 2.4-10 9.4-11.4 17.1-.7 4-1.1 42.4-1.1 118 0 108.6-.1 112.3-2 118-2.3 6.7-5.6 10.4-12 13.2-4.2 1.8-7.1 1.9-53.5 1.9h-49l-5.2-2.4c-6.3-2.9-10-7.9-11.4-15.5-.5-3.1-.8-27-.7-58.8.2-41.8 0-53.4-.9-52.6-.7.5-1.6.8-2 .5-.4-.3-.6 25.2-.3 56.6l.5 57.2 2.6 4.7c2.7 5 6.9 9 11.5 11 2.1.9 12.3 1.4 36.3 1.8l33.4.5.2 13c.2 11.5.5 13.8 2.9 20 1.5 3.8 4.2 9.2 6.1 12 3.2 4.8 11.8 13.5 13.4 13.5.4 0 1.8.9 3.1 2s4 2.5 6.2 3c2.1.6 3.8 1.5 3.8 1.9 0 .5 4.4 1.7 9.8 2.6 5.3.9 10.5 2.1 11.4 2.6 2.3 1.2 28.3 1.2 30.6 0 .9-.5 4.7-1.7 8.5-2.6 3.7-1 6.7-2.1 6.7-2.5 0-.4 1.4-1.3 3-2 3-1.3 14-11.5 14-13 0-.5.6-1.5 1.3-2.2.6-.7 2.1-3.1 3.2-5.3 1.1-2.2 2.2-4.2 2.6-4.5.3-.3 1.3-3.1 2.3-6.3 1-3.1 2.1-5.7 2.5-5.7.4 0 1.3-2.3 1.9-5.1.7-2.8 1.9-6.5 2.6-8.3.8-1.7 2.2-5.6 3.2-8.6.9-3 2-5.7 2.3-6 .4-.3 1.5-2.8 2.6-5.5 1-2.8 2.1-5.2 2.5-5.5.4-.3 1.5-2 2.5-3.9 2.1-4.2 14.9-17.1 17-17.1.8 0 1.5-.4 1.5-.9s2.4-1.7 5.3-2.7c2.8-.9 5.7-2 6.2-2.5 1.5-1.1 13.1-2.9 19.3-2.9h5.2l-.2 170.8c-.2 123.7-.6 171.3-1.4 172.3-.6.8-1.4 3.4-1.8 5.9-.8 5.3-6.2 16.9-8.2 17.7-.8.3-1.4 1-1.4 1.7 0 1.3-7.4 7.6-8.9 7.6-.5 0-1.7.7-2.5 1.6-2.7 2.6-15.9 4.3-34.2 4.4-12.6 0-17.4-.3-18.1-1.3-2.1-2.5-3.4-8.6-3.4-15.8 0-7.6 1-12 3.6-14.5.8-.8 1.8-2 2.2-2.7.5-.7 2.7-2.5 5.1-4 2.3-1.5 4.2-3.2 4.2-3.7 0-4-11.7 4.6-15.6 11.4-2.6 4.6-2.9 6-2.9 14.1 0 7 .4 9.6 1.8 11.5 3.4 4.9 3 5-15.9 5-13.7 0-17.8-.3-18.9-1.4-3.2-3.2-4.6-19-2.3-25.7 1.3-3.7 9-11.9 11.2-11.9 1.4 0 3.1-2.9 2.2-3.7-.6-.6-6.3 2.4-9.2 5-1.4 1.2-3.9 4.4-5.7 7.2-2.9 4.6-3.1 5.7-3.1 13.5 0 6.1.5 9.4 1.7 11.7 2.8 5.3 2.4 5.7-4.8 4.9-3.6-.4-7.7-1.2-9.2-1.9-4.4-2-9.1-7.4-9.9-11.2-.3-1.9-1-3.8-1.5-4.1-.5-.3-.9-32.9-.9-75.4 0-49.6-.4-76.6-1.1-79.9-1.3-6.4-5.7-11.9-12.2-15.4l-5.2-2.7-52.6.2c-48.5.3-52.7.4-54.3 2-1 1-2.3 1.8-3 1.8-1.5 0-7.6 6.2-7.6 7.7 0 .6-.8 1.9-1.7 2.9-1.7 1.6-1.8 6.7-2.4 68.3-.5 61.5-.9 69.8-2.9 72.6-.4.5-1.3 2.7-2 4.8-1.7 5.3-4.7 10.1-9.6 15-6 6.1-7.7 7.3-14.7 10.6-8.3 3.9-16 5.1-32.5 5.1h-13.3l-2-4.8c-3.2-7.3-3.6-15.8-1-21.7 2.2-5 7.7-11.5 9.8-11.5 1.6 0 4.4-3 3.8-4-1.7-2.8-13.2 6.9-16 13.5-2 4.9-2.1 15.9-.2 23.3l1.4 5.2-18-.2-18.1-.3-1.9-5c-2.5-7-2.7-15.9-.3-21.5 2.1-4.8 7.2-10.4 10.5-11.5 1.8-.5 3.6-3.3 2.8-4.2-.2-.2-1.7.1-3.2.7-4.1 1.6-12 10.2-13.3 14.8-1.6 5.4-1.5 15.9.3 21.7.8 2.7 1.2 5.1.9 5.4-.2.3-4.1 0-8.5-.7-9.3-1.3-13.7-4.1-16.8-10.6-2-4.1-2.1-5.9-2.1-50.3v-46.1l2.7-.5c28.3-5.1 45.7-20.6 52.4-46.7 1.6-6.2 2.2-25.2 1.1-34-1.6-12.7-6.9-27.5-14-38.9-3-4.9-12.8-15.9-18.2-20.4-7.6-6.5-10.5-8.7-11.2-8.7-.4 0-1.3-.6-2-1.3-.7-.6-3.4-2.2-6.1-3.4L221 664V555.2c0-107.6 0-108.9-2-110.7-2-1.8-2-1.7-2 230.3 0 228.5.2 242.2 3.1 242.2.5 0 .9.6.9 1.3 0 1.7 4.4 6.3 9.2 9.5l4.2 2.7h47.5c47.3 0 47.6 0 52.3-2.3 2.6-1.2 5.1-2.2 5.6-2.2.4 0 2.6-1.3 4.8-3 2.1-1.6 4.3-3 4.8-3 1.6 0 10.6-10.3 13.6-15.5 1.5-2.8 3.4-7 4.1-9.5.7-2.5 1.7-5.1 2.3-5.9.8-1 1.3-22.7 1.7-67.5.3-36.4.9-67.1 1.3-68.4.5-1.2 1.2-2.2 1.7-2.2s.9-.6.9-1.4c0-2.6 7-7.5 12.5-8.6 3.5-.7 21.5-1 54.1-.8 53.1.3 51.8.2 57.6 6.1 1.5 1.5 3.1 4 3.4 5.5.4 1.5 1 3.2 1.5 3.8.5.5 1 35.9 1.1 78.5.4 84.4.2 81.6 6.3 88 4.8 5.1 7 6.7 11.2 7.8 5.2 1.5 93.4 1.5 100.3 0 2.7-.6 7.1-2.2 9.6-3.5 5.3-2.8 15.4-12.1 15.4-14.1 0-.7.4-1.3.9-1.3s1.7-2.1 2.7-4.8c1-2.6 2.1-4.9 2.5-5.2 1.2-.9 3.9-16 3.9-21.5 0-3 .5-5.7 1-6 .7-.4 1-90.6 1-267.3 0-229.1.2-268.7 1.5-280.7 1.9-18.1 1.9-43.2 0-55.9-.8-5.5-1.9-10.2-2.4-10.5-.4-.3-1.6-3-2.5-5.9-1-2.8-2.1-5.2-2.6-5.2s-1.1-.9-1.5-1.9c-.9-3-7-8.9-9.9-9.7-1.4-.3-2.6-1-2.6-1.5s-.4-.9-1-.9c-.5 0-1 .4-1 .8zm7.8 7.1c8.1 7.9 12.5 20.8 14.5 41.8 1.1 11.9.2 27.5-2.7 47.3-1.2 8.3-1.5 21.4-1.6 62.7 0 57.9.5 54-6.3 50.8-4-1.8-21.2-5.3-33.4-6.7-14.6-1.7-44.4 1.8-54.8 6.6-1.6.8-4.1 1.7-5.5 2.1-10.6 3.1-31.4 16.2-41 25.7-2.6 2.7-5.2 4.8-5.9 4.8-.8 0-1.1-18.7-1.1-70.8 0-75-.2-71 4.3-80.2.7-1.3 3.3-3.8 5.7-5.5l4.5-3 38-.6c36.1-.5 41.5-.9 41.5-3 0-.5.6-.9 1.4-.9.8 0 3.6-2.4 6.4-5.4 5.2-5.7 10.2-15.1 12.2-22.6.6-2.5 1.7-5.9 2.4-7.5.8-1.7 1.9-6.2 2.6-10 .7-3.9 1.6-7.5 2-8 .4-.6 1.5-4.5 2.4-8.8 1-4.2 2.1-7.7 2.5-7.7.4 0 1.4-1.1 2.1-2.5 1.9-3.6 5.1-3.1 9.8 1.4zm-20 200.2c5.3.7 9.9 1.5 10.2 1.9.3.3 4.3 1.4 8.9 2.3 4.6.9 9 2.2 9.7 2.8 1.2.9 1.4 9.5 1.4 46.9v45.8l-7.2.7c-4 .3-8.2 1-9.3 1.5-1.1.4-5.1 1.6-9 2.6-3.8 1-7.6 2.4-8.3 3.1-.7.7-1.9 1.3-2.5 1.3-2.9 0-14.5 10.4-17.9 16-1.2 1.9-2.5 3.7-3 4-.4.3-2.6 4.6-4.8 9.5-5.8 12.7-5.7 12.5-7.5 18-.8 2.7-2 5.9-2.5 7-.5 1.1-1.4 3.8-2 6-2.1 6.9-9.9 23.3-12.6 26.5-7.1 8.2-12.2 12.3-17.7 14.1-2.3.7-4.5 1.7-4.8 2.2-.3.4-5.2 1.3-10.8 1.9-10.6 1.2-34.1-.1-37.8-2.1-1-.5-4.5-1.7-7.8-2.6-3.3-1-7.2-2.6-8.7-3.6-1.4-1.1-3.1-1.9-3.6-1.9-.9 0-11.4-10-14.7-14-.7-.8-1.9-3.3-2.6-5.5-.8-2.2-1.7-4.2-2.1-4.5-2.2-1.7-4-27.7-2.2-32.4.5-1.4 2.8-1.6 15.3-1.6 17.4 0 22.4-1.2 27.3-6.3 8.5-9 8.2-6.9 8.6-56l.3-42.7 7.3-7.3c7.7-7.5 9.9-9.4 12.9-10.3.9-.4 1.7-1 1.7-1.5s1.4-1.6 3.2-2.5c1.8-.9 3.8-2.2 4.5-3 .7-.7 2.9-1.8 4.8-2.5s3.5-1.6 3.5-2.1c0-.4 2.5-1.5 5.5-2.3 3-.9 5.5-2 5.5-2.4 0-.4 3.5-1.6 7.7-2.6 4.3-1 8.5-2.2 9.3-2.6 4.6-2.7 35.3-3.7 51.8-1.8zM227.7 670.6c2.9 1.5 5.3 3 5.3 3.5s.5.9 1.2.9c1.6 0 9.8 7 16.4 13.9 5.7 6 10 11.8 12.4 16.6.8 1.6 1.8 3.2 2.1 3.5.3.3 1.4 3 2.5 6 1 3 2.2 5.7 2.6 6 1.6 1.3 3.8 19.1 3.8 31.5 0 12.5-2.1 28.2-4 29.5-.4.3-1.5 2.6-2.5 5.2-.9 2.6-2.3 4.9-3.1 5.2-.8.3-1.4 1.1-1.4 1.8 0 1.5-11.5 12.8-12.9 12.8-.5 0-1.6.6-2.3 1.3-1.7 1.7-9.3 4.7-11.7 4.7-1.1 0-2.1.4-2.3 1-.1.5-3.1 1.3-6.5 1.6l-6.3.7v-74.2c0-40.7.3-74.1.7-74.1.3 0 3 1.2 6 2.6z"/></g><path d="M655.5 496c0 24.5.1 34.5.2 22.2.2-12.2.2-32.2 0-44.5-.1-12.2-.2-2.2-.2 22.3z" fill="#B27F33" stroke="#B27F33" stroke-width="3"/><path d="M216.4 379c0 10.2.2 14.3.3 9.2.2-5 .2-13.4 0-18.5-.1-5-.3-.9-.3 9.3zm.1 172.5c0 59.9.1 84.6.2 54.8.2-29.8.2-78.8 0-109-.1-30.1-.2-5.8-.2 54.2zm199.3 189.2c12.8.2 33.5.2 46 0 12.5-.1 2-.2-23.3-.2s-35.5.1-22.7.2zM216.5 865c0 23.9.1 33.7.2 21.7.2-11.9.2-31.5 0-43.5-.1-11.9-.2-2.1-.2 21.8z" stroke-width="3" fill="#CC7F4C" stroke="#CC7F4C"/><path d="m307 161-9.5.6 9.2.2c5.3.1 9.4-.2 9.8-.8.3-.6.5-.9.3-.8-.2.1-4.6.5-9.8.8zm150.4 118c0 5.2.1 7.4.3 4.7.2-2.6.2-6.8 0-9.5-.2-2.6-.3-.4-.3 4.8zm87.4 38.7c8.9.2 23.5.2 32.5 0 8.9-.1 1.6-.3-16.3-.3-17.9 0-25.2.2-16.2.3zm55 119c2.3.2 6.1.2 8.5 0 2.3-.2.4-.4-4.3-.4s-6.6.2-4.2.4zm-183 299c12.3.2 32.1.2 44 0 11.9-.1 1.9-.2-22.3-.2s-34 .1-21.7.2z" stroke-width="3" fill="#CC6619" stroke="#CC6619"/><path d="M372.3 206c0 4.7.2 6.6.4 4.2.2-2.3.2-6.1 0-8.5-.2-2.3-.4-.4-.4 4.3z" fill="#CC7F19" stroke="#CC7F19" stroke-width="3"/><path d="M288 149.6c-4.3.9-13.3 4.4-18 7.1-4.7 2.7-16.3 11.9-16.8 13.4-.2.5 2.1 0 5.1-1 3-1.1 8.1-2.4 11.3-3.1 3.3-.6 8.8-1.8 12.3-2.6 3.5-.9 12.7-1.9 20.4-2.2l14-.7-2.8-3.3c-1.5-1.8-4.5-4.2-6.7-5.3-3.9-2-14-3.2-18.8-2.3zm94.9 28.7c-1.9 1.3-4.6 4.7-6.3 8-2.7 5.3-3 6.8-3.7 21.9-1.7 33.6-5.7 57.1-17.3 100.8-7.6 28.7-8.6 34-8.6 43.4 0 12.3 4.5 17.5 16.8 19.5 23.9 4 59.9-16.4 78.2-44.6 21.9-33.4 19.6-71.2-6.6-110.3-11.3-16.8-28.3-34.2-37.9-38.6-6.3-3-10.3-3-14.6-.1zm-94.1 240.4c3.9.2 10.5.2 14.5 0 3.9-.1.7-.3-7.3-.3s-11.2.2-7.2.3zm118 172c8.4.2 21.9.2 30 0 8.1-.1 1.2-.3-15.3-.3s-23.1.2-14.7.3zM270 926l-16.5.6 16.2.2c9.9.1 16.4-.2 16.8-.8.3-.6.5-.9.3-.8-.2.1-7.7.5-16.8.8zm23.9.3c.4.4 6.4.6 13.2.5l12.4-.3-13.2-.5c-7.3-.3-12.9-.1-12.4.3zm263.6-.3-16 .6 15.7.2c9.6.1 15.9-.2 16.3-.8.3-.6.5-.9.3-.8-.2.1-7.5.5-16.3.8zm32.3.7c4.6.2 11.8.2 16 0 4.2-.1.5-.3-8.3-.3s-12.3.2-7.7.3z" stroke-width="3" fill="#E57F33" stroke="#E57F33"/><path d="M509.5 406.5c0 37.9.1 53.3.2 34.2.2-19.2.2-50.2 0-69-.1-18.8-.2-3.2-.2 34.8zm145-13.5c0 28.3.1 39.9.2 25.7.2-14.1.2-37.3 0-51.5-.1-14.1-.2-2.5-.2 25.8zm-433.1-30.7c-.2.7-.3 9.1-.1 18.7l.3 17.5.2-18.2c.1-13.4.5-18.3 1.5-18.6.9-.4.9-.6-.1-.6-.7-.1-1.5.5-1.8 1.2zm145 32.7c0 9.1.2 12.8.3 8.2.2-4.5.2-11.9 0-16.5-.1-4.5-.3-.8-.3 8.3zM221.5 554.5c0 59.4.1 83.6.2 53.7.2-29.9.2-78.5 0-108-.1-29.5-.2-5.1-.2 54.3zm145-43.5c0 30 .1 42.2.2 27.2.2-14.9.2-39.5 0-54.5-.1-14.9-.2-2.7-.2 27.3zm288 200.5c0 90.7.1 127.7.2 82.2.2-45.6.2-119.8 0-165-.1-45.2-.2-8-.2 82.8zm-288 108c0 32.4.1 45.6.2 29.2.2-16.4.2-43 0-59-.1-16.1-.2-2.7-.2 29.8zm143 15c0 40.1.1 56.4.2 36.2.2-20.3.2-53.1 0-73-.1-19.9-.2-3.4-.2 36.8zm-288 30.5c0 23.9.1 33.7.2 21.7.2-11.9.2-31.5 0-43.5-.1-11.9-.2-2.1-.2 21.8z" stroke-width="3" fill="#CC7F33" stroke="#CC7F33"/><path d="M142.6 159.9c-.3.4-1.9 1.1-3.5 1.4-3.9.8-9.6 6.6-12.6 12.9-4.9 10.2-7 30-4 37.5 1.7 4.2 7.1 8.3 10.9 8.3 2.5 0 10.9-4.3 13.7-7.1.9-.9 2.1-1.8 2.6-2 2.1-.9 13.5-15.6 15.8-20.5 2.9-6.1 3.4-14.8 1-19.3-2.1-4.1-6.9-7.9-11.8-9.2-2.3-.6-5-1.5-5.9-2-2.2-1.1-5.5-1.2-6.2 0zm37.1 49.8c-1.5 1.5-.6 5.2 1.4 5.8 2.8.9 5.3-1.6 4.4-4.4-.6-2-4.3-2.9-5.8-1.4zm118 6.7c.4 2.9.1 3.7-2.2 5.2-2.5 1.6-3 1.6-5.4.3-2-1.2-2.6-2.3-2.6-4.8v-3.3l-2.2 2.7c-3.2 3.7-3.1 9.8.1 13 5.3 5.3 13.9 4.4 16.9-1.7 2.1-4.3 1.7-8.3-1.4-12.3-2.8-3.4-3.9-3.1-3.2.9zm-144.5 20.8c-1.7 1.7-1.5 3.6.6 4.7 2.5 1.3 4.4-.1 4-3-.3-2.7-2.7-3.6-4.6-1.7zm36.5 6c-2.3 1.2-2.2 4.5.2 5.7 1.4.8 2.2.6 3.5-.8 2.8-3.1-.1-7-3.7-4.9z" stroke-width="3" fill="#331900" stroke="#331900"/><path d="M658.4 296c0 8 .2 11.2.3 7.2.2-3.9.2-10.5 0-14.5-.1-3.9-.3-.7-.3 7.3zM510.2 404.2c-.1 38.4 0 69.8.2 69.8s1-.8 1.7-1.7c.9-1.1 1-1.4.2-.9-1 .6-1.3-13.6-1.6-68.1l-.2-68.8-.3 69.7zm.3 431.3c0 40.7.1 57.2.2 36.7.2-20.6.2-53.9 0-74-.1-20.2-.2-3.4-.2 37.3z" stroke-width="3" fill="#E59933" stroke="#E59933"/><path d="M168.2 189.9c-3.7 10.7-21.4 28.4-31.7 31.8-2.8.9-3 1.2-5.2 13.9-1.2 7.1-2.3 16.7-2.3 21.4 0 9.1 4.1 31.6 6.4 35.4.8 1.1 1.9 3.7 2.5 5.7 1.6 5.1 3.3 6.2 13.6 9.5 12.7 4 22.1 4 28.8-.2 3.8-2.3 5.4-4.2 7.6-8.9 1.6-3.3 3.2-6.8 3.5-7.8 1.4-4.3 6.6-2.6 6.6 2.2 0 3.7-5.2 14.1-8.6 17.3-6.3 5.8-11 7.3-22.4 7.2-6.8 0-12-.6-14.8-1.6l-4.2-1.6 3.2 3.7c13.1 14.7 34 26.5 59.3 33.6 4.4 1.2 8.7 2.5 9.5 2.8 2.4 1 25.6 4.7 36.5 5.9 10.5 1 12.7 2.2 11.8 5.8-.4 1.7-1.4 2-5.5 2-6.6 0-23.5-1.9-26.3-3-1.3-.5-5.1-1.2-8.4-1.6l-6.1-.7v17.7c0 15.8.2 17.8 1.8 19.3 8 7.5 20.6 12.7 39.2 16 16.2 2.9 73.5 1.7 83-1.7 1.4-.5 6.4-1.4 11.3-2l8.7-1.2v-31.5l-5.2-.7c-9.1-1.2-17.3-7.5-19.8-15-1.6-4.9-.8-24.6 1.4-32.6.8-3 2.4-9.3 3.6-14 1.1-4.7 2.4-9.4 2.9-10.5 1.1-2.3 3.1-10.7 3.1-12.8 0-1.1-2.4-1.6-10.2-2.1-5.7-.4-11.6-1.1-13.3-1.6-1.6-.4-7-1.6-12-2.5-4.9-.9-9.4-2-10-2.4-.5-.5-2.3-1.1-4-1.5-3.3-.8-14.6-6-18.5-8.6-8.6-5.7-12.7-8.5-14.1-9.9-.8-.9-3.1-3-5-4.6-9.5-8.3-19.8-22.8-26.1-36.5-2.2-4.7-4.4-9.4-4.9-10.5-1-2.1-4.4-13.8-6.2-21.8l-1.1-4.9-5.1.7c-2.7.4-7.7 1.1-11 1.6-13.6 2-19 2.1-28.8.5-5.4-1-10.4-1.9-11.2-2.2-.7-.3-1.7.7-2.3 2.5zm18.2 18.7c2.2 2.1 2 5-.4 7.4-2.4 2.4-4.7 2.5-7.2.3-2-1.8-2.4-6.3-.6-8.1 1.7-1.7 6.4-1.5 8.2.4zm-27.7 26.8c2.4 2.1 2.6 2.7 1.8 5.2-1.9 5.3-10.5 4.2-10.5-1.2 0-2.1 3.4-6.4 5.1-6.4.4 0 2 1.1 3.6 2.4zm37.1 6.8c1.8 1.8 1.4 5.2-.8 7.6-2.5 2.6-3.8 2.7-6.8.6-2.4-1.7-3-6.2-1-8.2.7-.7 2.6-1.2 4.3-1.2 1.7 0 3.6.5 4.3 1.2zm441.5 0c-3.1 4.9-3.3 5.7-9.2 29.8-5.5 22.3-12.5 35.5-22.7 42.7l-3.9 2.8-38 .5-38 .6-5 3c-3.6 2.1-5.6 4.3-7.3 7.5l-2.2 4.5.2 69.4.3 69.5 4.5-4.4c10.9-10.5 32.6-22.5 49.5-27.3 12.8-3.5 13.9-3.8 25.5-4.8 12.1-1.1 36 .1 43 2.1 1.9.6 6.4 1.7 9.9 2.4 3.5.8 7.2 1.7 8.2 2 1.8.6 1.9-1.1 1.9-50.2.1-39.7.4-53.1 1.6-61.3 2.3-16.7 2.9-46.5 1.1-58.5-1.9-12-5.8-21.4-11.4-27.3-4.1-4.3-6.5-5.2-8-3zM222 554.9v106.8l5.9 3.2c12.2 6.5 25.5 17.9 33.8 29.1 4.7 6.2 12.3 20.6 12.3 23.2 0 .9.4 1.9.9 2.3 1.3.7 3.1 9.8 4.5 22.4.9 8 .9 12.8 0 21-1.6 13.7-1.9 15.1-6.5 24.8-4.5 9.5-12.2 18.4-20.9 24.1-5.8 3.7-18.9 8.6-26.2 9.7l-3.8.6v40.8c0 23.2.4 43.1 1 46.1 1.1 5.9 4.6 11.2 9.3 14 3 1.9 12.3 3.7 13.4 2.6.3-.3-.2-2.8-1.1-5.5-3.3-10.1-.9-21.3 6.1-29.1 4.9-5.5 11.6-8.9 14.1-7.3 2.7 1.7 2 4.6-1.8 7-5.8 3.8-9.8 8.4-11.1 13-1.3 4.7-.7 13.6 1.2 19.1l1.1 3.2H286l-.6-2.8c-.4-1.5-1.1-3.5-1.5-4.4-1.2-2.2-1.2-15.1 0-16.3.5-.6 1.4-2.7 2-4.7 1.5-4.5 10.8-13.4 15.1-14.3 3.3-.7 6 .7 6 3.1 0 .8-1.9 2.6-4.2 4.1-2.4 1.5-5.3 3.7-6.5 4.9-5.3 4.9-6.7 15.2-3.7 25.3l1.6 5.4 16.6-.5c16-.5 17-.6 24-3.6 4-1.7 8.9-4.4 10.9-5.9 7.6-5.7 14.4-14.9 16.4-22.2.6-2.5 1.7-5.2 2.3-6 .8-1 1.3-22 1.6-68l.5-66.6 2.8-4.8c3.7-6.1 9.7-11.2 15-12.6 3-.9 18.9-1.1 56.2-.9l52 .3 4.5 2.7c2.5 1.5 5.8 4.4 7.5 6.5 5.8 7.3 5.9 8.5 6.5 92.3.4 61.1.8 77 1.8 78.8 2.5 4.3 7.6 8.1 12.5 9.2 7.6 1.6 7.7 1.6 6.5-2.8-1.7-5.6-1.4-19.1.4-23.2 3.6-8.1 15.5-17.9 19.2-15.8 3.1 1.8 1.9 5.4-2.8 8.2-2.4 1.4-5.8 4.7-7.5 7.3-2.8 4.1-3.1 5.4-3.1 12 0 4.7.6 8.7 1.7 11.3l1.8 4h31.2l-1.4-5.3c-2.2-8-1.2-18.5 2.4-24.6 4.4-7.6 14.3-14.8 17.6-12.9 3.2 1.8 2 5.4-2.6 8.2-9 5.2-12.4 13-10.6 24.4 1.6 10.6.9 10.2 19.4 10.2 8.8 0 18.6-.4 21.8-1 16.9-2.7 28-14.8 32.4-35.1 1.7-7.9 1.8-18.6 2.1-175.3l.3-166.9-7.8.6c-14.3 1.2-26.2 6.5-35.3 15.6-4.7 4.7-12.3 16.6-14.2 22.4-.6 1.8-1.4 3.6-1.8 4.2-.4.5-2.6 6.6-4.9 13.5-2.4 6.9-4.6 12.9-5 13.5-.5.5-1.4 2.8-2.1 5-3.6 11.3-12.9 24.3-21.5 29.9-10.2 6.9-17.1 8.8-32.5 9.3-34.5 1.2-57.4-8.3-70.8-29.1-1.8-2.7-3.2-5.6-3.2-6.3 0-.8-.6-2.4-1.4-3.6-2.1-3.1-4-18.8-3.2-25.8l.7-5.9h-30.4c-27.9 0-30.8-.2-36.3-2-6.9-2.4-11.1-5.9-15-12.6l-2.9-4.9-.3-57.1-.3-57-7.7 1.3c-19.6 3.6-28.3 4.3-54.2 4.9-22.4.5-29.8.3-39.9-1-6.9-.9-13-2-13.5-2.5-.6-.4-3.3-1.4-6-2-5.6-1.4-19.1-7.5-20.1-9-.3-.6-1-1.1-1.6-1.1-.5 0-.9 40.8-.9 106.9z" stroke-width="3" fill="#E5994C" stroke="#E5994C"/><path d="M215.8 400.9c-1.4 2.2-3.2 5.7-3.8 7.8-.7 2.1-1.6 4.2-2.1 4.7-1.8 1.9-1 13 1.2 17.6 2.5 5.2 9 14 10.3 14 .5 0 2.3 1.1 4 2.4 7.3 5.5 25.6 11.8 40.6 13.8 20.4 2.7 63 1 88-3.6 4.1-.8 9.7-1.7 12.3-2.1 3.2-.4 5-1.2 5.4-2.3.4-.9 1.6-3 2.7-4.5 1.8-2.5 2.1-4.3 2.1-14 0-10.2-.3-11.7-2.8-17-1.6-3.1-3.4-5.7-4-5.7-.7.1-5.2.8-10.2 1.6-20.6 3.5-27.7 4.3-45.9 5.4-34.1 2.1-60.1-1.1-78.1-9.5-6.8-3.2-12.1-6.8-15-10.3l-2-2.4-2.7 4.1zm6.3 5.9C242.8 422.5 285 428 336 421.5c11.3-1.4 22.1-3 24-3.6 6.7-1.7 8.5-1.2 10.4 2.8 2.3 5.3 3.6 13.4 2.9 17.9-.6 4.2-3.6 10.9-5.3 11.9-2.5 1.6-39.9 6.6-56.3 7.7-61.3 3.8-102.7-13.8-97.6-41.6 1.1-6.2 3.3-11.6 4.8-11.6.5 0 1.9.8 3.2 1.8z" fill="#C00" stroke="#C00" stroke-width="3"/><path d="M284.8 424.7c2.9.2 7.4.2 10 0 2.6-.2.2-.3-5.3-.3s-7.6.1-4.7.3zm4.5 34c3.1.2 8.3.2 11.5 0 3.1-.2.5-.3-5.8-.3s-8.9.1-5.7.3z" stroke-width="3" fill="#E50000" stroke="#E50000"/><path d="M216.9 409.2c-3.3 6.5-3.7 15.5-.9 21.2 10.2 21.1 54.1 31.7 108.6 26.1 18-1.9 39-5.2 42.4-6.8 5.6-2.6 7.1-14.6 3.5-26.5-1.9-6.3-1.1-6.2-22-2.8-54.4 8.9-102 4.4-124.7-11.9L219 405l-2.1 4.2z" fill="red" stroke="red" stroke-width="3"/><path d="M405.3 1122.7c5.4.2 13.9.2 19 0 5.1-.1.7-.3-9.8-.3-10.4 0-14.6.2-9.2.3z" fill="#B2CCE5" stroke="#B2CCE5" stroke-width="3"/><path d="M248.4 1125.5c0 4.9.1 7.1.3 4.8.2-2.3.2-6.4 0-9-.2-2.6-.3-.8-.3 4.2zm198.9 16.5c0 4.7.2 6.6.4 4.2.2-2.3.2-6.1 0-8.5-.2-2.3-.4-.4-.4 4.3z" stroke-width="3" fill="#6699B2" stroke="#6699B2"/><path d="M383.1 1093.9c-.6 1-1.3 16.8-1.7 36.7l-.7 34.9 2.2 1.9c1.7 1.6 2.7 1.8 4.9 1 4.2-1.5 5.2-4.7 5.2-17.6 0-6.4.3-12.3.6-13.2.5-1.4 3.3-1.6 20.5-1.6H434v14.6c0 13.9.1 14.7 2.3 16.5 3 2.5 5.3 2.4 8.1-.4 2.2-2.3 2.3-2.6 2.9-36.6.5-22.7.3-34.9-.3-36.2-1.5-2.7-8.5-2.7-10 0-.5 1.1-1 6.7-1 12.4 0 5.8-.3 11.9-.6 13.6l-.6 3.1h-40.9l.7-13c.6-11.1.5-13.3-1-15.5-2.1-3.2-8.9-3.6-10.5-.6zm-143 10.5c-.6.7-1.4 6.4-1.8 12.5-.6 10.8-.7 11.2-2.7 10.6-1.2-.4-4.6-.9-7.6-1.2-6.7-.6-12.7 2.2-17.4 8-2.6 3.3-3 4.6-3.4 12-.4 7.8-.2 8.4 2.7 12.8 2.3 3.4 4.5 5.2 8.1 6.8 5.7 2.5 9.2 2.6 14.8.7 3.5-1.3 4.3-1.2 6.1.1 2.5 1.7 6.6 1.1 7.4-1 .3-.8.8-14.5 1.2-30.5.8-31.2.7-32.2-4-32.2-1.2 0-2.8.6-3.4 1.4zm-5.5 31.7 3.4 2.1v8.1c0 4.5-.4 8.6-.8 9.2-1.4 1.9-7 4.5-9.9 4.5-3.8 0-9.1-3.4-10.4-6.8-.6-1.5-.9-5.1-.6-8.1.3-4.6.9-5.9 3.6-8.3 3.9-3.5 9.8-3.8 14.7-.7zm341.1-31.3c-1.2 1.3-1.7 4.3-1.9 12.2-.3 9.9-.4 10.5-2.3 10.1-1.1-.2-5.2-.4-9.1-.5-6.2-.1-7.6.2-11 2.6-5.8 4.1-8.5 8.7-9.1 15.6-.9 10.3 3.1 17.7 11.5 21.3 5.2 2.3 9.5 2.4 14.9.5 3.3-1.2 4.2-1.2 5.8 0 2.4 1.7 3.6 1.8 5.9.1 1.7-1.2 1.9-4 2.6-30.8.5-17.9.4-30.1-.1-31.2-1.2-2.2-5.1-2.2-7.2.1zm-5.9 31.2 3.2 2v17.8l-3.6 2.1c-5.2 3.1-9.3 2.7-14-1.3-3.7-3.2-3.9-3.7-3.9-9.3 0-4.6.5-6.5 2.3-8.8 1.3-1.7 3.1-3.3 4-3.7 3.3-1.3 8.7-.8 12 1.2zM305 1125c-1.2.7-1.5 4.7-1.8 21.4l-.4 20.5 2.5.6c1.4.4 3.5.2 4.6-.5 1.9-.9 2.1-2 2.1-9.3 0-14.2.8-18.2 4.1-20.1 3.8-2.3 9.9-2.3 13.4 0 2.7 1.8 2.8 1.8 4.7-.6 2.5-3.1 2-5.8-1.5-8.4-2.4-1.7-4.3-2.1-11.2-2.1-5.4 0-8.8-.4-9.6-1.3-1.5-1.4-4.8-1.6-6.9-.2zm197.3-.2c-1.4.9-3.3 19.4-3.3 32.4 0 6.8.3 7.9 2.2 9.2 1.9 1.3 2.5 1.4 4.3.2 1.7-1.1 2.1-3 3-13.3 1.1-12.6 1.7-14.3 6.6-16.9 3.8-1.9 7.2-1.8 10 .5 2.3 1.8 2.4 2.3 2.1 14.5-.2 7.6.2 13.4.8 14.6 1.2 2.3 5.2 2.7 6.8.7 1.3-1.6 1.9-28 .7-31.7-2.2-6.7-11.5-10.4-20.4-8-3.7 1-4.5.9-6.8-1-2.8-2.2-4.1-2.4-6-1.2zm-43 1.3c-2.2.8-2.3 1.2-2.3 15.6 0 16.5 1.1 20.7 6.2 23.1 3.3 1.6 10 2 15 .9 3.2-.7 3.7-.5 4.3 1.3.5 1.5 1.5 2 4 2 1.9 0 3.6-.3 3.8-.8.3-.4.8-9.8 1.2-20.8.8-19.8.7-20.2-1.3-21.3-1.4-.7-2.9-.8-4.5-.2-2.4.9-2.5 1.3-2.8 13.5-.4 11.5-.6 12.6-2.8 15-1.9 2-3.4 2.6-6.5 2.6-6.9 0-7-.3-7.6-16.1-.5-13-.7-14.2-2.5-14.9-1.1-.4-3-.4-4.2.1zm-193.8 1.7c-5 3.2-7.2 6.4-9.5 13.4-2.1 6.6-2.1 6.8-.4 12.3 3.6 11.4 14.3 16.6 27.3 13.2 10-2.7 14.6-8.1 10.2-12.1-1.7-1.6-2-1.6-4.7.7-4.4 3.6-6.9 4.7-11.2 4.7-6.2 0-14.2-4.5-14.2-8 0-1.3 1.2-1.9 5.3-2.4 13.7-1.7 22.8-3.9 23.9-5.9 1.9-3.6.3-9.7-3.6-13.6-3.5-3.5-3.9-3.6-11.9-3.9-6.7-.2-8.7 0-11.2 1.6zm15.5 6.6c1.4.6 2.5 2 2.5 3.1 0 1.8-1.1 2.1-9 3.1-4.9.6-9.2 1-9.4.8-.2-.2 0-1.5.3-2.9.5-1.8 2-3.2 4.9-4.5 4.2-1.9 5.9-1.9 10.7.4z" stroke-width="3" fill="#337F99" stroke="#337F99"/><path d="M583.4 1135c0 6.3.1 8.9.3 5.7.2-3.1.2-8.3 0-11.5-.2-3.1-.3-.5-.3 5.8zm-178.6 1.7c5.7.2 14.7.2 20 0 5.3-.1.7-.3-10.3-.3s-15.4.2-9.7.3zm51.5 7.3c0 4.7.2 6.6.4 4.2.2-2.3.2-6.1 0-8.5-.2-2.3-.4-.4-.4 4.3z" stroke-width="3" fill="#4C7FB2" stroke="#4C7FB2"/><path d="M466.3 1136c0 4.7.2 6.6.4 4.2.2-2.3.2-6.1 0-8.5-.2-2.3-.4-.4-.4 4.3zm-11 8c0 4.7.2 6.6.4 4.2.2-2.3.2-6.1 0-8.5-.2-2.3-.4-.4-.4 4.3zm-51-6.3c5.3.2 14.1.2 19.5 0 5.3-.1.9-.3-9.8-.3-10.7 0-15.1.2-9.7.3z" stroke-width="3" fill="#99B2CC" stroke="#99B2CC"/></svg>