<svg version="1.0" xmlns="http://www.w3.org/2000/svg" viewBox="0 0 783 1257"><g fill="#FFF" stroke="#FFF" stroke-width="3"><path d="M0 628.5V1257h783V0H0v628.5zm484-525.7c0 .4-2.1 2.8-4.6 5.2-5.3 5.2-9.9 12-13.8 20.5-4.9 10.7-8.2 29.6-7.2 41.1.6 6.5 4 26.1 5.1 29.1.2.7 3.8-2.1 8.2-6.4 29.2-28.4 63.6-41.2 97.3-36.3 8.3 1.2 25.4 6.6 27 8.5 1 1.3.6 1.8-2.6 3.1-12.9 5.1-28.6 15-38.3 23.9-9.9 9.2-16.9 21-17.8 30.1-.7 6.3-1 6.2 9.7 3.3 4.9-1.3 12.2-2.2 21-2.6 12.4-.5 14.4-.3 23.7 2.1 11.7 3 18.4 6.1 26.9 12.5 6.6 4.9 17.6 17 17.1 18.6-.2.5-2.1 1.3-4.3 1.8-5.4 1.2-23.2 6.6-26.9 8.2-1.6.7-4.7 1.8-6.9 2.5-5 1.6-21.3 10-27.1 14-6.6 4.6-11.5 9.9-14.1 15.5-1.3 2.7-2.4 5.5-2.4 6.1 0 .6 2.8 1.7 6.3 2.3 30.2 5.9 56.5 27.5 61.5 50.6 4.3 20.1 4.1 21.1-3 17.7-2.4-1.2-5.6-2.4-7.3-2.8-1.6-.4-3.5-1.1-4.1-1.5-2.5-2-21.1-3.2-30.6-2-5.1.7-9.7 1.6-10.3 2-.5.5-2.2 1.1-3.6 1.4-1.4.4-4.3 1.4-6.4 2.3l-3.9 1.6 2.5 1.9c1.3 1.1 3.8 2.6 5.4 3.4 11.1 5.5 29.9 23.4 37.3 35.5 3.5 5.7 9 17.3 9.8 20.5.4 1.6 1 3.5 1.5 4 3 3.9 5.1 28.7 3.8 45-.6 6.5-1.2 12.2-1.6 12.5-.3.3-1.9-1.3-3.7-3.4-17.7-22-39.5-35.9-58.3-37.3-9.4-.7-8.8-1.5-7.3 9.2 1.9 13 7.4 27.7 14.8 39.3 6.6 10.5 20.1 21.6 30.2 25 2.5.8 5 1.8 5.5 2.3.6.4 2.7 1 4.8 1.4 2 .4 3.7 1.1 3.7 1.7 0 1.4-7.8 11.7-13.4 17.7-6 6.3-13.7 11.6-22.6 15.6-5.7 2.5-7.8 2.9-16.1 2.9l-9.6.1 6 4c14.5 9.7 34.1 28 40.4 37.7 1.5 2.4 3 4.5 3.3 4.8 1.7 1.5 7 12.5 9.5 19.5s2.8 9.5 2.9 20.2c.1 9.8-.2 12.5-1.5 13.8-1.4 1.4-1.9 1.3-5.5-1.3-22.1-15.9-47.7-19.8-61.3-9.3l-2.4 1.8 6.4 4.3c13.7 9.3 29.7 27.8 35.9 41.5 4.5 10.1 8.1 23.1 9.1 33.3.6 5.7.8 10.6.5 10.9-.3.3-3.3-1-6.8-3-3.5-1.9-8.1-4-10.3-4.7-2.2-.7-4.6-1.8-5.4-2.4-.8-.6-5.4-1-11-1-8.9 0-10 .3-15.3 3.3-3.2 1.8-6.1 3.9-6.6 4.7-1.4 2.5.7 17.5 3.4 24.9 6.8 17.9 20.6 35.8 37.8 49 3.6 2.7 6.5 5.3 6.5 5.7.1 1-10.6 9-16.4 12.2-12.2 6.8-19.2 8.8-32.1 9.4-13.2.5-19.3-.5-27.9-4.4l-5-2.4-1.6 8.3c-2.9 14.6-10.8 45.2-12.4 47.7-.4.6 1.1 3.2 3.3 5.8 2.2 2.6 4.9 6.7 6.1 9.1 3 5.8 5.4 17.5 4.6 22.5-1.2 8.2-1.7 9.5-4.2 12-4.8 4.8-12.8 3-21.3-5-2.7-2.6-5-4.2-5-3.7 0 .6-1.3 2.9-2.8 5.2-6.5 9.6-15 9.3-25.7-.9l-4-3.9-3.8 3.9c-7.1 7.3-14.2 6.3-21.6-3-3.8-4.8-5.5-8.9-6.3-15-.3-2.3-.8-2.5-5.4-2.8l-5.2-.3-.6 4.4c-.9 5.7-3.8 11.2-8.9 16.4-6.6 6.9-11.9 6.9-19.2.2l-4.2-3.8-3.9 4c-4.7 4.9-10.2 7.9-14.5 7.9-3.9 0-9.3-3.9-11.5-8.3-.9-1.8-1.8-3.4-2-3.6-.2-.2-2.6 1.5-5.4 3.8-13.9 11.7-23.4 8.9-25.6-7.8-.5-3.7 0-6.9 2.1-13.7 1.5-4.9 3.3-9.6 4.1-10.5.8-.8 1.4-2.1 1.4-2.7 0-.7 2.7-3.9 6-7.2l6-6-2.4-6.3c-3.5-8.7-7.2-21.8-9.2-32.4-.9-5-1.9-9.5-2.3-10.2-1.1-1.7-10.4-4-19.1-4.7-14.5-1.1-30.5 4-43.8 14.1-4.3 3.2-6.7 4.4-7.3 3.8-.6-.6-1.6-5.8-2.2-11.7-2.6-25.6 4-45.8 22-67.7 3.4-4.2 8.8-9.8 11.9-12.5l5.6-4.9h-10.4c-8.6-.1-11.7-.5-18.3-2.8-9.9-3.4-21-9.4-31.5-17.1-9-6.6-24.8-21.1-23.9-22 .3-.3 2.1-.1 4 .5 5.2 1.6 19.9 1.2 25.5-.7 15.8-5.2 32.3-18.1 48-37.4 3.3-4.1 6.8-8.7 7.8-10.1l1.7-2.7-9.3-8.1c-11.3-10-20.7-16.3-30.1-20.3-6.2-2.6-8-3-14.6-2.6-6.4.2-8.1.7-11.2 3.1-5.4 4.1-6.3 3.7-5.5-2.8 1.4-12.5 6.4-26 12.8-35 3.9-5.4 15.8-17.4 18-18.1 1-.3 1.8-.9 1.8-1.4 0-.9 8.6-6 17.3-10.2 3.1-1.5 5.7-3.1 5.7-3.6 0-1.5-10.6-13.6-15.1-17.3-6.8-5.5-16.4-9.7-25.2-11.1-7.5-1.1-12.9-.8-27.6 1.9l-3.3.6.7-4.2c1.9-11.6 7.8-21.7 18.9-32.6 9.4-9.2 20.7-17.1 35.4-24.5 5.6-2.9 10.2-5.6 10.2-6 0-1-6.6-6.1-12.5-9.6-2.7-1.7-8.4-4.1-12.5-5.5-14.6-4.7-36.9-2.6-51.8 5-5.5 2.8-6.6 2.7-5.8-.7 3.4-13.9 26.4-41.4 49.4-58.7 5-3.8 9.2-7.2 9.2-7.6 0-1.6-3.3-8.3-6.5-13.4-6.5-10.1-16.7-19.9-30.4-29.3-5.1-3.5-22-12.1-26.4-13.4-7.5-2.3-7-3.5 6.8-14.8 14.5-11.9 32.1-22.1 50.3-29.1 9.4-3.6 9.4-3.7 6-13.3-6.3-17.7-27.2-36.8-55.8-51.2-4.9-2.4-9-4.9-9-5.5 0-1.1 5.2-5.8 10.8-9.8 6.6-4.7 12.5-7.8 20.7-10.6 6.9-2.4 10-2.9 22-3.3 19.8-.6 31.4 1.5 48.5 8.8 10.4 4.4 10 4.4 10 .5 0-6.8-5.1-38.8-7.5-47.3-3.1-10.5-7.6-23.2-10.4-28.9-1.8-3.6-2.7-7.1-1.8-7.4.1 0 4.3-.4 9.2-.8 33.5-3 63.7 9.8 92.6 39.2 8 8 10.9 10.4 11.6 9.5.5-.7 2.5-4 4.3-7.3 7.4-13.3 25-33.7 37-42.8 3-2.3 5.7-4.4 6-4.7 3.3-3.3 18.6-11.9 28.5-15.9 4.4-1.9 8.7-3.7 9.5-4.1 1.4-.6 6.9-2.1 20.5-5.4 6.6-1.6 14.5-2 14.5-.8zM445.4 1090c2.5.9 5.6 5.6 5.6 8.4 0 .8-1.2 2.8-2.6 4.5-2.4 2.9-3 3.1-9.3 3.1h-6.8l-.6 15.7c-.4 8.7-.7 19.1-.7 23v7.3l5.3.1c7.9.2 10 1 12 5.1 1.6 3.3 1.7 4 .3 7.2-2.1 5.1-5.6 5.8-27.4 5.4l-18.4-.3-2.9-3.3c-5.5-6.1-2.5-12.6 6.2-13.8 2.8-.4 5.2-1.2 5.4-1.8.2-.6.6-10.9 1-22.9l.6-21.7h-4.5c-5.9 0-7.4-.7-9.1-4.1-2.6-5-1.6-9.1 3-11.7 2.5-1.4 39.2-1.6 42.9-.2zm-175.5 12.1 2.3 2.2-.7 29.6c-.6 26-.9 29.9-2.4 32.1-2 2.9-6.4 3.7-9.6 2-1.8-.9-2.8-.9-4.6 0-3.4 1.9-11.8 1.4-16.6-.9-5.2-2.6-11.1-9.4-11.9-13.8-.3-1.8-.4-6.2-.2-9.7.5-7.6 3.3-12.6 9.8-17.1 4-2.7 5.1-3 12.6-3h8.2l.7-9.4c.8-11.1 2.2-14.1 6.9-14.1 1.9 0 4.2.9 5.5 2.1zm289 .3c2.2 2.3 2.2 2.4 1.6 29.2-.3 14.8-.8 28.4-1.1 30.2-1 6.6-8 9.6-12 5.1-1.7-1.9-1.8-3.8-1.6-25.2.4-37.8 1.1-41.7 7.5-41.7 2.2 0 4.1.8 5.6 2.4zm-226.1 19.2c2.4 1.1 5.8 1.6 9.8 1.5 13-.5 20.3 6.7 14.3 14.3-2.3 2.9-5 3.4-6.9 1.1-1.6-1.9-8.9-1.9-11.4 0-1.7 1.3-2 3.1-2.4 13.8-.4 10.6-.7 12.5-2.5 14.4-2.6 2.9-7.7 3-10.2.3-1.7-1.8-1.8-3.7-1.2-22.2l.5-20.3 2.7-2.2c3.1-2.7 2.7-2.7 7.3-.7zm-25.2 2.9c10.1 4.2 12.6 19.9 3.5 22.5-3.2.9-21.2 4-23.5 4-1.9 0 2.5 3.6 5.9 4.9 4.8 1.7 9.3.8 14.4-2.9 4.7-3.5 5.8-3.6 8.3-1.3 2.2 2 2.3 7.1.2 10.2-4.6 6.5-21.1 9.3-29.7 5-9.4-4.7-12.1-9.3-12.2-20.4 0-6.9.4-8.6 2.7-12.5 1.4-2.5 3.8-5.6 5.2-6.9 5.1-4.8 17-6 25.2-2.6zm183.3 1.5c2.2 1.8 4.1 4 4.3 4.8.3 1.5-1 17.3-3 37.5-1.1 10.5-4 15.5-11.2 19.4-4.1 2.2-5.4 2.4-14.5 2.1-7.6-.3-10.7-.8-12.7-2.2-3.5-2.3-3.7-6.4-.4-10.2 2.3-2.8 2.4-2.8 8.1-1.5 3.1.7 7.2 1 9 .7 4.4-.9 8.5-4.2 8.5-7 0-2.2-.3-2.3-7.7-2.3-9.3-.1-14.1-1.8-17.4-6.4-2.1-3-2.4-4.5-2.3-11.9.2-18.9 10-27.7 29.6-26.5 4.6.2 6.4.9 9.7 3.5zm39.1-1.2c5.1 2.5 8 7.4 8 13.6 0 6.2-.7 7.4-5.1 8.7-2.9.8-20.9 3.9-23.1 3.9-2.2 0-.2 2 3.9 4 5.8 2.7 10.1 2.2 15.9-2 5-3.5 5.8-3.6 8.4-1 6.9 6.9-4.3 17-18.9 17-14 0-23.1-8.8-23.1-22.2 0-7.4 3-14.6 7.8-19.2 5.8-5.4 17.9-6.7 26.2-2.8z"/><path d="M244.3 1136c-1.2.5-2.9 2.2-3.7 3.9-4.9 9.4 3.5 20.2 12.2 15.7 3.7-1.9 4.2-3.2 4.2-11.2 0-6-.2-6.4-3-7.9-3.2-1.7-6.4-1.8-9.7-.5zm46.6.1-2.4 2 6-.6c7-.8 8.7-1.5 5.9-2.6-3.5-1.4-7.1-.9-9.5 1.2zm181.5 1c-3.8 1.1-5.8 3.3-7.3 8.1-1.9 5.8-.3 7.8 6.3 7.8 6.9 0 8.5-1.7 9.3-10.4l.6-6.6-2.9.1c-1.6 0-4.3.5-6 1zm40.5-1-2.4 2 6-.6c7-.8 8.7-1.5 5.9-2.6-3.5-1.4-7.1-.9-9.5 1.2z"/></g><g fill="#994C19" stroke="#994C19" stroke-width="3"><path d="M473 105c0 .5-.9 1-2 1-2.9 0-17.3 3-18.5 3.9-.5.4-3.5 1.5-6.5 2.6-7.9 2.7-30.3 14.6-33 17.5-.3.3-3 2.4-6 4.7-14 10.7-31.3 31.4-40.5 48.5-1.4 2.7-3.2 4.8-4 4.8-.8 0-1.5-.4-1.5-.8 0-1.2-20.8-22.2-25.5-25.7-12.2-9.3-25.9-16.8-35.5-19.6-2.5-.7-4.7-1.6-5-2-1.7-2.4-40.6-4.6-42.8-2.5-.3.4.3 2.6 1.5 4.9 3 5.8 6.9 16.2 8.7 22.7.8 3 1.8 6.6 2.4 8 .5 1.4 1.5 5.9 2.1 10 .7 4.1 1.6 8.8 2.1 10.5 1.5 4.9 3.3 30.6 2.3 31.6-.6.6-2.1.4-3.9-.5-7.5-3.9-13.3-6.4-17.9-7.5-2.7-.7-5.4-1.6-6-2.1-1.8-1.5-16.8-3.3-27.5-3.3-10.2 0-23.4 1.7-25.5 3.4-.6.4-3.3 1.5-5.9 2.4-2.7.9-5.6 2.3-6.3 3.1-.8.8-2 1.4-2.6 1.4-.7 0-2.8 1.4-4.7 3-1.9 1.7-4.2 3.2-5 3.5-1.5.5-5.5 5.4-4.8 5.9.1.1 4.2 2.2 9.1 4.5 4.8 2.4 8.7 4.7 8.7 5.1 0 .4 1.1 1 2.3 1.4 2.2.5 7.7 4.3 12 8 .9.9 2 1.6 2.5 1.6.7 0 4 2.8 11.7 9.8 5 4.5 11.5 12.5 11.5 14.1 0 .6.4 1.1.9 1.1s1.7 2.1 2.7 4.7c1 2.7 2.1 5.3 2.5 5.9.5.6 1.1 3.6 1.5 6.7.6 5.2.5 5.7-1.3 5.7-1 0-2.3.4-2.8.9-.6.5-3.5 1.7-6.5 2.6-3 1-7.1 2.6-9 3.6-1.9 1-4.6 2.3-6 2.9-1.4.6-3.4 1.6-4.5 2.3-1.1.7-4.7 2.8-8 4.6-3.3 1.9-7.6 4.6-9.5 6-7.2 5.3-22 17.5-22 18.2 0 .4 2.4 1.5 5.3 2.5 2.8.9 5.4 2 5.7 2.4.3.4 2.6 1.5 5.3 2.5 2.6 1 4.7 2.2 4.7 2.6 0 .5.5.9 1.1.9.6 0 3.1 1.3 5.6 3 2.4 1.6 4.6 3 4.8 3 1.5 0 13 9.8 18.3 15.6 8.9 9.7 8.9 9.6 10.3 12.6.7 1.6 1.6 2.8 2.1 2.8.4 0 .8.5.8 1.1 0 .5 1.2 3.5 2.6 6.5 1.4 3.1 2.4 5.6 2.3 5.8-10 6.4-22.1 16.6-33.2 28-14.8 15.3-14.7 15.2-14.7 16.3 0 .6-.7 1.6-1.6 2.4-.8.7-2.5 3.1-3.6 5.3-1.1 2.3-2.4 4.3-2.7 4.6-1.1.8-3.4 7-2.8 7.6.3.3 1.6-.1 2.9-1 1.2-.8 4.6-2 7.3-2.7 2.8-.6 5.5-1.6 6.2-2.1.6-.5 5.5-1.4 10.7-2 9.9-1.2 24.2-.1 28.3 2.1 1 .5 3.9 1.7 6.6 2.7 2.6.9 4.7 2 4.7 2.4 0 .4 1.1 1.1 2.5 1.4 1.3.3 3.6 1.7 5.1 3.1 1.5 1.4 3 2.5 3.5 2.5.4 0 1.7 1.4 2.9 3.1 2.1 2.9 2.1 3.1.4 4.3-1 .7-3.9 2.1-6.6 3.1-2.6.9-4.8 2-4.8 2.4 0 .3-1.9 1.5-4.3 2.6-2.3 1.1-4.6 2.3-5.2 2.7-2.6 2-11.8 7.8-12.3 7.8-1.6 0-20.5 19-22.7 22.7-1.1 1.8-2.2 3.3-2.6 3.3-.3 0-1.4 2.6-2.3 5.7-1 3.2-2.1 6.6-2.7 7.5-2 3.7-1.2 4.9 2.9 4.2 2-.4 4.5-1.1 5.4-1.5 3-1.6 17.5-1 25.1 1 10.1 2.8 17.5 7.1 25.4 14.9 6.8 6.7 12.3 13.8 12.3 15.9 0 .6-1.6 1.4-3.5 1.7-1.9.4-3.5 1.1-3.5 1.5 0 .5-2.1 1.6-4.6 2.6-2.6 1-5.5 2.6-6.5 3.6-1.1 1.1-2.4 1.9-3.1 1.9-.6 0-1.8.7-2.7 1.5-.9.8-4 3.5-7 6-7.9 6.8-15.8 16.6-18.1 22.5-.8 1.9-1.7 3.7-2.1 4-1 .7-3.9 11.7-3.9 14.7 0 1.2-.5 2.5-1 2.8-.5.3-1 2.3-1 4.3.1 3.6.1 3.7 1.8 1.7 3.1-3.7 7.6-4.8 16.6-4.3 4.9.3 9.6 1.2 11.2 2.2 1.6.8 4.5 2.2 6.4 3.1 1.9.8 5.2 2.6 7.2 3.8 5.5 3.4 24.6 19.5 26.4 22.2 1.8 2.7 1.2 4.1-6 13-15.1 18.8-29.9 31.4-45.5 38.8-6.2 2.9-7.3 3.1-18.8 3.2h-12.2l4.2 3.9c6.3 5.9 14.8 13 18.2 15.2 1.7 1 3.5 2.2 4 2.7 2.9 2.3 12.1 7.7 13.1 7.7.7 0 1.9.6 2.6 1.3.7.7 4.5 2.2 8.3 3.2 3.9 1 7.4 2.2 8 2.7 1.3 1.1 17.9 1 19-.1.6-.6 3-1.3 5.5-1.6l4.5-.6-6 5.2c-11.5 10.2-22.5 22-26 28-6.5 11.2-8.6 15.4-9.5 19.1-.7 2.4-1.6 4.8-2 5.3-3.3 4-3.8 38-.7 41.2.4.3 2-.5 3.5-1.8 5.8-5.4 16.7-11.1 24.4-12.9 2.9-.7 6.2-1.7 7.4-2.2 4.7-2.2 31.7 1.1 34.8 4.2.4.4 1.7 5 2.6 10.2 2.2 11.2 5.6 24.2 7.4 28.3.8 1.6 2.1 5.4 3.1 8.4l1.8 5.4-4.2 3.5c-12 9.9-18.5 30.7-13.5 43.2 3 7.3 11 6.6 20.3-2 3-2.8 6-5 6.7-5 .7 0 1.8 1.6 2.4 3.5.7 2 2.4 4.7 3.8 6 5.7 5.3 12.9 3.9 20-3.9 2.3-2.5 4.8-4.6 5.5-4.6.8 0 3.5 2 6 4.5 5.8 5.6 8.8 5.8 14.5 1.3 4.8-3.9 10.2-13.9 10.2-19v-3.5l5.4-.7c7.4-.8 8.4-.2 9.2 5.2 1.3 10 10 21.2 16.5 21.2 2.9 0 8.3-3.4 10.3-6.5.9-1.4 2.2-2.5 2.9-2.5.7 0 3.8 2.4 6.9 5.4 6.4 6.3 11.5 7.8 16.6 5.2 3.2-1.6 7.2-7.2 7.2-10s3.4-1.7 7.5 2.5c7.1 7.3 14.6 9.7 19.3 6.1 1.6-1.2 2.5-3.5 3.3-8 2-11.2-1.7-23.2-10.4-33.6l-4-4.8 2.1-6.7c5.9-19.1 8.9-30.9 11.5-45.1 1.4-7.5 2.4-9.5 4-8.1 2.6 2 14.5 6.2 20.6 7.2 6.6 1 23.3-.3 25.6-2 .5-.5 3.5-1.6 6.5-2.6s6.6-2.6 7.9-3.6c1.3-1.1 2.8-1.9 3.3-1.9 1.1 0 9.3-5.6 11.9-8.2 1.7-1.6 1.4-2-4.9-7.1-3.7-3.1-10-9.1-14-13.4-9.2-9.7-9.6-10.2-11.2-13.3-.7-1.4-1.6-2.7-2-3-1-.7-8-14.5-8-15.7 0-.6-.9-3.2-2.1-5.8-1.4-3.1-2.3-7.7-2.6-14.1l-.6-9.4 2.9-2.5c1.6-1.4 3.9-2.8 5.2-3.1 1.2-.4 2.2-1 2.2-1.4 0-.4 3-1.3 6.6-2 7.2-1.2 16-.6 20.9 1.5 1.7.7 5 2 7.5 3 2.5.9 5.2 2.2 6 2.9 2.3 2 5 2.7 5 1.3 0-3.7-2.3-19.3-3-20.2-.4-.6-1.3-3.5-2-6.5-1.5-6.2-9.5-22.1-14.3-28.3-4.9-6.4-19.7-21.3-23.1-23.3-1.7-.9-3.3-2-3.6-2.3-.3-.4-1.8-1.5-3.3-2.4-4.6-3-2.7-5.7 7.2-10.3 7.3-3.3 25-2.7 34.1 1.3 8.4 3.7 20 9.6 20 10.3 0 1 5.2 3.2 5.9 2.5 1.1-1.1.7-25.1-.5-26.6-.6-.8-1.9-4.2-2.9-7.7-1-3.4-2.1-6.2-2.5-6.2-.3 0-1.4-2-2.4-4.5-1.1-2.5-2.2-4.5-2.6-4.5-.4 0-1.1-1-1.7-2.3-2.4-5.2-18.1-22.3-26.4-28.7-1.7-1.4-4.6-3.6-6.3-5-3.1-2.6-7.5-5.7-10.6-7.5-3.7-2.2-9-6-9-6.5 0-.3 5.5-.5 12.3-.6 11.6 0 12.5-.2 18.9-3.2 13.1-6.2 23.9-15.6 30.7-26.5 2.1-3.4 1.9-4.7-.6-4.7-2.7 0-20.9-8.6-24.3-11.6-13.3-11.3-20.7-22.6-26.7-40.4-2.1-6.2-5.2-22.7-5.3-27.8 0-2.6 20.8-.5 26.7 2.7 1 .6 3.8 1.9 6.3 3 10.7 4.9 27.8 19 34.9 29 2.2 3 2.5 3.2 3.4 1.5 2.4-4.3.6-45.1-2.2-48.9-.4-.5-1.6-3.8-2.6-7.3-1-3.4-2.1-6.2-2.5-6.2-.3 0-1.1-1.5-1.8-3.4-4.3-11.8-23-32.5-37.7-41.7-2.7-1.8-6.2-4-7.7-5-1.5-1.1-3.2-1.9-3.7-1.9-1.7 0-2.3-2-1.1-3.5.6-.8 3.3-2.1 5.8-3.1 2.6-.9 6.1-2.2 7.7-2.9 8.3-3.7 36.8-3.7 45 0 1.6.7 5.1 2 7.8 2.8l4.7 1.6v-2.7c0-6.3-2.3-16-5.2-22.1-1.8-3.6-3.5-6.8-3.8-7.1-.3-.3-1.4-1.6-2.3-3-9.6-14-30.2-26-52.2-30.4-6.4-1.3-7.7-2.8-5.7-7 .5-1.1 1.6-3.6 2.2-5.4 1.4-3.6 11.1-13.8 14.1-14.7 1-.4 1.9-1 1.9-1.4 0-.4 1.9-1.6 4.3-2.7 2.3-1 4.4-2.2 4.7-2.5.3-.4 2.5-1.5 5-2.5s4.7-2.1 5-2.4c.3-.4 3-1.5 6-2.5s6-2.1 6.5-2.5c.6-.5 3.9-1.6 7.5-2.5 3.6-.9 7-2 7.5-2.5.6-.4 4.4-1.5 8.6-2.5l7.6-1.6-2.1-2.5c-11.6-13.8-25.2-22.9-38.1-25.4-3.3-.6-6.8-1.6-7.7-2.1-2.3-1.2-27.3-1.2-29.6 0-1.7.9-17.3 4.1-20.1 4.1-2.5 0-.6-12.3 3-19.8 1.8-3.6 3.8-7.2 4.6-8.1 2-2.5 14.9-15.4 16.8-17 3.7-3 11.5-8.1 12.4-8.1.5 0 1.6-.6 2.3-1.3.7-.7 5.1-3.2 9.7-5.4 9.4-4.5 9.4-4.7-.4-7.3-2.7-.8-5.2-1.7-5.5-2-.9-1.2-15.7-3-24.6-3-9.9 0-21.6 1.6-25.9 3.5-1.6.7-4.6 1.6-6.5 2-1.9.4-4.4 1.3-5.5 1.9-1.1.7-4.1 2.1-6.7 3.1-2.7 1-4.8 2.1-4.8 2.5 0 .4-1.5 1.3-3.2 2.1-1.8.7-4.4 2.1-5.8 3.1-13 9.7-17.8 13.7-24.5 20.2-4.4 4.3-8.2 7.3-8.7 6.8-.4-.4-1.5-4.2-2.4-8.3-.8-4.1-1.9-9.4-2.5-11.9-1.2-5.8-1.2-31.4 0-36 3.4-12.5 4.6-16 7.1-21.1 3.9-7.5 7.3-12.5 11.5-16.6 1.9-1.9 3.5-3.6 3.5-3.8 0-.3-1.6-.5-3.5-.5s-3.5.4-3.5 1zm-26.1 137.2c2.8.6 5.1 1.5 5.1 2 0 .4.6.8 1.3.8 4.4 0 26 19.8 35.2 32.3 2.5 3.4 5.2 7.1 6.1 8.2 3.7 4.9 8.9 13.8 13.3 23 7.1 14.6 7.8 16.5 9.2 22 .6 2.7 1.6 5.5 2 6.1 1.3 1.6 3.9 20.8 3.9 28.4 0 10.1-1.6 18.2-4.8 25.2-3.3 7.2-10.8 15.2-15.9 17-1.8.7-3.2 1.7-2.9 2.4.2.6 1.2 21.1 2 45.5.9 24.4 2.1 48.9 2.6 54.4 1.5 15.6 2.2 105.6 1 140-1.8 55.2-4.7 108.9-6 111.5-.4.8-1 6.4-1.4 12.5-.7 10-1.5 17.4-4.5 39.5-.6 4.1-1.6 11.1-2.2 15.5-.6 4.4-1.4 8.9-1.9 10-.4 1.1-1.6 6.9-2.5 13-.9 6-2 11.4-2.5 12-.4.5-1.5 5-2.4 10-1 4.9-2.1 9.4-2.6 10-.4.5-1.5 4.3-2.5 8.3-1.9 7.8-3.4 9.5-6.4 6.8-3.2-2.9-15.5-4.9-26.3-4.2-9.8.6-19.9 2.3-20.8 3.5-.3.4-2.5 1.5-5 2.6-7.4 3.2-14.3 9.8-16.1 15.2l-1.1 3.3h-14.7l-1.7-3.6c-1-2-3.9-5.8-6.6-8.4-11.7-11.6-35.3-15.8-58-10.4-2.5.6-2.8.3-3.8-3.7-.6-2.3-1.8-5.2-2.5-6.3-.7-1.2-1.9-4.8-2.6-8.1-.7-3.3-1.6-6.5-2-7-1.7-2.2-8.8-42.8-8.8-50.5-.1-2.6-.5-5-1-5.5-.5-.6-1.7-12-2.5-25.5-.9-13.5-2.1-27-2.6-30-2.2-12.8-3.3-100.5-2.1-167.3.6-35.9 1.6-67 2.1-69.2.5-2.2 1-9 1-15 .1-9.1 2.6-60.1 4.6-92l.5-8-3-1.3c-4-1.7-15.6-13.2-16.6-16.2-.4-1.3-1.3-3-2.1-3.7-.7-.7-1.8-3.9-2.4-7-.7-3.2-1.6-6.7-2.2-7.9-2.1-4.5 1.2-29.8 5.1-38.7.9-2.3 2.4-6.1 3.1-8.5.7-2.3 1.7-4.2 2.2-4.2.4 0 .8-.6.8-1.3 0-.6 2-5 4.4-9.7 10.6-20.4 9.8-19 15.6-28 4.2-6.6 3.8-6 9.8-13.5 4.1-5.1 9.4-10.2 14.9-14.5.7-.6 2.9-1.7 5-2.6 2.1-.9 4.7-2.1 5.7-2.6 3.9-2 15.7-1.2 24.1 1.7 4.4 1.5 8.2 3.1 8.5 3.5.3.4 2.8 1.5 5.5 2.4 2.8 1 5.8 2.2 6.7 2.7 2.3 1.2 9.5 1.2 10.2 0 .3-.5 2.3-1.2 4.3-1.6 3.3-.6 6.4-2.1 14.8-7.2 1.1-.7 4-2.2 6.5-3.5 2.5-1.3 4.7-2.6 5-3 1.9-2.5 13.3-3.4 20.9-1.6zm-149.4 1.7c.3.5 1.9 1.2 3.5 1.6 4.5 1 8.9 5.2 11.7 11.1l2.5 5.4-7.3 9.5c-4 5.3-7.7 9.4-8.3 9.2-.6-.2-3.8-1.2-7-2.1-11.5-3.3-17.2-10.8-16.4-21.2.8-9.2 6.2-14.2 15.5-14.3 2.8-.1 5.4.3 5.8.8zm215 1.2c7.3 4.3 9.4 13.7 5.1 22.5-2.9 5.9-7.3 9.1-15.7 11.2l-6.2 1.5-2.9-3.4c-1.5-1.9-4.5-5.3-6.6-7.7-5.5-6.5-5.8-7.4-3.2-12.4 2.8-5.5 6.2-8.7 11.9-11.5 6.1-2.8 12.9-2.9 17.6-.2zm-165 653.4c11.2 1.5 11.8 1.7 19.3 5.2 5.8 2.8 12.8 9.1 14.2 12.9.6 1.4 1 5.3 1 8.6 0 6.7-2.9 13.2-7.8 17.5-5 4.5-9.6 2.5-14.8-6.4l-2.9-5.2-5.4 6.8c-9.8 12.6-17 13.8-21.6 3.6-1.3-2.8-2.6-6.5-3-8.3-.6-2.8-2.5-4.6-2.5-2.4 0 1.3-7 8.7-12.1 12.7-5.9 4.7-10.1 4.8-12.3.3-1.7-3.3-2.2-14.3-.7-15.2.5-.3 1.2-2.3 1.6-4.3.8-4.4 4.6-11.6 8.4-15.6 4.5-4.9 10.4-8 18.1-9.8 9.4-2.2 8.6-2.1 20.5-.4zm109.9 0c8.9 1.7 15.1 4.9 19.8 10.1 8.7 9.5 12.7 23.9 9.7 34.6-.9 3.3-1.4 3.8-4 3.8-4.5 0-7.8-2.1-15.2-9.9-5.4-5.8-6.9-6.8-7.3-5.4-3.6 11.1-7.5 17.2-11.2 17.3-3.4.1-11.7-7-16.4-14.1-2.4-3.5-4.8-4.1-4.8-1.2 0 1.6-3.3 6.5-6.6 9.7-6 6.1-17.4-6.4-17.4-19.2 0-12.4 13-22.5 33-25.5 12.5-1.9 11.4-1.9 20.4-.2z"/><path d="M343 526.4c-7.7 2.9-13.8 11.2-17.5 23.9-4.6 16.1-2.8 30.7 3.9 31.5 2.2.3 3.7-.7 7.5-4.7 2.7-2.8 5.1-5.1 5.3-5.1.3 0 1.5 2 2.7 4.5 3.8 8.1 10.2 7.8 15.7-.5 1.5-2.2 3-4 3.5-4 .4 0 1.7 1.6 2.9 3.5 4.8 7.7 10.9 4.5 15.5-8 2.6-7.3 3.4-17 1.5-20.3-.5-.9-1.7-3.4-2.6-5.5-3.1-7-11.6-13.8-19.4-15.6-6.1-1.4-14.7-1.2-19 .3zm20.6 4.1c10.1 3 17.4 13.5 17.4 24.9 0 7.2-3 16.3-6.2 19.3-1.9 1.7-2.1 1.7-4.4-1.2-1.3-1.7-2.9-4.7-3.6-6.8-.6-2-1.6-3.7-2.2-3.7-.6 0-2.9 3.3-5.1 7.3-3.2 5.8-4.5 7.3-6.7 7.5-3.4.4-5.6-2.7-6.4-9-.9-6.6-2.5-7.7-5.5-3.6-1.4 1.8-3.1 4.5-3.8 6-2.4 4.6-5.9 7.4-7.9 6.2-3-1.9-3.2-20.4-.3-26.9.5-1.1 1.6-3.9 2.5-6.3.9-2.4 2.1-4.9 2.6-5.5.6-.7 1.9-2.4 3-3.8 1-1.4 3.4-3.3 5.2-4.2 4.2-2.1 14.8-2.2 21.4-.2zm70.7-4c-2.9.8-6.2 2.2-7.4 3.2-5.4 4.3-9.8 9.6-10.9 13.1-.7 2-1.6 4.1-2.1 4.6-1.1 1.3-1.2 14.9 0 16.1.4.6 1.4 3.1 2 5.6 1.4 5 6.2 10.9 9 10.9 1.9 0 7.1-4.9 7.1-6.8 0-2.6 2.8-1 5.8 3.3 5.2 7.5 10.8 8.1 14.2 1.6 3.7-6.9 3.4-6.9 8.7-1.3 6.4 6.7 9.4 7 12.3 1.2 5.6-11.1-.5-36.6-11.4-47.3-5.6-5.5-16.2-7.2-27.3-4.2zm21.7 4.4c4.7 2.5 9.1 9 12.3 18.4 3.3 9.4 3.9 25.4 1.1 27.8-2.3 1.9-4.2.4-9.7-7.9-2.6-4-5.2-7.2-5.7-7.2s-1.2 1.2-1.6 2.7c-2.6 11.9-3.4 13.3-7 13.3-2.4 0-6.7-5.4-9.3-11.8-1.8-4.2-3.5-4.1-4.9.5-.7 2.1-2.2 5.1-3.6 6.8-2.1 2.6-2.5 2.8-4.1 1.5-.9-.8-2.8-3.9-4.1-6.8-6.7-15.3.3-33.2 14.9-37.8 6.5-2 17.5-1.8 21.7.5z"/></g><path d="M560.3 1117c0 4.7.2 6.6.4 4.2.2-2.3.2-6.1 0-8.5-.2-2.3-.4-.4-.4 4.3zm-148 14c0 4.7.2 6.6.4 4.2.2-2.3.2-6.1 0-8.5-.2-2.3-.4-.4-.4 4.3zm-90 12c0 4.7.2 6.6.4 4.2.2-2.3.2-6.1 0-8.5-.2-2.3-.4-.4-.4 4.3zm237.1 8.5c0 6 .1 8.4.3 5.2.2-3.2.2-8.1 0-11-.2-2.9-.3-.3-.3 5.8zm-129-2.5.1 3.5 5.8.1 5.7.1-5.4-.4c-5.3-.4-5.5-.5-5.9-3.6-.4-3.1-.4-3.1-.3.3zm-16.1 20.7c5.4.2 13.9.2 19 0 5.1-.1.7-.3-9.8-.3-10.4 0-14.6.2-9.2.3z" stroke-width="3" fill="#FFFFE5" stroke="#FFFFE5"/><path d="M292.4 625.5c0 5.5.1 7.6.3 4.7.2-2.9.2-7.4 0-10-.2-2.6-.3-.2-.3 5.3zm0 47c0 9.3.2 13.3.3 8.8.2-4.5.2-12.2 0-17-.1-4.8-.3-1.2-.3 8.2z" stroke-width="3" fill="#C96" stroke="#C96"/><path d="M406.4 386.5c0 5.5.1 7.6.3 4.7.2-2.9.2-7.4 0-10-.2-2.6-.3-.2-.3 5.3zM292.4 591c0 5.8.1 8.1.3 5.2.2-2.8.2-7.6 0-10.5-.2-2.8-.3-.5-.3 5.3z" stroke-width="3" fill="#B27F4C" stroke="#B27F4C"/><path d="M504.4 547c0 9.1.2 12.8.3 8.2.2-4.5.2-11.9 0-16.5-.1-4.5-.3-.8-.3 8.3zm-211.1 2c0 4.7.2 6.6.4 4.2.2-2.3.2-6.1 0-8.5-.2-2.3-.4-.4-.4 4.3zm212.1 48c0 9.6.2 13.6.3 8.7.2-4.8.2-12.6 0-17.5-.1-4.8-.3-.8-.3 8.8zm-214 57c0 17.3.2 24.4.3 15.7.2-8.6.2-22.8 0-31.5-.1-8.6-.3-1.5-.3 15.8zm213-4.5c0 8.8.2 12.3.3 7.7.2-4.6.2-11.8 0-16-.1-4.2-.3-.5-.3 8.3zM333.8 893.7c2.3.2 6.1.2 8.5 0 2.3-.2.4-.4-4.3-.4s-6.6.2-4.2.4zm110 0c2.3.2 6.1.2 8.5 0 2.3-.2.4-.4-4.3-.4s-6.6.2-4.2.4z" stroke-width="3" fill="#B26633" stroke="#B26633"/><path d="M401.4 387c0 5.2.1 7.4.3 4.7.2-2.6.2-6.8 0-9.5-.2-2.6-.3-.4-.3 4.8z" fill="#963" stroke="#963" stroke-width="3"/><path d="M504.4 599.5c0 13.7.2 19.5.3 12.8.2-6.7.2-17.9 0-25-.1-7-.3-1.6-.3 12.2z" fill="#CC7F4C" stroke="#CC7F4C" stroke-width="3"/><path d="M407.4 377.3c-.3.8-.3 5.4-.2 10.3l.3 8.9.5-10.3c.5-10.1.4-11.4-.6-8.9zm95 142.7c0 6.3.1 8.9.3 5.7.2-3.1.2-8.3 0-11.5-.2-3.1-.3-.5-.3 5.8zm-207 11.5c0 4.9.1 7.1.3 4.8.2-2.3.2-6.4 0-9-.2-2.6-.3-.8-.3 4.2zm49.1.5c-5.3 2.2-11 10.9-13 19.8-.9 3.7-2.1 8.2-2.6 10-.8 2.4-.7 4.6.2 8.2l1.3 5 2.4-2.2c1.3-1.3 3-3.7 3.9-5.5.8-1.8 1.9-3.3 2.4-3.3s.9-.6.9-1.4c0-1.7 3.1-2.9 5.3-2 .9.3 1.9 2.2 2.3 4.2.7 4.1 3.5 11.2 4.3 11.2 1.5-.1 3-2 6.5-8.3 3-5.4 4.2-6.7 6.1-6.7 2.1 0 2.9 1 5.2 6 2.4 5.5 2.8 5.9 4.3 4.5 4.3-3.9 5.5-19.2 2.2-26.8-1-2.3-3.4-5.5-5.3-7s-3.9-3.1-4.5-3.6c-3.3-2.7-17.4-4.1-21.9-2.1zm90.7.3c-1.8.7-5.4 3.1-8.1 5.4-5.5 4.8-7.6 10.2-7.4 19.3.1 5.7 3 15.1 4.9 15.7.6.2 2.3-2.4 3.7-5.7 2.3-5 3.1-6 5.2-6 1.9 0 3.1 1.3 6.1 6.7 3.5 6.4 5 8.2 6.5 8.3.9 0 3.9-8.2 3.9-10.6 0-3.5 2.4-5.8 5.3-5 1.5.3 2.7 1.1 2.7 1.7 0 .5.5 1.5 1 2.2.6.7 2.4 3.3 4.1 5.9 1.7 2.7 3.5 4.8 3.9 4.8 1.8 0 2.1-10.6.6-18.5-1.9-9.3-5.5-17-10.3-21.7-3.2-3.1-3.9-3.3-11.1-3.5-4.3-.1-9.2.3-11 1zm67.2 141.2c0 4.9.1 7.1.3 4.8.2-2.3.2-6.4 0-9-.2-2.6-.3-.8-.3 4.2zM325.8 901.1c-4.3 1-10.7 5-15 9.3-5.3 5.2-9.1 14-9.6 22.1-.6 9.4.2 12.5 3 12.5 2.9 0 9.3-5.1 15.7-12.7 2.9-3.5 5.7-6.3 6.2-6.3s1.1 1.2 1.5 2.7c.3 1.6.9 3.7 1.4 4.8.4 1.1 1.4 3.6 2 5.5 1.5 4 4.4 7 7 7 2.3 0 10.3-7.1 13.2-11.8 2.6-4.2 5.6-7.8 6.1-7.1.2.2 1.6 2.9 3.1 6s4.1 6.6 5.8 7.9c3 2.2 3 2.2 5.6.3 4.4-3.3 8.3-11 8.3-16.2.1-5.5-3.9-13.2-7.6-14.9-1.4-.6-2.5-1.6-2.5-2.2 0-.5-.5-1-1-1-.6 0-3.4-1.1-6.2-2.5-2.9-1.4-7.9-3-11.3-3.5-7.2-1.2-20.6-1.1-25.7.1zm107.7 0c-3.3.6-6.2 1.4-6.5 1.8-.3.4-2.4 1.3-4.8 2.1-2.7.8-6.4 3.4-9.7 6.6-4.5 4.4-5.5 6.1-6.1 10-.7 4.7.7 11.3 2.9 14.1 2.9 3.7 6.6 7.3 7.5 7.3 2.2 0 6.6-4.7 9-9.8 1.5-3.1 3.2-5.7 3.7-5.8.6-.2 2.6 2 4.5 4.9 4.5 6.6 10.5 12.5 13.6 13.3 4.4 1.1 7.4-3.3 10.4-15.4.7-2.5 1.7-4.2 2.5-4.2s1.5.4 1.5.9c0 1.8 16.1 17.1 18.6 17.7 3.9 1 4.9-.9 4.8-9.4 0-6.4-.6-8.8-3.2-14.4-3.6-7.9-9.7-14.3-16.7-17.8-4.2-2.1-6.6-2.5-15.5-2.7-5.8-.1-13.2.3-16.5.8z" stroke-width="3" fill="#FC9" stroke="#FC9"/><path d="M431.7 243.7c-1 .2-7 3.4-13.5 7-6.4 3.6-13.7 7.5-16.2 8.6-5.1 2.2-16.2 2.9-20.1 1.1-1.3-.6-5.3-2.5-8.9-4.2-6-2.9-14.8-5.7-21.1-6.9-4.2-.8-16.7 3.5-22.3 7.6-12.4 9.2-23.5 24.8-38.2 54-4.1 7.9-8.1 16.7-9 19.5-.9 2.8-2 5.5-2.4 6.1-1.7 2.1-4 18-4 26.9 0 10.1 1.7 18.3 5.1 24.2 3.9 6.8 9.5 12.8 15.3 16.4l5.6 3.5-.5 14.5c-.4 8-1 17.4-1.5 21-.5 3.6-1.4 18.9-2 34-.7 15.1-1.6 37.4-2.1 49.5-2.3 57.8-3 99.9-2.5 150 .3 29.7 1 58.3 1.6 63.5.5 5.2 1.7 22.1 2.6 37.5.9 15.4 2 28.9 2.4 30 .4 1.1 1.1 5.6 1.5 10 1.1 13 6.3 44.2 8 48.4.4.9 1.6 5.2 2.6 9.5 1.1 4.4 2.3 8.4 2.8 9 .5.6 1.4 2.9 2.1 5.1.7 2.2 1.4 4.3 1.6 4.6.2.3 4.3-.2 9.1-1.2 8.5-1.7 9.2-1.7 21.7.1 9.8 1.5 14.4 2.8 19.4 5.2 7.6 3.7 15.5 11.2 17.3 16.3 1.3 3.4 1.5 3.5 6.4 3.5 5.9 0 6.7-.5 8.4-4.8 2-4.9 8.4-10.9 15.3-14.2 7.6-3.7 10.6-4.5 23.2-6.4 8.8-1.3 10.8-1.3 18 0 4.4.9 9.6 2.2 11.5 3 4.2 1.8 4.4 1.6 6.7-8.1.9-3.8 2.1-7.7 2.5-8.5 1.2-2.2 4.7-18.4 7.4-33.8 1.3-7.2 2.6-13.5 2.9-14 .2-.4 1.2-7 2-14.7.9-7.7 2.1-15.8 2.6-18 .9-3.6 3.9-32.9 6-59.5.4-5.8 1.3-23.1 1.9-38.5.6-15.4 1.6-39 2.2-52.5 1.2-26.8.8-79.4-1-132.5-1.2-33.2-3.7-88.5-4.7-101.5l-.6-6.6 3.7-1.7c10-4.8 17.4-15.4 19.6-28.6 1.3-7 .6-25.9-1-32.1-4.9-18-7.6-25.2-14.8-39-9.1-17.3-19-30.8-31.9-43.5-11.2-11-13.4-12.6-21.7-16.5-6.3-2.9-13.4-3.8-19-2.3zm-76.3 38.9c.9.8 1.6 2.2 1.6 2.9 0 1.7-3.1 3.5-6 3.5-1.7 0-6.4 2.6-11.6 6.4-1.9 1.5-4.6-1.3-4.2-4.2.8-6.4 16-12.9 20.2-8.6zm101.3 2.2c5.4 3.4 7 6.7 4.7 9.3-2.3 2.5-2.4 2.5-7.5-1.6-2.5-2-5.5-3.5-7.1-3.5-1.4 0-3.3-.3-4.2-.6-1.9-.7-2.2-6-.3-6.8 2.5-1.1 10.3.6 14.4 3.2zm-88.8 30.7c4.1 4.7 4 7.8-.3 12.1-4.4 4.4-8.2 4.5-12.5.5-4.2-4-4.3-9-.2-13.2 4.3-4.2 8.9-4 13 .6zm76.3-2.4c5.2 2.8 5.4 13 .3 16.3-6.7 4.4-15.8-2.1-13.9-10 1.4-5.8 8.4-9.1 13.6-6.3zm-124.5 30.4c14.1 4.2 18.7 21.1 8.4 31.4-5.4 5.4-11.5 7-18.6 4.7-17.5-5.5-18.2-29-1.2-35.5 6.4-2.4 5.3-2.4 11.4-.6zm174.4 3.1c7 3.6 11.1 12.4 9.5 20.8-3.2 17-27.3 20-35.2 4.4-7-13.8 3.9-29.1 19.1-27.1 2.2.3 5.2 1.1 6.6 1.9zm-76.5 1c4.2 2 8.4 6.8 8.4 9.7 0 2.8-3.4 9.4-6.6 12.8-1.4 1.4-4.5 3.6-6.9 4.8l-4.5 2.2v19l2.3-1.2c1.2-.7 4.3-3.1 6.9-5.5 5.2-4.9 5.9-5.1 8.3-2.8 4.1 4.1-5.9 14.3-16.1 16.4-10.5 2.2-20.2-1.7-25.1-10-2.4-4-2.4-4.2-.7-6.1.9-1 2.1-1.9 2.7-1.9.5 0 3 2.2 5.5 4.9 7.6 7.9 8.2 7.7 8.2-3.3v-9.4l-4.2-2.2c-7.9-4-13.8-11.7-13.8-17.9 0-3.2 6.3-9.7 10.2-10.5 1.3-.3 3.2-.7 4.3-1 3.9-1 17.6.4 21.1 2zm-57.9 175.9c6.5 1.7 11.2 3.4 13.1 5 4.6 3.5 8.4 8 10.9 12.6 2.5 4.9 2.8 6.3 2.7 14.9-.1 8.1-.5 10.3-2.8 15.2-2.7 5.7-7.5 10.8-10.1 10.8-2.6 0-6.3-2.2-7.6-4.6-1.5-2.9-2.6-3-3.4-.4-1 3.1-7.6 8-10.8 8-3.1 0-8.1-4.4-9.2-8.1-.6-1.9-.9-1.7-3.7 1.5-1.7 2-4.4 4.2-6.1 5.1-2.7 1.4-3.3 1.3-6.1-.3-4-2.3-5.5-6.7-5.5-16.2-.1-19.4 8.6-37.6 20-41.9 1.9-.7 4.3-1.7 5.4-2.1 3-1.3 6.8-1.2 13.2.5zm93.2.1c10.7 3.7 15 8.5 20.7 22.9 2.4 6.1 2.7 8.5 2.8 18.6.1 12.8-.9 16.1-5.5 18.5-2.3 1.2-3.1 1.1-5.7-.2-1.7-.8-4.4-3-6.1-4.9-2.7-3.1-3-3.2-3.6-1.5-.3 1-1.9 3.3-3.5 4.9-4.3 4.7-8 4.3-13.7-1.7l-4.6-4.7-3.3 3.2c-1.7 1.8-4.1 3.3-5.2 3.3-3.3 0-8.2-4.9-10.9-10.9-2.2-4.7-2.6-7.1-2.7-15.1-.1-8.5.2-10.1 2.7-14.9 3.9-7.6 10.7-13.7 17.6-15.7 3.1-.9 6.7-2 8.1-2.5 3.9-1.2 8.1-1 12.9.7zM286.3 246.1c-4.6 1.3-8.3 7.1-8.3 12.9 0 8.6 6.8 16 16.7 18 3 .7 5.6 1 5.9.8 2.1-2.2 11.4-15.6 11.4-16.6 0-5.7-6.4-12.3-14.2-14.7-5.8-1.7-6.9-1.7-11.5-.4zm210.9.7c-6.1 2.2-9.4 5-12.2 10.5l-2.1 3.9 2.6 3.2c1.4 1.7 4.4 5.5 6.6 8.4 3.9 5.1 4.2 5.2 7.7 4.6 7.8-1.4 12.7-4.7 15.8-10.5 3.3-6.4 1.5-17.2-3.5-19.8-3.8-2.1-9.5-2.2-14.9-.3zm-81.9 842.9c4.8.2 12.6.2 17.5 0 4.8-.1.8-.3-8.8-.3-9.6 0-13.6.2-8.7.3z" stroke-width="3" fill="#FFE5B2" stroke="#FFE5B2"/><path d="M414.2 1168.7c4.8.2 12.9.2 18 0 5.1-.1 1.2-.3-8.7-.3-9.9 0-14.1.2-9.3.3z" fill="#FFE599" stroke="#FFE599" stroke-width="3"/><path d="M400.4 387c0 5.2.1 7.4.3 4.7.2-2.6.2-6.8 0-9.5-.2-2.6-.3-.4-.3 4.8z" fill="#E5B266" stroke="#E5B266" stroke-width="3"/><path d="M346.5 283.7c-2.9.8-9.5 6.2-9.5 7.9 0 2.1 1.7 1.7 5.5-1.1 1.8-1.4 5.2-2.9 7.6-3.3 2.9-.5 4.4-1.3 4.4-2.2 0-1.6-4.3-2.3-8-1.3zm96.5 1c0 1.6.8 2.1 4 2.6 2.3.3 5.6 1.7 7.5 3.1 4.9 3.7 8.4 3.4 5.3-.6-2.6-3.1-7.8-5.8-12.2-6.4-4.1-.6-4.6-.5-4.6 1.3zm-86.8 31.6c-4.5 4.8-1.4 11.7 5.1 11.7 4.1 0 6.7-2.6 6.7-6.6-.1-6.7-7.4-9.8-11.8-5.1zm4.9 2.3c1.7 2.1 0 4.9-3.2 4.9-2.4 0-3.6-2.3-2.5-5.1.7-1.9 4-1.8 5.7.2zm73.5-2.1c-4.1 3.8-3.3 8.9 1.7 11 7.8 3.3 14.1-5.2 8.2-11-3.1-3.2-6.5-3.2-9.9 0zm4.4 2c2.6 3.1-1.8 7.1-4.7 4.2-1.9-1.9-.8-5.7 1.6-5.7 1 0 2.4.7 3.1 1.5z" stroke-width="3" stroke="#000"/><path d="M306.5 345.9c-9 5.5-11.8 14.7-7.4 23.8 5.3 11 19.3 13.2 28 4.4 8.4-8.3 6.9-21.3-3.1-27.6-5-3.1-13-3.4-17.5-.6zm175.5-.3c-8.8 3.1-12.7 6.9-14.2 13.9-2.4 11.1 5.9 21.5 17 21.5 7.5 0 12.7-3.3 16.3-10.2 5.5-10.8-1.5-23.2-14.1-25.2-1.9-.3-4.2-.3-5 0z" stroke-width="3" fill="#F99" stroke="#F99"/><path d="M394.5 347.9c-6.2 1.5-10.5 5.6-10.5 10.1 0 5 9.6 15.5 15.3 16.7l2.7.5V397h-2.7c-3 0-8.9-4.1-9.8-6.9-.3-1.1-1.3-2.2-2.2-2.5-2.9-1.1-3.5 1-1.4 4.5 6.4 10.9 22.3 12.9 32.8 4.3 5.2-4.3 7-7.1 5.4-8.7-.8-.8-2.4.2-5.9 3.6-4.4 4.3-10.2 7.3-11.6 5.9-.3-.3-.6-5.4-.6-11.4 0-9 .3-10.8 1.5-10.8 4.3 0 13-7.9 15.5-14 1.6-3.8.3-6.9-4.1-10.2-4.6-3.4-16.4-4.8-24.4-2.9z" fill="#7F3300" stroke="#7F3300" stroke-width="3"/><path d="M377.5 547.7c.8 2.9.8 13.6 0 16.5-.5 2-.5 2.1.5.5.7-1 1.2-4.9 1.2-8.7 0-3.8-.5-7.7-1.2-8.7-1-1.6-1-1.6-.5.4zm41.8.9c-1.1 4-.7 13.9.6 16.1 1.2 1.9 1.1 1.2-.3-5.8-.3-1.5-.2-4.9.3-7.5 1-5.4.6-7.2-.6-2.8zm48.2 7.4c2.1 12.5 2.4 13.7 1.9 6.5-.3-3.9-1-7.7-1.5-8.5-.6-1-.8-.3-.4 2z" stroke-width="3" fill="#FFCC7F" stroke="#FFCC7F"/><path d="M415.2 1090.7c4.8.2 12.9.2 18 0 5.1-.1 1.2-.3-8.7-.3-9.9 0-14.1.2-9.3.3z" fill="#FC6" stroke="#FC6" stroke-width="3"/><g fill="#FFB24C" stroke="#FFB24C" stroke-width="3"><path d="M401.1 1093.7c-1.4 1.7-1.9 3.3-1.5 4.7 1.4 4.5 2 4.5 2-.1-.1-4 .2-4.9 2.4-6 1.7-.9 2-1.3.8-1.3-.9 0-2.6 1.2-3.7 2.7zm44.5-.1c2 1.9 2.4 3.1 1.9 5.2-.3 1.5-1.3 3.3-2.2 3.9-.9.7-1.2 1.3-.5 1.3 1.6 0 4.2-4.1 4.2-6.5 0-2.2-3.3-6.5-5-6.5-.5 0 .2 1.1 1.6 2.6zm-185 10.6c-1.2 1.7-1.6 4.8-1.6 11.9 0 7.9-.3 9.8-1.5 10.2-1.1.4-1 .4.2.3 1.6-.1 1.9-1.6 2.6-11 .4-6 1.2-11.6 1.8-12.3.7-.7.9-1.3.6-1.3-.3 0-1.3 1-2.1 2.2zm288.4.4c-.6 1.4-1 5.3-.9 8.7.1 7.5 1.6 4.2 1.8-3.9.1-2.7.6-5.5 1.3-6.2.9-.9.9-1.2 0-1.2-.7 0-1.7 1.2-2.2 2.6zm-139 .3 4.5.6-.3 18.5c-.1 10.2-.5 21.1-.8 24.2l-.6 5.8h-4.7c-6.2 0-9.1 2.1-9.1 6.5 0 2.4.7 3.9 2.6 5.4 2.5 2 4 2.1 21.9 2.1s19.4-.1 21.9-2.1c2.9-2.3 3.5-6.3 1.2-9.5-1.1-1.5-3-2-9.3-2.4l-7.8-.5.2-17c.1-13.6-.1-15.8-.8-11-.5 3.3-.8 11.2-.7 17.5l.3 11.5 8.3.5c9.1.5 10.4 1.4 10 6.5-.5 5-2.9 5.6-24.6 5.3-17.8-.3-19.5-.5-20.8-2.2-.8-1.1-1.4-3-1.4-4.2 0-3.8 2.6-5.4 8.6-5.4 4.8 0 5.4-.3 5.8-2.3.3-1.2.7-12.7 1-25.5l.6-23.2-5.3.2-5.2.1 4.5.6zm147.6 17.8c-.3 4.2-.6 15.1-.6 24.3 0 18.6-.4 19.8-6.1 18.6-1.8-.3-2.8-.2-2.4.4 1 1.6 6.1 1.1 7.7-.8 1.3-1.4 1.7-6.3 2.3-26 .7-24.2.4-30.9-.9-16.5zm-231.9 1.1c-1.5 1.6-1.7 4.4-1.5 20.3l.2 18.4.7-18c.3-9.9.7-18.5.8-19.2.2-2 4.1-2.6 6.6-.9 2.8 1.9 3.2 1.5.9-.8-2.1-2.1-5.7-2-7.7.2zm-20.2 2.4c3.3 1.8 6.7 5.2 7.6 7.7.5 1.3 1.2 2.1 1.6 1.8 1-1.1-4.6-8.3-7.3-9.6-3.2-1.4-4.5-1.4-1.9.1zm182.5.8c1.1 1.1 2.5 2 3 2 1.2 0 1.3 1.1 1 11-.2 9.5.5 8.8 1.4-1.3l.7-7.7-3.3-3c-3.6-3.3-5.9-4.1-2.8-1zm-27 1.6c-3.4 2.9-6.4 8.1-7.5 13.3-.5 2.3-.4 3.1.4 2.7.6-.4 1.1-1.6 1.1-2.6 0-4.2 3.3-10.1 7.3-13 2.3-1.6 3.6-3 3-3-.6 0-2.6 1.2-4.3 2.6zm-192.4 1.5c-.3 1.7-.6 10-.6 18.4 0 16.8-.5 18.3-5.7 17.1-3.3-.8-3.9-.8-12.1 0-9.1.9-14.2-1.2-18.7-7.9-1.9-2.9-3.5-4.7-3.5-4.1 0 .6 1.3 3 3 5.2 5.2 7.3 14.9 10.6 22.7 7.8 3.6-1.3 4.7-1.3 6.8-.2 3.1 1.6 6.2 1 7.4-1.3.9-1.7 2.6-38.1 1.8-38.1-.2 0-.7 1.4-1.1 3.1zm256.9 4.2c2.7 2.1 1.5 3-5.8 4.4l-6.2 1.2 6.5-.6c3.6-.3 6.9-.9 7.5-1.4 1.2-1.1-.4-4.1-2.6-4.7-.8-.2-.5.3.6 1.1zm-221.1 1.4c.1 1.4-1.3 2-6.4 3l-6.5 1.2 6.5-.6c3.6-.3 6.8-.7 7.3-1 1-.6.9-3.1-.2-3.7-.5-.3-.8.2-.7 1.1zm163 .8c-3 2-5.4 7.6-5.4 12.3 0 5.1 2.7 7.3 8.5 7.1l4-.2-4.8-.6c-2.7-.4-5.3-1.4-5.8-2.2-2.6-4.2.6-13.8 5.4-16.2 1.8-.9 2.5-1.6 1.7-1.6-.9-.1-2.5.6-3.6 1.4zm-133.6 3.8c-.5 1-.8 6.7-.8 12.6 0 7-.4 11.1-1.2 11.9-1.5 1.5-6.4 1.6-7.1.2-.3-.6-.4-.5-.3.1.4 2 4.1 2.8 6.7 1.5 2.2-1.1 2.5-1.9 3.2-12.1.8-12.5.7-17.1-.5-14.2zm-20.5 2.2c-1 1.8-6.8 3.4-12 3.5-1.7 0-3.5.5-3.8 1-.7 1.1 4.9.6 11.6-1.1 3.6-.9 6.7-3.4 5.6-4.5-.3-.3-.9.2-1.4 1.1zm221.2 1.4c-.3.6-3.7 1.3-7.5 1.7-3.9.4-7.3 1.1-7.6 1.6-.4.6.5.8 2.2.4 1.6-.3 5-.8 7.6-1.2 2.6-.3 5.3-1.2 5.9-2 .6-.8.9-1.4.6-1.4-.3 0-.8.4-1.2.9z"/><path d="M258 1150.6c0 4.3-.2 4.6-3.7 6.1-2.2.9-5.2 1.3-7.5 1-2.2-.3-3.6-.1-3.2.4 1 1.6 8.8 1 12.2-1.1 2.8-1.8 3.2-2.5 3.2-6.5 0-2.5-.2-4.5-.5-4.5s-.5 2-.5 4.6zm289.4 4.9c0 4.9.1 7.1.3 4.8.2-2.3.2-6.4 0-9-.2-2.6-.3-.8-.3 4.2zm-237.8-1.6c-2.6 2.9-8 4.4-13.7 3.9-2.7-.3-4.6-.1-4.3.4.3.4 3.1.8 6.3.8 4.8 0 6.6-.5 10.4-3.1 4.1-2.7 5-2.9 6.4-1.8 1.4 1.2 1.6 1.2 1.1-.1-.7-2.3-4.2-2.3-6.2-.1zm188.4-1.5c0 1.5 3.9 8.2 5.7 9.8 6 5.4 19 6.7 27.1 2.6 6.2-3.1 8.6-6.5 7.3-10.1-1.3-3.4-3.5-3.4-7.2-.2-3.4 2.8-8.4 4-14 3.2-2.2-.3-3.7-.1-3.3.4.8 1.3 11.1 1.1 13.7-.2 1.2-.6 3.2-2.1 4.4-3.2 2.6-2.3 5.3-1.6 5.3 1.3 0 6.2-6.7 9.9-17.5 10-9.5 0-15.1-2.7-18.2-8.9-2.3-4.5-3.3-6-3.3-4.7z"/><path d="M280.6 1161.1c5.6 6.4 19.6 8 28.9 3.4 2.9-1.4 5.6-3.3 6-4.3.5-1.3.1-1.1-1.7.5-7.4 7-26.7 7.2-31.5.3-.8-1.1-1.9-2-2.5-2-.6 0-.3 1 .8 2.1zm193.4 16.1c-1.5.6-5.9.7-10.6.4-6.6-.5-8.4-.3-9.4.9-.7.9-1.1 1.8-.8 2 .3.3 1-.1 1.7-.8.9-1.1 3.2-1.3 9.9-1 6.9.4 9.1.2 10.7-1.1 2.3-1.8 2-1.9-1.5-.4z"/></g><path d="M404 1092.3c-1.9.9-2.6 2.2-2.8 4.8-.4 5.3 1.6 6.9 8.9 6.9h5.9l-.6 23.2c-.3 12.8-.7 24.3-1 25.5-.4 2-1 2.3-5.8 2.3-6 0-8.6 1.6-8.6 5.4 0 1.2.6 3.1 1.4 4.2 1.3 1.7 3 1.9 20.8 2.2 21.7.3 24.1-.3 24.6-5.3.4-5.1-.9-6-10-6.5l-8.3-.5.1-13.5c0-7.4.4-18.8.9-25.3l.8-11.7h6.7c7.3 0 9.6-1.1 10.5-5.2.5-2.1.1-3.3-1.9-5.2-2.5-2.6-2.5-2.6-20.8-2.6-12.7 0-19.1.4-20.8 1.3zm-141.9 11c-.6.7-1.4 6.3-1.8 12.3-.9 12.3.4 11.2-10.5 9.8-4.3-.6-10.2.7-11.8 2.6-.3.3-1.7 1.3-3.2 2.3-1.6 1-2.8 2.3-2.8 2.9 0 .6-.7 2-1.6 2.9-1.1 1.2-1.8 4.4-2.2 8.8-.4 6.6-.3 7.3 2.9 12.2 2.2 3.6 4.5 5.7 7.3 7 4.4 2 12.9 2.5 17 1 1.6-.7 3.5-.6 5.5.2 6 2.3 6.5 1.1 7.3-17.9.4-9.3 1-22.4 1.3-29.2.6-10.9.5-12.5-1-14.3-2.1-2.2-4.8-2.5-6.4-.6zm-6.5 31.3 3.4 1.6v18.8l-3.2 2c-1.9 1.1-5.1 2-7.5 2-3.4 0-4.8-.6-7.7-3.4-3.3-3.1-3.6-3.8-3.6-9.2 0-6.3 2.3-11.2 5.7-12.6 3.2-1.2 9.4-.8 12.9.8zm295.6-31.4c-1.6 2-2.3 11.2-2.8 37.5l-.5 24.2 2.7.7c5.7 1.4 5.8.8 6.5-23.7.4-12.3 1-25.1 1.4-28.5.6-5 .4-6.6-1-8.7-1.8-2.9-4.6-3.5-6.3-1.5zm-224.1 20.7c-1.1.7-1.6 5.1-2.1 20.3-.3 10.6-.4 19.9-.2 20.5.5 1.6 5.4 1.7 7 .1.8-.8 1.2-5 1.2-12.1 0-13.2 1.2-16 7.5-17.6 4.5-1.1 10.3-.1 11.6 2.1 1.2 1.9 3.9-1.1 4.2-4.6.1-2.1-.6-3.4-2.6-5-2.4-1.7-4.2-2.1-11-2.1-4.7 0-9.1-.5-10.4-1.3-2.6-1.4-3.3-1.5-5.2-.3zm-37.6 1.8c-3.1.8-10.4 8.3-11.6 12.2-1.5 4.3-1.5 13.6-.1 17.2 1.4 3.6 5.8 7.8 9.8 9.5 4.5 1.9 15.6 1.8 20.2-.1 7.1-3 10.1-7.7 6.7-10.5-1.2-1-2.3-.6-6.2 1.9-3.7 2.5-5.7 3.1-9.9 3.1-7.3 0-14.4-4.4-14.4-8.9 0-.5 2.6-1.2 5.8-1.6 3.1-.3 6.6-1 7.7-1.5 1.1-.5 4.6-1.2 7.8-1.5 8.4-.9 11.6-5.1 8.5-10.8-2.1-3.6-5.1-6.8-8-8.3-2.6-1.3-11.9-1.7-16.3-.7zm13 7.4c6 3.6 4.4 5.2-6.4 6.6-5.2.7-9.6 1.1-9.9.8-1.2-1.2 1.2-5.5 4-7.3 4.3-2.7 7.9-2.7 12.3-.1zm165-7c-4.8 1.4-10.1 6.9-11.5 11.9-.6 2.5-1.6 5.3-2.1 6.2-1.6 3.1-1 8.5 1.7 13.6 2.2 4.3 3.2 5.2 7 6.2 2.8.8 7.3 1.1 11.9.7 8.3-.6 8.2-.6 6.9 6.3-.5 2.2-1.9 3.9-4.6 5.7-3.5 2.4-4.4 2.5-12.3 2.1-7.1-.5-8.6-.3-9.9 1.1-2.8 3.1-1.9 4.8 3.3 6.5 5.4 1.7 15.1 2.1 17.9.7.9-.5 3.3-1.6 5.3-2.4 2.8-1.2 4.3-2.8 6.2-6.9 2.3-4.7 2.8-7.5 4-25.3 1.3-19.9 1.3-23.5-.4-23.5-.5 0-1.8-.9-2.9-2-1.7-1.7-3.3-2-9.7-1.9-4.3 0-9.2.5-10.8 1zm15.3 13.6c.4 6.7-1.3 13-3.9 14.3-3.9 2.1-11.6 2.4-14.5.5-2.4-1.5-2.6-2.1-2.2-6.9.8-9.5 5.8-13.7 15.8-13.3l4.5.2.3 5.2zm27.7-13.5c-4.1 2.6-8.5 6.2-8.5 7 0 .5-.9 2.8-2 5-4.4 9.1-.6 21.2 8 25.5 8.5 4.3 24.8 2.2 27.9-3.5 2.8-5.2-.2-9.1-4.2-5.5-3.6 3.4-6.3 4.3-11.9 4.3-4.1-.1-6.2-.7-9.3-2.8-2.2-1.5-4.1-3.7-4.3-4.9-.3-1.9.3-2.2 5.5-2.8 3.2-.3 6.7-1 7.8-1.5 1.1-.5 4.7-1.2 8-1.5 7.2-.8 8.5-1.7 8.5-6 0-4.8-1.8-8.7-5.3-11.5-2.6-2.1-4.4-2.5-10.7-2.8-4.7-.1-8.2.2-9.5 1zm11.5 5.8c0 .5.8 1 1.9 1 2.3 0 4.5 2.5 3.8 4.3-.5 1.4-19.4 4.3-20.5 3.2-1-1 2.5-5.9 5.5-7.7 3.1-1.8 9.3-2.4 9.3-.8z" stroke-width="3" fill="#FFB233" stroke="#FFB233"/></svg>