<svg version="1.0" xmlns="http://www.w3.org/2000/svg" viewBox="0 0 785 1258"><g fill="#FFF" stroke="#FFF" stroke-width="3"><path d="M0 629v629h785V0H0v629zm519.4-523.6c19.2 3.1 39.2 11.2 55.4 22.3 8 5.5 20.6 15.9 24.5 20.2 1.5 1.7 3.1 3.1 3.6 3.1s3.6-1.8 6.9-4c3.3-2.2 8-4.7 10.4-5.6 2.3-1 4.8-2 5.3-2.4 1.1-.8 9-2.6 15.2-3.4 6.8-1 18.1 1.1 25.3 4.6 9.9 4.9 21.7 17.4 28.1 30 7.6 14.9 8.4 31.6 2.2 42.8-6.7 11.9-20.3 21.5-39 27.5-5.1 1.7-9.3 3.4-9.3 3.9s1.1 3.4 2.5 6.5c12.1 27.6 7.3 61.2-12.4 87.6-8.9 11.8-25.7 27.1-42.7 38.8-11.8 8.1-14.6 9.9-24.4 15-5.2 2.7-9.8 5.2-10.1 5.6-.4.3-1 9.7-1.3 20.7l-.7 20.1 5.3-1.3c6.1-1.6 20.4-1.8 26.8-.3 13.9 3.1 28.3 14 37.1 28 2.4 3.8 6.7 9.9 9.5 13.5 2.9 3.6 5.8 8.6 6.4 11 1.8 6.3.7 15-2.2 18.1-4.7 5.1-7.2 5.7-25.8 6.3-23.7.7-22.6.2-40.2 20.6-4.2 4.9-10.1 11.5-12.9 14.8l-5.3 5.8-.7 46.7c-.8 49.3-2.1 77.2-4.4 93.6-2.3 15.7-8.3 40.2-11.9 48-.7 1.6-1.9 4.8-2.6 7-.7 2.2-1.6 4.4-2 5-.5.5-1.6 3-2.6 5.5-3.6 8.9-14.5 26.9-23.4 38.5-4.3 5.6-23.4 24.4-29.5 29-15.6 11.8-35.4 23.1-49 28-2.7.9-6.3 2.3-8 3-1.6.7-5 1.8-7.5 2.5-2.5.6-5.4 1.5-6.5 2.1-4.4 2.1-30.3 7.4-41 8.4-12.8 1.2-12.9 1.3-15.2 11.3-3.8 16.2-9.2 31.8-16.1 46.6-4.8 10.1-7.8 14.4-14.9 21.1-7.4 7-9.9 8.8-17.3 12.3-15.4 7.3-29.6 8.9-38 4.2-5.8-3.3-9.3-9-8.6-14.5 1.4-12.4 8.9-38.1 15.6-53 3.7-8.4 9.3-23.5 8.8-24-.2-.1-3.1-.5-6.4-.7l-6.1-.4-2.2 9c-4.5 19.7-8.2 31-13.9 42.6-1.4 3-3.2 6.1-3.9 6.8-.7.7-1.3 1.7-1.3 2.2 0 1.5-10.3 12.2-15.5 15.9-4.4 3.3-12.4 7.5-23.5 12.4-8.5 3.8-21.4 4.8-27.5 2.3-3.9-1.7-6.7-5.7-8.6-12.4-1.1-4-1-5.9 1-16.1 1.3-6.4 3.2-13.6 4.2-16 1.1-2.4 1.9-4.8 1.9-5.2 0-1.5 6.9-18.7 11-27.4 2-4.4 5.4-11.8 7.5-16.5 2.1-4.7 4.4-9.5 5.2-10.7 1.3-2 1.1-2.2-4.3-4.8-19.5-9.2-46.3-32.8-59.7-52.5-10.4-15.3-13.9-21.1-19.1-31.4-7.4-14.6-7.8-15.5-13.3-31.9-8.1-24-11-37.6-13.9-64-1.7-16.2-1.7-17.4 0-31.5 2.5-20.5 5.1-30.5 11.6-44.2 3.5-7.6 3.9-8.3 10.4-17.5 15.6-22.2 41-37.8 69.6-42.6 10.4-1.8 29.1-.6 37.5 2.4 13.4 4.8 21.6 11.1 26.6 20.9 2.1 3.9 2.4 6.6 3.5 29.8.6 14 1.7 28.2 2.3 31.5 5.3 27.4 7.5 34.6 14 47.6 2.7 5.4 5.4 10.4 6 11.1 14.6 17.9 23.7 24 38.4 25.9 11.7 1.6 37.7-.4 41.2-3.1.6-.4 3.2-1.6 6-2.6 6.8-2.5 16.4-12.1 20.5-20.4 3.9-8.1 7.7-22.5 9-34.2 1.6-14.2 3.9-107 5.5-221.8l.6-46.5-7.8-4.9c-7.9-5.1-22-15.1-23.8-17-.5-.6-2.8-2.4-5-4.1-12.1-9-24.4-23-30.2-34.4-6.5-12.7-9.8-33.5-7.5-47.6 1.3-8 5-22.6 6.1-23.9.5-.6 1.4-2.9 2.1-5 .7-2.2 3-7.2 5.1-11.1l3.9-7.2-6.7-3.3c-16.5-7.9-32-21-38.4-32.5-3.2-5.7-3.4-6.5-3.4-16s.2-10.4 3.5-16.8c7.6-14.8 25.9-29.4 40.8-32.6 11-2.3 25.4-.9 35 3.5 2.9 1.3 5.4 2.4 5.7 2.4.2 0 3 1.8 6.2 3.9 4.8 3.2 6.1 3.7 7.3 2.6 1.8-1.4 28.7-16.5 29.6-16.5.3 0 2.7-1.1 5.3-2.4 2.6-1.2 6.5-2.9 8.6-3.6 2.2-.7 4.5-1.6 5-2 2-1.5 23.2-7 31-8.1 4.4-.6 9.6-1.5 11.5-1.9 5.2-1.3 27.1-.5 38.4 1.4zM402 1092.7c5.6 3.9 6.4 7.5 2.5 11.7-2 2.1-3.3 2.6-7.5 2.6h-5v22.2c0 28.8-1.2 33.9-9 39.3-3.3 2.3-5.4 2.9-11.3 3.3-13.2.8-23.2-3-28.4-10.7-2.8-4.2-3.3-14-.7-16.5 2.3-2.3 6-3 9.3-1.6 2.7 1.1 3.5 2.2 6 8.3 1.2 3 4.5 4.7 9.1 4.7 6.2 0 6 1 6-25.1V1107h-7.5c-6.7 0-7.9-.3-10-2.5-4.4-4.4-2.9-9.8 3.5-12.4 1.4-.5 11.1-1 21.5-1 16.4-.1 19.4.1 21.5 1.6zm-189.5 11.7c1.9 1.3 1.9 2.8 1.6 30.7-.1 16.1-.6 30.2-1.1 31.4-1.3 3.5-3.7 4.8-7.2 4.1-4.2-.9-4.9-.9-13 0-6.2.6-7 .4-11.5-2.1-8.3-5-11.3-10-11.3-19.3 0-7 1.4-11.6 4.8-15.7 5.4-6.5 15.5-10 22.3-7.6 1.8.6 3.4 1 3.5.8.2-.2.6-4.8 1-10.2.4-6.7 1.2-10.6 2.2-11.8 1.8-2.1 6.1-2.2 8.7-.3zm65.4 21c.9 1.1 2 1.2 4.8.4 6.7-1.8 16.7 1.4 19.4 6.3 1.2 2.3-.6 6.5-3.6 8.5-1.7 1.1-2.6 1-6.3-.8l-4.2-2.2-4.4 2.2-4.4 2.1-.4 13.1c-.3 11.7-.5 13.3-2.2 14.6-2.7 1.9-7.1 1.8-9.2-.3-1.5-1.6-1.6-3.7-1.1-22.7.4-15.5.9-21.1 1.9-21.7 2.1-1.4 8.5-1 9.7.5zm323 0c.9 1.1 2 1.2 4.7.4 6.9-1.9 17.8 1.9 19 6.6.7 2.8-1 7.2-3.3 8.5-1.4.7-3.1.4-6.4-1.1-4.5-1.9-4.7-1.9-8.5-.1l-3.9 1.8-.5 12.7c-.4 10.5-.8 12.9-2.4 14.7-2.8 3.1-8.1 2.8-10.2-.4-1.5-2.3-1.6-4.5-.6-22.6.6-11 1.4-20.4 1.7-20.9 1-1.5 9.1-1.2 10.4.4zm-351.6 1c7.2 3.1 11.4 11 9.5 18.2-1 4.1-3.4 5-17.6 6.8-6.3.8-11.6 1.7-11.9 1.9-.2.3 1.3 1.7 3.4 3.1 4.8 3.3 13.8 3.7 16.9.7 3.6-3.3 6.2-4.3 8.3-3.1 5.1 2.7 3.2 9.6-3.8 13.7-4.1 2.5-5.6 2.8-13.1 2.8-7.7 0-9-.3-13.2-3-3.1-1.9-5.6-4.6-7.3-7.6-6.3-11.7-.4-29 11.5-33.8 3.7-1.4 13.6-1.3 17.3.3zm197.9 1.4c1.5 1.3 1.7 3.3 1.5 16.6-.2 13.4 0 15.5 1.7 18.3 1.7 2.8 1.8 3.5.6 5.8-1.7 3.3-7.4 3.8-9.6.9-1-1.2-1.6-1.2-4.7.1-2 .8-6.2 1.5-9.4 1.5-10.3 0-16-4.8-18.1-15.4-.9-4.6-.8-6.5.7-11.9 1-3.6 2.9-7.8 4.2-9.4 2.4-2.9 10.5-7.8 14.4-8.7 4-.9 17 .6 18.7 2.2zm43.8-.3c3.7 2.8 6.5 7 5.5 8.5-.3.5-1.2 9.8-2.1 20.7-1.7 22.8-3 26.6-10.3 31.8-4.1 2.9-4.7 3-15 3-12.5 0-16.1-1.4-16.1-6.5 0-5.6 2.5-6.8 13.1-6.3 9 .5 9.5.4 12.2-2 1.8-1.7 2.7-3.6 2.7-5.6 0-2.9-.2-3-2.6-2.1-5.1 2-15.5.2-20.2-3.4-5.2-3.9-6.6-15.2-3.2-25.1 3.9-11.2 10.4-15.2 25.1-15.4 6.5-.1 7.9.2 10.9 2.4zm19.4.4c1.1 2.1 1.4 4.6.9 9.4-.3 3.5-.2 9 .1 12.1.9 6.8 3.4 8.8 8.4 6.7 4.2-1.8 5.2-4.9 5.2-16.4 0-12.1 1.1-14.7 6.5-14.7 6.4 0 6.5.7 5.9 23.3-.7 22.4-1.1 23.7-7 23.7-2.2 0-3.8-.7-4.8-2.2-1.3-1.9-1.9-2-4.1-1-4.1 1.9-10.6 1.4-15-1.1-6.3-3.6-8.4-9.9-8.5-25.5 0-14.8 1-17.2 7.1-17.2 3.2 0 4.1.5 5.3 2.9zm70 .3c1.6 1.8 1.7 3.1 1.1 13.6-.4 7.9-.3 13.2.5 16.2 2.2 8.3 2.3 10.5.6 11.9-2.2 1.8-6.4 1.7-8.3-.2-1.3-1.3-2-1.3-4.9-.1-4.6 1.9-13.8 1.8-18.1-.3-14.1-6.6-12.7-33 2-40.4 7-3.5 8.9-3.8 17.2-3.2 6.2.4 8.4 1 9.9 2.5z"/><path d="M428.8 233.9c-7.9 2.6-13.9 9.1-15.7 17.1-2 8.6-.4 38 2.2 40.6.7.7 9.5-1.1 14.7-3.1 1.9-.7 8.5-1.8 14.5-2.5 6.1-.7 13.7-2.1 16.9-3.1 3.3-1.1 6.8-1.9 7.8-1.9 2.3 0 2-2.4-1.9-16.4-3.9-14.2-9.3-23.3-17.2-28.6-2.7-1.9-5-2.4-11-2.6-4.2-.2-8.8.1-10.3.5zm27.8 27c3.9 2.4 6.8 8.2 5.9 12.2-.4 1.6-2.1 4.5-4 6.4-2.8 3-3.9 3.5-7.9 3.5-5.8 0-7.8-1-10.5-5.4-6.8-11 5.4-23.5 16.5-16.7z"/><path d="M449.5 266.1c-.5 1.3-.2 2.7.8 3.6 2.4 2.4 5.9.8 5.5-2.5-.4-3.6-5.3-4.5-6.3-1.1zm77-32.2c-4 1.8-10.3 8.2-13.7 13.9-3.4 5.7-9 20.5-10.2 26.9-.5 3.1-.3 3.3 3.2 4.2 2 .5 6 1.2 8.7 1.6 2.8.4 8.4 2 12.5 3.5 9.1 3.5 28 9.3 28.5 8.9.3-.4 2.5-7.9 4.5-15.9.5-1.9 1-8.2 1-14 0-9.4-.3-11-2.6-15.5-3.2-6-4.9-7.7-11.1-11.1-5.2-2.8-16.9-4.2-20.8-2.5zm23.3 30.6c3.5 1.8 7.2 7.5 7.2 11.2 0 5.9-6.8 12.3-13 12.3-5.7 0-12-6.6-12-12.5 0-6.1 5.9-12.1 12.1-12.4 1.4-.1 4 .6 5.7 1.4z"/><path d="M544.4 269.4c-1 2.6.1 5.1 2.2 5.4 3 .4 4.8-2.1 3.4-4.7-1.2-2.4-4.8-2.8-5.6-.7zm-357.7 868.7c-2.2 1.3-4.7 6.8-4.7 10.4 0 3.5 2.5 8.2 5.1 9.6 3.1 1.6 8.3 1.4 11.3-.6 2.4-1.6 2.6-2.2 2.6-9.4 0-7.4-.1-7.7-2.9-9.4-3.3-1.9-8.7-2.2-11.4-.6zm47.2-.2c-1.3 1.1-2.2 2.2-1.9 2.5.3.3 3.9 0 7.9-.6 6.6-1 7.2-1.2 5.6-2.4-2.7-2-8.9-1.7-11.6.5zm195.5-.9c-5.7 2.3-9.5 11-7.8 17.9 1.3 5 4.8 6.9 10.3 5.3l4.1-1.3v-11.4c0-11.3 0-11.5-2.2-11.4-1.3 0-3.2.4-4.4.9zm42.6 2.8c-5.4 2.6-8.7 11.4-5.5 14.5 3 3 13.5 1.6 14.9-1.9.3-.8.8-4.3 1.2-7.9l.7-6.5h-3.9c-2.2.1-5.5.9-7.4 1.8zm89.5-2.8c-1.2.4-3.4 2.6-4.9 4.9-2.3 3.3-2.9 5.1-2.8 9.7.1 7.2 1.6 8.9 7.8 8.8 2.5-.1 5-.6 5.7-1.3.7-.7 1.1-5.1 1.2-12.1v-11l-2.5.1c-1.4 0-3.4.4-4.5.9z"/></g><path d="M555.4 649.5c0 4.9.1 7.1.3 4.8.2-2.3.2-6.4 0-9-.2-2.6-.3-.8-.3 4.2zm-164 480.5c0 12.9.2 18.2.3 11.7.2-6.4.2-17 0-23.5-.1-6.4-.3-1.1-.3 11.8z" stroke-width="3" fill="#FFFFE5" stroke="#FFFFE5"/><path d="M371.2 1091.7c4.8.2 12.9.2 18 0 5.1-.1 1.2-.3-8.7-.3-9.9 0-14.1.2-9.3.3zm2.2 38.3c0 12.9.2 18.2.3 11.7.2-6.4.2-17 0-23.5-.1-6.4-.3-1.1-.3 11.8zm125 12.5c0 6.6.1 9.2.3 5.7.2-3.4.2-8.8 0-12-.2-3.1-.3-.3-.3 6.3z" stroke-width="3" fill="#E5E5E5" stroke="#E5E5E5"/><path d="M556.4 579c0 5.2.1 7.4.3 4.7.2-2.6.2-6.8 0-9.5-.2-2.6-.3-.4-.3 4.8z" fill="#E5CCB2" stroke="#E5CCB2" stroke-width="3"/><path d="M370.8 1092.7c5 .2 13.4.2 18.5 0 5-.1.9-.3-9.3-.3-10.2 0-14.3.2-9.2.3z" fill="#B2B27F" stroke="#B2B27F" stroke-width="3"/><path d="M252.4 586c0 5.2.1 7.4.3 4.7.2-2.6.2-6.8 0-9.5-.2-2.6-.3-.4-.3 4.8z" fill="#B2997F" stroke="#B2997F" stroke-width="3"/><path d="M558.4 430c0 5.2.1 7.4.3 4.7.2-2.6.2-6.8 0-9.5-.2-2.6-.3-.4-.3 4.8z" fill="#997F4C" stroke="#997F4C" stroke-width="3"/><path d="M609.3 512.7c3.7.2 9.6.2 13 0 3.4-.2.4-.3-6.8-.3-7.1 0-9.9.1-6.2.3zm-212.9 27.8c0 4.9.1 7.1.3 4.8.2-2.3.2-6.4 0-9-.2-2.6-.3-.8-.3 4.2zm-1 38c0 11 .2 15.6.3 10.3.2-5.3.2-14.3 0-20-.1-5.7-.3-1.3-.3 9.7zm155-4c0 7.7.2 10.7.3 6.7.2-4 .2-10.3 0-14-.2-3.7-.3-.4-.3 7.3zm4 62.5c0 9.6.2 13.6.3 8.7.2-4.8.2-12.6 0-17.5-.1-4.8-.3-.8-.3 8.8z" stroke-width="3" fill="#7F4C19" stroke="#7F4C19"/><g fill="#664C00" stroke="#664C00" stroke-width="3"><path d="M482 106.1c-28.1 2.6-53.6 11.7-83.4 29.6-4.9 2.9-9.6 5.3-10.4 5.3-.8 0-3.7-1.6-6.3-3.5-2.7-1.9-5.1-3.5-5.4-3.5-.3 0-2.8-1.1-5.6-2.5-7.4-3.5-15.5-4.8-26.7-4.3-10.3.5-17.4 2.9-26.7 9.2-6 4-16.9 15.8-20.6 22.3-3.2 5.5-3.3 6.3-3.3 16.3 0 10.1.1 10.7 3.4 16.4 6.3 11.1 20.9 23.2 38.3 31.6 3.7 1.8 6.7 3.6 6.7 4 0 .4-1.8 4-3.9 7.9-2.2 3.9-4.3 8.2-4.7 9.4-.4 1.2-1.5 4-2.5 6.2s-3 8.9-4.4 14.8c-5.6 24.1-1.7 47.1 11.3 65.9 3.3 4.8 15.5 17.4 21.3 22 1.9 1.4 5.9 4.6 8.9 7 7.5 6 19.8 14.7 26 18.3l5.1 3-.6 32c-.3 17.6-1 63.9-1.6 103-1.7 122-3.8 150.2-12.5 167.4-6.8 13.7-14.2 20.5-27.5 25.5-8.5 3.2-25.6 4.8-39.7 3.6-8.6-.7-11.4-1.3-17.5-4.2-8.4-4-19.7-14.2-25.3-22.8-3.8-6-12.4-23.2-12.4-25.2-.1-.7-.8-3.1-1.6-5.3-1.3-3.6-3.6-13.9-6.5-29.5-.6-3-1.4-16.5-1.8-30-.8-24-.9-24.6-3.5-29.5-3.3-6-9.7-12.8-15.1-15.9-2.2-1.3-7.7-3.5-12.3-5-11.9-3.7-29.4-3.7-43.7 0-32.1 8.3-56.2 28.2-70.3 57.9-13.4 28.2-15.1 68.5-4.9 111.5 2.5 10.1 10.1 34.2 13.5 42.5 7.5 18.1 21.7 41.3 35.7 58.4 5.5 6.7 21 21.1 29 27 10.5 7.6 12.8 9.1 21.3 13.2 3.4 1.7 6.1 3.4 5.9 3.7-1.6 3.3-7.2 15.2-10.2 21.7-7.1 15.5-8.2 18-10 23-1 2.7-2.1 5.4-2.5 6-.4.5-2.1 5.3-3.8 10.5-8.4 26.1-7.3 40.5 3.4 44.6 3.7 1.4 5.4 1.5 11.9.5 4.2-.6 9.6-2 12-3.1 2.4-1.1 4.7-2 5.1-2 1.3 0 14.8-7.2 18.3-9.8 4.6-3.4 13-11.9 15.5-15.7 7.5-11.4 13.5-28 20.7-57.4l1.1-4.4 7.5.7c8.7.7 9.6 1.1 8.3 3.4-.5.9-2.6 6-4.5 11.2-2 5.2-4.1 10.6-4.7 12-6.9 15.4-14.8 43.2-14.8 52.5 0 7.5 1.6 10.4 7.6 13.2 4.4 2.1 6.3 2.4 12.1 2 8.4-.5 16.3-2.7 24.5-7 7.9-4 8.7-4.6 17.6-13.4 7.2-7.2 8.8-9.8 17.2-28.8 3.2-7.4 10.2-29 12-37.5 2-9.5 2.1-9.7 11.3-10.5 17.6-1.5 51.4-9.3 60.2-13.9 1.7-.9 3.6-1.6 4.2-1.6 1.8 0 27.2-11.8 28.3-13.1.3-.3 2-1.4 3.8-2.3 1.8-.9 5.1-3 7.5-4.7 2.3-1.6 5.8-4 7.7-5.3 7.1-4.7 22.9-19.7 30.3-28.7 4.2-5.2 8.3-10.2 9.2-11.2.8-.9 1.5-2 1.5-2.3 0-.3 1.3-2.4 2.9-4.7 5.5-8.2 8.1-12.9 14.4-26.7 6.3-13.6 10.1-25.8 14.7-46.8 4.8-22.2 4.8-21.3 7.6-129.6l.7-27 5.6-6c9.1-10.1 11.5-12.7 19.3-21.6 11-12.6 12.4-13.1 34.3-13.9 16.2-.5 18.4-.8 21.6-2.8 5.7-3.6 7.4-8.4 5.9-16.3-1-5.4-4.2-11.3-8.8-16-1.3-1.4-4.9-6.3-7.9-11-4.7-7.3-15.4-18.9-17.5-19-.4 0-1.3-.6-2-1.3-.7-.7-4.7-2.7-8.8-4.3-7-2.7-8.4-2.9-21.1-2.9-10.2 0-14 .3-15.3 1.4-1.1.9-2 1.1-2.7.4-.6-.6-.8-9.3-.7-22.2l.3-21.3 8.5-4.5c4.7-2.5 9.9-5.2 11.5-6.1 1.7-.8 3.2-1.9 3.5-2.2.3-.4 2.1-1.5 4-2.5 1.8-1 4-2.4 4.8-3.1.7-.8 2.3-1.9 3.5-2.5 1.1-.7 2.6-1.6 3.1-2 .6-.5 5.6-4.4 11.1-8.7 17.5-13.7 32.1-30.8 38-44.2.8-1.9 2.2-4.8 3.1-6.4 2-3.8 6.4-24.7 6.4-30.4 0-6.8-4.7-27.6-7.5-33.1-3.6-7.3-3.4-8.8 1.8-10.1 2.3-.6 5.1-1.5 6.2-2 1.1-.4 4.3-1.7 7-2.7 12.1-4.3 23.9-13.1 29.8-22.1 8.8-13.6 6.9-31.1-5.6-51.3-1.2-1.9-3.2-4.6-4.4-5.9-1.3-1.3-2.3-2.6-2.3-2.9 0-1.1-11.4-9.7-16.4-12.4-14.3-7.9-35.4-5.1-53.7 6.9-3.6 2.4-7.2 4.4-7.9 4.4-.8 0-4.8-3.3-8.9-7.3-4.2-4-8.9-8.2-10.6-9.5-1.6-1.2-4.6-3.4-6.7-4.9-6.4-4.9-18.5-11.7-26.4-14.9-22.8-9.1-45.3-12.5-68.4-10.3zm41.5 6.3c15.6 3.7 21.9 6 35 12.8 11.4 6 22.9 14.3 33.4 24.4l10.6 10.1 4.5-3.4c6.9-5.1 15.8-9.8 23.2-12.3 5.7-1.9 8.2-2.2 17-1.8 12.9.6 18.2 3.1 27.7 12.6 7.2 7.2 11.3 13.2 15.8 22.7 2.5 5.4 2.8 7 2.8 17 0 10.8-.1 11.2-3.3 16.5-5.5 8.9-19.3 18.9-30.3 22.1-2.4.7-4.8 1.6-5.4 1.9-.5.4-4.3 1.5-8.2 2.5-6.9 1.6-7.3 1.9-7.3 4.5 0 1.5-.9 3.5-2.1 4.6-6.5 5.9-12.8 25.4-11.5 35.4 1.7 13.1 7.9 27.8 15 35.8 1.7 1.9 1.8 2.6.8 4-.7.9-1.7 2.8-2.2 4-3.5 8.1-22 27.9-35.5 37.9-3.9 2.9-7.6 5.7-8.3 6.4-2.4 2-2.6 0-.5-3.9 6.9-12.3 8.2-25.5 3.6-36.9-4-10-16.1-21.5-28.1-26.8-2.3-1.1-4.2-2.2-4.2-2.6 0-.4-1.2-1-2.6-1.3-2.3-.6-2.5-1-1.9-3.9.4-1.8 1.6-5.8 2.6-8.9 2.6-7.7 3.7-19.7 2.8-29.3-1.1-12.4-6.4-20.2-17.9-26.1-4.9-2.6-6.6-2.9-14.5-2.9-8.5 0-9.4.2-14 3.2-10 6.4-17.4 18.8-22.6 37.8-2.4 9-2.4 9.7.3 9.3 1.8-.2 2.4-1.6 4-8.2 1-4.4 2.2-8.4 2.7-9 .5-.6 1.4-2.9 2.1-5.1 3.1-9.8 13.5-21.7 20.5-23.6 11.7-3.2 26.6 3.4 32.7 14.5 2.1 3.7 2.3 5.4 2.3 17.6 0 11.5-.4 14.6-2.4 20.5-4.2 12.7-2.5 11.7-13.7 7.9-5.4-1.8-9.9-3.2-10.1-3-.2.2.3.9 1.2 1.6.8.7 1.5 1.8 1.5 2.5s2.8 2 6.3 3c3.4.9 6.7 2 7.2 2.5.6.4 3.4 1.5 6.3 2.5 2.8 1.1 5.2 2.2 5.2 2.6 0 .4 1 .9 2.3 1.3 3.9.9 17.5 10.5 21.6 15.2 5.2 5.9 9.1 15.8 9.1 22.9 0 10-5.9 22.8-14.9 32.2-7.6 7.9-28.4 19.4-40.7 22.4-2.7.6-5.4 1.6-6 2-.6.5-5.5 1.6-11 2.4-5.4.9-11.5 2-13.5 2.5-4.7 1.3-29.7 1.3-35.1 0-2.4-.5-8.6-1.7-13.8-2.5-5.2-.9-9.9-2-10.5-2.4-.5-.5-3.2-1.4-5.9-2-2.8-.7-6.9-2.1-9.2-3.2-2.4-1-4.6-1.9-5-1.9-1.1 0-10.9-4.6-22.4-10.5-3.8-1.9-22-19.8-22-21.6 0-.6-.9-2.4-2.1-4-2.3-3.3-5.9-15.4-5.9-19.9 0-1.7.9-6 2.1-9.5 1.6-5.1 3.2-7.7 7.3-11.8 2.9-2.8 6-5.7 6.8-6.4 3-2.2 17.3-9.3 18.8-9.3.9 0 2-.4 2.6-1 .9-.9 13.2-4.2 23-6.1 4.4-.9 12.6-5.9 9.6-5.9s-16.8 2.4-17.7 3c-1.6 1.2-16.4 4.2-17.4 3.6-.5-.4-1.4-3.6-1.9-7.4-3.3-21.8-3.3-21-1.6-30.5 2.5-14.5 8.1-21.4 19.6-23.8 11-2.4 20.1.2 27.3 7.8 5.7 6.1 11.5 20.2 13.8 34 1 5.6 1.4 6.3 3.4 6.3 2.2 0 2.3-.3 1.7-4.3-.3-2.3-1-5.6-1.5-7.2-.5-1.7-1.6-5.6-2.4-8.8-2.4-9.1-7.2-17.6-13.9-24.3-7.3-7.3-12.3-9-24.6-8.1-8.8.6-14.1 2.8-19.4 8.3-4.7 4.9-6.6 9.2-8.3 19.5-1.5 9-1.3 12.3 2.3 37.5l.6 4-7.8 4c-5.6 2.8-9.9 6-14.9 11-6 6-7.4 8.1-9.3 13.8-3.8 11.4-2.2 22.8 4.8 35 4.6 8.1 2.2 7.3-11.5-3.7-21.5-17.3-28.1-24.4-35.2-38.3-2.7-5.2-6.2-18-7-25.4l-.6-5.8 5.4-1.1c9.7-2.1 21.8-8.9 29.1-16.4 8.5-8.8 5.6-20.6-9.1-36-3.1-3.3-5.6-6.8-5.6-7.8 0-1.4-2.1-2.9-8-5.7-4.4-2.1-9.3-4.6-11-5.6-11.1-7.1-14-9.2-19.2-14.4-3.2-3.2-7.1-8.5-8.8-11.6-2.6-5.1-3-6.8-3-13.9.1-7.1.4-8.9 3-13.7 2.8-5.2 14-17.2 20.1-21.6 1.6-1.1 4.5-2.6 6.4-3.4 1.9-.8 3.7-1.7 4-2.1.8-1.1 10.8-2.9 16.4-2.9 5.7 0 16.5 1.7 18.1 2.9.6.4 2.9 1.5 5.2 2.4 2.4.9 7.2 3.7 10.8 6.3l6.6 4.5 3.2-2c1.8-1.1 4.8-3 6.7-4.1 1.9-1.1 5.3-3.2 7.5-4.5 5.1-3.1 22.1-11.5 23.3-11.5.5 0 1.5 2.8 2.1 6.2 2.3 12.1 4.8 17.2 11.2 22.5 3.1 2.6 3.9 2.8 12.3 2.8 8.7 0 9.4-.2 14.7-3.5 8.6-5.3 12.4-10.5 14.5-19.7 1.1-5.2 1.5-9.9 1.1-14.9-.3-4-.2-7.6.1-7.9 1.1-1.2 32.3.3 38.7 1.9zM408.4 386.9c.6.9 16.8 9.1 18 9.1.3 0 2.5.9 4.9 1.9 6.2 2.9 21.8 7.8 27.1 8.6 2.5.4 4.8 1.1 5.1 1.5.3.5-.7 4.1-2.2 8.2-2.3 6.3-2.7 8.8-2.6 18.3 0 9.4.4 11.9 2.6 17.2 4.3 10.7 13.3 21.9 23.2 29.3 2.8 2.1 7.1 5.7 9.5 8 2.5 2.4 7.2 6.1 10.5 8.3 5.7 3.7 6.3 3.8 12.5 3.5 5.6-.3 7.2-.9 12-4.3 8-5.6 13.5-9.6 17.7-12.8 5.4-4.1 6-3.6 6.5 4 .3 5.6 1 7.6 3.5 11.3 4.5 6.5 10.6 12.5 16.9 16.7 3 2 5.4 4.1 5.4 4.8 0 3-29.4 34.6-41.6 44.5-10.9 9-16 11.7-26.5 14.3-12.8 3.2-25.4-3.3-33.1-17-3.1-5.6-5.8-6.9-5.8-3 0 5.4 11.3 18.5 18.7 21.9 3 1.3 4.5 2.7 5 4.6 1.1 4.6.8 54.1-.5 64.7-.6 5.5-1.6 14.9-2.2 21-.6 6-1.7 13.5-2.5 16.5-.7 3-1.8 8.9-2.5 13s-1.8 8.9-2.5 10.6c-.7 1.7-1.6 5-2 7.3-.8 4.8-1.9 5.1-5.7 1.4-2.3-2.2-4-2.8-9.3-3.1-5.6-.4-7.3 0-12.9 2.6-8 3.7-15.4 9.2-23.8 17.4-12.1 11.8-18.4 24.1-17.6 34.1.9 10.1 7.3 20.2 19.3 30.2l3 2.5-4.6 4.2c-5.5 5.1-6.5 5.9-10.4 8.4-1.7 1-3.6 2.4-4.3 3.1-.7.6-2.8 1.7-4.7 2.4-1.9.7-3.5 1.6-3.5 2 0 .4-2.4 1.5-5.2 2.5-2.9.9-5.8 2-6.4 2.5-.5.5-4.6 1.5-9 2.4-4.3.9-10.1 2.1-12.9 2.6-8.7 1.9-33.3-.7-44.7-4.5-10.9-3.8-31.3-3.8-38.4-.1-1.6.8-3.4 1.5-4 1.5-2 0-6.1-4.4-8.5-9-2.1-4.1-2.4-6.1-2.7-21.7-.4-15.9-.3-17.2 1.5-18.1 1-.5 6.8-1.5 12.8-2.1 6.1-.6 12.6-1.6 14.5-2.1 1.9-.5 6.9-1.4 11-2 4.1-.7 9.3-2 11.5-3 2.2-1 5.8-2.3 8-3 2.2-.7 4.2-1.6 4.5-2 .3-.4 2.3-1.6 4.5-2.8 7.9-3.9 23.5-16.5 23.5-18.8 0-3.1-2.5-2.1-9.7 3.9-9.8 8.1-19.4 13.8-29.4 17.6-7 2.7-12.2 3.8-34.4 7.2l-5.9.9-5.4-5.2c-11.1-10.8-12.8-12.1-21.1-16.4-10.7-5.5-20.8-6.2-28.8-2-4.3 2.2-11.7 10.1-14.2 15.2-6.1 12.1-5.1 28.4 2.5 44.2l4.5 9.2-8.2 16.6c-4.5 9-8.6 16.7-9 17-1.2.7-17.1-7.9-24.6-13.4-10.5-7.6-18.4-14.8-29-26.4-7.2-7.9-7.2-7.9-1-16.1 7.2-9.7 10.4-15.5 13.3-23.9 5.2-15.3 2-27.3-10.3-39.6-4.1-3.9-7.8-7.2-8.3-7.2-.6 0-3.3-1.1-6.2-2.5-7.2-3.5-13.7-3.3-22.1.4-3.6 1.6-6.8 3.4-7.1 4-1.7 2.7-3.4.7-5.3-6.2-6.3-22.1-8.1-33.4-8.9-54.7-1.6-41.7 9.8-73.6 34.1-95.8 11.2-10.2 27-19 40.5-22.5 13.1-3.3 15.3-3.6 25.8-3.7 12.1 0 12.4.2 9.6 9.3-2.9 9.4-2.6 23.3.6 31.7 4.7 12.1 20.5 25.1 33.5 27.6 2.5.4 3.6 1.2 3.9 2.8.2 1.1 1.6 8.7 3 16.9 2.4 13.1 6.8 29.3 9.4 34.4.6 1 2.5 4.9 4.3 8.7 3.1 6.4 4.5 8.6 11.6 17.7 2.9 3.7 14.8 13.8 18.1 15.2 1.3.6 2.2 2.6 2.9 6.6 2.1 10.8 10.2 20.3 19.8 23 5.1 1.4 18.1 1.3 22.2-.2 8.5-3.2 18-12.9 23.8-24.5 1.8-3.7 4.3-6.9 6.5-8.4 11.1-7.5 19-19.9 23.5-36.8 2.7-10.2 3.3-14.8 4.4-33.7.9-15.2 3.1-72.5 3.1-81.4 0-2.5.4-2.9 2.9-2.9 6.1 0 11.9-6.2 18.6-19.9 9-18.6 8.5-35-1.4-44.9-4.4-4.4-13.8-9.2-18-9.2-1.3 0-1.4-10.3-.4-59.3l.6-33.7h2.3c1.3 0 2.5.4 2.8.9zm144.8 49.8c-.2 20.3-.9 37.3-1.4 37.9-.4.7-3.9 3.2-7.6 5.8-3.7 2.5-10.3 7.2-14.7 10.3-10.3 7.3-14.5 7.9-22.4 3.2l-5.4-3.1.6-39.5c.3-21.8.9-39.8 1.2-40.1.3-.4 3.2-.9 6.3-1.3 8.1-.9 26.3-4.7 28.7-5.9 2.9-1.5 10.6-3.8 13.1-3.9l2.1-.1-.5 36.7zm39 6.9c.7.5 3 1.6 5.1 2.3 5.4 1.8 12.3 6.7 18 12.5 5.8 6 6.6 9.5 1.4 6.2-2.8-1.8-16.2-4.6-22.1-4.6-7.9 0-19 2.7-27.6 6.8-4.7 2.2-8.8 3.8-9.2 3.6-.9-.6-1-16.3-.2-21.7.5-2.9 1.1-3.7 2.8-3.7 1.2 0 2.6-.4 3.2-.9.5-.5 2-1.2 3.4-1.4 4.1-.9 23.8-.1 25.2.9zm13.1 22c3.7.7 5.3 3.4 2 3.4-2.2.1-9.5 5-10.1 6.7-.8 2.6 2.7 2.4 7-.3 5.5-3.5 13.3-3.7 19.4-.6 7 3.6 15.2 14.5 9.7 12.8-11.1-3.5-27.9-1.6-29.8 3.2-1.1 2.9 1.1 3.4 5.4 1.1 3.8-1.9 5.3-2.1 12.9-1.6 4.8.3 10.5 1.2 12.7 2 3.5 1.2 4 1.8 4.3 4.9.4 4.7-2.9 8.6-8.3 9.8-2.2.5-10.7 1-18.8 1-15.8 0-18.5.6-25.3 5.7-4.5 3.3-4.3 3.4-14.8-4.7-3.3-2.5-7.6-7.3-10.8-11.9-3.2-4.5-4.6-10.9-3.4-15.5.9-3.5 7.1-9.3 11.5-10.7 2-.6 4.2-1.6 4.9-2.2 3.5-2.8 22.1-4.6 31.5-3.1zM551 572.2c.1 19.1-2 89.4-3 105.3-1.7 25.8-8.8 55.4-18.2 76.3-1.5 3.4-2.8 6.4-2.8 6.6 0 .7-10.2 18.7-12.3 21.9-7.5 11-16 21.1-25.7 30.3-8.7 8.4-17.3 15.4-18.9 15.4-.6 0-1.1.4-1.1.9 0 1-16.4 11-22.1 13.6-1.9.8-4.1 2-4.9 2.5-2.4 1.5-15.3 6.8-18.5 7.6-1.6.4-3.9 1.3-5 1.9-1.1.7-4.5 1.8-7.5 2.5s-6.3 1.7-7.3 2.2c-1 .5-6.2 1.8-11.5 2.9-5.3 1.1-11.7 2.4-14.2 3-22.3 4.9-96.1 7.5-104.4 3.7-3-1.3-2.9-2.8 1.6-13.1 4.8-11.2 9.3-16.6 17.6-21.4 3.8-2.1 6.3-2.7 13.2-3.1 4.7-.2 10.8.1 13.5.7 27.9 6 30.6 6.4 43.5 6.8 8.3.3 15.6 0 19-.7 12.1-2.7 17.6-4.1 20.5-5.4 1.7-.8 4.6-2.1 6.5-2.9 3.8-1.7 10.5-5.5 13-7.4 40.2-30.7 58-61.5 70.6-122.3 5.5-26.3 7.6-48.7 8.1-85.3l.4-29.7h4.2c4.4-.1 16.8-4.2 22.6-7.5 3.8-2.3 18.6-13.9 19.6-15.5.3-.5 1.3-1 2.1-1 1.1 0 1.4 2.1 1.4 11.2zm-278.7 220c-.8 11.1 1.2 26.9 4.2 32.8 1.4 2.8 3.4 5.6 4.5 6.2 2.8 1.8 2.5 3.2-2.1 9.1-6.8 8.6-10.8 18.4-15.9 38.7-8.4 34.3-14.3 48.7-24.3 59.7-5.2 5.6-13.4 11.9-14.4 10.9-.3-.3.8-2.7 2.4-5.3 3.8-6.2 10-19.2 10.8-22.5.4-1.5.4-3.1.1-3.7-.8-1.2-3.6-.3-3.6 1.1 0 1.8-9 19.9-12.7 25.6-2 3.1-5.1 7.1-6.7 8.8-4.7 4.7-17.6 9.5-17.6 6.5 0-.5 1.1-2.2 2.3-3.8 7.5-8.9 20.8-35.7 19.1-38.4-1.2-2-3.3-.7-4.5 2.8-1.5 4.8-10.6 22.4-14.7 28.3-1.7 2.5-4.9 6.6-7.1 9-3.9 4.4-4 4.5-6.8 3-6.9-3.8-6.6-19.2 1.1-40.5 5.4-15.4 7.7-20.9 18.8-44.9 6.8-14.9 28.4-56.7 32.3-62.6 2.8-4.1 7.9-10.5 11.5-14.1 6.7-6.7 17.8-13.9 21.7-13.9 2.1 0 2.1.3 1.6 7.2zm76.7 83c0 1.4-2.5 11-5.8 22.3-2.9 10.2-9.3 26.3-14.4 36.1-3.2 6-11.5 15.4-16.4 18.5-3.9 2.3-5.6 1.9-3.2-.8 3.7-4.4 13.1-25 13.2-29.2.2-5.4-2-4.7-4.3 1.3-1.1 3.1-2.5 6.4-3 7.3-.5 1-2.6 5.2-4.6 9.3-2 4.1-6 10.5-8.8 14.3-4.2 5.6-5.8 6.9-9.2 7.7-2.2.6-5.5 1.5-7.3 2.1-4.8 1.6-5.8 0-2.8-4.2 6.9-9.5 9.8-14.1 13.9-22.2 5.2-10.1 8.4-18.4 7.4-19.3-1.1-1.2-3.9.6-4.5 2.9-.8 3-11.3 23.5-14.3 27.8-5.5 7.9-11.1 13.9-13 13.9-3.2 0-6.9-4.4-6.9-8.2 0-8.8 7.1-34.3 14.6-52.1 5.9-14 7.2-17.4 8.3-20.7 2.4-7.2 1.5-6.9 25.7-7.3 12-.1 24.9-.3 28.7-.5 4.8-.1 6.7.1 6.7 1z"/><path d="M518.5 136.2c-2.2 1.2-5.5 3.7-7.3 5.7-2.9 3.1-3.3 4.1-2.9 7.6.2 2.2 1.6 5.7 3 7.8 3.7 5.4 14.1 13.6 22.2 17.6 3.9 1.8 7.9 3.8 8.9 4.3 3.7 2 13.3 2.2 16.1.4 7.4-4.9-1.2-23.5-17.2-37.3-10.1-8.8-15.2-10.1-22.8-6.1zm-105.4 71.2c-2.4.9-4.2 2.6-6.2 6.2-4.2 7.1-3.5 8.4 1.3 2.9 2.4-2.7 6.3-6.1 8.7-7.7 3.8-2.4 4.1-2.8 2-2.7-1.3 0-3.9.6-5.8 1.3zm149.8 11.4c2.8 2 8.9 8.2 11.3 11.4l1.7 2.3.1-2.6c0-4.1-5.3-10.6-9.7-11.8-5.3-1.5-6.2-1.3-3.4.7zm-75.5 119.8c-1.1 4.3.3 24.6 2 29.4.9 2.6 1.2 4.8.6 5.4-1.4 1.4-13.9-1.3-20.8-4.5-7.8-3.6-11.7-6.4-21-15.4-7.8-7.5-10.2-8.8-10.2-5.7 0 1.8 13.6 15.5 19.6 19.7 17.2 12 40 14 57.7 5.3 3.4-1.7 8.7-4.9 11.7-7.2 7-5.2 17-15.2 17-17.1 0-3-3.3-1.3-9.6 5-10.3 10.2-21.9 17.2-32.4 19.4-3 .7-4.8.6-5.7-.1-2.8-2.3-4.7-12.1-4.8-24.5 0-11-.2-12.3-1.7-12.3-1.1 0-2 1.1-2.4 2.6zm-54.7 271c-4.7 3.5-6.7 9.6-6.7 20.8.1 16.8 4.7 28.4 13 32.1 4 1.8 4.2 1.8 8.8-.1 13.4-5.6 23.4-34.9 15.8-46.4-3.9-6-7.8-7.8-18.1-8.5-8.7-.6-9.1-.6-12.8 2.1zm-267.4 12.8c-6 1.9-10.9 5.2-14.1 9.4-2.3 3-2.7 4.5-2.7 9.6 0 7.3 3.2 15.2 11 27.1 10.6 16 24.1 25.3 39.3 27.1 6 .6 6.2.6 9.1-2.5 3.7-3.9 4.5-8.9 3.8-22-1-18.7-10.1-37.3-22.4-45.8-4.6-3.2-6.1-3.6-12.5-3.9-4.4-.2-9 .2-11.5 1z"/></g><path d="M403.4 417.5c0 7.7.2 10.7.3 6.7.2-4 .2-10.3 0-14-.2-3.7-.3-.4-.3 7.3zm-1 49c0 6.6.1 9.2.3 5.7.2-3.4.2-8.8 0-12-.2-3.1-.3-.3-.3 6.3z" stroke-width="3" fill="#960" stroke="#960"/><path d="M491.8 110.7c2.3.2 6.1.2 8.5 0 2.3-.2.4-.4-4.3-.4s-6.6.2-4.2.4zm-88.4 329.8c0 4.9.1 7.1.3 4.8.2-2.3.2-6.4 0-9-.2-2.6-.3-.8-.3 4.2zM277.4 798c0 5.2.1 7.4.3 4.7.2-2.6.2-6.8 0-9.5-.2-2.6-.3-.4-.3 4.8z" stroke-width="3" fill="#B27F19" stroke="#B27F19"/><path d="M402.4 440.5c0 5.5.1 7.6.3 4.7.2-2.9.2-7.4 0-10-.2-2.6-.3-.2-.3 5.3zm-3 174.5c0 6.9.1 9.7.3 6.2.2-3.4.2-9 0-12.5-.2-3.4-.3-.6-.3 6.3zm97 1.5c0 7.1.1 9.9.3 6.2.2-3.7.2-9.6 0-13-.2-3.4-.3-.4-.3 6.8zm-71 14c0 4.9.1 7.1.3 4.8.2-2.3.2-6.4 0-9-.2-2.6-.3-.8-.3 4.2zM215.1 785.6c.1 3.2.4 7 .9 8.4.4 1.4.5-1.1.2-5.5-.6-9.5-1.2-11.3-1.1-2.9zm144.7 49.1c2.9.2 7.4.2 10 0 2.6-.2.2-.3-5.3-.3s-7.6.1-4.7.3z" stroke-width="3" fill="#7F4C00" stroke="#7F4C00"/><path d="M403.3 458c0 4.7.2 6.6.4 4.2.2-2.3.2-6.1 0-8.5-.2-2.3-.4-.4-.4 4.3zm-1.9 105.5c0 4.9.1 7.1.3 4.8.2-2.3.2-6.4 0-9-.2-2.6-.3-.8-.3 4.2z" stroke-width="3" fill="#CC9919" stroke="#CC9919"/><path d="M485.7 111.7c-.3.5 2.9.7 7.1.5 13.5-.4 15-.9 4-1-5.9-.1-10.9.1-11.1.5zM401.4 594c0 9.6.2 13.6.3 8.7.2-4.8.2-12.6 0-17.5-.1-4.8-.3-.8-.3 8.8zm-300 68.5c0 6.6.1 9.2.3 5.7.2-3.4.2-8.8 0-12-.2-3.1-.3-.3-.3 6.3z" stroke-width="3" fill="#E5B219" stroke="#E5B219"/><path d="M486.8 121c.5 13.2-3.6 23.8-11.8 30.8-4 3.3-12.6 6.5-19 7-10 .7-15.1-1.6-20.7-9.5-2.1-2.9-7.3-17.3-7.3-20.1 0-2.3-3.8-.8-16.7 6.5-6.5 3.6-13 7.2-14.4 8-1.5.7-3.2 2-3.9 2.8-2.2 2.7-6.8 1.7-13.3-2.8-3.4-2.4-8.4-5.2-11.2-6.2-2.7-1-5.6-2.3-6.4-2.9-.8-.7-6.4-1.1-13.5-1.1-11.2 0-12.5.2-17.8 2.8-12.7 6.1-23.4 16-28.8 26.8-9.4 18.6 3.8 38.3 36.1 54.1 8.5 4.1 10.9 5.7 10.9 7.3 0 1.2 2.6 4.8 5.8 8 11.3 11.7 16.1 23.2 13.3 31.8-2.8 8.3-21.8 21.3-34 23.3l-4.2.7.6 5.1c1.9 13.9 5.5 23.9 12.5 34.2 3.4 5 13.9 15.7 20.1 20.6 1.9 1.5 6.3 4.9 9.8 7.7 6.4 5.1 8.3 6.3 6.2 3.7-.6-.7-2.2-4.6-3.6-8.6-3.3-9.7-3.3-17.5 0-26.5 2.6-7.3 3.7-8.9 10.1-15 6-5.7 6.3-5.9 14.5-10.2l7.5-4-1.9-8.9c-2.9-13.5-2.8-29.9.1-39.3 2-6.3 3.3-8.3 8.1-13.2 6.5-6.4 9.6-7.7 21.1-8.6 11.5-.9 17.8 1.3 24.9 8.5 3.1 3.1 7.1 8.2 8.8 11.2 3.6 6.5 8.3 21.2 9 28.6l.6 5.1 7.1-.5c3.9-.2 7.4-.7 7.8-1.1.4-.4 1.6-4.1 2.6-8.2 2.2-8.7 6.8-20.7 8.8-23 .8-.8 1.4-2 1.4-2.5 0-1.6 7.9-10.5 12-13.5 5.3-3.8 11.7-5.3 19.7-4.6 12.3 1.2 22.5 7.9 27.8 18.4 2.6 5 3 7.1 3.4 16.1.4 10.9-1.2 23.9-3.4 28.2-.7 1.4-1.5 3.9-1.9 5.5-.6 2.8-.4 3.1 4.4 5.4 14.2 6.8 25.8 16.8 31.1 27.2 3.2 6.1 3.4 6.9 3.3 17.4 0 9.2-.4 11.8-2.2 15.9-1.2 2.7-2 5.1-1.8 5.4.7.7 16.1-12.4 22.8-19.4 6.9-7.2 12.6-14.5 16-20.3l2.6-4.4-3.3-4.7c-5.2-7.4-8.6-14.7-11.2-24-2.9-10.8-2.9-17.6.1-27.8 2.3-7.4 7.9-18 10.5-19.6.6-.4 1.1-1.8 1.1-3 0-3.1 1.6-4.3 7.5-5.6 2.8-.6 5.9-1.4 7-1.9 1.1-.5 4.4-1.7 7.4-2.7 13.4-4.2 26-14 31-24 3.8-7.5 3.5-18.4-.8-28.4-6.4-14.9-16.5-26.5-28-32.1-5.9-2.9-7.5-3.2-15.6-3.3-12.7 0-22.2 3.7-38.1 14.8l-5.5 3.9-8.7-8.6c-10.9-10.7-13.9-13.2-23.2-19.4-7.4-5-18.8-11.3-20.3-11.3-.4 0-2.6-.9-5-2-11.8-5.5-28.9-8.9-46.2-8.9l-12-.1.3 9zm46.7 13.1c5.3 2.9 9.7 6.7 17.4 15.3 11.4 12.7 15.3 25.3 9.5 30.7-8.6 8-40.2-5.7-50.9-22.1-2.3-3.4-3-5.7-3-9.2 0-4.1.5-5.2 3.8-8.6 7.7-7.9 15.8-10 23.2-6.1zM365 155.6c17 8.4 21.5 18.9 14.1 33.2-3.6 7.2-11.1 15.2-14 15.2-1.1 0-2.3.4-2.6 1-1.2 1.9-11.8 1.1-19-1.5-3.8-1.3-7.1-2.9-7.3-3.4-.2-.6-.9-1.1-1.6-1.1-2 0-10.5-9.5-12.2-13.5-3.1-7.6-1.1-15.5 5.8-22.4 4.5-4.5 12.4-9.3 17.3-10.5 4.6-1.1 14.1.3 19.5 3zm292.4 14c6.4 3.2 13.2 9.3 14.7 13.1.5 1.3.9 5 .9 8.2 0 16.7-21.9 32.1-39.9 28.1-4.8-1.1-6.4-2.1-11.1-6.9-7.6-7.9-10.3-13.7-9.8-21 .6-8 4.1-12.8 14.7-19.8 7.1-4.7 9.3-5.3 17.7-4.9 5.4.2 8.4 1 12.8 3.2zM421.6 205c2.6 0 1.4 2.9-1.8 4.5-4.3 2.1-6.4 3.9-11.6 10.3-4.8 5.7-6.2 6.4-6.2 2.9 0-4.4 2.2-10 5.3-13.4 3.1-3.3 8.6-5.6 11.5-4.7.8.2 2 .4 2.8.4zM570 217.5c3.8 1.9 7.6 8.7 8.4 14.7.8 6.6-.9 6.2-6.2-1.3-2.6-3.6-6.3-7.3-9.2-9.1-2.8-1.7-5-3.7-5-4.4 0-1.9 8.3-1.8 12 .1zM404.7 410.7c-.4 12.4-.7 32.4-.7 44.4V477l2.8.7c10 2.5 18.8 9.9 22.1 18.8 3.9 10.4 2 23.5-5.7 39.5-5.3 11.2-9.8 16.4-15.7 18.1-3.2.9-4.7 2-5 3.4-.2 1.1-.6 18-.9 37.5-.6 44.3-2.3 63.5-7.3 80-4.8 16.1-11.9 26.7-22.5 33.9-2.2 1.5-4.7 4.7-6.4 8-7 14-16.2 22.8-27.3 26.1-8.2 2.4-10.1 2.5-18.3.4-12.3-3-21.9-12.7-23.4-23.6-.8-5.6-.7-5.5-7.4-10-18.4-12.4-31.3-35.4-38.9-69.3-1.1-5-2.3-12-2.6-15.6l-.7-6.6-4.2-1.3c-13.9-4-26.8-14.2-32-25.3-4.6-9.7-5.4-28.2-1.7-38.1.6-1.5 1.1-3.2 1.1-3.7 0-1.5-21.2-.5-29.9 1.4-9.8 2.2-29.4 10.5-32.1 13.7-.3.3-1.7 1.3-3.3 2.3-4.5 2.9-16.4 14.6-20.5 20.1-3.5 4.7-10.2 15.4-10.2 16.2 0 .2-1.1 2.7-2.4 5.7-2.3 5-5.7 16.1-7.7 25.2-1.7 7.3-2.2 35.6-1 47.5 1.2 11.9 4.9 30.7 7.7 39.5.9 2.7 1.8 5.6 2 6.4.4 1.1.7 1.1 2.2-.1 7.8-6.9 21.2-8.4 31.4-3.6 14.4 6.9 25.2 20.8 26.5 34.2.7 7.9-.8 15.1-5.4 24.6-3.5 7.4-10.9 18.6-13.8 21-.8.7-1.5 1.6-1.5 2.1 0 2.5 20.7 23.1 31.2 31.1 9 6.9 22.5 14.8 25.2 14.8.7 0 4.7-7 9-15.5L225 821l-3.8-7.8c-11.5-23-9.2-43.9 6.2-57.9 5.7-5.2 12.9-8.3 19.1-8.3 9.8 0 25.2 8.5 37.3 20.7 6.5 6.5 7.5 6.9 12.6 5.4 1.7-.5 8.2-1.7 14.5-2.5 6.2-.9 11.9-1.9 12.5-2.4.6-.5 3.1-1.4 5.6-2.1 4.1-1.2 11.4-4.8 18-9 3.7-2.3 15.3-11.5 16.9-13.4 2.5-3.1 7.1-1.4 7.1 2.5 0 4.2-16.3 16.9-30.7 23.9-13 6.3-25.8 9.4-49.9 12l-11.2 1.1-.6 6.9c-1.5 14.8 1.5 31.1 6.6 36.6 2.6 2.7 4 2.9 7.4.6 4.9-3.2 35.8-2.6 40 .8 2 1.6 20.1 3.9 31.5 3.9 12.5 0 26.8-2 31.5-4.5 1.6-.8 3.4-1.5 3.9-1.5 1 0 15.6-7.1 16.5-8 .3-.3 3-2.2 6-4.2 3.1-2.1 6.8-5.1 8.4-6.7l2.8-2.9-7.5-7.4c-10.1-9.8-13.1-16.2-13.1-27.3 0-6.9.5-8.8 3.2-14.4 5.4-10.9 11.6-17.5 29.8-32 .6-.5 3.8-2.3 7.1-4 9.5-4.9 20.3-5.4 25.3-1.1 1.3 1.1 2.6 2 2.9 2 1.4 0 8.1-32 10.1-48 2.8-21.9 4.2-68.9 2.5-82.5-.7-5-1-5.4-4.7-7.1-7-3.2-18.8-17.7-18.8-23.2 0-1.1.7-2.5 1.5-3.2 1.4-1.2 5.5-.5 5.5.9 0 1.8 8 12.5 11.3 15.2 13.7 11.3 31.5 6.8 53.5-13.6 4.1-3.9 10.3-9.9 13.6-13.4 3.4-3.6 7-7.4 8.1-8.5 1.1-1.1 4.6-5.2 7.9-9.1 5.2-6.2 5.6-7.1 4.1-8-3.7-2.1-13.3-10.5-16.8-14.6-5.2-6-7.7-11.7-7.7-17.3v-4.8l-3 2.4c-11.4 8.9-21.2 15.4-25.4 16.8-6.3 2.1-13.9.7-20.1-3.5-2.9-2-6.8-5.2-8.6-7.1-1.9-1.9-5.6-5.1-8.4-7.1C468.9 472 459 457 457 441.5c-1.1-8.5.2-20.3 2.9-27.2 2.3-5.9 2.9-5.3-7.4-7.3-3.3-.7-6.4-1.6-7-2-.5-.4-3.7-1.5-7-2.5-3.3-.9-6.4-2-7-2.5-.5-.4-2.8-1.3-5-2s-7.8-3.3-12.4-5.7c-4.6-2.3-8.4-4.3-8.6-4.3-.1 0-.5 10.2-.8 22.7zm53 197.4c2.3 1.1 5.4 3.7 7 5.7 2.6 3.5 2.8 4.3 2.8 13.7 0 8.7-.4 10.9-2.8 16.8-2.8 6.9-5.7 11.7-9.2 15.4-2.7 2.8-9.5 6.3-12.3 6.3-4 0-10.1-4.1-13.1-8.9-6.1-9.7-8.5-29.1-4.8-39.7 1.8-5.2 6.7-10.8 10.2-11.8 4.1-1.1 18 .5 22.2 2.5zm-270.8 13.4c9.4 4.8 18 16.4 23.4 31.5 2.8 7.8 3 9.6 3.1 22.1.1 13.3 0 13.6-2.7 17.6-3.4 4.8-5.5 5.4-15 4.1-14.4-2-27.4-11.3-37.9-27.3-14.5-22.1-15-36.1-1.7-44.9 8.3-5.5 23.3-7 30.8-3.1z" stroke-width="3" fill="#FFCC19" stroke="#FFCC19"/><path d="M494.4 604c0 5.8.1 8.1.3 5.2.2-2.8.2-7.6 0-10.5-.2-2.8-.3-.5-.3 5.3zm0 24.5c0 5.5.1 7.6.3 4.7.2-2.9.2-7.4 0-10-.2-2.6-.3-.2-.3 5.3z" stroke-width="3" fill="#FFB219" stroke="#FFB219"/><path d="M390.4 1130c0 12.9.2 18.2.3 11.7.2-6.4.2-17 0-23.5-.1-6.4-.3-1.1-.3 11.8z" fill="#B2B299" stroke="#B2B299" stroke-width="3"/><path d="M346 152.9c-1.7.5-.5.7 4 .7 3.6-.1 7.9.2 9.5.7 2.1.5 2.5.4 1.4-.3-2.2-1.3-11.9-2.1-14.9-1.1zm34.7 19.3c1 3 1.2 5.3.5 8.4-.5 2.4-.6 4.2-.2 3.9 2.3-1.4 1.6-14.4-.9-15.9-.5-.3-.2 1.3.6 3.6zm232.7 13.3c-.7 1.9-1.4 5-1.4 7 0 3.4 2.3 10.5 3.4 10.5.3 0-.2-1.6-1-3.5-.7-1.9-1.4-5-1.4-7s.7-5.1 1.4-7c.8-1.9 1.3-3.5 1-3.5-.3 0-1.2 1.6-2 3.5z" stroke-width="3" fill="#FFB233" stroke="#FFB233"/><path d="M656 170.4c0 .2 2 1.6 4.4 3 2.5 1.4 5.9 4.3 7.6 6.3 1.8 2.1 2.7 2.8 2.1 1.7-1.3-2.7-7.2-7.9-11.1-9.9-1.7-.9-3-1.4-3-1.1zm-9 46.7c-1.4.6-5.5.9-9.2.7-3.7-.2-6.2 0-5.5.4 2 1.3 13 .8 16.2-.7 3.5-1.6 2.2-1.9-1.5-.4z" stroke-width="3" fill="#FF994C" stroke="#FF994C"/><path d="M339.9 157c-7.3 3.7-15.6 12.1-16.5 16.7-2.4 12.6 7.9 24.7 24.8 29.2 7.5 2 7.7 2 13.5.1 4.3-1.4 6.8-3 9.7-6.2 5.1-5.7 9.6-14.8 9.6-19.4 0-7.4-8.9-17.6-17.8-20.5-2-.6-4.1-1.5-4.6-2-.6-.5-3.7-.9-7-.8-4.5.1-7.5.8-11.7 2.9zm292.6 13.1c-17.4 9.2-22.9 21.2-15.1 33.2 6.6 10.3 13.3 14.7 22 14.7 13.6 0 29-11.7 31.8-24.2 1.4-6.4.1-10.3-5-15.5-9.7-9.6-24.3-13.2-33.7-8.2z" stroke-width="3" fill="#FF7F66" stroke="#FF7F66"/><path d="M445.2 262.3c-1.3.6-3.3 2.9-4.4 4.9-2 3.4-2 3.8-.5 7 4.2 8.9 13.4 10 18.5 2.3 2.6-4.1 2.7-5.6.7-9.5-1.9-3.7-2.3-3.8-1.7-.1.9 6.4-8.8 7.9-10.4 1.6-.7-3 1.6-6.1 5-6.8 1.2-.3.7-.5-1.4-.5-1.9-.1-4.5.4-5.8 1.1zm96 3.4c-3.2.6-7.2 6.3-7.2 10.2 0 2.4.9 4.2 3.4 6.7 4.5 4.5 9.5 4.7 13.6.5 3.7-3.6 4.6-7.3 2.9-11.4l-1.4-3.2-.5 3.4c-.6 4.3-2.9 5.9-6.7 4.5-3.9-1.3-4.5-6.9-1.1-9.6 2.3-1.8 1.7-2-3-1.1zm-57.7 14.8c-12 1.4-20.5 3.2-21.9 4.6-.6.5-1.8.9-2.8.9-3.1 0-9.1 3.6-12.5 7.5-6.4 7.2-5.2 13.8 4 22.7 3 2.9 6.4 6 7.4 6.8 3.9 3 12.9 7 18.3 8 3 .6 7.6 1.6 10.2 2.1 3.2.7 5.8.7 8 .1 1.8-.6 5.3-1.4 7.8-1.7 4.3-.7 15.8-5.6 19-8.2.8-.7 3.4-2.7 5.6-4.5 8.9-7 13.3-15.8 11.5-22.5-1-3.6-4.6-8.3-6.4-8.3-.6 0-3.3-1.1-6.2-2.4-4.4-2.1-11.8-3.7-28-6-1.6-.2-7.9.2-14 .9z" stroke-width="3" fill="#331900" stroke="#331900"/><path d="M608.8 506.7c3.4.2 8.8.2 12 0 3.1-.2.3-.3-6.3-.3s-9.2.1-5.7.3z" fill="#CCB27F" stroke="#CCB27F" stroke-width="3"/><path d="M548.4 616.5c0 6 .1 8.4.3 5.2.2-3.2.2-8.1 0-11-.2-2.9-.3-.3-.3 5.8z" fill="#E5CC99" stroke="#E5CC99" stroke-width="3"/><path d="M548.4 584.5c0 6 .1 8.4.3 5.2.2-3.2.2-8.1 0-11-.2-2.9-.3-.3-.3 5.8z" fill="#FFE5B2" stroke="#FFE5B2" stroke-width="3"/><path d="M439 294.9c-.8.4-5.3 1.6-10 2.6-4.7.9-8.9 2.1-9.5 2.5-.5.4-3.4 1.5-6.3 2.5-12.8 4.1-24.4 13-28.8 22.1-2.4 4.9-2.6 6.3-2.2 14.2.6 12.4 4.3 19.6 16.3 31.8 8.2 8.2 10.1 9.6 20.5 14.6 6.3 3 13.3 6.1 15.5 6.8 2.2.7 4.2 1.6 4.5 2 .3.4 3.9 1.5 8 2.5s8 2.1 8.5 2.6c2.5 1.9 23.7 4.2 38.5 4.1 14.8 0 32.9-2 37.5-4.1 1.1-.6 4.7-1.7 8-2.6 3.3-.9 8-2.5 10.5-3.7 21.4-9.6 31.3-17 38.5-28.8 4.1-6.8 5.6-12.3 5.6-20.3 0-12.3-4.4-20.4-15.6-28.4-3.3-2.3-6.5-4.6-7-5-1.9-1.4-14.4-7.4-17.2-8.3-1.6-.5-5.2-1.8-8-2.9L541 297v2.8c0 4-4.2 12.2-8.7 16.9-4.5 4.7-13.6 11.1-16.9 11.9-1.3.3-2.4 1-2.4 1.4 0 .9-6.8 2.9-13.4 3.8-4.6.7-5 1-5.9 4.2-1.4 5.3-.3 21.7 1.9 28 1 3 1.9 5.6 1.9 5.7.3 1.3 18.9-5.6 20.5-7.6.3-.3 2.3-1.8 4.5-3.2 2.2-1.5 7.1-5.6 10.8-9.3 6.8-6.6 9.9-8 12.5-5.4.7.7 1.2 1.8 1.2 2.5 0 1.7-16.1 17.5-19.7 19.4-1.5.7-3 1.7-3.3 2.1-1.5 1.9-14.6 7.7-18.9 8.3-2.8.4-5.3 1.1-5.7 1.6-1 1.7-12.4.9-21.7-1.5-13.5-3.5-21.1-8-33.4-20-8.9-8.6-10.3-11.9-6.2-14.5 2-1.2 2.7-.7 9.8 6.2 9.4 9.1 12.3 11.7 13.2 11.7.4 0 1.4.6 2.1 1.3.7.7 3.3 2.1 5.8 3.2s4.7 2.2 5 2.6c.7.8 13 3.3 13.6 2.7.3-.3.1-2.5-.5-4.9-.5-2.4-1.5-7-2.2-10.1-1.1-5.3-.9-10.6.7-19.6.6-3.2.6-3.2-3.2-3.2-5.1 0-10.4-1.5-18.2-5.1-7.1-3.2-7.2-3.3-15.4-11.1-4.9-4.6-6.3-6.6-7.4-10.8-1.1-4.3-1.1-5.8 0-9.1 1.4-4 .8-4.8-2.4-3zm107 108.3c-1.9.5-4 1.4-4.5 1.8-1.3 1.1-18.8 4.9-28.6 6.3l-7.6 1-.7 13.1c-.3 7.2-.7 24.5-.8 38.5l-.3 25.5 4.5 2.7c2.5 1.5 6 2.8 7.8 2.8 3.8.1 9.3-3.3 30-18.3l5.2-3.8v-18.1c0-10 .3-26 .7-35.5.7-18.9 1-17.9-5.7-16zm20 42.4c-1.9.7-4.3 1.3-5.2 1.3-1.6.1-1.8 1.3-1.8 10.5v10.5l3.8-1.5c2-.8 4.9-2.1 6.3-2.9 7.1-3.9 30.4-7 35.3-4.7 4 1.9 10.5 3.1 10 1.8-.6-1.6-7.9-7.6-12.4-10.3-9.6-5.7-27.3-8-36-4.7zm16.1 22.4c-1.8.4-4.3 1.2-5.5 1.8-1.1.5-4.7 2.2-7.8 3.6-3.7 1.8-6.4 3.8-7.7 6-4.9 7.8-1.1 16.1 12.7 28.6 1 .8 3.2 2.5 5.1 3.7l3.4 2.1 5.5-3.6 5.4-3.6 18.7-.6c17.4-.5 18.8-.7 21.9-2.8 2.1-1.5 3.2-3.2 3.2-4.7 0-4.1-4.9-5.9-16.1-6-8 0-10 .3-11.7 1.8-2.4 2.2-6 1.9-7.6-.5-1.5-2.4.9-6.4 4.8-7.8 1.7-.7 4-1.6 5.2-2.2 2.2-1 12.6-.6 17.9.7l3 .8-4-4.2c-6.6-6.9-17.5-8-25.8-2.5-3.9 2.6-4 2.6-5.9.6-2.7-2.7-1.6-5.7 3.3-8.8 2.1-1.3 3.9-2.6 3.9-2.9 0-.8-18.2-.4-21.9.5zm-37.2 99.3c-7.5 6.8-13.2 10.7-20.9 14.2-1.9.9-4.9 2.3-6.7 3.1-1.7.8-5.8 1.7-9 2l-5.8.6-.1 32.7c-.1 17.9-.7 35.7-1.3 39.6-.6 3.8-1.7 12.4-2.6 19-.8 6.6-2.2 14.9-3 18.5-6.7 28.3-9.2 37.9-10.5 40.2-.6 1-1 2.2-1 2.8 0 1.4-6.5 18-8.9 22.7-1.1 2.1-2.5 4.9-3.1 6.3-1.2 2.7-1.7 3.5-7.4 12.7-2.1 3.5-4.2 6.3-4.6 6.3-.4 0-1.1.9-1.6 2-2.5 5.4-18.5 20.9-35 33.9-2.4 1.9-16.6 9.1-18 9.1-.8 0-1.4.4-1.4.9s-3.3 1.6-7.2 2.6c-4 .9-8.2 2.1-9.3 2.7-2.7 1.5-31.8 2.2-38.5.9-19.9-3.8-26.7-5.3-28.2-6.1-1-.6-5.8-1-10.8-1-17.6 0-26.6 7.3-35 28.5-2.1 5.2-2.1 5.2 3.8 6.1 8.3 1.2 45.4 1 62.2-.4 21.4-1.7 34.2-3.2 36.5-4.1 1.1-.5 6.5-1.7 12-2.6 5.5-1 10.5-2.1 11-2.5.6-.4 3.5-1.3 6.5-2s6.9-1.8 8.5-2.5c1.7-.7 4.8-1.9 7-2.5 4.6-1.4 11.9-4.6 22-9.7 39-19.5 68.3-51.3 85-92.4 1.9-4.8 3.5-9 3.5-9.4 0-.4.7-2.1 1.5-3.8 3.6-8 9.5-36.5 11.6-55.8.7-6.9 3-114.8 2.5-115.6-.1-.1-1.8 1.2-3.7 3zM264.5 789.6c-9.9 5.3-20.3 16-28.2 29.1-3.8 6.4-30.5 60.3-35.8 72.3-2.1 4.7-4.3 9.8-5.1 11.5-10 23.1-15.1 44-12.6 52.3 1.3 4.3 3.6 5.9 5.8 4.1 2.2-1.8 11.8-15.1 13.7-18.9.9-1.9 2.1-4.2 2.7-5 1.5-2.3 8-16.8 8-17.8 0-1.2 2.4-2.2 5.1-2.2 2.3 0 3.6 4.3 2.1 7.3-.5 1.2-2.7 6-4.8 10.7-2.1 4.7-4.6 9.6-5.5 11-.9 1.4-3.4 5.3-5.7 8.7-2.3 3.5-3.7 6.3-3.2 6.3s1.1-.4 1.5-.9c.3-.5 1.9-1.3 3.6-1.6 6.9-1.5 14.3-11.9 24.5-34.2 2.5-5.5 3.3-6.3 5.6-6.3 3.2 0 5.3 3 4 5.7-3.5 6.9-8.2 17.2-8.2 17.9 0 .4-.7 1.6-1.7 2.6-.9 1-1.4 2-1.1 2.3.8.8 10.5-9.6 13.7-14.7 3.6-5.7 8.5-16.7 10.1-22.7.6-2.4 1.5-5.1 2-6 .5-.9 1.8-5.4 2.9-10.1 7.4-31.6 11.6-42.9 19.4-52.3 4-4.8 4-4.8 1.8-6.3-4-2.9-6.9-11.1-8.1-23.3-.7-6.3-.9-13.9-.5-16.8.3-2.9.3-5.3-.2-5.3-.4 0-3.1 1.2-5.8 2.6zm45.5 87.1-17.6.3-1.3 3.3c-3.3 7.7-6.4 15.6-8.1 20.3-1 2.8-2.3 6-2.9 7-2.2 3.6-9.7 27.3-11.6 36.4-2 9.3-1.9 13.3.5 15.5 1.7 1.6 2.3 1.7 4.5.5 1.3-.7 2.6-1.8 2.9-2.5.2-.7 2.4-3.9 4.9-7.1 4.6-6.3 5.8-8.2 11.9-20.9 6-12.7 6.2-13 8.8-13.3 4.2-.6 5.2 2.2 2.9 8.2-4.7 11.9-13.8 28.2-19.3 34.3-2.6 3.1-1.7 3.6 4 2.2 5-1.2 5.9-1.9 12.3-10.4 4-5.3 13.6-24.5 15.5-31.2 1-3.2 4.4-3.9 6.8-1.5 2 2 2 2-.1 7.7-1.2 3.2-4.2 9.9-6.6 14.9l-4.4 9.1 5.7-6.1c8.5-9.1 17.4-28.2 23.3-49.9 1-3.9 2.3-8.1 2.8-9.5.5-1.4 1.2-3.7 1.5-5.3l.6-2.7-9.7.2c-5.4.1-17.7.4-27.3.5z" stroke-width="3" fill="#FFFFB2" stroke="#FFFFB2"/><path d="M375.4 1130c0 12.9.2 18.2.3 11.7.2-6.4.2-17 0-23.5-.1-6.4-.3-1.1-.3 11.8zm14 1c0 13.5.2 19 .3 12.2.2-6.7.2-17.7 0-24.5-.1-6.7-.3-1.2-.3 12.3zm111 12c0 8 .2 11.2.3 7.2.2-3.9.2-10.5 0-14.5-.1-3.9-.3-.7-.3 7.3zm9-1.5c0 7.1.1 9.9.3 6.2.2-3.7.2-9.6 0-13-.2-3.4-.3-.4-.3 6.8zm61 5.5c0 5.2.1 7.4.3 4.7.2-2.6.2-6.8 0-9.5-.2-2.6-.3-.4-.3 4.8zm20 9c0 6.3.1 8.9.3 5.7.2-3.1.2-8.3 0-11.5-.2-3.1-.3-.5-.3 5.8zm8.9 2c0 4.7.2 6.6.4 4.2.2-2.3.2-6.1 0-8.5-.2-2.3-.4-.4-.4 4.3z" stroke-width="3" fill="#4C6619" stroke="#4C6619"/><path d="M359 1094.8c-4.1 2-4.9 4.9-2.3 8.1 1.5 1.8 3.2 2.3 10.3 2.9l8.5.7.3 22.5c.3 26.4 0 27.6-6.3 28.6-4.5.6-10.6-.8-12.3-2.9-.5-.7-1.6-2.9-2.3-5-1.6-4.6-3.9-6.1-7.9-5.2-3.8.8-4.4 1.8-4.2 7.8.1 6.3 3.5 11.3 9.9 14.7 4.2 2.2 5.9 2.5 15.3 2.5 9.6 0 10.8-.2 13.8-2.5 6.4-4.8 6.6-5.8 7.2-34.5l.5-26 6-.8c7.3-1 8.5-2 8.5-6.3 0-5.6-2.9-6.4-23.7-6.4-14.9 0-18.4.3-21.3 1.8zm-154.7 11.4c-.4.7-.9 6.4-1.1 12.5-.2 6.2-.8 11.3-1.2 11.3-.4 0-2.1-.7-3.6-1.5-6.6-3.4-17.2-.1-22.9 7.2-2.8 3.6-3 4.3-3 12.8 0 8 .3 9.4 2.5 12.3 5.4 7.3 16.5 10.3 24 6.6 3-1.6 3.3-1.6 4.2 0 1.4 2.4 6.2 2.1 7.6-.7 1.6-3.3 2.5-59 1-60.5-1.6-1.6-6.5-1.5-7.5 0zm-4.6 31c3.2 2.2 3.3 2.5 3.3 9.3 0 3.8-.3 7.9-.6 9.1-1.4 5.2-12.7 7.3-17.7 3.3-4.5-3.5-5.4-10.4-2.5-18.2 2.2-5.7 11.4-7.6 17.5-3.5zm71.1-11.5c-2.6.7-2.9 3-2.6 23.8l.3 19 3 .3c4.7.6 5.5-1.6 5.5-15.4v-12.2l3.8-2.2c4.4-2.6 9.9-2.9 13.3-.7 2.7 1.8 4 1.3 5.9-2.2 1.2-2.3 1-2.7-2.1-5.3-4.7-3.9-11.3-4.8-17-2.4-.9.4-2.3.1-3.1-.7-1.7-1.8-4.7-2.6-7-2zm322.2.3c-1.3.8-1.5 4.3-1.5 21.7v20.8l2.3.3c4.1.6 5.2-1.4 5.3-9.7.1-4.2.4-10.1.7-13.1.7-5.3.9-5.6 5.2-7.7 4.7-2.4 7.6-2.2 11.9.6 2.2 1.4 2.5 1.3 4.3-.9 2.7-3.4 1.9-6.1-2.7-8.7-4.3-2.4-9.7-2.9-14-1.3-2.2.8-3.2.6-5.2-1-2.8-2.2-4.1-2.4-6.3-1zm-362.5 3.3c-4.8 2.7-7.8 6.9-10.1 14.3-1.7 5.4-1.7 5.8.1 10.7 2.7 7.5 4 9.1 9.6 12.1 3.8 1.9 6.6 2.6 10.8 2.6 10.3 0 20.5-6.9 17.5-11.8-1.7-2.6-2.8-2.4-7 .9-3.6 2.9-4.4 3.1-10.4 2.7-4.9-.3-7.3-.9-9.7-2.8-2.9-2.1-5.1-5.6-4.1-6.5.1-.2 5-.9 10.8-1.5 5.8-.6 11.4-1.6 12.5-2 1.1-.5 2.9-1 4-1.2 2.8-.5 3.9-4.5 2.6-9.5-2.5-9.2-16.9-13.5-26.6-8zm15.5 6c1.4.7 2.6 2.2 2.8 3.3.3 1.9-.5 2.1-9.5 3.2-5.3.6-9.9.9-10.2.6-.9-.9 2.7-5.9 5.1-7.1 3-1.6 8.6-1.6 11.8 0zm178-5.7c-9 4.2-13 10.8-13 21.6 0 7.3 1.7 11.4 6.1 14.9 3.4 2.7 4.8 3.1 10.2 3.3 4.4.1 6.9-.4 8.7-1.7 3.2-2.2 4.8-2.2 6.9.4 1.3 1.6 2.3 2 4 1.4 2-.6 2.2-1.1 1.6-4.3-.4-2.1-.9-10.8-1.2-19.5-.5-18.4-.4-18.3-11.3-18.6-5.1-.1-7.7.4-12 2.5zm12.4 5c1.3.5 1.6 2.6 1.6 13 0 12.4 0 12.5-2.6 13.4-1.4.6-4.7 1-7.4 1-4.2 0-5.1-.4-6.9-2.9-7.2-10.1 4.4-28.7 15.3-24.5zm31.1-5.4c-8.5 4.4-11.8 10.3-11.9 21.7-.2 13.1 4 16.7 18.8 15.9l8.6-.4v3c0 4.8-.9 6.9-3.8 9.1-2.3 1.7-4.3 2-12.7 2h-10l-.9 2.8c-.8 2.2-.6 3.1.7 4.5 1.5 1.4 3.7 1.7 12.5 1.7 9.6 0 11-.2 14-2.4 1.8-1.3 4.4-4.1 5.8-6.2 2.2-3.6 2.6-5.8 3.9-23.7 1.9-25.1 1.9-25.1-.2-25.9-1-.4-2.4-1.5-3.1-2.5-2-2.7-16.2-2.5-21.7.4zm16.4 8.2c.9 1.1 1 3.3.2 9.1-.6 4.3-1.3 8.1-1.6 8.5-.9 1.5-10.5 3.2-14.1 2.6-5.6-1.1-6.7-6.7-2.7-14.7.9-1.8 2.4-3.4 3.4-3.6 1.1-.3 1.9-.9 1.9-1.3 0-2.1 11.3-2.5 12.9-.6zm17.8-9.8c-.4.4-.7 7.2-.7 15 0 17.6 1.2 21.5 6.8 23.2 7.2 2.2 8.1 2.3 12.7 1.1 4.3-1.1 4.7-1 6.1 1 1 1.3 2.6 2.1 4.4 2.1 2.6 0 2.9-.4 3.5-4.4.4-2.4.8-12 .8-21.2l.2-16.9-3.4-.3c-2-.2-3.7.2-4.2 1-.5.7-.9 6.2-.9 12.1 0 8.3-.4 11.6-1.7 13.7-3.2 5.4-9.9 6.6-13.8 2.4-2.3-2.5-2.5-3.4-2.7-15.8l-.3-13.1-3-.3c-1.7-.2-3.4 0-3.8.4zm56.8 1.1c-6.2 2.5-9.3 5-12.2 10.1-2.4 4-2.8 5.8-2.8 12.2.1 8.6 2.5 13.5 8.1 16.5 4.4 2.4 12 2.4 17.2.1l4.2-1.9 2.1 2.1c2.1 2.3 2.8 2.6 5.3 1.6 2-.8 2-5 .1-8.4-1.6-2.9-2.1-23.5-.6-25.9 1.2-1.9-1.2-6.8-3.6-7.4-4.4-1.1-14.1-.5-17.8 1zm10.9 5.9c1.3.5 1.6 2.6 1.6 12.5 0 11-.1 11.9-2.2 13.3-2.8 2-11.7 2.1-14.4.2-1.6-1.2-1.9-2.7-1.9-9.3 0-7.2.2-8.1 3-11.6 3.6-4.5 9.6-6.7 13.9-5.1z" stroke-width="3" fill="#4C6600" stroke="#4C6600"/><path d="M374.4 1129.5c0 12.6.2 17.7.3 11.2.2-6.5.2-16.8 0-23-.1-6.2-.3-.9-.3 11.8z" fill="#99B27F" stroke="#99B27F" stroke-width="3"/></svg>