<svg version="1.0" xmlns="http://www.w3.org/2000/svg" viewBox="0 0 783 1258"><g fill="#FFF" stroke="#FFF" stroke-width="3"><path d="M0 629v629h783V0H0v629zm384.7-512.5c12.2 2.6 24.7 8.2 36.3 16.3 6.5 4.5 19.2 16.6 22.1 21.1 1.5 2.3 1.7 2.4 6 1.2 14.7-4.2 17.2-4.5 41.4-4.5 22.7-.1 37 1.1 40 3.4.6.4 3.5 1.3 6.5 2 10.4 2.5 33.3 13.6 48.7 23.6l5.2 3.5 9.4-5c5.2-2.7 12.1-5.7 15.3-6.6 3.2-.9 7.9-2.3 10.3-3.1 9.2-3.1 41.2-2.7 44.4.5 1.3 1.3 4.6 24.8 4.7 33.1 0 9.2-4.2 37.9-6 40.5-.3.5-1.2 3-1.9 5.5-1.6 5.4-5.6 14.2-10.5 22.9-3.5 6.1-3.6 6.6-2.2 9.5 2.9 6.2 5.7 14.3 7.7 22.1 1.1 4.4 2.4 9.6 2.9 11.5.5 1.9 1.4 10 2 18 1.1 13.9.8 22.7-1.6 41.6l-.6 5.1 12.6-.5c12.8-.5 15.6.1 15.6 3.4s-3 4.4-12.3 4.5c-14.1.1-19.1 1-19.5 3.4-.2 1.1-1 3.3-1.7 5-2.1 4.6-6.6 15.8-7.2 17.7-.4 1.3.5 1.9 3.7 2.8 4.1 1.1 16.6 5.8 22.8 8.6 2.5 1.1 3.3 2 3 3.6-.4 3.1-3.1 4.5-6 3.1-1.3-.7-4.1-1.7-6.3-2.3-2.2-.7-5.3-1.8-7-2.6-3.2-1.4-14.9-5.4-15-5.1-.9 1.8-9.3 11.5-13.6 15.7l-5.7 5.5 5.9 9.5c3.2 5.2 6.8 11.1 7.9 13 1.1 1.9 3.4 5.7 5.1 8.4 3.6 5.8 3.4 9.6-.5 9.6-1.7 0-3.1-1.1-4.7-3.8-2.2-3.8-4.6-7.6-9.1-14.7-1.4-2.2-3.8-6.2-5.4-8.8-1.6-2.6-3.6-5.7-4.5-6.9l-1.6-2.2-4.9 3c-2.7 1.7-6.5 3.6-8.4 4.4-1.9.7-3.9 1.6-4.5 2-2 1.4-20.2 6.9-26.8 8.1l-6.7 1.2.7 5.1c1.3 8.3.8 60.3-.6 67.6-.6 3.6-1.9 10.8-2.7 16-.8 5.2-2 11.5-2.8 14-.8 2.5-1.8 6.2-2.2 8.4-.7 3.8-5.1 17.1-9.8 29.7-3.5 9.5-14.3 30-21.2 40.5-3.2 4.9-9.2 12.4-13.3 16.6l-7.3 7.8 2.8 3.7c3.9 5.2 9.4 13.1 9.4 13.7 0 .3 1.2 2.2 2.6 4.3 3.6 5.3 14.9 28.8 16.5 34.3.7 2.5 1.6 5 2 5.6.9 1.1 4.3 14.1 6.4 24.4.8 3.6 2.1 14 3.1 23.2 1.6 15.8 1.6 17.7-.1 34.4-1 9.8-2.3 20.2-3.1 23.3-.7 3.1-2 8.7-2.8 12.5-1.7 7.1-5 17.2-11 33.4-3.7 10.2-5 16.7-4.1 20.5.9 3.5 7.2 6.2 12.2 5.3 5.4-1 33.3-5.4 42.3-6.7 16-2.3 34.6 1.4 44.4 8.9 8.4 6.3 13.6 19.3 12.1 30.2-1.2 9-6.4 14.2-17.5 17.9-6.4 2.2-7.1 2.2-76.5 1.9-57.1-.3-70.6-.6-73.5-1.7-1.9-.8-5.3-2.1-7.5-2.8-9.5-3.3-17.8-12-25.1-26.3-3.9-7.5-4.4-8.7-8.2-18.5-17.5-44.8-21.8-53.4-41.2-82.5-8.6-13-12.7-18.7-20.8-29-10.5-13.2-28.2-34-29-34-.4-.1-5.1 1.2-10.5 2.7-9.6 2.8-9.7 2.8-10.3 6.3-1.8 11.4-6.2 28.9-8.3 32.8-.5.9-2.7 5.5-4.8 10.2-10.3 22.9-27.9 46-48.9 64-10.4 9-34.2 26-36.3 26-.5 0-1.5.7-2.2 1.6-1.2 1.5-1.1 1.6.6 1.1 1.1-.3 3.6-.9 5.5-1.2 1.9-.4 5.5-1.3 8-2.1 4.2-1.3 15.2-3.2 31.5-5.6 9.9-1.4 29.5-.3 37.5 2 15.8 4.7 22.7 10.7 26.4 23.2 4.7 15.9-.3 26.3-15.2 31.5L310 961h-67.7c-37.3 0-69.4-.4-71.3-.9-10.8-2.8-14.3-4.1-18.7-6.9-9.9-6.3-14.7-14.6-19.3-33.2-2.7-10.9-3-41.6-3-364.6 0-325.3.2-346.9 3-358.4 2.8-11.4 5-18.9 6.4-21.5.9-1.7 1.6-3.4 1.6-3.9 0-2.1 8.4-14.9 12.3-18.9 6.8-6.9 12.7-10.3 22-12.6 4.7-1.2 9.8-2.1 11.4-2.1 5.4.1 19.1 3.8 24.4 6.6 6.5 3.5 18.2 14.8 23.2 22.5 7.3 11 17.2 35.9 19.2 47.9.4 2.4 1.1 5.1 1.6 6 .5.8 1.8 6.9 2.9 13.5 4 23.7 5.8 39.9 8.1 76 1.3 19.2.6 108.2-1 123.5-.6 5.8-1.8 24.2-2.6 41-.9 16.8-2.1 32.3-2.6 34.5-.5 2.2-.9 9.8-.9 17 0 10.3.4 14 1.9 17.9 5.4 14.3 17.3 12.6 34.7-4.8 9.7-9.7 12.1-13.5 14.8-23.1 5.4-19 18.2-45.1 31.4-64 5.1-7.3 17.5-22.5 21.1-25.9 1.7-1.7 3.1-3.3 3.1-3.7 0-.3-1.9-1.9-4.2-3.5-15.5-10.4-31.4-25.5-37-35-1.1-1.9-2.2-3.4-2.5-3.4-1.2 0-12.1 3.3-14.8 4.5-1.6.7-5 1.8-7.5 2.5-2.5.6-6.1 1.8-8 2.7-1.9.9-5.6 1.8-8.1 2.1-3.7.3-4.7.1-5.3-1.3-.3-.9-.2-2.4.3-3.2.5-.9 8.9-4.3 19.5-7.8 10.2-3.4 18.8-6.4 19.1-6.7.3-.2-.7-3.6-2.1-7.4-1.4-3.8-3.2-9.1-3.9-11.8-.8-2.6-1.5-5-1.7-5.2-.2-.2-7.5-.8-16.2-1.3s-16.2-1.3-16.8-1.9c-.5-.5-.8-2-.6-3.3l.3-2.4 15.6.3 15.6.4-.5-12.4c-.2-6.8.1-15.4.7-19.3l1.1-7-7.8-7.2c-4.2-4-8-7.3-8.4-7.3-1.7 0-.7-5 1.1-6 1.6-.8 2.8-.3 6.8 2.9 2.6 2.1 5.7 4.8 6.7 6 2.6 2.9 3.3 2.7 4.5-1.2 3.5-11.7 11.6-28.6 18-37.7 1.7-2.5 4.2-6.1 5.5-8 1.3-1.9 6.2-7.7 10.9-12.9l8.5-9.4-1.6-5.1c-1.2-3.8-1.6-9.4-1.6-22.1 0-15.1.3-18.3 2.8-28.9 1.5-6.6 3.3-13.1 4-14.5.7-1.4 1.6-3.9 2-5.5 1.7-6.9 14.5-30.6 16.5-30.6.5 0 4 .7 7.8 1.5zm-10.8 975.6c1.8 2 1.9 3.2 1.4 14.8l-.5 12.6 5.4-5.5c2.9-3.1 8.9-9.5 13.3-14.3 7.4-8 8.4-8.7 11.8-8.7 2.7 0 4.5.7 6.2 2.5 4.6 4.5 3.4 6.7-12 23-7.1 7.5-13 14.3-13 15 0 .7 5.7 6 12.6 11.8 13.8 11.5 16.9 14.9 16.9 18.1 0 2.9-1.1 4.3-4.3 5.5-4.6 1.8-7.6.2-20.1-10.3-6.5-5.6-13.2-11.1-14.7-12.4l-2.9-2.3v11c0 6-.4 12.1-.9 13.4-1.9 4.8-11.8 6-14.1 1.7-.7-1.2-.7-14.4-.1-38.6 1-41.4.5-39.4 8.8-39.4 3 0 4.8.6 6.2 2.1zm-130.4 11.1 2.8 2.1-.8 29.1c-.4 16-1.1 30.1-1.6 31.3-1.3 3.4-5.5 4.8-8.5 2.8-2.1-1.3-2.8-1.3-7 .1-8.5 2.9-18.2-.6-23.7-8.4-3-4.4-3.2-5.3-3.2-12.9 0-7.4.3-8.5 3-12.4 4.9-7 10.4-10.3 17.2-10.3 3.2-.1 7 .3 8.5.7l2.6.9.4-10.7c.3-9.8.5-10.8 2.7-12.6 3-2.4 4.2-2.4 7.6.3zm243 .3c2.3 2.2 2.5 3.2 2.5 11.5v9h3.5c4 0 8.5 3.6 8.5 6.8 0 3.5-3.7 6.2-8.5 6.2H488v13.4c0 7.4-.3 14.2-.6 15.1-.4.8-1.9 2.2-3.5 3.1-2.6 1.3-3.2 1.3-5.9-.1l-3-1.6V1137h-4.3c-5.2 0-6.7-1.3-6.7-6 0-5 1.1-6.1 6.3-6.7 4-.5 4.6-.8 5.1-3.5.3-1.7.6-5.8.6-9.2 0-6.6.4-7.7 3.5-9.4 3-1.7 4.3-1.5 7 1.3zm-220.2 4.2c2.3 2.2 2.2 7.8-.3 10.3-4.3 4.3-12 1.1-12-5 0-4.4 4.2-8.4 7.8-7.5 1.5.4 3.5 1.4 4.5 2.2zm-1.6 18.9c2.6 2.6 2.6 2.6 1.9 14.7-.3 6.6-.6 14.6-.6 17.8 0 4.6-.5 6.3-2.3 8.5-1.9 2.2-2.9 2.6-5 2-5.4-1.3-5.8-3.4-4.9-24.1.7-16.7 1-18.9 2.7-20.1 2.8-2.1 5.3-1.7 8.2 1.2zm40.3-.4c6.3 3.3 8.5 6.8 8.5 13.3 0 3-.5 5.9-1.2 6.6-1.2 1.2-4.8 2-19.7 4.3-4.4.6-8.1 1.6-8.3 2.2-.7 2 7.3 5.4 12.4 5.4 4.1 0 5.7-.6 8.8-3 2.1-1.7 4.1-3 4.6-3 4.2 0 6.6 4.7 4.4 8.9-2 3.9-5.3 5.8-13.2 7.7-6.4 1.6-7.2 1.6-12.6 0-7.7-2.2-12.9-7-15-13.7-2.2-6.6-2.1-8.2.4-15.7 1.6-4.7 3.1-7.1 6.6-10.1 4.9-4.3 6.1-4.8 14.3-5 4-.1 6.8.5 10 2.1zm147-1.2c5.2.1 5.5.7 6.1 18.2.3 10.6 1 17.4 1.9 19.5 1.3 2.9 1.2 3.4-.5 5.2-2.2 2.5-6.2 2.7-8.7.5-1.6-1.6-2.1-1.6-6.1 0-5.8 2.2-11.3 2-16.6-.7-7-3.5-8.5-6.3-8.9-16.6-.5-12 1.9-17.5 9.9-22.6 5.2-3.4 9.6-4.5 15.4-4 2.8.3 6.1.5 7.5.5zm88.3-.1c2.9 1.1 4.2 5.3 2.6 8.2-.6 1.2-4.9 6.9-9.5 12.8-4.6 5.8-8.4 10.9-8.4 11.3 0 .5 3.3.8 7.4.8 8.1 0 10.6 1.3 10.6 5.3-.1 5.6-3.3 6.7-19.5 6.7-15.8 0-19.4-1.2-19.5-6.3 0-.9 4.7-7.3 10.5-14.2L525 1137h-8.5c-7.2 0-8.8-.3-10.5-2-3.5-3.5-2.1-9.2 2.5-10.3 3.8-.9 29.4-.7 31.8.2zm40.5 1.8c4.5 3.3 7.2 8.2 7.2 12.9 0 6.7-1.7 7.7-15.5 9.8-15.4 2.4-15 2.2-13.4 4.2 4.4 5.3 14.1 5.9 20.8 1.4 5.3-3.6 6.5-3.7 8.5-.8 2.2 3.1 2 4.6-.9 8.4-6.2 8.1-24.9 9-33.6 1.7-6.7-5.7-8.8-17.6-4.8-27 4.2-9.9 10.4-13.6 21.7-13 5.3.3 8.1 1 10 2.4z"/><path d="M432.7 309.7c-1.4 1.3-.7 5.1 1 5.7 2.4 1 4.6-2.1 3.2-4.5-1-1.9-3-2.5-4.2-1.2zm105 19c-1.3 1.3-.7 5.4.9 6 2.4.9 4.6-2.4 3.3-4.8-1-1.9-3-2.5-4.2-1.2zm-318.5 807.8c-5.5 2.4-7.9 10.9-4.5 16.5 3.1 5.3 9.5 6.9 14.6 3.6 2.6-1.7 2.7-2.2 2.7-9.7 0-7.9 0-7.9-3.2-9.9-3.9-2.3-5.2-2.4-9.6-.5zm70.1-.5c-1.8 1.1-3.3 2.4-3.3 3 0 1 5.9.5 13-1l3.5-.7-3.7-1.7c-4.8-2-5.6-2-9.5.4zm147.6.7c-7.3 4.5-9 19-2.7 22.4 2.3 1.2 9.4.3 10.5-1.4.4-.7.8-6 .9-12l.2-10.7h-3.2c-1.7 0-4.3.8-5.7 1.7zm127.5-1.3c-1.7.8-3.4 2.1-3.8 3.1-.5 1.5-.1 1.6 3.4 1.1 12.9-1.9 12.3-1.7 10.8-3.2-2-2.1-6.9-2.6-10.4-1z"/></g><path d="M511.8 1136.7c2.3.2 6.1.2 8.5 0 2.3-.2.4-.4-4.3-.4s-6.6.2-4.2.4z" fill="#E5CCCC" stroke="#E5CCCC" stroke-width="3"/><path d="M266.4 349c0 9.6.2 13.6.3 8.7.2-4.8.2-12.6 0-17.5-.1-4.8-.3-.8-.3 8.8z" fill="#E5CCB2" stroke="#E5CCB2" stroke-width="3"/><path d="M245.4 1124.5c0 5.5.1 7.6.3 4.7.2-2.9.2-7.4 0-10-.2-2.6-.3-.2-.3 5.3zm271.9.2c4.3.2 11 .2 15 0 4-.1.5-.3-7.8-.3-8.2 0-11.5.2-7.2.3zm-1 45c4.3.2 11 .2 15 0 4-.1.5-.3-7.8-.3-8.2 0-11.5.2-7.2.3z" stroke-width="3" fill="#FFE5E5" stroke="#FFE5E5"/><path d="M182.8 140.7c2.3.2 6.1.2 8.5 0 2.3-.2.4-.4-4.3-.4s-6.6.2-4.2.4zM672.4 203c0 8 .2 11.2.3 7.2.2-3.9.2-10.5 0-14.5-.1-3.9-.3-.7-.3 7.3zM131.5 548c0 176.3.1 248.4.2 160.3.2-88.2.2-232.4 0-320.5-.1-88.2-.2-16.1-.2 160.2zm133.9-187.5c0 7.1.1 9.9.3 6.2.2-3.7.2-9.6 0-13-.2-3.4-.3-.4-.3 6.8zm-2.1 64.5c0 4.7.2 6.6.4 4.2.2-2.3.2-6.1 0-8.5-.2-2.3-.4-.4-.4 4.3zm289.1 370.5c0 7.1.1 9.9.3 6.2.2-3.7.2-9.6 0-13-.2-3.4-.3-.4-.3 6.8z" stroke-width="3" fill="#B26619" stroke="#B26619"/><g fill="#994C00" stroke="#994C00" stroke-width="3"><path d="M375.2 119.7c-1.1 1.6-2.7 4.4-3.6 6.3-.8 1.9-2 4.2-2.5 5-4.3 7-11.1 26.6-13.8 40-2 10.3-2.2 34.1-.3 44.7l1.4 7.2-6 6.6c-3.2 3.6-7.8 8.9-10.1 11.8-2.3 2.9-4.9 6-5.8 6.9-.8 1-1.5 2.1-1.5 2.5 0 .3-1 2-2.3 3.7-1.3 1.7-3 4.4-3.9 6.1-.8 1.6-2.2 4.3-3.1 6-.9 1.6-2.7 5.5-4 8.5-2.2 4.9-3.3 7.8-6.7 18.2-.6 2-.4 3 .9 4.2 1.7 1.5 1.9 1.3 3.1-4.1.7-3.2 1.6-6.3 2-6.8.4-.6 1.3-2.8 2-5 1.5-4.9 11.9-24.9 13.1-25.3.5-.2.9-.9.9-1.5 0-2.1 11.3-16 20.6-25.2 4.6-4.6 5.1-5.5 4.6-8.6-.2-1.9-1-4-1.6-4.8-1.5-2-1.5-42.3 0-44.2.6-.8 1.7-4.6 2.3-8.4.7-3.9 1.8-8.4 2.6-10 .7-1.7 1.9-4.8 2.6-7 1.2-4.1 3.9-10 6.5-14.5.7-1.4 2.2-4.2 3.1-6.2 2.1-4.3 3.7-4.9 9.5-3.7 19.3 4.3 41.9 19.3 53.5 35.5 2.1 2.9 4.4 5.1 5 4.9 1.7-.6 3 2 3.8 7.7.4 2.7 1 4.8 1.4 4.8.3 0 1.5 3.6 2.5 8 1.1 4.4 2.3 8 2.7 8 .4 0 1 1.5 1.3 3.2.7 4 6.6 15.8 9.9 20.1 1.4 1.8 3.8 4 5.5 5 2.9 1.6 3.1 1.6 4.8 0 3.2-3.2 5.3-9.9 6.4-19.9.6-5.4 1.5-12.9 2-16.6.6-3.7 1-11.5 1-17.3v-10.7l7.9.3c4.4.2 8.3.7 8.6 1.1.4.4.2 8.6-.4 18.2-1.4 22.6-1.4 63.1 0 71.3.6 3.5 1.8 7.1 2.6 7.9 1.4 1.4 1.9 1.2 4.4-1.2 4.5-4.3 13.2-23.2 17.9-38.9 1-3.3 2.2-7.1 2.8-8.5.6-1.4 2.4-7 4.1-12.5 1.6-5.5 4.2-14.2 5.8-19.3 2.1-6.9 3.2-9.2 4.5-9.2.9 0 1.9.4 2.2.9.3.4 2.6 1.4 5.1 2.1 5.9 1.6 6.8 2.8 5.4 7.1-.7 1.9-1.5 3.8-1.9 4.4-.4.5-1.5 3.5-2.5 6.5s-2.1 5.9-2.5 6.5c-.4.5-1.5 4.4-2.5 8.5s-2.2 8.1-2.8 8.8c-.6.7-1.2 5.7-1.5 11.2-.5 9.9-.4 9.9 2.1 11.1 5.4 2.5 9.1.5 20-10.5 10.1-10.1 14.2-14.6 16.2-17.7.5-.8 2.4-3.6 4-6.1 3.9-6 19.2-15.5 31-19.3 2.8-.8 7.3-2.3 10-3.3 3.9-1.3 8.6-1.7 22.2-1.7 9.4 0 17.4.3 17.8.7 2.3 2.2 4.2 34.3 2.7 43.7-2.8 16.7-4.2 23.1-6.2 29.1-3.3 9.6-10 23.2-13.4 26.9-2 2.2-2 4.5-.1 7.9 4.7 8.6 11.1 32.4 12.7 47.2 1.7 16.8-.3 47-3.4 50.7-.8 1-.4 1.3 1.6 1.3 2.2 0 2.6-.4 2.6-2.8 0-1.5.4-3.2 1-3.8.5-.5 1.5-7.1 2.1-14.7 1-10.7 1-17 .1-28.2-.7-8-1.6-15.3-2.1-16.3-.5-.9-1.7-5.3-2.6-9.7-1-4.4-2.1-8.5-2.5-9-.4-.6-1.5-3.4-2.5-6.4-.9-2.9-2.4-6.5-3.1-8-1.9-3.6-1.8-5.4.6-8.1 1.1-1.3 2-2.8 2-3.5 0-.6.8-2 1.8-3.1 1-1 2.4-3.5 3.1-5.4.8-1.9 2.2-5.3 3.2-7.6 1-2.2 2.3-6.2 3-9 .6-2.7 1.5-5.4 2-5.9 1.7-2.3 3.9-23 3.8-36.6 0-14.2-1.8-31.1-3.3-32.6-1.2-1.3-39.6-1-40.4.3-.4.6-3.3 1.6-6.4 2.2-3.2.6-8.3 2.3-11.3 3.7-3.1 1.4-5.9 2.5-6.3 2.5-.4 0-2.7 1.4-5.2 3-5.8 3.8-9.1 3.8-15.4-.3-7.2-4.6-8.6-5.4-13.6-7.8-2.5-1.2-4.7-2.5-5-2.9-.3-.4-2.6-1.5-5.2-2.5-2.7-1-4.8-2.1-4.8-2.5 0-.3-2.6-1.4-5.7-2.4-3.2-1-6.2-2.2-6.8-2.6-.5-.5-3.9-1.6-7.5-2.4-3.6-.9-7.4-2.1-8.5-2.6-3.9-1.8-17.8-3-34.8-3-16.5 0-34.7 1.5-34.7 2.9 0 .4-3 1.3-6.7 2.1-6.6 1.3-6.7 1.3-8.2-1-1.9-2.8-16.9-17.8-20.2-20.2-8-5.8-23-13.8-26-13.8-.8 0-2.6-.6-4.1-1.4-2.3-1.2-11.4-3.6-13.8-3.6-.5 0-1.7 1.2-2.8 2.7z"/><path d="M173.5 142.4c-2.7.7-7 2.5-9.5 4.2-5.9 3.9-14.5 12.7-16.6 17.3-.9 2-2 3.8-2.4 4.1-.4.3-1.5 2.7-2.5 5.5-1.1 2.7-2.2 5.2-2.6 5.5-.3.3-1.4 4.1-2.3 8.5-.9 4.4-2.1 8.9-2.6 10-2.8 6.4-3 29.2-3 359.2 0 327 .2 356.8 3 362.8.5 1.1 1.4 4.3 2 7.2 1.4 6.4 5.7 14.8 9.6 18.9 8.2 8.5 17.3 12 35.4 13.6 15.5 1.3 128 .6 130.5-.9 1.1-.6 4.1-1.9 6.8-2.8 5.1-1.8 9.5-5.6 11.5-9.9 2.3-5.2.8-20.2-2.5-23.4-.7-.7-1.3-1.9-1.3-2.7 0-1.6-7.1-8.1-9.9-9-1.2-.3-2.1-1-2.1-1.4 0-.4-3.5-1.6-7.7-2.5-4.3-1-8.6-2.2-9.5-2.7-2.3-1.2-28.3-1.2-30.6 0-.9.5-7.5 1.6-14.7 2.6-7.1.9-13.4 2-14 2.4-.5.5-5.4 1.7-10.7 2.7-5.4 1-9.8 2.1-9.8 2.6 0 .4-.7.8-1.5.8-2.8 0-1.5-3 2-4.7 1.9-.9 3.5-2 3.5-2.3 0-.4 1.8-1.5 4-2.5s4-2.1 4-2.5c0-.4 1.6-1.5 3.5-2.6 1.9-1 3.5-2.2 3.5-2.6 0-.5.5-.8 1.1-.8.7 0 3.1-1.6 5.5-3.5 2.3-1.9 4.6-3.5 5-3.5.3 0 1.7-1 2.9-2.3 1.3-1.2 4.5-4 7.1-6.2 6.2-5.1 18.7-17.6 23.9-23.8 2.2-2.7 4.7-5.6 5.5-6.5.8-1 3.4-4.7 5.7-8.2 2.4-3.6 4.7-7 5.2-7.6 1.8-2.1 11.9-22.2 13.1-26 .7-2.2 1.6-4.4 2-4.9.4-.6 1.5-4.2 2.4-8 1-3.9 2.1-7.7 2.6-8.6.5-.9 1.4-5.2 2-9.6 1.3-8.9 1.2-8.8 13-11.8 3.5-.9 7.3-2.1 8.3-2.7 2.5-1.3 3.3-.5 17.6 16.7 14.5 17.3 22.7 27.9 28.9 37 2.6 3.8 5.2 7.4 5.9 7.8.7.4 1.3 1.3 1.3 1.8 0 .6 1.3 2.9 2.8 5.2 1.6 2.3 4.1 6.2 5.7 8.7 1.5 2.5 3.6 5.6 4.5 7 2.6 3.9 16.6 33 18 37.5.7 2.2 1.6 4.4 2 5 .4.5 1.5 3.5 2.5 6.5s2.4 6.4 3 7.5c.7 1.1 1.6 3.1 2 4.5 1.7 5.7 11.7 27 12.7 27 .4 0 .8.5.8 1.1 0 2 7.1 9.9 11.4 12.7 2.2 1.5 4.6 3.2 5.3 3.8.6.6 4 1.7 7.5 2.4s6.9 1.8 7.7 2.4c2.1 1.6 136.9 1.5 140.2-.1 1.3-.6 4.1-1.7 6.2-2.3 7.8-2.4 13.6-10.3 13.7-18.4 0-9.6-5.4-21-12-25.3-1.9-1.3-4.1-2.7-4.7-3.3-.7-.6-4.3-1.8-8-2.7-3.8-.9-7.7-2-8.9-2.5-4.3-1.9-47.8 2.4-52.6 5.2-2.2 1.2-20.8 1.3-20.8.1 0-.5-.8-1.1-1.8-1.3-2.5-.7-3.4-6.2-2.2-13.4.8-4.9 2-8.4 7.5-22.4 4-10.4 7.7-24 11.2-41.5 2.3-11.4 2.3-58.9 0-69-.8-3.9-2.3-10.1-3.2-14-3.4-15-11.8-36-20.3-51-2.5-4.4-11.2-17.4-15-22.4l-3.3-4.4 6.9-7.1c6.6-6.8 10.3-11.2 12.9-15.2.7-1 2.4-3.6 3.8-5.7 1.3-2.1 3.2-5.2 4.1-7 .9-1.7 2-3.4 2.3-3.7 1-.7 9.1-17.6 9.1-18.9 0-.6.4-1.1.8-1.1.5 0 1.5-1.9 2.1-4.3.7-2.3 2.1-6 3.1-8.3 1-2.2 2.4-6.2 3.1-9 .6-2.7 1.6-5.4 2-6 .5-.6 1.6-4.6 2.5-9 .9-4.3 2-8.4 2.5-8.9.4-.6 1.5-6.9 2.5-14 .9-7.2 2.1-14.1 2.8-15.4.7-1.7 1.1-13.5 1.1-38.1l-.1-35.7 7.6-1.2c4.1-.7 8-1.6 8.5-2.1.6-.4 3.2-1.3 5.9-1.9 5.6-1.4 10.7-3.5 21.1-8.8 8.3-4.2 9.3-4.9 7.9-6.3-.7-.7-4 .4-10.5 3.7-10.9 5.6-23.1 9.8-34.4 11.9-4.4.8-10.5 2-13.5 2.7-7.7 1.6-58.5 1.4-67-.2-3.6-.7-11.7-2.1-18-3.1-11.8-1.8-20.5-3.7-32-7-14-4.1-16.8-5-24.5-7.8-16.5-6.1-15.3-5.6-32.5-14.2-24.1-12-46.9-29.8-56.8-44.3-1.8-2.6-3.1-5.1-2.7-5.6.3-.5-.9-.4-2.5.2-1.7.7-2.6 1.3-2 1.5.6.2 1.8 1.8 2.7 3.5 1.9 3.8 4.7 7 13.3 15.7 7.9 7.9 11.2 10.6 21.3 17.3 4.2 2.8 7.7 5.5 7.7 5.9 0 .7-3 4.2-9.3 11-1.5 1.6-12.5 15.4-15.5 19.3-2.6 3.6-8.2 12.6-8.2 13.4 0 .5-.6 1.3-1.2 1.9-1.3 1.1-10.8 19.4-15.1 29.2-1.4 3-3.9 10-5.6 15.5-4.7 14.7-6.7 18-16.6 28.1-10.6 10.8-18.5 15.4-26.2 15.4-5.7-.1-8.1-1.8-11.3-8.1-1.9-3.6-2.4-6.4-2.7-15.9-.2-6.3.1-16.7.7-23 1.3-13.8 3.5-47.8 5.1-76 1.8-32.5 1.5-121.4-.4-145.5-.9-11-2.1-23.2-2.6-27-3.1-21.2-5.3-34.2-6.1-36-.5-1.1-1.6-5.6-2.5-9.9-.8-4.4-1.9-8.4-2.4-9-.5-.6-1.7-4.2-2.7-7.9-.9-3.7-2-6.7-2.4-6.7-.4 0-1.5-2.7-2.5-6s-2.2-6-2.6-6c-.4 0-1.1-1-1.5-2.2-.7-2.3-6.8-12-9.4-14.9-.8-1-3.1-3.6-5-5.8-1.9-2.3-4-4.1-4.7-4.1-.7 0-1.6-.6-2-1.3-1.4-2.3-11.6-7.4-17.1-8.6-6.8-1.4-19.2-1.3-25.7.3zm81.2 108.3c.6 1.6 1.6 9.1 2.3 16.8.6 7.7 1.8 20.3 2.7 28 2.2 19.6 2.1 102.9-.1 134.5-.8 12.4-2 31.7-2.6 43-.6 11.3-1.8 27.2-2.6 35.4-3.1 28.9-.5 43.1 9.2 48.9 4.5 2.7 11 3.6 12.9 1.8.6-.5 2.7-1.4 4.7-2.1 4.7-1.4 13.9-8.1 19.7-14.3 2.5-2.6 4.8-4.4 5.2-4 .4.5-.1 5.3-1 10.8-3 18.8-1.8 49.8 2.9 71.5 3.8 17.9 10.2 33.9 17.6 43.7 1.3 1.7 2.4 3.4 2.4 3.7 0 .3.7 1.4 1.5 2.3.9 1 3.8 4.5 6.4 7.8 9.5 11.8 24.3 21.2 35 22.4 6.1.7 16.7-.4 18.5-1.8.6-.5 3.1-1.7 5.6-2.7 2.5-1 5.3-2.8 6.3-4.1 2.3-2.8 4.3-2.9 5.7-.3 1.4 2.6 7.8 8.8 11.2 10.8 1.6.9 2.8 2.2 2.8 2.8 0 1.8-10.1 11.8-24 23.8-7.6 6.5-22.3 15.6-36.5 22.5-16.6 8-16.5 8-23.5 10-3.6 1.1-8 2.4-9.8 3-2.4.7-3.4.7-3.7-.2-.2-.7-.6-8-.8-16.2-.5-14.9-1.6-20.5-3.8-20.5-.9 0-1 2-.4 7.2 1.2 10.7 1 27.1-.3 36.8-1.6 11-3.2 19.2-4.2 20.5-.4.5-1.3 3.2-1.9 5.9-.7 2.8-2.1 7-3.2 9.5-4.6 10.6-9.4 20.1-10.1 20.1-.5 0-.8.6-.8 1.4 0 .7-2.1 4.4-4.6 8.2-11.9 17.9-31.1 37.7-49.4 51.2-3 2.3-5.9 4.5-6.5 5-.5.4-2.6 1.7-4.5 2.8-1.9 1-3.9 2.4-4.5 3-1.5 1.5-13.1 8.4-14.3 8.4-.5 0-1.2.7-1.6 1.5-.3.8-1.2 1.5-1.9 1.5-.8 0-3.4 1.8-5.8 4.1-3.9 3.7-4.2 4.2-2.5 5.1 1.8 1 12.9-.6 15.1-2.3.6-.4 5.1-1.5 10-2.5 5-.9 9.5-2 10-2.5.6-.4 6.7-1.5 13.5-2.4 6.9-.9 13.3-2.1 14.2-2.6 2.1-1.1 32.1-1.2 33.2-.2.4.4 3.3 1.3 6.5 1.9 9 1.9 16.3 6.5 19.5 12.4 2.9 5.2 4.7 15 2.8 15-.6 0-1.3-.9-1.7-1.9-.3-1-2.9-4.4-5.8-7.4-3.9-4.2-6.3-5.8-9.7-6.7-2.5-.7-5.3-1.6-6.3-2.2-1.3-.6-2.3-.5-3.3.3-2.1 1.7-1.7 2.9.9 2.9 1.3 0 2.7.4 3.2.8.6.5 2.9 1.4 5.2 2.1 2.4.6 5.7 2.6 7.4 4.4 3 3.2 8.9 14.3 8.9 16.9 0 1.6-7.7 6.8-10.1 6.8-1 0-2.4.3-3.2.6-1 .3-1.7-.4-2.1-2.1-1.4-5.6-5-10-14.5-17.7-1.7-1.4-12.4-1.7-13.1-.3-.3.6 2 1.5 5.1 2.1 9.2 1.8 17 8.7 18.5 16.3.6 2.7.4 3-2.8 3.6-6 1.1-132.8.1-133.6-1.1-.4-.5-3.3-1.6-6.5-2.3-3.1-.7-6.3-1.9-7.1-2.7-.8-.8-1.9-1.4-2.4-1.4-1.1 0-8.2-7.8-8.2-9 0-.5-.7-1.5-1.5-2.3-1.3-1.4-4.4-10.5-6.8-20.7-1.1-4.7-2.3-658-1.2-658 1.1 0 6.4 6 7 7.9.3 1.2 1 2.1 1.4 2.1.4 0 1.6 2.6 2.7 5.7 1 3.2 2.2 6.1 2.7 6.4.4.3 1.3 4.7 1.9 9.7 1.1 9.1 1.1 9.2 3.7 8.6 4.4-1 11.5-3.5 12.1-4.2.3-.4 2.1-1.6 4-2.6 1.9-1.1 3.9-2.5 4.3-3.3.4-.7 1.3-1.3 1.9-1.3 1.3 0 8.2-7 12.4-12.6 1.6-2.1 3.2-4.1 3.5-4.4.3-.3 1.4-2.1 2.5-4 2.7-5 5.5-7.8 6.1-6.2.3.7 1.1 1.9 1.9 2.7 1.7 1.6 4.4 8.9 4.4 11.6 0 1.1.5 1.9 1 1.9 1.2 0 1.4 18.2.1 19.5-.5.6-1.4 2.7-2 4.7-.7 2-2.5 5.3-4.2 7.4-1.6 2-2.9 3.8-2.9 3.9 0 .5 9.5-1.8 10-2.4.3-.4 2.5-1.5 5-2.6s4.9-2.5 5.3-3.2c.4-.7 1.4-1.3 2.1-1.3 1.1 0 11.9-10.8 15.1-15.1 2.7-3.5 7.4-13 8.6-17 .7-2.4 1.6-4.6 2-4.9.4-.3 1.3-4.2 2-8.8.8-4.5 1.6-8.2 1.9-8.2.3 0 1 1.2 1.7 2.7zm123.6 175.9c1.8.9 3.4 2 3.7 2.3.3.4 2.5 1.5 5 2.6s4.7 2.2 5 2.6c.3.3 2.9 1.4 5.8 2.3 2.8 1 5.2 2.1 5.2 2.5 0 .3 2.1 1.3 4.8 2 2.6.7 5.6 1.9 6.7 2.6 1.1.7 4.7 2 8 2.9 3.3.9 7.4 2.3 9 3.1 1.7.7 5.8 1.9 9.3 2.5 3.4.7 6.2 1.6 6.2 2 0 .3 4.6 1.5 10.3 2.5 5.6 1 10.4 2.2 10.7 2.6.6.8 28 4.6 43.5 6 12.8 1.2 45.8.4 48.7-1.2 1.6-.9 2.4-.7 3.7.5 1.4 1.5 1.6 5.6 1.6 36 0 23.5-.4 35.1-1.1 36.7-.7 1.3-1.9 8.2-2.8 15.4-1 7.1-2.1 13.2-2.5 13.5-.4.3-1.4 3.6-2.1 7.5-.7 3.8-2 8.8-3 11-1 2.2-2.1 5.6-2.5 7.5-.4 1.9-1.3 4.4-1.9 5.5-.7 1.1-2.1 4.4-3 7.2-2.3 6.8-15.6 32.8-17.7 34.3-.3.3-1.4 2.1-2.4 4s-2.4 3.9-3.1 4.3c-.8.4-1.4 1.3-1.4 1.9 0 1.2-20.2 21.4-28 28.1-14.8 12.6-33.9 23.9-43 25.3-2.2.4-4.3 1.1-4.6 1.5-.9 1.5-14.9 1-18-.6-1.6-.8-3.6-1.5-4.4-1.5-1.9 0-4-1.9-4-3.6 0-.6 2.1-1.5 4.8-1.9 8.2-1.2 26.2-10.9 26.2-14.1 0-2.2-2.1-1.6-6.4 1.6-2.2 1.7-4.5 3-5.2 3-.7 0-1.9.6-2.7 1.4-2.2 2.3-11.5 4.6-18.4 4.6-6.2 0-6.3 0-8.9-4-3.3-5-2.4-6.5 4.6-7.3 8.7-1 31.7-15.7 24.6-15.7-.9 0-4.8 2.2-8.8 4.8-8.3 5.5-12.4 7.2-17.9 7.2-3.2 0-4-.4-4.5-2.4-1.2-5 10.2-20.3 18.1-24.3 1.6-.9 3.7-2.1 4.5-2.9.9-.7 4.7-1.8 8.5-2.4 3.8-.6 7.4-1.5 8-1.9.5-.5 3-1.5 5.5-2.3 13.5-4.5 29.5-21.1 35-36.4 3.3-9 4.9-18.1 5-27.2 0-7.7-1-10.3-2.4-6.5-.4.9-1.1 6.1-1.6 11.4-.9 9.6-2.8 18.9-3.9 19.9-.3.3-1.2 2.3-2 4.5-2.7 7.9-9.7 17-18 23.4-7.2 5.5-14.4 8.9-23.3 10.7-4 .8-9.5 2.6-12.3 4.1-5.1 2.6-14.4 9.7-15.8 12-.4.7-1.9 2.5-3.2 3.9-1.3 1.4-2.6 3.1-2.8 3.7-.6 1.5-2.6-.9-6.6-7.8-4.9-8.3-15.7-19.7-25.7-27.2-6.9-5.2-8-7.3-9.1-17.1-.3-2.9-1-5.5-1.4-5.8-1.2-.7-1.1-18.9 0-21.2.5-.9 1.4-4.6 2.1-8.2 1.1-6.4 8.5-23 12.1-27.4 9.5-11.3 12.1-14.8 11.2-15.7-.8-.8-3 1-9 7.6-7.5 8.5-14.6 21.9-18.4 35.5-1.8 6.1-1.8 31.9 0 38.8 2 7.8 4.9 13.2 7.7 14.2 1.3.5 7.3 5.8 13.1 11.7 12.4 12.6 12.7 12.9 14.4 16.5.7 1.6 1.6 2.8 2 2.8 1 0 3.9 8.8 3.9 11.8 0 2.3-.3 2.4-3.7 1.9-2-.4-3.9-1-4.2-1.4-.3-.5-1.7-1.4-3.1-2-2.6-1.2-6-3.7-11.4-8.6-3.3-2.9-4.2-3.2-5-1.8-1.8 2.9 15 15 25.7 18.5 2.5.8 2.1 4-1 7.6-2.6 3.1-2.9 3.2-8.2 2.7-3.1-.3-5.7-1.1-5.9-1.7-.2-.5-1-1-1.8-1-1.8 0-7.3-2.8-9.2-4.6-.7-.8-1.7-1.4-2.2-1.4-.4 0-2.7-1.6-5.1-3.5-2.4-2.1-4.6-3.2-5.1-2.7-1.2 1.2-.2 3.5 2.6 5.2 1.2.8 5.2 3.4 8.7 5.7 3.5 2.3 7.6 4.5 9.1 4.8 2.8.7 5.5 3.1 4.5 4.2-1.4 1.4-11.5 2.2-17.2 1.4-5.6-.8-14.7-4.7-19-8.2-2.6-2.1-14.8-14.3-16.5-16.5-7.8-10.1-16.5-25.9-18.5-33.6-.9-3.5-2.1-7.2-2.6-8.3-1.1-2.2-4.4-20.1-6-32.5-1.3-9.2-.6-47.8.9-50.5.5-1.1 1.8-6.7 2.7-12.5 1-5.8 2.1-11 2.5-11.5.4-.6 1.7-4.2 2.8-8 2.2-7.8 6.3-18.7 7.2-19.5.3-.3 1.2-2.5 2-4.9.8-2.4 1.9-4.9 2.5-5.5.6-.6 1.7-2.7 2.5-4.6.7-1.9 1.9-4.2 2.5-5 .7-.8 2-3 3-4.9.9-1.9 2.1-3.9 2.6-4.5.5-.6 2.7-3.8 4.9-7.1s4.5-6.9 5.2-7.9c5.8-8.7 22.4-26.6 24.6-26.6.7 0 2.7.7 4.5 1.6zm129.4 248.8c1.2 1.4 3 3.7 4 5.3.9 1.5 2 3 2.4 3.3 1.2 1 8.9 13.7 8.9 14.8 0 .6.4 1.2.8 1.4 1.5.6 11.3 21.8 13.3 28.8.7 2.5 1.6 4.7 1.9 5 .4.3 1.4 4.1 2.4 8.5s2.1 8.9 2.6 10c4.8 11.2 4.8 76.7 0 88-.5 1.1-1.6 5.6-2.5 10-1 4.4-2.1 8.4-2.5 9-.4.5-1.5 3.7-2.5 7-.9 3.3-2 6.4-2.5 7-.4.5-1.5 3.5-2.4 6.5-.9 3-2.2 6.4-2.8 7.4-1.4 2.6-2.2 13.4-1.4 17.8.4 2.3 1.8 4.1 4.5 6.1 3.6 2.5 4.7 2.7 13 2.7 4.9 0 9.2-.4 9.5-.9.3-.5 6.8-1.6 14.3-2.5 7.6-1 14.6-2.1 15.5-2.7 2.4-1.2 24.5-1.2 25.3.1.3.5 1.7 1 3 1 3.6 0 11.5 2.9 13.8 5.1 1.1 1 2.8 2.1 3.7 2.4 2.3.7 6.7 10 7.4 15.5.6 4.5.6 4.5-1.1 2-.9-1.4-4-4.8-6.9-7.6-4-4.1-6.1-5.3-9.5-5.9-2.4-.4-5-1.2-5.7-1.8-.9-.7-1.8-.6-2.9.6-1.5 1.5-1.5 1.7.3 2.2 1 .4 2.7 1.1 3.6 1.6 1 .5 2.5.9 3.3.9 2.3 0 7.6 2.9 9.7 5.4 3.5 4 7.8 12.1 7.8 14.8 0 3.3-4.7 7.5-9.5 8.4-4.1.7-5.1.2-5.9-3.2-1.1-4.1-6.7-10.9-11.6-14-5.4-3.3-16-4.7-16-2.1 0 1 1.5 1.7 4.8 2.2 6.3.9 12.7 4.2 15.6 7.9 2.6 3.5 5.1 10.4 4.1 11.4-.4.4-31 .7-68 .7-52.6 0-67.7-.3-68.7-1.3-.6-.6-2-1.2-3-1.2-2.3 0-10.7-2.9-12.6-4.3-4-3.2-12.1-11.7-13.4-14.3-6.4-12.2-8.9-17.8-13.3-29.4-2-5.2-4.2-10.9-5-12.5-.8-1.7-3-7.1-4.9-12-4.6-12-14.4-30.7-22.6-43.5-1.6-2.5-3.7-5.9-4.6-7.5-.9-1.7-3.6-5.6-6-8.8-2.4-3.1-4.4-5.9-4.4-6.2 0-.3-2.1-3.2-4.7-6.6-2.7-3.3-5.2-6.8-5.8-7.6-.5-.9-1.9-2.6-3-3.8-1.1-1.2-2.9-3.4-4-4.9-1.1-1.5-2.7-3.5-3.5-4.5-.8-.9-4.1-4.8-7.2-8.6-3.1-3.9-7.3-8.7-9.2-10.8-2-2-3.6-4.4-3.6-5.2 0-.8 2.8-2.7 6.8-4.5 3.7-1.7 7.4-3.5 8.2-4 .8-.5 5.1-3 9.5-5.5 15.3-8.7 29.5-19.8 43.3-33.8l7.4-7.4 8.8.5c9.1.5 23-1.7 26-4.2.8-.7 3.1-1.9 5-2.6 1.9-.7 4.2-1.9 5.1-2.7.8-.7 1.9-1.3 2.3-1.3.7 0 10.3-6.3 12.6-8.3.8-.7 2.6-2 4-2.9 1.4-.8 5.3-4.1 8.8-7.2 3.4-3.1 6.6-5.6 7.1-5.6.4 0 1.7 1.1 2.8 2.4z"/><path d="M310.3 308.7c-.9 5.8-.9 24.4 0 29.4.5 2.5 1.4 3.9 2.7 4.2 1.5.4 2 0 2-1.3 0-1.1-.4-2.2-1-2.5-1.4-.9-1.3-29.8.1-31.2.8-.8.6-1.4-.9-2.2-1.9-1-2.1-.7-2.9 3.6zm2.3 43c.3 1.6 1.2 4.2 1.9 5.8.8 1.7 2 5.2 2.6 7.7 1.8 6.6 3.7 8.6 7.4 7.7 2-.4 2.3-.7 1-.8-1.6-.1-2.7-1.9-5.2-8.9-1.8-4.8-3.5-9.9-3.9-11.5-.4-1.8-1.3-2.7-2.5-2.7-1.6 0-1.8.5-1.3 2.7zm342.7 37.1c-.1 1.5-1.1 4.5-2.3 6.7-1.1 2.1-2 4.5-2 5.3 0 1.5-4.1 9.4-5.4 10.3-.5.4.1 1 1.3 1.4 1.3.4 2.4.5 2.5.3.9-1 5.5-11.9 6.6-15.3.7-2.2 1.6-4.5 2-5 .4-.6 1-2.2 1.4-3.8.6-2.3.3-2.7-1.6-2.7-1.8 0-2.3.6-2.5 2.8zm-13.7 28.5c1 2.7-14.7 19.3-17.2 18.3-1.1-.4-1 0 .3 1.8l1.8 2.3 4.1-3.6c4.4-3.7 16-17 15.3-17.4-4.4-2.5-4.8-2.6-4.3-1.4z"/></g><path d="M130.5 556c0 179 .1 252.3.2 162.8.2-89.6.2-236 0-325.5-.1-89.6-.2-16.3-.2 162.7z" fill="#CCB27F" stroke="#CCB27F" stroke-width="3"/><path d="M554.3 796c0 4.7.2 6.6.4 4.2.2-2.3.2-6.1 0-8.5-.2-2.3-.4-.4-.4 4.3z" fill="#FFFFE5" stroke="#FFFFE5" stroke-width="3"/><path d="M668.4 203c0 6.9.1 9.7.3 6.2.2-3.4.2-9 0-12.5-.2-3.4-.3-.6-.3 6.3zm-169 13.5c0 11 .2 15.6.3 10.3.2-5.3.2-14.3 0-20-.1-5.7-.3-1.3-.3 9.7zM259.7 305c.3 5.8.7 10.7.9 10.9.7.7.2-10.1-.6-15.9-.6-3.9-.7-2.4-.3 5zm1.7 54.5c0 8.2.2 11.5.3 7.2.2-4.3.2-11 0-15-.1-4-.3-.5-.3 7.8zm-1.7 53c-.4 3.8-.6 9.7-.6 13 .1 4.1.5 2.4 1-5.5 1-12.9.7-18.3-.4-7.5zm99.9 174.1c-.8 2.1-.6 19.5.2 21.6.4 1 .7-3.9.7-10.7 0-6.9-.1-12.5-.1-12.5-.1 0-.5.7-.8 1.6zm4.1.1c-1 .9-.9 20.1.1 20.6.4.3.7-4.4.7-10.4s0-10.9-.1-10.9c0 0-.4.3-.7.7zm52.8 129.5-9 9.3 9.3-9c5-4.9 9.2-9.1 9.2-9.2 0-.8-1.2.4-9.5 8.9zM438 708l-8.5.6 8 .1c4.4.1 8.9-.2 10-.7 1.1-.5 1.3-.8.5-.7-.8 0-5.3.4-10 .7zm-118.6 45c0 5.8.1 8.1.3 5.2.2-2.8.2-7.6 0-10.5-.2-2.8-.3-.5-.3 5.3zM211.8 955.7c17.2.2 45.1.2 62 0 16.9-.1 2.8-.2-31.3-.2s-47.9.1-30.7.2zm310.5 0c16.9.2 44.5.2 61.5 0 16.9-.1 3-.2-30.8-.2s-47.7.1-30.7.2z" stroke-width="3" fill="#B24C00" stroke="#B24C00"/><path d="M357.4 194.5c0 6.6.1 9.2.3 5.7.2-3.4.2-8.8 0-12-.2-3.1-.3-.3-.3 6.3zm141 24.5c0 5.2.1 7.4.3 4.7.2-2.6.2-6.8 0-9.5-.2-2.6-.3-.4-.3 4.8zm-185 105c0 5.2.1 7.4.3 4.7.2-2.6.2-6.8 0-9.5-.2-2.6-.3-.4-.3 4.8zm-53 11.5c0 11 .2 15.6.3 10.3.2-5.3.2-14.3 0-20-.1-5.7-.3-1.3-.3 9.7zm401 9.5c0 5.8.1 8.1.3 5.2.2-2.8.2-7.6 0-10.5-.2-2.8-.3-.5-.3 5.3zm-401 44c0 9.6.2 13.6.3 8.7.2-4.8.2-12.6 0-17.5-.1-4.8-.3-.8-.3 8.8zm261.8 72.7c3.7.2 10 .2 14 0 4-.1 1-.3-6.7-.3s-11 .1-7.3.3zM307.4 577c0 8.5.2 12 .3 7.7.2-4.2.2-11.2 0-15.5-.1-4.2-.3-.7-.3 7.8zm-30.1 330.7c3.1.2 8.3.2 11.5 0 3.1-.2.5-.3-5.8-.3s-8.9.1-5.7.3z" stroke-width="3" fill="#B26600" stroke="#B26600"/><path d="M260.4 363.5c0 4.9.1 7.1.3 4.8.2-2.3.2-6.4 0-9-.2-2.6-.3-.8-.3 4.2zm262.9 103.2c4.3.2 11 .2 15 0 4-.1.5-.3-7.8-.3-8.2 0-11.5.2-7.2.3zm42.1 32.8c0 7.1.1 9.9.3 6.2.2-3.7.2-9.6 0-13-.2-3.4-.3-.4-.3 6.8zM302.3 571c0 4.7.2 6.6.4 4.2.2-2.3.2-6.1 0-8.5-.2-2.3-.4-.4-.4 4.3zm207.2 90.2-8 8.3 8.3-8c4.5-4.4 8.2-8.1 8.2-8.2 0-.8-1.1.3-8.5 7.9zm-191.1 92.3c0 4.9.1 7.1.3 4.8.2-2.3.2-6.4 0-9-.2-2.6-.3-.8-.3 4.2zm-182 127c0 6 .1 8.4.3 5.2.2-3.2.2-8.1 0-11-.2-2.9-.3-.3-.3 5.8zm76.4 74.2c16.6.2 43.8.2 60.5 0 16.6-.1 3-.2-30.3-.2s-46.9.1-30.2.2zm310 0c16.6.2 43.8.2 60.5 0 16.6-.1 3-.2-30.3-.2s-46.9.1-30.2.2z" stroke-width="3" fill="#C60" stroke="#C60"/><path d="M213.3 960.7c16.4.2 43 .2 59 0 16.1-.1 2.7-.2-29.8-.2-32.4 0-45.6.1-29.2.2zm310 0c16.4.2 43 .2 59 0 16.1-.1 2.7-.2-29.8-.2-32.4 0-45.6.1-29.2.2z" stroke-width="3" fill="#E5CC99" stroke="#E5CC99"/><path d="M486.4 168c0 5.2.1 7.4.3 4.7.2-2.6.2-6.8 0-9.5-.2-2.6-.3-.4-.3 4.8zm11.3 17.4c-.4 4.3-.6 12-.6 17 .2 7.4.4 6 1-6.9.9-17.2.7-23.1-.4-10.1zm-13.1 9.7c-.4 3.9-1 7.8-1.2 8.8-.5 1.4-.4 1.4.4.1 1.1-1.6 2.8-16 2-16-.3 0-.9 3.2-1.2 7.1zm181.8 7.4c0 5.5.1 7.6.3 4.7.2-2.9.2-7.4 0-10-.2-2.6-.3-.2-.3 5.3zm-169.3 29.1c.1 4.3.5 9.2.9 10.9.4 1.6.5-1.7.2-7.5-.6-12.5-1.2-14.6-1.1-3.4zM137.5 572.5c0 171.6.1 241.7.2 155.7.2-86 .2-226.4 0-312-.1-85.6-.2-15.3-.2 156.3zm120.7-256c0 7.7.3 15.1.7 16.5.4 1.4.6-4.5.3-13-.5-19.8-1-21.7-1-3.5zm56.5.7c-.4 4-.3 10.2.2 13.8.6 5.4.7 4.3.7-7.3 0-7.5-.1-13.7-.2-13.7s-.4 3.3-.7 7.2zm-56.1 66.9c-.3 3.4-.5 12.5-.4 20.3.1 14.1.1 14.1.8-5.9.4-11 .7-20.1.5-20.3-.1-.1-.5 2.5-.9 5.9zM495.5 458c4 1.1 17.6 2 15 1-1.1-.4-5.6-.9-10-1.2-4.7-.3-6.8-.2-5 .2zm60.3-.1c-7.2.8-8.6 2-1.6 1.3 6.2-.5 13.7-2 9.8-2-1.4.1-5.1.4-8.2.7zm-302.2 26.6c-.3.9-.5 5.1-.4 9.3l.1 7.7.7-9c.7-9.5.6-10.6-.4-8zm310.8 15c0 6.6.1 9.2.3 5.7.2-3.4.2-8.8 0-12-.2-3.1-.3-.3-.3 6.3zm-254.7 54.9c-.4 2.7-.6 6.7-.6 9 .1 2.5.5 1.1 1-3.9 1-8.9.6-12.8-.4-5.1zm178.5 13.8c-.7.7-1.2 1.6-1.2 2.2 0 .5.6.2 1.3-.8.7-1 2.2-1.6 3.3-1.4 1.7.3 1.9 1.2 1.9 9.5 0 5 .3 8.6.7 8 .4-.7.8-4.6.8-8.8 0-7.6-.9-9.9-4-9.9-.9 0-2.1.5-2.8 1.2zm-179.1 22.9c0 3 .4 7.2.9 9.4.6 2.8.7 1.3.3-5-.6-10.1-1.3-12.6-1.2-4.4zm48.4 9.1c.2 6.4.8 12.5 1.5 13.5 1 1.6 1 1.5.4-.6-.3-1.3-1-7.3-1.4-13.5l-.9-11.1.4 11.7zm58.8 104.5c1.7 1.9 1.5 2.1-4.3 7.7-3.3 3.2-6 6-6 6.4 0 .3 2.9-2.3 6.5-5.8s6.5-6.8 6.5-7.2c0-.4-1-1.3-2.2-1.9-2.2-1.2-2.3-1.1-.5.8zm-91.9 44.5c.1 8.2.3 14.8.6 14.7.3 0 1.4-.4 2.5-.9 1.7-.7 1.7-.9.3-.9-1.6-.1-1.8-1.2-1.9-8.4-.1-4.5-.4-10.7-.8-13.7-.5-3.8-.7-1-.7 9.2zm222 46.3c0 7.7.2 10.7.3 6.7.2-4 .2-10.3 0-14-.2-3.7-.3-.4-.3 7.3zm-171.3-4.8c7 8.8 8.6 10.6 7.4 8.3-1.2-2.2-12.5-16-13.1-16-.3 0 2.3 3.5 5.7 7.7zM271 909c-3.2.4 1.3.6 11 .6 10.2-.1 14.6-.3 11.5-.7-6-.9-15-.8-22.5.1zm319.8.7c3.4.2 9 .2 12.5 0 3.4-.2.6-.3-6.3-.3-6.9 0-9.7.1-6.2.3z" stroke-width="3" fill="#FF7F00" stroke="#FF7F00"/><g fill="#F90" stroke="#F90" stroke-width="3"><path d="M379.1 124.3c-.6.6-1.1 1.6-1.1 2.3 0 .6-1.1 2.7-2.4 4.6-1.3 2-2.9 5.3-3.6 7.4-.7 2.2-1.9 5-2.6 6.4-1.9 3.6-6 16.5-7.3 23-3.4 18-3.6 29.8-.5 48.4l1.5 9-2.8 2.6c-5.5 5.1-23.3 26.1-23.3 27.4 0 .2-1.9 3.4-4.1 7.2-4.3 7.1-9.6 18.5-12.4 26.9-3.2 9.6-3.2 9.4 4.1 16 16.6 14.9 17.4 15.8 17.4 18.1 0 2.6-2.7 4.5-5.1 3.5-1.4-.5-13.4-10.8-19-16.2-1.5-1.5-1.7-1.2-2.2 4.2-.5 5.9 0 20.3.9 24.6.4 2.1 1 2.3 7.5 2.3 3.9 0 7.9.5 9 1 2.1 1.2 2.5 5 .7 6.8-1.5 1.5-11.2 1.6-14 .1-1.6-.9-1.9-.8-1.5.3.3.7 1.5 4.4 2.7 8.3 4.1 13.1 4.2 13.2 11.8 9.8 4.8-2.1 8.2-1 8.2 2.6 0 3.4-1.5 4.9-5.9 5.7-4.1.8-4.6 1.9-2.6 5 3.1 4.8 15.6 17.5 22.1 22.4 2.5 1.9 5.5 4.3 6.6 5.2 1.2 1 2.4 1.8 2.8 1.8.3 0 1.5.9 2.7 1.9 1.1 1.1 3.8 2.9 5.9 4 2.1 1.2 4.6 2.5 5.4 3 5.3 3.3 18.3 10 22.5 11.5 2.8 1.1 5.2 2.2 5.5 2.6.3.4 3 1.5 6 2.5s6 2.1 6.5 2.5c.6.4 3.9 1.6 7.5 2.6s6.7 2.1 7 2.4c.8 1.1 30 8.3 44.5 11.1 18.5 3.5 64.7 5.7 75 3.6 1.7-.3 8.6-1.4 15.5-2.3 6.9-.9 13-2 13.5-2.4.6-.4 3.5-1.3 6.5-2 6.4-1.5 24.7-9.5 28.8-12.5.6-.5-3.2-7.5-4-7.5-1.5 0-.8-4.8.8-5.4 3.8-1.4 6-.6 7.7 2.9.9 1.9 2.3 3.5 3.1 3.5 1.4 0 6.1-4.5 13.1-12.4l2.5-2.9-6.7-2.7c-6.2-2.5-6.8-3-7.1-5.9-.3-2.9-.1-3.1 2.7-3.1 3.9 0 12.1 2.2 12.1 3.2 0 .4.8.8 1.8.8 1.8-.1 6.2-8.3 8.1-15.7.6-2.3 1.6-4.5 2.1-4.8.6-.3 1-1.1 1-1.7 0-.7-3.6-.8-11.4-.3-13.7.8-15.6.4-15.6-3.5 0-3.6 1.1-4 13.3-4.1 13.4-.1 14.9-.6 16-4.9.4-1.9 1.2-4.9 1.8-6.5 1.5-4.6 2.2-31 1.1-39.5-1.3-9.6-4.9-26.9-6.1-29.5-.5-1.1-1.5-3.8-2.2-6-.6-2.2-2.5-6.8-4.1-10.3-3-6.6-3-8.5 0-11.8 1-1 2.6-3.5 3.5-5.4 1-1.9 2.2-4.2 2.7-5 4.4-7 9.4-22.6 11.7-36 1.8-11 1.3-47.1-.7-49.5-2.8-3.4-42.8.1-48.3 4.3-.7.5-3.4 1.7-6.1 2.7-4.9 1.8-9.7 4.5-14.8 8.4-1.4 1.2-3.1 2.1-3.7 2.1-.6 0-2.3 1.9-3.8 4.2-1.5 2.4-3 4.5-3.4 4.8-.3.3-1 1.2-1.5 2.2-2.3 4.1-17.7 20.8-23.1 25-4.1 3.2-8.2 4.8-12.2 4.8-5.4 0-7.1-2.5-7.1-10.4 0-6.6 1.8-18.5 3-20.1.5-.6 1.6-4.1 2.4-7.9.9-3.8 2-7.4 2.5-8 .5-.6 1.7-3.7 2.7-6.9 1-3.1 2.1-5.7 2.6-5.7.4 0 .8-.8.8-1.8 0-2-4-4.7-8.6-5.6-3-.7-3.1-.6-3.8 3.5-.4 2.4-1.3 5.7-2.1 7.3-.8 1.7-2.1 6.2-3 10-.8 3.8-1.9 7.4-2.4 8-.4.6-1.6 4.2-2.6 8.1-1 3.8-2.2 7.4-2.5 8-.4.5-1.5 3.7-2.5 7-.9 3.2-2.3 6.8-3.1 7.9-.8 1.1-1.4 2.7-1.4 3.5 0 .8-1.3 4.3-3 7.8-1.6 3.4-3 6.6-3.1 7.1-.2 2-6.9 9.8-9.2 10.6-3.9 1.4-5.6-.7-7.8-10-1.6-6.6-1.9-11.9-1.9-31.4 0-14.1.6-28.7 1.5-36.5.8-7.2 1.5-14.9 1.5-17.3V157h-13.5l-.3 18.3c-.2 18.4-.7 22.7-3.7 34.9-2.1 8.5-4.8 11.8-9.7 11.8-3.1 0-4.3-.7-8.2-5.1-2.5-2.8-4.6-5.7-4.6-6.4 0-.7-.6-1.8-1.3-2.4-.8-.6-1.9-3-2.6-5.3-.7-2.4-1.7-4.8-2.1-5.3-1.2-1.5-7.7-22.4-8.5-27.3-.5-3.2-1.1-4.2-2.6-4.2-1 0-1.9-.4-1.9-.8 0-3.2-16.2-20.1-25-26-3-2-5.7-3.9-6-4.2-1.1-1.1-13.8-6.9-17.5-8-2.2-.6-4.9-1.5-6-2-3.6-1.5-6.3-1.8-7.4-.7zm18.7 30.1c10 6.7 20.1 15.8 23.4 21.1 5.4 9-2.4 16.7-24.4 23.9-4.3 1.4-9.3 2.8-11.1 3.1-3.2.6-3.5.4-4-2.2-1.4-6.5-1.9-30-.8-37.1 1.4-8.7 3.8-15.2 5.8-15.2.8 0 5.8 2.9 11.1 6.4zm249.9 42.2c1 2.8-1.6 18.8-4.2 26-3.8 10.1-11.5 25.4-12.9 25.4-.7 0-6-3.8-11.9-8.5-14.4-11.6-20-19.9-17.7-26 1.3-3.4 2.9-4.7 9.5-8.1 8.2-4.2 24.7-8.9 35.8-10.3.4-.1 1 .6 1.4 1.5zM449 304.7c5.4 5.3 5.3 15.1-.2 20.3-2.8 2.7-3.8 3-9.4 3-5.6 0-6.7-.3-9.8-3-7.1-6.3-5.3-19 3.4-23.2.8-.4 4.1-.6 7.2-.5 4.7.3 6.2.8 8.8 3.4zm101.4 16.7c11.1 4.6 9.4 23.5-2.4 26.1-10.9 2.4-19.9-6.5-17.5-17.4 1.8-8.2 11.3-12.3 19.9-8.7zm-156.6 21c5.9 3.2 10.9 9.8 12.6 17 3 12.2-9.1 26.7-22.4 27-21.1.4-31.8-24.5-16.9-39.4 2.8-2.9 6.3-5.2 8.6-5.8 4.7-1.4 14.5-.7 18.1 1.2zm96.2 9.7c2.5.5 6.4 1.9 8.7 2.9 2.4 1.1 4.6 2 5 2 .4 0 2.2 1.4 4 3.2 2.7 2.6 3.3 4 3.3 7.3s-.6 4.7-3.2 7.1c-5.1 4.8-10 7.3-15.9 8.1-5.4.8-5.4.8-5.7 4.6-.4 4.9 3 12.1 6.9 14.4 1.6 1 2.9 2 2.9 2.4 0 .9 8.1 2.9 11.6 2.9 3.7 0 10.1-3.2 15.3-7.6 3.2-2.8 4.7-3.5 6.6-3 3.7.9 3.3 5-.9 8.9-6.6 6.3-10.1 8.1-18.4 9.7-5.3 1-15.7-1.4-20.1-4.7-4.2-3.1-9.2-8.7-9.7-11-.7-2.8-1.9-2.9-3.7-.3-.7 1.1-3.9 3.1-7.1 4.5-15.1 6.7-32 .1-39.4-15.4-2.6-5.5-2.4-7.3 1.1-9.5 1.8-1.2 5.7 1.6 5.7 4.1 0 1.7 4.5 7.9 8 11 6.4 5.7 19.8 5.1 26.3-1.2 5.5-5.3 6.8-11.4 2.5-11.5-1.4 0-7.8-4.8-10.1-7.6-4.2-5.1-6.7-10.1-6.7-13 .1-3.6 3-7.3 6.7-8.4 4-1.2 21-1.1 26.3.1zm97.3 25.3c12.5 5.4 17.7 22.4 10.1 33.6-1.6 2.5-5 5.8-7.4 7.5-4 2.7-5.3 3-12 3s-8-.3-12-3c-7-4.7-10.3-10.3-10.8-17.9-.2-3.5.1-8 .7-9.9 1.5-4.3 8.1-11.3 12.4-13.2 4.2-1.8 14.9-1.9 19-.1zM249.5 269.2c-6.2 18.9-18.4 32.7-36.5 41.2-5.2 2.3-17 4.7-17 3.3 0-.4 2-2.7 4.4-5.2 4.5-4.7 8.4-13.2 9.3-20.6.6-4.2-2.9-17.6-6-22.7l-1.9-3.3-4.8 7.1c-10.3 15.6-23.5 26.4-37 30.4-8.8 2.6-8.6 2.7-9.5-6.7-.4-4.5-1-8.7-1.4-9.2-.5-.6-1.5-3.3-2.5-6.2-.9-2.9-2.6-6.8-3.9-8.6-1.2-1.9-2.7-4.3-3.4-5.3-.9-1.5-1.2 69.9-1.2 317.1 0 175.4.4 322.1.9 326 1.2 10.6 4.5 23.6 7.1 28 6.5 11.3 12.1 15 26.9 17.7 7.5 1.3 132.4 2.4 131.8 1.1-4.3-10.1-9.8-14.7-18.7-15.9-5.1-.7-6.1-1.8-5.3-5.8.4-1.7 1.2-1.8 7.5-1.4 10.6.7 17.6 5.8 22.7 16.4 2.3 4.6 3.6 5.2 7.3 3.2 4.7-2.5 5-3.4 3.2-8.9-3-9-11.7-15.9-20.1-15.9-2.8 0-4.6-2.3-4.2-5.2.3-2 1-2.3 5.2-2.6 2.9-.2 6.1.3 8.1 1.2 1.8.9 3.8 1.6 4.3 1.6.6 0 3.2 2.1 5.8 4.6 2.5 2.6 4.5 4.2 4.2 3.8-.2-.5-1.2-2.6-2.1-4.7-2.3-5-10.5-10.2-19.4-12.3-9-2.2-31-2.1-46.9.2-6.5.9-12.3 2-12.9 2.4-.5.4-5.3 1.5-10.5 2.5s-10 2.1-10.5 2.6c-.6.4-5.2 1.5-10.3 2.5-8.5 1.5-9.4 1.5-11.6 0-2.4-1.5-2.5-1.7-.9-4.4 1.5-2.6 9.5-9 14.8-11.8 2.8-1.5 6.9-4.1 14.8-9.3 3.8-2.5 7.6-5.1 8.6-5.6.9-.6 2.3-1.5 3.1-2.2.8-.7 4.9-4 9-7.3 11-9 23.8-21.7 30.8-30.6 3.4-4.4 6.8-8.7 7.6-9.6.8-.9 2.2-3.2 3.2-5 .9-1.8 2.2-4 2.9-4.8 1.9-2.2 10.3-18.7 11.6-22.9.6-2 1.9-5.4 2.9-7.6 1-2.2 2.3-6.7 3-10 .7-3.3 1.6-6.5 2-7 1.8-2.3 3.3-24.2 2.6-40.1-.6-16-.6-16.3 1.5-16.9 4.5-1.5 6.7 5 7.6 22.7.4 8.7 1 12.8 1.8 12.8 7.2 0 49.1-19.2 53.5-24.5.7-.8 1.7-1.5 2.2-1.5 1.8 0 17.8-13.1 28-22.9l6.7-6.4-7.1-6.9c-5.8-5.5-7.3-6.5-8.2-5.4-.6.8-4 2.9-7.5 4.8-6.3 3.2-6.8 3.3-18.6 3.3-12 0-12.1 0-19.8-3.9-11.2-5.6-21.7-15.7-32.2-31.1-5.2-7.6-12.3-21.5-13.5-26.5-.8-3-1.7-6-2.1-6.5-.4-.6-1.5-5.3-2.4-10.5-.9-5.2-2-10.2-2.5-11.1-2.8-5.3-3.8-51.4-1.4-65.3l.7-4-3.4 3.5c-4.9 4.8-9.5 8.2-15.9 11.5-4.5 2.4-6.7 2.9-12.5 2.9-6.2 0-7.4-.3-10.6-2.9-2-1.6-4.8-5.3-6.3-8.2-3.7-7.2-4.2-20.1-2.1-46.9 7.6-96.7 8.5-156.8 3.5-225-1.6-22.1-2.1-22.8-6.5-9.3z"/><path d="M367.9 433.1c-3 3.4-6.3 7.1-7.4 8.3-1.1 1.1-4.5 5.5-7.5 9.6-19.1 25.9-27.7 43.8-38.6 80.1-1.7 5.7-4.1 24.1-5 37.9-.6 10.2 1.5 37.5 3.6 47.5 5.7 26.2 12.3 40.2 27.2 58 12.4 14.8 29.8 23.7 40.3 20.7l3-.9-3.9-1.7c-8.2-3.5-19.6-12.2-19.6-15 0-5.5 3.6-6 9.4-1.3 7.4 5.9 12.8 8.9 19.4 10.8 6.8 1.9 7.8 1.7 11-2 1.8-2.2 1.5-2.8-1.8-3.4-4.8-1-13.3-6.3-20-12.6-6.1-5.8-6.3-6-4.8-8.3.8-1.3 2.2-2.4 2.9-2.6.8-.1 4.9 2.7 9.2 6.2 7.1 5.9 14 9.6 15.4 8.2.9-.9-5.6-12.7-10-18.1-5.4-6.7-15.4-16.2-21.5-20.5-2.8-1.9-5.5-4.4-6.1-5.5-1.2-2.2-3.7-12-5.3-20.5-1.1-6.1-.4-25 1.1-27.7.5-1 1.5-4 2.1-6.8.6-2.7 2.2-7.3 3.6-10.2 1.3-3 2.4-5.6 2.4-5.8 0-1.2 10.6-15.8 14.8-20.4 3.7-4.1 5.4-5.2 7.3-4.9 1.7.2 2.5 1 2.7 3 .2 2-1.2 4.5-6.4 10.7-7.1 8.6-11.1 15.1-14 22.9-1 2.6-2.1 5.1-2.5 5.7-1.7 2.4-3.1 17.1-2.6 27.8.7 16 2.4 20.3 10.2 26.6 3.4 2.8 8 6.7 10.3 8.8 4.6 4.3 16.2 18.3 16.2 19.6 0 .5.7 1.5 1.5 2.4 1.4 1.3 2.2.8 7.8-4.9 7.2-7.5 17.5-13.6 24.4-14.4 2.6-.4 5.3-1 5.8-1.4.6-.4 3.4-1.4 6.2-2.4 10.3-3.2 21.6-13 28.9-24.9 4-6.4 7.5-19.2 8.7-31.3 1-9.2 1.6-11.9 3-12.8 1.2-.8 2.2-.8 3.5 0 1.4.9 1.7 2.5 1.6 9.5-.1 9.4-2.4 22.9-4.7 28-3 6.7-5.8 12.5-7.3 15.2-2.2 4-16.1 17.7-17.9 17.7-.8 0-1.5.4-1.5.8 0 1.5-13.3 7-20.5 8.5-8.6 1.7-15.5 5.1-21.8 10.7-4.9 4.4-10.7 13.1-10.7 16.2 0 4.1 10.4.4 22.2-7.9 2.6-1.8 5.4-3.3 6.2-3.3 2.2 0 3.9 2.8 3.2 5.2-.6 2.2-10.3 9.8-12.5 9.8-.6 0-1.1.4-1.1.9 0 .9-13.9 6.1-16.4 6.1-1.5 0-1.5.2 0 3.1l1.6 3.2 7.6-.6c8-.6 12.4-2.4 23.7-9.4 5.7-3.6 8.5-3.1 8.5 1.6 0 2.2-.9 3.4-4.7 5.8-6.2 4-14.3 8.3-15.7 8.3-.6 0-2.9.5-5.1 1.2l-4 1.1 3 1.3c5.6 2.4 25.2 1.3 29.1-1.7.6-.5 2.9-1.5 5.2-2.3 2.3-.8 5.4-2.3 6.9-3.4 1.5-1 4.8-3.2 7.3-4.8 15.6-10 40-32.8 47.7-44.5 2.4-3.5 4.7-6.9 5.2-7.5.5-.6 1.9-2.9 3-5 1.2-2.1 2.6-4.6 3.1-5.4 2-3.1 11-22.3 11-23.4 0-.6.8-2.8 1.9-4.9 1-2 2.7-6.7 3.7-10.4 1-3.8 2.1-7 2.5-7.3.4-.3 1.5-4.6 2.4-9.5 1-5 2.1-9.5 2.6-10 .4-.6 1.4-7.1 2.3-14.5.9-7.4 2.1-15.8 2.7-18.5 1.1-5.3.6-46.8-.6-56.2l-.7-5.3-4.1.7c-2.2.3-12.7.6-23.3.7l-19.2.1-.5 5c-2 23.2-10.9 38.3-27.2 46.1-3.8 1.9-7.7 3.4-8.6 3.4-1.9 0-2.9-4.4-2.9-13.1 0-3.1-.3-7.8-.7-10.4l-.6-4.7-2.1 3.9c-4.3 8.2-7.3 11.5-19.9 21.8-5.3 4.4-18.9 11.7-19.9 10.7-2-2-3-16-1.9-24.4.6-4.4 1.5-8.6 2-9.2 1.3-1.7 3.4-8.7 2.7-9.3-.3-.3-2.7.7-5.3 2.3-7.2 4.4-8.2 5-15.9 9.3-4 2.2-7.7 4.2-8.4 4.3-2 .5-3.8-6.1-3.9-14.1-.1-11.1 5.5-29.1 12-38.3 1.1-1.4 1.9-2.9 1.9-3.2 0-.6-10.2-5.6-11.4-5.6-1.6 0-24-10.7-27.8-13.2-1.4-1-2.8-1.8-3.1-1.8-.2 0-2.8 2.8-5.8 6.1z"/><path d="M501.9 678.3c-4.8 4.7-20.7 16.6-27.3 20.4-5.3 3.1-16.4 8.2-19.1 8.9-1.6.4-3.6 1.2-4.4 1.8-.8.7-6.3 1.1-13.5 1.2l-12.1.1-7.5 7.4c-9.5 9.4-22.8 20.6-29.1 24.4-.9.5-2.9 1.9-4.5 2.9-8.7 5.8-10.1 6.6-11.1 6.6-.6 0-2.1.8-3.4 1.9-1.3 1-5.9 3.3-10.1 5.2l-7.7 3.3 5.7 6.5c3.1 3.6 6.4 7.5 7.4 8.6 4.7 5.4 15.2 18.3 16.6 20.5.9 1.4 1.9 2.7 2.2 3 2.4 2.2 17.3 23.8 25.8 37.5 1.4 2.2 3.2 5.1 4.1 6.5.9 1.4 3.4 6.1 5.6 10.5 2.2 4.3 4.6 8.5 5.3 9.3.6.7 1.2 1.7 1.2 2.2 0 .5 1.1 3.3 2.4 6.2 1.3 2.9 2.9 7.1 3.6 9.3.7 2.2 1.9 4.9 2.6 6 .8 1.1 1.4 2.5 1.4 3.2 0 .7.9 3.2 1.9 5.6 2.6 5.5 6.8 16.1 8.8 21.7.9 2.5 2.3 5.1 3 5.8.7.7 1.3 1.9 1.3 2.6 0 .7 1.4 3.2 3 5.4 1.7 2.3 3 4.4 3 4.7 0 1.6 7.6 7.8 12.7 10.4 9.9 5.1 14.3 5.4 82.3 5.5l62.5.1-.2-2.7c-.2-3.1-4.5-8.3-8.8-10.7-1.6-.9-5.5-2.1-8.5-2.6-5.2-1-5.5-1.2-5.5-4v-3l7.5.1c6.7.1 8 .5 12.3 3.3 5 3.4 10.1 10 11.3 14.4.3 1.5 1 2.7 1.4 2.7 3.2 0 10-4.5 10-6.5 0-2.2-6-12.1-8.7-14.5-3.1-2.7-8.6-4.9-12.4-5-1.4 0-3.4-.9-4.3-1.9-1.5-1.6-1.5-2.2-.4-4 1.3-2.2 2.2-2.4 7.3-2.2 4.9.3 13.9 4.6 16.6 8 2.5 3.1 2.4 2.1-.2-2.3-2.6-4.5-11.7-10-18.7-11.5-10.6-2.2-46.8-.1-52.5 3-2.3 1.3-20.3 2.4-24.8 1.5-1.9-.4-5-1.9-6.9-3.5-3.2-2.7-3.4-3.3-3.8-10.1-.4-7 1.3-18.6 2.9-19.5.4-.3 1.5-3.1 2.4-6.3.9-3.1 2-6.2 2.5-6.7.4-.6 1.6-3.9 2.5-7.5 1-3.6 2.1-7 2.6-7.5.4-.6 1.5-5.1 2.4-10 .9-5 2-9.8 2.5-10.7 3.1-5.8 3.9-60.9 1-71.3-.6-2.2-2-8.3-3.1-13.5-1.1-5.2-2.4-9.9-2.8-10.5-.4-.5-1.3-3-2-5.5s-2.2-6.4-3.2-8.7c-1-2.3-1.9-4.5-1.9-4.8 0-1.2-7.5-16-8.7-17.3-.7-.7-1.3-1.7-1.3-2.2 0-.8-4.8-8.6-10.1-16.6-1.5-2.1-3.5-4.7-4.6-5.7-1.9-1.7-2.1-1.6-4.4.6z"/></g><path d="M485.5 157.2c-.3.8-.4 8.1-.2 16.3l.3 15 .2-15.8.2-15.7h13.9l.4 3.2.5 3.3-.2-3.5-.1-3.5-7.3-.3c-5.3-.2-7.4.1-7.7 1zm-127.1 37.3c0 4.9.1 7.1.3 4.8.2-2.3.2-6.4 0-9-.2-2.6-.3-.8-.3 4.2zm302 151c0 4.9.1 7.1.3 4.8.2-2.3.2-6.4 0-9-.2-2.6-.3-.8-.3 4.2zm-403 94.5c0 5.2.1 7.4.3 4.7.2-2.6.2-6.8 0-9.5-.2-2.6-.3-.4-.3 4.8zm-6.1 89c0 4.7.2 6.6.4 4.2.2-2.3.2-6.1 0-8.5-.2-2.3-.4-.4-.4 4.3zm57.1 47.5c0 6.6.1 9.2.3 5.7.2-3.4.2-8.8 0-12-.2-3.1-.3-.3-.3 6.3zm-7 .5c0 5.8.1 8.1.3 5.2.2-2.8.2-7.6 0-10.5-.2-2.8-.3-.5-.3 5.3zm207.1 84.2-11 11.3 11.3-11c6.1-6 11.2-11.1 11.2-11.2 0-.8-1.3.5-11.5 10.9zm-91 56-8 8.3 8.3-8c4.5-4.4 8.2-8.1 8.2-8.2 0-.8-1.1.3-8.5 7.9zm-93.1 36.3c0 4.9.1 7.1.3 4.8.2-2.3.2-6.4 0-9-.2-2.6-.3-.8-.3 4.2zm223 42c0 6 .1 8.4.3 5.2.2-3.2.2-8.1 0-11-.2-2.9-.3-.3-.3 5.8z" stroke-width="3" fill="#E57F00" stroke="#E57F00"/><path d="M136.5 565c0 168 .1 236.8.2 152.8.2-84.1.2-221.5 0-305.5-.1-84.1-.2-15.3-.2 152.7z" fill="#CC7F00" stroke="#CC7F00" stroke-width="3"/><path d="M385.5 154.2c-.4 1.8-1.2 3.9-1.7 4.6-1.4 1.7-2.2 26-1.1 34.7 1 8 .1 7.7 11.8 4.2 16.2-4.9 26.5-11.5 26.5-17.1 0-3.7-15.3-19.1-22.9-23-1.6-.9-3.1-1.9-3.3-2.3-.4-1-6.3-4.3-7.6-4.3-.6 0-1.4 1.5-1.7 3.2zm254 43.9c-2.7.5-5.9 1.3-7 1.8-1.1.5-4.2 1.5-7 2.1-6.7 1.6-16.7 6.2-20.5 9.7-2.5 2.2-3 3.3-2.6 5.6.3 1.5 1 3.3 1.6 4 .6.6 2.3 2.9 3.8 4.9 5.4 7 22.3 20.1 23 17.9.2-.6 1-1.8 1.8-2.5.8-.8 1.4-1.7 1.4-2.1 0-.3 1.5-3.9 3.4-7.9 1.9-4.1 3.8-9 4.1-11 .4-2 1.1-3.6 1.5-3.6.8 0 3-12.3 3-16.9 0-1.7-.3-3-.7-3-.5.1-3 .5-5.8 1zm-263 145.1c-1.6.6-3.6 1.7-4.3 2.5-.8.7-2.1 1.7-3.1 2.2-.9.5-3 3.5-4.5 6.6-2.4 4.7-2.8 6.4-2.3 10.5 1 8.1 7.2 16.1 13.7 17.5 1.7.4 3 1.1 3 1.6 0 1.2 7.7 1.2 8.5 0 .3-.5 1.8-1.2 3.3-1.6 7.6-1.6 17.4-18.5 13.4-23.1-.5-.5-1.6-2.9-2.5-5.4-3.2-8.6-16.3-14.2-25.2-10.8zm190.7 37.7c-2.4 1.5-5.1 3.9-6 5.2-.9 1.3-2.1 2.7-2.6 3.1-1.5 1-1.4 17.6 0 18.6.6.4 1.9 2.2 2.9 3.9 1.2 2.1 3.5 3.9 6.2 5 2.4 1 4.3 2.1 4.3 2.5 0 .5 2.7.8 6 .8s6-.4 6-.9 1.2-1.2 2.6-1.5c1.4-.4 4.1-2.2 5.9-4.1 1.9-1.8 3.7-4.5 4.1-5.9.3-1.4 1-2.6 1.5-2.6s.9-2.4.9-5.4c0-7.4-3.6-14.1-9.8-18.4-4.1-2.8-5.6-3.2-11.2-3.2-5.5 0-7.2.5-10.8 2.9z" stroke-width="3" fill="#FFCCE5" stroke="#FFCCE5"/><path d="M294 284.5c0 1.8-.2 1.7 26.4 25.6 2.8 2.5 7.9 7.2 11.4 10.3 5.9 5.3 8.2 6.2 8.2 3.2 0-.7-3.9-4.8-8.7-9.1-11.5-10.2-21.3-19-29-25.9-6.5-5.8-8.3-6.7-8.3-4.1zm-15.8 59.2c.3 1.5 2 1.9 11.8 2.5 30.5 1.7 43 2.1 43 1.2-.1-2.7-2.6-3.2-24-4.3-30.5-1.5-31.2-1.5-30.8.6zm186.8 10c-5.3 2.1-6.3 6.7-3 13.2 2.2 4.3 8.5 10.1 13.6 12.6 3.8 1.8 3.8 1.6 2.4 6.7-1.3 4.4-6.5 10.3-10.6 11.9-4.5 1.7-16.4 1.5-20-.4-4.6-2.4-9.5-7.6-11.6-12.4-2.1-4.7-4.8-5.8-4.8-1.9 0 2.6 3.6 8.4 8.3 13.3 8.9 9.4 27.5 9 37.5-.7l3.2-3.1 1.9 4.3c6.3 14.6 26.1 20.1 39.8 11 5.5-3.6 8.9-8 7.5-9.4-.8-.8-2.2-.1-5.1 2.5-5 4.5-8.4 6.3-13.9 7.2-8.6 1.4-20.2-3.7-23.6-10.4-.9-1.6-1.8-5.4-2.2-8.3-.7-6.4.9-8.8 5.9-8.8 6.9 0 19-8.8 19-13.8 0-3.3-7.8-10.2-11.5-10.2-.7 0-2.6-.8-4.3-1.7-2.2-1.2-6.2-1.7-15-1.9-6.6-.2-12.7-.1-13.5.3zm-129.5 16.1c-.6.5-3.9 1.7-7.5 2.7-3.6.9-6.9 2.1-7.5 2.5-.5.5-3.9 1.6-7.5 2.5-3.6.9-6.9 2-7.5 2.4-.5.4-6.3 2.5-12.7 4.6-10.5 3.3-13.1 4.9-11.3 6.7.7.7 8.8-1.2 9.5-2.2.3-.4 3.7-1.5 7.5-2.5 3.9-1 7.2-2.2 7.5-2.5.3-.4 2.8-1.2 5.5-2 2.8-.7 6.4-1.8 8-2.5 1.7-.7 5.7-2 9-3 8-2.2 10.6-3.6 10.3-5.4-.4-1.8-2-2.4-3.3-1.3zm348 10.2c-1.6.4-14.2 1.1-27.9 1.4-24.1.5-28.5 1.1-26 3.6 1 1 48.2-.3 57.2-1.6 4.4-.6 5-1.2 3-3.2-1.3-1.3-2-1.4-6.3-.2zM628 409.4c0 .8 1.7 2 3.8 2.7 2 .6 4.2 1.5 4.7 1.8.6.4 3.7 1.6 7 2.6 3.3 1.1 6.5 2.2 7 2.6.6.4 3.7 1.4 7 2.4 3.3.9 6.5 2 7 2.5 2.2 1.7 14.5 4.8 15.2 3.8.9-1.6-2.2-3.5-8.6-5.4-3.1-.9-6-2-6.6-2.4-.5-.4-3.5-1.5-6.6-2.4-3.1-.9-7.3-2.5-9.4-3.6-2.2-1.1-4.6-2-5.5-2-.8-.1-3.3-.9-5.5-2-4.8-2.3-9.5-2.6-9.5-.6zm-13 19.9c0 1.4 6.8 13 14.3 24.4 1.5 2.3 2.7 4.4 2.7 4.7 0 .3 1.4 2.5 3 4.9 1.7 2.5 3 5 3 5.6 0 .6.4 1.1.9 1.1s1.4 1.2 2 2.7c1.9 4.4 4.9 7.6 6.6 6.9 1.3-.5 1.2-1.2-1-4.6-1.4-2.2-2.5-4.2-2.5-4.5 0-.3-.5-1.1-1-1.8-1.7-2-5.9-8.6-7.6-12-.9-1.7-2-3.4-2.4-3.7-.4-.3-1.8-2.5-3.1-4.9-6.8-12.4-12-20.1-13.5-20.1-.8 0-1.4.6-1.4 1.3z" stroke-width="3" fill="#630" stroke="#630"/><path d="M516.3 1167.7c4.3.2 11 .2 15 0 4-.1.5-.3-7.8-.3-8.2 0-11.5.2-7.2.3z" fill="#B27F66" stroke="#B27F66" stroke-width="3"/><path d="M434 303.7c-.8.2-2.6 1.9-4 3.6-3.2 4-3.5 11.4-.5 14.7 5.3 6 13.5 6.1 18.6.2 2.8-3.2 3.1-4 2.6-8.6-.6-6.7-4.7-10.7-11-10.5-2.3.1-4.9.3-5.7.6zm4 5.3c2 1.7 2.2 2.5 1.4 4.8-.7 2.1-1.7 2.8-4.3 3-3.7.4-5.1-.9-5.1-4.5 0-2.4 2.4-5.3 4.4-5.3.7 0 2.3.9 3.6 2zm100.5 14.1c-1.1.6-3.1 2.5-4.4 4.5-7.1 10.3 6.1 23.3 16.4 16.3 10-6.9 5.3-22.1-6.7-21.8-1.8 0-4.2.5-5.3 1zm5.1 5.6c1.9 2.6 1.7 4.3-.8 6.4-2.6 2.3-4.2 2.4-6.2.3-1.7-1.6-2-4.1-1-6.8.8-2.2 6.3-2.1 8 .1z" stroke-width="3" fill="#331900" stroke="#331900"/><path d="M415.3 453.2c-8.2 14.6-10.3 21.9-10.3 35.1 0 10.2.6 12.8 2.8 12 1-.4 1.9-.9 2.2-1.3.5-.6 16.5-9.7 22.5-12.8 1.7-.9 3.2-1.9 3.5-2.3.3-.4 1.4-.9 2.5-1.1 1.5-.2 1.9.2 1.7 1.7-.2 1.1-.8 2.2-1.2 2.5-.4.3-1.6 3.2-2.5 6.5-1 3.3-2.2 6.6-2.8 7.4-1.3 1.5-1.6 22.5-.5 25.3.6 1.5 1.1 1.6 3.5.5 1.5-.7 4.7-2.5 7-4 2.4-1.5 4.5-2.7 4.8-2.7 2 0 21-19.3 22.3-22.6.6-1.6 1.6-4.8 2.2-7.2.6-2.3 1.5-4.2 1.9-4.2 1.5 0 2 4 2.7 19.2.4 8.2 1.1 14.8 1.5 14.8.4 0 3.9-1.6 7.8-3.6 15.7-8 25.1-24.2 25.1-43.4v-5.7l-10.2-.7c-5.7-.4-12.3-1.2-14.8-1.7s-9.5-1.8-15.7-2.8c-6.1-1-12.6-2.4-14.5-3-1.8-.6-6.7-2-10.8-3-12.6-3.2-22.4-6.3-23.4-7.2-2.2-2.1-4.5-.7-7.3 4.3z" fill="#FFC" stroke="#FFC" stroke-width="3"/><path d="M516.8 1125.7c3.9.2 10.5.2 14.5 0 3.9-.1.7-.3-7.3-.3s-11.2.2-7.2.3zm-.5 43c4.3.2 11 .2 15 0 4-.1.5-.3-7.8-.3-8.2 0-11.5.2-7.2.3z" stroke-width="3" fill="#C99" stroke="#C99"/><path d="M373.4 1112c0 5.2.1 7.4.3 4.7.2-2.6.2-6.8 0-9.5-.2-2.6-.3-.4-.3 4.8zm-13 12.5c0 6 .1 8.4.3 5.2.2-3.2.2-8.1 0-11-.2-2.9-.3-.3-.3 5.8zm126.8 11.7c-.7.7-1.1 3.8-1 7.7l.2 6.6.5-7 .6-7 4.5-.6 4.5-.6-4-.1c-2.3-.1-4.6.3-5.3 1zm-243.8 14.3c0 7.7.2 10.7.3 6.7.2-4 .2-10.3 0-14-.2-3.7-.3-.4-.3 7.3zm116 .5c0 6.3.1 8.9.3 5.7.2-3.1.2-8.3 0-11.5-.2-3.1-.3-.5-.3 5.8zm163.1 6c-1 1.6 1.7 2.1 8.6 1.7l6.4-.3-7.3-.2c-4.6-.1-7.1-.6-6.7-1.2.3-.6.4-1 .1-1-.3 0-.8.5-1.1 1z" stroke-width="3" fill="#B27F7F" stroke="#B27F7F"/><path d="M364.3 1092c-1.2.5-2.5 1.9-2.7 3.2-.3 1.3-.7 17.8-1.1 36.7-.4 25.2-.3 34.7.6 35.7 1.7 2 7.3 1.7 9.2-.4 1.4-1.5 1.7-4.1 1.7-14.1 0-10.2.3-12.3 1.6-12.8.9-.3 2.5.3 3.7 1.5 2.4 2.4 9.6 8.6 17.1 14.7 2.7 2.2 5.9 5 7.2 6.3 3.1 3.2 8.3 3.9 11.3 1.5 2.3-1.9 2.3-1.9.5-4.9-1.1-1.7-5-5.7-8.9-9-3.8-3.2-7.7-6.5-8.5-7.2-.8-.7-3.3-2.8-5.4-4.7-2.1-1.9-4.2-3.5-4.5-3.5-.3 0-1.2-.9-1.9-2-1.3-2.1-2.3-.8 21.6-25.8 6.6-7 7.5-9.7 3.8-12.9-1.5-1.3-3.3-2.3-4-2.3-1.7 0-6.3 3.6-10.1 8-1.6 1.9-4.1 4.7-5.5 6.1-1.4 1.5-5.2 5.7-8.4 9.3-3.3 3.6-6.5 6.6-7.3 6.6-1 0-1.3-3-1.3-14.5V1093l-2.6-1c-3-1.2-3.2-1.2-6.1 0zm-126.1 11.7c-2.8 1.1-4.2 6.2-4.2 15.4 0 9 0 9.1-2.2 8.4-4.7-1.4-11.7-1.7-15-.6-3.2 1-8.1 5.1-11.7 9.6-.9 1.1-1.6 5-1.9 9.6-.4 7.6-.4 8 2.9 12.8 5.1 7.3 13.7 10.3 22.4 7.6 3.2-.9 5.3-1.1 5.9-.5 1.4 1.4 6.2 1.2 7.4-.3.6-.7 1.3-10.3 1.6-22.2.4-11.6.9-24.5 1.2-28.8.5-7.2.4-8-1.7-9.8-2.3-2-2.6-2.1-4.7-1.2zm-6.2 32.8c1.6 1.5 2 3.1 2 8.9 0 3.9-.3 8-.6 9.2-.8 2.9-5.5 5.4-10.2 5.4-7.4 0-13.3-7.7-11.7-15.3.9-4.2 4.2-9.4 6.3-10.1 3.7-1 12.2.1 14.2 1.9zm247-31.5c-1.7 1.7-2 3.3-2 11.5v9.5h-5c-4.5 0-5.2.3-6 2.6-1.6 4.1.2 6.2 5.8 6.6l4.7.3v14.5c0 8 .4 15.1.8 15.7 1.1 1.7 6.2 1.7 7.5 0 .7-.8 1.3-7.2 1.4-15.8l.3-14.4 5-.3c5.5-.4 7.5-1.5 7.5-4.3 0-3-2.8-4.9-7.6-4.9H487v-9.8c0-8.3-.3-10.2-1.8-11.5-2.4-2.2-3.8-2.1-6.2.3zm-221.4 3.6c-3.3 3.3-.8 10.4 3.7 10.4.8 0 2.5-1.2 3.6-2.6 4.2-5.4-2.5-12.6-7.3-7.8zm-.3 18.6c-.6.7-1.3 9.3-1.7 19-.6 17-.6 17.8 1.4 19.8 2.6 2.6 3.2 2.5 5.8-.5 2.1-2.4 2.2-3.5 2.2-19.6 0-15.2-.2-17.3-1.7-18.5-2.3-1.7-4.8-1.8-6-.2zm28.2.6c-5.7 3.6-8.3 6.9-9.9 12.4-1.9 6.6-2 9.3-.4 13.9 3 9.1 9 12.9 20.3 12.9 10.8 0 17.5-3.8 17.5-10 0-2.9-2.7-3.6-5.3-1.3-3.6 3.4-6.3 4.3-12 4.3-4.4 0-6.2-.5-9.5-3-2.4-1.7-4.2-3.8-4.2-4.9 0-1.6 1-2.1 5.8-2.6 3.1-.4 6.8-1 8.2-1.5 1.4-.5 5-1.1 8-1.5 6.6-.8 8-1.8 8-6 0-4.8-1.8-8.7-5.3-11.5-4.3-3.4-16.6-4.1-21.2-1.2zm12.8 5.4c1.2.6 2.9 1.4 3.7 1.8.8.4 1.5 1.6 1.5 2.6 0 1.6-1 2-5.5 2.6-3 .3-7.6.9-10.2 1.2-3.9.6-4.8.4-4.8-.9 0-.8.4-1.5.9-1.5s1.1-.8 1.4-1.9c1-3.8 8.7-6.2 13-3.9zm138.2-6.4c-4.4 1.5-10.1 5.5-12.2 8.5-4.4 6.4-5.2 19-1.8 25.8 2.1 3.9 15 9.3 17.7 7.2.7-.5 3.2-1.5 5.6-2.3 3.9-1.2 4.4-1.2 6.5.8 2.8 2.6 3.4 2.7 5.4.6 1.5-1.4 1.5-2-.1-6.5-1.4-3.9-1.7-7.4-1.4-18.5.2-12.1.1-13.7-1.5-14.9-1.9-1.3-14.6-1.8-18.2-.7zm8.7 6.2c2.2 1.1 2.3 1.5 2.1 13.3-.2 14.1-.6 14.7-8.7 14.7-6 0-6.8-.5-9-4.7-2.1-4.2-2-8.1.3-13.5 2.4-5.7 4.4-7.4 12.8-10.7.1-.1 1.2.4 2.5.9zm61.9-5.6c-.7.8-1.1 2.7-.9 4.3l.3 2.8 10.3.3c11.3.3 12 .8 7.5 5.8-2.8 3.1-6.3 7.3-14.2 16.9-2.4 2.9-4 5.8-3.9 7 .3 1.9 1.1 2 17.3 2h17l.3-2.7c.4-3.6-2.5-4.8-11.3-4.8-7.1 0-8.5-.9-5.8-3.9 1-1.1 2.6-3 3.5-4.3 1-1.3 4.7-6.1 8.3-10.7 10.3-13.3 9.7-14.1-11.6-14.1-12.4 0-15.9.3-16.8 1.4zm52.4.5c-4.6 2.9-7 5.5-8.4 9.2-.7 1.9-1.7 4.2-2.2 5.1-1.2 2.3-1.2 8.4.1 10.6.5.9 1.6 3.3 2.5 5.2.8 1.9 3.2 4.6 5.2 6 3.2 2.2 4.7 2.5 12.7 2.5 10.7 0 14.7-1.4 17.2-6 1.5-2.8 1.6-3.6.5-4.9-1.9-2.2-3.1-2-6.3 1.1-2.2 2.1-4 2.8-8.8 3.1-5.1.4-6.6.1-10.4-2.2-3.9-2.3-6.6-5.9-5.4-7.1.2-.3 3.1-.7 6.4-1 3.2-.4 6.8-1 7.9-1.5 1.1-.5 4.6-1.2 7.7-1.5 7.1-.8 8.2-2.1 7.6-8.6-.5-5.3-3.2-8.7-8.6-10.9-4.1-1.7-14.4-1.2-17.7.9zm15 6c1.7 1 3.1 2.6 3.3 3.7.3 1.8-.6 2.1-9.4 3.2-5.4.6-10.1.9-10.5.6-1.2-.7 2.2-5.9 5-7.7 3.4-2 7.9-2 11.6.2z" stroke-width="3" fill="#B26666" stroke="#B26666"/></svg>