<svg version="1.0" xmlns="http://www.w3.org/2000/svg" viewBox="0 0 782 1259"><g fill="#FFF" stroke="#FFF" stroke-width="3"><path d="M0 629.5V1259h782V0H0v629.5zm322.1-529.1c10.2 3.6 16.1 8.4 21.8 17.9l2.3 3.8 3.4-2c13.6-8.1 32.1-11.4 50.9-9.1 10.9 1.3 12.5 2 12.5 5.6 0 2.5-2.9 4.5-8.5 5.8-4.3 1.1-16.6 6.6-19.2 8.6-2.3 1.8-2.3 1.8 4.5 3.5 21.2 5.4 33 10.5 46.7 20.3 5.8 4.2 18.9 17.3 22.5 22.5 1.4 2 2.9 3.7 3.3 3.7.4 0 3.5-2.2 6.7-5 22.6-18.8 49.1-24.9 66.7-15.3 6.6 3.5 17.2 14.5 21.1 21.8 7.1 13 12.2 29.8 12.2 39.9 0 6.4-2.8 16.4-6.1 22.2-3.6 6.4-12.9 15.2-20.2 19.1-7.2 3.9-22 9.1-28.2 9.8-8.8 1.1-8.7 1.1-6.9 5.3 4.8 11.1 8.4 25.1 10.3 40.3 2 15.2 2 16.8.6 29.2-1.9 16.2-2 17-5.2 28.2-9.5 33.2-29.6 64.8-61 95.6-13.3 13.1-29.9 26.9-32.4 26.9-.9 0-2.4-.9-3.3-1.9-1.6-1.8-1.6-2.1.3-6 2.6-5 2.8-7.7.3-3.6-2.7 4.4-13.8 15.4-20.7 20.6l-6 4.5v94.5c0 92.4 0 94.5 2 98.4 1.1 2.2 4 5.3 6.3 7l4.4 3 100.1.5c55.1.3 102.8.2 105.9-.2 7.2-1 16.6-5.4 22.9-10.8 8-6.7 8.1-7 5.7-17.5-2-9.4-1.9-11.7 1.4-27 1.7-7.9 11.3-26.6 17.8-34.8 3.4-4.3 9.5-10.7 10.2-10.7.5 0 .6 4.3.2 9.7l-.7 9.8 4-5c6.3-8 13.7-14 22.7-18.6 9-4.5 11.1-4.6 12.2-.4.5 2 0 3.3-1.7 5.3-7.7 8.6-8.9 12.6-8.8 29.4.1 9.6-.3 13.3-1.5 15.6-2.4 4.6-2 4.9 1.8 1.3 2.7-2.6 3.8-3.1 6-2.5 1.4.3 2.9 1 3.1 1.5.7 1-7.6 18.2-10.8 22.4-7.9 10.5-20.6 19.1-29.5 20.2-4.8.5-5 .7-5.5 4.2-3.1 19.4-10.6 35-22.6 46.6l-4.1 3.9V781c0 19.7.3 23.5 2.1 30 3.4 12.4 5.4 14.3 17.5 16.5 14.9 2.7 17.9 4.4 21.4 12.1 1.7 3.7 2 7.9 2.6 39.5.6 33.8-.1 50.2-2.4 53.3-.4.6-1.4 2.9-2.1 5.1-1.7 5-4.2 8.2-8.9 11.4-3.4 2.4-4.6 2.6-14.7 2.7-6 .1-15.3.9-20.5 1.8-7.9 1.5-10.7 1.6-16.5.6-3.8-.6-8.5-2-10.2-3-3.1-1.8-3.5-1.8-7-.3-4.4 1.8-11.2 1.3-15.8-1.1-1.6-.9-3.5-1.6-4.2-1.6-2 0-8-6.3-10.4-11-3.5-6.8-3.4-18.5.3-26.1 4.8-9.9 14.2-17.5 25.5-20.4 5.8-1.5 8.4-3.5 8.2-6.4 0-.9-.8-4.1-1.7-7.1l-1.8-5.5-138.2-.3L317 871v3.2c-.1 5.2-.9 10.6-3.1 20.3-6.4 28.1-14.1 43.9-24.3 49.9-4.2 2.5-5.5 2.7-12.9 2.5-5.3-.2-11.7.5-18 1.8-9 1.8-10.5 1.9-16.9.7-3.9-.7-8.5-2.2-10.2-3.2-2.7-1.6-3.5-1.7-6.1-.6-5.1 2.2-11.4 1.7-18.2-1.5-7.3-3.5-9.3-5.4-12.7-11.8-3.5-6.4-3.7-18-.5-25.1 4.8-10.5 16.7-20.2 27.2-21.9 3.6-.5 3.7-.7 5.8-7.7 1.1-3.9 2.2-7.8 2.4-8.6 1.6-5.9 4.8-36.6 5.3-51 .4-9.6.6-90.9.4-180.5l-.4-163-6.5-7.8c-3.6-4.3-6.7-7.6-7-7.3-.6.6 2.6 15.7 3.7 17.1 1.2 1.6 4.2 11.4 3.8 12.5-.4 1.4-15.6-8.7-29.3-19.6-26.5-21-47.3-45.9-59.4-70.9-10.5-21.6-14.1-33.9-17.1-58-2.5-19.8.3-47.7 6.5-66.4 1.4-4 2.5-7.9 2.5-8.6 0-.7-2.1-1.8-4.7-2.4-15.7-3.9-31.4-13.2-41-24.2-3.3-3.7-7.3-11.2-9.2-17.2-2.4-7.2-1.1-29.1 1.9-33.2.4-.6 1.3-2.8 2-5 2.4-7.7 10.5-19.9 17.6-26.6 2.2-2 6.8-5.2 10.4-7 6.3-3.3 6.8-3.4 18.5-3.3 11.1 0 12.6.3 19.5 3.1 9.6 4 16.1 7.6 23.3 13 3.1 2.4 6.1 4.3 6.5 4.3.4 0 3-2.2 5.7-4.8 20.8-20 47.4-33.8 70-36.4 12.5-1.4 13.2-2 4.1-3.2-7.5-1-8-1.3-8.9-4-1.1-3.2-.4-4 5.4-5.6 14.1-3.9 47.9-3.1 55 1.3 1 .6 2.2.8 2.6.3 1.1-1.1-6.5-7.7-12.3-10.7-8.7-4.5-7.1-5.6 7.6-5.8 7.6 0 10.8.4 16.1 2.3zm72.8 988.7 3.4 2-.7 30.9-.8 30.9 16.9-.6 16.8-.6 2.8 2.6c3.5 3.4 3.6 7.9.2 11.2l-2.4 2.5h-23.4c-21.8 0-23.5-.1-25.1-1.9-1.5-1.7-1.8-4.2-1.7-19.3.1-9.5.4-25.6.8-35.8.6-18.5.6-18.5 3.4-21.2 3.3-3.3 5.3-3.5 9.8-.7zm-142.3 12.6c1.6 1.6 1.7 4.2 1.1 32.3-.7 29.9-.7 30.5-2.9 32.3-1.6 1.3-3.1 1.7-5.3 1.2-3.9-.8-4.9-.8-12.1.1-8 .9-12.5-.7-18-6.1-5.2-5.3-7-12-5.4-20.4 1.6-8.7 6.1-13.9 14.6-17.1 6.4-2.3 9-2.5 12.4-.5 1.4.8 2.8 1.4 3.3 1.5.4 0 .7-4.4.7-9.9 0-8.4.3-10.2 2.1-12.5 2.4-3.1 6.9-3.5 9.5-.9zM451 1111c1.8 0 4 3.3 4 5.9 0 3.5-1.7 5-6.3 5.8-2.9.4-4 .1-6.2-2.1-2.6-2.6-2.7-5.3-.3-8.3 1.1-1.3 4.6-2.2 6.6-1.7.8.2 1.7.4 2.2.4zm23.3 2.2c2.3 2.8 2.2 4.4-.9 7.5-2.1 2.1-3.2 2.4-6.1 2-4.6-.8-6.3-2.3-6.3-5.7 0-6.3 8.9-8.8 13.3-3.8zm-156.5 9.5c.9 1.5 1.5 1.5 5.1.5 3.4-1.1 5-1 9.4.3 9.4 2.7 12.3 8 7.2 13.1-2.4 2.4-2.5 2.4-6.5.8-2.5-1-5.2-1.4-7.3-1-6.3 1.2-6.6 1.9-7.3 15.9-.5 9-1.1 13.3-2.1 14.3-1.8 1.7-7.5 1.8-9.1.2-.9-.9-1.2-7.1-1.2-21.7 0-17.6.2-20.7 1.7-22.3 2.1-2.4 8.8-2.5 10.1-.1zm-27.8 2c6.2 3.2 9 7.5 9 13.9 0 6.5-2.4 8-15.7 9.5-13.7 1.5-14.8 2.1-11 5.4 2.4 2.1 3.8 2.5 9.2 2.5 5.4 0 6.8-.4 9.4-2.6 4-3.3 8.2-3 9.5.8 2.2 6.3-6.1 12.8-17.3 13.6-13.1.9-21.2-4.1-24.6-15.1-1.6-5.2-1.7-6.5-.5-11 2.4-9.7 5.9-14.4 13.1-17.6 6.4-2.9 12.5-2.6 18.9.6zm174.1-1.2c8.8 3.2 12.4 9.8 12.3 23 0 10.3-3.1 16.2-10 19.5-6.6 3.2-17.4 2.6-22.5-1.3-7.4-5.6-9.8-17.4-5.8-28 2.6-6.7 6.5-10.6 12.7-12.9 6-2.1 8-2.1 13.3-.3zm24.8 1.3c2.2 2.1 3 4.1 3.5 8.7 1.6 12.9 2.5 13.4 5.6 3.2 3.2-10.7 3.6-11.5 7-13.2 5.7-3 9.2 1.4 10.6 13.3.3 3.4 1 6.5 1.5 6.7.4.3 1.3-2.1 1.9-5.2 1.9-8.9 3.9-13.2 7.1-14.9 2.6-1.3 3.2-1.3 5.9.1 2.6 1.3 3 2.1 3 5.5 0 2.1-.4 4.1-.9 4.4-.5.3-1.4 2.7-2.1 5.3-.6 2.7-1.8 6.1-2.5 7.8-.7 1.6-2.1 5.5-3 8.5-1 3-2.8 7.2-4.1 9.2-2.1 3.3-2.9 3.8-6.3 3.8-4.4 0-6.8-1.8-7.7-5.8-.4-1.5-1.2-4.9-1.9-7.7l-1.2-4.9-2.2 5.7c-1.1 3.2-2.1 6.1-2.1 6.6s-.9 2-2.1 3.5c-1.6 2-2.9 2.6-5.8 2.6-5.7 0-6.9-2.1-10.1-17.7-4.5-22.6-4.5-22.9-1.6-25.8 3.2-3.2 4.1-3.1 7.5.3zm77.7-1.2c2.2.9 5.1 2.8 6.7 4.2 4.7 4.5 5.9 14.1 2 17.3-.8.7-7.1 2.1-14 3-6.8.9-12.7 2-13.1 2.3-.3.4.4 1.6 1.6 2.8 1.7 1.8 3.7 2.3 9.3 2.6 6.5.4 7.3.2 9.7-2.1 4.3-4.1 8.6-4 10 .2 1.3 3.7-1.1 7.9-6.2 11-4.3 2.7-15.3 3.8-21.1 2.2-8.9-2.4-15.5-11.4-15.5-21.2 0-5.7 3.5-14.3 7.4-17.8 6.2-5.8 15.7-7.6 23.2-4.5z"/><path d="M273 259.9c0 2.4 2.3 3.3 4.6 1.7 2.2-1.6 1-3.6-2.2-3.6-1.7 0-2.4.6-2.4 1.9zm90.4 4.6c-.4.9-.2 2.1.4 2.7 1.6 1.6 4.7.5 4.7-1.7 0-2.6-4.2-3.4-5.1-1zm-137.8 871.8c-3.6 2.9-4.7 10.6-2.2 15.5 2.2 4.3 7.8 6 12.8 3.9 3.6-1.5 3.6-1.5 4.3-9.3.8-7.7.8-7.8-2.1-10.1-3.8-3-9-3-12.8 0zm47.6-1c-3 3.2-2.8 3.7 1.1 2.7 1.7-.4 5.4-1.1 8.2-1.5 4.6-.6 4.8-.8 3-2.1-3.1-2.3-9.8-1.8-12.3.9zm180.2.5c-3.2 2.5-5.4 7.5-5.4 12 0 11.2 14.5 12.6 16.6 1.7.8-4.7-.3-11.5-2.3-13.7-2-2.3-6.2-2.3-8.9 0zm98.6-.8c-3 3-2.5 3.8 1.8 2.9 2-.5 5.5-1.1 7.7-1.5 3.7-.5 3.8-.7 2-2-2.8-2.1-9.1-1.8-11.5.6z"/></g><path d="M413.8 1154.7c2.3.2 6.1.2 8.5 0 2.3-.2.4-.4-4.3-.4s-6.6.2-4.2.4z" fill="#7F4C33" stroke="#7F4C33" stroke-width="3"/><path d="M517.4 335.5c0 7.1.1 9.9.3 6.2.2-3.7.2-9.6 0-13-.2-3.4-.3-.4-.3 6.8z" fill="#663319" stroke="#663319" stroke-width="3"/><g fill="#4C1900" stroke="#4C1900" stroke-width="3"><path d="M300.1 100.1c-2.3.9-2.1 1.1 3.7 4.9 3.3 2.1 6.9 5.1 7.9 6.7.9 1.5 2.2 3.1 2.7 3.4.5.4.5 1.2.2 1.8-.8 1.2-4.3.6-9.1-1.5-7.1-3.1-26.4-4.2-41.5-2.4-9.8 1.3-14 2.8-14 5.2 0 1.3 1.3 1.8 5.8 2.3 8.7 1 16.1 2.5 16.7 3.5.7 1.2-1.9 1.7-11.5 2.5-17.1 1.3-34.9 7.1-49 15.8-2 1.2-5.1 3.1-6.9 4.2-4.2 2.5-19.6 15.2-23.5 19.4-1.7 1.7-3.7 3.1-4.6 3.1-.8 0-4.5-2.2-8-4.9-7.2-5.3-15.4-9.8-24.5-13.3-5-1.9-7.8-2.3-17.5-2.3-10.8.1-11.8.3-17.5 3.2-8 4.1-18.6 14.9-21.6 21.9-.7 1.6-1.8 3.6-2.5 4.4-.6.8-1.9 4-2.9 7s-2.1 5.9-2.5 6.5c-1.6 2-3.2 16.8-2.5 22.9.9 8.2 6.1 18.8 12.1 25.1 5.3 5.6 14.1 12.5 15.7 12.5.6 0 1.8.6 2.6 1.3 2 1.7 16 7.3 21.9 8.7 3 .8 4.2 1.6 4.2 2.9 0 1.9-2.6 10.7-4 13.2-.4.9-1.6 6.3-2.4 12-.9 5.7-2.1 12.6-2.7 15.4-1.4 6.8-.6 33.6 1.5 46 1.7 10.6 5.3 23.5 9.1 32.5 1.3 3 2.6 6.6 3 8 .4 1.4 1.1 2.7 1.5 3 .4.3 1.7 2.5 2.8 5 3.3 7 13.3 22.8 17.3 27.5 1 1.1 4.4 5.1 7.7 9 13.3 15.8 28.9 29.5 50.7 44.6 8.1 5.6 7.8 5.6 7 1.8-.4-1.9-1.1-3.6-1.5-3.9-.7-.4-4.4-14.3-5.7-21.1-.7-3.6 1.1-4.4 3.7-1.7 9 9.5 26.1 33.9 31.4 45.1 4 8.4 7.6 20.5 7.6 25.9v4.8l2.8-1.1c9.3-3.4 18.8-10.1 24.1-17.3 1.9-2.5 3.7-4.6 4-4.6.7 0 1.5 1.6 7.2 14.1 7 15.4 20.8 38.8 26 44 .9.9 2.1 2.5 2.7 3.4 1.5 2.8 2.9 1 3.6-4.7.4-2.9 1.1-5.7 1.5-6.3.5-.5 1.4-3.3 2-6 .7-2.8 1.9-6.6 2.8-8.5 4.3-9.8 9-18.9 11.5-22.5 1.6-2.2 3.6-5.1 4.6-6.5 3.9-5.5 7.2-7.6 7.2-4.5 0 1.7-3.7 9.3-5.7 11.6-1 1.2-1 1.9 0 3.3 1.2 1.6 1.5 1.6 5.2.1 8.4-3.4 24-11.8 30.3-16.3 7.6-5.6 22.7-20.1 26.2-25.4 1.4-2.1 3.1-3.8 3.7-3.8 1.6 0 .7 5.3-1.8 10.3-4.1 8.1.6 7.4 11.1-1.5 18.4-15.6 33.8-30.9 42.5-42.2 1.7-2.2 3.7-4.7 4.5-5.6 6.7-7.1 28-43.4 28-47.6 0-.4.9-2.6 1.9-4.8 2.4-5 5.8-16.5 7.9-26.6 2-10 2.2-42.6.3-53-1.5-8.5-5.4-21.6-8.2-27.6-1.9-4-2.6-9.4-1.1-9.4 7.2-.1 24.6-5.1 33.6-9.8 10.6-5.5 19.4-14 23.6-22.7 5-10.4 4.6-27.9-1.1-42.7-7-18.1-16.2-29.9-28.2-36-6-3.1-6.7-3.3-18.3-3.3-7.5 0-12.6.4-13.5 1.1-.8.6-3.2 1.7-5.4 2.4s-6 2.4-8.5 3.8c-6.6 3.7-14.4 8.5-15 9.3-.3.4-2.6 2.3-5.3 4.3-4.5 3.4-7.7 4.6-7.7 2.7 0-.4-1-2-2.2-3.4-1.3-1.5-3.9-4.6-5.8-6.9-1.9-2.4-6.1-6.6-9.2-9.3-3.2-2.8-6.7-5.8-7.8-6.8-1.1-.9-2.1-1.7-2.3-1.7-.2 0-3.9-2-8.3-4.5-4.3-2.5-10.4-5.4-13.4-6.5-3-1.1-6.4-2.5-7.5-3-1.1-.6-6.5-1.9-12-3s-10.4-2.5-11-3.1c-2.1-2.1 7.4-7.7 21-12.4 7.1-2.5 9.1-3.6 9.3-5.2.4-2.6-1.6-3-16.3-3.9-6.7-.4-13.9-.2-18.5.5-7.3 1.1-20 5.3-23 7.5-2.7 2-5.9 3.6-7.2 3.6-.7 0-2.2-1.9-3.3-4.2-4.4-9.2-13.3-15.8-25.4-18.7-9.1-2.3-13.3-2.5-17-1zm17.1 5c6.3 1.3 12.1 4.5 16.5 9.1 3.6 3.8 8.3 12.2 8.3 14.9 0 2.2 1.6 3.3 2.5 1.8 1.3-2 10.9-7.6 17.5-10.2 9.2-3.6 15.6-4.7 27-4.7 10.2 0 12.6 1.1 7.3 3.1-9 3.3-16.5 7.9-21.5 13.2-4.1 4.2-3.6 5.4 2.5 6 6.7.7 23.7 4.4 25.1 5.6.6.4 2.4 1.1 4 1.5 1.6.4 5.9 2.2 9.5 3.9 17.9 8.7 30.8 19.6 40 33.9 2.4 3.8 4.6 6.8 4.8 6.8.2 0 3.8-2.8 8.1-6.3 18.5-15.2 30-20.6 45.4-21.4 9.3-.5 9.9-.4 16.5 2.6 11.6 5.4 20.4 16.2 27.2 33.4 14.6 36.8-3.7 63-49.1 70.4-7 1.1-10.8 2.1-10.8 2.9 0 .7.4 1.5.9 1.9.5.3 1.7 2.9 2.7 5.8.9 2.8 2 5.7 2.5 6.2.9 1.2 4.4 12.9 6.7 22.5 2 8.5 2.3 43.4.4 53.5-6.4 33.9-26.1 68.6-57.5 101.2-9 9.3-25.6 24.3-27.7 25.1-.6.2-.7-3.6-.3-9.3.5-7.8.3-9.9-.8-10.6-2.2-1.4-2.6-1.1-4.9 3.5-8.8 18.2-25.1 33.6-47.8 45.1-8.7 4.4-11 4.8-9.2 1.6 1.5-2.9 4.2-15.8 3.8-18.6l-.3-2.7-4.6 4.4c-14 13.2-24.6 31-31.5 53-1.5 4.9-3 8.8-3.3 8.8-.8-.1-3.9-4.7-10.4-15.5-7.8-12.9-14.4-26-21.6-42.9-1.6-3.5-2.5-4.7-3.7-4.2-.9.3-1.9.6-2.4.6-.4 0-1 1.8-1.4 4.1-.5 3.2-1.9 5.3-6.4 9.9-5.2 5.1-12.5 10-15.1 10-.5 0-1.2-1.5-1.6-3.3-4.2-21.2-19.3-45.8-45.9-75.2l-4.5-5-.1 7.5c0 4.4.9 11.1 2.1 16.3 1.2 4.8 1.9 9 1.6 9.3-1.5 1.5-22.5-15.3-35.7-28.6-29.7-29.7-46.3-61-52-97.5-2.5-16.7-2.6-32.6 0-49.5 1.9-12.6 7.1-32.4 9.1-34.5 2.5-2.6.8-4.1-6.3-5.8-23.2-5.6-40.3-17.3-47.7-32.7-3.5-7.2-3.6-7.9-3.5-18 .1-9.2.5-11.5 3.3-18.8 1.7-4.6 3.9-9.5 4.8-11 8.9-14.4 13.1-18.8 22.6-23.2 5.4-2.6 7.3-3 14.9-3 5.3 0 10.6.6 13.5 1.6 6.3 2 19.6 8.8 24.2 12.2 2 1.5 4 3 4.6 3.4.5.4 2.5 2 4.4 3.6l3.4 2.9 7.6-7.7c4.2-4.2 9.4-9 11.6-10.6 2.2-1.6 4.2-3.1 4.5-3.4.3-.3 3-2.2 6-4.2 14.1-9.5 32.8-16.9 47.6-18.9 8.4-1.1 27.8-.7 36.4.8l3.5.6-5.1-4.2c-2.9-2.2-5.4-4.1-5.8-4.1-.3 0-2.9-1.1-5.8-2.4-2.9-1.3-6.4-2.6-7.7-2.8-1.4-.1-2.7-.9-2.9-1.7-.4-1.2 2-1.3 14.9-.8 13.8.4 16.4.8 24.7 3.6 5 1.8 10.8 4.1 12.7 5.3 2 1.1 3.8 1.8 4.1 1.5 1-1-4.8-12.3-8.7-16.9-5.4-6.4-5.5-6.3 2.3-4.7z"/><path d="M256.6 224.1c-2.6 2-6.1 7.7-5.3 8.5.2.2 2-.9 4-2.4 2-1.6 5.6-3.7 8.1-4.6 2.6-1 4.4-2.2 4-2.7-1-1.7-8.1-1-10.8 1.2zm123.4 4.2c0 .2 2.4 2 5.3 4s6.3 4.9 7.6 6.3c1.2 1.4 2.4 2.4 2.7 2.2.8-.9-2-7.2-4.4-10-2-2.3-3.4-2.8-6.9-2.8-2.3 0-4.3.2-4.3.3zm-81.4 59.8c-6.5 1-14.4 4.5-17.8 7.7-9.8 9.1 9.3 30.5 32.9 37 18.3 5 41.5-.7 55-13.5 5.7-5.4 7.7-10 6.3-13.9-2.8-7.2-19-14.9-36.5-17.4-8.3-1.1-32.9-1.1-39.9.1zm-72 10.1c.3.7 4.6 4.2 9.5 7.8 5 3.6 10 7.3 11.1 8.2 2.4 2 2.8 2.2 2.8 1 0-.5-4.8-4.4-10.7-8.8-12.7-9.4-13.5-10-12.7-8.2zm195.9 16.6c-.6.5-5.7 2.8-11.5 5.2-11.1 4.7-18.8 8.8-14 7.5 4.4-1.3 28-12 28-12.8 0-.9-1.4-.9-2.5.1zM226 331.6c-10.7.7-20.2 1.3-20.9 1.3-1 .1-1.1.4-.6 1 .6.6 2.6.7 5 .1 2.2-.4 12-1.1 21.8-1.5 9.7-.4 18-1.1 18.3-1.6.3-.5-.5-.8-1.8-.8-1.3.1-11.1.8-21.8 1.5zm188.5 10.8c11 .7 21.2 1.6 22.6 2 1.5.4 2.9.3 3.3-.2.8-1.3-7.8-2-28.9-2.6l-17-.4 20 1.2zm-164 5.2c-2.2.8-4.9 1.8-6 2.3-3.7 1.8-15 6.2-19.7 7.9-2.7.9-4.8 1.9-4.8 2.4 0 1.3 2.3.9 6-1.1 1.9-1 5.3-2.4 7.5-3.1 2.2-.7 4.5-1.6 5-2 .6-.4 2.8-1.3 5-2 4.3-1.4 13.6-6 12-5.9-.5 0-2.8.7-5 1.5zm142 10.8c2.8 1.2 6.8 2.9 9 3.6 2.2.7 4.9 1.9 6 2.5 1.1.7 3.1 1.6 4.5 2 1.4.4 4.4 1.6 6.8 2.7 2.4 1 5.1 1.7 6 1.5 2-.5 2.5-.2-11.3-5.4-4.9-1.8-10.3-4-12-4.8-3.7-1.8-11.4-4.5-12.9-4.5-.6 0 1.2 1.1 3.9 2.4zm306 251.9c-12.8 6.3-22.8 14.6-28.8 23.6-4.2 6.4-5 5.4-4.2-5.7l.6-9.7-4.2 4.5c-9.9 10.7-19.5 29.4-21.9 42.4-1.5 8.1-.8 21.9 1.4 29.2 1.4 4.6 2.1 5.4 5.6 6.8 2.2.9 5.9 1.6 8.1 1.6 4.8 0 17.9-2.9 17.9-3.9 0-.4 1.5-1.4 3.3-2.3 5.2-2.5 12.3-9.4 17.1-16.6 4.8-7.3 9.8-17.7 8.8-18.6-1.2-1.3-3-.5-6.5 2.9-3.4 3.3-6.7 4.6-6.7 2.5 0-1.5 2.4-6.4 3.5-7.2.6-.4 1-6.8 1.1-16 0-11.2.4-16.1 1.5-18.3 2.5-5.1 6.1-10.5 6.9-10.5 1.3 0 2.2-3.8 1.3-5.3-.7-1.2-1.5-1.1-4.8.6zm-5 9.4c-3.5 8.3-3.9 10.4-3.9 23.3-.1 12.5-.3 13.8-2.6 18-1.7 3.1-3.8 5.2-6.8 6.7-5.3 2.7-4.2 3.5 5.5 4.1 4 .3 7.3.8 7.3 1.1 0 1.7-6.2 10.3-10.6 14.6-6.8 6.6-15.8 10.7-24.8 11.3-6.5.4-7.5.2-9.8-1.9-1.5-1.4-3.1-4.4-3.7-7.1-1.6-6.7-1.4-20.4.5-27.3 2.6-10.1 13.5-30.9 15.8-30.2 1 .3 1 12.3 0 19.4-.6 4.1-.5 4.3 2 4.3 2 0 2.6-.5 2.6-2.1 0-3.7 7.8-18.5 12.7-23.9 7.8-8.6 17.9-15.2 15.8-10.3z"/></g><path d="M128.4 323.5c0 8.2.2 11.5.3 7.2.2-4.3.2-11 0-15-.1-4-.3-.5-.3 7.8zm560 322.3c.1 8.9.3 11.5 1 9.3.5-1.8.5-6.8-.1-12.3l-.9-9.3v12.3z" stroke-width="3" fill="#661900" stroke="#661900"/><path d="M182 445.5c4.7 4.7 8.7 8.5 9 8.5.2 0-3.3-3.8-8-8.5s-8.7-8.5-9-8.5c-.2 0 3.3 3.8 8 8.5z" fill="#7F3300" stroke="#7F3300" stroke-width="3"/><path d="M316.7 109.8c3.4 4.4 9.3 16 9.3 18.2 0 1.6-2.2 1.2-6.5-1.1-2.2-1.1-7.8-3.4-12.5-5.1-7.1-2.5-10.5-3.1-20.4-3.6-8.3-.3-11.7-.2-11.2.6.3.6 1.9 1.3 3.5 1.7 3.4.7 11.5 5.8 16.2 10.2 3.4 3.3 3.4 3.3.9 3.3-1.4 0-5.2-.5-8.5-1-8-1.4-27.4-1.4-35.9 0-22.3 3.5-48.9 18.6-67.5 38.2-3 3.2-5.9 5.8-6.3 5.8-.4 0-4.5-2.8-9-6.3-8.9-6.7-14.4-10-24.8-14.3-5.6-2.4-7.9-2.8-16.5-2.8-8.9 0-10.6.3-15.1 2.6-11.3 5.9-19.1 15.9-26.2 33.8-2.2 5.6-2.6 8.1-2.6 18-.1 10.5.1 12 2.7 17.4 1.8 3.8 5.1 8.2 9.5 12.5 8.3 8.2 22.9 15.7 37 19.2 10.8 2.6 10.3.8 4.8 16.4-1.9 5.5-4.2 14.5-5.1 20-.9 5.5-2 12.7-2.5 16.1-1.6 9.6-1.2 19.7 1.4 36.9 3 19.4 6.6 31.1 15.3 49.5 3 6.2 16.5 27.2 19.4 30.1 1 1 1.9 2.2 1.9 2.6 0 1.2 20.8 22.3 27.4 27.9 3.2 2.7 6.9 5.8 8.2 6.9 4.7 4 11.5 8.8 11.8 8.4.2-.2-.4-4.2-1.4-8.9-2.2-9.7-2.6-21.5-.8-22.6.6-.4 3 1.3 5.7 4.2 26.7 28.7 42.6 54.6 46.9 76.2l.7 3.4 6.1-4.1c7.7-5.1 12.2-10.4 13.7-15.9.9-3.2 1.7-4.4 3.6-4.9 3.4-.8 5 .5 7.1 5.7 1.8 4.7 10.3 23.2 12.1 26.3.5 1 2.4 4.4 4 7.5 1.7 3.1 5.4 9.2 8.2 13.5 5.7 8.6 5.9 8.6 8.4-1.2 1.4-5.4 10.1-24.1 14.5-31.1 3.8-6.1 12.8-16.8 17.5-20.7 7.7-6.5 7.7-6.5 6.9 1-.4 3.6-1.4 8.9-2.1 11.8-.8 2.9-1.3 5.4-1.1 5.6.4.5 7.4-2.8 11.1-5.1 1.7-1.1 5-3.2 7.5-4.8 8.4-5.3 9.5-6.2 19.1-15.8 7.9-7.9 10.3-11.1 13.5-17.7 3.6-7.6 4.1-8.2 7-8.2 4.1-.1 4.6 1.3 3.8 11-.4 4.4-.5 7.9-.2 7.9 2.3 0 27.8-25 37.7-37 16-19.3 25.3-33.6 32.7-50.5 1.9-4.4 3.9-8.8 4.4-9.7.6-1 1.9-5 3.1-9 6.8-23.3 8.1-41.1 4.8-65.8-.9-6.7-6-25.2-8-29-2.9-5.4-6-14-5.4-14.9.3-.6 2.1-1.1 3.8-1.1 6-.1 20.2-2.9 27.1-5.5 13.2-4.9 22.5-11.5 28-19.8 4.3-6.5 5.6-11.3 5.6-20.4 0-9.1-1.4-15.8-5.3-25.3-6.2-15.1-14.4-25.2-24.4-30.2-6-2.9-7.5-3.2-15.2-3.2-9.4.1-14.4 1.5-25.4 7-6.9 3.4-19.4 12.2-25.7 18.1-1.9 1.8-3.9 3.3-4.5 3.2-.5 0-3-3.2-5.5-7.1-7.9-12.4-21.9-25.1-35.3-31.9-12.5-6.4-31.6-12.2-44.9-13.6-3.2-.3-5.8-.9-5.8-1.3 0-1.6 6-8.9 9.1-11.1 1.9-1.3 6.1-3.8 9.4-5.6l6-3.3h-8.2c-4.5 0-10.6.5-13.5 1.1-6.9 1.5-20.4 8-24.6 11.8-1.8 1.7-3.9 3.1-4.6 3.1-.7 0-1.8-2.3-2.4-5.1-2.3-10-10.1-18.1-20.9-21.7l-6.1-2 3.5 4.6zM142.6 184c6.3 3.1 12.3 8.8 18.1 17.3 10.5 15.4 11.4 27.3 2.4 32.9-3.3 2.1-4.8 2.3-16.6 2.3-12.1 0-13.4-.2-18.5-2.7-7.4-3.7-9.4-5.6-12.4-11.8-1.9-4-2.6-7-2.6-11.5 0-3.3.4-6.5.8-7.1.5-.5 1.4-2.8 2.1-5.1 1.3-4.8 8.2-14 11.4-15.3 3.9-1.6 10.9-1.1 15.3 1zm154.4 3.4c7.4 1.6 17.8 5.2 20 7.1.8.7 3.1 1.8 5 2.5 3.3 1.1 4.1 1 10-1.7 21-9.7 44.5-7.8 65.3 5.5 5.5 3.5 6.8 4.6 13.6 11.4 7.1 7.1 9.1 9.8 13.2 17.8 5.1 9.8 5.9 12.1 7.9 22.7 5.6 28.6 7.7 35.8 14.5 49.8 3.5 7.1 6.9 17.3 8.5 25.5 1.1 5.9 1.2 25.4 0 30.5-4.6 21.3-13.7 35.1-30.2 46.3-2.6 1.8-5.1 3.2-5.7 3.2-.5 0-1.6.6-2.3 1.3-2.2 2.3-17.8 7.7-25.2 8.8-3.9.6-7.8 1.5-8.6 1.9-.9.4-4.3 1.1-7.6 1.5-5.2.6-6.5 1.2-10.4 4.9-4.6 4.3-15 11.6-16.6 11.6-.5 0-2.1.6-3.6 1.4-8.6 4.5-34.7 4.9-44.3.7-1.1-.5-3.6-1.5-5.5-2.2-1.9-.7-4.2-1.7-5-2.4-.8-.6-2.8-1.7-4.5-2.5-1.6-.8-6.4-5-10.7-9.3-4.2-4.2-8.2-7.7-8.8-7.7-.6 0-1.8-.4-2.8-.9-.9-.6-5.1-1.7-9.2-2.7-4.1-.9-7.9-2-8.5-2.4-.5-.3-2.9-1.2-5.1-1.8-3.8-1.1-14.3-5.9-21.9-9.9-15.5-8.3-29.1-25.5-33.2-42.2-3.1-12.6-1.4-35.4 3.6-46.4 1-2.3 2.2-5.3 2.6-6.7.8-2.5 2.9-6.5 10.2-19.5 2.2-3.9 4.6-8.6 5.3-10.5.7-1.9 1.7-4 2.1-4.5.4-.6 1.5-4.4 2.4-8.5.9-4.1 2-8.4 2.5-9.5.5-1.1 1.6-6.7 2.5-12.5.9-5.8 2-11 2.4-11.5.4-.6 1.3-3 2-5.4 4-13.9 24.5-29.4 44.6-33.6 8-1.7 23.5-1.7 31.5-.1zm229.9 7.1c1.7 1.7 3.1 3.3 3.1 3.8 0 .4 1 2.9 2.3 5.5 1.8 3.9 2.2 6.4 2.2 14.5 0 6.1-.4 10-1.1 10.5-.6.4-1.4 1.7-1.8 2.9-1.1 3.6-9.1 9.9-14.1 11.2-13.8 3.5-34-.9-38.9-8.4-2.5-3.8-2-10.2 1.1-16.3 4.8-9.2 20.4-23.8 28.2-26.3 1.4-.5 5.6-.7 9.3-.6 5.9.2 7 .6 9.7 3.2zM688 622.7c-9.5 6.3-19.6 21.2-21.6 31.8-.6 3.6-1.2 3.9-5.3 2.8-2.4-.6-2.4-.6-1.8-11.5.4-5.9.5-10.8.2-10.8-.9 0-7.3 11.9-10.3 19.2-4.4 10.5-5.9 21.5-4.3 31 .7 4 1.9 8.4 2.8 9.7 1.4 2.2 1.9 2.3 10.2 1.9 7.5-.3 9.4-.8 14.2-3.6 5.9-3.4 13.7-10.7 16.9-16l2-3.2h-3.1c-4.3 0-12.1-2-13.8-3.6-1.2-1-.8-1.5 2.4-2.8 2.1-.9 4.1-1.6 4.6-1.6s2.3-2.1 3.9-4.7c2.9-4.6 3-5 3-17.8 0-8.4.5-14.9 1.4-17.8.8-2.6 1.3-4.7 1.2-4.7-.1 0-1.3.7-2.6 1.7z" stroke-width="3" fill="#B23300" stroke="#B23300"/><path d="M272 117.9c0 .5.9 1.1 2 1.4 1.1.3 1.8.1 1.5-.4-.3-.4 2.9-1 7.2-1.2l7.8-.3-9.2-.2c-5.1-.1-9.3.2-9.3.7zm114-.2c5.1.3 7 .7 6 1.3-.8.5-1 1-.4 1 .5 0 1.9-.7 3-1.5 1.7-1.3 1-1.4-7.1-1.3l-9 .2 7.5.3zM561.3 222c0 4.7.2 6.6.4 4.2.2-2.3.2-6.1 0-8.5-.2-2.3-.4-.4-.4 4.3zm-59.6 45.7c-5.2.4-6.6 2-4.8 5 .9 1.5 1 1.3.5-1-.6-2.6-.5-2.7 3.7-2.8 2.4-.1 5.5-.5 6.9-.9 2.8-.9 2-.9-6.3-.3zM212.4 441.3c-.3.8-.3 4.5-.1 8.3l.3 6.9.2-7.8c.1-4.2.5-7.7.9-7.7s2.8 1.9 5.3 4.2l4.5 4.3-4.5-4.8c-4.7-5-5.7-5.5-6.6-3.4zm236.1 24.9-8 8.3 8.3-8c4.5-4.4 8.2-8.1 8.2-8.2 0-.8-1.1.3-8.5 7.9z" stroke-width="3" fill="#930" stroke="#930"/><path d="M235.5 620c0 78.9.1 111.2.2 71.7.2-39.4.2-104 0-143.5-.1-39.4-.2-7.1-.2 71.8z" fill="#FFFFE5" stroke="#FFFFE5" stroke-width="3"/><path d="M389.8 1167.7c2.3.2 6.1.2 8.5 0 2.3-.2.4-.4-4.3-.4s-6.6.2-4.2.4z" fill="#B27F7F" stroke="#B27F7F" stroke-width="3"/><path d="M128.5 185.1c-8.6 8.3-9.2 9.2-10.9 15-5.8 19.5 2.8 32.1 23.5 34.5 8.5 1 19.2-1.2 22.9-4.6 4.4-4.1 4.2-10.4-.6-19.5-4.2-7.9-4.1-7.8-11.4-15.7-3.3-3.6-7.5-6.9-10.6-8.4-5.2-2.5-11.1-3.1-12.9-1.3zm381.1 8.6c-1.1.3-2.6 1.1-3.4 1.9-.7.8-2 1.4-2.7 1.4-1.9 0-12.8 10.3-18 17-5.7 7.4-7.3 13-5 18 1.3 3 2.9 4.3 7.8 6.6 5.7 2.6 7.2 2.9 17.2 2.9 9.9 0 11.4-.3 15-2.4 8.5-5.1 11.5-10.8 11.5-21.5 0-8.8-2.3-15.8-6.9-20.6-3.5-3.7-4.2-4-8.7-3.9-2.7.1-5.8.4-6.8.6zm-208 196.2c-.3.5-2.6 1.4-5 2-2.5.6-4.7 1.5-5 2-1.1 1.7 7.3 7 15 9.5 11.2 3.7 21.7 3.6 31-.2 6.4-2.7 13.4-7.6 13.4-9.5 0-.4-1.3-1.3-3-1.8-1.6-.6-3-1.5-3-2 0-1.2-13.3-1.2-14.5 0-.6.4-3.1 1.6-5.6 2.6-4.7 1.7-4.7 1.7-9.3-.9-4.7-2.6-12.9-3.6-14-1.7z" stroke-width="3" fill="#FFCCE5" stroke="#FFCCE5"/><path d="M532.2 217.2c-.1 3.6-.5 7.5-.8 8.5-.5 1.7-.5 1.7.6.1.6-1.1.9-4.6.7-8.5l-.3-6.8-.2 6.7z" fill="#FCC" stroke="#FCC" stroke-width="3"/><path d="M355.3 189.7c2.6.2 6.7.2 9 0s.2-.3-4.8-.3c-4.9 0-6.8.1-4.2.3zM183.6 330.6c-.8 2.2-.7 17.7.2 19.1.4.6.7-3.8.7-9.8 0-6-.1-10.9-.1-10.9-.1 0-.5.7-.8 1.6z" stroke-width="3" fill="#B24C00" stroke="#B24C00"/><path d="M382.8 575.2c.1 32.1.3 72.7.5 90.3.1 17.6.3-8.6.5-58.3.1-49.6-.1-90.2-.5-90.2-.5 0-.7 26.2-.5 58.2zM242.4 784.5c0 9.3.2 13.3.3 8.8.2-4.5.2-12.2 0-17-.1-4.8-.3-1.2-.3 8.2zm383 7c0 4.9.1 7.1.3 4.8.2-2.3.2-6.4 0-9-.2-2.6-.3-.8-.3 4.2z" stroke-width="3" fill="#E59919" stroke="#E59919"/><path d="M352.5 190.9c-1.7.4 1.3.7 7 .7s8.7-.3 7-.7c-1.6-.4-4.8-.7-7-.7s-5.3.3-7 .7zm50.5 16.7c2.5 2.1 5.7 5.2 7.3 6.7 1.5 1.6 2.7 2.5 2.7 2 0-1-10.4-10.3-13-11.7-.8-.4.5.9 3 3zm-89.2 77.1c2.9.2 7.4.2 10 0 2.6-.2.2-.3-5.3-.3s-7.6.1-4.7.3zm-34.9 9.9c-2 2-5.2 4-7 4.4l-3.4.8h3.5c2.9 0 4.2-.8 7.4-4.4 4.7-5.3 4.4-5.7-.5-.8zm-25.4 7.7c-2.2.5-5.3 1.9-7 3-1.6 1-2.1 1.6-1 1.2 1.1-.5 4.9-1.8 8.5-3.1 6.7-2.3 6.5-3-.5-1.1zm159.1 20.6c-.3.4.4 1.7 1.6 2.7 1.1 1.1 3.4 4.6 5 7.9 1.8 3.8 2.7 4.9 2.3 3-.4-1.7-2.1-5.2-3.8-8-1.8-2.7-3.1-5.3-2.9-5.7.3-1.1-1.6-1-2.2.1zM185.4 340c0 5.8.1 8.1.3 5.2.2-2.8.2-7.6 0-10.5-.2-2.8-.3-.5-.3 5.3zm31.1-4.9-8 .6 8.2-.1 8.2-.1.7 4c.3 2.2 1.7 6.1 2.9 8.6 2.2 4.2 2.2 4.6.7 5.7-1.4 1-1.3 1.1.6.2 2.7-1.3 2.7-1.1.3-5.2-1.1-1.8-2.5-5.6-3.2-8.3-.6-2.8-1.4-5.2-1.8-5.5-.3-.3-4.2-.2-8.6.1zm203.6 19.6c-.8 2.1-2.2 5-3.2 6.4-1 1.4-1.6 2.9-1.2 3.2.8.8 6.6-10.9 6.1-12.4-.2-.6-1 .7-1.7 2.8zM237 359.1c1.4 1.1 4.5 3.4 7 5.1 2.5 1.7 5.1 3.8 5.8 4.6.7.9 1.2 1.1 1.2.4 0-.6-1.2-1.9-2.6-2.9-1.4-1-4.7-3.5-7.4-5.6-5.1-3.8-8.5-5.3-4-1.6zm32.5 15.8c1.1.5 2.7 1.2 3.6 1.4.9.3 1.9 2 2.2 3.9.7 4.2 2.6 9.2 3.3 8.6.3-.3-.2-2.3-1-4.4-.8-2.2-1.7-5.1-2-6.7-.4-1.8-1.3-2.7-2.5-2.7-1.1 0-2.8-.2-3.8-.5-1.4-.4-1.3-.3.2.4zm102.8 6.8c-2.8.2-5.5.9-6 1.6-1.4 1.8-3.3 6.7-2.7 6.7.3 0 1.2-1.6 2-3.5 1.4-3.3 1.7-3.5 6.3-3.5 2.7 0 5.7-.3 6.7-.7 1.5-.5 1.6-.1 1.1 3.3l-.6 3.9 1.3-3.5c1.5-4 1.2-5.1-1.2-4.8-.9.1-4 .3-6.9.5zm-116.8 8.8c.9 4.2 6.4 16.5 8.7 19.4 1.4 1.9 1.6 2.6.6 3.3-1 .6-.8.8.5.8 2.2 0 2.2-.1-1.4-6.6-1.7-3-4.5-8.7-6.1-12.7-1.6-4-2.6-5.9-2.3-4.2zm104.7 3.7c-2.6 4.2-8.6 10-13.2 12.7-1.9 1.2-3 2.1-2.5 2.1 1.5 0 6.7-3.4 10-6.6 4.1-3.8 8.9-10.3 8.3-11-.3-.3-1.5 1-2.6 2.8zm-78.9.3c2.4 4.7 13.9 14.5 17 14.5.6 0-1.7-1.8-5-3.9-3.3-2.1-7.3-5.6-8.9-7.7-4-5.6-4.8-6.3-3.1-2.9zm98.6 8.6c-1.3 2.8-4 7.7-6 10.8-2.1 3-3.6 5.8-3.3 6 .5.5.2.8 4.3-5.4 3.9-6.1 8.5-15.4 7.9-16-.3-.3-1.5 1.8-2.9 4.6zm-109.7 4.1c3.1 5.7 14.7 17.8 19.7 20.6 5.8 3.3 5.1 2-1.3-2.3-6.4-4.2-12.4-10.5-16.7-17.5-3.7-6.1-4.9-6.6-1.7-.8zm90.8 11.6c-4.2 4.2-8.7 8.5-10 9.5-2.5 1.7-2.4 1.7.8.2 3.4-1.7 14.5-12.3 16.3-15.6.5-1.1.8-1.9.7-1.8-.2 0-3.7 3.5-7.8 7.7zm-43.2-5.1c2.3.2 6.1.2 8.5 0 2.3-.2.4-.4-4.3-.4s-6.6.2-4.2.4zm-75.6 211c.2 75.8.4 120.5.5 99.3.7-100.2.7-237 .1-237-.5 0-.7 62-.6 137.7zm140-16.5c-.1 49.9.1 90.9.6 91.1.6.5.6-90.6-.1-156.3-.1-14-.3 15.3-.5 65.2zm244.9 144.1c-2 2.3-2.1 3.1-1.8 15.3l.3 12.9.2-12.9c.2-11.8.4-13.2 2.4-15.3 1.2-1.3 1.9-2.3 1.6-2.3-.2 0-1.4 1.1-2.7 2.3zm-387.4 92.6c-.4 4.6-.6 8.6-.3 8.8.6.7 1.9-11.9 1.4-14.8-.2-1.3-.7 1.4-1.1 6zm73-2.5c-.4 2.7-.6 7.2-.6 10 .1 3.8.4 2.9 1-3.9 1-9.8.7-14-.4-6.1zm6.6 8.8c-.6 6.8-1 12.4-.9 12.6.2.1 60.9.1 135.1 0l134.7-.3-4.1-2.4c-2.3-1.2-4.5-2.1-4.8-1.8-.3.4 1 1.3 2.8 2.1 3 1.3-11.8 1.4-130 1.5l-133.3.1.5-2.3c.8-3.2 2-21.7 1.5-21.7-.3 0-1 5.5-1.5 12.2zm283.9 28c.5 2.3.7 6 .3 8.3-.4 3.5-.4 3.7.6 1.5 1.1-2.7.4-12.6-1.1-13.5-.4-.3-.4 1.4.2 3.7zm14.6 14.2c4.2.5 9.8.5 13.5 0 5.5-.8 4.6-.9-7.3-.9-12.6 0-13 .1-6.2.9z" stroke-width="3" fill="#FFB219" stroke="#FFB219"/><g fill="#FFCC19" stroke="#FFCC19" stroke-width="3"><path d="M268.5 188.7c-10.3 2.8-22.6 8-27 11.5-8.2 6.4-13.3 11.1-14.5 13.5-.8 1.5-1.9 3.5-2.6 4.3-1.5 1.9-5.1 15.8-7 27-.8 4.7-2.3 11.1-3.4 14.3-1.1 3.1-2 6.3-2 7.1 0 1.8-5.3 13.3-9.1 19.7-11.1 18.7-15.9 32.9-16.6 49-.7 14.8.8 23 6 33.3 6.1 11.8 17.8 22.9 32.2 30.4 9.8 5.1 13.7 6.8 19 8.2 2.8.7 5.5 1.6 6 2 1.3 1 15.6 4.2 16.1 3.7.3-.2-.4-1.5-1.4-2.8-4.2-5.3-11.6-25.5-12.8-35-.8-5.7-1-6-10.4-12.9-4.6-3.4-6-3.9-8.5-3.4-1.6.4-3.2 1-3.5 1.4-.8 1.3-8.7 3.3-10.4 2.7-2.8-1.1-1.7-3.7 2.2-5.3 2-.9 5.1-2.3 6.9-3.1l3.2-1.6-2.3-4.6c-1.3-2.5-2.7-6.4-3-8.6l-.7-4-10.2.5c-11.9.7-12.7.5-12.7-2.5 0-2.1.6-2.2 8.3-2.9 11.7-.9 15.7-1.7 15.7-3.1 0-2.2 5.1-10.9 8.3-14.3l3.2-3.3-4-3.4c-2.2-1.9-4.3-3.4-4.7-3.5-1.8-.1-6-5.1-5.4-6.5 1-2.8 4.4-1.6 12.3 4.4l7.8 6 3.1-1.9c3.3-1.9 13.2-4.3 22.3-5.5 4.3-.6 6.2-1.5 9.5-4.4 5.7-5.2 11.7-7.8 21.6-9.3 28.6-4.4 63.2 2.4 74.6 14.7 1.3 1.5 2.4 3.2 2.4 4 0 1.4 1 1.9 7 3 1.9.4 4 1.1 4.5 1.5.6.4 2.8 1.3 5 2s6.5 2.7 9.6 4.5l5.6 3.2 7.6-3.5c7.9-3.6 10.7-3.7 10.7-.3 0 1.4-1.8 2.8-6.5 5L414 323l3.5 5.3c1.9 2.8 3.7 6.6 4.1 8.4l.6 3.1 10.2.9c9.4.7 10.1 1 10.4 3 .4 2.7.5 2.6-11 2.3l-8.6-.2-1.1 5.4c-.6 2.9-2 6.7-3.1 8.3-1.1 1.7-2 3.5-2 4.2 0 .6 2.3 1.9 5 2.8 4.2 1.4 5 2.1 5 4.1 0 3.1-3.4 3.2-9.2.4-4.5-2.2-7.4-2.5-8.2-1.1-.9 1.4-10.7 6.7-15.1 8.1-5.6 1.8-6 2.3-7.4 8.7-.7 3.2-2 7.4-2.8 9.3-3.8 8.7-6.5 14-9.3 18.1-3.6 5.3-3.7 6.1-.7 5 1.2-.4 5.1-1.1 8.7-1.5 7.2-.8 14.9-2.5 16.5-3.6.6-.4 2.4-1 4-1.4 6.7-1.6 21.9-10 26.7-14.8 1-1 2.1-1.8 2.6-1.8 1.2 0 9-10.4 12.8-17.2 5.2-9.1 7.7-19.9 8.1-34.8.3-6.8 0-13.3-.5-14.5-.6-1.1-1.5-4.7-2.2-8-1.2-5.9-2.4-9.1-8-21-1.5-3.3-3.1-7.1-3.5-8.5-.4-1.4-1.2-3.9-2-5.5-.7-1.7-1.8-6.2-2.5-10-.7-3.9-1.6-7.5-2-8-.5-.6-1.6-6.1-2.5-12.3-1-6.2-2.1-11.5-2.6-11.8-.5-.3-.9-1.3-.9-2.2 0-2.1-7.3-16.4-10.8-21.1-6-8-21-20.2-28.5-23-1.5-.6-4.7-1.9-7-3-5.1-2.3-20.1-4.4-25.5-3.6-11.8 1.8-17.2 2.9-17.2 3.7 0 .4-.5.8-1.1.8-.5 0-3.5 1.1-6.4 2.6l-5.4 2.5-7.8-3.9c-4.3-2.2-10-4.5-12.8-5.2-2.7-.7-5.6-1.8-6.3-2.3-1.4-1.1-26.3-2-29.7-1zm-1 31.7c2.2.8 4 2 4 2.6 0 1.4-.3 1.6-8.5 5.4-3 1.4-7.4 4.4-9.8 6.6-2.3 2.2-4.7 4-5.3 4-1.4 0-.4-7.3 1.1-7.8.5-.2 1-.9 1-1.6 0-3.3 8.4-10.6 12-10.6.8 0 3.3.7 5.5 1.4zm124.5 8.5c1.6 1.5 3.7 4.7 4.5 7.1 1.7 4.8 2 11 .5 11-.5 0-1-.4-1-.9 0-1.7-11.1-12.1-15-14.1-7.3-3.7-6.5-6 2.1-6 5.1 0 6.3.4 8.9 2.9zm-105.5 23c3.7 2.1 5.5 5.5 5.5 10.4 0 8.9-7 14.1-15.8 11.8-11.5-3.1-12.4-18.4-1.5-23.3 4.2-1.9 7.2-1.6 11.8 1.1zm87.6 4.1c4 0 7.9 5.9 7.9 12 0 6.2-3.1 10.9-7.2 11-1 0-1.8.4-1.8 1 0 1.7-4.8 1.1-8.6-.9-7.3-3.9-9.3-11.2-4.9-18.1 2.6-4.1 7-6.3 11-5.4 1.1.2 2.7.4 3.6.4z"/><path d="M258.7 374.3c7.4 31.9 21.2 50.2 44 58.4 6.8 2.5 9.2 2.8 19.3 2.8 10 0 12.4-.3 18.6-2.7 9.2-3.5 15-7.4 22.1-15.3 7.1-7.8 15.3-23.4 16.9-31.9.6-3.5.5-3.8-1-3.3-1 .4-3.9.7-6.6.7h-4.8l-3.2 6.5c-6 12.1-17.7 21.1-30.7 23.4-22.6 4.2-44.3-4.2-53.3-20.7-1.7-3.1-3.7-7.9-4.4-10.6-1.2-4.8-1.4-5-6.7-6.6-10.3-3.2-10.8-3.3-10.2-.7zM243 648.9c0 96.1-.4 167-1 177.7-1.1 18.5-5.2 47.3-7.6 53.3-.8 1.8-1.4 3.9-1.4 4.6 0 3.3 29.6 7.4 42.3 5.8 9-1.1 22.3-4.7 24.7-6.7.8-.7 2.7-1.7 4.2-2.4 4.5-1.9 5.5-4.8 6.8-19.7.6-7.7 1.6-16.7 2.1-20 .5-3.3 1.2-12.7 1.6-20.8.6-14.6.7-14.9 3.1-16 4.1-1.9 5.3 1 4.6 11.7-1.6 28-2.5 41.4-3 43.8l-.6 2.8h133.4l133.3-.1-3.9-1.9c-2.2-1.1-7.6-2.7-12-3.6-4.5-.8-9-1.9-10.1-2.4-1.1-.4-4.2-1.4-7-2-5.7-1.3-16.1-5.9-19.6-8.7-4.6-3.5-11.8-11.4-14.3-15.7-5.3-9.1-10.5-27-9-31 .8-2.1 6-2.1 6.8 0 .3.9.6 2.4.6 3.4s1.2 5.6 2.7 10.2c4.7 14.7 12.3 24 24.6 30.3 6.5 3.4 10.5 4.5 30.5 9.1 13.6 3 21.3 8.6 25.4 18.3 1.1 2.6 2.5 5.7 3.1 7 .7 1.3 1.2 5.2 1.2 8.7v6.3l5.5.8c11.8 1.7 35.4.1 39.5-2.7.6-.4 3.2-1.5 5.8-2.4 2.7-1 6.6-3 8.8-4.4l3.9-2.6v-16c0-14.3-.2-16.5-2.2-20.8-1.8-3.9-2.8-5-5.7-5.8-2-.5-4.5-1-5.5-1-1.1 0-3.3-.4-5-1-1.7-.5-4.9-1.4-7.2-2-5.2-1.3-12-8-13.6-13.5-.6-2.2-1.6-4.6-2.2-5.4-.7-.9-1.2-11.8-1.4-30.4l-.3-29.1 4.3-4.1c5.4-5.2 8-8.3 10.4-12.3 1-1.8 2.2-3.2 2.6-3.2.4 0 .8-.6.8-1.3 0-.6 1.2-3.5 2.5-6.2 2.7-5.3 6-19.7 5.2-21.9-.3-.7-1.7-1.6-3.1-1.8-1.9-.4-3.2.2-5.3 2.5-3.9 4.1-12.2 10.1-16.3 11.7-1.9.8-3.7 1.7-4 2-.3.3-2.5 1.2-5 1.9-3.7 1.1-24 1.4-109.5 1.2l-105-.2-4.5-2.2c-7.9-3.8-14-11.6-14-18.1 0-1.4-.4-2.8-1-3.1-.7-.4-1-31.9-1-91.2v-90.5l-2.2 1.5c-2.7 1.9-12.8 6.8-17.8 8.7-1.9.7-4.1 1.8-4.7 2.3-.9.6-1.9.2-3.3-1.4-2.5-3.1-2.5-5.1 0-7.4 2.3-2.1 2.6-3.7.6-2.9-.7.3-2.1 2.3-3.1 4.5-1 2.1-2.1 3.9-2.5 3.9-.6 0-4 7.1-9.8 20-1.1 2.5-2.6 7.3-3.3 10.7-.7 3.5-1.6 6.3-2 6.3-.4 0-1 2.9-1.4 6.5-.3 3.6-1 6.5-1.4 6.5-.4 0-1.8-1.4-3.1-3.1-1.4-1.7-3.5-4-4.7-5.1-1.3-1.2-2.3-2.5-2.3-3 0-.4-1.7-3-3.8-5.8-2.2-2.8-4.9-7-6.2-9.3-1.3-2.3-3.6-6.5-5.2-9.2-1.5-2.8-3.5-6.6-4.4-8.5-.9-1.9-3.4-7.2-5.5-11.8l-3.9-8.3-6.3 6.4c-3.4 3.5-8 7.4-10.2 8.5-8 4.1-10.9 5.2-13.9 5.5l-3.1.2-.6-8c-.7-9.7-2.1-14.6-7.3-24.5-2.1-4.1-4.4-8.5-5-9.7-.6-1.3-1.4-2.3-1.8-2.3-.5 0-.8 72-.8 159.9z"/></g><path d="M237.4 784.5c0 7.1.1 9.9.3 6.2.2-3.7.2-9.6 0-13-.2-3.4-.3-.4-.3 6.8zm437 113.5c0 5.2.1 7.4.3 4.7.2-2.6.2-6.8 0-9.5-.2-2.6-.3-.4-.3 4.8zm-56.6.7c3.4.2 8.8.2 12 0 3.1-.2.3-.3-6.3-.3s-9.2.1-5.7.3z" stroke-width="3" fill="#B27F19" stroke="#B27F19"/><path d="M313.8 286.7c2.9.2 7.4.2 10 0 2.6-.2.2-.3-5.3-.3s-7.6.1-4.7.3z" fill="#630" stroke="#630" stroke-width="3"/><g fill="#B26600" stroke="#B26600" stroke-width="3"><path d="M237.1 649.5c.1 166.3-.4 193.7-3.1 203-.5 1.6-1.6 7.8-2.4 13.7-.9 6-2 11.6-2.5 12.5-.5 1-1.4 3-1.9 4.5-.8 2-2.2 3-5.4 3.8-12.9 3.5-22.7 12.2-26.5 23.7-2.8 8.3-2.9 10.7-.2 18 2.8 7.5 10.1 14.3 15.4 14.3.8 0 1.5.4 1.5 1 0 1.6 11.2 1.1 13.4-.5 2.1-1.6 5.1-1.1 7.3 1 1.7 1.7 10.1 3.5 16.4 3.5 2.7 0 8.5-.7 12.7-1.7 4.2-.9 8.4-1.6 9.2-1.5 13.2.6 13.6.5 18.3-2.7 7.1-4.8 12.9-14.5 18-30.1 3-9 6.7-26 7.7-35.1.4-3.6 1-7.1 1.4-7.7.5-.9 34.4-1.2 138-1.2 134.8 0 137.3 0 139.3 2 1.2 1 2.4 3.3 2.8 4.9.4 1.7 1.1 3.3 1.6 3.6.5.4.9 2.5.9 4.9 0 5.2-1.6 6.9-8.4 8.5-11.4 2.8-23 12-25.6 20.3-.7 2.4-1.7 4.7-2.2 5.2-.4.6-.8 3.6-.8 6.7 0 10.8 6.2 20.6 14.6 22.9 2.5.7 4.7 1.7 5 2.1.7 1.2 9.1 1.1 9.9 0 1.3-2.2 6.4-2.2 9.3-.1 5 3.7 14.4 4.6 26.3 2.7 5.7-1 10.6-2.2 10.7-2.7.5-1.3 3.9-1.3 4.7 0 .8 1.3 15.5 1.3 15.5 0 0-.5 1.1-1.2 2.4-1.6 3.1-.7 8-6.8 9.5-11.9.7-2.2 1.8-5.1 2.4-6.4.9-1.7 1.2-13.8 1.2-43.1v-40.7l-2.8-5.6c-3.3-6.4-4.3-6.9-20.5-10.6-10.6-2.4-14-4.9-16.2-11.6-.7-2.2-1.8-5.1-2.4-6.4-.7-1.6-1-11-.9-28.3l.2-25.8 4.4-4.6c6.7-7 9.3-10.5 10.3-13.7.4-.9 1-1.7 1.4-1.7.5 0 1.2-1 1.6-2.3.4-1.2 1.8-4.6 3.1-7.5 2.3-5.2 4.3-13.9 4.3-19.3 0-1.8-.6-2.8-2-3.2-1.1-.3-1.8-.2-1.5.3 1.1 1.7-2.7 18.7-5.6 24.9-1.7 3.6-3.4 6.8-3.8 7.1-.5.3-1.4 1.6-2.1 3-1.5 2.9-3.9 5.8-9.7 11.7l-4.3 4.2-.2 26.3c-.1 18.8.1 26.9 1 28.3.6 1.1 1.6 4 2.2 6.3 1.4 5.3 7.8 12.7 12.3 14.1 1.8.5 5 1.3 7.2 1.6 2.2.4 6.6 1.4 9.8 2.3 4.7 1.3 6.1 2.2 7.9 5.1 2.1 3.3 2.3 5.1 2.6 22.7l.4 19-9.6 4.8c-12.1 6-20.8 7.9-36.1 8-14.4.1-23.5-1.6-23.5-4.4 0-1 .5-2.2 1-2.5 1.5-.9 1.2-3.9-1.2-11.3-4.7-14.7-11.4-20.3-28.8-24.2-24.8-5.5-32.8-8.8-40.8-17-7.9-8-13.1-18.3-15.7-31-.8-3.9-1.6-5.6-2.9-5.8-1.6-.3-1.7.2-1 4.5.3 2.6 1 5.2 1.4 5.8.4.5 1.2 3.2 1.9 5.8 1.2 5.1 5.7 13.8 10 19.6 5.6 7.4 19.9 15.6 31.6 18.1 3.3.6 6.9 1.6 8 2 1.1.4 5.6 1.5 10 2.4 4.3.9 8.2 2 8.5 2.4.3.5 2 1.4 3.8 2.1 2.1.9 3.2 2 3 3-.3 1.5-12.1 1.6-136.3 1.6h-136l-.3-3.8c-.2-2.1.4-9.8 1.2-17 .8-7.3 1.6-18.8 1.8-25.7.3-10.6.1-12.5-1.2-12.5-1.1 0-1.6 1.5-1.8 6.5-.9 20.3-4.9 60.5-6.5 65.5-.7 2.1-9.6 7.2-18.7 10.5-15.1 5.6-42.8 4.7-59.6-2l-2.2-.9 2-6.8c3.5-11.9 6.1-29.1 7.8-51.8.4-5.5.8-85.2.9-177.1.1-165.8.1-167.2-1.9-169.5l-2-2.4.1 171zm72.4 238.2c-.4 1-1.6 5.8-2.6 10.8-1 4.9-2.3 9.9-2.8 11-.5 1.1-1.5 3.8-2.2 5.9-1.5 4.9-6.7 15.5-8.5 17.3-.7.8-1.7 2-2.1 2.7-2.9 4.6-15.5 7.5-18.2 4.2-.7-.8-2.2-1.7-3.5-2-1.3-.3-3.3-2.2-4.5-4.2-2.2-3.7-2.8-10.8-1.1-11.9.6-.3 1-1.4 1-2.4 0-.9 1.8-4.5 4.1-8 2.7-4.2 3.8-6.6 3.1-7.3-.7-.7-2.3.8-5 4.4-8.3 11.2-9.4 22.6-3 29.5 1.1 1.2 1.7 2.6 1.4 3.1-.9 1.5-16.4 3.4-22 2.7-10-1.4-16.6-6.2-18.6-13.5-2.4-9 1.4-17.2 11.4-24.3 2.3-1.7 1.3-3.9-1.2-2.9-3.1 1.2-6.6 4.5-10.2 9.6-3.3 4.5-3.5 5.3-3.5 12.6 0 6.5.4 8.3 2.2 10.8 2 2.7 2.1 3.2.7 4.3-2.8 2.3-11.7 1.4-16.9-1.7-7-4.1-9.9-9.3-10-17.9 0-14.3 8.7-24.9 24-29.1 4.2-1.1 6-1.1 12.5.2 4.1.8 8.6 2 9.9 2.7 3.3 1.6 39.8 1.7 43.2 0 1.3-.6 4.9-1.9 7.9-2.9 3-.9 6.8-2.5 8.5-3.6 4-2.4 7-2.4 6-.1zm360.3 18.7c-.2 12.9-.7 20.8-1.5 21.7-.6.8-1.4 3-1.8 4.9-1 4.6-3.7 8.4-8.1 11.1-3 1.8-4.5 2.1-9.6 1.6-3.3-.3-6.5-1-7.1-1.6-.6-.6-1.9-1.1-3-1.1-1 0-3.1-1.5-4.8-3.2-2.3-2.6-2.9-4.2-2.9-7.8 0-2.5.4-5 .9-5.6.5-.5 1.4-2.6 2.1-4.7.6-2.1 2.7-6.1 4.6-9 2.2-3.3 3-5.5 2.4-6.1-1-1-5 1.9-5 3.6 0 .5-1.1 2.5-2.4 4.6-1.4 2-3 5.7-3.7 8.2-.7 2.5-1.6 4.9-2.1 5.4-1.1 1.4-1 7.6.2 7.6.6 0 1 .8 1 1.8s1.1 2.9 2.5 4.2c1.8 1.7 2.2 2.7 1.5 3.6-2.1 2.5-19.4 3.4-26.8 1.5-5.3-1.5-11.7-8.1-13.1-13.4-1.8-7.4 2.9-17.4 10.8-22.6 2.2-1.5 3-2.6 2.3-3.3-2.8-2.8-13.5 8-15.9 16.1-1.3 4.5-1.4 6.4-.4 10.5.6 2.8 1.9 5.8 2.8 6.8 4.5 5-6.8 6.6-15.9 2.3-7.6-3.6-10.1-7.9-10.6-17.6-.3-6.6-.1-8.2 2.1-12.5 3.4-6.8 7.2-10.6 14-14.2 7.7-4.1 12.4-4.7 23.2-2.8 15.7 2.8 41.3 1.2 47.8-2.8 1.2-.8 4-1.9 6.2-2.6 2.2-.7 4.2-1.6 4.5-2 .7-.9 4.3-2.9 5.4-3 .4 0 .7 9.2.4 20.4z"/><path d="M386 515.1c-1.3 1-1.4 12.2-1 94.7.4 73 .8 94.3 1.8 96.6 3.4 7.7 11 13.4 19.6 14.7 3.6.6 47.4.9 106.6.7l100.5-.3 4.7-2.3c2.6-1.2 5.1-2.2 5.6-2.2 1.6 0 11.4-7.1 15.6-11.2 2.9-2.9 3.6-4.1 2.8-5.1-.9-1.1-2.3-.2-6.9 4.1-5.8 5.5-16.5 11.3-23.3 12.6-5.2 1-203.9.7-208.4-.4-2.1-.5-4.2-1.3-4.5-1.8-.3-.4-1.3-1.1-2.2-1.5-.9-.3-3-2.2-4.5-4.3l-2.9-3.7-.3-95.9c-.1-52.7-.6-95.8-1-95.7-.4 0-1.4.5-2.2 1z"/></g><path d="M274.1 253.4c-5.4 3-6.7 10.6-2.6 15.4 3.1 3.7 7.3 4.8 12 3.2 4.6-1.5 6.5-4.4 6.5-9.8 0-8.2-8.5-12.9-15.9-8.8zm5.9 4.6c1.6 2.9-.4 6-3.8 6-3.1 0-5.2-1.6-5.2-4 0-4.1 7-5.7 9-2zm86-.1c-2.8.8-7 6.4-7 9.3 0 3.4 3.2 8.9 5.7 9.9 6.7 2.5 13.6-.2 15-6 2.4-9.3-4.4-15.8-13.7-13.2zm3.4 4.7c3.1 3.1 1.3 6.7-3.4 6.7-3.1 0-5-1.5-5-4 0-1.8 2.9-4.3 5-4.3 1 0 2.6.7 3.4 1.6z" stroke-width="3" fill="#331900" stroke="#331900"/><path d="M241.5 628.5c0 79.7.1 112.2.2 72.2.2-40.1.2-105.3 0-145-.1-39.7-.2-7-.2 72.8zm427.9 238c0 7.7.2 10.7.3 6.7.2-4 .2-10.3 0-14-.2-3.7-.3-.4-.3 7.3zm-352-4c.1 2 .9 2 135.9 2.3 74.6.1 135.7-.1 135.7-.5 0-.5-60.9-.7-135.4-.5-128.5.2-135.5.1-135.9-1.5-.3-1.4-.4-1.3-.3.2z" stroke-width="3" fill="#CC7F00" stroke="#CC7F00"/><path d="M259.6 302c-3.8 1-8.8 2.6-11.2 3.5l-4.4 1.7 2.2 1.8c2 1.6 2.6 1.7 4.4.5 2.2-1.4 15-4.2 21.4-4.7 2.8-.2 3.6-.8 3.8-2.6.3-2 0-2.2-4.5-2.1-2.6 0-7.9.9-11.7 1.9zm117.4 7.5c0 1.8.7 2.4 3.8 3 2 .4 4.2 1 4.7 1.5.6.4 3.6 1.5 6.8 2.5 3.1 1 5.7 2.1 5.7 2.6 0 1.2 5.4 2 7.9 1.1 2.1-.7 1.4-1.3-6-5.1-4.6-2.3-11.7-5-15.6-6l-7.3-1.9v2.3zm-142.3 5.1c-3.4 3.4-5.7 7.3-7.2 12.1-.5 2-.3 2.3 1.8 2.3 1.9 0 2.6-.7 3-2.8.3-1.5 2.6-5 5.1-7.7 3.5-3.7 4.3-5.1 3.5-6.2-1.6-1.9-2.2-1.7-6.2 2.3zm175.1 9.5c-1.5.8-1.3 1.6 2.2 6.6 2.2 3.1 4 6.2 4 6.8 0 .7 1.2 1.5 2.6 1.8 2.3.4 2.5.2 1.9-2.2-.8-3.3-4.8-10.1-7.1-12.3-1.4-1.2-2.4-1.4-3.6-.7zm-183.3 14.1c.9 4.9 3.9 12.3 5.4 13.3.6.3 2 .3 3.1 0 1.9-.6 1.9-.8-.6-4.5-1.5-2.2-2.9-6-3.2-8.5-.4-4-.7-4.5-2.9-4.5-2.4 0-2.4.2-1.8 4.2zm95.1.5c-.3 1-.8 6.9-1.2 13-.7 11.3-.7 11.3-3.8 13.2-7 4.3-14 6.3-24.1 6.8-16.8.9-31.8-3.2-46.2-12.5-3.8-2.5-5.7-3.2-7.4-2.7-2.3.8-2.3.8 1.1 3.7 1.9 1.6 5.1 3.8 7.1 4.8 3.8 2 4.7 4.1 6.4 14.8.9 5.8 5.9 19.3 9.8 26.7 3.6 6.7 18.3 22.2 23.7 25 1.9.9 4.2 2.3 5 2.9.8.7 3.5 1.9 6 2.6 2.5.7 5 1.7 5.6 2.2 3.5 2.6 33.5 2.5 36.8-.1.6-.4 2.8-1.4 4.9-2.1 5.9-1.9 15-8.3 22.2-15.7 7.3-7.5 14.7-21.2 18.5-34.4l2.2-7.5 5.8-2.3c7.8-3.1 16.2-8 15.5-9-1.2-2-4.6-1.7-8.1.7-5.4 3.6-19.6 7.8-29.4 8.6-8.6.7-24.3-.6-26.4-2.3-.6-.5-2.5-1.2-4.3-1.6-4.2-.9-14.8-7.8-16.4-10.6-.8-1.6-1-5.7-.6-14.1.5-9.7.4-11.8-.8-11.8-.7 0-1.6.8-1.9 1.7zm3.5 29.9c.7.8 2.6 2.2 4.3 3.1 1.7.9 3.3 1.9 3.6 2.3 1 1.5 19.2 7 23 7 2.1 0 4.1.4 4.5 1 .9 1.5-4.5 10.8-9 15.3-2.3 2.3-6.9 5.5-10.1 7.2-5.7 2.9-6.4 3-19.4 3-13.1 0-13.7-.1-20.3-3.3-3.8-1.8-8.6-4.9-10.7-7-4.5-4.4-10-14.4-10-18.2v-2.7l9.8-.5c10.2-.6 21.6-3.6 26.2-6.9 3.1-2.3 6.3-2.4 8.1-.3zm-57.4 4.9 7.2 1.9 2.2 7c2.3 7.7 5.7 13.2 11.6 18.7 5.6 5.3 10.2 7.7 18.8 9.9 24.5 6.3 45.9-2.6 56.3-23.2l2.7-5.3 7.4-.8c4-.4 7.5-.6 7.7-.4.7.6-4.4 15.4-7.2 21-9.2 18.2-23.4 30.1-39.9 33.2-9.7 1.9-15.3 1.9-25.1 0-17.6-3.4-31.5-14.1-41.3-32-6.8-12.3-12.6-33.3-9-32.3.8.2 4.6 1.2 8.6 2.3zm148.9-23.3c-.4 2.6-1.2 5.3-2 6-.7.8-1.8 2.3-2.4 3.5-1 1.9-.9 2.3.9 2.8 2.5.8 4.1-1.1 6.9-8.3 2.7-7 2.6-8.7-.4-8.7-2.1 0-2.5.6-3 4.7z" stroke-width="3" fill="#E59900" stroke="#E59900"/><path d="M318.4 353c0 5.2.1 7.4.3 4.7.2-2.6.2-6.8 0-9.5-.2-2.6-.3-.4-.3 4.8zm294.4 547.2c.9.4 6 .7 11.2.7 5.2 0 10.3-.3 11.2-.7 1-.4-4.1-.7-11.2-.7s-12.2.3-11.2.7z" stroke-width="3" fill="#FFE5B2" stroke="#FFE5B2"/><path d="M261 308.4c-8.2 1.8-9.8 2.9-9.2 6.5.3 2.5.1 3.1-1.5 3.1-1.1 0-2.8-.6-3.8-1.4-1.7-1.2-2.3-1.2-4.7.6-2.3 1.6-7.8 9.3-7.8 10.9 0 .2 4 .3 9 .1 9-.3 9-.3 9 2.1 0 2.1-.6 2.5-4.6 3.1-2.6.3-6.9.6-9.5.6-4.8 0-4.9.1-4.9 3.1 0 2.4 3.2 9.6 5.7 12.8.2.2 1.3-.1 2.6-.7 5.2-2.6 15.1-6.1 15.9-5.6.4.3.8 1.3.8 2.4 0 1.9-4.6 4.7-11.3 7l-3.9 1.2 4.9 3.2c11.8 8 29.2 13 42.5 12.3 9.9-.5 19.2-2.8 24-5.9l3.5-2.3.6-10.5c.3-5.8.8-11.5 1.2-12.6.5-1.7.2-2.3-1.7-2.7-9.2-2.2-12-3.2-17.2-5.8-9.6-4.9-18.6-12.8-22.2-19.5-1.7-3.2-2.2-3.4-6.9-3.3-2.7 0-7.5.6-10.5 1.3zm109.4 12c-6.5 6.5-15.9 11.9-22.9 13.1-2.2.4-4.5 1.1-5.1 1.6-.6.5-4.2 1.2-8.2 1.5l-7.1.7-.6 6.1c-.4 3.3-.5 9-.3 12.6l.3 6.5 6 4c6.1 4.1 13.4 6.9 23.5 8.7 5.9 1.1 23 .3 25.8-1.1.9-.5 3.7-1.4 6.2-2 4.6-1.2 15-6.1 15-7.2 0-.3-1.9-1.2-4.2-1.9-7.6-2.2-11.8-4.4-11.8-6.1 0-2.1 2.4-4.1 3.6-3 .5.5 2.7 1.4 4.9 2.1 2.2.7 6 2.1 8.4 3.2 4.3 2 4.5 2 5.8.2.7-1.1 2-2.7 2.9-3.7.8-1 1.8-4.1 2.1-6.8l.6-4.9h-10c-11.2 0-14.9-1.4-12.3-4.5 1.3-1.6 2.7-1.7 11.2-1.1 6.7.4 9.8.3 9.8-.5 0-1.7-5.8-9.6-7.6-10.3-1.9-.7-9.4 1.3-9.4 2.6s-2 .9-3.8-.8c-1.5-1.5-1.4-1.8 1.3-4 1.7-1.3 3.7-2.4 4.5-2.4 2.5 0-4.1-3.6-10-5.4-3-.9-6.3-2.1-7.2-2.7-3.2-1.7-5.2-.7-11.4 5.5zM367 870.7c130.9.7 226.8.7 226.3 0-.2-.4-62.4-.6-138.1-.5-75.7.2-115.4.4-88.2.5zm-62.5 19.2c-.3.5-2.9 1.7-5.8 2.6-2.8.9-6.1 2.1-7.2 2.6-4 1.9-13.1 2.9-25.4 2.9-14.1 0-22.6-1.1-31.5-4.1-6.9-2.4-10.5-2-18.3 1.8-7.5 3.6-13.7 10.6-15.8 17.8-1.8 6.4-1.6 9.3 1.4 16.1 1.6 3.5 2.9 4.8 6.8 6.5 2.6 1.2 5.6 2.6 6.5 3 2.3 1.2 5.5 1.1 6.2 0 .4-.5-.3-3-1.4-5.6-2.5-5.8-2.5-9.6-.1-16.2 2.8-7.7 9.3-15 14.8-16.7 2.4-.8 6.3.8 6.3 2.6 0 .6-2.9 3.8-6.4 7.2-9.3 8.8-10.9 16.5-5 23.6 4.8 5.7 9 7.4 17.9 7.5 4.4 0 9.7-.4 11.8-.8l3.7-.8-2.7-3.6c-2.3-3-2.8-4.7-2.8-9.3 0-3.1.5-6.8 1.2-8.1.7-1.3 1.9-4 2.6-5.9 1.9-4.6 8.4-12 10.6-12 3.5 0 5.2 3.7 2.8 6.2-3.9 4-8 12.3-8.5 16.9-.6 6.7 1.1 10.3 6 12.5 10.5 4.7 17.2.8 24.8-14.6 4.1-8.3 10.8-33 8.9-33-.4 0-1 .4-1.4.9zm359.5 1.3c-17.1 8.8-39.3 11.6-59 7.4-10.1-2.1-14-1.7-21.8 2.6-7.3 3.9-11.5 9.1-14.1 17.3-2.1 6.3-2.1 6.7-.4 11.7 2.4 7.4 5.7 10.6 12.6 12.4 3.2.8 6.7 1.2 7.8.9 1.8-.6 1.8-.8.3-3.6-4.5-8.8-1.9-20.4 6.4-29.1 4.1-4.3 5.5-5.1 8.8-5.2 3.5-.1 3.9.2 4.2 2.5.2 2.1-.5 3.1-3.7 5.2-5.8 3.8-9.3 9.7-9.9 16.1-.4 5-.2 5.6 3.2 9.4 5.4 5.9 9.6 7.6 19.1 7.5 4.4 0 9-.3 10.3-.7l2.3-.8-2.2-3.6c-1.8-2.9-2.3-5.1-2.2-10 0-3.4.5-6.8 1.1-7.5.5-.6 1.4-2.8 2.1-4.7 1.3-4 7.8-13.8 10.2-15.3 1.9-1.2 4.9 1.1 4.9 3.7 0 1.3-3.4 7.2-5.9 10.2-1.8 2.2-4.1 10.5-4.1 14.7 0 7.3 5.3 10.7 16.5 10.7 8.5 0 12.5-3.5 14.6-12.5.6-2.8 1.5-5.7 1.9-6.5 1.1-2.3 2.4-33.7 1.4-34.2-.5-.2-2.5.4-4.4 1.4z" stroke-width="3" fill="#FFE5CC" stroke="#FFE5CC"/><path d="M236.4 785c0 6.9.1 9.7.3 6.2.2-3.4.2-9 0-12.5-.2-3.4-.3-.6-.3 6.3zm437.9 72c0 4.7.2 6.6.4 4.2.2-2.3.2-6.1 0-8.5-.2-2.3-.4-.4-.4 4.3z" stroke-width="3" fill="#E5CC99" stroke="#E5CC99"/><path d="m384 608.3.5 92.2.3-91.4c.1-50.3-.1-91.8-.5-92.2-.5-.5-.6 40.7-.3 91.4zM241.4 785c0 6.9.1 9.7.3 6.2.2-3.4.2-9 0-12.5-.2-3.4-.3-.6-.3 6.3zm72.8 61.5c-.1 3.3-.5 7.1-.7 8.5l-.6 2.5 1.1-2.5c.6-1.3.9-5.1.7-8.5l-.3-6-.2 6zm3.4 5.1c-.4 4.2-.5 7.8-.2 8.1.2.2.7-3 1.1-7.2.4-4.2.5-7.8.3-8.1-.3-.2-.8 3-1.2 7.2zm270.2 10.5c.6.7 1.2 1.7 1.2 2.1 0 .5-61.2.7-136 .6-74.7-.2-135.6 0-135.1.5.4.4 61.7.6 136.1.5 124.1-.3 135.5-.4 135.8-1.9.2-.9-.5-2-1.5-2.3-1.4-.6-1.6-.5-.5.5zm-202 6.6c38.2.2 100.3.2 138 0 37.8-.1 6.6-.2-69.3-.2-75.9 0-106.8.1-68.7.2zm234 26c2.3.2 6.1.2 8.5 0 2.3-.2.4-.4-4.3-.4s-6.6.2-4.2.4z" stroke-width="3" fill="#B27F00" stroke="#B27F00"/><path d="M453.8 722.7c25 .2 65.5.2 90 0 24.6-.1 4.2-.2-45.3-.2s-69.6.1-44.7.2zM626.4 767c0 6.3.1 8.9.3 5.7.2-3.1.2-8.3 0-11.5-.2-3.1-.3-.5-.3 5.8z" stroke-width="3" fill="#C90" stroke="#C90"/><path d="M453.8 717.7c24.8.2 65.6.2 90.5 0 24.8-.1 4.5-.2-45.3-.2s-70.1.1-45.2.2zM669 899.8l.5 12.7.3-11.9c.1-6.6-.1-12.3-.5-12.7-.4-.5-.6 4.9-.3 11.9z" stroke-width="3" fill="#CC994C" stroke="#CC994C"/><path d="M630.3 792c0 4.7.2 6.6.4 4.2.2-2.3.2-6.1 0-8.5-.2-2.3-.4-.4-.4 4.3zm-244.5 77.7c38.2.2 100.3.2 138 0 37.8-.1 6.6-.2-69.3-.2-75.9 0-106.8.1-68.7.2z" stroke-width="3" fill="#B27F33" stroke="#B27F33"/><path d="M236.5 621c0 78.9.1 111.2.2 71.7.2-39.4.2-104 0-143.5-.1-39.4-.2-7.1-.2 71.8z" fill="#CCB266" stroke="#CCB266" stroke-width="3"/><path d="M317.5 370.4c-6.7 4-17.6 6.7-27.1 6.7-7.5 0-8.4.2-8 1.7 1.5 5.6 2.1 7.1 4.2 10.4l2.4 3.8 3.8-1.6c2-.9 4.5-2.1 5.6-2.6 1-.5 4.2-1.2 7.1-1.5 5.2-.5 7.5.1 13 3.6 1.8 1.1 2.8 1 7-1 7.5-3.6 18.4-3.4 24.2.3l4.2 2.7 2.5-4.4c1.4-2.4 2.6-4.6 2.6-4.8 0-.3-1.9-.8-4.2-1.2-11.8-1.8-26-7.7-30.3-12.5-2.2-2.5-2.2-2.5-7 .4z" fill="#E53333" stroke="#E53333" stroke-width="3"/><path d="M389.5 604.5c0 50.6.1 71.4.2 46.3.2-25.1.2-66.5 0-92-.1-25.5-.2-4.9-.2 45.7zm66.8 112.2c24.7.2 64.7.2 89 0 24.3-.1 4.2-.2-44.8-.2-48.9 0-68.8.1-44.2.2z" stroke-width="3" fill="#E5E5B2" stroke="#E5E5B2"/><path d="M631.4 768c0 5.8.1 8.1.3 5.2.2-2.8.2-7.6 0-10.5-.2-2.8-.3-.5-.3 5.3z" fill="#C93" stroke="#C93" stroke-width="3"/><path d="M252.4 1112.5c0 4.9.1 7.1.3 4.8.2-2.3.2-6.4 0-9-.2-2.6-.3-.8-.3 4.2z" fill="#994C4C" stroke="#994C4C" stroke-width="3"/><path d="M386.4 1090.8c-2.4 1.5-3.3 11.9-3.7 40.7-.2 16.5-.2 30.7 0 31.6.8 3.2 4.5 3.6 26.3 3.1 23.4-.5 25-.9 25-6.2 0-4.9-1.6-5.3-20.8-5.4l-17.7-.1.4-30.7c.3-23.8.1-31.1-.9-32.3-1.3-1.6-6.7-2-8.6-.7zm-141.6 12.6c-1.5 1.1-1.8 3-1.8 12.6v11.2l-2.7-.6c-11.7-2.8-18.9-1.2-24.2 5.4-5.6 6.9-6.5 19.6-1.9 25.5 1.2 1.5 3.9 4 6.1 5.6 3.3 2.4 5 2.9 9.8 2.9 3.2 0 7-.5 8.5-1.1 2-.7 3.4-.7 5 .1 1.1.7 3.2 1 4.5.8 2.3-.3 2.4-.8 3.2-9.3.4-5 .6-19.1.5-31.5l-.3-22.5-2.5-.2c-1.4-.2-3.3.3-4.2 1.1zm-6.2 30.7 3.4 2.1v9.4c0 9.3 0 9.3-3 10.9-3.4 1.8-9.9 2-13.4.4-6.4-3-7.5-16.6-1.7-22 3.7-3.5 9.9-3.8 14.7-.8zm206.4-21.4c-.8.3-1.8 1.1-2.2 1.7-3.3 4.9 5.6 9.1 9.7 4.6 1.5-1.7 1.6-2.2.4-3.7-2.6-3.3-4.4-3.9-7.9-2.6zm19 1.5c-1.7 1.9-1.8 2.4-.6 4.2 1.7 2.7 6.2 3.2 8.7 1 2.5-2.2 2.4-3.9-.3-5.8-3.1-2.2-5.4-2-7.8.6zm-153.6 8.8c-2 .8-2.1 1.7-2.6 20.7-.3 10.9-.3 20.4 0 21.1.3.8 1.8 1.2 4.1 1 3.6-.3 3.6-.3 4.3-5.8.3-3 .6-9.4.7-14.2l.1-8.7 5.3-1.6c4.6-1.3 5.9-1.3 9.9-.1 5.6 1.6 7.8.7 7.8-3.5 0-2.6-.6-3.3-4.7-5.1-3.8-1.7-5.8-1.9-10.9-1.4-5.6.6-6.6.4-8.4-1.4-2.2-2.2-2.5-2.3-5.6-1zm-34.9 2c-5.2 1.3-7.9 2.7-10.2 5.2-5 5.4-6.9 18.2-3.7 25.5.9 2.1 3.5 5.1 5.8 6.8 3.6 2.6 5.1 3 12.1 3.3 6.9.3 8.6 0 12.5-2.1 5.3-2.9 7.6-6.6 6-9.7-1.4-2.7-2.6-2.5-5.6.7-2.4 2.6-3.1 2.8-10.9 2.8-7.9 0-8.5-.2-11.4-2.9-3.1-3-3.9-5-2.3-6 .5-.3 6.7-1.2 13.7-2.2 14.2-1.8 15.4-2.4 15.5-8.4 0-4.6-3.3-9.8-7.3-11.4-4.5-1.9-10.6-2.6-14.2-1.6zm9 7c3.4 1.3 5.8 3.7 5 5-.3.5-2.2 1-4.1 1-2 0-4.3.4-5.2.9-.9.4-3.8 1.1-6.4 1.4-6.1.8-6.9-1-2.4-5.8 3.6-3.8 7.7-4.6 13.1-2.5zm267.6-6.5c-8.5 2.7-13.2 9.6-13.4 20-.2 7.8 2.1 13.1 7.6 17 3.9 2.8 4.8 3 13.4 3 8.7 0 9.3-.1 13-3.1 4.1-3.3 5.4-7.3 3-9.3-1.2-.9-2.1-.6-4.7 1.6-4.1 3.4-13.5 4.4-19.2 2-4-1.7-7.7-6.2-6.2-7.7.5-.5 6.8-1.6 13.9-2.5 14.1-1.7 16.5-2.9 16.5-8.4 0-9.7-12.5-16.3-23.9-12.6zm14.1 8.3c2.5 2.5 1.6 4.2-2.2 4.2-1.6 0-3.9.4-5.2.9-1.3.4-4.2 1.1-6.6 1.5-3.3.5-4.4.3-4.8-.9-.7-1.6 2.8-6.6 5.4-7.7 3.1-1.4 11.2-.2 13.4 2zm-116.7-7.4c-6.4 2.9-11.5 11.9-11.5 20.4 0 5.6 2.6 12.1 6.4 15.7 2.7 2.6 4 3 10.2 3.3 8.9.5 13.5-1.4 17.2-7.2 2.4-3.7 2.7-5 2.6-13.1 0-7.9-.4-9.5-2.8-13.7-1.8-3.1-3.7-5-5.8-5.7-4.2-1.5-12.6-1.3-16.3.3zm14 8.1c2.4 2.3 3.1 5.6 2.7 12.5-.4 7.1-1.2 8.7-5.6 11-4.2 2.3-4.4 2.3-8 .6-6.7-3.2-8.5-11.5-4.3-19.5 3.9-7.2 10.6-9.3 15.2-4.6zm18.5-8.1c-1.2 1.5-.7 6.3 1.9 17.6.5 2.5 1.5 7.8 2.1 11.8 1.3 8 2.8 10.2 6.9 10.2 3.4 0 5.9-2.6 7.2-7.6.6-2.2 1.7-5.3 2.4-6.9.7-1.7 1.5-3.8 1.9-4.8.8-2.6 2.3-2.1 2.9 1 2.1 10.3 3.4 16 4.1 17.1.4.6 2.3 1.2 4.1 1.2 2.9 0 3.8-.6 5.8-3.8 1.3-2 3.1-6.6 4.1-10.2 1-3.6 2.2-7 2.6-7.5.4-.6 1.3-3 2-5.5.6-2.5 1.9-6 2.7-7.8 1.9-4 .5-6.2-3.8-6.2-3.6 0-5.4 3.3-8.4 15-2.9 11.5-4.8 11.9-6.3 1.3-1.9-14-2.8-16.3-6.7-16.3-2.2 0-5.5 2.8-5.5 4.6.1 1.6-6.4 21.4-7 21.4-1.2 0-2.9-6-4-14-.6-4.6-1.6-9.3-2.1-10.2-1.2-2.2-5.2-2.4-6.9-.4z" stroke-width="3" fill="#7F3333" stroke="#7F3333"/></svg>