<svg version="1.0" xmlns="http://www.w3.org/2000/svg" viewBox="0 0 784 1259"><g fill="#FFF" stroke="#FFF" stroke-width="3"><path d="M0 629.5V1259h784V0H0v629.5zm214.5-482.3c.6 2.7.3 3.5-1.8 5.2-7.8 6.3-17.7 29.9-24.6 58.9-2.7 11.4-11.1 23.1-18.9 26.4-2.2.9-6.2 1.3-11.1 1.2l-7.6-.2-2.8 7.9c-7.9 22.6-11.2 48.5-8.8 68.1.6 5.1 1.4 9.9 1.7 10.7.5 1.3 7.8 1.5 54.2 1.8 53.3.4 53.7.4 59.1 2.7 9 3.7 16 11.3 19.6 21 .8 2 3 7.4 5 12.1 2 4.7 5.2 12.5 7.1 17.5 1.9 4.9 3.9 9.9 4.5 10.9.6 1.1 1.9 4.2 2.9 7s3.5 8.9 5.5 13.6c2 4.7 5.2 12.5 7.1 17.5 2 4.9 4.4 10.8 5.5 13.1 1 2.2 1.9 4.4 1.9 4.8 0 .4.7 2.2 1.5 3.9 2.2 5 11.5 27.7 13.2 32.7.9 2.5 2.2 5.4 2.9 6.5.6 1.1 1.5 3.1 1.9 4.5.4 1.4 1.3 3.8 2.1 5.5 2.5 5.5 11.6 27.9 13.1 32.5.9 2.5 2.2 5.4 2.9 6.5.6 1.1 1.5 3.1 1.9 4.5.4 1.4 1.5 4.3 2.5 6.5s3.4 8.3 5.5 13.5c2 5.2 4.2 10.6 4.9 12 .8 1.4 1.9 4.3 2.6 6.5.7 2.2 1.9 4.9 2.5 6 .7 1.1 1.6 3.1 2 4.5.4 1.4 1.5 4.3 2.5 6.5s3.6 8.5 5.8 14c6.4 15.9 7.2 17.5 8.2 17.5.7 0 1-32.1 1-91.8v-91.8l-6.3-7.9c-10.5-13.4-19.7-27.5-25.2-38.6-2-4.1-4.2-8.5-5-9.9-3.8-7.2-10.1-26.3-12.1-36.5-1.7-8.5-1.8-37.2-.3-50 2.6-21.7 13.1-52.6 22.5-66.5 1.3-1.9 2.4-3.7 2.4-4 0-.4-3-2.2-6.6-4.1-13.2-6.8-21.4-18.1-21.4-29.5 0-11.3 8.4-23.5 20.5-29.6 5.1-2.6 7.2-3.1 14-3.2 6.4-.1 8.8.3 12 2.1 6.2 3.4 15.1 12.7 18.8 19.8 2 3.8 2.1 2.3.2-3-.8-2.2-1.4-7.6-1.5-12 0-6.8.4-8.8 2.6-13 3.2-6 5.3-7.9 12.2-11.1 7.2-3.3 15.5-3.3 22.1.1 11.3 5.7 16.4 18.1 13.7 33.2l-.7 4.1 12.3.5c40.3 1.3 71 16.2 93.3 45.1l5 6.5 5.1-.6c14-1.5 27.3 8.2 31 22.9 2.3 8.8.6 20.1-3.8 25.7-1.8 2.4-1.8 2.5 0 3.5 2 1.2 4.1 2.8 8 6.6 2.7 2.5 2.8 2.5 21.9 2.5h19.1l.6-3.5c1.4-9.2 1.8-42.3.7-52.9-.7-6.2-1.1-11.4-.9-11.6.5-.5 10.1 4.3 16.8 8.2 2.5 1.5 8.3 6.6 13 11.3 17.5 17.4 25.8 34.2 32.1 65 .5 2.5 1.2 13 1.5 23.5.5 15.2 1 20.5 2.7 26.5 1.9 6.6 2.2 9.9 2.2 27-.1 18.6-.2 19.9-2.8 27.3-3.2 9.3-5.7 14.3-10.7 21.7-3.6 5.3-12 13.8-16.8 17.1l-2.2 1.6 3 6.1c3.6 7.2 3.9 12.6.9 17.6-4.1 7-17.8 10.5-24.3 6.2-2.8-1.8-7.6-11-7.6-14.4 0-1.8-.3-1.8-6.7-.1-3.8 1-8.2 1.8-9.9 1.8-2.2.1-4.7 1.5-8.7 4.8-9.1 7.7-11.2 9.1-19.9 13.8-16.5 8.8-29.5 11.8-50.5 11.8l-14.3.1v195.3c0 190-.1 195.5-1.9 200.8-2.6 7.4-5.2 10.8-10.9 14.2l-4.7 2.8h-147l-5-2.9c-7.9-4.7-13.8-11.9-16.5-20.2-.7-2.1-1.9-4.8-2.5-5.9-.7-1.1-1.6-3.1-2-4.5-.4-1.4-1.3-3.9-2.1-5.5-2.5-5.5-11.6-27.9-13.1-32.5-.9-2.5-2.2-5.4-2.9-6.5-.6-1.1-1.5-3.1-1.9-4.5-.4-1.4-1.5-4.3-2.5-6.5s-3.4-8.3-5.5-13.5c-2-5.2-4.2-10.6-4.9-12-.8-1.4-1.9-4.3-2.6-6.5-.7-2.2-1.9-4.9-2.5-6-.7-1.1-1.6-3.1-2-4.5-.4-1.4-1.5-4.3-2.5-6.5-1.8-4-8.4-20.3-12.2-30-1-2.8-2.8-6.9-3.9-9.2-1-2.4-1.9-4.6-1.9-4.9 0-.3-.7-2-1.4-3.7-1.7-3.6-9.8-23.4-12.8-31.2-1-2.8-2.8-6.9-3.9-9.2-1-2.4-1.9-4.6-1.9-4.9 0-.3-.7-2-1.4-3.7-1.7-3.6-9.8-23.4-12.8-31.2-1-2.8-2.7-6.8-3.7-9s-2.2-5.1-2.6-6.5c-.4-1.4-1.1-3-1.5-3.5-.3-.6-1.5-3.3-2.5-6-3.2-8.8-5.6-13-6.6-11.4-.5.8-.9 61.9-.9 142 0 104.7-.3 141.5-1.2 144-2.7 7.7-8.8 13.7-16.5 15.9-2.6.8-20.9 1-59.3.8l-55.5-.3-4.5-2.3c-5.5-2.9-8.4-6.1-11.6-13l-2.4-5.3.3-284.2c.2-256.9.4-285.3 1.9-295.2 1.9-13.1 7.2-35 9.3-39.1.8-1.6 1.5-3.5 1.5-4.3 0-.8.9-3.3 1.9-5.5 1.1-2.3 3.1-6.6 4.5-9.6 2.4-5.3 7-12.8 11.7-19.3 1.3-1.8 5.7-6.7 10-10.9l7.6-7.7-1.5-6.2c-4.5-18.1 7.3-37.5 33.3-54.9 5-3.3 22.9-12.8 28.2-14.9 1.5-.6 5.5-2.2 8.8-3.5 7.9-3.1 8.2-3.1 9 .6zM588.9 215c4.4 2.2 8.4 7.9 7.9 11.2-.5 3.4-5.5 3.8-6.7.6-2.1-5.5-6.4-7.2-12.9-5.1-5.9 1.9-8.5 1.3-8-1.9.4-2.8 7.7-6.7 12.6-6.8 1.8 0 5 .9 7.1 2zm-200.7 877.1c.6.9.7 15.3.4 37.4-.6 34.9-.7 36.1-2.7 37.7-1.3 1.1-3.8 1.8-6.6 1.8-5 0-6.6-1.3-20.8-17.5-3.8-4.4-9.3-10.4-12.1-13.5-2.7-3-7.7-8.6-10.9-12.3-5-5.8-6-6.6-6.6-5-.4 1-.8 11.6-.8 23.6-.1 21.8-.1 21.8-2.6 24.2-2.9 3-8.9 3.4-11.7.8-1.6-1.4-1.8-3.4-1.8-17.8 0-8.9.3-25.1.7-35.9.7-23.5.9-24 9.4-23.9 4.7.1 5.6.4 8.4 3.5 3.7 4.1 13.2 14.9 25.5 28.8 5.1 5.8 10.7 12.1 12.4 14l3.1 3.5.6-7c.4-3.9.7-13.9.8-22.3.1-15.4 1.1-20.1 4.3-21.6 2.2-1 10 .1 11 1.5zm-205.8 12.2 2.3 2.3-.5 28.9c-.3 16-.8 30-1.3 31.3-1.3 3.5-5.5 5-8.9 3-2.3-1.3-3.1-1.4-6-.2-4.8 2-10 1.7-15.6-1-8.6-4.2-12.4-10.3-12.4-19.9 0-9.7 3.4-16.1 10.9-20.5 4.6-2.7 13.1-3.6 17.7-1.9 1.9.7 2.2.3 2.8-3 .3-2.1.6-6.7.6-10.2 0-5.3.4-6.9 2.2-8.8 2.7-2.9 5.3-2.9 8.2 0zm312 .2c2.7 2.5 2.7 2.8 2.4 12.5-.2 5.5-.1 10 .2 10 .3 0 2.5-.5 4.9-1.1 9.2-2.1 18.2 1.9 21 9.4.6 1.6 1.1 9.2 1.1 17 0 16.5-.8 18.7-6.5 18.7-5.6 0-6.5-2.4-6.5-17 0-15.3-.6-16.6-7.1-15.7-6.6.9-7.5 2.7-8.1 15.6-.6 12.2-1.9 15.6-6.4 16.7-2 .5-3.2.1-5.1-1.9l-2.6-2.5.9-30.2c.9-30 .9-30.2 3.3-32.1 3.1-2.5 5.3-2.4 8.5.6zm89.4 20.1c2.3.9 5 1.3 7 .9 8.6-1.6 18.2 2.8 18.2 8.4 0 3.4-2.6 7.1-5 7.1-1 0-3.2-.8-4.8-1.7-2.5-1.5-3.5-1.5-7.1-.4-5.4 1.6-6.1 3.5-6.1 17.1 0 10.5-.1 10.9-2.6 12.9-3.2 2.5-5.2 2.6-8.2.5-2.1-1.4-2.2-2.2-2.1-13.2.1-6.4.4-16 .8-21.2.6-8.8.8-9.5 3.1-10.7 3.1-1.6 2.4-1.6 6.8.3zm39.1.8c.9.7 4.7 1 10 .8 15.7-.5 19 4 19.1 25.9 0 12.3-.2 13.9-2.1 16.3-2.3 2.9-5.5 3.3-8.5 1.2-1.7-1.3-1.9-2.7-1.9-14.9 0-14.9-.6-16.7-5.8-16.7-1.7 0-4.6 1-6.4 2.2l-3.3 2.3v10.5c0 12.9-.5 14.7-4.1 16.6-2.6 1.3-3.2 1.3-5.3-.1-1.3-.9-2.7-2.2-3-3-.3-.8-.2-10 .1-20.5.6-18.9.6-19.1 3.1-21.1 2.6-2 5.2-1.8 8.1.5zm-395.9 2.2c1.2 1.2 1.5 4.5 1.5 16.7 0 12.8.3 15.7 1.9 18.5 1.7 3 1.7 3.5.2 5.7-2 3-7.9 3.5-9.4.8-.9-1.5-1.3-1.5-5.4 0-5.8 2.2-11.6 2.1-17.2-.2-5.3-2.3-7.2-5-9.2-12.7-1.4-5-1.4-6.3 0-11.7 2.6-10.3 8.4-16.3 18.1-18.8 4.5-1.1 17.7.1 19.5 1.7zm38.4-1.5c1.3.6 3.2 2.6 4.2 4.4 1.7 3.2 1.7 3.4 0 6-1.9 2.9-2.8 2.9-11.1.4-3.4-1-4.6-1-6.9.2-4.1 2-3.6 3.3 1.6 4 13 1.9 20.3 11.5 16 21.2-2.7 6-8.4 8.7-18.4 8.7-8.4 0-13.8-2-16.2-6.1-1.5-2.6-1.5-3.1-.1-5.9 1.2-2.4 2.2-3 4.8-3 1.7.1 4.3.7 5.7 1.5 3.6 2 10.9 2 11.7-.1.9-2.4-1.8-4-8-4.8-6.3-.9-11.5-3.9-12.3-7.2-.4-1.4-.4-4.6-.1-7 .5-5.1 4.1-9.7 9.2-12 3.7-1.6 16.5-1.8 19.9-.3zm167.6 1.5c1.2 1.2 1.4 4.1 1.2 15.8-.3 11.7-.1 14.9 1.2 17.4 1.9 3.7 2.1 7.3.4 9-1.7 1.7-6.8 1.5-8.9-.4-1.5-1.4-2-1.4-5.4 0-8.1 3.4-19.1.8-23.8-5.6-2.6-3.5-3.6-16.7-1.7-22.4 2.5-7.4 8.3-12.9 16.3-15.3 4.4-1.4 18.8-.3 20.7 1.5zm39.9-.1c3.9 3.3 4.7 6 2.7 9-1.9 2.9-3.5 3.1-9.3.9-3.7-1.4-5-1.5-8.4-.5-5.2 1.6-4.6 3.4 1.4 4.3 17.5 2.5 23.1 20.4 8.7 27.8-8 4.1-25.3 1.8-27.4-3.5-1-2.7-.7-7 .6-8.3 1.6-1.6 6.7-1.5 9.8.3 3.5 2 10.9 2 11.7-.1.9-2.4-.9-3.5-8.8-5-9.6-1.8-12.3-4.3-12.2-11.3.1-7.4 4.6-13.8 10.8-15.4 1.1-.2 5.5-.5 9.7-.6 6.8-.1 8 .2 10.7 2.4zm83.3-1.5c7.9 2.2 12.5 12.2 11.6 25-.7 9.6-3.7 14.6-10.6 17.7-15.5 6.9-29.3-2.1-29.5-19.2-.2-17 12.9-27.8 28.5-23.5z"/><path d="M653.1 265.7c-.1 12.3-.7 24.9-1.5 30.8-1.9 13.1-5.6 33.6-6.2 34.7-.3.5-1.6 5.3-2.9 10.6-1.3 5.3-3.3 13-4.4 17.1-4.3 15.3 1.4 23.1 20.7 28.5 12.2 3.5 21.5 3.5 28.1.1 5.6-2.8 8.1-5.8 11.2-13.6 1.9-4.9 2.1-7.2 2.2-26.4 0-20.9-.5-25.6-4.2-41-5.1-21.3-16.6-41.1-30.9-53.2-5.4-4.6-10.6-8.3-11.6-8.3-.3 0-.5 9.3-.5 20.7zm-120.4-17.6c-16.8 4-22.4 28.8-9.7 43.2 3.9 4.4 12.7 8.7 17.8 8.7 3.5 0 12.5-4.5 15.6-7.8 2.8-3 3-3.1 5.8-1.6 10.3 5.3 23.3 1.1 27.9-9.1 2.2-4.9 2.5-16.1.5-20.9-1.9-4.6-7.5-10.7-11.3-12.2-6.7-2.8-20.1-.9-21.6 3.1-.9 2.1-3.2 1.9-8-.9-4.9-2.8-11.6-3.8-17-2.5zm49.7 18c3.5 4.1 4.1 7.1 2.2 10.6-2 4-3.8 5.3-7.9 6-2.8.4-4 0-7-2.7-3.1-2.7-3.7-3.9-3.7-7.2 0-8.8 10.9-13.3 16.4-6.7zm-33.3 1.8c2.1 2.2 2.9 3.9 2.9 6.6 0 5.2-4.4 9.5-9.7 9.5-4.2 0-6.1-1.1-8.7-5-6.2-9.3 7.5-19.1 15.5-11.1zm-7 202c-4.2 6.9-4 9.4.6 12.6 4.5 3 10.2 3.3 12.5.7 2.6-2.9 4.8-7.9 4.8-10.9 0-2.8-1.7-3.7-13.1-7-1.1-.3-2.6 1.1-4.8 4.6zm127.4-2c-7.3 3-10.5 5.1-10.5 7 0 2.6 2.6 8.5 4.5 10.1 2.3 1.9 10.1.7 13.1-2.1 2.9-2.7 3-5.8.4-10.7-3.2-6.2-3.1-6.1-7.5-4.3zm-510.2 669.2c-5.6 1.6-8.5 8.7-6.4 15.2 2.1 6.3 8.5 8.6 14.9 5.3 3.2-1.7 3.2-1.7 3.2-9.6 0-7.2-.2-8.1-2.2-9.4-3.4-2.1-5.9-2.5-9.5-1.5zm48.6.4c-4.5 2.4-6.3 6.3-6.4 13.3 0 5.6.3 6.6 2.5 8.4 1.8 1.5 3.2 1.8 6 1.3 5.7-1.1 6-1.7 6-13.6V1136h-2.7c-1.6.1-4 .7-5.4 1.5zm206.1-.2c-1.3.7-3.5 2.8-4.8 4.7-2 3-2.3 4.4-2 9.7.2 3.5 1 6.9 1.6 7.5 1.7 1.7 9.6 1.5 11.7-.2 1.2-1 1.5-3.6 1.5-12.1V1136h-2.7c-1.6 0-3.9.6-5.3 1.3zm131.2.3c-1.8.8-6.2 9.8-6.2 12.7 0 1.3 1 3.9 2.3 5.8 1.8 2.6 3.1 3.5 5.8 3.7 3 .3 4.1-.2 6.3-2.8 2.1-2.6 2.6-4.1 2.6-8.8 0-7.8-1.6-10.6-6-10.9-1.9-.1-4.1.1-4.8.3z"/></g><path d="M167.3 327.7c14.2.2 37.2.2 51 0 13.9-.1 2.3-.2-25.8-.2-28 0-39.4.1-25.2.2z" fill="#E5E5E5" stroke="#E5E5E5" stroke-width="3"/><path d="M390.5 553.5c0 41.8.1 58.8.2 37.7.2-21.1.2-55.3 0-76-.1-20.7-.2-3.5-.2 38.3z" fill="#CCC" stroke="#CCC" stroke-width="3"/><path d="M391.4 460c0 6.9.1 9.7.3 6.2.2-3.4.2-9 0-12.5-.2-3.4-.3-.6-.3 6.3zM233.5 758.5c0 75.9.1 107.1.2 69.3.2-37.7.2-99.8 0-138-.1-38.1-.2-7.2-.2 68.7z" stroke-width="3" fill="#4C667F" stroke="#4C667F"/><path d="M454.8 193.7c2.9.2 7.4.2 10 0 2.6-.2.2-.3-5.3-.3s-7.6.1-4.7.3zM93.5 627c0 149.9.1 211.2.2 136.2.2-74.9.2-197.5 0-272.5-.1-74.9-.2-13.6-.2 136.3zm516.8-151.3c2.6.2 6.7.2 9 0s.2-.3-4.8-.3c-4.9 0-6.8.1-4.2.3zm-488 442c5.4.2 13.9.2 19 0 5.1-.1.7-.3-9.8-.3-10.4 0-14.6.2-9.2.3zm.4 4c5.1.2 13.5.2 18.6 0 5-.1.9-.3-9.3-.3-10.2 0-14.3.2-9.3.3z" stroke-width="3" fill="#334C66" stroke="#334C66"/><path d="M186.9 163.4c-10.7 5.5-13.5 7.2-22.9 14.3-9.9 7.4-18.9 18.5-20.9 25.9-1.4 5-1.4 13.5 0 17.1 2.4 6.4 9.3 11.3 15.9 11.3 10.9 0 18.9-9.3 23-26.5 2.6-11.1 5.9-22.4 7.5-26 .7-1.7 1.6-4.1 2-5.5.4-1.4 2.1-5.4 3.7-8.9 1.6-3.4 2.8-6.5 2.5-6.7-.2-.2-5 2-10.8 5zM391.5 565c0 34.9.1 49.2.2 31.7.2-17.4.2-46 0-63.5-.1-17.4-.2-3.1-.2 31.8zm-153 195c0 76.2.1 107.3.2 69.2.2-38 .2-100.4 0-138.5-.1-38-.2-6.9-.2 69.3zm-71.4 140.4c-4.1 3.1-7.9 8.6-8.7 12.6l-.6 3h16.6c9.1 0 16.6-.3 16.6-.6 0-.4-1.2-3.3-2.6-6.5-4.6-10.3-13.9-14-21.3-8.5zm39.4-.5c-3.2 2.2-7.5 10.1-7.5 13.9v2.4l9.8-.4c8.4-.3 10.3-.8 13.9-3.1 4-2.5 4.1-2.8 3.2-5.9-1.4-5.1-5.4-8.1-11.3-8.5-3.9-.3-5.8.1-8.1 1.6zm180.1.2c-3.8 3-7.8 9.6-7.4 12.2.4 2.9 3.3 3.4 19.1 3.6l12.7.1-.6-2.7c-1.2-4.4-5.4-10.8-8.8-13.1-4.3-3-11.3-3-15-.1zm39.5.5c-1.8 1.5-3.6 4.4-4.5 7.2-.8 2.6-1.7 5.5-2.1 6.4-.7 1.7.4 1.8 14.9 1.8 13.1 0 15.6-.2 15.6-1.5 0-3.1-5.4-12.2-8.4-14.3-4.6-3.2-11.5-3-15.5.4zm39.2-.8c-3 2.6-5.8 7.9-6.7 12.4l-.7 3.8h16.6c9.1 0 16.5-.2 16.5-.5 0-1.7-6.5-11.6-9.2-14-4.2-3.8-13-4.7-16.5-1.7zm37.6 2.2c-3.8 4-5.7 9.4-4.5 12.6.9 2.4 21.9 1.6 25.7-.9 2.5-1.7 2.6-2.1 1.6-5.3-.6-1.9-2.8-5.1-4.9-6.9-3.3-3-4.5-3.5-9-3.5-4.7 0-5.4.3-8.9 4z" stroke-width="3" fill="#667F7F" stroke="#667F7F"/><path d="M166.8 328.7c13.8.2 36.6.2 50.5 0 13.8-.1 2.5-.2-25.3-.2s-39.1.1-25.2.2z" fill="#9999B2" stroke="#9999B2" stroke-width="3"/><path d="M536.5 702.5c0 107.8.1 151.8.2 97.7.2-54.1.2-142.3 0-196-.1-53.7-.2-9.5-.2 98.3zM456.4 916c.1 1.3 2.8 1.5 18 1.5 13.7 0 18-.3 18.2-1.3.1-.7 0-.8-.3-.2-.7 1.6-35 1.4-35.6-.3-.2-.7-.3-.6-.3.3zm-265 0c-.5.5-8.8 1.1-18.4 1.3l-17.5.3 18.1.2c15.4.2 18.3 0 18.8-1.3.6-1.7.4-1.9-1-.5zm220.6-.2c0 .9-4.1 1.3-13.7 1.4l-13.8.2 13.4.3c12.5.3 16.8-.4 14.8-2.4-.4-.3-.7-.1-.7.5zm-214.1 1.5c.4.4 4.6.7 9.2.5l8.4-.3-9.2-.5c-5.1-.3-8.9-.1-8.4.3zm221 0c.4.4 7.7.6 16.2.5l15.4-.3-16.2-.5c-8.9-.3-15.9-.2-15.4.3zm79 0c.4.4 5.2.6 10.7.5l9.9-.3-10.7-.5c-5.9-.3-10.4-.1-9.9.3z" stroke-width="3" fill="#334C4C" stroke="#334C4C"/><g fill="#194C4C" stroke="#194C4C" stroke-width="3"><path d="M207 148.1c-2.5 1-5.8 2.4-7.4 3.1-5.8 2.2-25.2 12.5-30.6 16.1-9.6 6.5-10.4 7.1-17 13.8-13.5 13.7-18 25.8-14.7 39.2l1.6 6.6-7.7 7.8c-9 9-11.5 12-13.7 16.2-.8 1.7-1.9 3.1-2.3 3.1-.4 0-1.5 2-2.5 4.5-1.1 2.5-2.2 4.5-2.6 4.5-.4 0-1.6 2.5-2.6 5.5-1.1 3-2.2 5.5-2.6 5.5-.3 0-1.4 2.8-2.4 6.2-.9 3.5-2.1 6.7-2.5 7.3-.4.5-1.6 4.8-2.5 9.5-1 4.7-2.2 9.2-2.6 10-.9 1.9-2.7 14.3-4.1 29.8-1.5 15.7-2.3 560.1-.8 561.6.5.5 1 2 1 3.3 0 3.7 2.6 9 6 12.3 1.7 1.6 3.5 3 4 3s1.6.8 2.6 1.7c1.5 1.6 4.9 1.9 28.3 2.5 40.2.9 76.8.9 84.3-.2 12.3-1.8 19.4-9.3 20.9-22.2.4-4 .8-68.8.9-143.9 0-142-.1-139.4 3.8-137 1.5.9 6.1 10.3 6.8 14 .4 1.7 1 3.1 1.3 3.1.4 0 1.5 2.6 2.6 5.7 1.1 3.2 2.2 6 2.6 6.3.3.3 1.4 3 2.4 6s2.4 6.4 3 7.5c.7 1.1 1.8 3.8 2.5 6s1.6 4.4 2 5c.4.5 1.5 3.2 2.5 6 1 2.7 2.2 5.4 2.5 6 .4.5 1.6 3.5 2.6 6.5s2.2 5.7 2.5 6c.3.3 1.4 3 2.4 6s2.4 6.4 3.1 7.5c.8 1.1 1.4 2.5 1.4 3.2 0 .7 1.4 4.2 3 7.8 1.7 3.6 3 7.1 3 7.8 0 .7.6 2.1 1.4 3.2.7 1.1 2.2 4.6 3.2 7.7 1 3.2 2.1 5.8 2.4 5.8.4 0 1.5 2.7 2.5 6s2.1 6 2.5 6c.4 0 1.5 2.8 2.6 6.2 1 3.5 2.4 6.9 3.1 7.6.7.7 1.3 2 1.3 2.7 0 .8 1.1 3.8 2.4 6.7 1.3 2.9 2.9 7.1 3.6 9.3.7 2.2 1.9 4.9 2.5 6 .7 1.1 1.8 3.8 2.5 6s1.6 4.2 1.9 4.5c.3.3 1.5 3 2.5 6 1.1 3 2.5 6.4 3.1 7.5.7 1.1 1.9 4.1 2.6 6.7.7 2.7 1.6 4.8 2 4.8.3 0 1.4 2.7 2.4 6s2.1 6 2.5 6c.4 0 1.3 1.9 1.9 4.2.7 2.4 2.4 6.6 3.7 9.4 1.3 2.8 2.4 5.6 2.4 6.2 0 .6 1.1 3.3 2.5 6 1.4 2.8 2.8 6.4 3.1 8.1.4 1.7 1 3.1 1.4 3.1.4 0 1.5 2.7 2.5 6s2.1 6 2.5 6c.4 0 1.3 1.9 2 4.3 2.9 9.8 9.4 17.8 18.2 22.4l5.3 2.8 63.9.3c69.3.3 77.9-.1 84.4-4.2 4.5-2.8 7.7-6.9 8.7-10.9.4-1.5 1.1-3 1.6-3.3.5-.3.9-83.9.9-198.3V507.4h15.8c14.5 0 27.2-1.4 29.7-3.3.6-.5 4-1.6 7.8-2.6 3.7-1 6.7-2.1 6.7-2.6 0-.4 1.4-1.2 3.2-1.8 5.2-1.8 12.5-6.6 21.2-14.1 3.8-3.2 7.1-5.2 9.5-5.5 6.9-1.1 13.6-2.8 15.2-3.8 2.8-1.7 4.4-.2 5.8 5.4 1.7 6.9 3.3 9.5 7.3 11.5 6.7 3.5 17.8-.9 21.1-8.4 1.6-3.7 1.6-4-.8-10.2-1.4-3.5-3.2-7.2-4.2-8.2-1-1.1-1.3-2.2-.7-2.6.5-.5 3.4-2.8 6.4-5.3 3-2.4 6.7-5.8 8.2-7.5 6.6-7.4 13.8-20.4 15.3-27.4.4-1.9 1.1-4 1.6-4.5.4-.6 1.3-5.9 1.9-11.7 1.1-10.9 0-29.9-1.8-33.6-1.9-3.6-3.1-15.3-3.6-33.8-.2-10.6-.9-20-1.5-21-.5-1.1-1.7-5.6-2.6-10.1-.8-4.4-2.2-9.4-3-11-.8-1.5-1.5-3.4-1.5-4.1 0-1.4-7-16.3-8.1-17.2-.3-.3-1.2-1.6-1.9-3-2.1-3.9-9.4-13.1-14.1-17.7-5.6-5.4-12.8-11.3-13.9-11.3-.5 0-1.5-.6-2.2-1.3-1.7-1.6-9.7-5.2-10.3-4.6-.2.3 0 4.8.6 10 1.1 9.3.5 40.9-.9 51.2l-.7 4.9-20 .2-20 .2-4-3.3c-2.2-1.9-4.7-4-5.5-4.7-.8-.7-2.3-1.6-3.2-1.9-2.4-.8-2.3-2.8.2-5.5 1.1-1.2 2.7-5 3.6-8.4 2.9-11.4.2-21.8-7.9-29.8-6.3-6.4-9-7.4-18.9-7.5h-8.7l-2.8-3.9c-3.2-4.5-21.7-23.1-25.9-26.2-1.6-1.1-4.5-2.9-6.4-4-1.9-1-3.7-2.2-4-2.6-.3-.3-2.5-1.4-5-2.4s-4.7-2.1-5-2.5c-.3-.4-3.4-1.5-7-2.4-3.6-1-7-2.2-7.6-2.7-.6-.4-6.3-1.5-12.5-2.4-6.3-.8-14.4-2-18.1-2.6-3.6-.6-9.2-.8-12.3-.4-5.2.6-5.7.5-5.1-1.1 4.5-11.6 2.1-24.7-5.8-32.1-1.7-1.7-5.9-4-9.3-5.2-6.7-2.3-6.7-2.3-17.4 1.6-8.5 3-13 10.9-13 22.7 0 4.4.4 8.4.9 9 1 1.5 3.2 8.8 3.2 11.1 0 2.6-2.4 1.8-4.6-1.7-1.1-1.7-3.2-5.1-4.7-7.4-6.3-10-17.2-17.3-25.6-17.3-11.9 0-26.9 10.3-30.7 21-.9 2.5-2 5.3-2.5 6.2-1.1 2.2-1.2 7.1-.1 8.4.5.5 1.4 2.8 2.1 5.1 1.4 5.1 10.4 14.6 16.6 17.5 8.1 3.9 9.5 4.9 9.5 6.9 0 1-.8 2.7-1.8 3.7s-2.7 4-3.8 6.5c-1 2.6-2.2 4.7-2.6 4.7-.5 0-.8.5-.8 1 0 .6-1.3 3.9-2.8 7.3-1.6 3.4-3.5 8.2-4.2 10.7-.8 2.5-1.7 4.9-2.1 5.5-.4.5-1.4 4.6-2.4 9-.9 4.4-2.1 8.9-2.6 10-4 8.9-4 63.3.1 69 .3.5 1.5 4.1 2.5 8 1 3.8 2.1 7.2 2.4 7.5.3.3 1.2 2.3 2 4.5.7 2.2 2.6 6.8 4.2 10.2 1.6 3.4 2.9 6.7 2.9 7.3 0 .5.4 1 .9 1s1.2.9 1.6 2c.6 2 6.7 12.7 8.4 14.6.5.6 1.6 2.5 2.5 4.3 1 1.8 2.5 4 3.4 5.1.9 1 3.3 4 5.2 6.7 1.9 2.6 3.7 5 4 5.3.3.3 2 2.4 3.8 4.7l3.2 4.1-.2 92.9-.3 92.8-2.2.3c-1.9.3-2.7-.7-5.3-6.1-1.6-3.5-3.3-7.8-3.6-9.5-.4-1.8-1-3.2-1.4-3.2-.4 0-1.1-1.1-1.4-2.5-.4-1.4-1.7-4.9-3-7.8-1.3-2.8-2.9-7-3.6-9.2-.7-2.2-1.9-4.9-2.5-6-.7-1.1-1.8-3.8-2.5-6s-1.6-4.5-2-5c-.4-.6-1.5-3.3-2.5-6-1-2.8-2.2-5.5-2.5-6-.4-.6-1.6-3.5-2.6-6.5s-2.2-5.7-2.5-6c-.3-.3-1.4-3-2.4-6s-2.1-5.7-2.5-6c-.4-.3-1.5-2.8-2.4-5.6-.9-2.8-2.5-6.8-3.6-9-1.1-2.1-2-4.5-2-5.4 0-.9-.6-2.4-1.4-3.5-.7-1.1-2.1-4.5-3.1-7.5s-2.1-5.7-2.5-6c-.4-.3-1.5-3-2.5-6s-2.1-5.7-2.5-6c-.4-.3-1.5-3-2.5-6s-2.4-6.4-3.1-7.5c-.8-1.1-1.4-2.5-1.4-3.2 0-.7-1.1-3.6-2.4-6.5-1.3-2.9-2.7-6.4-3.1-7.8-.4-1.4-1.3-3.4-2-4.5-.6-1.1-2-4.5-3-7.5s-2.1-5.7-2.4-6c-.3-.3-1.5-3-2.5-6-1.1-3-2.5-6.4-3.3-7.5-.7-1.1-1.3-2.5-1.3-3.2 0-.7-1.1-3.7-2.5-6.7s-2.5-5.8-2.5-6.2c0-.4-.9-2.6-1.9-4.8-2.9-6.1-7.1-16.5-8.7-21.5-.8-2.4-1.8-4.9-2.3-5.5-.4-.6-1.6-3.4-2.6-6.1-1-2.8-2.2-5.5-2.5-6-.4-.6-1.3-2.8-2-5s-1.8-4.9-2.5-6c-.6-1.1-1.8-3.7-2.5-5.9-3.1-9.4-10.8-17.8-19.3-20.9-6-2.1-7.5-2.2-59.7-2.7l-53.5-.5-1.4-5c-1.9-7.1-1.8-39.6.2-49.5 2.2-11.2 5.6-24.2 6.7-25.4.4-.6 1.4-3.2 2-5.8 1.6-6.2 2.6-6.9 7.9-5.7 3 .7 6.1.6 9.7-.1 10.1-2.1 19.5-14.7 22.8-30.6.8-3.9 2-8.2 2.5-9.5.6-1.3 1.7-5.2 2.6-8.5.8-3.4 2.2-7.4 3-9 .8-1.6 1.5-3.4 1.5-4.1 0-1.7 5.6-13.3 8.7-18 1.5-2.3 3.8-4.7 5.1-5.4 1.3-.7 2.2-2.2 2.2-3.6 0-2.7-.2-2.7-6-.2zm229.8 7.3c3.2 1.7 5.6 3.9 7.7 7.3 2.7 4.4 3 5.6 3 13.5 0 11.1-1.7 14-9.1 15-14.4 1.9-21.5 3.2-22 4-.3.4-1.4.8-2.4.8-1.4 0-2.2-1.1-3-4.3-.6-2.3-1.6-5.3-2.3-6.6-.6-1.3-1.2-6-1.2-10.5 0-7.2.3-8.6 2.8-12.4 2-3.1 4.3-5.1 8-6.8 6.7-3.1 12.4-3.1 18.5 0zm-234.8 1c0 .7-.7 1.9-1.5 2.6-.8.7-1.5 1.6-1.5 2.1s-1.1 3.2-2.5 6.1c-3.2 7-7 17.8-9 25.8-.8 3.6-2 7.4-2.5 8.5-.5 1.1-1.4 4.4-1.9 7.3-1.5 7.1-6.2 16.2-10.4 19.9-10.1 8.9-24.3 6.2-30.5-5.8-2-3.8-2.3-5.5-1.9-11.9.6-10.9 3.8-17.2 14.1-27.4 7.5-7.5 15.8-13.5 29.1-20.7 13.3-7.3 18.5-9.2 18.5-6.5zM382.8 175c4.5 2.4 12.7 11.2 15 16 .9 1.9 2.2 4.1 2.9 4.8.7.7 1.6 2.4 1.9 3.8.7 2.9.6 2.9 8.1.5 3.3-1.1 9.5-2.5 13.9-3.1 4.3-.7 9.3-1.7 10.9-2.2 4.9-1.5 31.2-2.1 39-.9 23.2 3.6 33.9 7.2 50.4 16.6 11.9 6.8 34.1 29.8 32.5 33.9-.6 1.7-6.4 2.3-6.4.7 0-1.2-7.9-3.1-12.7-3.1-11.1 0-21.8 7.7-26 18.5-1.5 3.8-1.6 17.8-.2 22.9 3 11 16.8 21.6 28.1 21.6 4 0 12.3-2.8 15.4-5.2 2.6-2.1 4-2.3 13.9-2.3 8.6 0 11.8-.4 14.6-1.8 3.6-1.8 3.7-1.8 7.4.3 2.1 1.2 4.4 2.7 5.2 3.5.8.8 2.1 1.9 3 2.4 2.7 1.5.8 3.5-5.1 5.5-3.1 1.1-5.6 2.2-5.6 2.6 0 .3-1.6 1.4-3.6 2.4-7.7 3.6-18.2 16.2-15.7 18.7.8.8 2-.3 4.3-3.8 5.1-7.5 12.4-12.9 23.6-17.3 5.5-2.2 9.9-3.1 18.6-3.8 11.2-.9 26-.4 27.3 1 .8.8-1.9 18-4 25.3-.8 2.7-2.3 8.4-3.4 12.5-1 4.1-2.6 10-3.5 13-3.1 10.7-1.7 17.3 5 24.2 2.5 2.6 5.5 5 6.7 5.4 1.2.4 2.5 1.1 2.8 1.6.3.5 5.7 2.3 12 3.9 13.7 3.7 21.4 3.5 29.7-.6 6.5-3.1 10.5-7.4 13.3-14.3 1.7-4.2 2.4-5 3.5-4.1 1 .8 1.4 3.5 1.4 8.8 0 18.7-11.9 27.8-33 25.4-8.6-1-11.5-.4-9.2 1.9 1.7 1.7 21.5 2.3 26.9.9 2.8-.8 6.3-3.1 10.4-6.8l6.1-5.7-.7 6c-2.3 19.5-8.8 33.2-21 44.6-8.6 8-16.1 12.9-21.7 14.3-1.6.4-2.8 1.1-2.8 1.5 0 .4-2.6 1.5-5.7 2.5-3.2 1-6.2 2.1-6.8 2.5-1.4 1.1-14.9 4-18.4 4-1.6 0-3.3.4-3.6 1-.8 1.2-26.2 1.4-26.9.1-.3-.4-3.4-1.1-6.8-1.5-6.6-.7-12.9-2.1-16.3-3.5-1.1-.5-4.7-1.6-8-2.6s-6.9-2.4-8-3.1c-1.1-.8-2.6-1.4-3.5-1.4-.9 0-3.3-.9-5.5-2-2.1-1.1-5.4-2.5-7.4-3.1-13-4.1-35.2-22-46.3-37.2-2.1-2.9-4.3-5.8-4.8-6.4-3.3-4-11.8-22.6-12.9-28.3-.7-3.6-1.7-7.4-2.3-8.6-.5-1.1-.8-4.2-.6-7l.3-4.9 4.3.3c3.8.3 4.3.1 4-1.5-.3-1.5-1.4-1.9-6.5-2.1-3.5-.2-7.2.2-8.3.8-2.8 1.5-5.2 6.6-4.8 10.3.4 4.4 2.1 3.7 3.4-1.4 1.3-5.5 3-6 3.7-1.2.8 6.4 4.5 22.4 5.5 23.6.5.7 1.7 3.4 2.7 6.2 1 2.7 2.1 5.2 2.5 5.5.4.3 1.5 2.1 2.5 4 3.5 6.7 14.6 21 21.4 27.3 9.4 8.9 24.1 19.6 26.7 19.7.6 0 2.2.9 3.5 2.1 1.9 1.7 2.1 2.3 1.1 3.7-3.5 5-6.2 11.5-6.2 15.2 0 2.2.4 4 .9 4s1.2.9 1.6 1.9c.3 1.1 1.5 2.3 2.5 2.6 1.1.4 2.7 1.3 3.6 2.2 2.7 2.7 9.7 2.9 13.9.3 3.7-2.3 7.7-8.8 9-14.8.3-1.7.8-3.2 1-3.2 1.8 0 11.2 2.4 12.1 3.1.6.5 5.8 1.6 11.5 2.4 5.7.9 12.3 2 14.7 2.5 2.3.6 7.1 1 10.7 1 3.7 0 6.5.4 6.5 1 0 .5-.4 1-.8 1-.5 0-1.7.8-2.8 1.8-4.6 4.2-17.6 11.4-24.5 13.7-3 1-5.8 2.1-6.4 2.5-6.5 4.6-59.6 4.6-68.5-.1-.8-.4-3.7-1.3-6.4-1.9-2.7-.6-8.1-2.6-12-4.4-7-3.3-19.6-12-19.6-13.6 0-1.5-5.2-4.2-6.2-3.2s12 13.7 15.7 15.3c1.1.5 2.7 1.3 3.5 1.9 3.3 2.2 14.8 6.9 19.5 8 2.8.6 5.7 1.5 6.6 2 .9.4 4.2 1.1 7.5 1.5 3.2.4 6.7.9 7.7 1.2 1.6.4 1.7 10 1.5 198.1-.3 173.5-.5 198-1.8 200.4-.8 1.6-1.8 2.8-2.2 2.8-.3 0-1.7-1.9-3.1-4.3-7.3-12.4-21.3-15.6-29.7-6.7-4.7 5.1-6 6.7-6 8 0 1.7-1.8 1.1-2.5-.9-.8-2.7-8-9-12.4-10.8-7.9-3.3-19.2.7-22.2 7.9-2 4.9-3.6 5.4-5.5 1.6-2.4-5-9.2-9.8-15.2-10.5-8.7-1-15.3 2.7-18.7 10.5-2.2 4.9-3.9 5.3-5.3 1.3-1.2-3.5-6.6-8.8-10.9-10.7-5.7-2.5-14.3-1.5-17.9 2.1-.8.8-2.1 1.8-2.8 2.2-1.6 1-7.6 11.8-7.6 13.8 0 2.2-1.3 1.8-4.1-1.2-4.1-4.6-6.5-8.6-7.9-12.8-.7-2.2-1.6-4.5-2-5-.4-.6-1.5-3.3-2.5-6-1-2.8-2.2-5.5-2.5-6-.4-.6-1.6-3.5-2.6-6.5s-2.2-5.7-2.5-6c-.3-.3-1.4-3-2.4-6s-2.1-5.7-2.5-6c-.4-.3-1.5-2.8-2.4-5.6-.9-2.8-2.5-6.8-3.6-9-1.1-2.1-2-4.4-2-5 0-.7-1.1-3.4-2.4-6.1-1.3-2.6-2.7-6.3-3.1-8-.4-1.8-1-3.3-1.4-3.3-.4 0-1.6-2.7-2.6-6s-2.1-6-2.5-6c-.3 0-1.4-2.6-2.4-5.7-1-3.2-2.4-6.7-3.1-7.8-.7-1.1-1.6-3.1-2-4.5-.4-1.4-1.8-4.9-3.1-7.8-1.3-2.9-2.4-5.8-2.4-6.5 0-.7-.6-2.1-1.4-3.2-.7-1.1-2.1-4.5-3.1-7.5s-2.1-5.7-2.5-6c-.4-.3-1.5-3-2.5-6s-2.4-6.4-3.1-7.5c-.8-1.1-1.4-2.5-1.4-3.2 0-.7-1.1-3.6-2.4-6.5-1.3-2.9-2.7-6.4-3.1-7.8-.4-1.4-1.3-3.4-2-4.5-.6-1.1-2-4.5-3-7.5s-2.4-6.4-3-7.5c-.7-1.1-1.8-3.8-2.5-6s-1.6-4.5-2-5c-.4-.6-1.5-3.3-2.5-6-1-2.8-2.2-5.5-2.5-6-.4-.6-1.3-2.8-2-5s-1.9-5.1-2.6-6.5c-.8-1.4-2.3-4.9-3.4-7.8-4.5-11.7-6.2-15.9-8.1-19.9-1-2.4-1.9-4.9-1.9-5.6 0-.7-.6-2.1-1.4-3.2-.7-1.1-1.9-3.8-2.6-6-1.9-5.7-6.1-13.8-7.9-15.2-2.5-2-5.6-1.5-7.9 1.2L234 619l-.2 141.9c-.2 78.1-.6 142.3-1.1 142.7-.4.4-1.5-.3-2.4-1.7-5.1-7.3-12-10.6-19.9-9.4-5.2.7-11.2 5.3-13.5 10.3-1 2-2 3.7-2.3 3.7-.4 0-1.6-1.7-2.9-3.7-3-5-9-9.5-13.6-10.3-5-.8-11.7 1-15.6 4.2-4 3.4-8.6 10.8-10 16.3l-1.1 4.5-18.5.3c-10.1.1-20.6-.2-23.2-.8-6-1.3-11.2-5.1-14-10.4l-2.2-4.1v-284c0-216.6.3-285.3 1.2-289.5.7-3 1.9-10.5 2.8-16.5.9-6.1 2-11.5 2.4-12 .4-.6 1.3-3.7 2-7s2.2-7.9 3.2-10.2c1-2.3 1.9-4.6 1.9-5.2 0-1 6.1-14 8.3-17.6 6.5-10.9 10.1-15.7 17.6-23.1 6.3-6.3 9.4-7.5 12.2-4.8 1.7 1.8 1.7 2.2.4 4.8-.9 1.6-2.3 5.4-3.2 8.5-.8 3.1-2 6.3-2.5 7.1-.8 1.4-3.7 14.1-5.9 26-1.3 6.9-.7 43.3.8 45.2.6.7 1.3 3 1.7 5l.7 3.8H192c52.9 0 55.1.1 60.1 2 5.3 2.1 11.9 7.5 11.9 9.7 0 .7.4 1.3.9 1.3s1.4 1.5 2.1 3.2c.7 1.8 2.4 5.7 3.7 8.6 1.2 2.9 2.3 5.6 2.3 6 0 .4.6 1.8 1.3 3.2.7 1.4 2.2 5 3.3 8 1 3 2.2 5.7 2.5 6 .3.3 1.4 3 2.4 6s2.4 6.4 3 7.5c.7 1.1 1.6 3.1 2 4.5.4 1.4 1.8 4.9 3.1 7.8 1.3 2.9 2.4 5.8 2.4 6.5 0 .7.6 2.1 1.4 3.2.7 1.1 2.1 4.5 3.1 7.5s2.1 5.7 2.5 6c.4.3 1.5 3 2.5 6s2.4 6.4 3 7.5c.7 1.1 1.8 3.8 2.5 6s1.9 4.9 2.6 6c.8 1.1 1.4 2.5 1.4 3.2 0 .7 1.1 3.6 2.4 6.5 1.3 2.9 2.7 6.4 3.1 7.8.4 1.4 1.3 3.4 2 4.5.6 1.1 1.8 3.8 2.5 6s2.3 6.4 3.6 9.3c1.3 2.9 2.4 5.6 2.4 6 0 .4.8 2.3 1.8 4.2 1.1 1.9 2.5 5.6 3.3 8.2.7 2.7 1.6 4.8 2 4.8.3 0 1.1 1.9 1.8 4.2.7 2.4 1.8 5.2 2.5 6.3.7 1.1 2.1 4.5 3.1 7.5s2.4 6.4 3 7.5c.7 1.1 1.6 3.1 2 4.5.4 1.4 1.8 4.9 3.2 7.9 1.3 3 2.7 6.7 3 8.2.3 1.6.9 2.9 1.3 2.9s1.5 2.7 2.5 6 2.1 6 2.5 6c.3 0 1.4 2.6 2.4 5.7 1 3.2 2.4 6.7 3.1 7.8.7 1.1 1.6 3.1 2 4.5.4 1.4 1.8 4.9 3.1 7.8 1.3 2.9 2.4 5.8 2.4 6.5 0 .7.6 2.1 1.4 3.2.7 1.1 2.2 4.6 3.2 7.7 1 3.2 2.1 5.8 2.5 5.8.4 0 1 1.3 1.4 2.9.8 3.7 4.8 8.1 7.3 8.1 1.1 0 3-.9 4.3-1.9l2.4-1.9.3-93.5.2-93.4-2.7-3.4c-1.6-1.9-3.4-4.1-4.1-4.9-4-4.7-9.2-11.9-9.2-12.9 0-.6-.4-1.1-1-1.1-.5 0-1.7-1.5-2.6-3.3-.9-1.7-2-3.4-2.4-3.7-.4-.3-1.5-2.1-2.5-4s-2.1-3.7-2.5-4c-.3-.3-1.3-1.9-2.2-3.5-.8-1.7-2.2-4.4-3.2-6-3.1-5.7-8.6-18.4-8.6-20 0-.8-.4-1.5-.8-1.5-.8 0-4.2-10.6-4.2-13.3 0-.9-.4-1.7-.9-1.7-1.8 0-3.6-16.9-3.6-34.5.1-16.9 1.8-35.7 3.5-38 .4-.6 1.3-3.9 2-7.5s1.9-7.9 2.6-9.5c.7-1.7 2-5.1 2.8-7.7.9-2.6 2-5.6 2.5-6.5.5-1 2.4-5 4.2-8.8 4-8.4 9.5-17.6 10.9-18.5.6-.4 0-1.1-1.2-1.7-11.5-5.3-16.6-8.2-20.5-11.6-7-6.3-11.3-18-8.4-23.5.5-.9 1.5-3.1 2.1-4.9 1.7-4.6 8.7-11.7 14.5-14.6 6.5-3.4 16.6-3.7 22.3-.7zm274.6 69.7c7.5 5.1 14.8 11.7 19.5 17.7 6.1 8 11.1 15.7 11.1 17.3 0 .7.4 1.3.9 1.3s1.5 1.7 2.1 3.7c.7 2.1 2 5.6 3 7.8s2.3 6.5 3 9.5c.7 3 1.6 6.3 2.1 7.2 2.7 5.3 4.2 52 2 62.1-2.1 9.1-6.3 14.7-14 18.3-5.1 2.4-6.3 2.6-15.3 2.2-5.3-.3-10.3-1-11-1.5-.7-.6-2.9-1.3-5-1.7-7.9-1.4-17.6-8.3-19.8-14-1.6-4.2-1.1-12.4 1.1-20.1 1.1-3.9 2.9-10.8 4-15.5 1-4.7 2.3-9.2 2.8-10 .5-.9 1.6-7.2 2.6-14 .9-6.9 2.1-13.4 2.6-14.5 1.6-3.5 3-32.6 2.3-45.8-.8-14.4-.7-14.5 6-10zm-78.1 1.7c6.7 2.9 11.7 8.7 14 16 2.1 7.1 2.1 9.5 0 16.4-3.9 12.3-14.5 18.1-27.4 14.8l-6.1-1.6-4.1 3.5c-2.2 1.9-4.8 3.5-5.8 3.5s-1.9.5-2.1 1.2c-.3.8-2.8 1.2-7.4 1.1-5.6-.1-7.8-.6-11.7-2.8-6.2-3.5-12.5-11.4-13.3-16.6-.4-2.2-1.1-4.2-1.5-4.5-1.2-.7-1.1-8 0-10.2.5-.9 1.4-3.6 2-5.8 1.3-4.9 7.7-11.9 12.6-14 6.8-2.8 18.6-1.5 24.7 2.8 1.4 1 2.1.9 3.8-1 1.2-1.3 3.5-2.5 5.1-2.9 1.6-.3 3.2-1 3.5-1.4 1-1.7 8.4-.9 13.7 1.5zm-28.9 217.5c.4.5 3.1 1.7 6.1 2.6 5.2 1.7 5.5 1.9 5.5 5.2 0 4.3-2.2 9.6-5.4 12.8-4.7 4.7-13.7 2.8-18.9-4-1-1.3.1-8.9 1.3-9.3.6-.2 1-.8 1-1.4 0-.5.9-2.3 2.1-3.9 1.4-2 2.9-2.9 4.9-2.9 1.6 0 3.1.4 3.4.9zm124.2.9c2.2 1.3 6.4 10.1 6.4 13.1 0 4.7-4.5 9-10.2 9.7-2.6.4-5.7.4-7 .1-2.9-.8-5.7-5.7-6.5-11.2-.5-3.8-.3-4.4 1.8-5.5 1.3-.7 2.6-1.6 2.9-2 .5-.5 9.8-4.7 11-4.9.3 0 1 .3 1.6.7zm-491 434.1c3.3 2.6 8.1 10.7 8.4 14.1.4 5.2 1.1 5-18 5h-18v-2.7c0-6.1 7-16.1 13-18.6 3.2-1.4 11.7-.1 14.6 2.2zm35.7-2c4.7 1.8 7.9 5.8 8.4 10.5.5 4.1.3 4.6-2.1 5.7-1.4.7-2.6 1.6-2.6 2 0 1.4-10.7 3-18.1 2.7l-7.4-.3.1-4.5c.2-6.6 4.8-13.7 10.4-16.2 2.2-1 8.5-.9 11.3.1zm184.2 1.9c3.7 3 8.2 10.9 8.7 15.3l.3 3.4-12.4.3c-6.9.1-14.9-.2-17.8-.8-5-1.1-5.3-1.3-5.3-4.2 0-4.7 6.5-14.2 11-16.1 3.3-1.4 12.6-.1 15.5 2.1zm39.7-.3c3.6 2.7 7.7 9.7 8.4 14.5.6 3.5.4 4-1.7 4.5-1.3.3-8.9.4-16.9.3l-14.5-.3-.3-3.3c-.2-1.9.4-4.9 1.2-6.7.9-1.8 1.6-3.8 1.6-4.3s1.6-2.4 3.7-4.2c3.4-3 4-3.2 9.7-2.8 4.1.2 7 1 8.8 2.3zm39 .9c4.5 3.4 9.6 11.1 10 15.1l.3 3h-36l.3-4.5c.5-5.9 3.5-11.9 7.5-14.8 4.5-3.3 12.8-2.7 17.9 1.2zm37.9-1.1c4.5 3 7.9 8.3 7.9 12.1 0 2.5-.7 3.6-3.2 5.1-2.8 1.6-5.2 2-15.2 2h-11.9l-.9-2.7c-1.4-4 .7-10.2 5.1-14.8 3.5-3.7 4.2-4 9.3-4 4.1 0 6.4.6 8.9 2.3z"/><path d="M489.3 222.5c-1.7.7-3.9 2.5-4.9 4-1.8 2.8-3.5 11.1-2.7 13.2.7 1.9 3.3.3 3.3-2.1 0-1.1.5-3.8 1-5.8 1.2-4.3 6.1-7.8 10.8-7.8 3.4 0 5-1.5 2.6-2.4-2.5-1-6.7-.6-10.1.9zm84.5-5.4c-1.6.6-2.8 1.7-2.8 2.5 0 1.7 3.1 1.9 4.8.2.6-.6 3.1-1.1 5.5-1.2 4.9-.1 7.8 1.8 10.3 6.7.8 1.5 1.9 2.5 2.4 2.2 1.8-1.1 1-3.9-1.9-7.4-2.7-3.2-3.3-3.5-9.2-3.8-3.5-.1-7.6.2-9.1.8z"/></g><path d="M391.4 487c0 8.5.2 12 .3 7.7.2-4.2.2-11.2 0-15.5-.1-4.2-.3-.7-.3 7.8z" fill="#66667F" stroke="#66667F" stroke-width="3"/><path d="M451.2 195.7c3.7.2 10 .2 14 0 4-.1 1-.3-6.7-.3s-11 .1-7.3.3zM95.5 628.5c0 150.1.1 211.4.2 136.2.2-75.3.2-198.1 0-273-.1-74.9-.2-13.4-.2 136.8zm302-91c0 51.1.1 71.9.2 46.2.2-25.8.2-67.6 0-93-.1-25.4-.2-4.4-.2 46.8zm-7.1-74.5c0 8.5.2 12 .3 7.7.2-4.2.2-11.2 0-15.5-.1-4.2-.3-.7-.3 7.8zm151.1 239c0 106.4.1 150 .2 96.8.2-53.3.2-140.3 0-193.5-.1-53.3-.2-9.7-.2 96.7z" stroke-width="3" fill="#B2CCCC" stroke="#B2CCCC"/><path d="M136.9 333.3c.4.4 24.1.6 52.7.5l51.9-.3-52.7-.5c-29-.3-52.4-.2-51.9.3zm403.6 174.9c-.3.7-.4 88.1-.3 194.3l.3 193 .3-193.7c.2-183.5.3-193.7 2-194.1 1.6-.4 1.6-.5-.1-.6-1 0-2 .5-2.2 1.1zM450 914.3c0 1.4-1.9 1.7-15.7 2l-15.8.3 15.8.2c13.4.2 15.9 0 16.4-1.3.3-.9.3-1.9-.1-2.2-.3-.4-.6.1-.6 1zm-293.1 2c.4.4 8.4.6 17.7.5l16.9-.3-17.7-.5c-9.7-.3-17.4-.2-16.9.3zM398 916l-13.5.6 13.2.2c7.9.1 13.4-.2 13.8-.8.3-.6.5-.9.3-.8-.2.1-6.4.5-13.8.8zm59.7.2c.2.5 7.8.8 16.8.8s16.6-.3 16.8-.8c.3-.4-7.3-.7-16.8-.7s-17.1.3-16.8.7zm-254.9.5c2.3.2 6.1.2 8.5 0 2.3-.2.4-.4-4.3-.4s-6.6.2-4.2.4zm301 0c2.9.2 7.4.2 10 0 2.6-.2.2-.3-5.3-.3s-7.6.1-4.7.3z" stroke-width="3" fill="#4C6666" stroke="#4C6666"/><path d="M94.5 626.5c0 149 .1 209.9.2 135.2.2-74.7.2-196.7 0-271-.1-74.4-.2-13.3-.2 135.8zm28.2 290.2c5.1.2 13.5.2 18.6 0 5-.1.9-.3-9.3-.3-10.2 0-14.3.2-9.3.3zm1.5 6c4.8.2 12.9.2 18 0 5.1-.1 1.2-.3-8.7-.3-9.9 0-14.1.2-9.3.3z" stroke-width="3" fill="#7F9999" stroke="#7F9999"/><path d="M386 214.1c-2 1.7-3.5 2-8.2 1.7-3.2-.2-5.3-.1-4.6.4.7.4 3.4.8 6 .8 3.6 0 5.4-.6 7.5-2.5 3.4-3 2.8-3.3-.7-.4z" fill="#CCE5E5" stroke="#CCE5E5" stroke-width="3"/><path d="M232.5 759c0 76.2.1 107.3.2 69.2.2-38 .2-100.4 0-138.5-.1-38-.2-6.9-.2 69.3z" fill="#99B2B2" stroke="#99B2B2" stroke-width="3"/><path d="M166.3 922.7c8.6.2 22.8.2 31.5 0 8.6-.1 1.5-.3-15.8-.3s-24.4.2-15.7.3zm252.5 0c17.8.2 46.6.2 64 0 17.4-.1 2.9-.2-32.3-.2-35.2 0-49.5.1-31.7.2z" stroke-width="3" fill="#7F7F99" stroke="#7F7F99"/><path d="M88.5 626c0 148.8.1 209.6.2 135.3.2-74.4.2-196.2 0-270.5-.1-74.4-.2-13.6-.2 135.2z" fill="#B2B2CC" stroke="#B2B2CC" stroke-width="3"/><path d="M396.5 542c0 48.7.1 68.6.2 44.2.2-24.3.2-64.1 0-88.5-.1-24.3-.2-4.4-.2 44.3z" fill="#667F99" stroke="#667F99" stroke-width="3"/><path d="M162.7 334.7c14.5.2 38.1.2 52.5 0 14.5-.1 2.7-.2-26.2-.2s-40.7.1-26.3.2z" fill="#99B2CC" stroke="#99B2CC" stroke-width="3"/><g fill="#B2CCE5" stroke="#B2CCE5" stroke-width="3"><path d="M418 158.2c-6.1 3.1-9.2 9.2-8.6 16.8.4 7 3.5 18 5 18 .6 0 7.1-1.1 14.5-2.5 14.3-2.6 15.5-3.2 16.7-9.3 1.9-9.5-2.4-20.2-9.4-23.6-4.8-2.3-12.9-2-18.2.6z"/><path d="M365.6 176c-9.1 3.5-16 9.8-18.4 16.9-1.8 5.2-1.5 12.7.8 17 2 4.1 10.1 11.4 13.8 12.5 1.2.4 2.2 1.1 2.2 1.5 0 .4 2.4 1.5 5.3 2.6 8 2.8 8.8 3.7 6.2 7-4.4 5.8-8.9 14.1-15.6 29-2.3 5.1-6.8 19.6-8 25.5-.6 3.6-1.5 6.9-1.9 7.5-2.9 3.7-3.7 50.3-1.1 59.5 3.1 11.1 5.3 17.8 6.5 20.5.8 1.6 1.7 4.1 2.1 5.5.4 1.4 1.3 3.4 1.9 4.5.7 1.1 2 3.8 2.8 6.1.9 2.2 3.9 8 6.7 12.8 2.8 4.9 5.1 9.2 5.1 9.7 0 .4.3.9.8 1.1.4.1 2.7 3.2 5.1 6.8 2.5 3.6 7.5 10.2 11.3 14.8l6.8 8.3v91.7c0 60-.4 93-1 95.4-2.5 8.7-12.6 9-16.1.5-.7-1.8-1.6-3.4-1.9-3.7-.4-.3-1.5-3-2.5-6s-2.4-6.4-3-7.5c-.7-1.1-1.6-3.1-2-4.5-.4-1.4-1.8-4.9-3.1-7.8-1.3-2.9-2.4-5.5-2.4-5.8 0-.3-.7-2-1.5-3.7-1.3-3-3.2-7.6-7.6-19.2-1.1-2.8-2.5-6.1-3.3-7.5-.7-1.4-1.9-4.3-2.6-6.5-.7-2.2-1.9-4.9-2.6-6-.8-1.1-1.4-2.5-1.4-3.2 0-.7-.9-3.2-1.9-5.6-1.1-2.3-2.9-6.6-4-9.5-5.3-13.5-6.4-16-8.2-19.8-1-2.2-1.9-4.4-1.9-4.8 0-.4-1.1-3.2-2.5-6.2s-2.5-5.7-2.5-6c0-.3-.7-2-1.5-3.7-.7-1.8-2.3-5.6-3.5-8.5-5.2-13.4-6.3-16-8.1-19.8-1-2.2-1.9-4.4-1.9-4.8 0-.4-1.1-3.2-2.5-6.2s-2.5-5.8-2.5-6.2c0-.4-.6-1.9-1.4-3.3-.7-1.5-2.2-5.1-3.1-8-1-3-2.4-6.3-3-7.4-.7-1.1-1.8-3.8-2.5-6s-1.9-4.9-2.5-6c-.7-1.1-1.6-3.1-2-4.5-.4-1.4-1.8-4.9-3.1-7.8-1.3-2.9-2.4-5.8-2.4-6.5 0-.7-.6-2.1-1.4-3.2-.7-1.1-2.1-4.5-3.1-7.5s-2.4-6.4-3-7.5c-.7-1.1-1.8-3.8-2.5-6s-1.9-4.9-2.5-6c-.7-1.1-1.6-3.1-2-4.5-2-6.9-8.4-19.8-11.7-23.5-6-6.9-5.9-6.9-68.1-7.3l-55.7-.3-1.4-3.3c-3.6-8.5-4.7-39.2-2.1-55.6 1.5-9.7 5-24.5 6.5-27.5 2-4.1 5-13.8 4.4-14.6-1.1-1.9-3.2-.7-8.6 4.8-11 11.3-13.8 15.2-20.5 28.4-5.1 10.1-10.6 25.7-12.3 34.9-.7 3.6-1.6 7.2-2.1 8.1-.4.8-1.5 8-2.4 15.8-1.3 12.6-1.5 46.3-1.5 294.8 0 273.8.1 280.6 1.9 284.9 1.3 2.8 3.4 5.2 6.3 7.1l4.3 2.8 20.6.3 20.6.4 1.2-4.9c2.6-10.1 10.2-18.4 18.7-20.3 7.6-1.7 14.1.1 19.8 5.5 2.5 2.5 4.6 5 4.6 5.7.1.7.9-.1 1.8-1.8 6.1-11.2 22.3-13.5 32.1-4.5l4.1 3.8V618.2l2.6-3.1c2.7-3.3 6.7-4.1 10.4-2.1 2 1.1 5.9 8.1 8 14.5.7 2.2 1.9 4.9 2.5 6 .7 1.1 1.8 3.8 2.5 6s1.6 4.4 2 5c.4.5 1.5 3.2 2.5 6 1 2.7 2.2 5.4 2.5 6 .4.5 1.5 3.5 2.5 6.5s2.4 6.4 3 7.5c.7 1.1 1.6 3.1 2 4.5.4 1.4 1.8 4.9 3.1 7.8 1.3 2.9 2.4 5.6 2.4 6 .1.4.9 2.5 2 4.7s1.9 4.3 2 4.8c0 .4.9 2.6 1.9 5 1.9 4 3.6 8.2 8.1 19.9 1.1 2.9 2.6 6.4 3.4 7.8.7 1.4 1.9 4.3 2.6 6.5.7 2.2 1.6 4.4 2 5 .4.5 1.6 3.5 2.6 6.5s2.2 5.7 2.5 6c.3.3 1.4 3 2.4 6s2.4 6.4 3 7.5c.7 1.1 1.8 3.8 2.5 6s1.9 4.9 2.5 6c.7 1.1 1.8 3.8 2.5 6s1.6 4.4 2 5c.4.5 1.5 3.2 2.5 6 1 2.7 2.2 5.4 2.5 6 .4.5 1.5 3.5 2.5 6.5s2.4 6.4 3 7.5c.7 1.1 1.8 3.8 2.5 6s1.9 4.9 2.5 6c.7 1.1 1.8 3.8 2.5 6s1.6 4.4 2 5c.4.5 1.5 3 2.3 5.5 2.4 6.6 6.6 17.1 8.1 20 .7 1.4 1.9 4.3 2.6 6.5.7 2.2 1.9 4.9 2.5 6 .7 1.1 1.8 3.8 2.5 6s1.6 4.4 2 5c.4.5 1.5 3.2 2.4 6 .9 2.7 3.3 7.2 5.3 10 3.6 4.9 3.7 4.9 4.3 2.4 1-3.5 5.7-10.7 8.8-13.5 1.5-1.3 5.1-2.9 8-3.5 9.7-2.2 18.7 1.5 23.8 9.8l2.1 3.4 1.2-2.9c1.6-3.9 6.8-8.7 11-10.1 8-2.6 15.9-.6 22.3 5.8 4.5 4.5 6.8 5 6.8 1.5 0-2.2 8.1-7.3 12.6-8 7.2-1 13.7 1.1 19.5 6.6l5.1 4.8 1.6-2.7c4.1-7 12.6-10.3 21.9-8.3 3.2.6 6.3 1.9 6.9 2.7.6.8 1.6 1.5 2.3 1.5.6 0 1.7 1.1 2.3 2.5.6 1.4 1.5 2.5 1.9 2.5.4 0 1.1 1 1.5 2.2.7 2.1.8 2.1 2-1.2 1-2.8 1.3-43.4 1.3-198.1l.1-194.6-6.4-.7c-11.8-1.2-29.8-7.8-41.1-15-5.9-3.9-15.5-13.2-15.5-15.1 0-1.4 2.9-3.5 4.8-3.5.5 0 3.4 2.3 6.3 5.1 8.9 8.3 24.6 16.5 35.4 18.5 2.2.3 4.5 1 5 1.5 2 1.5 27.9 3.2 40.5 2.6 10-.5 14.3-1.2 21.6-3.5 10.2-3.3 19.3-7.4 24-10.9 1.7-1.3 3.6-2.3 4.1-2.3.6 0 1.3-.6 1.6-1.4.5-1.1-1.2-1.6-8.1-2.1-4.8-.4-10-1.1-11.7-1.6-1.6-.5-6.8-1.6-11.5-2.5-4.7-.8-8.9-1.9-9.5-2.4-.5-.4-2.5-1.1-4.2-1.5-3.1-.6-3.3-.5-3.3 2.1 0 4-3.9 11.1-7.6 13.9-5.2 4-11.2 4.3-17.8 1-7.7-3.9-9.9-7.3-9.4-14.4.3-3.9 1.3-6.9 3.1-9.9 1.5-2.3 2.5-4.7 2.2-5.3-.4-.5-2.4-1.8-4.5-2.9-10.2-5.2-23.6-16.3-33.3-27.5-10-11.6-14.3-18.4-21.1-33.6-1.6-3.6-4.1-12.9-5.6-20.4-.5-3-.8-3.3-.9-1.4-.1 3.1-3.1 4.4-5.7 2.4-1.4-1-1.6-2.2-1.1-6.6 1-7.9 3.7-10.2 12.6-10.7 8.4-.5 11.4.8 10.9 4.6-.3 2.5-.7 2.7-4.5 2.6l-4.2-.1.5 4.6c1.5 12.5 6 26.9 10.5 33.3 1.1 1.4 1.9 2.9 1.9 3.2 0 .7 3.8 6.2 9.1 13.1 13.7 17.6 36.8 33.7 58.4 40.5 2.2.7 4.5 1.6 5 2.1.6.4 4.2 1.5 8 2.5 3.9.9 7.5 2.1 8.1 2.5.5.5 5.5 1.6 11 2.4 11.3 1.9 29.8 2.1 40 .5 7-1 26.5-6.8 27.4-8.1.3-.4 2.5-1.5 5-2.5s5-2.2 5.5-2.6c.6-.5 3.1-2.2 5.7-3.9 6.4-4.1 16.9-15.5 20.6-22.3 3.2-6 7.8-19.7 8.5-25.5.4-3.3.3-3.4-1.2-1.5-5.7 6.6-13.1 8.8-27.4 8.2-11.4-.5-14.7-1.7-14.7-5.2 0-3.2 1.8-3.7 9.2-2.5 15.3 2.6 25.9-1.3 31-11.3 2.7-5.3 3.3-8.5 2.9-14.3l-.3-3-1.5 3.5c-3.5 8.3-13.4 15.3-23.4 16.5-10 1.2-26-2.3-37.1-8.3-8.1-4.3-14-13.8-14.1-22.2 0-2.7 3.8-18.3 5.2-21.5 1.5-3.2 7.9-32 8-36.1.2-2.8-34.8-2.3-38.3.5-.6.5-2.9 1.4-5.1 2.1-8.3 2.6-18.3 9.9-22.8 16.6-3.5 5.3-3.7 5.5-6.5 4.7-2.6-.6-3-5.3-.7-7.7.8-.8 1.5-1.9 1.5-2.4 0-.6 2.6-3.4 5.8-6.3 5-4.7 14.5-10.3 20.6-12.3 1.8-.6 1.6-1-1.5-3.6-4.8-4.2-6.9-4.5-13.6-2.1-7 2.5-10.6 2.6-16.2.7-3.9-1.4-4.2-1.4-6.8.8-1.6 1.3-5 3.3-7.8 4.6-4.1 1.9-6.1 2.2-12 1.7-4.2-.3-8.7-1.3-11.2-2.6-6.3-3.1-13.8-11.2-15.8-16.8-.9-2.6-2.1-5.6-2.6-6.5-.5-1-.9-4.6-.9-8 0-12.3 7.1-24.8 17.1-29.9 6.2-3.1 16-3.6 23.4-1.1 3.3 1.1 6.1 1.9 6.3 1.7 1.4-1.3-12.8-17.4-20.8-23.7-5.7-4.4-14.8-10.8-15.5-10.8-.3 0-3.4-1.3-6.8-2.9-3.4-1.6-8.2-3.4-10.7-4.1-2.5-.7-4.9-1.5-5.5-2-2.9-2.1-18.2-3.5-38.5-3.4-22 .1-26.2.6-44.5 5.3-4.4 1.1-8.5 2-9.1 2.1-.6 0-2.8-3.3-4.9-7.3-5.4-10.4-11.8-17.5-18.2-20.3-6.3-2.8-8.1-2.8-14.7-.4zm18.6 18.7c3.3 2.9 5 7.3 5.1 12.6.1 4.3-.3 5.3-2.8 7.4-2.5 2.2-3.6 2.5-8.5 2.1-3.7-.3-6.7-1.2-8.8-2.6-4.7-3.4-7.9-11-5.2-12.7.6-.3 1-1.4 1-2.4s1.1-2.8 2.4-4c4.5-4.2 12.4-4.4 16.8-.4zm118 26.5c1.1 1.8 1 2.5-.8 4.2-.9.9-3.2 1.6-5.4 1.6-5.5 0-7.9 2.4-8.7 8.8-.6 5.5-2.6 7.8-5.7 6.6-3.3-1.3-1.4-15.4 2.5-19 5.1-4.6 15.7-5.9 18.1-2.2zm-67.8 75.9c4.2 1.2 5.3 1.9 9.7 6.4 6.3 6.4 6.4 19 .4 26.4-2.7 3.2-11.2 7.1-15.5 7.1-4.8 0-11.9-3.5-15.2-7.3-6.5-7.5-5.9-20.6 1.3-27.5 5.8-5.5 12-7.1 19.3-5.1z"/></g><path d="M535.5 701.5c0 106.7.1 150.2.2 96.7.2-53.6.2-140.9 0-194-.1-53.2-.2-9.4-.2 97.3z" fill="#4C7F7F" stroke="#4C7F7F" stroke-width="3"/><path d="M371.4 193.9c-3.6 1.6-6.4 6-6.4 10.3 0 11.1 17.6 16.1 22.9 6.6 1.3-2.2 1.3-3.2.1-6.7-2.1-6.4-5.8-10.2-10.5-10.7-2.2-.2-5 0-6.1.5zM423 298.6c-7.1 2.8-13 11.1-13 18.3 0 5.4 3.9 12.1 8.9 15.2 12.6 8.1 28.6-.6 28.6-15.6 0-10.4-7-17.6-17.3-18.2-3.1-.1-6.4 0-7.2.3z" stroke-width="3" fill="#FFE5FF" stroke="#FFE5FF"/><path d="M571.8 266.7c-3.2 1.9-3.8 2.9-3.8 5.8 0 4 4.1 8.5 7.8 8.5 3.8 0 7.2-4.3 7.1-8.7-.2-3.1-.3-3.3-.6-1-.4 2.5-.8 2.8-3.6 2.5-2.8-.3-3.2-.7-3.2-3.3 0-2.2.5-3 2.4-3.5l2.4-.5-2.4-1.1c-2-.9-3-.7-6.1 1.3zm-33.9 1.3c-.9.5-2.2 2.3-2.9 3.9-3 7.3 6.8 13.5 12.6 8 2.6-2.4 3.3-8.2 1.3-9.5-.7-.4-.9 0-.5 1.4.4 1.2.1 2.6-.9 3.6-2 2-2.9 2-4.9 0-2.2-2.1-2-3.9.6-6.4l2.2-2h-3c-1.6 0-3.6.5-4.5 1z" stroke-width="3" fill="#191933" stroke="#191933"/><path d="M373.4 1107c0 6.3.1 8.9.3 5.7.2-3.1.2-8.3 0-11.5-.2-3.1-.3-.5-.3 5.8zm123 9.5c0 5.5.1 7.6.3 4.7.2-2.9.2-7.4 0-10-.2-2.6-.3-.2-.3 5.3zm-13 0c0 4.9.1 7.1.3 4.8.2-2.3.2-6.4 0-9-.2-2.6-.3-.8-.3 4.2zm90 34.5c0 5.2.1 7.4.3 4.7.2-2.6.2-6.8 0-9.5-.2-2.6-.3-.4-.3 4.8z" stroke-width="3" fill="#FFFFE5" stroke="#FFFFE5"/><path d="M512.4 1154.5c0 6.6.1 9.2.3 5.7.2-3.4.2-8.8 0-12-.2-3.1-.3-.3-.3 6.3z" fill="#CCE566" stroke="#CCE566" stroke-width="3"/><path d="M377.2 1093.2c-1 1.3-1.6 9.2-3 38.2l-.7 14.9-3.5-3.5c-1.9-1.9-5.7-6.2-8.5-9.4-2.7-3.2-7.6-8.8-10.8-12.4-3.3-3.6-7.8-8.6-10-11.2-10.4-11.8-15.9-16.8-18.5-16.8-6.7.1-6.9 1.2-8.1 43.5-.9 32.1-.9 31.9 5.3 31.9 6.1 0 6.6-1.1 6.6-15.9 0-18 1.1-37.5 2.2-37.5.4 0 1.6 1 2.6 2.1.9 1.2 2.8 3.4 4.2 4.9 8.3 9 17.6 19.4 18.2 20.5.4.7 2.7 3.2 5 5.7 4.3 4.5 13.1 14.3 15.6 17.3 1.7 2 9.5 2 11.2 0 .8-1 1.3-11.3 1.7-36.5.5-29.6.4-35.3-.8-36.1-2.1-1.3-7.5-1.1-8.7.3zm-202 12.6c-.8.6-1.5 4.7-1.9 12.5-.3 6.4-.9 11.7-1.3 11.7s-2.1-.7-3.6-1.5c-3.7-1.9-10.2-1.9-13.4 0-1.4.8-3.4 1.8-4.5 2.4-1.2.5-3.4 2.8-5 5-3.1 4.5-4.3 12-3.1 18.6.8 4.1 6.8 10.9 11 12.5 3.6 1.3 11.5 1.3 15.5-.1 2.4-.9 3.5-.9 4.4 0 1.7 1.7 6.5 1.3 7.5-.7 1.5-2.8 2.4-58.6 1-60-1.4-1.4-4.7-1.6-6.6-.4zm-5.4 31.2 3.2 2v17.8l-3.4 2.1c-4.4 2.7-11.4 2.8-14.8.2-5.5-4.4-5.7-17.2-.3-21.8 3.4-3 10.6-3.1 15.3-.3zm316.8-31.1c-.3.5-1.1 14-1.7 30-1.1 31.3-1 32.1 3.7 32.1 3.3 0 3.8-1.4 4.6-11.5.8-11.6 1.6-14.9 3.9-17.4 2.2-2.3 7.7-3.6 11.4-2.7 3.7.9 4.5 4.2 4.5 18.1 0 11.8.1 12.3 2.4 13.8 2.1 1.4 2.6 1.4 4.5.1 2-1.4 2.1-2.4 2.1-15.8 0-13.1-1.1-20.6-2.9-20.6-.4 0-1.8-1-3.1-2.2-1.9-1.8-3.6-2.2-9.1-2.2-4.2-.1-7.3.4-8 1.1-3.2 3.2-3.9 1.5-3.9-9.8 0-9.5-.3-11.4-1.7-12.5-2.1-1.5-5.9-1.8-6.7-.5zm91.2 20.3c-1.3 1.1-1.7 4.5-1.9 21.3l-.4 20h7l.8-6.5c.4-3.6 1-9.8 1.3-13.8.5-6.4.9-7.5 3.1-8.9 3.6-2.4 11.6-2.2 14.3.2 1.8 1.6 2.3 1.7 3.1.5 2.4-3.9 2.3-6.3-.7-8.7-3.7-3-8.3-3.8-14.5-2.6-2.7.6-4.9.7-4.9.3 0-.5-4.4-3-5.4-3-.1 0-.9.6-1.8 1.2zm38.9.1c-3 2.4-5.2 37.8-2.5 40.5 1.8 1.8 5.6 1.4 6.8-.7.5-1.1 1-7.1 1-13.3v-11.4l3.2-2.4c1.8-1.3 5.1-2.5 7.7-2.8 3.8-.3 5 0 6.6 1.8 1.8 2 2 3.4 1.7 14.2-.1 6.6 0 12.8.3 13.8.8 2.4 3.9 3.1 6.4 1.3 2-1.3 2.1-2.4 2.1-15.9 0-7.9-.4-14.4-.9-14.4s-1.2-1.1-1.5-2.4c-1.1-4.3-6.1-7-13.2-7-3.7 0-6.9.6-7.9 1.4-1.3 1.1-1.9 1-3.8-.7-3.3-3-4.3-3.3-6-2zm-367.4.9c-2.5.5-5.6 2.2-7.5 4.1-2.6 2.7-3.3 4.1-3.6 8.7-.4 5.2-.2 5.6 2.6 7.7 1.7 1.3 5.7 2.7 9.2 3.2 3.4.6 6.8 1.5 7.6 2.2 1.9 1.6 1.8 6.5-.2 7.3-2.9 1.1-10.9.6-13.8-.9-3.9-2.1-6.3-1.9-7.1.5-1.3 4.2 2.2 8 7.5 8 1 0 2.2.4 2.5 1 .3.5 2.6 1 5.1 1 2.4 0 4.4-.5 4.4-1 0-.6.9-1 2-1 5.4 0 10-4.9 10-10.7 0-6-2.1-9-7.9-11.6-3.1-1.4-7.4-2.9-9.6-3.4-3.4-.7-4-1.2-3.7-3.3.1-1.3.5-2.6.7-2.9 1.3-1.2 12.8-1.3 15-.1 3.1 1.6 5.5.7 5.5-2.2-.1-3.6-2.3-5.6-7.1-6.7-5.1-1.2-6-1.2-11.6.1zm206.6-.3c-6.6 1.3-11.8 6.7-12.6 13-.4 3.2-.1 4.3 2.4 6.8 2.4 2.4 4.4 3.3 9.9 4.2 9.1 1.6 12.9 5.5 8.7 8.7-2.5 1.8-10.8 1.7-14.8-.2-4.6-2.1-6.9-1.5-7.3 1.9-.5 3.8 1.3 5.6 6 6.3 2.1.4 4.1 1.1 4.4 1.5.7 1.2 6.9 1.2 9.2 0 .9-.5 3.4-1.6 5.5-2.5 2-.9 4.3-2.7 4.9-4.1.6-1.4 1.5-2.5 2-2.5.4 0 .8-1.4.8-3 0-1.7-.4-3-.8-3s-1.3-1.3-1.9-2.9c-.8-2.1-2.6-3.7-6.4-5.5-2.9-1.5-6.2-2.6-7.3-2.6-4.5 0-6.6-1.2-6.6-3.6 0-1.3.9-2.8 1.9-3.4 2.6-1.3 11.7-1.3 14.3.1 2.7 1.5 6.8.3 6.8-1.9 0-1-1.2-3-2.7-4.4-3.1-2.9-10.2-4.2-16.4-2.9zm-248.2.8c-3.5.9-9.5 4.9-11.9 7.8-3.7 4.5-5.1 9.8-4.5 17.4.8 10.7 2.2 12.3 14 16.1 2.4.7 4.2.8 5 .2.7-.5 3.4-1.5 6.1-2.2 4.7-1.3 5-1.3 6.8 1 1.5 1.9 2.3 2.2 3.6 1.3 1.9-1.2 2-4.3.3-11.3-.6-2.6-.8-9.3-.5-16 .3-6.4.1-12.1-.4-12.8-1-1.4-14.9-2.5-18.5-1.5zm8.4 6.3c1.7 1 1.9 2.2 1.9 13.6 0 12.4 0 12.4-2.6 13.4-3 1.2-11.4 1.3-12.9.2-2.2-1.6-4-6.8-3.9-11.2.2-5.6 4-12 8.2-14 1.5-.7 3.4-1.6 4.2-2.1 2-1.1 2.8-1.1 5.1.1zm197.4-6.2c-7.3 2.5-13.5 7.8-15.4 13.3-1.4 4.1-1.4 14.9 0 18.6 1.5 4.1 4.7 7.1 8.3 7.8 1.7.3 4.1 1.1 5.4 1.7 1.5.8 2.9.8 4.5.1 7.2-3.4 11.7-4.3 11.7-2.3 0 .5.9 1.4 2 2 1.6.8 2.4.7 4-.8 1.8-1.7 1.9-1.9.2-4.7-1.4-2.5-1.7-5.8-1.8-18.3 0-9.8-.5-15.7-1.2-16.4-1.3-1.3-14.7-2-17.7-1zm8.5 6.5c2.1 1.7 2.2 23.6.1 26-1.8 2.3-12.3 2.4-14.5.2-3.4-3.4-3.3-15.7.2-20.5 2-2.7 8.7-6.8 11.2-6.9.8 0 2.2.5 3 1.2zm119.2-5.6c-7.8 3.8-11.8 12.1-10.9 23 .9 11.5 6 16.3 17.3 16.3 5.9 0 13.4-2.1 13.4-3.8 0-.5 1-1.9 2.3-3.2 2-2.2 2.2-3.5 2.2-12.5 0-11.3-1.5-15.2-7.5-19.3-4-2.7-11.9-3-16.8-.5zm12.5 6.9c3.8 1 5.5 11.4 3.3 19.4-2 7.1-10.7 9.2-16.2 3.9-3-2.8-3.3-3.6-3.2-8.7.2-11.3 6.7-17.1 16.1-14.6z" stroke-width="3" fill="#B2CC19" stroke="#B2CC19"/><path d="M375.2 1102.5c-.1 3.8-.5 8.8-.7 11-.5 3.5-.4 3.7.5 1.6.6-1.4.9-6.3.7-11-.3-8.6-.3-8.6-.5-1.6zm109.5 12.7c-.4 4.6-.6 14.1-.5 21.3.1 11.6.2 10.7.9-8 .4-11.5.7-21.1.5-21.2-.2-.2-.6 3.4-.9 7.9zm89.9 35.9c-.6 11.1-.4 15.4.4 16.5 1.5 1.7 6.4 1.9 7.7.1 1.1-1.3 2.5-14.3 1.5-13.2-.4.4-.9 3.4-1.2 6.8l-.5 6.2h-7l.4-15.8c.1-8.6.1-15.7-.2-15.7-.2 0-.7 6.8-1.1 15.1zm-45-8.5c-.8 2.2-.7 11.7.2 13.1.4.6.7-2.4.7-6.8 0-4.3-.1-7.9-.1-7.9-.1 0-.5.7-.8 1.6zm-7.2 8.9c0 5.5.1 7.6.3 4.7.2-2.9.2-7.4 0-10-.2-2.6-.3-.2-.3 5.3zm-28.8-4c-.3.9-.5 4.4-.5 7.8l.2 6.2.7-7.5c.8-7.8.7-9.2-.4-6.5z" stroke-width="3" fill="#B2CC33" stroke="#B2CC33"/></svg>