<svg version="1.0" xmlns="http://www.w3.org/2000/svg" viewBox="0 0 784 1260"><g fill="#FFF" stroke="#FFF" stroke-width="3"><path d="M0 630v630h784V0H0v630zM521.4 79.3c1.2.9 1.7 2.3 1.4 4.2-.3 2.8-.7 3.1-6.8 4.3-12.1 2.4-22.4 11-39.7 33.2-15 19.3-19.7 23-29.2 23-4.2 0-5.6-.5-8.5-3.1-3.4-2.9-3.6-3-6-1.4-3.6 2.4-8.8 9.1-12.5 16l-3.2 6 10.8 1.1c12.8 1.3 38.2 5.1 40.3 6.1.8.4 5.8 1.7 11 2.9 15.1 3.5 34.4 9.6 44.2 13.8 2.1.9 5.1 1.6 6.8 1.6 1.7 0 5.3 1.2 8.1 2.6l5.1 2.5 3.7-2.5c2-1.4 4.7-2.6 5.9-2.6 1.3 0 4.8-1.1 8-2.4 3.1-1.3 7.5-2.7 9.7-3.1 2.2-.4 4.7-1.3 5.5-2.1 2.2-1.9 18.3-3.7 28.2-3.2 11.4.7 20.4 4.6 24.2 10.7 4.5 7 11.6 34.6 15.1 58.1.9 5.8 2 13.1 2.5 16.2.4 3.1 1.3 13.5 1.9 23 .7 9.5 1.7 21.6 2.3 26.8 1.4 11.6 1.2 361.9-.2 374.5-.5 4.4-1.4 12.5-2 18-1.6 13.8-4.3 25.4-10.1 43.2-4.7 14.5-6.3 18.6-13.1 33.2-2.9 6.3-2.9 6.5-1.9 15 .6 4.7 1.6 10.6 2.1 13.1.6 2.5 1.9 12.1 3 21.5 1.1 9.3 2.5 19.9 3.1 23.5.6 3.6 1.2 14.6 1.3 24.6l.1 18-2.7 4.2c-1.8 2.6-3.9 4.4-6 5.1-1.8.5-6.7 2.3-10.9 3.9-9.2 3.5-10.4 3.7-27.2 5.7-10.7 1.2-14.8 1.3-20.8.4-4.1-.6-8.1-1.2-8.9-1.3-.9 0-4.4 3.2-7.9 7.2-24.8 28.7-62.2 47.2-115.1 56.9-12.5 2.3-61.9 2.4-75 .1-20.2-3.5-47.9-11.5-63-18.2-13.9-6.1-44-25.8-44-28.8 0-.4-2.7-3.6-6.1-7-3.3-3.5-7.2-8.2-8.6-10.6-1.8-3-3.1-4.2-4.2-3.8-.9.3-4.1 1.4-7.2 2.5-16.9 6.1-46.9 2.7-62.1-7-7.5-4.8-8.2-7.9-7.4-30.7.3-10.3 1.3-23.4 2.1-29.2.8-5.8 2.3-17.9 3.4-27 1.2-9.1 2.3-17.4 2.6-18.5.3-1.1 1.2-6.3 2-11.5l1.4-9.5-3.3-7.5c-4.6-10.5-6.3-14.9-7.6-19.5-.6-2.2-1.6-4.9-2.1-6-1.7-3.7-5.2-18-7-29-1-6.1-2.4-13.5-3.1-16.5-1.6-7.1-2.4-291.8-.9-321.2 1.5-27.8 3.9-63 5.1-72.3.6-4.4 1.9-15.7 3-25 1.1-9.4 2.4-18.8 2.9-21 .6-2.2 1.8-9.4 2.7-16 .9-6.6 1.9-12.4 2.1-12.9.3-.4 1.6-6.1 2.8-12.5 3.9-19.6 6.5-30.1 8.6-33.5 4.9-8.4 15.3-11.4 33.6-9.6 6 .6 12.4 1.4 14.3 1.9 9.1 2.4 17.9 5.2 22 7 2.5 1.1 5.6 2.1 6.9 2.1 1.4 0 3.2.7 4.2 1.6 1.5 1.4 2.1 1.4 4.6.1 1.5-.8 4.6-1.7 6.8-1.9 2.2-.3 6.1-1.5 8.5-2.6 2.5-1.1 6.5-2.5 8.9-3.2 2.4-.6 5.1-1.6 6-2.1 2-1.1 13.5-4.4 26.1-7.4 5.2-1.3 10.2-2.6 11-2.9 1.8-.7 24.7-4.2 38-5.8l9.5-1.1 2.2-4.6c8.6-17.8 25.6-34 43.6-41.7 6.3-2.7 6.7-3.1 6.7-6.1 0-5.3 3.7-13.6 7.7-17.5 5.5-5.3 12.6-8.7 22.8-10.9 4.9-1.1 9.1-2.2 9.4-2.5.2-.2 13.1-.4 28.6-.4 21.5 0 28.5.3 29.9 1.3zM415.6 1093.5c6.9 3.4 10.7 7.9 13.4 16 3.6 10.8 1.9 27.5-4.1 39-4 7.7-10.6 14.5-17.8 18.1-5.2 2.7-6.4 2.9-17.6 2.9-11.3 0-12.3-.2-17.9-3-6.2-3.1-11.8-8.1-14.1-12.5-2.3-4.5-4.8-16.1-4.1-19.9 2-12 2.9-15.2 5.7-20.8 5.2-10.3 14.6-18.8 23.5-21.2 6.6-1.8 8.6-2 18.4-1.5 7.5.3 10.5.9 14.6 2.9zm-189.7 9.4c1.9 1.9 2 3.2 1.4 31.3-.4 25.9-.7 29.6-2.3 31.8-1.4 2-2.5 2.5-5.6 2.2-2.2-.1-5.2-.1-6.9 0-12.2.8-16.2.3-20.3-2.5-5.8-3.8-9.3-9.7-9.9-16.7-.5-4.7-.1-6.7 2.1-11.6 3.2-6.9 7.5-10.6 15.3-13.1 5-1.6 5.7-1.6 9.7-.1l4.4 1.6.6-3.6c.3-2.1.6-6.8.6-10.6 0-5 .5-7.4 1.7-8.8 2.1-2.4 6.8-2.3 9.2.1zm265.7-.5c1.7 1.3 1.9 2.7 1.9 12.6l-.1 11.1 3.1-.8c5.5-1.4 13.9-.8 17.5 1.3 6.3 3.7 7.5 7.1 7.8 23.4.3 13 .2 14.8-1.5 16.8-2.6 3.3-7.9 3.3-10.4.1-1.6-2-1.9-4.3-1.9-15 0-8.4-.4-12.9-1.2-13.7-1.9-1.9-8.2-1.4-11.1.8-2.4 1.9-2.5 2.5-2.8 14.1-.4 11.3-.6 12.2-2.8 14-2.6 2.1-5.3 2.4-8.2.9-1.8-1-1.9-2.3-1.8-24.8.1-28.8.9-39.9 2.9-41.2 2.2-1.4 6.3-1.2 8.6.4zm-200.5 21.2c1.5 1.3 2.4 1.4 5.3.4 5.6-1.8 16.8 1.9 18.1 6 .9 2.8-1.3 8.8-3.3 9.2-.9.3-3.6-.3-6-1.1-3.7-1.4-4.7-1.4-8.5-.1l-4.2 1.5-.5 13.3c-.6 14.9-1.2 16.2-7.6 16.2-5.9 0-6.2-1.8-5-24.5.6-11 1.5-20.6 1.9-21.3 1.2-1.7 7.7-1.5 9.8.4zm-27.7 2.2c8.3 4.6 12.1 15.1 7.2 20.1-1 .9-6.3 2.1-14.1 3.2-7 .9-12.8 1.9-13.1 2.2-1 .9.8 3.5 3.2 4.6 1.4.6 5.1 1.1 8.4 1.1 4.6 0 6.4-.5 8.7-2.3 4.3-3.6 6.1-3.9 8.4-1.6 4.7 4.7-.9 12.7-10.5 15-2.6.6-7.7.9-11.2.6-8-.6-13.2-3.7-16.9-10.2-2.4-4.1-2.7-5.3-2.4-12.3.5-10.5 4-16.4 11.9-20.4 7.4-3.7 13.7-3.7 20.4 0zm201.2-1.2c7.7 3.2 10.7 8.9 6.8 12.8-2 2.1-3.2 2-7.9-.4-5.5-2.8-9.4-2.6-13.3.7-5.1 4.3-5.7 12.8-1.2 17.3 2.5 2.5 10.4 2.7 15.6.5 8.7-3.6 12.8 5.7 4.8 11-3.5 2.3-16.1 3.2-22 1.6-5.9-1.6-10.9-7.4-12.3-14.3-1.2-5.9-.2-14.8 2.2-19.5 4.9-9.3 17.4-13.8 27.3-9.7zm92.5.7c4.5 3 5.8 6.7 3.5 10.1-2 3.1-3.4 3.2-9.2.5-3.8-1.7-5.1-1.8-8-.9-6.4 2.2-5.2 3.5 5.1 5.9 3.8.9 5.9 2.1 8.7 5.2 4.7 5.2 5.7 9.6 3.1 14.6-3.8 7.2-11 9.8-23.1 8.4-7.7-.9-11.6-3.5-12-8-.5-4.7 1.3-6.4 6.2-5.7 10.5 1.5 15.8 1.8 16.8.8 1.5-1.5-2.4-3.6-10.4-5.6-8.6-2.3-11.1-4.8-11-11.2.2-5.9 3.7-11.6 8.9-14.3 5.7-3 16.8-2.9 21.4.2zm39.3-.4c9.2 4 13.7 15.1 8.3 20.5-1.8 1.8-4 2.5-8.8 3.1-10.3 1.1-18.9 2.6-18.9 3.4 0 .5.9 1.6 2.1 2.7 1.4 1.3 4 2 8.8 2.2 6.1.4 7 .2 9.9-2.3 3.5-3 7.9-3.6 9.3-1.4.5.8.9 2.8.9 4.6 0 2.4-.8 3.8-3.7 6.2-7.3 6-19.5 7-28.1 2.4-5.9-3.3-8.6-6.3-10.1-11.8-4.4-15.9 5.9-31.2 21.1-31.4 2.5-.1 6.7.8 9.2 1.8z"/><path d="M371 342.4c-25.4 6.1-38.3 20.9-44.4 51.1-3.4 16.3-4.5 43.4-4.6 107.1 0 44 0 44.1 2.4 51 1.5 4.2 2.9 11.6 3.6 18.9 1.6 16.2 5.3 34.8 8.3 41.5 2.5 5.4 7.1 10.7 11.4 12.9 3.1 1.6 6.8 1.4 11.6-.8 17-7.6 55.6-7.3 76.6.6 9.4 3.5 13.3 2.9 18.8-3.2 6.6-7.3 9.9-19 11.9-43 .8-10.5 2-20.4 2.5-22.1 1.3-4.3 1.2-132.1-.2-145.9-2.3-23.5-5.7-35.7-13-46.6-5-7.5-10.8-12.4-19.4-16.5-10.5-5.1-19.4-6.7-39-7-14.8-.2-18.2.1-26.5 2zm-31.2 406.7c-2.9 1.6-2.3 6.7.8 8.1 3.3 1.5 5.8.1 6.2-3.6.6-4.7-2.9-6.9-7-4.5zm113.3.3c-1.7 2-1 6.7 1.1 7.9 2.8 1.8 6.8-.7 6.8-4.2 0-4.4-5.3-6.8-7.9-3.7zm-66.7 358c-6.5 3-11.7 9.3-14.9 18.2-3.6 10-3.3 15.2 1.7 22.5 4.3 6.5 17.6 8.9 26.2 4.8 4.5-2.1 11.5-10.6 13.1-15.9.4-1.4 1.2-3.1 1.8-3.8.6-.7 1.1-5.1 1.1-9.7.1-7-.2-8.8-2-11.2-5.5-7.4-16.9-9.4-27-4.9zm-185.9 28.8c-2.9 1.7-4.3 3.8-5.5 8.1-.9 3.2-.8 4.3 1.1 7.7 2.8 4.9 7.2 6.5 12.7 4.7l3.7-1.2.3-8.7.3-8.7-3-1.6c-3.5-1.8-6.8-1.9-9.6-.3zm46.1-.1c-3.5 2.8-3.3 3.9.7 2.9 1.7-.4 5.4-1.1 8.2-1.5 4.6-.6 4.8-.8 3-2.1-2.8-2.1-8.8-1.7-11.9.7zm334.1.5c-3.3 3.1-3.1 3.8.9 2.5 1.6-.5 5.1-1.3 7.9-1.6 4.6-.6 4.8-.8 3-2.1-3.1-2.3-8.6-1.7-11.8 1.2z"/></g><path d="M650.5 536c0 58.6.1 82.5.2 53.3.2-29.3.2-77.3 0-106.5-.1-29.3-.2-5.4-.2 53.2zm-180-32.5c0 25.8.1 36.6.2 23.8.2-12.7.2-33.9 0-47-.1-13.1-.2-2.7-.2 23.2z" stroke-width="3" fill="#FFE5E5" stroke="#FFE5E5"/><path d="M651.4 377.5c0 9.9.2 13.8.3 8.7.2-5.1.2-13.2 0-18-.1-4.8-.3-.6-.3 9.3zm-508.9 154c0 73.1.1 102.9.2 66.2.2-36.8.2-96.6 0-133-.1-36.4-.2-6.4-.2 66.8z" stroke-width="3" fill="#E5E5CC" stroke="#E5E5CC"/><path d="M478.8 78.7c6.7.2 17.7.2 24.5 0 6.7-.1 1.2-.3-12.3-.3s-19 .2-12.2.3z" fill="#E5CCCC" stroke="#E5CCCC" stroke-width="3"/><path d="M143.5 531.5c0 72.6.1 102.2.2 65.7.2-36.5.2-95.9 0-132-.1-36.1-.2-6.3-.2 66.3zm328-29c0 25.8.1 36.6.2 23.8.2-12.7.2-33.9 0-47-.1-13.1-.2-2.7-.2 23.2zM649.4 590c0 9.6.2 13.6.3 8.7.2-4.8.2-12.6 0-17.5-.1-4.8-.3-.8-.3 8.8z" stroke-width="3" fill="#B2997F" stroke="#B2997F"/><path d="M162.5 224.2c-.3 2.9-.8 6.5-1.1 7.9-.5 2.8 2.8 6.9 4.1 5 .3-.6-.1-1.1-1.1-1.1-1.5 0-1.6-.9-1-8.5.7-9.4.2-11.5-.9-3.3zM463 637.7c6.3 4.7 20.1 16.6 25 21.7 3 3.1 5.8 5.6 6.2 5.6 2.2 0-24.3-23.6-30.7-27.4-3-1.7-3-1.7-.5.1zm-151.6 13c-6.7 5.9-16.3 16.6-21.6 24.2-1.5 2.1-1.9 2.3-3.5 1-1.6-1.3-1.7-1.2-.4.4.8 1 1.7 1.6 2.1 1.5.4-.2 3.5-3.7 6.8-7.9 6.8-8.6 12.2-14.3 20.2-21.1 3-2.6 5.2-4.8 4.9-4.8-.4 0-4.2 3-8.5 6.7zM564 850.6c0 .2.7 3.1 1.6 6.6 1.2 4.7 1.5 9 1.1 17.3-.3 6-.8 11.9-1.2 13l-.7 2 1.3-2c1.9-3 2.4-23.8.6-30.2l-1.4-5.2 3.6-.3 3.6-.3-4.2-.5c-2.4-.3-4.3-.5-4.3-.4zm-341.4 9.6c-.8 3-.6 19.6.2 22.6.4 1.3.7-3.8.7-11.2 0-7.5-.1-13.6-.1-13.6-.1 0-.4 1-.8 2.2zm336.7 42c-4.3 8.1-4.6 9.9-1.5 9.7 1.5-.1 1.5-.2-.1-.6-1-.3-1.7-.8-1.5-1.1.2-.4 2-4 4.1-8.1 2.1-4 3.7-7.4 3.5-7.6-.2-.2-2.2 3.3-4.5 7.7z" stroke-width="3" fill="#7F4C33" stroke="#7F4C33"/><path d="M468.5 80c-.3.5-2.1 1-3.8 1-10.2.1-25.1 5.6-32.1 12-5 4.5-6.6 8.5-6.6 16.3 0 5.9 2.3 15.5 4 16.7.4.3 1.5 2.2 2.3 4.2 1.8 4.4 7.6 9.8 12 11.4 3.6 1.3 10.8 0 12-2.2.4-.8 1.3-1.4 2-1.4 1.5 0 6.9-6.1 14.5-16 3.1-4.1 6.1-8 6.7-8.6.5-.7 2.4-2.9 4-5 10-12.6 21.7-21 31.1-22.2 5-.6 5.9-1 6.2-2.8.3-1.9-.3-2.3-4-2.9-7.4-1.2-47.6-1.7-48.3-.5zm-283.8 98.1c-5.5 1.1-9.4 4.2-12.1 9.6-1 2.1-2.2 4.5-2.6 5.4-.5.9-1.6 6.6-2.5 12.5-.9 6-2.1 11.8-2.6 12.9-.5 1.1-1 5.4-1.1 9.5-.3 7.2-.2 7.5 2 7.8 1.3.2 2.9-.1 3.6-.7 3.4-2.9 42.8-3.1 48.3-.3 1 .6 4.4 1.7 7.6 2.7 3.2.9 6.7 2.4 7.7 3.3 1 .9 3.1 2.6 4.6 3.7 1.5 1.1 3.8 3 5.1 4.2 1.3 1.3 2.8 2.3 3.3 2.3.9 0 5-7.9 5-9.8 0-.6 2.4-5.7 5.2-11.4 4.9-9.7 5.3-10.8 5.3-17.8 0-6.9-.3-7.9-3.4-12.5-4.8-7-9.4-10.6-14.6-11.6-2.5-.5-6.4-1.7-8.7-2.8-2.4-1-7-2.4-10.3-3.1-3.3-.7-6.4-1.6-7-2-1.2-.9-18.9-3-24.2-2.9-2.1.1-6 .5-8.6 1zm400.8.5c-1.6.3-5 1.3-7.5 2.3-7.8 3.3-17.4 6.3-21.5 6.9-7 .8-17.4 10.5-19.5 18.1-2.5 8.9-.5 16.7 8.7 34.6 3.8 7.5 4.6 8 8.2 6.5 1.7-.7 3.1-1.5 3.1-1.9 0-.3 2.1-1.5 4.8-2.5 2.6-1.1 4.9-2.3 5.2-2.7 3.4-5 60.2-4.8 65.5.2 1.1 1.1 7.2 1.2 7.9.1.5-.8-.2-4.1-3.8-18.7-8.3-33.8-8.5-34.3-17.2-39.4-5.8-3.3-6.2-3.4-18.4-3.7-6.9-.1-13.8 0-15.5.2zM309.3 546.8c-4.5 2.9-14.5 13.8-16.9 18.4-.8 1.6-1.8 2.8-2.2 2.8-.5 0-1.8 1.9-3 4.2-1.2 2.4-3.7 7-5.6 10.4-1.8 3.3-3.9 7.8-4.6 10-.7 2.1-1.6 4.3-2 4.9-1.1 1.4-4 15.7-4 19.8 0 1.8-.5 3.8-1.1 4.4-.7.7-.9 2.9-.6 5.5 1.3 11 3.8 23.2 5.5 27 1 2.4 2.5 5.9 3.3 7.8.7 1.9 3.1 6.1 5.2 9.2l3.9 5.7 5.6-7.2c12.3-15.8 28.8-29.4 47-38.9 1.9-.9 4.8-2 6.5-2.4l3-.6-2.9-1.3c-3.5-1.5-8.2-6.5-11.3-12-3.2-5.6-6-18.5-8.2-37.5-2-18.6-4-26.2-7.7-30.3-3.2-3.3-4.5-3.3-9.9.1zm166 .7c-3 2.1-4.4 7.2-5.3 19.4-1.6 21.1-4.5 40.6-6.1 41.7-.5.3-.9 1.2-.9 2.1 0 5.2-9.3 17.2-13.5 17.4-1.9.1-1.9.2 0 .6 2.9.8 16.3 9.1 22 13.6 2.8 2.2 8.9 7.8 13.6 12.4l8.5 8.4 10.8-.3c8.5-.2 11.1-.6 11.7-1.8 5-9.5 6.9-18.8 6.9-34 0-10.9-2.2-27.8-3.8-29-.4-.3-1.6-3-2.6-6-1.1-3-2.2-5.7-2.5-6-.4-.3-1.5-2.4-2.5-4.8-1.1-2.3-2.2-4.2-2.5-4.2-.3 0-1.5-1.8-2.5-4-1.1-2.2-2.2-4-2.5-4-.4 0-1.5-1.4-2.5-3.2-2.2-3.7-3.6-5.4-9.6-12-6.8-7.6-12-9.6-16.7-6.3zm-148 269.1c-4.1 2.4-4.3 2.7-4.3 7.4 0 4.1.5 5.4 2.7 7.5 4.2 3.8 8.6 5.5 14.5 5.5 6.1 0 7.8-1.1 7.8-5.2 0-5.3-4.1-11.5-10.2-15.4-4.7-3-5.3-3-10.5.2zm132.3-.3c-4.6 2.6-10.7 11.4-10.8 15.8-.1 3.6.1 3.8 4.5 4.6 5.7.9 11.9-.5 15.6-3.6 2.8-2.3 3.4-3.6 3.9-7.9.4-4.8.2-5.4-2.8-8.2-3.7-3.5-5.1-3.6-10.4-.7zM622 842c-3.7 2.2-11.2 5.1-19 7.4-9.1 2.8-23.8 4.8-24.6 3.4-.3-.4-3.1-.8-6.4-.8h-5.8l1.1 4.2c1.4 5.8 1.3 25.1-.2 31.2-.6 2.7-3.1 8.7-5.4 13.5-2.3 4.7-4.3 8.9-4.5 9.2-.5 1 11.8 2.9 18.9 2.9 6.9 0 22.4-1.7 24.9-2.7 4.6-1.9 14.8-5.5 17-6 3.6-.8 8.5-4.7 11.1-8.9 2.1-3.5 2.2-4.2 1.6-22.1-.3-11-1-19-1.6-19.6-.6-.6-1.1-2.3-1.1-3.8 0-7.8-1.9-10.3-6-7.9zm-461.6.8c-1.7 1-3.7 28.2-3.3 42.4.4 11.3.5 11.8 3.3 14.7 1.7 1.7 3.5 3.1 4.2 3.1.6 0 1.7.6 2.3 1.4.7.8 4.4 2.2 8.4 3.1 4 1 7.8 2.3 8.6 2.9.9.7 7.7 1.1 19.5 1.1 15.3 0 18.6-.3 21.1-1.8 1.7-.9 3.5-1.7 4.2-1.7 2.1 0 2.5-1.9.9-4.7-7.9-14.1-9.9-27.8-7-46.2l.7-4.1h-10.4c-10.9 0-26-1.6-29.4-3-1.1-.5-4.2-1.6-7-2.4-2.7-.8-6.9-2.4-9.2-3.5-4.6-2.3-5.2-2.4-6.9-1.3z" stroke-width="3" fill="#664C19" stroke="#664C19"/><path d="M523.2 627.5c0 8.4.1 8.7 1 4.2.5-3 .5-6.5-.1-9-.8-3.7-.9-3.1-.9 4.8zm-58.1 10.7c.8.7 3.7 3.1 6.5 5.2 2.7 2.2 7.1 6 9.9 8.5 3.2 3 3.9 3.4 2 1.2-3.1-3.5-15.9-14.2-18.5-15.5-1.2-.6-1.2-.5.1.6zM200.3 912.7c2.6.2 6.7.2 9 0s.2-.3-4.8-.3c-4.9 0-6.8.1-4.2.3z" stroke-width="3" fill="#7F4C19" stroke="#7F4C19"/><path d="M321.5 493c0 30 .1 42.2.2 27.2.2-14.9.2-39.5 0-54.5-.1-14.9-.2-2.7-.2 27.3zm327.9 162.5c0 8.8.2 12.3.3 7.7.2-4.6.2-11.8 0-16-.1-4.2-.3-.5-.3 8.3z" stroke-width="3" fill="#CCB299" stroke="#CCB299"/><path d="M650.4 656c0 8 .2 11.2.3 7.2.2-3.9.2-10.5 0-14.5-.1-3.9-.3-.7-.3 7.3zm-390.9 33.1c-3.3.5-6.9 1.3-8 1.8-1.1.5-3.8 1.5-6 2.2-5.8 1.7-14.7 7.3-18.9 11.9-9.1 10.1-4.4 15.6 12.3 14.7 15.2-.8 27.1-3.4 27.1-5.8 0-1.4 12.2-23.3 13.2-23.7.4-.2.8-.8.8-1.3 0-1.1-12.2-1-20.5.2zM513 689c0 .7.8 2.4 1.8 3.8 1 1.5 4.2 7.5 7.1 13.3l5.3 10.6 9.8 1.7c11.9 2.2 26.3 2.5 30.8.7 6.1-2.5 5.1-8-3-15.8-8-7.8-24.6-13.5-42.5-14.8-6.8-.5-9.3-.3-9.3.5zm-149 99.1c-5.8.5-14.8 1.8-20 2.8-5.2 1.1-11.7 2.3-14.5 2.7-2.7.4-6.1 1.1-7.5 1.6-1.4.6-5.6 1.8-9.5 2.8-6.4 1.7-18.2 5.7-23 7.9-24.6 11-37.1 20-48.2 34.6-9.5 12.5-12.7 25.7-9.9 40.4 1.6 8.9 5.7 18.7 10.3 24.8 8.2 11.2 15.1 18.8 21.6 24 8.4 6.7 16.2 12.3 17.3 12.3.4 0 1.5.6 2.3 1.4 4.5 3.9 35.4 17.6 39.7 17.6 1.2 0 5.9 1.1 10.5 2.4 4.6 1.3 15.2 3.7 23.4 5.2 13.7 2.5 17.1 2.7 39 2.8 15.2 0 26.2-.5 30-1.3 3.3-.6 9.9-1.9 14.7-2.6 14.1-2.4 35.2-8.5 45.8-13.2 45.7-20.5 74-52.2 74-82.8 0-27.7-26.6-54.2-69.5-69.4-14.5-5.2-22.7-7.2-47.5-12-15.2-2.9-55.5-3.9-79-2zm-22 28.6c4.3 3.7 9 12 9 15.9 0 7.8-17.3 8.6-25.9 1.3-3.1-2.5-3.5-3.5-3.9-8.8-.4-5.7-.3-6.1 2.9-9 5.4-4.9 11.7-4.7 17.9.6zm131.3.5c4.4 5.2 3.2 12.4-2.9 17.7-3.3 2.9-7.4 4.1-13.9 4.1-7 0-9.5-1.9-9.5-7.3 0-7.2 8.5-17.9 15-18.9 4.2-.6 8.4 1 11.3 4.4zm-157.5 80.5c13.3 22.3 39.7 37.2 69.4 39.2 15.2 1.1 34.3-.2 42.8-2.9 3.4-1.1 6.7-2 7.2-2s4.2-1.4 8.1-3.1c15.2-6.7 26.2-16 34.8-29.4 2.1-3.3 4.3-6.6 4.9-7.3 1.7-2 5.8-1.4 7.1.9.9 1.8.7 2.9-1.2 6.3-5.7 10.2-19 24.6-27.9 30.2-12.6 7.8-24 12-40.9 14.9-17.6 3-27.6 3.1-43.5.5-24.5-4.1-40.7-12-55.7-26.9-11.7-11.7-17.8-22.1-15-25.5 2.9-3.4 5.7-1.9 9.9 5.1zM508.4 1153c0 6.9.1 9.7.3 6.2.2-3.4.2-9 0-12.5-.2-3.4-.3-.6-.3 6.3z" stroke-width="3" fill="#FFFFE5" stroke="#FFFFE5"/><path d="M649.5 486c0 32.2.1 45.3.2 29.2.2-16 .2-42.4 0-58.5-.1-16-.2-2.9-.2 29.3z" fill="#B27F66" stroke="#B27F66" stroke-width="3"/><path d="M649.4 623.5c0 9.3.2 13.3.3 8.8.2-4.5.2-12.2 0-17-.1-4.8-.3-1.2-.3 8.2z" fill="#CC997F" stroke="#CC997F" stroke-width="3"/><path d="M314.5 493c0 27.8.1 39.1.2 25.2.2-13.8.2-36.6 0-50.5-.1-13.8-.2-2.5-.2 25.3zm328 119c0 38.2.1 53.9.2 34.7.2-19.1.2-50.3 0-69.5-.1-19.1-.2-3.4-.2 34.8z" stroke-width="3" fill="#B27F4C" stroke="#B27F4C"/><g fill="#963" stroke="#963" stroke-width="3"><path d="M415.5 117.7c-8.6 4.1-9.6 4.8-16.5 9.9-10.5 8-20.7 20.6-26.2 32.6-1.6 3.7-1.9 3.8-7 3.9-2.9 0-7.3.4-9.8.8l-4.5.8 4.3.2c4.7.1 5.7 2 2 4-2.1 1.1-2.1 1.1.7.6 1.7-.3 14.5-.8 28.5-1.1 28.7-.7 49.1.8 71.1 5 12.3 2.4 35.4 8.3 41.4 10.6 1.6.6 5.9 1.5 9.5 2 8.1 1 29 9.6 29 11.9.1.9.7.1 1.5-1.7.8-1.7 2-3.2 2.7-3.2.7 0-1.4-1.3-4.7-3-3.3-1.6-7.5-3-9.3-3-1.8 0-4.9-.7-7-1.6-9-3.7-29.2-10-47.2-14.5-11-2.7-37-6.9-48.5-7.7-7.6-.6-9-1-9.3-2.5-.6-3.2 5.1-12.9 11.3-19.4 5.9-6.1 6-6.3 4.3-8.4l-1.8-2.1-6.4 6.4c-4.8 4.8-7.4 8.6-10.7 15.5l-4.4 9.2-14.7.1c-11.6 0-14.8-.3-14.8-1.3 0-2.1 6.6-12.5 11.6-18.3 2.4-2.9 7.2-7.5 10.7-10.2 7.6-6 21.5-13.5 23.9-12.9 1.8.5 1.7.3-2.6-5.9-.1-.1-3.2 1.4-7.1 3.3zm-83.2 55.7c-3.4.6-6.5 1.4-6.9 1.8-1 1.1-.1 1 9.6-1.1 9.2-2.1 7.3-2.6-2.7-.7zm-68.8 14.7c-2.8.4-6 1.2-7.2 1.9-2 1.3-2 1.3-.1 3.2 1 1 1.7 2.2 1.4 2.6-.3.5 2.3-.6 5.8-2.3 3.4-1.6 8-3.7 10.1-4.6l4-1.6-4.5.1c-2.5.1-6.8.4-9.5.7zM160 233c0 .3-1.2 7.7-2.6 16.5-2.8 18.2-7 50.2-8.4 65-4.3 45.3-4.4 51.3-4.8 214.5l-.3 157.5 2.6 18c1.5 9.9 3.3 20.5 4.2 23.5 5.2 18.6 10.8 34.8 15.4 44.6 2.2 4.7 2.3 8.9.3 20.4-.7 4.7-2.3 15.5-3.3 24-1.1 8.5-2.3 17.2-2.6 19.2-.4 3.1-.2 3.8 1.2 3.8.9 0 2.4.7 3.3 1.5 1.5 1.4 1.6 1.2 1.2-1.4-.6-4.1 3.4-33.7 9.2-67.1 1.8-10.3 2.2-14.8 1.4-15.7-1.9-2.3-3.6-1.4-4.8 2.4-.6 2.1-1.4 4.4-1.6 5.2-.7 2-1.2 1.1-4.5-7.5-7.6-20-12.6-40.6-14.9-60.9-1.3-12-1.3-307.2 0-333.5 1.8-36 8.8-99 13.3-119.6 1.1-5.3 1.1-6.1-.2-6-.8.1-2.1-1-2.8-2.4-.7-1.4-1.3-2.3-1.3-2zm474.6 9c1.8 2.4 2.2 5 4.8 31 4.1 40.1 4.7 61.7 4.2 170-.3 83.8-.2 89.6.4 35 .4-36 .8-66.3.9-67.3.1-1.1.9-1.7 2.6-1.7h2.5v-36.3c0-41.3-3-93.4-6.7-117.5-1.6-9.8-2-11.2-3.7-11.2-1.1 0-2.9-.8-4-1.8-1.3-1.1-1.7-1.2-1-.2zm-82.8 7.7c-2.7.4-2.7.4-1.3 4.3 3.8 10.7 6.8 31.5 7.4 51l.6 19.5h2.5c2.1 0 2.6-.6 3.2-4 1.1-5.8-.1-27-2.3-41.5-1.9-12.8-5.9-30.1-6.9-29.9-.3.1-1.7.4-3.2.6zm-310.2 2.2c-1.5 2.4-6.8 25.5-8.1 35.5-1.9 14.9-2.9 31.7-2.1 35 .5 2.1 1.2 2.7 2.9 2.4 2.1-.3 2.2-.9 2.8-12.3.4-6.6 1.4-17.2 2.3-23.5 1.9-12.9 7.2-34.8 8.9-36.9 1-1.2.9-1.2-1-.1-1.7 1.1-2.4 1.1-3.6.1-1-.7-1.7-.8-2.1-.2zm132.9 82.2c-13.1 1.9-27.4 8.8-36.3 17.7-7.2 7.2-12.5 16.9-16.3 29.7-5.6 19.2-6.2 28.6-6.8 98.7-.4 36.5-.2 63.3.3 62.8s1.8-.5 3.1 0l2.3.9.5-67.7c.3-40.1.9-69.7 1.5-72.7.6-2.8 1.8-8.8 2.7-13.4 1.5-8.2 2.2-10.1 7.1-20.8 9.7-20.6 31.5-31.3 63.6-31.3 15.3 0 32.5 3.3 41.6 7.9 9.4 4.7 18 13.4 22.6 22.7 2.1 4.4 4.2 8.7 4.7 9.6 1.5 3 3.1 10.9 4.1 20.8.5 5.2 1.3 13.3 1.8 18 .4 4.7.9 35.9.9 69.4l.1 60.9 2.3-2.1c1.3-1.2 2.5-2 2.8-1.8.2.2.1-30-.2-67.2-.6-72.7-.8-75.1-6.3-95.7-3.3-12.3-5.5-17.1-11.2-24.1-5.5-6.8-6-7.3-13.2-12-7.1-4.7-16.9-8.3-27.2-10-9.3-1.5-34.7-1.7-44.5-.3z"/><path d="M648.6 421.2c-.3 1.3-.6 36.2-.6 77.5V574h-4.9l-.4 60.7c-.4 60.2-.4 60.9-2.9 74.8-1.5 7.7-3.7 18-5.1 23-1.4 4.9-2.4 9.2-2.1 9.4.2.2.4-.1.4-.7 0-.7 1.3-1.2 3-1.2 2.6 0 3-.5 3.8-3.8 8.9-36.2 8.5-27.7 9.1-181.7.3-74.3.5-135.1.5-135.3-.1-.1-.4.8-.8 2zM373 622.4c-6.3 1.2-12.1 2.5-12.8 3-.7.4-3.7 1.6-6.5 2.7l-5.2 1.8 5.5.2c8.4.2 11.1-.1 16.5-1.8 7.9-2.4 37.9-3 47.5-.8 4.1.9 9.6 2.1 12.1 2.5 10.5 1.9 30.6 12.5 40.7 21.5 20.7 18.5 32.6 34.1 44.7 59 12.3 25.1 17.3 39.7 23.5 69 2.2 10.5 7 40.5 7 44.1 0 1.2-2.4-.1-7.2-3.9-22.7-18.3-56.4-31.1-98.3-37.3-16.2-2.5-20.7-2.7-45.5-2.7-24.9 0-29.2.3-44.9 2.7-32.4 5-53.5 11.3-76.2 22.6-11.4 5.7-18.7 10.5-25.5 17.2-3.2 3.1-5.4 4.6-5.8 3.9-.8-1.3 2.5-22.1 6-37.3 1.3-5.9 2.4-11.7 2.4-13 0-3.2 8-27.7 12-36.7 3.4-8 3.6-11 .1-3.6-2.1 4.5-2.1 4.5-7.3 4.5-5.5 0-5.6-.8-.5-2.6 1.7-.6 3.2-1.5 3.4-2.1.2-.6-1.5-.2-3.8 1-8.6 4.2-31 3.9-46.1-.7-16.4-5.1-26.8-13.3-26.8-21.2 0-6.2 7.2-14.4 21.6-24.7 12.5-9 34.5-17.5 50.4-19.6 13.3-1.8 14.1-2 5.2-1.6l-8.4.3.5-2.4c.4-2.3.2-2.5-2.7-1.9-11 2.2-26.6 7.7-36.1 12.7-13.7 7.1-31.3 22.1-34.6 29.3-7.3 16 6.8 30.1 35.6 35.7 12.6 2.4 26 2.9 35.4 1.4l5.4-.8-.8 2.8c-.4 1.6-1.1 4.5-1.6 6.4-.4 1.9-2.5 10-4.7 18-5.8 21.3-7.1 27-10.1 48.4-2.2 15.3-3.3 20.1-5 22.5-1.2 1.6-2.8 4.6-3.6 6.5-.9 2.2-2.3 3.6-3.7 3.9l-2.3.4 2.2.2c2.3.1 2.3.1.5 4.3-1.3 3.2-1.7 7.1-1.7 15.3 0 11.5 1.8 18.4 7.8 30.5 8.6 17.5 32.3 40.1 52.7 50.2 1.9 1 4.2 2.2 5 2.7 3.2 2.1 12.2 6.1 13.7 6.1.8 0 4.2 1.1 7.6 2.4 16.8 6.4 38.6 11.7 56.7 13.7 13.4 1.5 43.4 1.5 57 0 16.3-1.8 50.7-10.1 54.6-13.2.5-.4 3.5-1.5 6.5-2.3 6.2-1.6 22.1-9.7 32.4-16.4 13.4-8.7 28.9-23.2 35.3-32.8 4.6-7.1 7.1-11.6 8.7-15.9 1-2.8 2.2-5.5 2.6-6 .4-.6 1.3-4.8 1.9-9.3 1.3-8.7.8-18.6-1.2-25.7-.6-2.2-1.2-4.2-1.3-4.5-.3-1.4-5.1-10-7.5-13.5-2.5-3.7-3-5.9-4.9-21.6-1.1-9.6-3.2-23.6-4.7-31-2.4-12.3-8.2-35.8-10-40.3-.6-1.7-.4-1.8 2.2-1.2 1.6.4 8.5 1 15.5 1.3 14 .6 24.2-.8 23.3-3.2-.5-1.1.8-1.4 6.3-1.3 5.6 0 7.9-.5 13.3-3.1 8-3.8 15.8-10.4 17.6-14.8 1.8-4.2 1.8-11.5 0-15.6-1.9-4.6-14.7-16.4-23.9-22.3-4.3-2.7-9.3-5.9-11.1-7-4.9-3.2-17.9-7.9-28.6-10.4-9.8-2.2-34.3-4.1-36.3-2.7-.7.4-4 .5-7.4.1-3.8-.4-7.5-.2-9.8.6l-3.7 1.2-9.2-8.8c-5-4.9-11.2-10.5-13.6-12.4-2.4-1.9-4.9-4.1-5.6-4.8-.7-.6-1.5-1.2-1.7-1.2-.3 0-3.6-1.8-7.3-4-3.8-2.2-7.9-4-9.1-4-1.2 0-2.3-.4-2.5-.8-.6-1.5-12.9-5.3-25.3-7.8-15.6-3-30.6-3.1-46.5 0zm180.1 51.5c10.6 2.8 24.6 8.2 25.9 9.9.3.4 3 2.3 6 4.2 3 1.9 8.2 5.8 11.6 8.6 12.5 10.2 15.6 16.3 12 23.2-3.3 6.2-10.6 10.9-25 15.9-11.6 4-26.3 5.3-38.3 3.4-10.2-1.6-12-2.6-13.9-8-.9-2.5-3.6-8.7-5.9-13.6-2.4-5-4.9-10.1-5.5-11.5-.6-1.4-2.4-4.8-4-7.5-1.6-2.8-3.7-6.6-4.7-8.5-1-1.9-4-6.6-6.6-10.4-7.6-10.7-9-9.8 15.4-9.3 19.9.5 22.2.7 33 3.6zM436.5 787.4c13.7 1.8 24.4 3.9 36 7.2 9.7 2.8 27.3 8.8 30.2 10.3 1 .5 5.6 2.8 10.3 5.1 11.8 5.9 20.7 12.1 28.8 19.9 7.1 6.8 15.6 18.9 16.8 23.8.4 1.5 1.2 3.4 1.8 4.2 1.5 1.9 1.5 25.3 0 27.2-.6.8-1.6 3.4-2.3 5.8-2.9 10.2-12.2 23.6-23.5 34-2.2 2-4.7 4.3-5.6 5.1-.9.8-3.4 2.9-5.6 4.5-3.6 2.8-5.9 4.4-16.1 10.9-7.1 4.5-33.9 16.6-36.9 16.6-.5 0-5.8 1.3-11.9 3-27.4 7.4-51.8 9.8-79.6 8-9.3-.6-17.6-1.3-18.4-1.7-.9-.3-6.8-1.6-13.3-2.9-20.6-4-33.5-7.9-47.2-14.1-7.5-3.3-14.9-7.2-18.2-9.5-1.4-1-2.9-1.8-3.2-1.8-.3 0-4.3-2.7-8.8-5.9-11.5-8.2-22.5-19.3-28.3-28.5-1-1.7-2.2-3.3-2.6-3.6-1.9-1.4-7.1-13.8-8.9-21.4-3.3-13.1-1.8-24.7 4.6-36.2 3.5-6.2 15.2-19.9 21-24.4 18-14.1 48.1-26.5 78.4-32.1 18.8-3.5 22.3-4 34-4.9 15.2-1.1 54.7-.3 68.5 1.4z"/><path d="M307.4 896c1.4 7.5 15.3 23.2 27.4 31.3 7.3 4.9 12.3 7.3 22.2 11.1 8 2.9 9 3.2 22.5 5.1 14.2 2 22.2 1.9 38-.5 24.5-3.6 40.8-11.2 55.4-25.9 12.5-12.6 18.8-24.1 13.1-24.1-1.3 0-2.4 1-3 2.5-2.6 6.8-16.7 22.4-25.1 27.8-11.3 7.2-26.2 12.7-39.5 14.7-9.2 1.3-33.8 1.3-42.7-.1-13.2-2-30.7-9.3-41.9-17.5-6.4-4.7-16.2-15.6-19.9-22.1-2.1-3.7-3.7-5.3-5.1-5.3-1.7 0-2 .4-1.4 3zm28.4-255.5c-4.2 2.5-8 5-8.4 5.6-.5.8-.3.9.7.3.8-.5 5-3 9.4-5.6 4.4-2.7 7.5-4.8 7-4.8-.6 0-4.5 2-8.7 4.5zm-17 11.7c-8 6.6-11.9 10.6-19 19.3-6.4 8-18.8 26.3-18.8 27.8 0 .6 3.3-3.9 7.4-10 12.1-18.3 18.9-25.9 35.1-39.7 1.7-1.4 2.7-2.6 2.3-2.6-.4 0-3.5 2.3-7 5.2zm290.6 104.3c-.7 1.7 1.6 14.9 2.4 14.1.2-.3-.1-3.3-.7-6.6-1.3-6.7-.9-8.4 2.1-7.4 1.4.4 1.8.2 1.4-.5-1-1.6-4.6-1.3-5.2.4zm13.9 8.6c-2.9 7.4-4.8 9.4-5.6 6.2-.3-1.1-.5-.8-.6 1-.1 2.2.3 2.8 1.6 2.5 1.6-.3 9-15.4 8-16.4-.2-.3-1.8 2.8-3.4 6.7zm-9.9 17.4c.3 1.6 1 6.5 1.7 10.8.6 4.3 1.4 7.6 1.6 7.3.7-.6-1.8-18-2.9-19.6-.6-1.1-.7-.6-.4 1.5zm5 32.5c.3 1.9 1 7.9 1.7 13.3.6 5.4 1.4 9.6 1.6 9.3.8-.7-1.9-22.9-2.9-24.6-.6-1-.8-.4-.4 2z"/></g><path d="M340.5 167.6c-6 .8-11.9 1.9-13 2.4-1.1.5-6 1.7-11 2.6-4.9.9-9.4 2-10 2.4-.5.4-4.4 1.5-8.5 2.5s-7.9 2.1-8.5 2.5c-.5.4-3.5 1.5-6.6 2.4-3.1.9-6.9 2.3-8.5 3.1-1.6.8-3.5 1.5-4.3 1.5-.8 0-1.2.2-.9.5.8.8 17.9-1.3 19.2-2.4.6-.5 4.3-1.7 8.1-2.7 3.9-.9 7.5-2 8-2.4.6-.4 5.1-1.5 10-2.5 5-.9 9.9-2.1 11-2.6 2.3-1 21.8-3.9 26.3-3.9 3.9 0 8.2-1.9 8.2-3.7 0-1.6-4.7-1.6-19.5.3zm304.1 259.6c-.3 10.1-.7 47.2-1 82.5l-.4 64.3h4.8l.4-76.8c.2-42.2.7-79.3 1.1-82.5.7-5.6.6-5.7-1.8-5.7h-2.5l-.6 18.2zM344.3 630.6c-4.8 1.7-17 8.9-24.4 14.4-8.3 6.2-17 14.7-24.1 23.5-5.2 6.5-6.9 9.1-12.9 20-1.2 2.2-2.5 4.2-2.9 4.5-.4.3-2.7 4.3-5.1 9-2.4 4.7-4.7 8.7-5 9-.6.6-6.9 13.6-6.9 14.4 0 .3-1.1 3-2.5 6-2 4.4-3.1 5.6-5.5 6.1-5 1.1-4.5 2.5.9 2.5h5.1l3.1-6.8c4.9-10.5 7.8-16.9 8.9-19.4.6-1.3 2.4-4.6 4-7.3 1.6-2.8 3.4-6.1 4-7.5 3.2-7.2 21.1-31.3 28.4-38.5 12.9-12.6 32.4-24.9 46.1-29l4-1.3-6-.3c-3.2-.2-7.4.1-9.2.7zm140.8 26.8c8.4 8.6 8.8 8.8 11.5 7.7l2.9-1.1-3 .4c-2.6.4-4-.5-11.5-7.7l-8.5-8.2 8.6 8.9zm-229.6 6.5c-3.2.5-4.1 1.1-4.3 2.9-.3 2.2-.1 2.3 4 1.7 2.4-.3 8.7-.7 14-.8 5.4-.1 9.8-.4 9.8-.7-.1-.3-.7-1.3-1.4-2.3-1.1-1.4-2.8-1.7-9.7-1.6-4.6.1-10.2.5-12.4.8zm376.6 79.8c-.6 2.1-1.1 4.2-1.1 4.8 0 .5-.6 2.2-1.4 3.7-.8 1.4-2 4.3-2.6 6.5-2.6 7.7-7 16.3-8.3 16.3-1 0-1.8-2.6-2.7-8.9-.9-6.3-1.7-9.2-2.8-9.6-.8-.3-1.9-.2-2.4.3-.8.8 1.4 17.7 3.3 24.2 1.1 3.7 4 24 6.7 45.7 1.6 12.9 1.7 13.3 4 13.3s2.4-.3 1.9-4.3c-.4-2.3-.9-7.4-1.2-11.2-.4-3.9-1-7.9-1.5-9-.5-1.1-1.6-8.4-2.5-16.2l-1.7-14.1 3-6.4c5.7-12 8-17.3 9.3-21.8.7-2.5 1.6-4.7 1.9-5 .3-.3 1.3-3.1 2.2-6.3l1.5-5.7h-2.3c-1.8 0-2.5.8-3.3 3.7z" stroke-width="3" fill="#994C33" stroke="#994C33"/><path d="M237.3 315c0 4.7.2 6.6.4 4.2.2-2.3.2-6.1 0-8.5-.2-2.3-.4-.4-.4 4.3zm154.5 17.7c2.9.2 7.4.2 10 0 2.6-.2.2-.3-5.3-.3s-7.6.1-4.7.3z" stroke-width="3" fill="#B2664C" stroke="#B2664C"/><path d="M386.3 161.7c4.2.2 11.2.2 15.5 0 4.2-.1.7-.3-7.8-.3s-12 .2-7.7.3zm2 8c3.7.2 9.7.2 13.5 0 3.7-.2.6-.3-6.8-.3-7.4 0-10.5.1-6.7.3zm169.1 142.8c0 6.6.1 9.2.3 5.7.2-3.4.2-8.8 0-12-.2-3.1-.3-.3-.3 6.3zm85 20c0 5.5.1 7.6.3 4.7.2-2.9.2-7.4 0-10-.2-2.6-.3-.2-.3 5.3zm1 45c0 12.1.2 16.9.3 10.7.2-6.2.2-16.1 0-22-.1-5.9-.3-.8-.3 11.3zm-492.9 149c0 75.3.1 106 .2 68.2.2-37.9.2-99.5 0-137-.1-37.5-.2-6.6-.2 68.8zm492-50c0 36.8.1 51.8.2 33.2.2-18.6.2-48.8 0-67-.1-18.3-.2-3.1-.2 33.8zm-164 16c0 44.6.2 51 1.5 51.1.8 0 1-.1.3-.3-1-.3-1.3-11.9-1.6-51.1l-.2-50.7v51zM525.4 627c0 5.2.1 7.4.3 4.7.2-2.6.2-6.8 0-9.5-.2-2.6-.3-.4-.3 4.8zm-133.6-.3c2.9.2 7.4.2 10 0 2.6-.2.2-.3-5.3-.3s-7.6.1-4.7.3zM500 671.9c0 .6.5 1.3 1.2 1.7.7.4.8.3.4-.4-.5-.8 1.9-1.2 7.6-1.5l8.3-.3-8.7-.2c-5-.1-8.8.2-8.8.7zm-269.7 66.8c2.6.2 6.8.2 9.5 0 2.6-.2.4-.3-4.8-.3s-7.4.1-4.7.3zm154.5 40c5.6.2 14.8.2 20.5 0 5.6-.1 1-.3-10.3-.3s-15.9.2-10.2.3z" stroke-width="3" fill="#CC7F4C" stroke="#CC7F4C"/><path d="M390.8 162.7c2.9.2 7.4.2 10 0 2.6-.2.2-.3-5.3-.3s-7.6.1-4.7.3zM477.5 492c0 28.3.1 39.9.2 25.7.2-14.1.2-37.3 0-51.5-.1-14.1-.2-2.5-.2 25.8z" stroke-width="3" fill="#B26633" stroke="#B26633"/><g fill="#C96" stroke="#C96" stroke-width="3"><path d="M420.3 122.8c-13.9 5.7-29 19.1-37.2 32.9l-3 5.3h13.8c14.8 0 15.4-.2 16.6-5.3 1.1-4.4 8-14.2 13.9-20l5.5-5.3-2.2-4.7c-1.2-2.5-2.4-4.6-2.7-4.6-.3 0-2.4.8-4.7 1.7zM372 170.3c-.3.3-7.6 1.3-16.4 2.2-8.7.9-18.2 2.3-21 3-2.8.7-8.5 1.8-12.6 2.5s-8.8 1.8-10.5 2.5c-1.6.6-4.8 1.5-7 1.9-2.2.4-7.1 1.9-10.9 3.2-3.8 1.3-8.7 2.4-10.9 2.4-2.1 0-6.9 1.3-10.7 3-3.8 1.6-7.2 3-7.7 3s-1.9.7-3.1 1.6l-2.2 1.5 2.3 3c1.9 2.6 2.2 4.3 2.2 11.7 0 8.6-.1 8.8-5.7 20.1-3.2 6.2-5.8 12.3-5.8 13.5 0 1.2-.6 3-1.4 4.1-4.2 6.2-11 41.1-12.2 62.3-.6 11.7-.9 13.4-2.6 14.3-1.5.8-2.4.6-4-.8-2-1.7-2-2.5-1.4-16.8.9-19.9 4.3-40.4 8.8-52.9 1.5-4.1 1.8-6.1 1-6.4-.6-.2-2.8-1.7-4.8-3.3-6.6-5.2-9.7-6.6-19.9-9-7.6-1.7-12.7-2.3-21.5-2.2-11.1.1-25.3 2.2-27.1 4-.5.5-1.5 5.1-2.3 10.3-3.6 22.3-5.6 37.2-6.6 47.5-.6 6-1.7 16.4-2.5 23-3.6 30.3-4 53.9-4 214.5 0 122.5.3 159.6 1.3 167 1.5 11 5.9 32.3 7.4 36 .6 1.4 1.9 5.2 2.9 8.5s2.9 8.9 4.2 12.5l2.5 6.4.7-4.2c.5-3.4 1.2-4.3 3.2-4.8 1.6-.4 3-.1 4 .9 1.4 1.3 1.4 2.6.4 9.9-.7 4.5-1.8 10.8-2.6 13.8-.7 3-1.8 9.8-2.4 15-.7 5.2-1.8 12.9-2.6 17-1.4 7.8-3.8 29.1-3.3 29.4 1.5.9 11 4.7 13.8 5.5 7.9 2.4 21.2 4.1 32.1 4.1h11.7l4.6-8.2c4.3-7.6 4.7-8.9 5.7-18.7 2-19.5 8.9-52.1 14.4-67.6.7-2.2 1.6-5.9 2-8.3.5-4.2.5-4.3-1.7-3.6-1.3.4-8.1.7-15.3.6-12.4-.1-18.3-1-34.5-5.2-9.3-2.4-21.4-11.7-23.9-18.3-2.9-7.7-.3-17.3 6.5-24 5.3-5.2 16.1-14 20.4-16.6 13.9-8.2 19.9-10.7 40.3-16.8 6.1-1.8 17.4-3.2 25.5-3.3 6.2 0 7.7-1.1 5.2-3.6-.5-.5-2-4.6-3.2-8.9-1.8-6.5-2.3-10.5-2.3-21.5 0-18.4 2.6-29 11.2-45.5 2.7-5.2 8.3-14.6 9.3-15.5.3-.3 1.8-2.5 3.3-4.8 4-6.1 15.1-17 18.1-17.8l2.6-.6v-43.2c0-45.1 2-92.7 4.4-105.1 1.7-9 5.1-21.2 6.3-22.8.5-.6 1.6-2.8 2.3-4.7 4.1-10.3 14.8-21.4 26.5-27.2 12.5-6.4 32.2-9.5 52-8.3 23.2 1.4 38.2 6.8 50.4 18.1 6.4 5.9 12.8 15.4 13.8 20.6.3 1.8 1.2 4.5 1.9 5.9 1.1 2.3 2.9 9.7 5.5 23.4 1.8 9.8 2.9 43.7 2.9 93.2 0 44.3.2 50.3 1.5 50.3 7.4 0 26.3 22.5 35 41.5 2 4.4 4.1 8.9 4.7 9.9.6 1.1 2 6 3.1 11 3.8 16.6 2.4 39.6-3.2 51.8l-2 4.3 9.2.8c10 .9 34.6 5.4 36.2 6.7.6.4 3.3 1.5 6.2 2.4 4.7 1.6 13.8 6.7 26.4 15 2.4 1.6 7.8 6.3 12.1 10.5 5.8 5.9 7.9 8.7 8.8 12.1 3.1 11.4-3.9 22.2-19 29.1-7.6 3.5-32 8.8-40.5 8.9-2.2 0-7.4-.6-11.5-1.4-4.1-.8-7.6-1.3-7.8-1.1-.2.2.5 3.4 1.7 7.2 1.1 3.7 2.6 9.3 3.2 12.3.6 3 1.7 7.3 2.4 9.5s1.8 8 2.5 13c.7 4.9 1.6 10 2.1 11.1.4 1.2 1.5 9.4 2.4 18.3l1.7 16.1 4.9 8.2c2.7 4.5 5.5 8.6 6.2 9 .7.4 2.8.8 4.7.8 1.9 0 4.9.4 6.5.8 5.8 1.7 24.1-1.9 37-7.2l6-2.5-.1-5.3c-.1-7.3-9-67-10.7-71.8-1.8-5-1.7-7 .5-9 2.7-2.5 2.9-2.5 5.5 0 1.5 1.3 2.4 3.8 2.8 7.7 1 8.2 2 9.5 3.5 4.7.7-2.1 1.8-4.8 2.4-5.9.7-1.1 1.8-4 2.5-6.5s1.9-5.9 2.6-7.5c3.9-8.8 10.7-38.6 12-53 1.8-20.2 2.4-355.6.6-386.5-1-17.5-2.6-33.7-5.9-59.9l-.7-5.5-5.5-1.3c-10.8-2.7-15.7-3.3-28-3.5-19.8-.3-25.2.6-35 5.5l-8.5 4.2.3 3.9c.2 2.2 1 5.8 1.8 8 .7 2.3 2.1 9.3 2.9 15.6.9 6.3 2 14.5 2.5 18.2.6 3.7 1 11.8 1 18.1 0 10-.2 11.6-2 13.5-2.4 2.5-2.9 2.6-5.2.8-1.5-1.1-1.8-3-1.8-12.2 0-15.7-1.7-32.1-4.6-46.4-2.1-10-3.8-14.9-8.6-24.8-7.2-15-7.6-16-9.3-24.1-1.2-5.7-1.1-7 .5-13 1-3.6 1.8-6.6 1.7-6.7-.8-.6-11.5-5.4-12.1-5.4-.4 0-2.8-1-5.4-2.1-2.6-1.2-7.7-2.5-11.3-2.9-3.6-.4-7.5-1.2-8.6-1.9-2.5-1.3-23.4-6.6-41.8-10.6-13.7-2.9-35.1-4.8-60-5.2-13.8-.3-25.2-.2-25.5 0z"/><path d="M384 627.5c-.8.2-5.5.9-10.5 1.5-13.4 1.8-28.8 8.2-44.3 18.2-13.2 8.6-31 28-41.9 45.8-4.6 7.5-12.9 22.7-14.2 26-.8 1.9-1.8 3.9-2.1 4.5-.7.9-6.7 15.1-10.5 24.5-2.7 6.9-7.6 23.5-8.5 28.9-.9 6.3-4.4 23.3-6 30.1-.6 2.5-1.4 7.4-1.7 10.9l-.6 6.4 3.6-2.7c2.1-1.6 3.7-3.2 3.7-3.5 0-2.5 30.2-18.9 40.5-22.1 2.2-.7 4.5-1.6 5-2 .6-.4 4.4-1.8 8.5-3 30.9-9.1 63.8-13.5 95.4-12.7 17.7.4 41.4 2.5 51.7 4.6 37.6 7.6 65.4 18.8 85.9 34.7l7.2 5.5-.6-3.8c-6.5-43.8-11-63-20-85.8-9.9-25.1-20.4-43.6-33.7-59.7-22.5-27.2-45.2-41.2-73.6-45.2-9.6-1.4-28.7-2-33.3-1.1zm-43.2 113.6c19.4 4.1 15.4 32.9-4.6 32.9-11.6 0-19.5-12.2-15.2-23.6 1.7-4.2 6.2-8.3 10.5-9.3 2.2-.5 4.1-.9 4.2-1 .1-.1 2.4.4 5.1 1zm118.4 1.5c7.4 3.8 10.4 16.3 5.6 23.4-4.1 5.9-7.2 7.5-14.6 7.5-5.6 0-7.3-.4-10-2.5-4-3-7.2-9.1-7.2-13.7 0-4 2.8-9.9 6.2-13 4.4-4.1 13.6-4.9 20-1.7zm-196.7-72.9c-5.5.5-27.8 5.3-29 6.3-.5.4-2.8 1.3-5 2-14.9 4.7-41 23.5-44.5 32s4.9 17.6 21.7 23.4c9.7 3.4 21.7 4.9 33.6 4.3 13-.7 16.9-1.8 18.4-5.4.6-1.6 2.3-5.4 3.6-8.5l2.4-5.7-3.1.5c-1.7.3-5.1 1.1-7.6 1.7-2.5.7-9.4 1.2-15.5 1.2-9.9 0-11.3-.2-14.2-2.3-5.3-3.7-4.2-9.4 3-16.6 4.5-4.3 13.2-9.8 17.7-11.1 1.4-.3 3.9-1.3 5.5-2 6.4-2.8 30.9-4.6 31.8-2.3.3.8.6.6.6-.5.1-1 1.1-3.1 2.3-4.7l2.1-2.9-2.9-4.3c-1.6-2.4-3.3-4.6-3.9-5-1-.8-9.4-.8-17-.1zm246.8 2-8.2.4 5.1 7.4 5 7.5h9.2c9.3 0 21.2 1.5 23.1 2.9.5.4 3 1.3 5.5 2 9.8 2.8 22.2 12.7 24 19.2 2.4 8.4-1.8 10.9-18.2 10.8-10.8 0-15.8-.6-24-2.7-2.1-.6-3.6-.7-3.4-.3 1.2 2.1 5 11 5.6 13.1.9 3.4 4 4.7 14.9 6 27.1 3.3 61.1-9.7 61.1-23.3 0-6.1-8.7-15.2-24.9-25.9-9.7-6.4-13.7-8.4-23-11.5-14-4.6-32.2-6.5-51.8-5.6z"/></g><path d="M650.4 377c0 5.8.1 8.1.3 5.2.2-2.8.2-7.6 0-10.5-.2-2.8-.3-.5-.3 5.3zm-1 181.5c0 8.2.2 11.5.3 7.2.2-4.3.2-11 0-15-.1-4-.3-.5-.3 7.8z" stroke-width="3" fill="#B29966" stroke="#B29966"/><path d="M313.5 496c0 26.1.1 36.8.2 23.7.2-13 .2-34.4 0-47.5-.1-13-.2-2.3-.2 23.8zm327.9 159.5c0 8.8.2 12.3.3 7.7.2-4.6.2-11.8 0-16-.1-4.2-.3-.5-.3 8.3zM150.3 671c0 4.7.2 6.6.4 4.2.2-2.3.2-6.1 0-8.5-.2-2.3-.4-.4-.4 4.3z" stroke-width="3" fill="#CC7F66" stroke="#CC7F66"/><path d="M551.8 721.7c2.3.2 6.1.2 8.5 0 2.3-.2.4-.4-4.3-.4s-6.6.2-4.2.4z" fill="#E5B27F" stroke="#E5B27F" stroke-width="3"/><path d="M390.3 786.7c2.6.2 6.8.2 9.5 0 2.6-.2.4-.3-4.8-.3s-7.4.1-4.7.3zm131.1 364.8c0 6.6.1 9.2.3 5.7.2-3.4.2-8.8 0-12-.2-3.1-.3-.3-.3 6.3z" stroke-width="3" fill="#FFE5CC" stroke="#FFE5CC"/><path d="M330.5 743.4c-4.4 1.9-8.5 7.1-8.6 10.9-.3 8.4 1.5 12.7 6.4 15.8 5 3.1 14.6 2.3 18.7-1.6 12.3-11.8-.9-31.9-16.5-25.1zm17.3 5.3c2.7 3.6.9 9.7-3.2 10.7-5.7 1.4-9.7-2.9-8.2-8.9 1.1-4.5 8.4-5.6 11.4-1.8zm97.5-6c-3.5.7-8 5.5-9.3 10-1.7 5.6-.5 10.7 3.4 15 2.8 3.1 4 3.7 8.9 4.1 7 .6 10.8-.9 14.4-5.6 7-9.3.8-22.9-10.8-23.7-2.4-.2-5.4-.1-6.6.2zm14.2 4.5c5 2.3 4.4 10.5-.9 11.9-3.9 1.1-8-.9-8.4-4-.6-3.8.7-7.1 3.1-8.1 3-1.2 3.2-1.2 6.2.2z" stroke-width="3" fill="#331900" stroke="#331900"/><path d="M509.4 1150.5c0 4.9.1 7.1.3 4.8.2-2.3.2-6.4 0-9-.2-2.6-.3-.8-.3 4.2z" fill="#E5B24C" stroke="#E5B24C" stroke-width="3"/><path d="M213.7 1137c.7.9 1.4 5.2 1.6 9.5l.3 8 .2-8.1c.2-6.7-.1-8.4-1.5-9.5-1.6-1.2-1.7-1.2-.6.1zm296.3 15.8.5 12.7.3-11.9c.1-6.6-.1-12.3-.5-12.7-.4-.5-.6 4.9-.3 11.9z" stroke-width="3" fill="#E59919" stroke="#E59919"/><path d="M386.7 1093c-9 1.7-20.1 9.9-24.2 18.1-1 1.9-2.1 3.6-2.4 3.9-3.3 2.5-5.2 24.8-2.8 33.1 2 6.6 7.9 13.2 15.2 16.9 4.5 2.3 6.2 2.5 17 2.5s12.5-.3 16.8-2.5c10.1-5.1 18.7-17 20.8-28.7.6-3.2 1.5-7.2 2-8.9 1.2-4 1.2-8.1-.1-8.9-.5-.3-1-1.9-1-3.4 0-7.3-3.7-13.2-12.6-20-3.4-2.6-19.9-3.8-28.7-2.1zm20.6 11.9c5.6 2.6 8.6 6.2 9.7 12 2.5 13.3-5.4 31.6-16.1 37.6-6.7 3.6-15.7 3.5-23-.3-3.3-1.7-6-4-6.9-5.7-.8-1.7-1.9-3.3-2.5-3.7-1.3-1-1.2-15 .1-17.9.7-1.3 1.8-4 2.5-5.9.7-1.9 1.8-4.2 2.5-5 8.3-9.8 14.1-13 23.2-13 4.1 0 7.8.7 10.5 1.9zm-189.7-1.1c-.2.4-.8 6-1.2 12.6l-.7 11.8-2.6-.7c-13.1-3.5-21.8-.3-26.7 9.8-3.2 6.8-3.2 12.8.2 19.2 3.9 7.4 8.2 10 16.9 9.9 3.9 0 8.1-.2 9.5-.3 1.4-.2 3.8.1 5.3.4 1.9.5 3.3.3 4.6-.9 1.7-1.5 1.9-4.4 2.6-30.7.5-22.2.4-29.3-.5-30.4-1.3-1.6-6.5-2.1-7.4-.7zm-5.3 31.7 3.7 2.6v7.7c-.1 8-.8 10-4.7 12-2.3 1.3-8.4 1.6-12 .6-3.4-.9-6.3-6.7-6.3-12.4 0-4.3.5-5.4 3.8-9 3.3-3.3 4.5-4 7.8-4 2.6 0 5.2.9 7.7 2.5zm271-31.3c-1.1 1.8-2.1 58.9-1.1 61 .5 1 1.9 1.8 3.1 1.8 4.7 0 5.2-1.2 5.7-14.2.3-6.8.8-12.8 1.2-13.4.4-.7 2.9-2.2 5.4-3.4 4-1.8 5.1-2 7.5-.9 4.5 1.8 5.8 5.9 6.1 19.3.3 9.8.6 12.1 1.9 12.9 1.3.8 2.4.6 4.3-.6 2.6-1.7 2.6-1.8 2.6-14.9 0-20.2-3.1-25.3-15.5-25.3-2.7 0-6.7.4-8.7.9l-3.8.8v-11.4c0-7.5-.4-11.8-1.2-12.6-1.6-1.6-6.5-1.5-7.5 0zm-199.5 19.5c-1.3.3-1.7 2.3-2.3 10.6-.3 5.6-.5 15.1-.3 21.2l.3 11 2.8.3c5.1.6 5.7-.9 5.7-13.4 0-14.2.6-15.8 6.2-17.2 4.5-1.2 7.6-.9 11.7 1.1 1.9 1 2.5.8 3.7-.8 2.2-3 1.7-6.3-1.3-8.2-2-1.4-4.8-1.8-11.1-1.8-4.9 0-8.6-.5-9-1.1-.9-1.4-4.2-2.3-6.4-1.7zm254.8 2.7c-5 1.9-6.2 2.9-8.2 6.6-3.1 5.7-3 8.1.2 11.9 1.9 2.3 3.7 3.2 7.2 3.7 5.6.7 11.1 3.2 12.6 5.7.9 1.5.7 2.1-.9 3.3-1.5 1.2-3.5 1.4-8.5.9-13.6-1.3-13.5-1.3-13.8 1.6-.6 5.5 8.7 8.9 20.1 7.4 4.3-.6 5.9-1.4 9-4.7 4.4-4.6 4.8-8.1 1.5-13.3-2.6-3.9-8.9-7.5-13.4-7.5-3 0-7.4-2.4-7.4-4 0-.5 1-1.8 2.2-3 2.7-2.5 11.8-2.9 13.8-.5 2.6 3.1 7 1.1 7-3.1 0-1.7-1.3-2.8-5.4-4.8-6.6-3.1-8.4-3.2-16-.2zm-292.1.1c-8.5 2.3-13.5 10.1-13.5 21 0 7.8 1.8 11.6 7.8 16.1 3.5 2.7 4.3 2.9 13.2 2.9 9.3 0 9.7-.1 13.8-3.3 4.4-3.5 5.4-6.9 2.8-9.1-1.2-1-2.3-.6-5.7 1.8-3.6 2.7-5.1 3.1-10.3 3.1-3.4 0-7.2-.6-8.5-1.3-3.3-1.7-6.8-6.5-5.5-7.6.5-.6 6.8-1.7 13.9-2.6 15-1.9 17.1-3.1 16.2-9.6-1.2-9.3-12.5-14.6-24.2-11.4zm12.1 7.1c4.8 2.3 4.7 5.4-.2 5.4-1.9 0-4.3.4-5.2.9-.9.4-3.8 1.1-6.4 1.4-4.5.6-4.8.5-4.8-1.6 0-2.2 2.9-5.5 6-6.9 2.6-1.2 7.1-.8 10.6.8zm193.9-7.5c-6 .9-8 2-11.3 6.2-2.9 3.6-5.2 10.9-5.2 16.2 0 4.3 3.1 11.8 5.8 13.9 4.8 3.9 6.7 4.5 14.7 4.6 6.2 0 8.7-.4 11.2-1.9 3.8-2.4 5.1-5.7 3-7.8-1.3-1.4-2-1.3-6.1.2-6.5 2.5-15.2 1.7-17.7-1.6-1-1.3-1.9-3.2-1.9-4.2 0-.9-.4-1.7-1-1.7-1.3 0-1.3-4.7-.1-5.5.5-.3 1.2-1.8 1.6-3.4.9-4.3 6.4-8.1 11.6-8.1 2.3 0 5 .6 5.8 1.4 2.7 2.4 7 3.1 7.7 1.2 1-2.5-.3-6-2.7-7.4-2.9-1.9-10.6-2.9-15.4-2.1zm131-.5c-6 1.4-9.6 3.9-12.7 8.8-3 4.6-3.3 5.8-3.3 12.6 0 6.5.4 8.2 2.6 11.6 1.6 2.4 4.5 4.8 7.4 6.3 4.1 2 5.7 2.3 12.4 1.9 6.2-.4 8.4-1 11.9-3.3 3.5-2.4 4.2-3.4 4.2-6.2 0-4.6-2.4-5.3-6.1-1.7-2.6 2.4-3.9 2.9-9.7 3.2-8 .4-13.1-1.8-14.6-6-.5-1.5-.8-2.9-.5-3.2.2-.2 6.2-1.1 13.4-2.1 8.5-1 13.6-2.2 14.7-3.2 4.1-3.7.5-14.2-5.8-16.8-3.8-1.6-11-2.6-13.9-1.9zm11.5 8.9c3.2 2.9 2.5 4.5-2.1 4.5-2.2 0-4.8.4-5.7.9-.9.4-3.8 1.1-6.4 1.4-4.2.6-4.8.4-4.8-1.2 0-1 1.6-3.3 3.7-5.1 3.3-2.9 4.1-3.2 8.5-2.8 2.7.3 5.7 1.3 6.8 2.3z" stroke-width="3" fill="#E59900" stroke="#E59900"/></svg>