<svg version="1.0" xmlns="http://www.w3.org/2000/svg" viewBox="0 0 783 1259"><g fill="#FFF" stroke="#FFF" stroke-width="3"><path d="M0 629.5V1259h783V0H0v629.5zM407.5 81.4c1.7 1.2 1.8 1.8.7 6.6-2.1 8.9-2.5 18.2-1.2 24.5 1.2 5.8 5.8 15.2 8.5 17.5 1.4 1.2 2.1-.3 4.5-10 2.1-8.4 10.1-18 18.3-21.9 5.3-2.6 13.6-4.4 20.1-4.5 4.6-.1 5 .1 5.7 2.7 1 3.6.3 5.5-2.4 6.3-6.5 1.9-12.7 10.7-12.7 17.7 0 4 .7 4.9 2.9 3.6.9-.5 5.4-1.9 10.1-3 4.7-1.1 10.5-2.6 13-3.2 6.2-1.5 49.3-1.5 54.5 0 2.2.7 7.2 2.1 11 3.2 8.4 2.3 19.4 6.8 21.6 8.7.8.8 1.9 1.4 2.4 1.4 1.7 0 11.2 6.5 19.1 13.1 10.4 8.6 15.3 14.4 25.4 29.9 2.1 3.3 7.6 14.9 8.5 18 .3 1.4 1.3 3.8 2 5.5 1.3 3 4.2 16.1 5.4 24.5l.6 4.5 8.5.6c30.3 2.1 55 23.9 64 56.5 5.8 21.2 2 42.5-11 61.8-4.5 6.7-5.6 6.1-6.3-3.4-.5-8-2.5-13.6-6.6-18.9l-1.9-2.5-5.4 4c-9.5 7-10.7 7.6-22.2 10.6-6 1.5-9.7 1.9-14.3 1.5-7.9-.8-18.9-4-26.1-7.7l-5.5-2.8-2.1 2.6c-7.8 10.2-21.3 21.5-32.1 26.8-3.3 1.6-6.2 3-6.4 3.1-.2.1 1.4 2.4 3.6 5 9.7 11.6 13.6 22 13.7 35.8.1 9.7-1.5 16.6-6.2 26.8l-2.6 5.8 1.7 10.2c4 23.9 5.4 55.3 3.8 85.2-3.1 57.3-16.2 99.9-40.8 132.4-5.7 7.6-18.8 21.1-25.8 26.8-11.8 9.4-39.3 24.8-48.3 26.9-1.5.4-3.2 1-3.7 1.5-1.4 1-13.9 4.6-24.5 7-4.7 1.1-9.8 2.4-11.5 2.9-1.6.6-8.4 1.7-15 2.5s-14.7 1.9-18 2.5c-9.3 1.4-25.6 2.1-67.5 2.8l-38.5.7-4.2 3c-5.6 4-7.2 7-8.3 15.7-.5 4-1 38.8-1 77.3s-.5 76.5-1 84.4c-1 14.7-2.7 26.8-3.9 28.6-.4.5-1.3 3-2 5.4-2.4 8.5-10.2 16.1-16.3 16.1-4.4 0-9.9-2.4-14.5-6.5l-4.7-4.2-3.7 5.7c-4 6.1-13.8 15.6-17.6 17.1-9.7 3.7-20.2-3.8-25.4-18.1-.9-2.5-2.1-5.8-2.7-7.3-.7-1.6-1.2-3.5-1.2-4.3 0-3.4-2-.9-3.5 4.3-4.5 15.5-13.8 26.7-20.7 25-5.8-1.5-12-8-15.8-16.5-.5-1.2-1.9-4.2-3-6.6-1.1-2.5-2-5.2-2-6 0-2.7-1.7-1.8-3.1 1.7-1.8 4.3-7.7 12.5-9.9 13.7-3.1 1.6-6.7 1.1-9.5-1.3-2.7-2.2-4.4-7.1-6.9-18.7-.8-4.1-1.1-88.3-1.1-325V297.5l2.4-5.3c3-6.6 10.6-13.5 17-15.4 3.7-1 27.9-1.3 129.7-1.3h125.1l-1.4-6.5c-.8-3.6-1.7-13.5-2-22-.4-13.5-.1-17.5 2.1-30.7 1.4-8.4 3.5-17.9 4.6-21.2 1.1-3.3 2-6.8 2-7.6 0-.9.9-3.7 1.9-6.3 4.5-10.8 8.1-20.4 8.1-21.6 0-.7-1.1-3-2.5-5-1.4-2.1-3.5-7.4-4.7-11.7l-2.1-8 2.2-10c1.9-9.2 6-19.6 10.1-25.9 3.9-5.9 8.4-12.5 9-13 .3-.3 1.3-1.7 2.3-3.3 1.9-3 4.3-3.4 7.2-1.3zm-45.2 1007.3c6 2.2 12.8 7.9 15.2 12.9 2.3 4.9 2.4 18.5.1 23.6-.8 2-3.2 5.3-5.3 7.3-3.6 3.5-6.7 4.7-19.4 7.5-5.4 1.2-5.7 1.4-6.3 4.9-.3 2-.6 7-.6 11.1 0 8.3-1.4 11.4-5.7 13.1-3.8 1.4-9.1-.6-9.9-3.8-.8-2.9.4-69.8 1.2-72.6.3-1 1.9-2.6 3.5-3.6 4.2-2.6 20.4-2.8 27.2-.4zm-160.7 13.7c1.8 1.4 1.9 2.7 1.5 31.3-.2 16.4-.7 30.8-1.2 32-1 2.8-5.3 4-9.2 2.5-1.9-.7-3.7-.8-5.3-.1-4 1.5-12.6 1-16.9-1-5.2-2.3-8.9-6.7-11-13.2-1.5-4.4-1.6-5.9-.5-10.9 1.6-7.4 3.8-11.2 9-14.9 4.9-3.5 11.5-4.8 17.6-3.4 4.2 1 4.2.9 4.8-2 .3-1.6.6-6.3.6-10.3 0-6.1.4-7.8 2-9.4 2.3-2.3 5.8-2.6 8.6-.6zm422.7 3.5c5.2 2 5.4 10.9.3 13.2-7.7 3.6-14.2-5.6-8.1-11.6 2.6-2.7 4.1-3 7.8-1.6zm-357.1 18c.9 1.6 1.7 1.7 4.6.9 3.8-1 11.4-.3 14.7 1.5 2.3 1.2 5.5 4.6 5.5 5.9 0 2.1-3.1 6.7-4.9 7.3-1.1.3-3.4-.1-5-.9-3.7-2-6.2-2-10.6-.2l-3.5 1.5v12.5c0 11.3-.2 12.8-2 14.6-2.4 2.4-8.2 2.7-10 .5-1.6-1.9-.5-42.2 1.2-44.3 1.7-2 8.6-1.5 10 .7zm173.2-1.2c.4.5 4.4.8 8.9.8 10.3 0 14.8 2.1 19.6 9.1 3.2 4.7 3.3 5.1 2.9 12.9-.5 9-2.6 13.6-8.3 17.9-4 3.1-12.2 5.1-17.1 4.2l-3.4-.7v9.9c0 9.2-.2 10-2.5 12.2-2.1 2-3 2.2-5.3 1.4-1.5-.5-3.2-2.1-3.7-3.4-.7-1.6-.9-12.7-.5-31.6l.5-29.2 2.5-2.1c2.6-2.1 5.1-2.7 6.4-1.4zm-202.3 2.4c5.1 1.8 8.6 5.5 9.9 10.8 1.3 5.6.2 9.7-3.2 11.1-2 .8-9.4 2.1-21.1 3.7-4.5.6-5.5 1.9-3.1 3.9 5.3 4 15.3 3.7 19.8-.5 4.4-4.1 9.6-1.9 9.6 3.9 0 3.1-5.9 8.6-10.5 9.9-5 1.4-13.9 1.4-18.6.1-4.6-1.3-9.1-5.3-11.8-10.5-5.7-10.9.5-28.5 11.4-32.3 4.1-1.4 13.4-1.5 17.6-.1zm185 1.7c1.3 1.7 1.5 4.2 1.1 15.6-.4 11.3-.2 14.1 1.2 17.1 2.6 5.3 1.8 8.7-2.1 9.9-2.5.6-3.8.5-5.6-.7-2.2-1.4-3-1.4-7.9-.1-4.3 1.1-6.8 1.2-10.9.4-6.6-1.2-9.8-3.5-12.3-8.4-3.3-6.7-2.3-21.2 1.9-26.4 6.4-8 12.1-10.3 25-9.7 6.5.3 8.3.8 9.6 2.3zm90-.2c1.8 1.6 1.9 2.7 1.3 14.5-.6 10.8-.4 13.5 1 17.3 2.5 6.6 1.9 9.8-2.1 11-2.5.6-3.8.5-5.6-.7-2.2-1.4-3-1.4-7.8-.2-7.9 2.1-17 .3-20.8-4.1-3.3-3.8-4.1-6.8-4.1-15.8 0-7.4.3-8.7 2.9-12.9 3.3-5 9.2-9.5 14.3-10.7 5.7-1.4 18.7-.4 20.9 1.6zm44.7.5c4.8 3.5 4.7 2.6 3.2 21.6-2 24.4-3.5 31.5-7.9 35.7-3.3 3.2-12.2 6.6-17.3 6.6-3.6 0-13.8-2.3-15.8-3.5-1.8-1.1-1.1-7.4 1.1-9.6 1.5-1.5 2.7-1.9 5-1.4 4 .9 13 .9 15.8 0 1.9-.6 5.1-5.7 5.1-8.2 0-.4-4-.8-8.8-.8-8 0-9.3-.3-13-2.7-5.1-3.4-6.7-8.3-5.9-18.1 1-11.6 6.1-19.1 14.7-21.5 1.9-.6 7.1-1.1 11.6-1.1 7.4-.1 8.3.1 12.2 3zm38.6-1.1c4.3 2.1 7.8 6.5 9 11.2.9 3.9-1.6 9.6-4.6 10.2-2.7.6-14.5 2.5-20.5 3.3-6.7.9-5.5 4.2 2.2 6.1 5.1 1.4 11.9.1 14.9-2.7 4.7-4.4 10.5-1.4 9.1 4.8-1.3 5.8-9.8 10.1-19.9 10.1-7.4 0-12.2-1.7-16.6-5.6-4.9-4.5-6.3-8.7-5.8-17.8.4-9.4 4.1-16 10.8-19.4 5.9-2.9 15.6-3 21.4-.2zm28.7.1c2 2 2 2.9 1.7 21.1-.3 17.4-.5 19.1-2.2 20.4-2.5 1.8-8 1.8-9.5 0-.9-1-1.1-7-.9-21.1.3-18.1.5-19.8 2.2-21.1 2.8-2 6.3-1.7 8.7.7z"/><path d="M544 189.7c-27.6 5.7-38.3 37.8-19.1 57.2 8.2 8.3 11.4 9.6 24.1 9.6 12.7 0 15.9-1.3 24.1-9.6 6.9-6.9 9.3-13.2 9.3-23.4 0-10.3-2.4-16.5-9.3-23.4-7.8-7.8-20.2-12.2-29.1-10.4zm29.1 27.3c4.1 3.9 4.1 4 3.7 9.5-.4 4.7-1 6-3.8 8.5s-4.2 3-8.5 3c-5.7 0-8.8-1.7-11-6-4.5-8.7 1.8-19 11.7-19 3 0 4.6.8 7.9 4z"/><path d="M565.8 219.1c-2.2 1.2-2.3 4.2-.2 6 3.1 2.6 7-2.5 4.4-5.6-1.4-1.7-1.9-1.8-4.2-.4zM347 1114v11h3.6c6.7 0 12.9-4.4 13.4-9.6.5-4.1-.1-5.7-3.4-9-3-3-4-3.4-8.5-3.4H347v11zm-170.7 22.9c-7.3 4.5-6.7 17.1 1 20 3.3 1.2 4.2 1.2 8.2-.3l4.5-1.8v-7.9c0-7.1-.2-8-2.3-9.4-4-2.6-7.9-2.8-11.4-.6zm270.1-1.7c-1.8.8-2.2 2.2-2.8 9.6-.8 9.9-.1 11.2 6.7 11.2 5.4 0 9.7-4.3 9.7-9.7 0-6.3-1-8.1-5.4-10.3-4.7-2.2-5.2-2.3-8.2-.8zm-224 1.9-2.9 3.1 3.5-.6c1.9-.4 5.7-1.2 8.4-1.8 4.8-1 4.8-1.1 2.5-2.4-4.2-2.3-8.2-1.7-11.5 1.7zm182-1.2c-5.7 3.5-7.4 6.7-7.4 13.7 0 5.6.3 6.5 2.7 8.4 2 1.6 3.4 1.9 5.7 1.4 6-1.3 6.2-1.6 6-13.8-.2-10-.3-11.1-2-11.4-1.1-.1-3.3.6-5 1.7zm90 0c-5.7 3.5-7.4 6.7-7.4 13.7 0 5.6.3 6.5 2.7 8.4 2 1.6 3.4 1.9 5.7 1.4 6.1-1.3 6.2-1.6 6.1-13.8-.2-10.1-.4-11.1-2.1-11.4-1-.1-3.3.6-5 1.7zm42.9 2.6c-3.6 1.6-5 3.7-5.9 9.2-.4 3-.2 4.4 1.1 5.6 2.1 2.1 8.3 2.2 11.3.1 2.9-2 5.2-7.6 5.2-12.5v-3.9h-4.2c-2.4.1-5.7.7-7.5 1.5zm42.5-2.4c-5.4 4-2.7 4.6 8.6 1.7 3.5-.9 3.7-1 2-2.3-2.7-2.1-7.5-1.8-10.6.6z"/></g><path d="M572.4 504c0 7.4.1 10.5.3 6.7.2-3.7.2-9.7 0-13.5-.2-3.7-.3-.6-.3 6.8zM298.3 732.7c7 .2 18.4.2 25.5 0 7-.1 1.2-.3-12.8-.3s-19.8.2-12.7.3z" stroke-width="3" fill="#FFE5E5" stroke="#FFE5E5"/><path d="M97.5 599.5c0 163.3.1 230 .2 148.2.2-81.9.2-215.5 0-297-.1-81.5-.2-14.6-.2 148.8zM571.4 504c0 9.1.2 12.8.3 8.2.2-4.5.2-11.9 0-16.5-.1-4.5-.3-.8-.3 8.3z" stroke-width="3" fill="#C66" stroke="#C66"/><path d="M96.5 600.5c0 162.8.1 229.3.2 147.7.2-81.6.2-214.8 0-296-.1-81.2-.2-14.5-.2 148.3z" fill="#E5CCCC" stroke="#E5CCCC" stroke-width="3"/><path d="M180.2 275.7c29.1.2 76.5.2 105.5 0 29.1-.1 5.3-.2-52.7-.2s-81.8.1-52.8.2zm119.1 456c7.6.2 19.8.2 27 0 7.3-.1 1.1-.3-13.8-.3-14.8 0-20.8.2-13.2.3z" stroke-width="3" fill="#CC7F7F" stroke="#CC7F7F"/><path d="M400.1 85.7c-10.5 14.3-15.6 24-19 36.6-1.1 4.2-2.1 9.6-2.1 12 0 5.7 3.4 16 6.6 20.3 2.5 3.3 2.6 3.7 1.4 7.7-.6 2.3-1.6 4.6-2 5.2-.4.5-1.5 3.5-2.5 6.5s-2.1 5.9-2.5 6.5c-1.6 2-5.9 19.2-9.6 38.5-2.4 12.5-2.4 38.7 0 47.5.9 3.2 1.6 7.1 1.6 8.5v2.5l-124.2-.3c-84.7-.2-125.9.1-129.3.8-6.9 1.5-13.8 6.8-17.2 13.2l-2.8 5.3v644l2.3 8c3 10.5 4.4 12.5 8.5 12.5 1.8 0 4-.6 4.8-1.3 2.4-1.9 6.3-7.8 8.8-13 1.3-2.6 2.8-4.6 3.4-4.4.6.2 1.8 2.5 2.7 5.3 5.6 16.4 13.2 26.4 20.2 26.4 6.3 0 13.3-9.8 18.4-25.9 1.6-5 3.2-9.1 3.6-9.1.4 0 1 1.2 1.4 2.7 1.2 5.5 1.6 6.9 4.1 13.3 5.6 14.4 11 20.2 18.8 20.2 7.3 0 13.7-5.2 22.5-17.9l4.3-6.2 4.6 4.1c7.3 6.4 13 8.1 19.7 5.8 6.1-2.2 12.2-15.6 14.4-31.5 2.1-15.6 3-47.8 3-112.5 0-41.3.4-67.2 1.1-70 1.4-6.2 5.1-10.5 11.3-13.5l5.3-2.5 33.9-.1c18.6 0 40.2-.4 47.9-.9 87.4-5.3 142.7-31.7 175.1-83.5 9.5-15.3 18.3-36.2 21.9-52.1.9-3.8 2-8 2.5-9.4.9-2.3 3.5-18.3 6.2-37.5 1.4-10.4 1.4-76.3 0-87.5-.6-4.7-1.8-12.9-2.7-18.2-1.6-9.4-1.6-9.8.4-13.9 1.2-2.3 3.2-7.9 4.6-12.5 5.6-18.2 1.8-35.6-11.2-51.1-4.5-5.3-5.3-7.3-2.9-7.3 2 0 12.3-5.7 18.6-10.3 6.2-4.6 16.6-14.8 19.3-18.9 1.7-2.7 1.7-2.8-.3-4.8-1.1-1.1-2-1.6-2-1.1s-3.6 4.8-8.1 9.5c-17.6 18.6-33.6 25.3-64.9 27.1-11.9.7-11.9.8-18 11.3-8.1 14-8 36.9.1 58.2 3.8 10 6 13 8.2 11.1.9-.7 2.1-2.9 2.8-4.9 1.5-4.8 8.4-19.1 10.4-21.6.8-1.1 1.7-1.7 2.1-1.4 1.5 1.6 2.5 9.6 3.1 24.5.7 20 1.1 20.3 11.3 11.8 6-5 11.4-12.1 14.5-19l2.7-6 2.4 10.5c8.1 36.7 8.1 100.8-.1 142.6-8.3 42.4-24.4 74-49.7 97.9-25.4 23.9-59.4 39.2-103.5 46.5-23.3 3.8-29.5 4.2-76.8 4.9-46.4.7-48.2.8-53.7 3-6.4 2.5-11.9 7.9-15.2 15-2.1 4.5-2.1 5.3-1.9 60.1.2 30.5.4 65.6.5 78 .3 28-2.2 57.4-5.1 61.5-.4.5-1.3 2.8-1.9 5-1.8 6.2-5 9.5-9.8 10.2-5.9.8-11.6-2.8-18.1-11.2l-2.2-2.8-2 2.4c-1.1 1.3-2 2.8-2.1 3.3 0 2-7.7 12.3-12.5 16.8-4.4 4.3-5.4 4.8-9.5 4.8-4 0-4.9-.4-7.8-3.8-5-5.7-5-5.6-6.8-11.4-1-2.9-2.4-6.4-3.1-7.8-.7-1.4-1.3-3.2-1.3-4 0-.8-.7-5.4-1.7-10.3-1.5-8-1.8-8.7-4-8.7-1.3 0-2.3.2-2.3.5 0 1.9-3.3 16.2-3.9 17-.4.5-1.6 4-2.5 7.7-1 3.8-2.1 6.8-2.5 6.8-.4 0-1.2 1.5-1.9 3.3-1.8 5.1-6.1 9.7-9 9.7-5.1 0-13.9-13.4-17.2-26.2-.6-2.4-1.5-5.2-2-6.3-.6-1.1-1.4-3.8-1.9-6-.8-3.5-1-3.7-1.6-1.8-.4 1.3-1.1 2.3-1.6 2.3s-.9.7-.9 1.6c0 2.2-6.8 16.2-9.8 20.2-3.3 4.3-6.3 4-7.7-.8-.5-1.9-1.3-4-1.7-4.6-.4-.6-1.1-5.6-1.5-11-.5-5.4-.6-151.4-.3-324.4.5-288 .6-314.8 2.1-318 2.5-5.3 7.4-9.7 13.2-11.7 4.9-1.7 11.8-1.8 125.2-1.7 66 .1 122.2.5 124.9 1 2.7.5 5.2 1.6 5.7 2.4.4.8 2.9 6 5.5 11.4 4.3 9 12.9 21.3 18.2 26 1.8 1.5 2.4 1.6 3.7.6.8-.7 1.5-1.7 1.5-2.2 0-.4-3.1-4.7-7-9.5-11.4-14.1-18.6-31.1-21.1-50.1-2.6-19.4.6-49.2 7.5-71.1 2.9-9.1 8.9-24.8 11-29 1.5-2.8 1.5-3.1-.9-5.9-1.3-1.6-3.6-5.3-5.1-8.2-2.4-4.8-2.6-6-2.2-14.9.5-10.5 3.3-18.7 10-29.7l3.3-5.6.6 8.9c1.1 14.6 7.6 27.4 17.7 34.8 6.6 4.8 7.2 4.6 7.2-2.5 0-15.9 6.2-28 17.1-33.6 4.4-2.2 7.9-3.1 7.9-1.9 0 .2-1.1 2-2.4 4-2.3 3.3-4.6 11.2-4.6 15.5 0 1 .5 4.2 1.1 7 .9 4.2 1.4 5 2.7 4.4 11.9-5.1 27.1-8.6 45.8-10.5 10.5-1.1 13.9-1 26 .5 34.5 4.3 61.8 20.1 80.7 46.8 9.4 13.2 17.9 35.6 19.4 51.1l.6 6.4 2.8-1.1c1.9-.6 2.7-1.6 2.5-2.6-.3-.8-1.4-6.5-2.5-12.6-5.3-28.5-20.9-53.2-44.6-70.9-6.2-4.6-16.4-10.4-25.1-14.3-4.5-2-18.2-5.9-24.9-7.1-21.9-3.7-45.5-2-69.6 5-3.7 1.1-7.4 1.6-8.3 1.3-2.2-.9-2-6.2.5-12.1 2.5-5.8 5.2-8.9 10.2-11.4 3.8-2 4.1-2.6 3.1-5.3-.4-1.1-1.9-1.6-4.4-1.6-4.5 0-15.3 2.6-19.4 4.7-3.8 2-11.2 8.8-13.5 12.7-2.5 4-6.1 15.2-6.1 18.8 0 1.6-.5 2.8-1.2 2.8-1.7 0-6-5.4-9.4-12.1-2.6-4.8-2.9-6.6-3.2-16.4-.2-7.4.2-12.8 1.2-16.5 1.3-4.9 1.3-5.5-.2-6.7-2.4-1.7-2.3-1.8-6.1 3.4zM556 366.8c9.2 10.5 13 19.9 13 32.7 0 7.3-2.5 19.4-4.3 21.3-1.2 1.1-1.7.2-3.6-5.5-2.7-7.9-4.6-11.3-6.5-11.3-1.9 0-2.7 2.4-2 5.9.8 3.9-1.3 13.3-4.2 19.1-2.7 5.5-10.9 15-12.9 15-1 0-1.4-3-1.8-12.3-.4-11.4-1.1-16-3.7-25.7-1.6-6-5.4-6.4-8.4-.7-.9 1.8-3 5.4-4.7 8.2-1.7 2.7-3.9 7-4.9 9.5-2.7 7-4.4 6.4-7-2.7-3.4-12.3-3.9-15.2-3.9-24.8 0-14.4 6.1-29 13.1-31.4 1.7-.6 7.4-1.1 12.7-1.2 5.3 0 11.9-.4 14.6-.9 9.1-1.4 9.1-1.4 14.5 4.8z" fill="#B21919" stroke="#B21919" stroke-width="3"/><path d="M264.5 825c0 39.3.1 55.4.2 35.7.2-19.6.2-51.8 0-71.5-.1-19.6-.2-3.5-.2 35.8z" fill="#E59999" stroke="#E59999" stroke-width="3"/><path d="M180.8 276.7c30.9.2 81.5.2 112.5 0 30.9-.1 5.6-.2-56.3-.2s-87.2.1-56.2.2zM263.4 899c0 5.2.1 7.4.3 4.7.2-2.6.2-6.8 0-9.5-.2-2.6-.3-.4-.3 4.8z" stroke-width="3" fill="#B23333" stroke="#B23333"/><path d="M96.4 905c0 5.2.1 7.4.3 4.7.2-2.6.2-6.8 0-9.5-.2-2.6-.3-.4-.3 4.8z" fill="#E5B2B2" stroke="#E5B2B2" stroke-width="3"/><path d="M97.3 904c0 4.7.2 6.6.4 4.2.2-2.3.2-6.1 0-8.5-.2-2.3-.4-.4-.4 4.3z" fill="#CC4C4C" stroke="#CC4C4C" stroke-width="3"/><path d="M180.7 281.7c28.8.2 75.8.2 104.5 0 28.8-.1 5.3-.2-52.2-.2s-81 .1-52.3.2zm172.6 1c2.6.2 6.7.2 9 0s.2-.3-4.8-.3c-4.9 0-6.8.1-4.2.3zM103.5 589.5c0 157.8.1 222.3.2 143.2.2-79.1.2-208.3 0-287-.1-78.8-.2-14.1-.2 143.8zm461.9-85c0 9.3.2 13.3.3 8.8.2-4.5.2-12.2 0-17-.1-4.8-.3-1.2-.3 8.2z" stroke-width="3" fill="#CC1919" stroke="#CC1919"/><g fill="#E53333" stroke="#E53333" stroke-width="3"><path d="M396.3 101.8c-2.4 3.3-7.7 15.1-9.2 20.7-1.4 5-1.4 16.8-.1 21.7.6 2 2.9 6 5.1 8.8 2.8 3.5 3.7 5.5 3.1 6.3-.9 1.1-2.7 5.5-8.5 20.7-4.6 11.9-7.8 25.3-10.3 42-2.9 20.2-2.9 22.7-.4 39.5 3.5 22.5 9.5 36.3 23.3 52.9 2.8 3.4 4.6 6.5 4.3 7.3-.3.8-.6 1.7-.6 1.9 0 .2-1.1.4-2.5.4-5.5 0-21.5-22.4-25.5-35.6-1.2-3.9-1.5-4.2-5.8-4.8-7.7-1-246.4-.7-250.1.4-5.1 1.4-9.4 4.8-12.2 9.4l-2.4 4.1-.3 291c-.2 275-.1 291.2 1.5 294.2 1.2 2.2 2.5 3.3 4 3.3 3.4 0 6.6-4.8 13.9-20.7 2.3-5.2 4-5.5 4.8-.8.4 1.9 1.3 4.7 2.1 6.2s1.5 3.5 1.5 4.4c0 2.5 7.5 17.2 10.3 20.1 3.4 3.6 6.8 4.4 10.1 2.3 2.8-1.9 7.6-9.9 9.6-16 .7-2.2 1.6-4.5 2-5 .4-.6 1.5-4.4 2.4-8.5 1-4.1 2.1-8.3 2.7-9.2.5-1 .9-3 .9-4.4 0-4.6 2.7-.9 3.4 4.7 1.1 7.9 5.2 22.3 8.2 28.7 3 6.4 8 11.8 11.8 12.8 6 1.5 15.2-6.5 24.5-21.4 1.8-2.8 3.4-5.2 3.5-5.2.1 0 2.8 2.5 5.9 5.5 6.2 6 9 7.5 14.1 7.5 4.9 0 8-3.1 11.8-11.7l3.3-7.8.6-58.5c.4-49.9.8-59.3 2.1-63.8 2.7-8.7 6.6-13.5 14.3-17.2l5-2.5 44-.6c36.3-.5 47.3-1 62.9-2.8 80.8-9.5 129.4-38.6 156.1-93.6 17.1-35 24.5-78.8 23.1-136.7-.5-23-4.1-56.7-6.8-63.7-.8-2.3-1.1-2.1-4.2 4-5.4 10.3-18.9 22.9-22.9 21.3-2-.7-2.4-3.1-2.6-14.4-.2-10.3-1.9-25-3.1-26.3-.7-.9-10 17.3-12 23.6-1 3.3-1.6 3.8-3.8 3.5-3.1-.3-5.6-4.7-9.6-16.8-3.8-11.4-4.9-20.1-4.3-31.4.6-11.1 3.4-19.4 8.8-27 4.9-6.6 7.1-7.6 17.6-7.6 10.3 0 24.3-1.7 25.8-3.1.5-.5 1.6-.9 2.5-.9 6.4-.1 23.8-11 33.2-20.8 10.1-10.5 10.1-10.5 7.6-18.2-2.8-8.4-3-28.3-.5-37.6 3.3-12.6 12.7-29.6 24.1-44l3.3-4.2-1.3-9.3c-1.8-12.4-5.4-23.6-11-34.8-15.5-31-43.2-51.5-79.9-59.1-7.6-1.6-27-2.2-37-1.1-11.8 1.2-20.4 3.1-33.9 7.4-9.4 2.9-9.9 3-11.2 1.3-1.7-2.4-2.8-11.5-1.9-15.7.4-1.9 1.8-5.6 3.1-8.4 1.3-2.7 2.2-5.1 2-5.2-.6-.7-5.2 1.6-9.3 4.6-2.3 1.6-5.4 5.1-6.9 7.7-3 5.1-6.3 18.3-6.4 25.1 0 2.4-.3 4.3-.7 4.3-1.8 0-7.7-4.3-11.8-8.6-8.6-8.8-12.6-18.6-12.7-31.2 0-3.4-.1-6.2-.2-6.2s-1.1 1.3-2.3 2.8zm164.6 88.4c5.4 1.9 7.8 3.5 13.1 8.8 5.7 5.7 6.8 7.4 8.8 13.8 2.7 9 2.8 12.5.1 20.9-3.5 10.7-7.8 16-17.8 21.6-5.3 3-6.1 3.2-16.1 3.2-10.1 0-10.7-.1-16.5-3.4-8.8-5-14.6-11.8-17.2-20-2.6-8.8-1.1-24.5 3-29.9.7-.9 3.7-4.1 6.8-7.1 9.6-9.7 22.2-12.5 35.8-7.9zM413.4 398.9c1.7.6 6 1.4 9.5 2 6.2 1 14.7 4.6 18.5 8 9.6 8.2 14 20 13.3 35-.5 10.4-2.8 22.3-5.7 28.6-1 2.2-2.1 5.1-2.5 6.5-.4 1.4-1.6 4.1-2.6 6-1.1 1.9-1.9 3.8-1.9 4.3 0 3.4-26.4 44.4-32 49.7-.3.3-4.4 5-9.2 10.6-11.7 13.6-27.5 28.2-43.3 40.2-.9.7-4 2.7-16.9 11-2.7 1.8-5.5 3.2-6.3 3.2-.7 0-1.3.4-1.3.9s-2.1 1.7-4.7 2.7c-2.7 1-5.7 2.3-6.8 3-1.1.7-4 1.8-6.5 2.5s-4.9 1.6-5.5 1.9c-2.6 1.8-22.4 5.1-34.4 5.7-21 1.1-24.4-9.3-7.3-22.7 2.8-2.3 5.2-4.4 5.2-4.6 0-.8-9.4.7-10.5 1.6-1.9 1.5-28 5.3-39.4 5.7-19.6.8-30.1-4.2-30.1-14.4 0-6.8 4.3-13.7 15.5-25.1 5.8-5.7 9.8-10.2 9.1-9.9-.8.3-4.1 1.1-7.4 1.8-8 1.5-12.6.6-15.2-3-2.1-3-2.7-7.6-1.1-8.5.5-.3 1.2-1.8 1.6-3.3 3-12 56.6-68.6 85.3-90.1 1.2-.9 3.2-2.5 4.5-3.4 4.5-3.5 11.3-8.4 15.2-10.9 2.2-1.4 5.8-3.7 8-5.1 9.2-5.9 32-17.8 34.3-17.8.4 0 1.8-.6 3.2-1.3 5.3-2.7 22.9-7.8 31.8-9.1 5.1-.7 9.6-1.6 9.9-2 1-1 22.3-.7 25.7.3z"/><path d="M300.3 470.8c-.6.4-1.7 2.1-2.4 3.7-3.7 9.5-3.3 15.4 1.5 18.8 2.6 1.9 4.2 2.2 10.9 2 8.4-.3 8.9.2 5.7 4.7-3.7 5.1-8 15.5-8 19 0 7.5 5.9 10.7 16.5 9 8.4-1.4 9.5-1.3 9.5.9 0 3.5 4.2 11.9 7 14 4.6 3.3 11.1 4.3 20.3 3.1 8.2-1.2 12.7-3.1 12.7-5.6 0-1.8-2.4-1.8-7.5.1-2.2.8-7.5 1.4-11.7 1.5-6.8 0-8-.3-10.7-2.5-3.8-3.2-5.5-8.4-4.8-14.4l.6-4.7-6.7 1.7c-9.2 2.4-17.4 2.4-19.5.1-1-1-1.7-2.4-1.7-3.1 0-2.2 5-13 8-17.3 1.7-2.4 3.8-5.4 4.7-6.8.9-1.4 2.8-3.7 4.2-5.2 1.3-1.5 2.3-3 2-3.2-.2-.2-3.8.5-7.9 1.7-9.7 2.6-17.6 3.3-20.6 1.6-2.9-1.5-3.3-6.9-.9-12.6 2.4-5.7 1.9-8.5-1.2-6.5z"/></g><path d="M181.8 282.7c31 .2 81.4.2 112 0 30.6-.1 5.3-.2-56.3-.2-61.6 0-86.7.1-55.7.2zm75.7 521.8c0 28 .1 39.7.2 25.8.2-13.8.2-36.8 0-51-.1-14.2-.2-2.9-.2 25.2z" stroke-width="3" fill="#CC3319" stroke="#CC3319"/><path d="M560.4 216c-2.8 1.1-7.4 7.1-7.4 9.6.1 3.2 5.3 9.7 8.4 10.5 8.9 2.4 15.6-5.2 13-14.9-.4-1.2-1-2.2-1.4-2.2-.4 0-.5 1-.3 2.2.6 3.2-1.8 6-5 6-3.6 0-5.7-1.9-5.7-5.1 0-3.5 1.7-5.1 5.5-5.2 2.6 0 2.7-.2 1-.9-2.6-1.1-5.4-1.1-8.1 0z" fill="#331900" stroke="#331900" stroke-width="3"/><path d="M589.3 295c0 4.7.2 6.6.4 4.2.2-2.3.2-6.1 0-8.5-.2-2.3-.4-.4-.4 4.3z" fill="#CC7F00" stroke="#CC7F00" stroke-width="3"/><path d="M619.9 229.2c-4 3.2-14.1 17.2-19.7 27.1-3.3 5.8-7.4 16.6-8.8 23.2-2.9 13.2-.9 33.5 3.9 40.6 3 4.4 14.9 10.2 26 12.8 10.6 2.5 12.4 2.5 21.9.6 6.7-1.4 21.8-8.1 21.8-9.6 0-1.3 7-4.8 8.5-4.3 1.4.6 5.1 5.9 6.8 9.9.5 1.1 1.4 5.6 2.1 10l1.2 8 1.7-3.3c1-1.7 2.2-3.2 2.7-3.2.6 0 1-.5 1-1 0-.6 1.1-3.4 2.5-6.3 4.3-8.8 7.7-24.5 7.2-33.5-.4-9-3.5-21.5-7.1-28.9-1.5-2.9-2.6-5.7-2.6-6.2s-.3-1.1-.7-1.3c-.5-.2-2.5-2.8-4.6-6-3.4-4.9-10.3-12.1-16.3-16.8-3.6-2.9-14.1-7.9-19-9.1-2.7-.7-5.4-1.6-6-2-.6-.5-5.5-1.1-11-1.5-7.6-.5-10.3-.3-11.5.8zm20.9 5.4c20.5 4.1 36.3 17.1 46.2 37.9 5.2 11.1 6.5 17.1 6.4 30.5 0 11.4-.9 16.4-4.2 24.7-2 5-2.9 5.3-4.2 1.5-3.7-10.1-11.5-17.5-21-19.7-1.4-.3-8.8-.9-16.5-1.4-21.1-1.2-26-4.7-27.2-19.1-.6-7.5-1.5-9-3.9-6.9-1.3 1.1-1.5 2.5-1 7.4 1.9 17.4 7.2 21.7 29.2 23.5 19 1.6 21.4 2 21.4 3.4 0 1.6-4 4.5-11.7 8.5-13.4 7-30 6.6-45.3-1.1-7.8-3.9-8.7-4.7-10.9-9.2-6.8-14.3-4.4-36 5.9-55.1 4-7.4 12-19.1 15.9-23.3 2.6-2.8 3.6-3.2 8.1-3.2 2.8 0 8.6.7 12.8 1.6z" fill="#C90" stroke="#C90" stroke-width="3"/><path d="M622.8 328.2c.9.4 5.8.7 10.7.7 5 0 9.8-.3 10.7-.7 1-.4-3.9-.7-10.7-.7-6.8 0-11.7.3-10.7.7z" fill="#FFCC19" stroke="#FFCC19" stroke-width="3"/><path d="M619.4 239.2c-10 12.9-17.4 25.6-19 32.3-.4 1.6-1 3.5-1.5 4-1.6 2.2-3.1 15.2-2.7 23.5.4 6.5 1.2 10.2 3.1 14.4 2.5 5.3 3 5.8 10 9.1 9.8 4.6 16.2 5.8 27.3 5.3 8-.4 10.2-1 16.6-4.1 6.9-3.3 10.7-6.1 9.6-7.2-.2-.2-7.6-1.1-16.4-1.9-15.6-1.5-22.4-2.9-22.4-4.7 0-.5-.6-.9-1.4-.9-4.4 0-9-12.8-8.4-23 .3-5 .5-5.5 2.7-5.8 3.5-.5 5.1 2.2 5.1 8.8 0 7.4 2.5 11.8 8.2 14.8 3.9 2 6.8 2.5 19.9 3.2 13.6.7 16 1.1 20.5 3.3 5.5 2.8 11.2 8.6 14.2 14.7 1.7 3.5 1.9 3.7 3 1.9 3.6-5.8 5.3-26.5 3.1-38.5-1-5.5-1.8-7.7-6.3-17.4-4-8.5-12-18.3-20.3-24.6-8.2-6.2-22.3-11.1-35.3-12.1l-5.5-.4-4.1 5.3z" fill="#FFE533" stroke="#FFE533" stroke-width="3"/><path d="M539.5 363.7c-3.3.2-6.9.8-8 1.3-1.1.5-5.8 1.1-10.5 1.2-8.2.3-8.5.4-9.8 3-.7 1.6-1.7 2.8-2.2 2.8-.4 0-1.6 2.4-2.5 5.2-.9 2.9-2 6.1-2.6 7-1.2 2.2-1.2 21.3 0 23.6.5.9 1.7 5.3 2.6 9.7l1.8 7.9 2.7-5.4c6-12.2 10.1-18.7 12.9-20.6 3.5-2.5 6.7.5 8.2 7.4.7 3.1 1.6 6.2 2.1 6.9.5.6 1.2 7.1 1.5 14.4l.6 13.3 3.9-4.4c7-7.8 10-15.2 10.6-25.8l.5-9.2h2.8c3.5 0 6 3.1 7.9 9.9.7 2.8 1.7 5.1 2.1 5.1 1 0 2.9-11.7 2.9-17.8 0-11.7-4.2-22-12.8-31.3-3-3.2-5.2-4.8-6.6-4.7-1.2.1-4.8.3-8.1.5z" fill="#FFFF4C" stroke="#FFFF4C" stroke-width="3"/><path d="M393.8 398.7c3.4.2 9 .2 12.5 0 3.4-.2.6-.3-6.3-.3-6.9 0-9.7.1-6.2.3zm-6.3 164.5-9 9.3 9.3-9c8.5-8.3 9.7-9.5 8.9-9.5-.1 0-4.3 4.2-9.2 9.2zm-172.7 37.5c3.4.2 9 .2 12.5 0 3.4-.2.6-.3-6.3-.3-6.9 0-9.7.1-6.2.3zm54.5 20c2.6.2 6.8.2 9.5 0 2.6-.2.4-.3-4.8-.3s-7.4.1-4.7.3z" stroke-width="3" fill="#C33" stroke="#C33"/><path d="M258.4 878c0 9.6.2 13.6.3 8.7.2-4.8.2-12.6 0-17.5-.1-4.8-.3-.8-.3 8.8z" fill="#7F4C66" stroke="#7F4C66" stroke-width="3"/><path d="M396.3 400.7c2.6.2 6.7.2 9 0s.2-.3-4.8-.3c-4.9 0-6.8.1-4.2.3z" fill="#369" stroke="#369" stroke-width="3"/><path d="M380 402.1c-9.3 1.3-25.9 5.9-30.7 8.5-1.6.7-3.1 1.4-3.5 1.4-.9 0-15.6 6.6-17.8 8-.8.5-3.3 1.8-5.5 2.9-2.2 1.1-4.9 2.6-6 3.3-13.7 8.9-28.3 18.6-29.5 19.6-.8.7-4.9 3.9-9 7.3-13.3 10.6-17.1 14.1-33.9 30.9-30.7 30.6-46.1 49.3-47.7 57.5-1.6 8.8 1.8 11.6 12.3 9.7 3.8-.6 8.3-1.8 9.9-2.7 3.2-1.6 6.4-2 6.4-.7 0 .7-11.9 12-14.9 14.2-2.9 2.1-11.4 13.6-13.7 18.3l-2.7 5.8 1.9 3.7c4.8 9.1 17 10.8 49.4 6.6 6.3-.8 12.4-1.9 13.5-2.4 1.1-.5 5.8-1.6 10.5-2.6 4.7-.9 9-2.1 9.7-2.6.7-.5 1.7-.7 2.2-.4 1.5.9.2 3.4-2 4.1-2.7.9-15.1 11.2-16.9 14.1-.8 1.3-1.8 2.4-2.2 2.4-.5 0-.8 1.5-.8 3.4 0 4.7 3.7 6.2 15.5 5.9 9.8-.2 30.4-2.9 32-4.3.5-.4 3-1.3 5.5-2 3.9-1 25.7-11.1 28.5-13.3.6-.4 3.7-2.5 7-4.7 8.6-5.7 9.9-6.6 20.5-15.4 13.1-10.8 17.4-15.1 30.9-30.2 12.3-14 18.2-21.7 27.1-35.4 7.4-11.4 7.1-11 13.3-23.5 14.6-29.4 17.5-55.7 7.8-71-5-7.9-14.1-13.6-25.6-16-8-1.6-31.7-1.9-41.5-.4zm37.3 4c13.5 2.1 23.3 8.6 28.4 18.8 1.5 3 1.8 6 1.7 18.1 0 13.7-.2 15-3.3 23.9-15.9 46.2-59 98.6-104.1 126.9-7.5 4.7-25.9 13.1-34 15.5-15 4.6-40.4 6.4-41.7 3.1-1.2-3.3 13.2-14.9 31.1-25 8.6-4.8 11-7.4 8.9-9.5-.5-.5-4.5.3-9.9 2-4.9 1.5-10.5 3.2-12.4 3.5-1.9.4-5.3 1.4-7.5 2.1-5.3 1.8-26 6.1-36.2 7.6-10.7 1.5-30.8.8-34.8-1.1-2.6-1.3-3-2.2-3.3-5.9-.4-5.9 3.8-11.9 16.6-24 8.4-7.8 27.8-23.2 33.8-26.7 1.6-1 1.7-1.4.6-3.9s-1.4-2.6-3-1.3c-4.1 3.6-31.8 15-41.5 17.2-14.1 3.2-5.5-12.1 25.4-44.9 33.3-35.5 61.4-58.4 92.8-75.9 4.6-2.5 8.5-4.6 8.7-4.6.2 0 3.2-1.3 6.6-2.8 14-6.4 29.9-11.4 41.4-13.1 8.7-1.3 27.5-1.3 35.7 0z" fill="#337F99" stroke="#337F99" stroke-width="3"/><path d="M389 405.9c-4 .5-1.8.7 8 .7 7.4 0 16 .3 19 .7 4.3.5 4.7.4 2-.3-4.9-1.3-22.4-1.9-29-1.1zm57.5 36.8c0 8.1.2 11.3.7 8.8.8-4.9.8-16.2 0-19.3-.4-1.3-.7 3.5-.7 10.5zm-191.6 37.6c-20 19.2-40.9 42.1-48.8 53.4-4.2 6.1-1.4 3.4 3.8-3.7 7.3-9.8 15.4-18.6 37.9-41.3 10.8-10.8 19.4-19.7 19.2-19.6-.3 0-5.7 5-12.1 11.2zm-37 81.6c-4.7 4.3-9.8 9.6-11.3 11.8-1.6 2.1-.3 1.1 3-2.5 3.3-3.5 8.6-8.7 11.9-11.7 3.3-3 5.8-5.4 5.5-5.5-.3 0-4.4 3.6-9.1 7.9zM365 573.3c-4.7 4-10.1 8.5-12 10-2.7 2.2-2.3 2 1.4-.5 7-4.8 21.5-17.3 19.4-16.7-.2 0-4.1 3.3-8.8 7.2zm-158.5 19c2.4 1.4 28.1 1.3 33.5-.2 2.6-.6 1.3-.7-4.5-.3-10.5.9-22 .9-27 0-3.4-.6-3.7-.5-2 .5zm62.2 14.5c-4.2 4.3-4.6 5.8-1.5 6.7 2.5.8 17.7-.2 22.8-1.5l3.5-1-4 .5c-12 1.3-21.1 1.5-22.5.6-1.2-.9-.8-1.7 2.5-5.1 2.1-2.2 3.7-4 3.4-4-.3 0-2.2 1.7-4.2 3.8z" stroke-width="3" fill="#4C99CC" stroke="#4C99CC"/><path d="M380.5 408.1c-3.3.5-6.9 1.3-8 1.8-1.1.5-4.5 1.5-7.5 2.2-3 .6-7.3 2-9.5 2.9-2.2 1-5.9 2.4-8.2 3.1-2.4.6-4.3 1.5-4.3 1.9 0 .4-2.5 1.5-5.5 2.5-3 1.1-5.5 2.2-5.5 2.6 0 .3-1.9 1.4-4.2 2.5-2.4 1-4.9 2.4-5.6 3.1-.7.7-1.7 1.3-2.2 1.3-1.9 0-23.9 14.9-35 23.7-20.2 16-53.8 48.8-68.9 67.3-7.7 9.4-9 11.3-9.6 13-.4 1.1-1 2-1.5 2-.8 0-3 5.3-3 7.3 0 1.1 8.9 0 10.5-1.3.6-.4 3.8-1.6 7.3-2.5 3.4-1 6.2-2.2 6.2-2.6 0-.5.5-.9 1-.9.6 0 4.3-1.5 8.3-3.4 4-1.8 8.2-3.6 9.5-4 1.2-.4 2.2-1.2 2.2-1.7s1-.9 2.3-.9c1.7 0 2.8 1 4 3.5l1.7 3.5-4.2 2.7c-7 4.8-15.4 10.9-16.8 12.3-.3.3-2.3 1.8-4.5 3.4-2.2 1.6-9 7.9-15 14.1-12.1 12.1-14.8 16.9-12 21.1 1.8 2.7 6 3.5 18.7 3.5 10.5 0 28.6-1.8 30.3-3.1.6-.4 5.3-1.5 10.5-2.5 5.2-.9 10-2 10.5-2.5.6-.4 4.6-1.5 9-2.5 4.4-.9 8.5-2.1 9-2.5.6-.4 3.1-1.2 5.6-1.8 2.6-.7 5.3-1.4 6.1-1.7.9-.4 2.3.1 3.2 1 2.1 2.2 2.1 6.4-.1 7.2-1 .4-2 1-2.3 1.3-.3.4-2.5 1.8-4.8 3.1-2.4 1.3-5.8 3.2-7.4 4.1-1.7.9-3.4 2.1-3.7 2.5-.3.4-2.2 1.7-4.1 2.7-1.9 1.1-3.7 2.2-4 2.5-.3.3-3 2.5-6.2 4.9-8.5 6.5-8.3 7.2 1.6 7.2 8.9 0 24.4-1.8 26.1-2.9.6-.4 4.2-1.6 8-2.6 3.9-1 7.2-2.1 7.5-2.5.3-.3 2.1-1.2 4-2 6.4-2.5 29.4-16 31-18.2.3-.4 2.3-1.9 4.5-3.4 2.2-1.4 5.9-4.3 8.2-6.3 6-5.2 30.5-29.3 32.8-32.3 1.8-2.4 13.4-16.9 16.7-20.9 1.7-2.1 3.2-4.3 6.9-10.7 1.7-2.8 3.4-5.2 3.8-5.2.4 0 1.3-1.6 2-3.5s1.8-4.1 2.4-4.8c2.4-2.6 10.8-20.8 13.1-28.7 1-3 2.1-6.2 2.6-7.1 1.8-3.4 3.2-20.3 2.2-26.4-2.4-14.1-12.4-23.6-28-26.5-6.5-1.2-29.1-1.1-37.7.1zm-74.9 62.5c.4 1.7-.1 4-1.5 6.9-4.9 9.8-1.9 12.5 11.5 10 4.5-.8 9.7-2.1 11.6-2.9 6.3-2.5 8.8-2.8 8.8-1 0 1-.6 2.4-1.4 3.3-.8.9-2.5 2.8-3.9 4.2-1.3 1.5-4.3 5.5-6.5 9-2.3 3.5-4.6 6.9-5.1 7.5-1.8 2.3-4.4 11.1-3.7 12.9.6 1.6 1.5 1.7 8.2 1.2 4.1-.4 8.7-1.3 10.2-2 1.5-.8 3.9-1.7 5.3-2l2.7-.7-.2 8.6c-.1 8.4 0 8.6 2.9 10.9 4.7 3.8 8.9 4.4 18 2.3 4.4-1.1 9.1-1.8 10.5-1.6 2.1.3 2.5.8 2.5 3.8 0 2.8-.5 3.7-2.9 4.9-3.2 1.5-21.5 2.7-26.9 1.7-5.9-1.1-11.9-7.9-13.2-15-.5-2.6-1.2-3.6-2.6-3.6-1.1 0-1.9.4-1.9 1 0 1.3-14.7 1.3-16.3 0-.7-.6-2.1-1.7-3.2-2.5-1.7-1.1-2-2.5-2-8.2 0-5.7.6-7.9 3.5-13.8 1.9-3.9 3.9-7.3 4.4-7.6.5-.4-3-.8-7.8-1-6.9-.3-8.9-.8-9.7-2.1-.5-.9-1.6-2.4-2.4-3.2-1.6-1.6-2.1-11.5-.7-13.2.5-.5 1.7-3 2.6-5.7 1.6-4.3 2-4.7 5.2-4.7 2.8 0 3.5.4 4 2.6zM170.4 862.4c-.5.6-1.6 4-2.4 7.6-.7 3.6-2.1 8.3-3 10.5-.9 2.2-2.3 5.6-3.1 7.5-1.5 3.9-1.5 3.9-6 9.2-4.1 5-9.1 5.3-14.1.9-3.3-2.9-10.8-16.3-10.8-19.4 0-.9-.4-1.8-.9-2.1-.5-.3-1.4-2.8-2.1-5.6-1.4-5.8-2.6-5.3-5.5 2.3-1 2.6-2.1 4.7-2.4 4.7-.3 0-1.2 1.4-2 3.1-.7 1.7-2.3 3.9-3.4 5-2.3 2.1-7.7 2.5-9.5.7-.9-.9-1.2 3.6-1.2 20.4 0 11.9.4 21.9.8 22.2.5.3 1.2 4.3 1.5 8.8.4 4.6 1.3 10.3 2 12.8l1.3 4.5 3.1-4.6c1.8-2.6 4-6.6 4.9-9 1-2.4 2-4.6 2.4-4.9.3-.3 1.4-3.1 2.4-6.3 1-3.1 2.2-5.7 2.7-5.7s.9-.7.9-1.5.7-1.5 1.5-1.5c.9 0 1.5.9 1.5 2.3 0 1.3.4 2.7.9 3.2.5.6 1.6 4.4 2.6 8.5s2.1 7.9 2.5 8.5c.3.5 1.5 3.2 2.5 6 1 2.7 2.3 5.7 3 6.5.7.8 1.8 3 2.6 4.7.8 1.9 2.6 3.8 4.3 4.5 2.7 1.1 3 .9 5.7-2.3 1.5-1.8 3.3-5.2 4-7.4.7-2.2 1.9-5.1 2.6-6.5 1.4-2.6 4.6-13.9 6.5-22.8l1.1-5.2h4.4c2.4 0 4.3.3 4.3.7 0 2.5 3.2 19.1 4 20.8.5 1.1 1.7 4.8 2.6 8.2.9 3.5 2 6.3 2.4 6.3.4 0 1.5 1.7 2.4 3.9 1.9 4.1 5 6.1 9.4 6.1 1.9 0 4.2-1.7 8.8-6.4 3.4-3.6 6.5-7.4 6.9-8.5.3-1.2 1-2.1 1.4-2.1.4 0 1.6-1.9 2.7-4.3 2-4.4 3.7-6.7 5.1-6.7.4 0 3.4 2.9 6.7 6.5 3.2 3.6 6.3 6.5 6.8 6.5s1.6.7 2.4 1.5c.9.8 2.4 1.5 3.4 1.5 1.9 0 7-4.6 7-6.3 0-.5.6-1.5 1.4-2.2.7-.8 1.9-4.5 2.6-8.2.7-3.7 1.6-7.3 2-7.8 1.3-1.6 3-27.9 2.9-44.1 0-8.2-.3-14.2-.5-13.4-1.8 5.6-6.2 12.1-9.5 13.9-6.5 3.7-11.9 2.2-20.1-5.7-5.3-5.1-5.5-5.1-9.4 2.2-2.2 4-3.2 5.2-9.1 11.2-5.9 6.1-10.7 7.9-16.5 6.4-4-1.2-10.4-7.5-11.4-11.5-.3-1.4-1-2.5-1.5-2.5s-.9-.6-.9-1.3c0-.8-.9-4-2.1-7.3-1.1-3.2-2.6-8.7-3.2-12-.9-4.5-1.5-5.9-2.3-5z" stroke-width="3" fill="#4CB2E5" stroke="#4CB2E5"/><path d="M257.4 884.5c0 9.9.2 13.8.3 8.7.2-5.1.2-13.2 0-18-.1-4.8-.3-.6-.3 9.3z" fill="#667FB2" stroke="#667FB2" stroke-width="3"/><path d="M102.3 888c0 4.7.2 6.6.4 4.2.2-2.3.2-6.1 0-8.5-.2-2.3-.4-.4-.4 4.3z" fill="#933" stroke="#933" stroke-width="3"/><path d="M259.4 881.5c0 12.1.2 16.9.3 10.7.2-6.2.2-16.1 0-22-.1-5.9-.3-.8-.3 11.3zm-51.3 81c-1.7 2-4.7 4.7-6.7 6-2 1.4-3 2.5-2.2 2.5 1.4 0 12.8-10.3 12.8-11.5 0-1.1-.9-.4-3.9 3z" stroke-width="3" fill="#991919" stroke="#991919"/><path d="M103.4 910c0 5.2.1 7.4.3 4.7.2-2.6.2-6.8 0-9.5-.2-2.6-.3-.4-.3 4.8z" fill="#669" stroke="#669" stroke-width="3"/><path d="M339.7 1089.9c-2.7.4-5.2 1.3-5.6 2-1 1.6-2.1 30.1-2.1 54.9v19.2l2.5 1.2c3.3 1.5 7.2-.2 8.6-3.9.6-1.5 1.3-7.7 1.7-13.8l.7-11 7.5-.8c9.5-1 17.2-4.6 20.5-9.5 3.2-4.9 4.8-12.5 3.9-18.7-.8-6.5-2.4-9.3-7.3-13.8-6.6-5.9-16.2-7.7-30.4-5.8zm18.7 12.5c9.4 3.9 10.2 16.9 1.3 22.1-1.8 1.1-5.2 1.8-8.6 1.9l-5.6.1-.3-5.5c-.2-3-.1-8.8.3-12.8l.7-7.2h4.4c2.5 0 6 .6 7.8 1.4zm-164.8 2.1c-.3.9-.9 6.5-1.2 12.6-.7 10.6-.8 11-2.8 10.4-1.2-.4-4.6-.9-7.7-1.2-4.4-.4-6.4-.1-9.5 1.6-4.7 2.5-7.4 4.9-9.3 8.1-1.6 2.9-2.6 12.6-1.7 17.4.8 4.4 5.9 10.4 10.3 12.2 3.8 1.6 11.4 1.8 16.3.4 2.2-.6 3.8-.6 4.4 0 1.4 1.4 6.2 1.2 7.3-.3 1.5-1.8 2.7-58 1.3-60.6-1.3-2.5-6.5-2.9-7.4-.6zm-5.6 31.1 4 2.7v8.2c0 6.6-.3 8.5-1.7 9.6-5.4 4.3-9.2 4.9-14.7 2.3-4.2-2.1-5.6-5-5.6-11.7 0-6.3 1.5-9.5 5.5-11.8 4.3-2.5 8-2.3 12.5.7zm429.6-27c-.9.8-1.6 2.8-1.6 4.4 0 5.4 7.2 6.8 9.9 1.9 1.3-2.4 1.3-2.9-.2-5.3-2-3-5.7-3.5-8.1-1zm-358.1 15.8c-1.8 1.3-1.9 2.9-2 21.7v20.4l2.8.3c5.1.6 5.7-.9 5.7-13.7 0-13.3.8-15.4 6.7-17 3.8-1.1 7.2-.7 11.1 1.2 1.8.9 2.6.7 4.3-1.2 2.6-2.7 2.2-4.8-1.4-7.5-2.4-1.7-4.3-2.1-11-2.1-6.2 0-8.8-.4-10.7-1.8-3-2.1-3.1-2.1-5.5-.3zm175.7 1.4c-1.7 1.7-1.9 4-2.5 30.8-.3 19.2-.2 29.3.5 30.1.6.7 2.3 1.3 3.9 1.3 3.5 0 3.8-1.1 4.2-13.4l.2-8.8 8-.2c7.6-.1 8.4-.3 12.3-3.5 6-4.7 8.2-9.5 8.2-17.9 0-6.1-.4-7.4-3-11-4.3-6-7.9-7.5-18-7.7-4.7-.1-9.3-.5-10.2-.9-1.1-.5-2.3-.1-3.6 1.2zm22.5 9.9c3.5 2.6 4.9 7.1 3.9 12.6-1.3 6.9-8.7 11.1-15.9 9l-3.2-.9-.3-10.5-.3-10.6 3.3-1.6c4-1.9 8.2-1.3 12.5 2zm-236.8-8.9c-7 3.3-12.1 12-12.1 20.9 0 5.1.4 6.8 2.8 10.4 1.6 2.3 4.1 5.1 5.5 6.1 3 2.3 12.4 3.4 19.3 2.4 8.3-1.3 14.5-9 10.1-12.6-1.3-1.1-2-.9-4.3 1.2-1.5 1.3-4 3-5.5 3.6-3.4 1.5-10.4 1.6-11.2.2-.3-.6-1.5-1-2.5-1-1.7 0-7-5.2-7-7 0-.8 1.2-1.1 16-3.4 13.2-2.1 13.7-2.3 14.4-5.2 1.1-4.3-.4-9-4-12.5-3.2-3.1-3.8-3.3-11.6-3.6-4.6-.1-9 .1-9.9.5zm13.7 6.8c4.2 2 4.6 5 .7 5.8-3.4.7-15.5 2.6-16.5 2.6-2.1 0-.4-4.1 2.7-6.9 4.1-3.5 7.9-4 13.1-1.5zm167.2-6.6c-11.6 3.5-17.6 14.6-14.9 27.7 1.5 7.6 4.7 10.9 11.9 12.4 4.7.9 6.6.8 11.5-.5 5.5-1.6 6.1-1.6 7.8 0 2.4 2.2 6.9 1.1 6.9-1.7 0-1.1-.7-3.4-1.6-5.1-1.3-2.4-1.5-5.7-1.3-17 .3-12.5.2-14.1-1.4-15.3-2-1.5-14.6-1.8-18.9-.5zm10.1 5.9c1.1.7 1.4 3.4 1.2 12.8-.2 13.9-1 15.3-9.1 15.3-6.5 0-9-3-9-10.7 0-8.5 2.6-13.1 9.5-16.7 3.4-1.8 5.4-2 7.4-.7zm79.9-5.9c-11.2 3.4-17.5 15.3-14.9 28.2 1.5 7.2 4.8 10.4 12.3 11.9 4.5.9 6.5.8 11.1-.5 5.1-1.5 5.7-1.5 8.4.1 5.6 3.2 8.1-.7 4.7-7.2-1.3-2.4-1.5-5.6-1.2-16.6.2-10.1 0-14-1-15.2-1-1.1-3.2-1.5-9-1.5-4.2 0-8.9.3-10.4.8zm10.2 6c1.2.7 1.4 3.1 1.1 12.7-.3 14.2-.9 15.3-8.6 15.3-6.7 0-8.7-2-9.3-9.4-.7-8.9 2-14.2 9.3-18 3.4-1.8 5.4-2 7.5-.6zm31.7-5.6c-4.6 1.7-7 3.7-10 8.5-1.9 3.1-2.2 5-2.2 13.3 0 9.7 0 9.8 3.3 13 3.2 3.3 3.3 3.3 13.2 3.3h10v3c0 5.8-1.1 7.6-5.7 9.6-5.1 2.2-10.2 2.4-14.9.7-4.3-1.5-6.6.2-6.2 4.6.4 3.7 2.3 4.4 12.8 4.5 9.3.1 14.3-1.2 17.6-4.7 4.5-4.8 5.3-8.7 7.6-37.5l1-13.8-3.3-2.9c-3.1-2.7-4-2.9-11.4-2.9-4.4 0-9.7.6-11.8 1.3zm16.2 8.5c2.4 1.6.5 13.1-2.8 17.2-2.6 3.1-3.2 3.3-9 3.4-7.6 0-8.3-.9-7.8-9.2.3-7 2.1-9.8 7.1-11.2 4.1-1.2 10.7-1.3 12.5-.2zm26.6-8.5c-3.8 1.7-7.8 6.2-9.3 10.6-1.4 3.9-1.6 14.9-.3 18.3 1.3 3.4 6.5 8.3 10.2 9.6 4.1 1.4 14.7 1.4 19 0 7.1-2.4 11.1-8.8 7.4-11.9-1.4-1.2-3.5-.4-5.5 2.1-1 1.3-8.3 3.9-11 3.9-4.6 0-11.4-3.4-12.8-6.4-.7-1.5-1.2-2.8-1.2-3 0-.5 5.1-1.5 17-3.2 8.6-1.2 10.8-1.9 12.2-3.7 1-1.2 1.8-3 1.8-3.9 0-3.3-4.7-10.3-8.1-12-4.1-2.2-15-2.4-19.4-.4zm16.3 7.2c3 2.5 2.8 4.1-.5 4.8-5.3 1.1-16.7 2.5-17.1 2.1-1.2-1.2 1.2-5.6 4-7.4 4-2.6 10.3-2.4 13.6.5zm24.3-6.8c-1.1 2.1-1.8 36.3-.7 38 1.2 2 6.4 1.4 7.6-.7 1.5-2.9 1.3-36.4-.2-37.9-1.8-1.8-5.6-1.4-6.7.6z" stroke-width="3" fill="#337F19" stroke="#337F19"/></svg>