<svg version="1.0" xmlns="http://www.w3.org/2000/svg" viewBox="0 0 782 1258"><g fill="#FFF" stroke="#FFF" stroke-width="3"><path d="M0 629v629h782V0H0v629zm397.8-502.4c1.4 9.4 9.2 28.3 14 34.3 8.8 10.8 15 14.6 26.9 16.3 13.7 2 28.3-1.8 46.4-11.9 4.6-2.5 9.5-5.5 10.8-6.5 4-3.1 4.8-2.4 5.5 5.4 1.3 14.2 7.5 31.7 14.7 41.3 6.4 8.7 11.9 12.9 22.4 17.2 6.6 2.6 7.9 2.8 21.5 2.8 15.8 0 15.4.1 40.3-8.2 3.1-1 1.7 1.1-3 4.7-19.2 14.4-29.3 33.2-29.3 54.5 0 6.4.3 7.5 3.6 12.5 4.9 7.4 12.8 22.6 14.4 27.5.7 2.2 1.9 4.9 2.6 6 .6 1.1 1.5 3.6 1.9 5.5.4 1.9 1.6 6 2.5 9.1 1 3.1 2.3 9.1 3 13.5 3.9 26 14.2 47.2 27.6 56.5 8.8 6.1 16.3 8 35.3 9 16.9.9 20.8 1.5 30.1 4.6 9.8 3.4 14.3 9.7 11.9 17-1.4 4.3-9.1 12.2-14.6 15-13.4 6.7-15.7 9.7-14.8 18.8.9 8.5-.3 10.5-8.1 12.9-5.8 1.7-6 1.7-11.7-.4-3.1-1.2-6.3-2.7-7-3.4-2.6-2.6-11.7-8.4-14.1-9-1.9-.5-3.6.1-6.5 2.2-2.2 1.6-5.5 3.5-7.3 4.2-1.8.7-4.6 1.8-6.3 2.5-1.6.8-7.7 1.9-13.5 2.5-22.8 2.5-52.6-1.9-97-14.4-6.2-1.8-18.9-3.2-36.5-4.1-11.6-.6-25-2.7-28.4-4.5-.9-.4-4.3-2.1-7.6-3.6-9.3-4.3-19.1-14.7-24.5-25.9-6.1-12.8-5.9-12.4-7.4-19.5-.7-3.6-2.6-9-4.1-12-3.7-7.4-15.7-19.1-22.2-21.5-2.6-1-5.3-2.1-5.8-2.6-.6-.4-5.2-1.4-10.3-2-19-2.6-33.2 2.5-42.2 15-3.4 4.6-4 6.4-5 13.4-1.9 12.9 3 25.4 14.2 36.4 3.7 3.7 7.5 7.1 8.5 7.6s2.7 1.8 3.8 2.7c1.8 1.7 9.5 5.6 45 23.3 20.4 10.2 32.6 16.6 46 24.3 2.2 1.3 5.8 3.3 8 4.5 2.2 1.2 5.1 2.9 6.5 3.9 1.4.9 8.5 5.7 15.9 10.6 20.1 13.4 24.2 16.4 38.3 28.1 23.6 19.4 49.2 48.2 61.3 68.8 1.6 2.7 3.5 5.9 4.2 7 2.6 4.2 12.2 24.4 14.6 30.6 3.1 7.9 8.4 26 9.2 31.4.4 2.2 1.4 7.4 2.3 11.5 1.4 6 1.7 12.7 1.7 34-.1 24.7-.3 27.5-2.9 41.5-1.5 8.2-2.9 15.2-3.1 15.6-.2.3-1.3 4.1-2.5 8.5-6 22.7-19.6 49.2-34.4 67.1-5.7 6.9-19.8 21.2-26.1 26.3-5.8 4.7-17.6 12.9-27 18.7-3.3 2.1-26.1 13.3-26.9 13.3-.4 0-2.2.7-3.9 1.5-4.5 2.1-23.6 8.2-28.3 9.1-2.1.3-4.6 1-5.6 1.5-1.4.8-11 2.5-32.3 6-16.7 2.7-64 2-80.5-1.1-3-.6-10.2-1.9-16-2.9-18.1-3.2-40.9-9.9-56.2-16.4-7.7-3.2-29.4-14.2-36.2-18.2-19.3-11.5-46-35.1-55.1-48.6-1.6-2.4-3.7-5.3-4.7-6.4-1.5-1.8-11.3-20.5-14.6-28-1.7-3.9-5-15.3-6.8-23.4-3.4-15.1-3.4-49.4 0-63.6 3-12.9 4.7-18.9 6-21.9.8-1.7 3.1-6.9 5.2-11.6 2-4.7 4.5-9.6 5.4-11 1-1.4 3.2-4.8 4.9-7.5 8.9-13.9 24.5-28.2 38.5-35.2 11.5-5.7 19.2-7.5 34.1-8 14.1-.5 15.7-.3 29.5 3.7 22.1 6.3 36.6 18.6 42.6 36.2 3 9 3.1 17.6.3 27.2-5.4 18.4-17.8 31.5-33.5 35.2-6.2 1.5-8 1.5-13.2.4-12-2.5-15.1-6.8-9.1-12.6 5.8-5.5 8.9-11.3 8.9-16.6 0-4.1-.5-5.4-3.4-8.6-3.9-4.3-11-8.2-15-8.2-6.7 0-13.6 7.2-16.1 16.6-7.4 28.6 11.4 62 47 83.3 17.9 10.7 34.4 17.1 55 21.2 6.4 1.3 34.4 1.3 41 .1 19.3-3.8 41.1-14.1 51.7-24.6 4.5-4.4 11-15.3 13.1-22.1 4-12.9 4.1-14.5 1.8-23.4-3.5-14-11.5-23.6-27-32.6-4.5-2.6-8.4-5.3-8.6-5.9-.1-.6-.8-4.1-1.5-7.9-1.3-7.1-4.9-16.9-9.2-25.2-5.9-11.2-20.7-22-33.8-24.6-5.9-1.1-19.8-.8-28.1.7l-3.6.6-.7-6.8c-2.1-20.7-15-36.3-37.9-45.6-9.1-3.7-17.5-5.5-35.2-7.7l-5-.6-.7-7.5c-.9-10.2-2.9-15.8-10.4-30-4.9-9.1-23.5-27.1-37.9-36.5l-8-5.2-11.5-.7c-11.6-.7-19.8-2-23.5-3.6-1.1-.5-3.8-1.4-6-2-4.6-1.4-20.9-9.8-27.5-14.3-7.8-5.2-14.7-12.8-15.5-17-1.3-7 0-9.2 12.8-20.3l4.7-4.1-1.4-3.9c-.8-2.1-2.3-5.7-3.4-7.9-3.4-7-6.2-16.4-6.2-20.8 0-11.6 11.3-23.4 27.5-28.7 4.5-1.5 10.9-5.3 12.2-7.2.4-.7.8-6.8.8-13.5 0-12.1 0-12.2 2.9-15.2 3.2-3.4 7.9-5.1 13.9-5.1 4.3 0 9.2-2.9 18.4-10.7 27.2-23.4 32.5-60.3 14.9-103.7-2-4.9-3.6-9-3.6-9.2 0-1.2 2.7.1 8.7 4 18 11.6 33.2 15.2 47.1 11.1 10.4-3.1 22.5-19.3 26.3-35 .7-2.8 1.5-5.5 2-6 1.3-1.7 5.9-38.2 5.9-46.9 0-5 1.2-5.9 3.1-2.4 2.6 4.9 15.1 18.8 21.1 23.3 3.5 2.6 9.2 6.1 12.8 7.8 6 2.8 7.4 3.1 17.5 3.1 9.9.1 11.8-.2 18.4-2.8 8.9-3.5 11.8-5.3 21.9-13.2 9.9-7.8 21.3-20.1 28.2-30.2 3.6-5.3 5.3-6.1 5.8-2.6zm-141.6 967.7c6.2 2.8 8.5 5.8 7.4 10-1 4.1-5.4 5.2-13.1 3.3-11.6-2.9-22.4-1.7-27.7 3.1-2.4 2.1-2.4 7.9 0 9.1.9.5 6.9 1.3 13.2 1.6 15.7 1 21.4 2.7 26.7 8.2 4.6 4.8 5.8 8.6 5.1 16.4-.9 9.2-8.8 17.4-19.7 20.6-3.1.9-6.6 2-7.9 2.5-1.3.5-5.9.9-10.2.9-16.5 0-29.4-5.9-30.7-14.1-1.2-8 6.7-10.2 15.5-4.4 11.5 7.6 36.2 2.2 36.2-8 0-4.5-4.2-6.5-14.2-6.5-12.6-.1-20.2-1.5-25-4.7-7.5-4.9-10.8-15.3-7.4-23.4 3.1-7.4 7.8-11.3 18.9-15.5 5.4-2 7.6-2.3 16.7-2.1 8.8.3 11.4.8 16.2 3zm-185.1 8.6 2.4 1.9-.4 29.3c-.2 16.1-.7 30.3-1.1 31.4-.4 1.1-2 2.7-3.5 3.5-2.4 1.3-3 1.2-5.7-.3-2.7-1.6-3.3-1.6-6.1-.2-9 4.5-21.9-1.5-26.8-12.4-7.3-16.5 8.5-35.9 25.6-31.3 2.2.6 4.1 1 4.2.8.1-.1.5-5 .9-10.9.6-9.3 1-11 2.8-12.2 2.8-2 4.9-1.9 7.7.4zm370.8-.3c8.6 3.4 4.8 12.4-5.2 12.4-3.9 0-5.4 1.4-6.3 5.8l-.6 3.2h4.5c9.1 0 13.7 4.3 10.3 9.5-1.5 2.2-2.3 2.5-8.1 2.5-3.6 0-6.6.1-6.6.2-.1.2-.4 6.9-.8 14.9-.5 12.5-.9 15-2.5 16.8-2.3 2.5-5.3 2.7-7.8.4-1.6-1.4-1.8-3.3-1.8-16.3v-14.7l-3.9-.7c-3.9-.6-7.1-3.5-7.1-6.4 0-2.7 4.8-6.2 8.5-6.2 1.9 0 3.5-.2 3.5-.4s.5-2.7 1-5.7c1.9-9.8 7.6-15.1 18.2-16.8.4 0 2.5.6 4.7 1.5zm136 .5 2.4 2-.6 29.5c-.4 24.7-.8 29.9-2.1 31.9-2.1 3.2-5.9 4.1-8.7 2.1-1.9-1.3-2.6-1.3-5.7-.1-8.5 3.6-19.2-.3-25.1-9-3.2-4.8-3.3-5.3-2.9-13 .3-6.7.9-8.7 3.1-12 5.3-7.8 15.5-12 23.8-9.8l3.7 1 .6-6c.3-3.3.6-7.7.6-9.7 0-4.5 3.2-9 6.3-9 1.2.1 3.3 1 4.6 2.1zm61.9-.1c2 1.9 2.2 3.1 2.2 12.6v10.6l3.3-.9c4.8-1.2 13-.7 16.5 1.1 1.7.9 4.1 3 5.4 4.8 2.1 3.1 2.3 4.4 2.6 19.1.4 17.9-.2 19.7-6.4 19.7-5.4 0-6.4-2.5-6.4-16 0-13.8-1-16.4-6.2-16.8-2.6-.2-4.3.3-6.3 2-2.5 2.2-2.7 2.9-3.2 14.3-.6 11-.8 12.1-3.1 14.2-3.1 2.9-5.2 2.9-8.2.1l-2.3-2.2.6-20.9c.4-11.6.7-25.2.7-30.3 0-8.3.2-9.5 2.2-11.4 1.2-1.1 3.1-2 4.3-2 1.2 0 3.1.9 4.3 2zm-131.6 20.6c2 1 4.2 1.4 6.5.9 12-2.2 22.1 5.7 16.7 13.3-1.8 2.6-3.9 2.8-8.4.6-2.7-1.4-3.9-1.5-7.1-.5-2.1.6-4.3 2-4.9 3.1-.5 1-1 7-1 13.4 0 11.2-.1 11.5-2.6 13.5-3.4 2.6-6.6 2.7-8.9.1-1.7-1.8-1.7-3.5-1.1-22.2.6-16.4 1.1-20.6 2.3-22.1 2-2.1 4.5-2.2 8.5-.1zm222.8.1c2 1.4 4.2 1.7 11 1.5 7.1-.2 9 0 11.7 1.7 5.9 3.7 6.8 6.8 6.8 23.7 0 13.5-.2 15.4-1.9 17.3-2.5 2.8-7 2.7-9-.1-1.3-1.8-1.6-5.1-1.6-15.4 0-15-.5-16.1-6.7-15.1-6.2 1.1-7.1 2.7-8.3 16.7-.9 11.1-1.3 12.7-3.3 14.2-3 2.4-4.4 2.2-7.2-.7-2.3-2.3-2.5-3-2.4-12.7.1-5.7.4-14.7.8-20.1.5-8.1.9-10.1 2.5-11.3 2.6-1.9 4.6-1.8 7.6.3zm-346.5.3c6.3 0 7.7.4 11.9 3.1 6.3 4.2 9 9.5 8.9 17.4-.1 7.5-2.8 14-7.7 18.3-4.3 3.8-7.2 4.7-14.7 4.7h-5.7l-.6 4.4c-.3 2.4-.6 6.9-.6 9.9 0 6.3-1.8 9.2-5.8 9.2-5.4 0-6.2-2.1-6.2-16 0-7 .3-20.9.7-30.9.7-21.1.9-21.7 8.1-20.7 2.5.3 7.7.6 11.7.6zm-268.3 2.7c1.8 1.6 1.9 2.8 1.2 13.8-.5 9.6-.3 13.3 1.1 18.7 2 8.2 1.1 10.8-3.7 10.8-1.7 0-3.9-.7-4.9-1.6-1.5-1.4-2-1.4-5.4 0-9 3.8-19.4.9-24.2-6.7-2.3-3.6-2.7-5.3-2.8-11.8 0-7.6.8-10.2 4.8-16.2 2.2-3.3 8.9-7.7 13.2-8.8 5.1-1.3 18.6-.1 20.7 1.8zm39.8-.1c2.6 2.2 3.1 3.3 2.8 6.2-.4 5.1-2.6 6-8.8 3.8-5-1.8-9.1-1.6-11.7.6-1.9 1.6-.6 2.8 3.1 2.8 1.8 0 5.7 1.2 8.7 2.7 6.7 3.5 9.2 7.6 8.6 14.6-.7 8.6-7.1 12.7-19.4 12.6-12.8-.1-20.2-5.9-15.9-12.4 1.5-2.3 2.3-2.6 5.4-2.2 2.1.2 5.1 1 6.8 1.7 3.6 1.6 10.4.6 10.4-1.5 0-2-1.4-2.6-9.4-4.1-9.7-1.8-12-4.4-11.4-12.6.8-10.7 6.2-14.8 19.5-14.8 7.3 0 8.5.3 11.3 2.6zm148.8.1c4.5 3.3 7.2 8.2 7.2 12.8 0 7.2-1.4 8-18.5 10.6-11.7 1.7-11.9 1.8-10.4 3.5 4.3 5.2 13.4 5.9 20 1.4 4.8-3.2 6.8-3.7 8.7-1.8 1.9 1.9 1.4 7.2-.8 10.1-2.3 2.8-12.5 6.7-17.8 6.7-5.7 0-13.3-3.2-17.3-7.3-10.2-10.4-6-31.2 7.6-37.4 4.5-2 17.8-1.2 21.3 1.4zm45.9-.1c4.5 3.4 7.3 8.2 7.3 12.9 0 7.3-1.2 8-20.3 10.9-4.8.7-9 1.5-9.3 1.8-1.3 1.4 6.2 5.2 11 5.6 4.4.3 5.7 0 9.6-2.7 5.4-3.7 7.4-3.8 9.4-.9 2.3 3.3 2 5.3-1.6 9.1-3.5 3.6-11.7 6.7-18 6.7-3.7 0-10.9-2.6-14.9-5.3-7-4.7-9.6-18.5-5.2-27.9 2.6-5.5 7.6-10.5 11.8-11.8 5.3-1.7 17-.7 20.2 1.6zm131.3-.3c3 1.6 5.1 3.7 6.7 6.7 2.8 5.3 2.9 8.9.3 12.2-2 2.6-2.8 2.8-19.4 5.2-4.4.6-8.1 1.6-8.3 2.3-.3.7 1.5 2.2 3.8 3.4 5.6 2.8 12.2 2.3 17.1-1.4 4-3.1 6-3.4 8.2-1.1 4.5 4.5-.8 12-10.6 14.9-6.9 2-10.6 1.9-17.1-.5-11.5-4.3-16.1-14.7-12.6-28.6 1.3-5.2 9.1-13.9 13-14.7 7-1.3 14.7-.6 18.9 1.6zm134.7.3c1.5 1.1 3.4 3.3 4.1 4.8 1.2 2.3 1.1 3.1-.2 5.2-1.9 2.7-4.8 3-8.6.9-3-1.7-9-1.9-12.4-.4-3.9 1.8-6.2 8.8-4.7 13.9 1.9 6.3 9.9 9 16.1 5.5 4.1-2.3 8.9-1.9 10.1.9 2.1 4.5.4 7.5-5.7 10.2-12.8 5.6-27.5.7-31.3-10.5-1.4-4.3-1.4-13.4 0-18.5 1.3-4.8 8.1-12.3 12.3-13.6 5.5-1.6 17.1-.7 20.3 1.6zm91.1.1c4.7 3.4 7.2 8.1 7.2 13.3 0 6.9-1.1 7.5-18.5 10.1-11.7 1.7-11.9 1.8-10.4 3.5 4.3 5.2 13.4 5.9 20 1.4 6.8-4.6 9.9-3.6 9.9 3 0 4.7-2.8 7.3-10.5 10-7.1 2.5-11.2 2.5-17.8.2-9.5-3.3-14-9.9-14-20.8 0-6 .4-7.9 2.8-12 5.2-9.1 9.8-11.6 20.8-11.1 5.8.3 8.5.9 10.5 2.4z"/><path d="M495.6 321.4c-11.2 4.7-17.6 14.1-17.6 25.8 0 11.5 5.6 20.4 16.3 26 6.5 3.4 16.8 3.1 23.6-.6 6.3-3.4 9.3-6.2 12.8-12.4 2.3-4 2.7-5.8 2.7-12.7 0-6.9-.4-8.7-2.7-12.7-7.8-13.5-21.9-18.9-35.1-13.4zm22.3 18.2c6.8 3.4 7.6 14.1 1.4 18.1-3.2 2.1-9.4 2.1-12.6 0-5.6-3.6-5-14.4.9-17.8 3.7-2.2 6.3-2.3 10.3-.3z"/><path d="M513.7 343.7c-1.2 1.1-.7 4.1.7 4.6.8.3 2.2 0 3.2-.8 1.5-1.1 1.6-1.5.5-2.9-1.4-1.7-3.3-2.1-4.4-.9zM47.2 1136.5c-5.1 2.2-7.8 10.5-5.1 15.8 2.9 5.6 9 7.2 14.8 3.9 3-1.7 3.1-1.8 3.1-9.4 0-7.4-.1-7.8-2.7-9.1-4.7-2.4-6.7-2.7-10.1-1.2zm506.9-.2c-6.7 2.3-9.2 12-4.6 17.5 3.8 4.5 7.3 5.4 12.4 3.1l4.1-1.8v-8c0-7.3-.2-8.2-2.2-9.5-3.6-2.2-6.1-2.6-9.7-1.3zm-175.3-.7c-1.6.5-1.8 1.8-1.8 9.9 0 10.2.2 10.5 6.4 10.5 4 0 7.1-2.2 9.2-6.5 1.9-4 1.3-7.3-1.9-11-2.2-2.6-8-4-11.9-2.9zm-282.9 1.7c-4.3 2.9-7.4 10.1-6.5 14.8 1.1 5.6 3.1 7.4 8.1 7.3 7-.1 7.5-1 7.5-13.5V1135h-2.9c-1.5 0-4.3 1-6.2 2.3zm190.3-.7c-3 2.1-2.8 3.7.6 3 1.5-.3 5.2-.8 8.1-1.2 5-.6 5.3-.8 3.6-2-2.5-1.9-9.5-1.8-12.3.2zm47-.9c-.7.2-1.7 1.4-2.3 2.5-1 1.8-.8 2 1.8 1.5 1.5-.3 5.3-.9 8.2-1.3 5-.6 5.3-.8 3.6-2-1.8-1.3-8.7-1.8-11.3-.7zm131 1.3c-1.3 1.2-2.2 2.4-2 2.5.4.5 15.1-1.5 15.7-2.1 1-1-1.3-1.8-6.2-2.2-4.3-.3-5.6 0-7.5 1.8zm225-.4c-3 2.1-2.8 3.7.6 3 1.5-.3 5.2-.8 8.1-1.2 5-.6 5.3-.8 3.6-2-2.5-1.9-9.5-1.8-12.3.2z"/></g><g fill="#19667F" stroke="#19667F" stroke-width="3"><path d="M394.3 128.7c-.7.3-1.3.9-1.3 1.5 0 3.3-20.8 25.6-31 33.1-7.8 5.8-21.5 12.4-28.8 13.8-12.2 2.3-26.7-.9-37.8-8.5-5.2-3.5-15-13.2-19.8-19.5l-4.1-5.5-.7 4c-.4 2.1-1.4 10.9-2.3 19.5-1.7 16-1.9 17.1-5.4 29.5-3.9 13.6-12.1 26.8-20.3 32.7-4 2.9-18.1 7.2-20.5 6.3-.8-.3-4.3-1-7.9-1.6-7.1-1.1-18.1-5.9-27-11.5-5.2-3.3-5.5-3.4-4.9-1.3.4 1.3 1.5 3.9 2.5 5.8 2.5 5.1 6.8 19.5 8 27 2.1 13.9.4 42-2.9 46.5-.4.5-1.4 2.6-2.1 4.5-3.5 9.5-19.7 28.2-28 32.5-3.6 1.8-3.2 3.1 1.1 4 1.8.4 5.4 3 8.8 6.3 5.1 5.1 8 9 15.6 21.2 10.4 16.7 10.3 16.6 11 13.4.4-1.6 1.5-5.5 2.6-8.7 1-3.1 1.9-6.4 1.9-7.2 0-1.4 2.7-8.9 7.7-21 3.4-8.3 13.2-27.7 14.9-29.6.8-.8 1.4-1.9 1.4-2.2 0-1.1 10.9-17.4 16.4-24.7 13-17.2 22.8-27.6 36.1-38.4 13-10.6 14.1-11.3 26.5-17.9 20.6-10.8 39.1-16.4 65.5-19.7 8.8-1.1 44.3-1.1 51 0 2.8.4 10.2 1.5 16.5 2.5 31.9 4.6 58.7 14.2 79.8 28.4 25.8 17.4 44.3 37.5 57.7 62.6 7.5 14.2 13.9 33.6 16.5 50.5.6 4.1 2 10.1 3.1 13.3 1 3.1 1.9 6.3 1.9 7.1 0 2.8 10 20.9 14.4 26.1 5.4 6.2 10.9 10.2 19.3 13.8 7.3 3.2 13.7 4.4 28.3 5.2 15.1.8 27.5 3.1 32.6 6.1 6.5 3.7 6.7 6.5.8 11.9-4.6 4.2-5.2 4.6-12.4 8.9-12.2 7.3-14.3 10.7-13.8 21.8l.3 6.3-4.7.9c-4.7.9-9.3-.2-12.1-2.8-3.4-3.2-9-6.7-14.8-9.4-6.2-2.7-7.5-2.9-24-3.5-9.6-.4-19.2-1.1-21.4-1.6-13.1-3.1-17.2-4.4-23.7-7.7-8-4-17.1-12.4-19.4-17.9-.8-1.9-1.7-6.2-2.1-9.5-.6-5.7-.5-6 1.6-6 4.4 0 1.4-2.5-3.3-2.8-5.7-.4-8.9 1.8-8.4 5.7.4 3.7 3.5 4 4.1.4.3-2.2.4-1.9.6 1.2.3 8.7 6.5 20.3 14.3 26.7 12 9.8 28.2 14.6 55.6 16.4 5.6.4 10.5 1 10.8 1.5.6 1.1-3.5 3.1-11.1 5.5-5 1.6-9.2 1.9-25.5 1.9-11.9 0-21.6-.5-25-1.2-3-.7-10-2.1-15.5-3.2-9.8-1.9-17.7-3.8-41.9-10-10.3-2.6-14.8-3.2-32.5-4-19.3-.9-21.1-1.2-29-4.1-18-6.6-27.6-17.4-34.3-38.5-3.4-10.7-4-18-2.5-31.3.8-6.8.7-7.2-1.2-7.2-1.6 0-2.1.9-2.6 4.7-1 7.6-1.6 10.3-2.3 10.3-.4 0-2.2-2.1-4.1-4.6-4.7-6.2-12.5-12.6-19.3-15.8-15.7-7.4-40.2-7.4-52.1 0-10 6.3-15.2 12.6-18.5 22.3-7.5 22.3 6.2 47.1 35.3 63.8 1.1.6 7.2 3.7 13.5 6.8 32.5 16.2 53.1 26.7 61.5 31.5 2.8 1.6 5.9 3.3 7 3.8 1.1.6 4.9 2.8 8.5 5.1 3.6 2.2 7.9 4.8 9.5 5.7 9.1 5.1 39.8 26.6 49 34.4 6.4 5.5 24.2 21.7 27.5 25.1 44.6 46.2 67.1 98.2 67 155.4-.1 9.3-.5 19.9-1 23.5-3 21-4.2 28.1-5.6 33-3 10.8-7.6 24.6-9.6 29-3.9 8.8-9.2 19.5-10.8 22-1 1.4-3.4 5-5.4 8-8.3 12.6-9.7 14.3-21 25.9-11.5 11.8-25.6 23-38.3 30.4-7.3 4.1-26.3 13.3-30.8 14.8-2.2.7-4.4 1.6-5 2-1.8 1.1-19.9 6.8-27 8.4-17.6 4.1-25.7 5.4-46 7.5-23.4 2.5-63.9-.3-88-6-4.4-1-9.6-2.1-11.5-2.5-4.9-1-24.8-7.6-35.5-11.8-39.9-15.6-75.3-42.3-95.4-71.7-4.1-6-11.8-21.1-14.6-28.5-6-16-7.7-25.6-8.2-46.5-.5-20.5.2-27.6 4.5-44.5 8.6-33.5 30.4-62.2 56.5-74.4 12.5-5.9 35.2-9 44.3-6.2 1.6.5 6.3 1.7 10.4 2.6 4.1 1 8.3 2.3 9.5 3 1.1.7 3.1 1.6 4.4 2 4.1 1.2 12.8 7.3 17.5 12.2 7.2 7.5 10 14 10.4 24.8.7 15.4-3.5 26.2-13.9 36.2-8 7.5-17.6 10.7-27.4 8.9-4.2-.8-4.4-2.2-.9-5.9 3.4-3.7 7.4-12.5 7.4-16.4 0-10.9-13.4-23.3-25.2-23.3-6.6 0-10.7 1.9-15.2 7.1-4.4 5.1-5.2 6.8-7.7 16.8-2.4 9.4-2.4 12.8.2 24.3 4 17.5 10.7 28.8 25.8 43.8 17.6 17.5 39.4 29.9 66.6 37.9 12 3.5 19.5 4.4 36.5 4.5 21.1 0 34.3-2.6 49.8-9.9 2.9-1.4 5.5-2.5 5.7-2.5 1.2 0 14.7-9.2 20.3-13.9 6.8-5.7 17-17.8 20.4-24.5 4.2-7.8 7.8-18.1 8.8-24.6 1.3-8.6 1.2-28.9-.1-37-1.6-10.5-7.8-28.6-11.9-35-.5-.8-1.9-3.1-2.9-5.1-1.1-2-3.5-5.6-5.3-8-1.8-2.4-4-5.5-4.9-6.9-3.9-6-25.7-26.7-35.3-33.5-1.6-1.1-4-2.9-5.5-4.1-9.1-7.3-29.7-19.3-52.1-30.5-10.2-5.1-22.5-11.5-27.5-14.2-32-17.7-58.1-41-74-66.2-2.1-3.3-3.9-6.2-4.1-6.4-.2-.2-.9.1-1.6.7-2.6 2.1-27.5 8.1-34.2 8.2-3.3 0-3.7.2-2.6 1.5.7.8 1.7 1.5 2.2 1.5 2.1 0 18.2 12.6 26.1 20.4 7.2 7.1 16.7 19.2 16.7 21.3 0 .3.6 1.4 1.4 2.2 2.6 3 7.5 17.9 8.1 24.9l.7 7 5.7.7c23.3 2.9 39.5 8.4 51.8 17.7 4.7 3.6 12.3 11.7 12.3 13.3 0 .3.9 1.8 1.9 3.3 2.3 3.3 5.8 13.9 6.6 20.6l.7 4.8 3.6-.6c16.1-2.7 27.8-1.4 39.2 4.1 11.7 5.7 23.3 19 27 30.8.7 2.2 1.6 4.5 2.1 5 .4.6 1.5 5.1 2.5 10.1l1.7 9.2 6.6 3.5c19 10.3 30.1 26.1 30.1 42.7 0 16.7-12.2 38.4-26.1 46.5-11.1 6.4-14.9 8.5-15.6 8.5-.4 0-2.5.9-4.5 2s-5.8 2.5-8.5 3.1c-2.6.6-6.8 1.8-9.3 2.7-6.6 2.2-37.1 2.8-47 .9-23.3-4.6-42.4-12.4-61.6-25.3-30.1-20.2-46.2-48.6-42.6-75.2 3.2-23.6 18.6-30.7 34.5-15.9 7.4 6.7 5.9 17.1-3.7 27-2.5 2.6-4.6 5.1-4.6 5.6 0 1.7 2.8 3.1 9.4 4.8 5.7 1.4 7.7 1.4 13.6.4 27.8-5 44-43.1 29.3-68.9-7.5-13.1-20.7-21.9-41.8-27.8-8.5-2.3-11.9-2.7-22.5-2.7-10.9 0-13.7.3-21.5 2.8-27 8.3-47.1 26.6-61.3 56-2.2 4.4-4.3 9.1-4.7 10.5-.4 1.4-1.1 3-1.6 3.5-.4.6-1.5 4.4-2.5 8.5-.9 4.1-2 7.9-2.4 8.5-3.4 4.4-4.6 48-1.7 63 1.8 9.5 5.6 23.6 6.6 25 .5.5 1.6 3.2 2.6 5.9s3.1 7.2 4.7 10c1.5 2.8 3.7 6.9 4.9 9 1.1 2.1 2.5 4.4 3 5 .5.6 3 3.9 5.5 7.4 5.1 6.9 22.1 24.1 30.6 30.9 6.4 5.2 22.6 16.3 23.7 16.3.5 0 1.9.9 3.3 1.9 2.6 2.1 26 14.1 27.4 14.1.5 0 2.1.6 3.5 1.4 1.5.7 5.1 2.2 8 3.1 3 1 5.9 2.1 6.4 2.5.6.4 3.3 1.3 6 2 2.8.7 6.4 1.9 8 2.6 4.5 1.9 19.5 5.3 33 7.5 6.6 1.1 14.5 2.5 17.5 3.2 7.4 1.6 69.8 1.7 75.5 0 2.2-.6 9.6-2 16.5-3.1 16.7-2.7 36.8-8.3 47.7-13.3 2.4-1 4.5-1.9 4.8-1.9 2 0 22.8-10.4 26.4-13.2 1.3-1 2.7-1.8 3.1-1.8.8 0 8.9-5.3 13.4-8.7 1.3-1 3.7-2.7 5.2-3.8 9.5-6.8 28.9-26.7 36.2-37 7.1-10.2 15.7-25 18.2-31.5.7-1.9 1.7-4 2.1-4.5 1.3-1.8 7.6-19.8 8.3-24 .4-2.2 1.1-4.5 1.6-5 .4-.6 1.5-5.7 2.4-11.5.9-5.8 2.2-12.3 2.9-14.5 1.7-5.6 1.7-61.4 0-67-.7-2.2-2.1-8.3-3.1-13.5-2.1-10.1-5.9-23.8-7.2-25.5-.4-.6-1.5-3.4-2.5-6.4-2.7-8.3-14.4-30.5-21.6-41-3.5-5.1-7.1-10.3-7.9-11.5-9.5-13.9-43.5-47.7-59.4-59.1-1.5-1.1-5.3-4-8.4-6.4-10.1-7.7-48-32.1-50-32.1-.3 0-1.3-.6-2.1-1.4-2-1.7-23.6-13-48.1-25.1-18.6-9.3-29.7-14.8-34.8-17.4-9.2-4.8-23.1-17.7-27.7-25.8-5.8-10.2-7.2-23.7-3.4-33.7 4.3-11.7 16.5-20.7 30.6-22.7 8.4-1.2 22.8.4 28.9 3.1 2.4 1.1 4.6 2 4.9 2 1.6 0 10.5 6.9 14.7 11.4 6.1 6.5 10.4 14.8 11.8 22.7.7 3.5 1.5 6.8 1.9 7.4.4.5 1.6 3.2 2.6 5.9 5.6 15.3 18 28.7 30.6 33.1 2.3.9 4.7 1.9 5.3 2.4 2.3 1.7 14.7 3.4 31.6 4.1 16.5.8 34.3 3.5 38.8 6 2.5 1.3 34.3 8.5 48.7 11 15.5 2.6 47.7 2 53.4-1 .9-.5 4.1-2 7.1-3.5 3-1.4 6.7-3.3 8.1-4.2 3.8-2.4 8.6-1 16.1 4.5 9.3 7 14.1 8.6 21 7 7-1.5 8.1-3.2 7.5-10.7-.8-10.1.4-12 12-18.9 3.9-2.3 9.5-6.4 12.3-9 4.2-3.8 5.2-5.5 5.7-8.8.5-3.6.1-4.5-2.7-7.7-5.1-5.9-15.6-8.6-37.4-9.7-14.6-.8-18.6-1.3-24.7-3.5-13.1-4.6-21.9-12.5-29.1-26.4-5.1-9.6-7.6-17.8-11.3-36.1-2.6-12.9-6.3-27-7.4-28.5-.5-.6-1.5-3.2-2.4-5.8-1.5-4.4-8.1-17.1-15.8-30.2-2.7-4.6-2.9-5.7-2.6-12.5 1-19 7.9-34.3 21.6-47.3 5.9-5.7 6-5.8 2.9-5.2-1.8.4-6 1.6-9.3 2.7-8.1 2.5-25.2 3.5-34.1 1.8-3.8-.7-7.3-1.6-7.9-2-.5-.3-3.1-1.4-5.7-2.4-2.7-1-4.8-2.1-4.8-2.6s-.8-1.1-1.9-1.5c-2.5-.8-10.8-9.1-13.9-14-4.3-6.7-7.2-12.8-8.6-18-.8-2.8-1.8-6.1-2.4-7.5-.5-1.4-1.2-4.8-1.6-7.5-.4-2.8-.9-6.6-1.2-8.7l-.5-3.6-7.7 4.6c-20.3 12.3-31.8 15.8-49.5 15-9.2-.4-10.9-.8-16.2-3.7-6.8-3.7-12.3-8.7-16.6-14.9-1.6-2.4-2.9-4.5-2.9-4.7 0-.3-1.3-3.4-3-6.8-1.6-3.5-3-6.9-3-7.4 0-1.5-3.2-11.7-3.9-12.4-.3-.4-1.2-.4-1.8-.2z"/><path d="M419.8 233.1c-3.2 1.2-6.8 6.6-6.8 10 0 3.4 3.6 8.8 6.6 9.9 4 1.5 6.8 1.2 10.5-1.3 6.6-4.5 5.8-14.6-1.6-18.1-3.7-1.8-4.9-1.9-8.7-.5zM378 251.2c-4.4 4.7-1.3 12.1 5 12.1 4.1 0 7-2.8 7-6.9 0-6.5-7.7-9.8-12-5.2zM167.2 736c-4 2.4-5.5 6.2-4.8 11.5.7 6 4.5 8.9 10.9 8.2 3.7-.3 5.5-1 6.8-2.8 4.6-6 2.8-14.7-3.7-17.4-4.7-1.9-5.2-1.9-9.2.5zm-16.4 46.1c-2.5 1.4-2.4 7.5.1 8.9 2.9 1.5 5.6 1.2 7.4-.8 2.3-2.5 2.1-4.7-.5-7.2-2.4-2.2-4.4-2.5-7-.9zm20.6 33.3c-2.1 2.1-3.5 4.5-3.6 6.2-.2 4.6.3 8.7 1.3 10.7 1.4 2.5 8.4 6.7 11.4 6.7 4.5 0 10.1-4.4 12-9.4 1.7-4.4 1.7-4.8 0-9.2-2.2-5.8-6.2-8.4-12.8-8.4-4.2 0-5.4.5-8.3 3.4z"/></g><path d="M436.4 723c0 6.3.1 8.9.3 5.7.2-3.1.2-8.3 0-11.5-.2-3.1-.3-.5-.3 5.8z" fill="#197F99" stroke="#197F99" stroke-width="3"/><path d="M387.8 212.7c3.4.2 8.8.2 12 0 3.1-.2.3-.3-6.3-.3s-9.2.1-5.7.3zm190.5 264c3.2.2 8.1.2 11 0 2.9-.2.3-.3-5.8-.3-6 0-8.4.1-5.2.3z" stroke-width="3" fill="#3399B2" stroke="#3399B2"/><path d="M373.5 214c-40.6 3.8-76.2 19.2-103.9 45.1-6.1 5.7-23.6 25.7-27.6 31.6-.8 1.2-4 5.7-7 10-16.9 24.3-34.8 64.7-36.7 82.8-.4 4.2-.2 5.4 1.8 7.7 5.4 6.2 12.6 13.5 15.9 15.9 4.5 3.3 16.9 9.9 18.7 9.9.8 0 5.8 2.1 11.1 4.7 10.8 5.2 19.2 12.7 21.3 19 1.7 5.4.6 14.7-2.4 19.2-3.6 5.3-8.4 10.2-14.2 14.1-2.7 1.8-6.2 4.2-7.7 5.2-4.1 2.7-24.1 12.6-27.2 13.4-1.4.3-2.6.8-2.6 1.1 0 1.2 11.1 16.7 17.1 24 19.1 22.7 41.1 38.5 82.8 59.4 42.2 21 65.1 36.5 86.5 58.3 17.4 17.8 27 33.3 33.5 54.1 6.5 20.4 6.6 46.8.3 64-10.1 27.6-35.4 50.2-67.2 59.8-13.4 4.1-21.7 5-41 4.4-23.1-.6-32.5-3-60.4-15.2-11.6-5-31.2-18.9-41-29-18.4-18.9-27.8-43.2-24.7-64.3 1.5-10.6 5.1-18.1 11-23.3 7.6-6.7 15.7-7.4 25.3-2.2 6.6 3.6 12.2 9.9 14.2 16.1 1.7 5.1 1.7 5.4-.3 11.3-1.1 3.3-3.4 7.8-5.2 10-1.7 2.2-2.9 4.3-2.5 4.6.4.4 3.5.7 7 .7 23.5 0 40.9-30.3 32-55.8-2.4-7.1-13.6-18.1-23.1-22.9-22.9-11.4-49.8-12-70.8-1.4C165 657 147 678.2 136.7 705c-15 38.5-12.1 86.4 7.4 121.8 6.6 12 10.9 17.8 22.9 30.5 19.7 20.9 47.6 39.1 77.7 50.8 4.3 1.6 9.3 3.7 11.2 4.5 1.9.9 8.4 2.2 14.5 3 6.1.8 13 1.9 15.4 2.4 5.5 1.3 34.9 1.3 40.4 0 2.4-.5 10.4-1.7 17.8-2.6 7.4-.9 14-1.9 14.5-2.4.6-.4 3.9-1.3 7.5-1.9 9.4-1.8 29.5-8.6 41.7-14.2 5.7-2.5 7-2.4 8.7.9 2.1 4.1 9.7 10.8 15.7 13.7 6.3 3.2 11.7 4.6 12.4 3.4.3-.4-1.4-1.3-3.7-1.9-7.4-1.9-7.9-2.1-12.4-5.1-4.7-3.2-12.4-11.6-12.4-13.6 0-.7 2.6-2.6 5.8-4.1 5.9-2.9 11.8-6.1 13.6-7.5.6-.4 3.8-2.5 7.1-4.7s6.8-4.5 7.9-5.2c11.2-7.6 30-25.6 40.5-38.7 6.4-8 6.5-8.1 8.5-6.3 3.5 3.1 11.8 6.9 18.1 8.3 6.8 1.4 27.3 1.7 29.8.3 1-.6-4.1-.9-13.6-.9-14.3 0-15.6-.2-22.4-2.8-4-1.6-7.3-3.2-7.3-3.6 0-.3-1-1.1-2.2-1.6-3.6-1.6-3.3-3.9 1.6-11.9 10.5-17.3 17-34.8 22.2-59.6 3.7-17.3 4.3-23.8 4.4-43.4v-17.8l2.8.6c6.1 1.4 18.9 1.8 24.2.7 5.5-1.1 18-8.1 18-10.1 0-.5-2.1.5-4.7 2.4-7.5 5.3-16.8 8-25.5 7.3-4-.3-9.2-1.3-11.5-2.2-3.6-1.5-4.2-2.2-4.6-5.4-.7-6-4.7-23.4-6.1-26.6-.8-1.7-1.9-4.8-2.6-7-1.2-4-5.3-13.6-7.1-16.5-.5-.8-1.8-3.3-2.9-5.5-9.1-17.6-25.6-37.7-46.8-57-10.4-9.5-12.8-12.1-11.1-12.3 1.1-.2 2.7.2 3.5.9.9.8 5.2 1.2 11.7 1.3 8.9 0 11.1-.3 17.3-2.7 4-1.5 8-3.7 8.9-4.7 2.4-2.6 1.3-2.5-3.3.3-6.1 3.9-11.1 5.1-21.2 5.1-9.7 0-18.1-1.5-23.5-4.1-3.7-1.8-13.3-8.2-15.9-10.6-1.1-.9-2.3-1.7-2.7-1.7-.4 0-1.4-.6-2.1-1.3-1.6-1.6-17.7-11.6-32.5-20.1-3.7-2.2-9.6-5.9-13.1-8.3-3.5-2.4-6.5-4.3-6.8-4.3-.9 0-19.2-13.1-25-17.9-1.7-1.4-4.6-3.7-6.3-5.1-5.9-4.5-22.6-21.4-27.4-27.7-11.2-14.6-16-27.3-15.6-41 .2-4.3-.1-10.1-.5-12.8-1-6.1 2-17.7 6.2-24 5.9-8.8 15.4-15.7 25.7-18.6 6-1.7 23.8-1.6 31 0 9.7 2.3 19.5 7.9 27.2 15.6l7.2 7.2.7-5.3c.7-5.6 3-8.9 5.7-7.8 2.3.8 2.6 2.3 1.5 8.9-1.6 9.7-.5 22.8 2.7 32 10.1 29.3 28.5 40.5 66.4 40.5 12.1 0 21.6 1.6 39.1 6.4 11.4 3.2 24.7 6.3 34.5 8.1 4.4.8 10.7 2 14 2.7 3.3.6 13.9 1.2 23.5 1.2 17 .1 17.7 0 26-2.9l8.5-3-12.5-.7c-24.7-1.3-41.2-6.4-53.9-16.6-5.4-4.4-11.4-13.5-13-19.7-.7-2.8-1.7-4.5-2.6-4.5-.8 0-2.2-1.1-3-2.4-1.4-2.2-1.4-2.8-.1-5.9 1.2-2.9 2.1-3.7 5.1-4.3 5.2-.9 9.9.6 10.3 3.5.3 1.5-.2 2.4-1.5 2.7-1.7.5-1.9 1.1-1.2 5.8.9 6.8 3 10.8 8.9 16.7 6.9 6.9 14.8 10.6 32 14.9 4.3 1.1 26.9 3 35.5 3 4.1 0 8.1.7 11.6 2.2 4.9 2 7.5 3.6 17.2 10.6 2.5 1.8 4.2 2.2 8.2 2l5-.3.1-7c.1-10.7 2.4-13.9 15.2-21.7 9.4-5.6 15.2-10.9 15.2-13.8 0-1-1.4-2.7-3.2-3.8-4.9-3-21.3-6.2-32-6.2-21-.1-35.6-5.4-46.9-17.1-3.6-3.7-7.4-8.2-8.3-10.1-.9-1.8-2.1-4-2.6-4.8-4.1-6.4-9.6-23.1-12-36.5-3.4-19-7.5-31.7-14.9-46.5-15.4-30.6-41.7-56.3-75.6-74.1-10.2-5.3-14.8-7-35.7-12.5-27.2-7.2-64.6-10.7-89.3-8.4zm55.7 18.1c1.3.5 3.3 2.5 4.6 4.3 6.6 9.6-3.5 22.7-14.1 18.3-8.6-3.6-10.2-14.6-3.1-21.2 2.9-2.7 8.5-3.3 12.6-1.4zm-42.1 16.6c10 5.9 2.1 20-8.5 15.2-5.5-2.5-5.4-11.7.2-15.1 3.4-2.2 4.7-2.2 8.3-.1zm131.4 71.9c14.8 7 21.3 25 14.2 39.5-3.3 6.6-7.3 10.7-14.2 14.3-10.3 5.4-25.8 2.6-33.7-5.9-6.7-7.4-8.2-11.1-8.3-20.5 0-9.9 2-15.1 8-21.3 3.4-3.5 11-7.8 16-9.1 4-1 12.6.5 18 3zm-64.8 73.9c10.8 5.4 13.3 19.5 5 28-11.7 12.1-31.9.2-27.7-16.2 2.5-10.3 13.9-16.2 22.7-11.8zM177.5 734.4c8.7 3.7 8.6 17.9-.1 22.1-4.3 2-7.3 1.9-11.2-.5-8.2-5-7.6-17.8 1.1-21.5 4.1-1.8 6-1.8 10.2-.1zm-18.1 48.1c2.1 3.2 2 5.8-.2 8.6-3.9 4.7-12.2 1.6-12.2-4.5 0-6 9.2-9.1 12.4-4.1zm26.9 28.9c4 1.7 6.1 4.1 7.7 8.9 5.1 16-15.2 27-25 13.5-8.9-12.3 3.5-28.3 17.3-22.4z" fill="#4CCCE5" stroke="#4CCCE5" stroke-width="3"/><path d="M139.5 365c0 5.4.3 9.6.8 9.3.9-.6.9-18-.1-18.6-.4-.3-.7 3.9-.7 9.3zm-34 32.3c-5.2 5.1-7 10.6-5.6 16.7 1.4 6.1 1.8 5.7 1.3-1-.6-8.2.2-10.4 5.5-15.5 2.6-2.5 4.3-4.5 3.8-4.5-.4 0-2.7 1.9-5 4.3zm63.4.2c2.8 5.7 24.1 26.2 24.1 23.2 0-.2-3-2.7-6.7-5.7-3.8-2.9-8.5-7.4-10.5-9.9-7.4-9.1-8-9.7-6.9-7.6zm-39.6 23.2c-.7.2-1.3 1.2-1.3 2.1.1 1.8 9 11.9 12.5 14.1 1.1.8.7.2-.8-1.3-4.3-4-10.7-11.6-10.7-12.7 0-.5.7-1.2 1.5-1.5.9-.4 3.3 1.4 6.4 4.8 2.8 2.9 5 5.1 5.1 4.8 0-1-9.6-11-10.5-10.9-.6 0-1.6.3-2.2.6zm89 27.2c-2.8.4-5.5 1-6 1.5-.7.7 2.1.5 11.4-1.1 2.5-.4 3.4-.1 3.9 1.2.4 1 .1 2.1-.7 2.6-.9.6-1 .9-.2.9 1.7 0 2.5-1.7 1.8-4-.7-2.1-1.2-2.2-10.2-1.1zm39.2 7.1c-2 3.9-9.8 11.6-12.5 12.5-1.1.4-2 1.1-2 1.6 0 1.4 2.8-.3 8.2-5 4.7-4.2 9.5-10.8 8.5-11.7-.3-.3-1.3.9-2.2 2.6zm-77-.8c2.6 1.7 36.9 1.7 40.5 0 2.2-1 2-1.1-1.5-.5-5.2 1-34.1.9-38 0-2.7-.7-2.8-.6-1 .5zm-26.3 19c2.9.8 29.4.8 33.2-.1 1.7-.3-5.7-.6-16.3-.6-10.5 0-18.2.3-16.9.7zm4.6 6c2.3.9 21.4 1 22.9 0 .6-.4-4.7-.7-11.8-.7-7 0-12.1.3-11.1.7zm417.7 223.7c.7 5.7.7 42.7 0 47.2-.5 3.1-.5 3.2.5.9 1.5-3.3 1.5-45.4.1-49.5-1-2.7-1-2.6-.6 1.4zm-42.8 152.8c-2 2.7-6.6 7.7-10.2 11.2-3.6 3.5-6.4 6.6-6.2 6.8.6.5 18.4-18.2 19.7-20.7 1.7-3.2.7-2.3-3.3 2.7z" stroke-width="3" fill="#FFCC4C" stroke="#FFCC4C"/><path d="M350.3 930.7c3.2.2 8.1.2 11 0 2.9-.2.3-.3-5.8-.3-6 0-8.4.1-5.2.3z" fill="#4C7F66" stroke="#4C7F66" stroke-width="3"/><path d="M508.3 342c-2.5 1-3.9 6.4-2.9 10.6 1 3.7 6.8 6 10.9 4.3 3.3-1.4 6.5-7.5 4.9-9.1-.7-.7-1.2-.3-1.7 1.1-.8 2.6-6.9 3-7.9.5-1-2.7-.7-7.2.7-7.7.8-.4.7-.5-.3-.6-.8 0-2.5.4-3.7.9z" fill="#001919" stroke="#001919" stroke-width="3"/><g fill="#E5B200" stroke="#E5B200" stroke-width="3"><path d="M141.4 343.2c-1.8.6-3.8 2.1-4.5 3.4-.7 1.3-1.6 2.4-2.1 2.4-1.3 0-.9 13.6.4 16.6 1 2.2 1 2.8 0 3.2-.6.2-1.2 1.5-1.2 2.9 0 3.3-5.8 8.6-11.3 10.3-11.5 3.4-24.9 13.2-26.2 19.1-.4 1.6-1.1 2.9-1.6 2.9s-.9 2.9-.9 6.5.3 6.5.8 6.5c.4 0 1.6 2.9 2.6 6.5s2.2 6.5 2.6 6.5c1.2 0 4 8.2 4 11.6 0 2.4-.9 3.9-4.2 6.5-11.2 9.2-12.3 10.6-12.2 16 0 4.6.4 5.3 5.5 10.2 5.3 5.1 16 12.7 17.8 12.7.5 0 1.6.6 2.3 1.2 2.2 2.1 13.9 7.4 19.3 8.8 2.8.7 5.5 1.7 6.1 2.1.5.5 6.3 1.4 12.7 2.1 9.2.9 14.2.9 23.2 0 6.4-.7 12.4-1.6 13.3-2.2.9-.5 5.4-1.7 10-2.6 4.5-1 8.2-2.1 8.2-2.4 0-.4 1.9-1.2 4.3-1.9 6.2-1.8 23.8-10.1 29.7-14.1 1.4-1 5-3.3 8-5.3 6.9-4.4 13.2-10.9 16-16.5 2.8-5.3 2.5-14.3-.5-18.2-6.4-8-12.5-12-28-18.2-14.7-6-20.1-9.4-28.4-17.8-8.5-8.7-8.4-8.6-13.6-16.5-2.2-3.3-4.5-6.5-5.1-7.2-.6-.6-1.7-2.5-2.4-4.2-.7-1.7-1.6-3.1-2-3.1-.4 0-1.5-1.8-2.5-4s-2.1-4-2.5-4c-.4 0-1.2-1.2-1.9-2.7-2.5-5.5-12.6-15.4-17.7-17.4-3.2-1.2-13.9-1-18 .3zm14.4 2.8c5.9 1.3 12.7 7.3 18.9 17 2.4 3.6 4.7 7 5.2 7.6.5.6 1.6 2.4 2.4 4.1 3.7 7 14.1 21.5 20.7 28.6 4.8 5.2 15.1 13 18.8 14.1 1.2.4 2.2 1.1 2.2 1.5 0 .4 1.9 1.3 4.3 2 2.3.7 5.6 1.9 7.2 2.6 1.7.8 4.7 2.1 6.8 2.9 6.1 2.5 14.6 8.6 17.3 12.5 2.4 3.6 3.2 11.2 1.6 15.3-2.2 5.5-12 14.6-20.2 18.8-1.4.7-2.7 1.7-3 2.1-.8 1.2-21.9 11.5-26.5 12.9-2.2.7-4.5 1.6-5 2.1-.6.4-3.9 1.5-7.5 2.3-3.6.9-9 2.3-12 3.1-7.8 2.2-27.7 3-38 1.6-15.9-2.1-32.4-9.1-47.6-20.2-7-5.2-10.4-9.4-10.4-13.2 0-2.4 1.1-4.1 5.2-7.9 2.9-2.6 5.9-5 6.8-5.3.9-.3 2.4-1.9 3.4-3.6 2.4-4 1.7-8.9-2.2-17.1-1.7-3.5-3.4-7.5-3.7-9.1-.4-1.5-1.1-3-1.6-3.3-.5-.3-.9-3.1-.9-6.4 0-4.2.6-6.9 2.3-9.9 2.5-4.4 8.7-9.8 12.4-10.7 1.2-.4 2.3-.9 2.3-1.3s2.5-1.5 5.6-2.5c8.1-2.6 13.9-6.4 15.9-10.5 1.4-2.8 1.7-5.9 1.6-14.4-.2-13.7.5-14.7 12.1-16.6.4 0 2.9.4 5.6.9z"/><path d="M161 389.3c0 3.4 9.2 16.1 17.4 24 4.3 4.2 15.8 12.7 17.2 12.7.2 0 2.3.9 4.7 1.9 5.8 2.7 11 3.9 19.2 4.5l7 .5-7-1.2c-3.8-.7-7.7-1.6-8.5-1.9-.8-.3-3.5-1.1-5.9-1.8-12.3-3.3-28-15.4-36.4-28-7.1-10.6-7.7-11.5-7.7-10.7zm-30 34.4c0 1.8 17.3 17.3 19.3 17.3.5 0 2.1.8 3.5 1.9 1.5 1 5.2 2.6 8.2 3.6 3 1 6 2.1 6.5 2.5 2.8 2 16.3 3.5 32 3.5 18.3 0 27.4-1 25.7-2.7-.7-.7-1.7-.6-3.1.1-2.9 1.6-30.3 2.5-37.6 1.3-14.8-2.5-23.4-5.5-36.7-12.8-1.4-.8-6-4.6-10.2-8.5-4.2-3.9-7.6-6.7-7.6-6.2zm-14 39.2c0 2.6 24.1 11.4 35.9 13.1 12.7 1.8 42.2.6 45.6-2 .6-.4 3.5-1.3 6.5-2s7.3-2.1 9.5-3.1 5.7-2.5 7.8-3.3c2-.8 3.7-2 3.7-2.6 0-.6-1.9-.1-4.2 1.1-7.3 3.7-19.9 7.6-32 9.9-22.5 4.2-48.3.6-68-9.6-2.7-1.3-4.8-2-4.8-1.5z"/></g><path d="M163.2 477.7c3.7.2 10 .2 14 0 4-.1 1-.3-6.7-.3s-11 .1-7.3.3z" fill="#FFB219" stroke="#FFB219" stroke-width="3"/><path d="M157.3 496.7c3.2.2 8.1.2 11 0 2.9-.2.3-.3-5.8-.3-6 0-8.4.1-5.2.3z" fill="#FC3" stroke="#FC3" stroke-width="3"/><g fill="#FFE54C" stroke="#FFE54C" stroke-width="3"><path d="M145.5 348.1c-3.1.9-7.1 6.4-5.4 7.4.5.4.9 4.4.9 9 0 6.6-.4 9.1-2.2 12.4-2.2 4.1-8.7 9.1-13.8 10.6-4.7 1.4-13.5 5.8-16.9 8.6-5.4 4.4-7.1 7.7-7.1 14.1 0 5.4 2.3 14.7 4 15.8.4.3 1.5 2.7 2.5 5.5 1 2.7 2.2 5.4 2.7 6 1.1 1.3 1 8.5-.1 8.5-.5 0-1.2.9-1.6 1.9-.3 1.1-3.1 3.9-6.3 6.2-7.1 5.4-9.2 7.7-9.2 9.9 0 3.5 9.9 12.2 20.6 17.9 2.1 1.2 4.6 2.6 5.4 3.1 3.2 2.1 12.8 5.9 17.5 7 2.8.6 6.1 1.7 7.4 2.3 3.2 1.6 34.9 1.6 38.2.1 1.3-.7 6.2-2 10.9-2.9 4.7-.9 9-2 9.5-2.5.6-.4 3.5-1.5 6.5-2.5s5.7-2.1 6-2.5c.3-.4 2.9-1.5 5.8-2.5 2.8-1.1 5.2-2.2 5.2-2.6 0-.3 2-1.4 4.5-2.3 2.5-1 4.5-2.1 4.5-2.5 0-.5 1.8-1.6 4-2.6s4-2.2 4-2.6c0-.4.8-1 1.9-1.4 2.7-.8 9.5-7.4 12.5-12.2 4.1-6.7 3.6-10.9-2.1-17-5.4-5.6-10.4-8.5-24.3-13.9-9.3-3.5-19.4-9.5-25.7-15.1-4.5-4-15.3-17.5-15.3-19 0-.7-.5-1.3-1-1.3-.6 0-1.8-1.6-2.7-3.5-.9-1.9-2-3.5-2.3-3.5-.4 0-1.5-1.8-2.5-4s-2.1-4-2.5-4c-.4 0-1.3-1.4-2-3.1-.7-1.7-1.8-3.6-2.4-4.2-.6-.7-2.3-3-3.7-5.2-4.9-7.4-10.1-11.9-15.6-13.4-4.4-1.3-5.7-1.3-9.8 0zm20.5 43.1c10.2 18.3 28.4 32.9 44.6 35.9 3.2.6 6.7 1.5 7.6 2 1 .5 3.6.9 5.8.9 3.6 0 4 .2 4 2.5 0 3.4-1.8 3.9-9.3 2.7-14-2.3-24.8-6.3-32.4-12.1-1.5-1.2-3.8-2.9-5.1-3.9-7.4-5.5-14.9-14.7-21.1-25.6-1.7-2.9-1.9-4.1-1-5.2 2.1-2.5 4.5-1.5 6.9 2.8zm-28.1 34.5c8.4 8.6 11.2 10.6 21.1 15.3 8.8 4.2 10.6 4.8 18 6 4.1.7 8.4 1.6 9.5 2.2 2.5 1.1 23.2.5 33.4-1.1 6-.9 7.6-.9 8.3.1 1.6 2.5.2 4.1-4.7 5.4-6.8 1.9-29.6 2.8-37 1.5-11.4-1.9-20.5-4-23.7-5.5-1.8-.8-4.9-2.2-6.8-3.1-9.3-4.2-15.5-8.7-22.7-16.4-5.2-5.6-6.4-8.5-4-9.4 2.4-1 3.1-.6 8.6 5zm-12.6 37.7c4 1.9 8.7 3.7 10.5 4.1 1.7.4 3.2 1 3.2 1.5 0 .4 5.2 1.6 11.6 2.5 16.4 2.5 47.2 1 51.9-2.6.6-.4 3-1.2 5.5-1.9s6.9-2.3 9.7-3.6c7.6-3.4 9.9-3.9 10.6-2 .4.9.4 2.2.1 2.9-1.1 3.1-23.3 11.2-34.7 12.7-4.5.6-9.8 1.6-11.7 2.1-7.1 2.1-37.5-1-45.3-4.5-1.8-.8-4.3-1.7-5.7-2.1-1.4-.3-5.5-2.1-9.2-3.8-5.1-2.4-6.8-3.7-6.8-5.3 0-4.3 1.2-4.3 10.3 0zM300 424.6c0 5.3 3 15.3 6.7 22.5 4.2 8.3 16.2 23.8 23.5 30.5 18 16.4 43.6 34.8 67.3 48.4 11.3 6.4 26.4 16.1 35.7 22.8 14.2 10.2 27.3 14.2 41.4 12.7 6.1-.6 16.9-5.3 16.9-7.3 0-.8-10-9.5-17-14.7-1.1-.8-5.3-4-9.2-7-4-3-7.5-5.5-7.7-5.5-.2 0-3.2-1.9-6.6-4.3-3.4-2.3-6.9-4.7-7.8-5.2-1.8-1.1-8.6-5.3-11.7-7.2-1.1-.7-3.8-2.2-6-3.4-2.2-1.2-4.2-2.5-4.5-2.9-.3-.4-2.1-1.5-4-2.4-1.9-.9-5.7-3-8.5-4.6-2.7-1.6-7-3.9-9.5-5.1-2.5-1.2-4.7-2.5-5-2.9-.3-.4-2.6-1.5-5.2-2.5-2.7-1-4.8-2.1-4.8-2.4 0-.4-1.7-1.3-3.7-2-2.1-.8-4.5-1.9-5.3-2.6-.8-.7-3.6-2-6.2-3-2.7-1-4.8-2.2-4.8-2.6 0-.5-.5-.9-1.1-.9-1 0-22.8-10.7-29.4-14.4-6.1-3.4-13.6-9-18.3-13.7-8.5-8.5-8.9-9.1-12.1-15.3-1.7-3.2-3.1-5.5-3.1-5zm194.5 135.3c-5.2 5-21 8.8-31.1 7.5l-5.6-.7 15.9 15.9c21.8 21.8 34.3 39.1 44.3 61.4 5.7 12.7 10.4 27.8 12.2 39.4l1.1 7.5 6.8 1.6c8.3 1.8 10.9 1.9 17.4.1 6.6-1.7 11.2-4 15.5-7.5 2.6-2.2 3.2-3.2 2.3-4.2-.6-.8-1.8-5-2.8-9.4-.9-4.4-2-8.5-2.4-9-.4-.6-1.3-3-2.1-5.5-4.1-13.7-17.1-38.4-27.7-52.7-1.8-2.4-3.3-4.6-3.3-5 0-.3-.7-1.3-1.5-2.2-.8-.9-4.5-5.2-8.2-9.6-14.6-17.2-26.1-28.5-29.1-28.5-.4 0-1.2.4-1.7.9zm74.8 133.5c-3.4 2.1-8 3.9-13.6 5-8.2 1.8-12.8 1.5-21.8-1-1.5-.4-1.7 1.9-2.2 21.3-.4 13.9-1.2 24.5-2.2 29.3-.8 4.1-2 9.7-2.5 12.5-.5 2.7-1.6 7.2-2.4 10-.8 2.7-2.2 7.7-3.1 11-.9 3.3-2.3 7-3.1 8.2-.8 1.2-1.4 2.7-1.4 3.3 0 1.6-8.3 18.5-12.5 25.4-2.7 4.6-3.3 6.1-2.3 6.8 10.7 7.2 23.2 10.3 36.3 9.2 8.1-.8 11.3-1.8 13.2-4.2 1.9-2.5 9.1-17.3 9.8-20.5.4-1.5 1.1-2.7 1.5-2.7.4 0 1.5-3 2.4-6.7 1-3.7 2.2-7.3 2.7-7.9.5-.6 1.6-4.6 2.4-9 .9-4.3 2-8.8 2.5-9.9 4-9 5.6-67.9 2.2-80.6l-.7-2.8-5.2 3.3z"/><path d="M492.7 835.3c-14.1 19.2-39.3 40.2-64.9 54.1-4.9 2.6-8.8 5.2-8.8 5.6 0 1.6 6.1 7.9 10.6 11 9.3 6.2 20.5 7.5 29.5 3.3 18.1-8.6 29.3-14.4 31.7-16.7 1-.9 2.2-1.6 2.6-1.6.9 0 10.1-6.4 12.2-8.4.8-.9 1.9-1.6 2.4-1.6 1 0 23.1-21.8 27.8-27.3 1.8-2.2 4-5.2 4.9-6.8 1-1.6 2-2.9 2.4-2.9.3 0 1-1 1.6-2.3l1-2.2-10.6.3c-13.9.4-25.5-2.4-34.2-8.2l-3.6-2.5-4.6 6.2zm-83.2 63.1c-1.1.7-3.1 1.7-4.5 2.1-1.4.4-4.7 1.8-7.5 3-2.7 1.3-7 2.8-9.5 3.5-2.5.6-5.8 1.7-7.5 2.5-1.6.7-5.9 1.9-9.5 2.6-3.6.6-7 1.5-7.5 2-1.1.8-24.2 4.6-36.5 5.9-4.1.5-14 .9-22 1-8 .1-13.6.4-12.5.7 1.1.2 4.3 1 7 1.8 12.3 3.6 72.6 7.1 78 4.6 1.1-.5 7.9-1.4 15.1-2 7.1-.6 14.6-1.6 16.5-2.1 1.9-.6 7.9-1.9 13.3-3 5.5-1.1 10.4-2.4 11-3 .5-.5 1.9-1 3.1-1.1 1.5 0 1.3-.3-1-1.2-8.6-3.4-19.6-12.2-21.1-16.9-.6-2.1-2.2-2.3-4.9-.4z"/></g><path d="M440.3 396.8c-5.5 3-7.7 6.8-7.8 13.3 0 9.3 5.9 15.4 14.8 15.4 9.4-.1 15.8-8.1 14.3-17.6-1.7-10.4-12.3-15.9-21.3-11.1z" fill="#FCC" stroke="#FCC" stroke-width="3"/><path d="M300.3 920.7c3.2.2 8.1.2 11 0 2.9-.2.3-.3-5.8-.3-6 0-8.4.1-5.2.3z" fill="#E5CC66" stroke="#E5CC66" stroke-width="3"/><path d="M414.7 1136.7c2.1.4 2.3 1 2.6 9.6l.3 9.2v-9.5c-.1-9.4-.1-9.5-2.6-9.6-2.1-.1-2.1 0-.3.3z" fill="#FFE5E5" stroke="#FFE5E5" stroke-width="3"/><path d="M669.4 1152c0 6.3.1 8.9.3 5.7.2-3.1.2-8.3 0-11.5-.2-3.1-.3-.5-.3 5.8z" fill="#FFB299" stroke="#FFB299" stroke-width="3"/><path d="M228 1094.1c-16.5 4.5-24.5 13.4-22.6 25.3 1 5.9 3.4 9.2 9 12.1 4.5 2.4 6.8 2.8 19.4 3.5 13 .7 14.6 1 16.8 3.1 3 2.8 3.2 7.6.4 11.2-6.6 8.4-28.3 10.2-38.6 3.2-4-2.7-8.3-3.2-10.2-1.3-4.1 4.1 3.2 12.9 12.2 14.7 12.6 2.6 14.9 2.8 18.4 2.1 2-.4 6.6-1.3 10.2-2 12.9-2.4 22-10.6 22.8-20.6.6-7-.2-9.6-4-14-4.6-5.2-8.2-6.4-23.4-7.4-7.4-.5-14.7-1.5-16.1-2.2-3.8-1.8-5.2-6.1-3.1-9.6 4.7-8 17.4-10.2 33.5-5.9 7.5 2 11.8-2.1 7.6-7.1-2.2-2.6-12.2-6-19.5-6.7-3.6-.3-7.6.2-12.8 1.6zm-164.1 10.5c-.8 1-1.4 5.6-1.7 12.6l-.5 11-2.6-.7c-1.4-.3-5.1-.9-8.1-1.1-5.1-.5-5.9-.3-11 3.1-3 2-6.1 4.8-6.9 6.3-.7 1.5-1.5 6.3-1.8 10.7-.3 7-.1 8.5 1.9 12 4.3 7.3 13.3 10.5 22.8 8 3.5-.9 5.8-1.1 6.4-.5 1.4 1.4 6.2 1.2 7.3-.3.6-.7 1.3-13.7 1.7-30.3.5-27.3.5-29.2-1.2-30.8-2.3-2-4.6-2.1-6.3 0zm-5.3 31.5c3.4 2.1 3.4 2.1 3.4 9.8 0 4.7-.5 8.3-1.2 9.3-3.9 4.8-11.6 6.3-16.3 3.2-3.2-2.1-5.5-6.8-5.5-11.1 0-4.4 3.5-11.1 6.3-12.3 3.9-1.6 9.8-1.1 13.3 1.1zm512.1-31.3c-1.4 1.5-1.7 4-1.7 12.7v10.7l-3.2-.8c-1.8-.5-6-.8-9.4-.9-5.1 0-6.7.5-10.2 2.9-9.1 6.3-12.4 19.6-6.9 28.2 3.5 5.7 6.9 8.1 13 9.4 4.2.9 6.1.8 10.2-.4 3.2-1 5.3-1.2 5.9-.6 1.7 1.7 6.5 1.1 7.4-.8.5-.9 1.3-12.7 1.6-26.2.4-13.5.9-26.2 1.2-28.2.4-2.8.1-4.1-1.5-5.7-2.6-2.6-4.3-2.6-6.4-.3zm-6.7 30.7c3.8 1.9 4.3 4.1 3.5 13.4-.6 7.1-.9 7.9-3.5 9.4-9.1 5.4-20.1-2.3-18.6-13.1.6-4.5 3.5-9.2 6.4-10.4 3-1.2 9.2-.8 12.2.7zm68.7-31.3c-1.5 1.2-1.7 4.6-1.9 31.8l-.3 30.5 2.8.3c4.8.6 5.4-.9 6.2-14.1.6-11.4.9-12.4 3.2-14.4 2.8-2.5 8.1-3.8 11.5-2.9 3.7.9 4.8 4.9 4.8 18.1 0 10.5.2 12.4 1.8 13.8 2.4 2.2 3.5 2.1 5.8-.4 1.7-1.9 1.9-3.8 1.9-16.4v-14.3l-3.1-3.9c-4.2-5.2-9.9-7-16.8-5.4-2.8.6-5.8 1.2-6.6 1.4-1.2.2-1.5-1.7-1.8-11.3-.2-9.4-.6-11.7-1.9-12.8-.9-.6-2.2-1.2-2.8-1.2-.6 0-1.9.6-2.8 1.2zm-202.7.9c-1.4.6-3.5 2-4.8 3.2-2.4 2.2-5.2 10.2-5.2 14.9 0 2.6-.3 2.8-4.2 2.8-10.1.1-10.4 8.4-.3 9.2l4 .3-.1 6c0 3.3-.4 9.8-.8 14.5-.8 8.2-.7 8.6 1.6 10.7l2.4 2.3 2.2-2c2.1-2 2.2-2.9 2.2-17v-15h6.3c6.6 0 10.7-1.8 10.7-4.7 0-2.8-3.3-4.2-9.8-4.3-4.7 0-6.4-.4-6.9-1.6-.3-.8-.1-2 .6-2.7.6-.6 1.1-2.1 1.1-3.3 0-3.2 4.9-6.4 9.7-6.4 2.1 0 4.4-.5 5.1-1.2 1.8-1.8 1.4-4.6-.7-5.8-2.4-1.3-9.8-1.2-13.1.1zm71.3 19.7c-.7.5-1.2 7.2-1.5 21.2l-.3 20.5 2.9.3c1.6.2 3.3-.1 3.8-.6s1.5-6.9 2.1-14.3c1.2-13.3 1.3-13.4 4.1-14.8 4-1.9 10-1.7 13.2.3 2.4 1.7 2.6 1.7 4-.1 2.1-2.7 1.3-6.3-1.9-8.7-2.3-1.7-4.4-2.1-10.5-2.2-4.2 0-9-.6-10.5-1.2-3.3-1.4-3.8-1.4-5.4-.4zm223.4.6c-1.9 1.9-3.3 38.1-1.6 40.2 1.7 2 5.7 1.7 6.9-.5.5-1.1 1-6.9 1-12.9 0-10 .2-11 2.3-12.9 5.2-4.7 11.3-5.7 14.7-2.3 1.8 1.8 2 3.3 2 15.5 0 12.6.1 13.5 2.1 14.5 1.6.9 2.6.8 4.5-.5 2.3-1.5 2.4-1.8 2.4-15.1 0-14.7-1-18.7-5.6-22.3-3.2-2.5-10-3.4-15.8-2.1-4.2.9-5 .8-7.3-1-3-2.4-3.7-2.4-5.6-.6zm-587.3.7c-6.3 1.5-9.7 5.7-10.2 12.7-.4 5.4-.2 6.1 2.2 8 1.5 1.1 4.6 2.3 6.9 2.7 7.9 1.2 10.7 2.5 11.3 5.2.5 1.9.2 3-1.1 4-2.6 1.8-9.7 1.6-13.9-.3-2.1-1.1-4.4-1.4-6.1-1-2.1.5-2.6 1.2-2.3 3.4.2 2 1.3 3.2 4.3 4.6 2.2 1.1 4.8 2.3 5.7 2.8 2.3 1 9.3 1 11.6-.1.9-.4 3.3-1.6 5.3-2.5 2-1 4.2-2.9 4.8-4.2 1.4-3.1 1.4-8.6.1-11.6-1.5-3.1-8.5-7-14.4-7.9-5.3-.9-6.6-2-5.9-5 .8-3.1 8.4-3.7 17.5-1.4 2.1.6 2.9.3 3.4-.9.9-2.4-.4-6.4-2.5-7.6-2.9-1.5-12.1-2-16.7-.9zm230 .1c-.9 1.4-1.8 57-1 60.2.5 1.9 1.3 2.6 3 2.6 4 0 5-2.5 5.4-13.5l.4-10.1 5.3.4c9.7.8 18.3-3.9 20.6-11.2.7-2.3 1.6-4.5 2.1-5.1 1.5-1.7.8-9-1.2-13-2.1-4.2-5.2-7.5-8.8-9.4-2.8-1.5-25-2.3-25.8-.9zm21.8 8.4c1 .3 2.7 1.9 3.9 3.6 7 9.8-3.6 23.8-14.5 19.3l-3.6-1.5v-9.9c0-10.2.4-11.4 4.5-12.4 1.9-.5 6.2-.1 9.7.9zm-293.3-7.7c-1.5.3-4.7 1.9-7.1 3.5-9 5.7-12.3 19-7.4 29.2 2.1 4.3 3 5.2 6.8 6.4 2.3.7 4.7 1.7 5.3 2.2 1.2 1.1 5.8 1 7-.1.6-.5 2.7-1.4 4.8-2.1 3.5-1.1 4.1-1 6.3 1.1 2 1.8 2.8 2.1 4.2 1.2 1.9-1.2 2-4.2.3-11.3-.6-2.7-.8-9.3-.4-16.7l.6-12.2-2.4-.9c-2.9-1-14.3-1.2-18-.3zm9.5 6.7c1.3.5 1.6 2.6 1.6 12.5 0 11-.1 11.9-2.2 13.3-1.3 1-4.3 1.6-7.3 1.6-4.3 0-5.5-.4-7.4-2.6-3.5-4-3.3-12.6.3-18 3.8-5.8 10.2-8.7 15-6.8zm179.6-6.8c-3.8 1.7-6.4 4-9.3 8.2-2.8 4.1-3.1 5.2-3.2 12.1 0 6.6.3 8.1 2.8 11.8 4.2 6.3 9.7 8.5 20.3 7.9 7.1-.4 8.7-.8 11.8-3.2 2.7-2 3.6-3.4 3.6-5.7 0-4.2-2.2-4.5-7.1-1-5.1 3.7-12.3 4.2-17.9 1.2-3.4-1.8-7-6.4-5.9-7.5.3-.3 3.5-.9 7-1.2 3.5-.4 6.9-1 7.4-1.4.6-.4 3.7-1 6.9-1.4 3.3-.4 6.6-1.2 7.3-1.8.7-.6 1.3-3 1.3-5.3 0-4.9-3.1-9.5-8.1-12-2.9-1.5-14.1-2-16.9-.7zm12.9 7.3c2.9 1.4 4.1 2.5 3.9 3.7-.3 1.3-2.4 1.9-10.3 2.9-5.4.7-10.1 1.1-10.3.9-1.1-1.2 1.4-4.9 4.6-7.1 4.6-3 6.7-3 12.1-.4zm33.1-7.3c-2.5 1.1-9 6.6-9 7.5 0 .4-.9 2.7-2 4.9-4.4 9.1-.6 21.2 8 25.6 3.9 2 5.6 2.3 13 2 11.2-.5 15.9-3.2 16-9.1 0-3.6-2.5-4.5-5.3-2-5.6 5.2-13.4 5.8-20.3 1.8-3.7-2.2-6.4-5.8-5.2-7 .2-.2 3.5-.9 7.3-1.4 13-1.9 20-3.3 21.3-4.3 1.5-1.3 1.6-7.9.1-11-.6-1.3-2.5-3.4-4.2-4.8-2.6-2.1-4.3-2.5-10.7-2.7-4.1-.2-8.2.1-9 .5zm11.3 6.4c1.2.6 2.9 1.4 3.7 1.8.8.4 1.5 1.6 1.5 2.6 0 1.6-1.3 2-8.5 3-11.4 1.6-12 1.6-12-.1 0-.8.4-1.5.9-1.5s1.2-.8 1.5-1.8c.7-2.1 5.3-5 8.4-5.1 1.2-.1 3.2.4 4.5 1.1zm120.2-5.8c-3.6 1.6-8.2 6.7-10.2 11.3-1.7 4.2-1.7 13.5.1 17.6 3.5 7.6 8.9 10.7 18.8 10.7 11.4 0 18.8-3.7 18.8-9.5 0-3.9-2.4-4.1-7.7-.6-5.9 3.9-12.4 4.2-18.4.8-3.4-1.9-6-5.9-4.8-7.2.2-.2 3.3-.8 6.9-1.4 21.6-3.4 23-3.9 23-8.8 0-4.6-4.3-11.1-8.5-12.9-4.3-1.7-14-1.8-18 0zm14.4 6.7c2.9 1.4 4.1 2.5 3.9 3.7-.3 1.3-2.4 1.9-10.3 2.9-5.4.7-10.1 1-10.4.8-1-1.1 2.1-5.6 5.1-7.5 4.2-2.5 6.4-2.5 11.7.1zm117.6-5.6c-2.3 1.5-5.2 4.3-6.5 6.3-2.2 3.2-2.5 4.6-2.5 13.2 0 8.7.2 9.9 2.5 12.7 3.7 4.6 9.1 6.7 17 6.7 8.5-.1 14.4-2.7 14.8-6.5.5-4.3-2-5.4-6.7-3-8.8 4.6-17.8 1.7-20.1-6.3-1.1-4-1-5.2.4-9.1 3.2-8.2 9.7-10.5 19.4-6.8 3.9 1.5 4.5 1.5 5.9.1 1.9-2 1-4.7-2.5-7.3-2-1.5-4.6-2.1-10.2-2.3-6.7-.3-7.9-.1-11.5 2.3zm93-1.6c-1.9.8-6.5 5-9.3 8.5-.7.9-1.8 4.1-2.4 7.2-2.9 14.4 5.3 24.4 20 24.4 8.8 0 12-.9 15.9-4.6 3.6-3.4 4-5.9 1.2-7.7-1.3-.8-2.6-.3-6 2.1-3.5 2.6-5.2 3.2-9.4 3.2-5.9 0-11.3-2.5-13.5-6.3-.8-1.4-1.2-2.8-.9-3.1.3-.3 3.2-.8 6.5-1.1 3.2-.4 6.8-1 7.9-1.5 1.1-.5 4.6-1.2 7.7-1.5 3.2-.4 6.2-1.3 6.9-2.2 3.4-4-.6-13.4-7.1-16.8-3.1-1.6-14.1-2-17.5-.6zm13.6 7.2c2.7 1.3 3.9 2.6 3.7 3.7-.3 1.3-2.4 1.9-10.3 2.9-5.4.7-10 1.1-10.2.9-.9-.9 2.1-5.3 5-7.3 4.1-2.8 6.8-2.8 11.8-.2z" stroke-width="3" fill="#C30" stroke="#C30"/></svg>