<svg version="1.0" xmlns="http://www.w3.org/2000/svg" viewBox="0 0 783 1259"><g fill="#FFF" stroke="#FFF" stroke-width="3"><path d="M0 629.5V1259h783V0H0v629.5zm135.4-455.4c16.4 4.2 20.4 6.2 29.7 14.8 8.3 7.6 17.9 20.8 21.9 30.1.6 1.4 2 4.3 3 6.5 1.1 2.2 2.8 6.2 3.8 9l1.8 5 27.4.6c27.5.7 47.4 2.1 55.3 3.9 2.3.5 9.2 1.8 15.2 2.9 12 2.1 26.8 5.6 30 7 1.1.5 4.5 1.7 7.5 2.7 3 .9 6 2 6.5 2.4.6.3 3.2 1.5 5.9 2.5 10.3 3.8 27.5 15 34.6 22.6 4.8 5 11.4 14 13.5 18.6l2.2 4.5.7-2.8c2.3-9.1 15.3-26.5 26.4-35.5 18.5-14.9 40-21.9 79.7-26.1 12.3-1.2 82.7-.4 90.5 1.1 3 .6 12.8 1.7 21.8 2.6 9 .8 18.2 2 20.5 2.5 2.3.6 9.2 1.9 15.2 2.9 29.8 5.1 51.8 12.2 71.8 23.4 5.7 3.2 13.5 11.1 15.7 15.9 2.6 5.8 2.6 14.9-.1 20.7-2.3 5.1-15.4 18.5-21.4 21.8-16.1 9-31.8 14.4-55.2 18.8-3 .6-3.2.9-2.6 3.8 1.8 9.9 8.8 16.7 17.4 16.7 4.5 0 4.9 7.4.6 8.6-1.3.3-5-.4-8.3-1.5-4.4-1.5-7.1-3.3-10.6-7.1-4.6-4.9-6-7.9-7.3-15.4l-.6-3.8-9.2.7c-5.1.4-9.6 1.1-10.1 1.5-.5.5-.8 3.6-.8 6.9.1 6.4 1.5 9.6 6.4 14.3 3.3 3.2 3.6 6.3.8 7.8-5 2.7-14.3-7.9-15.5-17.5-.4-2.9-.4-6.7 0-8.4l.7-3.1h-18l-1.1 4.4c-2.7 10.7-.7 17.6 6.3 22.6 4.8 3.5 5.9 6.6 3.1 9-3.4 2.9-12.9-4.1-16.9-12.5-3-6.4-3.5-14.5-1.1-20.2.8-1.9 1.5-3.7 1.5-3.9 0-.2-6.2-.4-13.9-.4h-13.8l-.7 4.1c-1.2 7.3.8 13.8 5.1 17.2 3.9 3.1 4.6 5.4 2.3 7.7-2.6 2.6-3 2.6-7.8-1.6-5.8-4.9-8.4-11.1-8.5-20.2V355H546c-10.5 0-10.7 0-12.1 2.7-.9 1.6-1.4 5.6-1.4 10.2 0 8.6 1.2 11 8.5 16.3 4.5 3.3 4.9 4.7 2 7.3-1.7 1.5-2.4 1.6-5 .5-1.7-.7-5-3.3-7.4-5.7-5.7-5.7-7.1-10.6-6.3-22.4l.6-8.9h-33.2l.5 6.5c.5 5.2 1.1 7.1 3.4 9.9 1.6 1.9 3.8 3.8 4.9 4.1 3.1.9 4.8 4.1 3.5 6.5-1.9 3.6-7.5 2.2-12.8-3.1-4.8-4.7-6.4-8.3-7.1-16.3l-.6-7.1-3 .3c-12.8 1.1-19.5 10.3-19.5 26.9 0 7.5.9 9 3.8 6.1.8-.8 4-1.3 8-1.3 7.4 0 13.6 2.3 20.3 7.7 4.4 3.5 5.3 5.3 3.9 7.8-1.7 3.2-3.7 2.9-9.1-1.1-2.9-2.2-7-4.4-9-5.1-4.7-1.4-12-.3-15.3 2.3-2.4 1.9-2.6 2.6-2.6 10.7v8.7l5.6-.3c4.1-.3 6.9.2 10.6 1.8 8.3 3.6 10.9 5.9 10.6 9.5-.4 4.2-3.8 4.5-9 .8-3.5-2.4-5.1-2.8-10.7-2.8h-6.6l-.3 14.7-.3 14.6 4.8-1.5c8.9-2.7 19.4-.3 27.2 6.3 4.3 3.6 5.4 5.9 4.1 8.4-1.2 2.2-5.4 2.7-6.7.7-1.6-2.5-8-6.6-12.2-7.7-4.9-1.3-9.2-.6-13.8 2.2l-3.3 2v20.3h6.3c9.6 0 20.7 5.9 20.7 11.1 0 1.3-.9 2.8-2 3.4-1.7.9-2.9.6-6.7-1.9-5.2-3.5-9.8-4.6-14.8-3.7l-3.5.7v13.1c0 12 .1 13 1.8 12.3 8.5-3.6 18.3-2.6 26 2.7 8.1 5.5 9.7 7.8 8 11-1 2-5.3 2.4-6.4.7-.3-.6-3-2.6-6-4.5-4.4-2.8-6.2-3.4-11-3.4-4.6 0-6.4.5-9.1 2.6-3.3 2.5-3.3 2.5-3.3 11v8.4h6.5c7.1 0 12 1.6 17.3 5.6 2.5 2 3.2 3.2 3 5.1-.5 4.6-2.7 4.8-9.3.8-5.3-3.1-6.7-3.5-11.5-3.3l-5.5.3-.3 15.2c-.1 8.4-.1 15.3.2 15.3.2 0 1.7-.7 3.2-1.5 1.7-.9 5.6-1.5 9.2-1.5 5 0 7.4.6 12 3 9.2 4.8 13.4 9.5 11.3 12.9-1.4 2.2-6 1.6-8.9-1.2-6.7-6.2-16.6-8-23.2-4.1l-3.5 2-.3 8.5-.3 8.4 7.3.1c6.4 0 8 .4 13.1 3.3 5.7 3.3 7.6 6.2 6.3 9.6-.6 1.6-5.1 2.1-6 .6-1-1.5-11.6-6.1-14.2-6.1-1.4 0-3.4.5-4.5 1-1.7 1-1.9 2.2-1.9 13 0 6.6.2 12 .4 12s1.7-.7 3.2-1.5c1.7-.9 5.6-1.5 9.2-1.5 5 0 7.4.6 12 3 9.2 4.8 13.4 9.5 11.3 12.9-1.4 2.2-6 1.6-8.9-1.2-6.7-6.2-16.6-8-23.2-4.1l-3.5 2-.3 8.7-.3 8.6 6.3-.1c10-.1 21.4 6.1 20.6 11.3-.5 3.7-3.3 4.7-6.6 2.2-4.7-3.4-12.2-5.7-16.5-4.9l-3.7.7v26.7l3.7-1.4c8-2.8 16.7-1.5 24.7 3.8 6.7 4.5 9.2 7.9 7.7 10.7-1.7 3.1-4 2.6-10.6-2.4-8.6-6.4-14.5-7-22.2-2.3l-3.3 2v19.3l5.4-.3c4.3-.3 6.6.2 11.8 2.6 7.3 3.4 10.1 6.1 9.6 9.4-.4 3.1-5.2 3.7-8.2 1-4.1-3.8-13.4-5.4-17.7-3.2-1.1.7-1.9 2.1-1.9 3.7 0 1.4-.4 5.3-1 8.7-.5 3.3-1.4 8.7-1.8 11.8l-.9 5.8 2.6-.7c4.8-1.3 13.5-.7 17.6 1.2 4.8 2.3 15.5 12.8 15.5 15.3 0 1-.5 2.3-1.2 3-2.2 2.2-5.1 1.2-8.6-2.9-5.4-6.3-10.2-8.9-16.4-8.9-3.1.1-6.1.7-7.2 1.5-1.1.8-2.7 1.5-3.7 1.5-1.1 0-1.9 1.1-2.3 3.6-.4 1.9-2.1 6.9-3.7 11s-2.7 7.9-2.4 8.4c.3.6 1.6 1 2.9 1 3.2 0 10.2 4.9 14.2 10 5.5 6.9 6 12.3 1.2 12.8-2.3.3-3.2-.4-5.8-4.6-3.8-6.2-8.3-9.7-13.6-10.6-4.1-.7-4.1-.7-7.2 4.1-1.7 2.6-5 6.8-7.3 9.2-3.9 4.3-4 4.5-2 5.3 1.2.4 4.4 3 7 5.6 5.3 5.3 6.7 8.6 7.7 18.8.6 5.4.4 6.4-1.5 8.3-3.6 3.6-5.7 1.5-6.6-6.6-.8-8.4-2.7-12.5-7.4-16.3-5.4-4.5-8.6-4.7-15.5-1.1-3.2 1.7-6.4 3.1-7.2 3.1-1.2 0-1.1.5.3 2.7 1.4 2.1 1.8 4.8 1.8 11.8 0 11.2-1.5 14.9-6.3 15.3-4.2.4-4.9-1.4-2.7-7.3 1.2-2.9 1.6-6.1 1.3-9.3-.5-5.3-3.5-10.4-5.6-9.7-.8.3-6.7.5-13.3.5H369l-1.6 3.8c-1.5 3.6-1.5 8.5.2 18.3.6 4-1.1 5.5-4.8 4.3-4.9-1.5-7.5-16.7-4.1-23.8 1.3-2.9 1.4-3.8.3-5.1-.7-.8-1.8-1.5-2.5-1.5s-3.9-1.4-7.1-3l-5.7-3.1-3.6 2.5c-6 4.2-7.5 7.8-7.6 17.9 0 7.3-.3 9-1.7 9.8-3.3 1.8-5.6-.6-6.3-6.6-1.4-10.9 1-19.1 7.5-25.4l4.2-4.1-3.6-4.1c-2-2.2-5.3-6.5-7.2-9.5-4-6.3-5.6-6.7-12.2-2.7-3.5 2.2-5 4.1-7.3 9-2 4.4-3.4 6.3-4.7 6.3-4.9 0-5.5-5.6-1.5-13.1 3.1-5.6 8.8-10.4 14.6-12.1 2.8-.9 3.6-1.5 3.1-2.7-1.7-4.4-5.4-16.3-5.4-17.7 0-.8-1.1-2.6-2.5-3.9-2-2.1-3.4-2.5-8-2.5-6.4 0-11.8 3-16.9 9.4-2.2 2.8-3.5 3.6-5.5 3.4-2.1-.2-2.7-.9-2.9-3.3-.2-2.5.6-4 4.6-8.2 7.1-7.4 12-9.6 21-9.6 7.1.1 7.3 0 6.8-2.1-.4-1.1-1.1-7-1.6-13s-1.2-11.1-1.5-11.4c-.3-.3-3.4-.6-6.8-.6-5.5-.1-6.9.3-10 2.7-4.2 3.2-7.2 3.5-8.7.8-1.3-2.6-.5-4.5 3.5-7.5 4.2-3.2 11.4-5 17.4-4.3l4.8.6.7-11.7c.6-11.3.6-11.7-1.6-13.4-2.9-2.1-8.1-3.1-12.1-2.2-3.3.7-9.7 4.4-13.1 7.5-3.4 3.2-7.6 1.8-7.6-2.6.1-2.2 6.4-7.7 12.7-11 4-2.1 14.2-2.7 19.6-1.2l2.7.7v-11c0-12.7.1-12.5-9-12.5-4.4 0-6.3.6-9.5 2.7-4.7 3.3-7 3.5-8.5.7-1.5-2.7.5-5.8 5.7-9 3.2-2.1 5.1-2.4 12.6-2.4h8.7v-10.6c0-11.8-.1-12-6.8-14-3.7-1.1-5-1-9.5.4-2.9.9-6.9 3.1-8.7 4.7-4.5 4-9.3 3.9-9.8-.1-.2-2.1.7-3.3 5-6.6 2.9-2.2 6.9-4.7 9-5.6 4-1.9 14.2-2.3 18.2-.7l2.6 1v-24.9l-4.6-.7c-5.9-.9-11.2.1-13.8 2.4-3.2 2.9-6.1 3.5-8 1.6-3.2-3.2.3-7.9 8.1-11 3-1.1 6.3-1.5 11.2-1.2l7.1.4v-8.2c0-9.1-.3-9.5-6.8-11.5-3.7-1.1-5-1-9.5.4-2.9.9-6.9 3.1-8.7 4.7-4.5 4-9.3 3.9-9.8-.1-.2-2.1.7-3.3 5-6.6 2.9-2.2 6.9-4.7 9-5.6 4-1.9 14.2-2.3 18.2-.7l2.6 1v-14.9c0-16.9.5-16.1-8.8-16.1-4.5 0-6.6.6-9.4 2.5-6.3 4.3-10.9 2.6-8.7-3.2 1.8-4.9 14-8.8 23.2-7.2l3.7.6v-18.2l-3.1-1.8c-6.5-3.7-17.5-1.2-23.4 5.3-3 3.3-8.5 2.3-8.5-1.5 0-2.8 6.3-8.5 12.7-11.6 4.6-2.2 12.4-2.9 18.6-1.6l3.7.8V494l-2.7-.5c-1.6-.4-3.6-.8-4.5-1-3.1-.6-10.6 1.6-12.4 3.6-4 4.4-10.2.3-7-4.7 3-4.5 9.2-6.8 18.4-6.8h8.2v-9.3c0-8.9-.1-9.3-2.7-11-1.7-1.2-4.6-1.8-8.4-1.8-5 0-6.4.5-11.4 4-3.1 2.2-6.3 4.4-7.1 5-1.9 1.3-4.8-.5-5.2-3.3-.6-3.8 9.2-11.3 17.1-13.3 4.6-1.1 12.2-.8 16 .6 1.6.7 1.7-.3 1.7-12.9 0-15.6.4-15-9.1-15.1-4.5 0-6.4.6-9.6 2.8-4.7 3.2-6.9 3.4-8.3.7-2.1-3.9 2.5-8.5 11.3-11.1 5.5-1.6 7.5-1.8 9.9-1 5.8 2 5.8 2 5.8-9.3v-10.4l-4-1.6c-2.2-.9-5.3-1.6-6.9-1.6-4.4 0-11 2.7-14.7 6-1.9 1.6-4.1 3-4.9 3-5.9 0-6-4.6-.2-9.4 9.3-7.6 19.6-10.3 27.2-7.2l3.5 1.5v-8.2c-.1-10.5-1-14.6-4.6-19.1-5.4-6.7-8.1-7.1-47.4-7.1-19 0-51.4.6-72 1.4-37.5 1.4-66.1.7-77.5-1.8-2.2-.5-7.1-1.5-11-2.2-13.2-2.3-25-7.8-32.5-15-10.9-10.6-9.9-28.5 2.8-47.9 7.2-10.9 23.3-25.2 34.5-30.4 2.5-1.2 3.7-2.5 3.7-3.9 0-4.3 4.3-13.6 8.3-17.7 5.5-5.8 11.5-8.3 19.7-8.3 10 0 14.5 1.7 20.6 7.8l5.4 5.3 9.2-.8c5.1-.5 11.9-1 15.1-1 6.6 0 6.5.3 2.5-9-9.5-22.1-22.3-38-36-45.1L142 184v4c0 8.5-6.1 15-14 15-6.8 0-9.5-1.3-13.1-6.2-2.6-3.7-3-5-2.7-8.9 1.1-11 11.1-17 23.2-13.8zm125.1 917.3c3.7 1.6 5.2 4.8 4.1 9.1-1 4.1-5.3 5.5-16.4 5.5h-9.9l-.8 29c-.7 26.3-.9 29.2-2.6 31.4-3.6 4.6-12.9 4.2-14.5-.6-.3-1.1-.3-15 .1-30.9l.8-28.9h-10.6c-6.1 0-11.7-.5-13.2-1.2-6.9-3.1-6.2-12.3 1-14.1 1.1-.2 14.7-.5 30.3-.6 22.5-.1 29 .2 31.7 1.3zm-193.9 11.7c1.8 2 1.9 3.8 1.6 31.3-.3 26.2-.5 29.4-2.1 31.6-1.5 2-2.6 2.5-5.7 2.3-6.1-.4-6.5-.4-13 .3-10.8 1.1-17.9-2.9-22.1-12.3-2.7-6.3-2.8-8.6-.7-16.1 3.5-12.2 17.2-19.3 28.5-14.7 2 .7 2.9-3.6 2.9-13.8 0-5.4.4-7.1 2-8.7 2.6-2.6 6.2-2.5 8.6.1zm460.5 0c2.1 2.1 2.2 2.7 1.5 17.2-.3 8.3-.6 21.7-.6 29.9 0 13.7-.2 15-2.1 16.9-1.7 1.7-2.8 2-5.7 1.5-2.1-.4-4.8-.5-6.2-.4-1.4.1-5.7.2-9.6.3-6.1 0-7.6-.4-11-2.7-2.1-1.5-5-4.4-6.4-6.5-2.2-3.1-2.5-4.8-2.5-11.7 0-7 .4-8.7 2.7-12.6 1.4-2.5 4-5.5 5.6-6.7 5.5-4 15.2-5.3 21.5-2.8 1.5.7 1.7-.2 1.7-9.6 0-9.2.2-10.5 2.2-12.6 2.7-2.9 6.2-2.9 8.9-.2zm42.7.5c5.3 3.4 1.2 10.4-6.1 10.4-5 0-7.3 1.9-8.3 6.7l-.6 3 6.1.5c9.2.6 12.8 5.2 7.9 9.8-1.7 1.5-3.5 2-8 2-3.2 0-5.8.1-5.9.2 0 .2-.4 7.2-.7 15.6-.8 16.5-1 17.2-6.4 17.2-5.1 0-6-3.1-5.6-18.7l.3-13.8-3.5-.3c-9.7-.9-9.5-10.8.3-11.9 4.6-.6 4.7-.6 4.8-4.2.1-6.5 3.2-12.3 8.2-15.6 5.5-3.6 12.6-3.9 17.5-.9zm105.9-1.8c2.5 1.6 2.8 6.5 2.3 35-.5 27.6-.6 29.4-2.4 30.8-2.6 1.9-7.1 1.8-9-.2-1.3-1.3-1.6-4.3-1.6-16.8 0-8.4.3-22.2.7-30.6.5-13 .9-15.6 2.5-17.2 1.9-1.9 5.4-2.3 7.5-1zm-26.3 3.6c3.3 2.1 6.6 9.4 6.6 14.6 0 3-.9 5.7-3 9.2-1.6 2.6-3 5.1-3 5.4 0 .3 1.4 2.6 3.2 5 2.9 4.1 3.2 5.3 3.6 13.4.5 10.6-.6 13.1-7.1 16.1-6.8 3-11.2 2.4-16.4-2.4l-2.3-2v2.4c0 4.1-2.3 6.3-6.5 6.3-2.1 0-4-.6-4.6-1.5-1-1.7-1.1-13.2 0-36.4.6-13.8 1.2-17.9 2.8-21.6 2.4-5.4 5.6-8.6 9.8-9.9 4.2-1.3 14.1-.5 16.9 1.4zm-56.6 9.8c1.6 3.3.2 7.3-2.8 8.1-1.8.5-2 .9-1.1 2.6.6 1.1 1.1 7.3 1.1 14 0 10.8.2 12.3 2 14.1 2.3 2.3 2.9 2.4 6.5 1 4-1.5 5.5-6.4 5.5-18.4 0-6.4.4-10.7 1.1-11.2.6-.3-.2-1.4-2-2.5-6.2-3.7-3-11.3 4.5-10.7 3 .2 4.2.9 5.4 3.1 1.4 2.5 1.3 3-.1 5.5-1.5 2.7-1.5 2.9.5 3.8 2 .9 2.1 1.5 2.1 21.5 0 18.9-.2 20.9-1.9 22.8-2.3 2.6-6 2.7-8.3.3-1.4-1.3-3.5-1.7-10.3-1.7-7.2 0-9-.3-11.7-2.3-4.8-3.4-6.3-9.2-6.3-24.2 0-13.2 1.1-17 4.7-17 1.5 0 1.4-.2-.2-1.4-2.5-1.8-2.5-7.4.1-9.3 1.1-.8 3.6-1.3 5.9-1.1 3.2.2 4.2.8 5.3 3zm-461.2 8.7c1.4 1.6 2.2 1.7 5.6.8 7.6-1.9 18.8 2.5 18.8 7.4 0 2.9-2.2 6.8-4.1 7.4-1 .3-3.2-.1-4.8-.9-3.7-2-6.2-2-10.6-.2l-3.5 1.5v12.5c0 11.3-.2 12.8-2 14.6-2.4 2.4-8.2 2.7-10 .5-1.6-1.9-.5-42.2 1.2-44.2 1.6-2 7.6-1.6 9.4.6zm320.7-.2c1.6 1.5 3.4 1.7 10.6 1.5 10.4-.4 13.7 1.2 17 8.2 2.1 4.2 2.2 5.8 1.9 18.7-.3 12.6-.5 14.2-2.2 15.5-2.3 1.6-6.4 1.8-8.6.4-1.2-.7-1.5-3.7-1.6-15.1-.1-10.9-.4-14.3-1.5-15-2.4-1.5-7.2-1-10.6 1.1l-3.3 2v9.7c0 12-1.2 16.9-4.3 17.7-3.6.9-4.6.7-6.8-1.5-2-2-2-2.7-1.4-21.2.8-21 1.5-23.7 6.2-23.7 1.5 0 3.5.8 4.6 1.7zm291.2-.1c1.8 1.1 3.5 1.4 6 1 5.7-1.1 12.4.3 15.8 3.4 2.6 2.3 2.9 3.1 2.3 6.3-1 5.1-3.7 6.4-8.7 4.2-2.6-1.2-4.9-1.5-7.3-1.1-6.1 1.2-6.6 2.3-6.6 15.7 0 10.6-.2 12.1-2 13.9-2.7 2.7-8.5 2.7-10 .1-1.6-3-.1-41.9 1.7-43.7 1.9-1.9 5.8-1.8 8.8.2zm-361.5.5c7.9 1.8 11.4 7.6 7.3 12.1-2 2.2-3.7 2.2-8.7-.1-4.2-2-8.6-1.5-11.4 1.3-1.6 1.6-1 1.9 6.2 3.1 8.3 1.4 15.6 8.4 15.6 15 0 9.5-10 15.4-23.6 13.9-10.4-1.1-14.9-5.3-12.4-11.8 1-2.6 1.3-2.8 5.3-2.2 10.6 1.5 15.9 1.8 16.8.9 1.8-1.8-1.8-4.1-7.3-4.8-10.3-1.4-14.4-5.4-13.5-13 .9-8.3 6.3-13.3 15.7-14.8 4.3-.7 5.4-.7 10 .4zm-278.1 1.5c5.4 2.1 9.3 7.9 9.3 13.9.2 7.4-.7 7.8-24.4 11.1-6.2.9-6.2 2.9-.2 5.6 5.7 2.5 12 1.8 16.3-1.8 3.9-3.3 7.8-3.2 9.2.2 2.9 7.7-6.3 14.4-19.5 14.4-10 0-15.8-3.2-20.5-11.1-3.1-5.3-2.9-15.3.3-21.7 2.8-5.5 6.9-9.5 11.1-11 4.5-1.6 14-1.4 18.4.4zm200.1.4c2.4 1.3 2.3.5 2.1 17-.2 10.2.1 14.6 1.3 17.8 1.1 3.2 1.3 4.9.6 6.3-1.5 2.7-5.5 3.4-8.5 1.5-2.2-1.4-3-1.4-8-.1-4.3 1.1-6.9 1.2-10.8.5-6.6-1.3-9.6-3.5-12.5-9.1-2-3.7-2.3-5.5-1.9-11.9.6-12.7 7-20.5 19.2-23.4 3.3-.7 16.3.2 18.5 1.4zm18.8-.8c.8.8 1.2 5.1 1.2 13 0 6.5.5 12.8 1.1 14.2 2.1 4.6 10 4.1 11.9-.8.5-1.3 1.2-7.5 1.6-13.8.4-6.2 1.1-11.9 1.7-12.6 1.4-1.7 8.2-1.5 9.7.3 1 1.2 1.2 6.1.7 21.8-.6 19-.8 20.3-2.8 21.9-2.7 2.2-4.8 2.3-7.9.1-1.7-1.2-4.6-1.7-10.5-1.7-14.7-.2-17.4-4.3-17.5-26.3 0-11.6.3-14.4 1.6-15.7 1.8-1.9 7.5-2.1 9.2-.4zm106 1.5c4.5 3.3 7.2 8.2 7.2 12.7-.1 6.4-1.8 7.8-11.3 9.2-19.5 2.9-19.5 2.9-17.3 5.3 4.3 4.7 15.3 4.9 20.6.4 3.5-2.9 7-2.7 8.6.6 3.4 6.8-6.4 14.1-19.1 14.1-7.3 0-12.1-1.7-16.5-5.6-4.9-4.5-6.3-8.7-5.8-17.8.4-9.3 4-15.7 10.8-19.4 3.9-2.1 5.5-2.3 12.3-1.9 5.7.3 8.5.9 10.5 2.4zm287.8-.8c7.4 3.3 11.7 14.1 7.7 19-1.9 2.4-4.8 3.1-23.5 5.7-6.2.9-6.2 2.9-.2 5.5 5.9 2.6 12.8 1.9 16.8-1.7 3.6-3.4 7.7-3 9 .9 2.9 8.3-9.7 15.1-24.6 13.4-13.1-1.6-20.4-13.8-16.9-28.4 1.5-6 7.9-13.9 12.4-15.2 5.5-1.6 14.9-1.2 19.3.8z"/><path d="M121.4 240.6c-5.7 3.7-8.7 8.5-9.2 14.9-1 11.7 5.3 20.1 16.4 21.9 18.9 3.2 31.3-20.4 17.7-33.6-4.7-4.6-7.9-5.8-15.2-5.8-4.4 0-6.6.6-9.7 2.6zm10.1 6.9c3.3 3.2 3.2 7.5-.1 11.4-3.3 4-7.8 4.2-11.7.6-3.5-3.3-3.7-8.8-.5-12.2 3-3.2 9-3.2 12.3.2zm-90.1 888.9c-2.5 1.1-3.5 2.5-4.8 6.4-1.7 4.9-1.6 5.2.3 9.1 2.9 5.5 8.2 7.3 14.1 4.6l4-1.8v-7.9c0-7.8 0-7.8-3.2-9.8-3.8-2.3-6.1-2.4-10.4-.6zm459.9.6c-3.5 2.1-5.9 8.4-4.9 12.5 1.7 6.7 8.3 9.9 14.9 7.1l3.7-1.5v-16.7l-3.5-1.7c-4.6-2.2-6.3-2.1-10.2.3zm134.4-20c-3.1 2.4-3.4 4.3-4.2 25.9-.6 14-.5 15.4.9 14.2 1-.9 2.8-1.1 4.8-.7 7.4 1.5 7.3 1.5 7.6-3.8.3-4.9.3-5-5.7-10.5-3.4-3.1-6.1-6.4-6.1-7.4 0-.9 2.3-3.9 5-6.7 4.1-4.1 5-5.7 5-8.5 0-1.9-.4-3.5-.9-3.5s-1.6-.2-2.3-.5c-.8-.3-2.6.4-4.1 1.5zm-547.9 19.1c-1.6 1.1-2.8 2.5-2.8 3 0 1 5.8.4 12.5-1.3l3.9-1-2.4-1.4c-3.6-1.9-8.1-1.7-11.2.7zm197.1.4c-4.9 3.2-7.3 8.4-6.6 14.8.6 6.5 3.4 9.2 8.7 8.2 6.1-1.2 6.6-2.2 6.6-14.2-.1-10.8-.1-10.8-2.6-11-1.4-.1-4.1.8-6.1 2.2zm125.7-.4c-1.4 1.1-2.6 2.5-2.6 3 0 1 6.6.3 11.9-1.3 3.2-1 3.3-1.2 1.6-2.4-2.7-2-7.8-1.7-10.9.7zm289.2 0c-1.6 1.1-2.8 2.5-2.8 3 0 1 5.8.4 12.4-1.3 3.5-.9 3.7-1 2-2.3-2.7-2.1-8.5-1.8-11.6.6z"/></g><path d="M214.2 1090.7c8.2.2 21.4.2 29.5 0 8.2-.1 1.5-.3-14.7-.3s-22.9.2-14.8.3zm-9.9 15c3.1.2 8.3.2 11.5 0 3.1-.2.5-.3-5.8-.3s-8.9.1-5.7.3zm38.5 0c2.8.2 7.6.2 10.5 0 2.8-.2.5-.3-5.3-.3s-8.1.1-5.2.3zm346.5 30.3c0 4.7.2 6.6.4 4.2.2-2.3.2-6.1 0-8.5-.2-2.3-.4-.4-.4 4.3zm-11.9 5c0 6.9.1 9.7.3 6.2.2-3.4.2-9 0-12.5-.2-3.4-.3-.6-.3 6.3z" stroke-width="3" fill="#E5E5E5" stroke="#E5E5E5"/><path d="M529.2 242.7c3.7.2 10 .2 14 0 4-.1 1-.3-6.7-.3s-11 .1-7.3.3z" fill="#CCB299" stroke="#CCB299" stroke-width="3"/><path d="M145.2 356.7c3.7.2 10 .2 14 0 4-.1 1-.3-6.7-.3s-11 .1-7.3.3z" fill="#B27F66" stroke="#B27F66" stroke-width="3"/><path d="M146.8 357.7c3.4.2 8.8.2 12 0 3.1-.2.3-.3-6.3-.3s-9.2.1-5.7.3zM460.3 410c0 4.7.2 6.6.4 4.2.2-2.3.2-6.1 0-8.5-.2-2.3-.4-.4-.4 4.3zm.1 32.5c0 8.2.2 11.5.3 7.2.2-4.3.2-11 0-15-.1-4-.3-.5-.3 7.8zm0 35.5c0 5.8.1 8.1.3 5.2.2-2.8.2-7.6 0-10.5-.2-2.8-.3-.5-.3 5.3zm0 32.5c0 7.1.1 9.9.3 6.2.2-3.7.2-9.6 0-13-.2-3.4-.3-.4-.3 6.8zm-.2 31.7c-.1 4.8.1 8.9.6 9.1.4.3.6-2.3.4-5.6-.5-11.1-.9-12.4-1-3.5zm.2 33.3c0 8.2.2 11.5.3 7.2.2-4.3.2-11 0-15-.1-4-.3-.5-.3 7.8zm-.1 33.5c0 4.7.2 6.6.4 4.2.2-2.3.2-6.1 0-8.5-.2-2.3-.4-.4-.4 4.3zm.1 29c0 6.9.1 9.7.3 6.2.2-3.4.2-9 0-12.5-.2-3.4-.3-.6-.3 6.3zm-.1 31c0 4.7.2 6.6.4 4.2.2-2.3.2-6.1 0-8.5-.2-2.3-.4-.4-.4 4.3zm-.1 30.7c-.1 7.2.1 13.4.6 13.6.4.3.6-3.6.4-8.6-.4-16.6-.8-18.4-1-5z" stroke-width="3" fill="#E5CCCC" stroke="#E5CCCC"/><path d="M198.8 241.7c2.3.2 6.1.2 8.5 0 2.3-.2.4-.4-4.3-.4s-6.6.2-4.2.4zM459.4 411c0 5.2.1 7.4.3 4.7.2-2.6.2-6.8 0-9.5-.2-2.6-.3-.4-.3 4.8zm0 32c0 8.5.2 12 .3 7.7.2-4.2.2-11.2 0-15.5-.1-4.2-.3-.7-.3 7.8zm0 35c0 5.8.1 8.1.3 5.2.2-2.8.2-7.6 0-10.5-.2-2.8-.3-.5-.3 5.3zm0 33.5c0 7.7.2 10.7.3 6.7.2-4 .2-10.3 0-14-.2-3.7-.3-.4-.3 7.3zm0 31.5c0 5.2.1 7.4.3 4.7.2-2.6.2-6.8 0-9.5-.2-2.6-.3-.4-.3 4.8zm.1 32.9c0 12.8.3 15.5 1.5 15.8 1.1.3 1.2.2.3-.4-.9-.6-1.3-5.5-1.6-15.8l-.3-15 .1 15.4zm-.2 33.1c0 4.7.2 6.6.4 4.2.2-2.3.2-6.1 0-8.5-.2-2.3-.4-.4-.4 4.3zm.1 29.9c.1 10.2.4 12.5 1.6 12.8 1.1.3 1.2.2.3-.4-.8-.6-1.3-4.9-1.6-12.8l-.3-12v12.4zm0 30.6c0 4.9.1 7.1.3 4.8.2-2.3.2-6.4 0-9-.2-2.6-.3-.8-.3 4.2zm-.2 30.7c-.1 7.5.1 13.9.6 14.1.4.3.6-3.8.4-9.1-.4-17.2-.8-19-1-5z" stroke-width="3" fill="#963" stroke="#963"/><path d="M121.4 177c-1.2.5-3.4 2.4-4.8 4.3-3.7 4.8-3.5 10.1.4 14.8 6.1 7.4 13.5 7.7 19.5.6 3.2-3.7 3.6-4.7 3.4-9.1-.2-3.2.1-5.1.9-5.4 1.8-.6 13 5.5 18.4 10 5.1 4.2 14.8 15.9 14.8 17.7 0 .6.4 1.1.8 1.1.9 0 9.2 16.1 9.2 17.8 0 .7.4 1.2.9 1.2 1.4 0 4.2 11.3 3 12.1-.6.3-7.2 1-14.7 1.4-7.6.4-14.8.8-16.2.9-1.7.1-3-.8-4.5-3.1-1.1-1.8-2.5-3.2-3.2-3.3-.6 0-1.8-.9-2.6-2-.9-1.3-3.9-2.6-8-3.6-6.2-1.6-7.2-1.6-13.1-.1-6 1.5-7.7 2.4-12.3 6.9-4.7 4.4-7.2 9.7-7.3 15.3 0 3.4-1.9 5.4-7.7 8.1-2.1 1-4.4 2.4-5.1 3.1-.8.7-2.3 1.8-3.4 2.4-2.7 1.4-4.6 3.1-11.7 10.3-9 9-9.8 9.9-11.2 12.9-.7 1.5-1.5 2.7-2 2.7-.4 0-1.4 1.9-2.4 4.2-.9 2.4-2 4.5-2.5 4.8-.4.3-1.6 4.1-2.4 8.4-3.9 18.8 4.7 29.7 29.6 37.5 19.8 6.1 59.5 8 111.8 5.2 11.8-.6 37.9-1 58-.9 35.6.3 36.6.4 40.4 2.6 5.6 3.1 9.4 7.6 10.1 12 .4 2 1 4.7 1.6 6 .5 1.3.9 5.7.9 9.8 0 8.6-.7 9.4-6.5 7-2.1-.9-5.5-1.6-7.6-1.6-7.1 0-21.9 8.4-21.9 12.5 0 2.5 3.2 1.7 7.7-1.9 6-4.7 12-6.2 18.7-4.7 3.1.7 6.2 2.2 7.5 3.5 2 2.1 2.1 3.2 1.9 12.7l-.3 10.4-8-.3c-8.8-.4-15.6 1.5-18.7 5.3-3.7 4.3-.6 5.7 4.7 2.1 3.2-2.2 4.9-2.6 11-2.6 11.4 0 11.6.3 11.3 17.5l-.3 14-2.5-.1c-1.4-.1-4.8-.5-7.6-.9-5.4-.8-14.5.8-16.7 2.9-.7.6-2.9 2.4-4.9 3.9-3.8 2.8-5.1 6.7-2.3 6.7.9 0 2.8-1.1 4.3-2.5 4.5-4.2 10.3-6.5 16.6-6.5 11.2 0 13.8 3.3 13.4 16.5l-.3 9-7.1-.3c-4-.2-9 .2-11.3.8-4.8 1.3-10.8 6.1-9.7 7.8 1.1 1.8 3 1.5 5.6-.8 3.2-2.7 5.9-3.3 13.4-2.8 9.6.6 9.7.8 9.4 18.5-.3 12.5-.5 14.7-1.8 14.5-9.9-2.2-12.4-2.4-17.3-1.3-9 2-21.6 13.1-14.8 13.1 1 0 3-1.1 4.5-2.5s3.1-2.5 3.6-2.5 1.6-.8 2.6-1.7c1.2-1.2 3.8-1.9 8.3-2.1 6.1-.3 6.9-.1 10.9 2.7l4.2 3.1v8.8c0 4.8-.4 9.2-.8 9.9-.5.8-2.1.9-5.7.2-9.1-1.8-18.6 1-21.9 6.4-1.6 2.6 1.2 4.1 3.9 2.1 4.6-3.3 8.9-4.6 14.7-4.2 9.5.7 9.8 1.4 9.8 19 0 16.3-.5 17.5-5.7 14.7-4.4-2.4-13.3-1.7-19.1 1.4-5.9 3.2-11.2 7.6-11.2 9.4 0 2.7 2.4 2.3 6.8-1.2 2.6-2 5.9-3.9 7.5-4.2 1.5-.3 3-1 3.3-1.4.9-1.5 7-1 11.1.9 6.9 3.1 7.4 4 7.1 13.9-.3 8.7-.3 8.8-2.8 8.6-10.2-.9-16.4-.3-20.5 2.1-2.3 1.4-4.6 3.3-4.9 4.2-.9 2.3 1 4.2 2.8 2.9 6.5-4.8 7-5 14.2-5 11 .1 11.4.7 11.4 16.2 0 13.6-.6 14.9-5.7 12.2-4.5-2.4-13.4-1.7-19.1 1.4-5.9 3.2-11.2 7.6-11.2 9.4 0 2.7 2.4 2.3 6.8-1.2 2.6-2 5.9-3.9 7.5-4.2 1.5-.3 3-1 3.3-1.4.9-1.5 7-1 11.1.9 7.1 3.2 7.4 3.7 7.1 16.4l-.3 11.3-8.2-.4c-4.5-.2-9.7.2-11.5.8-4 1.3-9.3 6.4-8.4 8 1.1 1.7 2.6 1.3 6.5-1.6 3-2.3 4.5-2.7 10.2-2.7 4.6 0 7.4.5 9.3 1.7l2.7 1.8-.3 11.7-.3 11.7-3-.3c-1.6-.1-5.5-.5-8.6-.8-6.3-.7-11.3.6-16.3 4-5.4 3.7-7.6 6-7.6 7.8 0 2.4 3.2 2.3 5.5-.2 2.7-3 9.5-6.6 13.7-7.4 5-.9 10.9.8 14.2 4 2.6 2.7 3.5 6.8 1.6 7.9-.5.3-1 4.8-1 9.8v9.2h-8.9c-8.3 0-9.2.2-13.2 3-2.3 1.6-4.4 3.6-4.7 4.2-.7 2.4 2.7 2.5 5.8.3 4.5-3.2 9.6-4.2 15.8-2.9l5.2 1v4.3c0 2.3.4 4.6.9 5.1.5.6 1.2 5.3 1.5 10.6l.7 9.5h-8.3c-7.1-.1-8.9.3-12.2 2.4-9.3 5.7-14.9 12.7-12.2 14.9 1.1.9 2.1.5 4.5-2.1 1.7-1.8 3.1-3.6 3.1-3.9 0-.4 2.2-2.1 4.8-3.8 3.9-2.5 5.9-3.1 10.3-3.1 6.1 0 11.9 2.8 11.9 5.8 0 1 .4 2.2.9 2.7.4.6 1.7 4.1 2.7 8 1 3.8 2.4 7.6 3.1 8.3 2.5 2.5.9 4.5-4.4 5.7-5.3 1.1-11.7 6.8-14.7 13-2.2 4.5-2.5 5.9-1.6 7 2 2.4 2.7 1.8 5.5-4.3 2.2-4.9 3.5-6.4 8-9.1 7.1-4.3 11.3-4.1 13.6.8 1.9 4 3.9 6.6 9.5 12.5l4.1 4.2-5.7 5.6c-4.3 4.2-6 6.6-6.8 10.1-1.6 6.2-1.5 15.9.1 18.2 2.5 3.3 3.7.8 3.7-7.6 0-8.9 1.4-13.1 5.6-17.1 5.5-5.1 9.9-5.5 14.1-1.2.7.6 3.5 1.8 6.2 2.5 2.8.7 5.2 1.8 5.5 2.5.2.6-.7 4.2-2 7.9-2.1 5.8-2.3 7.2-1.3 10.8 1.6 5.9 3.7 9.7 5.4 9.7 2 0 1.9-2.4-.2-8.2-1.6-4.5-1.6-5 .3-10.4 2.7-8.2 3.5-8.7 11.3-8 3.6.3 9.3.2 12.6-.2 8.2-1 9.1-.7 11.4 4.2 2.4 4.9 2.6 9.5.7 15.8-1.8 6-.6 8.2 2.6 5 2.1-2 2.3-3.2 2.3-12.1 0-8.3-.3-10.2-1.9-12-2.5-2.7-1.5-4.7 2.8-5.5 1.9-.4 4.1-1.3 4.8-2 4.5-4.5 11.1-4.3 17.6.4 5.2 3.7 8.2 10.1 8.2 17.2 0 3.8.5 6 1.6 6.9 2.5 2.1 3.6-.7 3-8.4-.6-7.7-5.1-17.1-9.2-18.9-1.3-.6-2.4-1.5-2.4-1.9 0-.4-1.1-1-2.5-1.3-3.3-.8-3.2-3.2.5-6.6 1.7-1.5 3-3.3 3-3.8 0-.6.9-1.7 1.9-2.4 1.1-.8 2.7-3 3.7-5.1 1.7-3.5 2-3.7 6.5-3.7 2.6 0 5.9.4 7.3 1 2.8 1 9.1 7.4 10.9 11 1.6 3.3 4.7 3.9 4.7 1 0-2.5-1.5-5.5-4-8-.9-.9-1.9-2.1-2.1-2.6-.8-1.9-8.6-6.3-12.4-7-5.6-.9-5.8-1.2-3.7-4.7 1.1-1.8 2.5-5.3 3.2-8 .7-2.6 1.6-4.7 2.1-4.7.4 0 1.1-2 1.5-4.5.4-3.2 1.1-4.5 2.3-4.5.9 0 3-.9 4.6-2 2.1-1.4 4.7-2 8.5-2 6.4 0 11.9 3.1 17.9 9.9 2.6 2.9 4 3.9 5 3.2 1.7-1.1.8-3.8-2.7-7.6-8.1-8.8-15.5-11.5-25.9-9.6-6.9 1.3-8.3 1-6.5-1.1.6-.8 1.8-8 2.8-16.1l1.7-14.8 2.9-.6c1.6-.3 3.1-1 3.4-1.4.7-1.2 5.1-1.2 5.8 0 .3.5 2.1 1.2 4.1 1.5 1.9.4 4.8 1.8 6.5 3.2 3 2.6 5 2.5 5-.2 0-2.3-1.9-3.8-8.4-6.9-5.2-2.5-6.6-2.7-12.7-2.2l-6.8.6.1-10.8c0-9.6.3-11 2-12.2 1.1-.8 2.9-2.1 3.9-3 2.5-2.1 9.4-3.1 14-2 3.1.7 5.8 2.3 14.5 8.6.9.6 1.8.5 2.6-.3 1.1-1.1.5-2.1-3.2-5.3-6.4-5.7-6.4-5.7-11.5-7-5.6-1.4-14.8-.6-18.1 1.6-1.4.9-2.9 1.3-3.4 1-.6-.4-1-6.7-1-14.8v-14.2l3.1-1.8c3.1-1.7 11.9-2.4 11.9-.8 0 .5 1.3 1.1 3 1.4 1.6.4 3.9 1.6 5 2.7 2.5 2.5 5 2.6 5 .2 0-2.7-1.1-3.8-7-6.8-4.7-2.3-6.7-2.7-13.2-2.7l-7.8.1v-9c0-10.1.6-11.2 7.9-14.7 4.6-2.2 11.5-2.8 12.6-1.2.3.5 1.9 1.3 3.6 1.6 1.7.4 3.9 1.5 4.9 2.5 4.8 4.8 9 6 9 2.6 0-1.8-6.7-7-12.6-9.8-6.3-2.9-14.3-2.9-19.8 0-2.1 1.2-4.3 1.9-4.7 1.6-.5-.3-.9-6.5-.9-13.8v-13.3l2.7-1.4c5.3-2.9 16.6-.5 21.7 4.7 1.2 1.1 2.1 1.3 2.8.6 1.9-1.9.3-4.6-4.7-7.6-4.5-2.8-5.8-3.1-13.5-3.2h-8.5l-.3-8.7c-.3-9.9.2-11 7.7-14.6 4.6-2.2 11.5-2.8 12.6-1.2.3.5 1.9 1.3 3.6 1.6 1.7.4 3.9 1.5 4.9 2.5 4.8 4.8 9 6 9 2.6 0-1.8-6.7-7-12.6-9.8-6.3-2.9-14.3-2.9-19.8 0-2.1 1.2-4.3 1.9-4.7 1.6-.5-.3-.9-7.5-.9-16 0-18.8.1-18.9 9.9-18.9 5.5 0 7.3.5 10.8 2.7 5.2 3.4 7.6 3.6 7.1.7-.2-1.4-2.3-3.2-6.3-5.3-5.3-2.8-6.9-3.1-13.7-3l-7.8.2v-9.2c0-8.4.2-9.5 2.3-11.4 1.3-1.2 2.8-2.2 3.4-2.2.6 0 1.3-.5 1.5-1.2.2-.6 3.1-1.3 6.5-1.6 6.8-.5 12.1 1.5 18.3 6.8 3.2 2.8 6 3 6 .6 0-1.3-3.7-4.9-8.7-8.3-6.5-4.6-18.4-5.4-24.1-1.7-4.7 3.1-5.2 1.7-5.2-13.4 0-16.4.1-16.6 9.3-16.6 6.1.1 11 1.7 15 5.2 1.3 1.2 2 1.3 2.9.4 2.2-2.2-1-5.8-7.9-8.7-5.6-2.4-7.3-2.7-12.9-2.2l-6.4.6v-11c0-10.8.1-11.2 2.7-13.3 4.8-3.8 6.7-4.5 12.5-4.6 7 0 9.7 1 15.4 5.6 2.6 2.1 5 3.4 5.9 3 2.2-.8 1.9-2-1.2-5.1-7.5-7.5-18.6-10.3-27.9-7.1-7.8 2.6-7.4 3.4-7.4-13.8s.1-17.4 6.9-18.3c5.5-.7 10.2.3 14.5 3.2 4.4 3 6.6 3.2 6.6.7 0-2.3-4.3-5.5-9.5-7.1-2.2-.7-5-1.7-6.1-2.3-1.6-.7-3.2-.7-5.8.2-6.1 2-6.6 1.3-6.6-9.4 0-9.3.1-9.5 3-12 3.1-2.6 8.7-4.6 12.7-4.6 3.8 0 11.6 3.1 15.3 6.1 3.7 3.1 5.5 3.6 6.6 1.8.9-1.5-5.3-7.1-10.2-9.3-2.1-.9-4.7-2.1-5.6-2.6-2.9-1.6-10.2-1.1-14.6 1-6.9 3.4-7.2 3.1-7.2-6.4 0-4.7.5-8.8 1-9.1.6-.3 1-1.4 1-2.3 0-9.8 10.7-20.2 20.7-20.2 4.2 0 4.3.1 4.3 3.4 0 6.1 2 14 4.4 17.4 4.8 6.7 12.6 10.6 12.6 6.2 0-1.1-.4-2-1-2-.5 0-2.7-1.6-4.9-3.5-4.2-3.9-6.1-9-6.1-16.9V353h38.2l-.7 2.7c-1.8 7.2-2.2 13.2-1.3 18.5.9 5.1 1.7 6.5 6.5 11.3 5.4 5.4 9.3 7 9.3 4 0-.9-2.4-4-5.4-6.9-4-3.8-5.6-6.3-6.2-9-.9-5 .1-12.7 2.2-17.1l1.6-3.5h12.4c10.4 0 12.6.3 13.1 1.6.3.8.1 2-.6 2.7-1.3 1.3-1.5 9-.2 11.5.5.9 1.4 3.1 2 4.7 1.5 4.1 6.7 9.5 9.2 9.5 2.7 0 2.4-2.8-.7-5.3-3.7-2.9-5.4-7.6-5.4-15.1 0-10.2-1-9.6 16.7-9.6h15.5l-.7 3.2c-.4 1.8-1.1 3.7-1.6 4.2-1.1 1.2-1.2 15.6-.1 15.6.4 0 1.5 1.9 2.4 4.3 1.3 2.9 3.3 5.2 6.6 7.4 5.2 3.6 6.7 4 7.5 1.9.4-.9-.8-2.5-3.1-4.2-5.9-4.5-6.8-5.8-8.7-11.7-1.3-4.3-1.5-6.3-.7-8.4.5-1.6 1.6-4.9 2.2-7.6l1.3-4.7H622l-.6 6.7c-.4 4-.2 8.5.5 10.9 1.3 4.9 7.9 12.4 10.9 12.4s2.8-2-.5-5.2c-5.6-5.2-5.8-5.8-5.8-14.9 0-4.8.2-8.9.5-9.2.3-.2 5.5-.8 11.6-1.2l11.1-.7.7 5.3c1.4 10.1 6.1 16.5 15.3 20.5 6.2 2.8 9.1 3 9.9.9.9-2.4-1.2-4.2-5.7-4.8-8-1.1-13.9-8-14.7-17.3-.4-5.2-.3-5.4 2-5.4 1.3 0 2.8-.4 3.3-.9.6-.5 5.5-1.6 11-2.6s10.5-2.1 11-2.5c.6-.5 3.3-1.4 6-2.1 2.8-.6 6.1-1.8 7.5-2.5 1.4-.8 4.5-2.3 7-3.4 11.7-5.2 21.4-12.6 28.2-21.9 3.5-4.6 4.1-6.3 4.6-11.6.2-3.4-.1-7.8-.7-9.7-1.4-4.2-11-14.1-16-16.4-2-.9-3.8-2-4.1-2.4-.8-1.2-6.8-4-8.5-4-.8 0-1.5-.4-1.5-.8 0-.5-1.9-1.5-4.2-2.1-2.4-.7-6.1-2.1-8.3-3.1-2.2-1-6.8-2.4-10.2-3.1-3.5-.7-6.3-1.6-6.3-1.9 0-.4-4.6-1.5-10.2-2.5-5.7-1-10.5-2.2-10.8-2.6-.3-.4-6.8-1.5-14.5-2.5s-14.2-2.1-14.5-2.4c-.6-.8-21.6-2.9-37.8-3.7-6.7-.3-12.5-1-12.8-1.5-.8-1.2-73.1-1-73.9.2-.3.5-2.7 1-5.4 1-6.2 0-28.4 2.9-29.1 3.8-.3.4-3.4 1.4-7 2.1-3.6.7-8.3 2.1-10.5 3-2.2 1-5.6 2.4-7.5 3.1-1.9.8-4.1 2-4.8 2.7-.7.7-1.9 1.3-2.6 1.3-.7 0-2.1.8-3.2 1.7-1 1-3.7 3-6 4.5-5.3 3.4-14.8 12.9-18.2 18.2-1.5 2.3-3 4.3-3.3 4.6-.3.3-1.4 2.1-2.4 4s-2.1 3.7-2.5 4c-.4.3-1.4 2.5-2.3 5-1.8 5.4-4.2 6.3-5.9 2.3-.7-1.5-1.5-3-1.9-3.3-.3-.3-1.4-2.2-2.4-4.4-1-2.1-2.8-4.9-3.9-6.1-7.6-8.4-9.6-10.3-12.6-12.5-1.8-1.4-4.9-3.7-6.7-5.2-1.9-1.5-4.3-3-5.4-3.3-1-.4-1.9-1-1.9-1.3 0-.4-2.2-1.6-5-2.7-2.7-1.1-5-2.2-5-2.6 0-.3-2.5-1.4-5.5-2.4-3-.9-5.5-2-5.5-2.4 0-.4-3.4-1.5-7.5-2.6-4.1-1-7.5-2.1-7.5-2.5 0-.4-4.5-1.5-10-2.5-5.5-1.1-10-2.2-10-2.5 0-.4-6.2-1.5-13.7-2.4-7.6-1-14.7-2.2-15.8-2.7-3.3-1.3-32.6-2.9-54.6-2.9-22.7 0-21.8.2-23.9-6.5-.7-2.2-2.5-6.8-4.1-10.3-1.6-3.5-2.9-6.8-2.9-7.3s-.4-.9-1-.9c-.5 0-1-.5-1-1.1 0-.6-2.5-4.9-5.6-9.5-10-15-24.5-26.4-37.4-29.3-5.4-1.3-15.7-1.3-18.6-.1zm11.5 6.6c2.9 3.7 2.6 7-.8 10.5-3.6 3.5-5.7 3.6-9.5.5-6.1-4.8-2.9-13.6 4.9-13.6 2.4 0 3.9.7 5.4 2.6zm7.2 53.4c2.2.6 5.4 2.9 8.2 5.8 3.7 4 4.6 5.8 5.2 10 .7 5.4 0 12.3-1.7 15.7-1.9 3.6-8.6 9.2-11.9 9.9-5.4 1-14.8.7-18.2-.8-4.1-1.7-9.6-7.9-10.4-11.7-.3-1.6-1-3.2-1.4-3.5-1.5-.9-1-6.7 1.1-12.4 2.2-5.9 6.1-10.3 11.2-12.5 3.9-1.7 12.8-1.9 17.9-.5zM261 248.1c6.9.5 13.4 1.4 14.5 1.8 1.1.5 7.6 1.7 14.5 2.6 6.9.9 12.7 2 13 2.4.3.4 4.6 1.6 9.5 2.5 5 1 9.2 2.1 9.5 2.5.3.3 2.7 1.2 5.4 1.9 7.3 1.9 26 10.6 29.7 13.8.8.8 1.9 1.4 2.3 1.4.3 0 3.6 2.3 7.2 5.2 6.7 5.2 16.4 16.2 16.4 18.5 0 .7.4 1.3.9 1.3s1.7 2.4 2.6 5.2c.9 2.9 2 6.1 2.6 7 1.1 2.2 1.2 11.5 0 12.2-.5.3-1.6 5.9-2.6 12.3-.9 6.5-2.1 12.7-2.6 13.8-2.4 5.4-2.9 47.2-2.9 222.6 0 180.8 0 184.9 1.9 184.9 1 0 2.2-.7 2.5-1.6.3-.9.6-87.8.6-193.2 0-184.7.4-216.3 3-218.2.4-.3 1.2-4.5 1.9-9.4.7-5 2-10.8 3-13 1-2.3 2.2-5.8 2.5-7.9 1.7-9.4 13.1-29 22.2-38.1 8.3-8.3 26.3-18.6 37.3-21.3 3.6-.9 7.1-2 7.7-2.4.5-.5 6.6-1.5 13.5-2.4 6.8-.9 14.2-2.2 16.4-2.8 5.6-1.7 86.4-1.7 92 0 2.2.6 12.9 1.9 23.9 2.8 10.9.9 20.6 2 21.5 2.5.9.5 7.2 1.6 14.1 2.6 6.9.9 12.7 2 12.8 2.5.2.5 1.6.9 3 .9 4.4 0 28.6 6.6 34.7 9.4 1.7.8 4.1 1.7 5.3 2.1 2.9.8 14.5 6.5 15.2 7.4.3.3 1.8 1.3 3.3 2 1.5.8 4.8 3.6 7.2 6.2 3.4 3.6 4.5 5.7 5.1 9.5.8 5.3-.8 12.8-3.1 15.4-.8.8-3.1 3.4-5.2 5.7-2 2.4-4.3 4.3-5 4.3-.6 0-1.6.6-2 1.3-1.9 3.1-18.5 11.8-26.1 13.8-2.9.7-5.2 1.6-5.2 2 0 .4-4.4 1.5-9.7 2.4-5.4 1-10.7 2.1-11.8 2.6-5.9 2.6-22.5 3.2-103 3.6-70.9.3-84.5.6-87.2 1.8-1.7.8-3.6 1.5-4.1 1.5-1.2 0-8.2 6.8-8.2 7.9 0 .5-.9 1.8-1.9 3-1.1 1.2-2.4 4.5-3 7.2-.8 3.4-1.1 63-1.1 190.9 0 102.2-.4 186.1-.8 186.4-.5.3-1.2 5.4-1.5 11.4-.7 11.7-2.5 25.1-3.7 26.7-.4.5-1.6 4.5-2.6 8.8-1 4.2-2.1 7.7-2.6 7.7-.4 0-.8.7-.8 1.6 0 2.1-6.6 15.7-10.4 21.3-6.1 9.1-17.5 18.9-25.6 22-1.9.7-5.1 2.1-7 3-5.1 2.3-33 2.3-38-.1-1.9-.9-4.9-2-6.5-2.6-10.2-3.2-26.3-20.2-29.8-31.3-.6-2.2-1.5-3.9-1.8-3.9-.4 0-1.5-3-2.5-6.8-1-3.7-2.1-6.9-2.5-7.2-.5-.3-1.5-6.2-2.5-13-.9-6.9-2-13.3-2.5-14.2-.5-1-.9-87.2-.9-201.2 0-172.3-.2-199.9-1.5-203.5-2.1-6-9-13-14.2-14.4-2.4-.6-4.3-1.5-4.3-1.9 0-1.3-98.4-1-99.7.3-1.7 1.7-72.8 1.8-74.5.1-.7-.7-3-1.2-5.1-1.2-5.4 0-25.1-3-25.7-3.9-.3-.4-3.2-1.5-6.5-2.4-3.3-.9-6.1-2.1-6.3-2.7-.2-.5-.9-1-1.6-1-2.5 0-10.5-8-11.7-11.7-2-6.3.4-25.3 3.3-25.3.4 0 .8-.6.8-1.3 0-1.3 5.7-10.6 8.3-13.5 1.7-1.9 9.2-9.2 12.2-11.9 3.4-3.1 12.9-9.3 14.3-9.3.6 0 1.2-.5 1.2-1.1 0-.6 1-.9 2.2-.7 1.5.2 2.5 1.3 3.2 3.6.5 1.8 3 5.4 5.6 8 5.1 5.2 12.1 8.2 19.1 8.2 4.9 0 12.5-2.6 15-5.1 1-1 2.3-1.9 2.7-1.9.5 0 2.4-2.4 4.3-5.3 3.1-4.8 3.4-5.8 3.5-13.7l.2-8.5 3.8-.7c13.3-2.6 70.9-3 99.4-.7z" fill="#7F3300" stroke="#7F3300" stroke-width="3"/><path d="M237.8 354.7c8.9.2 23.5.2 32.5 0 8.9-.1 1.6-.3-16.3-.3-17.9 0-25.2.2-16.2.3zm262.5 0c4.8.2 12.6.2 17.5 0 4.8-.1.8-.3-8.8-.3-9.6 0-13.6.2-8.7.3zm40 0c3.1.2 8.3.2 11.5 0 3.1-.2.5-.3-5.8-.3s-8.9.1-5.7.3zm32.5 0c3.9.2 10.5.2 14.5 0 3.9-.1.7-.3-7.3-.3s-11.2.2-7.2.3z" stroke-width="3" fill="#CC997F" stroke="#CC997F"/><path d="M608.3 348.7c3.1.2 8.3.2 11.5 0 3.1-.2.5-.3-5.8-.3s-8.9.1-5.7.3zM453.5 552c0 97.1.1 136.8.2 88.2.2-48.5.2-127.9 0-176.5-.1-48.5-.2-8.8-.2 88.3z" stroke-width="3" fill="#B24C00" stroke="#B24C00"/><path d="M314.5 551.5c0 97.9.1 137.8.2 88.7.2-49.2.2-129.3 0-178-.1-48.8-.2-8.6-.2 89.3zm72 22c0 102.3.1 144.3.2 93.3.2-50.9.2-134.6 0-186-.1-51.3-.2-9.6-.2 92.7z" stroke-width="3" fill="#CC4C00" stroke="#CC4C00"/><path d="M228.8 347.7c11.7.2 30.6.2 42 0 11.4-.1 1.8-.2-21.3-.2s-32.4.1-20.7.2zm286 0c21 .2 55.4.2 76.5 0 21-.1 3.8-.2-38.3-.2-42.1 0-59.3.1-38.2.2zM379.5 573.5c0 102.3.1 144.3.2 93.3.2-50.9.2-134.6 0-186-.1-51.3-.2-9.6-.2 92.7z" stroke-width="3" fill="#E56600" stroke="#E56600"/><path d="M212.3 247.7c2.6.2 6.7.2 9 0s.2-.3-4.8-.3c-4.9 0-6.8.1-4.2.3zm319 2c3.2.2 8.1.2 11 0 2.9-.2.3-.3-5.8-.3-6 0-8.4.1-5.2.3z" stroke-width="3" fill="#C60" stroke="#C60"/><path d="M261.2 248.5c.3.3 3.8.9 7.7 1.4 3.9.4 6.8.4 6.4 0-1-.8-15-2.2-14.1-1.4zm239.6.4c-4.2.3-7.9.8-8.2 1.1-.6.7 9.9.2 19.9-1 6.7-.7 6.8-.7 1.5-.7-3 0-9 .3-13.2.6zm61.2.1c11.7 1.2 25.1 1.6 23.7.9-.7-.4-8.2-.9-16.7-1.2-11.5-.4-13.3-.3-7 .3zM185 350l-7.5.6 7.7.2c4.2.1 8-.2 8.3-.8.3-.6.3-.9-.2-.8-.4.1-4.2.4-8.3.8zm-39.2 1.7c3.4.2 9 .2 12.5 0 3.4-.2.6-.3-6.3-.3-6.9 0-9.7.1-6.2.3zM313.5 551c0 98.2.1 138.3.2 89.3.2-49.1.2-129.5 0-178.5-.1-49.1-.2-9-.2 89.2zm140.7 7.5c-.1 101.7-.5 186.1-.8 187.5-.5 1.8-.4 2.2.5 1.4.8-.7 1-49 .8-187.5l-.2-186.4-.3 185zM309.3 383c0 4.7.2 6.6.4 4.2.2-2.3.2-6.1 0-8.5-.2-2.3-.4-.4-.4 4.3zm149.1 1.5c0 4.9.1 7.1.3 4.8.2-2.3.2-6.4 0-9-.2-2.6-.3-.8-.3 4.2zM309 410.3l.5 11.2.3-10.4c.1-5.7-.1-10.8-.5-11.2-.4-.5-.6 4.2-.3 10.4zm149.4.2c0 5.5.1 7.6.3 4.7.2-2.9.2-7.4 0-10-.2-2.6-.3-.2-.3 5.3zM309 442.8l.5 14.7.3-13.9c.1-7.7-.1-14.3-.5-14.7-.4-.5-.6 5.8-.3 13.9zm149.4.7c0 8.8.2 12.3.3 7.7.2-4.6.2-11.8 0-16-.1-4.2-.3-.5-.3 8.3zm-149 33c0 5.5.1 7.6.3 4.7.2-2.9.2-7.4 0-10-.2-2.6-.3-.2-.3 5.3zm149 2c0 6.6.1 9.2.3 5.7.2-3.4.2-8.8 0-12-.2-3.1-.3-.3-.3 6.3zm-149 30.5c0 8.5.2 12 .3 7.7.2-4.2.2-11.2 0-15.5-.1-4.2-.3-.7-.3 7.8zm149 2c0 8 .2 11.2.3 7.2.2-3.9.2-10.5 0-14.5-.1-3.9-.3-.7-.3 7.3zm-149 31c0 5.2.1 7.4.3 4.7.2-2.6.2-6.8 0-9.5-.2-2.6-.3-.4-.3 4.8zm149 1.5c0 5.5.1 7.6.3 4.7.2-2.9.2-7.4 0-10-.2-2.6-.3-.2-.3 5.3zm-149 31.5c0 8.5.2 12 .3 7.7.2-4.2.2-11.2 0-15.5-.1-4.2-.3-.7-.3 7.8zm149 1c0 9.1.2 12.8.3 8.2.2-4.5.2-11.9 0-16.5-.1-4.5-.3-.8-.3 8.3zm-149 32c0 5.2.1 7.4.3 4.7.2-2.6.2-6.8 0-9.5-.2-2.6-.3-.4-.3 4.8zm149 1c0 5.2.1 7.4.3 4.7.2-2.6.2-6.8 0-9.5-.2-2.6-.3-.4-.3 4.8zm-149 28.5c0 7.1.1 9.9.3 6.2.2-3.7.2-9.6 0-13-.2-3.4-.3-.4-.3 6.8zm149 1c0 7.7.2 10.7.3 6.7.2-4 .2-10.3 0-14-.2-3.7-.3-.4-.3 7.3zm-149 32c0 6.6.1 9.2.3 5.7.2-3.4.2-8.8 0-12-.2-3.1-.3-.3-.3 6.3zm149-1c0 5.5.1 7.6.3 4.7.2-2.9.2-7.4 0-10-.2-2.6-.3-.2-.3 5.3zm0 31c0 8.2.2 11.5.3 7.2.2-4.3.2-11 0-15-.1-4-.3-.5-.3 7.8zm-149.4.8.5 12.2.3-11.4c.1-6.3-.1-11.8-.5-12.2-.4-.5-.6 4.7-.3 11.4z" stroke-width="3" fill="#930" stroke="#930"/><path d="M212.3 246.7c2.6.2 6.7.2 9 0s.2-.3-4.8-.3c-4.9 0-6.8.1-4.2.3zm314.9 2c4.8.2 12.9.2 18 0 5.1-.1 1.2-.3-8.7-.3-9.9 0-14.1.2-9.3.3zm-382 65.5c-.7.7-1.2 2.7-1.2 4.4 0 5.1-1.5 7.9-5.5 10.3-4 2.3-10 2.7-14 .9-2.1-1-2.9-.9-4.2.5-1.6 1.6-1.6 1.8.2 3.1 2.6 1.9 10.5 3 14.7 2.1 4.9-1.1 10.5-5.3 11.8-8.8.6-1.8 1.6-4 2.1-4.9 1.5-2.8 1.1-7.5-.7-8.2-2-.8-1.8-.8-3.2.6zm90.5 34.5c9.4.2 25.2.2 35 0 9.8-.1 2.1-.2-17.2-.2-19.2-.1-27.3.1-17.8.2zm274.1 0c17.1.2 45.3.2 62.5 0 17.1-.1 3.1-.2-31.3-.2s-48.4.1-31.2.2zm-371 2c7.2.2 19.2.2 26.5 0 7.2-.1 1.3-.3-13.3-.3-14.6 0-20.5.2-13.2.3zM380.5 575c0 100.9.1 142.2.2 91.7.2-50.4.2-133 0-183.5-.1-50.4-.2-9.1-.2 91.8zm-67.1 170.5c0 9.3.2 13.3.3 8.8.2-4.5.2-12.2 0-17-.1-4.8-.3-1.2-.3 8.2z" stroke-width="3" fill="#994C00" stroke="#994C00"/><path d="M121.6 185.2c-2.1 2.9-2 4 .5 7.2 2.6 3.3 6.9 3.5 9.5.3 1.9-2.2 1.9-2.2-.2-.5-3.1 2.7-7 2.3-9.1-.8-1.6-2.5-1.6-2.8 0-5.5 1.9-3.4 1.5-3.8-.7-.7zm47.4 64.5c-9 .7-8.8.5-9.2 8.3-.2 3.9 0 7 .5 7 .4 0 .7-2.9.7-6.4 0-7.3.3-7.6 8.5-7.6 3 0 5.7-.5 6-1 .3-.6 0-.9-.7-.8-.7.1-3.3.3-5.8.5zm84 .2c.8.5 5.6 1.1 10.5 1.4 5.4.3 7.6.2 5.5-.3-5.3-1.2-17.7-2-16-1.1zm250 1c-2.5.3 13.7.6 36 .6s37.6-.3 34-.6c-8.2-.8-64-.8-70 0zm108.5 4c.6.4 4.4 1.1 8.5 1.4 4.8.3 6.2.2 4-.3-6.2-1.4-13.5-2.1-12.5-1.1zM85.9 278.7c-6.8 6-12.3 12.2-15.2 17.2-3 5.2-1 3.5 2.9-2.4 2-3 7.2-8.9 11.7-13 9.4-8.8 9.9-10.1.6-1.8zm265.1-3.8c0 .6.4 1.1.9 1.1s3.1 1.5 5.7 3.3c6.1 4.2 7.4 4.9 7.4 4.4 0-.4-9.9-7.5-12.7-9.1-.7-.4-1.3-.2-1.3.3zm69.2 5.4c-3.4 3.4-6.2 6.6-6.2 7 0 .4 2.9-2.3 6.5-5.9 3.6-3.7 6.4-6.8 6.2-7-.2-.2-3.1 2.5-6.5 5.9zm-298.6 4.6c2.3 2.5 20.4 2.6 20.4.1 0-.5-1.7-.4-3.7.2-3.8 1-12 .6-15.8-.8-1.5-.5-1.7-.4-.9.5zm-41.5 14.5c-1.1 1.9-1 2.7 0 4.5 1.7 2.6 7.4 3 8.3.5.9-2.4.7-3.1-.5-1.2-1.3 2.4-5.6 2.3-6.8 0-.7-1.4-.6-2.5.5-4 .8-1.2 1.1-2.2.6-2.2-.5 0-1.4 1.1-2.1 2.4zm646.4 10.5c-.5 1.8-6.1 7.6-13 13.6-2.3 2-2.5 2.4-.7 1.5 5-2.4 18.1-17 15.3-17-.5 0-1.2.9-1.6 1.9zm-582.3 2c-.8.4-1.5 2.8-1.7 5.2-.4 4.1-.4 4.1.3.9 1.1-4.7 1.9-6 4.1-6 3.2 0 4.4 2.6 3.6 7.6-.3 2.6-.9 5.4-1.2 6.3-.4 1.1-.3 1.3.5.6.6-.6 1.4-3.5 1.8-6.6.5-4.5.3-5.9-1.1-7.2-1.8-1.8-4.2-2.2-6.3-.8zm-6.6 14.8c-2.3 1.2-4.7 1.4-10.3 1-7.8-.6-10.3.4-10.3 4.3 0 2.2 3.6 5 6.5 5 1.5-.1 1.1-.5-1.3-1.5-3.8-1.7-5-4.1-3-6.1 1.1-1.2 2.6-1.3 6.9-.7 7 1 9.8.7 12.9-1.7 3-2.4 2.5-2.5-1.4-.3zm514.7 17.2c-2.8.4-5.5 1-5.9 1.3-.8.9 8.8-.1 13.1-1.2 2.7-.7 2.7-.8.5-.8-1.4.1-4.8.4-7.7.7zM129 349.2c10.6.8 35 .7 49.5-.1 6.5-.3-3.3-.6-23.5-.6-19 0-30.7.3-26 .7zm260.5 7.5c-.3 3.8-.8 8.1-1.1 9.8-.3 2.1-.2 2.5.4 1.5 1-1.6 2.7-18 1.8-18-.2 0-.7 3-1.1 6.7zm71.9-1.7c-3.9 4.1-6.3 7.7-6.4 9.5 0 .5.9-.6 2.1-2.5 1.2-1.9 3.7-5.2 5.7-7.3 2-2 3.3-3.7 3-3.7-.4 0-2.3 1.8-4.4 4zm-147.8 10.5c.5 1.2 1 86.3 1.1 201.4.1 109.6.4 199.6.7 199.9.4.3.5-89.7.4-200.1-.3-170.2-.5-200.8-1.7-201.9-1.2-1.1-1.3-1-.5.7zm139.7 2.7c-.4.7-.8 84.8-.8 186.8v185.5L453 555c.3-102 .9-186.1 1.3-186.8.5-.6.6-1.2.3-1.2s-.8.6-1.3 1.2zm-74.7 16.4c-.3.9-.6 85.6-.6 188.3 0 184.2 0 186.8 2 188.6 2.1 1.9 7 1.4 7-.7 0-.9-.3-.9-1.2 0-1.8 1.8-4.6 1.4-5.8-.8-.7-1.3-.9-59.8-.8-189.5.2-103.1.2-187.5.2-187.5-.1 0-.5.7-.8 1.6zm8.9 187.9c0 102.8.1 144.8.2 93.2.2-51.6.2-135.8 0-187-.1-51.3-.2-9.1-.2 93.8zm34.9 259.8c-4 4-9 8.2-11.3 9.2-2.2 1.1-4.1 2.4-4.1 2.8 0 1.1 7.5-3.5 12.5-7.7 3.6-2.9 11.4-11.7 10.3-11.6-.1.1-3.5 3.3-7.4 7.3z" stroke-width="3" fill="#F60" stroke="#F60"/><path d="M125.2 183.1c-1.2.5-2.7 2-3.3 3.3-2.6 5.7 5.3 10.3 9.6 5.6 1.4-1.6 1.6-2.6.9-5.1-1-3.6-3.8-5-7.2-3.8zm61.8 65.6c-5.8.2-10.9.8-11.4 1.3-.6.6-3.3 1-6.2 1-8.1 0-8.4.3-8.4 7.6 0 3.5-.4 6.4-.9 6.4s-1.2 1.6-1.6 3.6c-.8 4.3-8.1 12.6-12.8 14.5-1.8.7-3.5 1.8-3.9 2.3-.4.6-4.3 1.1-9 1.1-6.5 0-9.3-.5-12.9-2.2-5.7-2.7-11.6-8.3-13.5-12.8-.7-1.8-1.8-3.6-2.2-3.9-1.4-.9-12.7 7-20.1 14-11.9 11.1-19.9 25-20.8 35.6-.5 5.6-.2 7.2 1.6 10.1 4.1 6.7 13.9 12.6 26.6 15.8 16.9 4.4 26.7 5.1 66 4.8 20.4-.2 60-.3 88-.3l51-.1 4.7 2.7c5.9 3.4 7.9 5.4 11.5 11.5l2.8 4.8.6 205.5c.4 144.4.9 206.8 1.7 210 5.4 22.4 6.2 24.5 12.9 37.5 2.7 5.2 9.7 14.3 12.1 15.9.8.4 2.4 1.8 3.5 3 2.1 2 3.7 3.1 9.7 6.2 1.4.7 4.8 1.8 7.5 2.5 2.8.6 5.8 1.5 6.7 2 2.3 1.2 19.3 1.2 21.6 0 .9-.5 4.7-1.7 8.5-2.6 3.7-1 6.7-2 6.7-2.4 0-.3 1.8-1.5 4-2.5 5.2-2.5 16-13.1 20.3-19.8 4.4-7.1 9.2-17.3 10.7-22.8.7-2.5 1.6-5 2-5.5.5-.6 1.6-4.8 2.5-9.5.9-4.7 1.8-9.4 2.1-10.5 2.4-8.6 2.7-25.2 3.3-208.5.4-146.2.9-196 1.8-197.5.6-1.1 1.6-3.4 2.3-5 1.4-3.9 5.8-8.7 11.1-12.2l4.3-2.8 86.5-.6c60.3-.4 87.5-.9 89.6-1.7 1.7-.6 8.4-1.9 15-2.8 6.6-.9 12.7-2.1 13.5-2.5.8-.5 4.2-1.5 7.5-2.4 9.7-2.6 24-9.5 30.9-14.9 5.4-4.3 11.5-10.6 12.2-12.8.3-1 .9-1.8 1.4-1.8 1.3 0 2.3-6.4 1.5-9.8-1-4.7-10.1-13.4-18.8-18.1-4.3-2.2-8.5-4.1-9.3-4.1-.8 0-1.4-.4-1.4-.8s-2.8-1.6-6.2-2.6c-3.5-.9-7.6-2.3-9.3-3.1-1.6-.7-5.7-1.8-9-2.5s-6.4-1.6-7-2c-.5-.4-5.7-1.5-11.5-2.5s-10.9-2.1-11.5-2.5c-.5-.4-8-1.6-16.5-2.5-8.5-.9-16.4-2.1-17.5-2.6-11-4.6-129.9-4.5-136 .1-.5.4-4.1 1.3-8 1.9-3.8.7-8.3 1.8-10 2.6-1.6.7-4.8 1.9-7 2.6-13.2 4.1-31.8 18.4-39.8 30.6-3.7 5.8-8.7 15.1-8.7 16.4 0 .5-.8 2.7-1.9 4.9-1 2.1-2.6 7.2-3.5 11.2-1 4-2.1 8-2.6 9-.5.9-1.6 8.1-2.5 16-.9 7.8-2 15.7-2.6 17.4-.5 1.8-.9 78.2-.9 196.5 0 106.4-.3 194.4-.6 195.7-.9 3-4.9 4-7.4 1.7-2-1.8-2-4-1.6-189.4.4-209.3.5-213 7.1-242.1 1.1-4.7 1.5-9.5 1.2-12.8-.6-5.2-4.9-15.2-8.5-19.2-6.6-7.5-13.7-14.1-19.3-17.7-3.5-2.4-6.8-4.6-7.4-5-.5-.5-3-1.7-5.5-2.8-2.5-1.1-4.7-2.2-5-2.6-.3-.3-3-1.4-6-2.4s-6-2.1-6.5-2.6c-.6-.4-4.2-1.5-8-2.5-3.9-.9-7.4-2-8-2.4-.5-.4-5.3-1.5-10.5-2.4-5.2-1-10.2-2.1-11.1-2.6-.9-.5-9-1.6-18-2.5-9-.9-17.7-2-19.4-2.5-3.4-1-50.4-1.9-66.5-1.3zm-98.4 50.7c1 4.3-.4 6.6-3.9 6.6-4.3 0-6.5-3.2-4.6-6.6 1.8-3.5 7.6-3.4 8.5 0zm61.9 13.3c1.4 1.3 1.6 2.8 1.1 7-1.5 12.6-10.9 19.4-24.6 17.8-6.4-.8-10-2.7-10-5.5 0-3.8 2.5-4.9 10.3-4.3 5.7.4 8 .2 10.5-1.1 1.8-.9 3.2-1.8 3.2-1.9.1-3.5 2.3-12.3 3.2-12.9 2.1-1.3 4.5-.9 6.3.9z" stroke-width="3" fill="#FF7F00" stroke="#FF7F00"/><path d="M307.3 382c0 4.7.2 6.6.4 4.2.2-2.3.2-6.1 0-8.5-.2-2.3-.4-.4-.4 4.3zm.1 28c0 5.8.1 8.1.3 5.2.2-2.8.2-7.6 0-10.5-.2-2.8-.3-.5-.3 5.3zm-.4 32.7c-.3 7.8-.1 13.9.3 13.4.4-.4.6-6.8.5-14.2l-.3-13.4-.5 14.2zm.4 33.3c0 5.2.1 7.4.3 4.7.2-2.6.2-6.8 0-9.5-.2-2.6-.3-.4-.3 4.8zm0 32.5c0 8.2.2 11.5.3 7.2.2-4.3.2-11 0-15-.1-4-.3-.5-.3 7.8zm0 33.5c0 5.2.1 7.4.3 4.7.2-2.6.2-6.8 0-9.5-.2-2.6-.3-.4-.3 4.8zm0 32.5c0 8.8.2 12.3.3 7.7.2-4.6.2-11.8 0-16-.1-4.2-.3-.5-.3 8.3zm0 33c0 4.9.1 7.1.3 4.8.2-2.3.2-6.4 0-9-.2-2.6-.3-.8-.3 4.2zm0 30c0 7.1.1 9.9.3 6.2.2-3.7.2-9.6 0-13-.2-3.4-.3-.4-.3 6.8zm0 32.5c0 6.3.1 8.9.3 5.7.2-3.1.2-8.3 0-11.5-.2-3.1-.3-.5-.3 5.8zm0 31c0 6.3.1 8.9.3 5.7.2-3.1.2-8.3 0-11.5-.2-3.1-.3-.5-.3 5.8z" stroke-width="3" fill="#E5CCB2" stroke="#E5CCB2"/><path d="M231.8 353.7c10.5.2 27.9.2 38.5 0 10.5-.1 1.9-.2-19.3-.2s-29.8.1-19.2.2zm267.5 0c5.4.2 13.9.2 19 0 5.1-.1.7-.3-9.8-.3-10.4 0-14.6.2-9.2.3zm41 0c3.7.2 9.6.2 13 0 3.4-.2.4-.3-6.8-.3-7.1 0-9.9.1-6.2.3zm29.2 0c12 .7 26.3.7 25.8 0-.2-.4-7.3-.6-15.6-.5-8.4.1-12.9.3-10.2.5zm32.2 0c-.3.5 2.5.7 6.1.5 11.6-.5 13-.9 3.5-1-5-.1-9.4.1-9.6.5zm-293.3 28.8c0 4.9.1 7.1.3 4.8.2-2.3.2-6.4 0-9-.2-2.6-.3-.8-.3 4.2zm0 28c0 6 .1 8.4.3 5.2.2-3.2.2-8.1 0-11-.2-2.9-.3-.3-.3 5.8zm0 33c0 8.2.2 11.5.3 7.2.2-4.3.2-11 0-15-.1-4-.3-.5-.3 7.8zm0 33c0 6 .1 8.4.3 5.2.2-3.2.2-8.1 0-11-.2-2.9-.3-.3-.3 5.8zm0 32.5c0 8.5.2 12 .3 7.7.2-4.2.2-11.2 0-15.5-.1-4.2-.3-.7-.3 7.8zm0 33.5c0 5.5.1 7.6.3 4.7.2-2.9.2-7.4 0-10-.2-2.6-.3-.2-.3 5.3zm0 32.5c0 9.1.2 12.8.3 8.2.2-4.5.2-11.9 0-16.5-.1-4.5-.3-.8-.3 8.3zm0 33c0 5.2.1 7.4.3 4.7.2-2.6.2-6.8 0-9.5-.2-2.6-.3-.4-.3 4.8zm0 30c0 7.4.1 10.5.3 6.7.2-3.7.2-9.7 0-13.5-.2-3.7-.3-.6-.3 6.8zm0 33c0 6.9.1 9.7.3 6.2.2-3.4.2-9 0-12.5-.2-3.4-.3-.6-.3 6.3zm0 31c0 6.9.1 9.7.3 6.2.2-3.4.2-9 0-12.5-.2-3.4-.3-.6-.3 6.3z" stroke-width="3" fill="#994C19" stroke="#994C19"/><path d="M123.8 248.9c2.6 2.2 2.9 5.3.6 7.2-1.2 1-2 1-3.5.1-2.5-1.6-2.4-.1.1 2.1 4.4 3.7 11 .6 11-5.2 0-4-2.4-6.1-6.8-6.1l-3.7.1 2.3 1.8z" fill="#331900" stroke="#331900" stroke-width="3"/><path d="M312.4 1137c0 5.2.1 7.4.3 4.7.2-2.6.2-6.8 0-9.5-.2-2.6-.3-.4-.3 4.8z" fill="#CCE5CC" stroke="#CCE5CC" stroke-width="3"/><path d="M214.3 1091.7c8.2.2 21.2.2 29 0 7.8-.1 1.2-.3-14.8-.3-15.9 0-22.3.2-14.2.3z" fill="#99B27F" stroke="#99B27F" stroke-width="3"/><path d="M196.2 1093.6c-2.8 2-2.8 5.5.1 8.2 2 1.9 3.6 2.2 14.2 2.4l12 .3-.4 30.6-.4 30.7 2.6 1.6c2.9 2 6.7 1.4 9.2-1.4 1.5-1.7 1.8-5.5 2.2-30.2.3-15.6 1-29.1 1.5-30.1.7-1.4 2.4-1.7 11.4-1.7 9.8 0 10.7-.2 12.9-2.4 2.1-2.1 2.3-2.8 1.4-5.4-.6-1.7-2-3.3-3.2-3.6-1.2-.3-15.5-.6-31.7-.6-25.1 0-29.9.2-31.8 1.6zm-138.2 12c-.6 1.4-1 7.1-1 12.6 0 9.9 0 10-2.2 9.3-4.6-1.4-12.7-1.7-16.1-.6-5.1 1.7-9.3 5.8-11.7 11.4-7.1 16.9 6.7 33.5 23.7 28.5 3-.9 5.7-1.2 6.5-.7 2 1.3 6.4 1.1 7.6-.4.5-.7 1.3-13.6 1.7-30.5.8-31.8.7-32.2-4.6-32.2-2.2 0-3.2.6-3.9 2.6zm-7.9 28.8c6.1 2.6 7.3 4.7 6.6 12.3-.3 3.8-.9 7.6-1.2 8.5-1.5 3.9-13.5 4.9-17.4 1.4-2.6-2.4-4.2-8.5-3.2-12.6 1.5-6 2.3-7.2 6.5-9.1 5-2.2 4.6-2.2 8.7-.5zm469.1-30.2c-.6.7-1.4 6.4-1.8 12.6-.7 11-.8 11.3-2.8 10.7-3.6-1.3-10.5-1.7-14.2-1-4.8.8-12.1 7.6-13.4 12.4-1.3 4.7-1.3 13.2.1 16.8 3.4 9 14.3 13.9 24 11 2.8-.9 5.3-1.1 6-.6.8.5 2.9.9 4.6.9 2.6 0 3.4-.5 3.8-2.3.3-1.2.7-15.5.8-31.7l.2-29.5-3.1-.3c-1.7-.2-3.6.3-4.2 1zm-5.7 31.7c2.9 1.7 3 1.9 3.3 10.4l.3 8.7-3.3 2c-6.2 3.7-14.6 2.2-17.4-3.1-2.1-4.2-1.5-13 1.2-16 4.4-4.9 9.7-5.6 15.9-2zm41.7-31.2c-5 2.4-7.9 6.6-9.2 13-1.6 8.4-1.5 8.3-5.9 8.3-9.5 0-9.2 8.4.4 9.2l4 .3-.4 15c-.3 12.8-.1 15.2 1.2 16.4 1.9 1.5 4.7 1.1 5.8-.9.5-.8 1.1-8.1 1.5-16.3l.6-14.7h5.4c7.2 0 10.4-1.6 10.4-5.1 0-3.3-1.4-3.9-9.1-3.9H554v-3.5c0-6.9 3.5-10.5 10.3-10.5 1.8 0 3.8-.5 4.5-1.2 1.8-1.8 1.4-5.6-.7-6.8-2.9-1.5-9.1-1.2-12.9.7zm113.8-.7c-1.3.8-1.6 5.7-2.1 30.2-.3 16.1-.2 30.1.3 31 1 2.1 6.1 2.4 7.5.5 1.6-1.9 2.7-59.5 1.2-61.3-1.3-1.6-4.7-1.8-6.9-.4zm-36.7 1.9c-2.7 1.3-5.1 3.4-6.8 6.1-2.3 3.7-2.8 5.8-3.6 17.4-.5 7.2-.8 19.6-.7 27.6l.3 14.5 2.5.3c5.1.5 5.2.2 5.9-25.9.7-24.4 1.1-26.7 4.7-30.3 1.8-1.9 7.5-2.1 9.2-.4 2.8 2.8 1.4 7.5-3.8 13-2.7 2.9-5 6-5 6.8 0 .8 2.6 3.8 5.7 6.6l5.7 5.1.1 5.9v5.9l-3.5-.1c-1.9-.1-4.4-.5-5.6-.8-2.3-.8-5.4 1.5-5.4 4.1 0 .8 1.4 2.8 3.1 4.4 6 5.6 17.4 2.9 19.9-4.7 2-6.1.4-15.6-3.6-21.6l-3.5-5.1 3.1-4.9c5.6-9.1 3.5-20-4.6-24-4.8-2.3-8.8-2.3-14.1.1zm-49.7 8.7c-3.4 3.3-1.2 7.4 3.9 7.4 1.7 0 3.6-.5 4.3-1.2 2.8-2.8.1-7.8-4.3-7.8-1.3 0-3.1.7-3.9 1.6zm20.4.4c-3.5 3.5-1.9 7 3.1 7 4.5 0 5.9-1 5.9-4.1 0-4.7-5.4-6.5-9-2.9zm-479.4 9.5c-1.4 1.4-1.6 4.5-1.6 22.1v20.5l4.3-.3 4.2-.3.5-13.1c.6-14.6 1.1-15.9 6.9-17.1 4.2-.8 6.5-.6 10.4.9 2.3.9 3.1.7 4.8-.8 2.6-2.3 2.1-5.2-1.4-7.8-2.4-1.7-4.3-2.1-11.3-2.1-5.4 0-8.7-.4-9.2-1.2-1.3-2.1-5.8-2.6-7.6-.8zm322 0c-2.3 2.4-2.7 6.5-2.4 25l.3 17 3 .3c4.6.6 5.5-1.7 5.5-13.8 0-11.9.9-14.2 6.6-16.6 4.7-2 8-1.7 10.4.8 1.8 2 2 3.5 2 15.3 0 13.5.5 15.5 4.1 15.5 4.2 0 4.9-2.4 4.9-17 0-14.9-.4-17.1-4.3-21.2-3-3.2-11.1-4.6-17.4-2.9-3.9 1.1-4.4 1-6.7-1.4-2.9-2.9-3.9-3.1-6-1zm290.7-.7c-1.3.8-3.9 36.7-2.9 40.7.5 2 1.3 2.5 3.9 2.5 1.7 0 3.7-.4 4.3-.8.7-.4 1.5-6 2-14.2l.9-13.5 2.8-1.3c3.6-1.7 8.9-1.8 12.8-.2 3.7 1.6 5.9 0 5.9-4.1 0-4.6-3.8-6.4-13.5-6.4-6 0-8.6-.5-10.5-1.8-2.7-1.9-3.9-2.1-5.7-.9zm-367.7 2c-2.6 1-6.1 3.2-7.7 5-2.4 2.7-2.9 4.1-2.9 8.6 0 4.8.3 5.7 2.8 7.4 1.5 1.1 5.7 2.6 9.2 3.2 7.4 1.3 9 2.3 9 5.5 0 3.7-7.4 4.7-15 2-5-1.8-8-.7-8 3 0 4.7 5.8 7.5 15.5 7.5 11.3 0 17.5-4.6 17.5-12.8 0-3.5-.6-4.8-3.9-8.1-2.7-2.7-5.2-4.2-7.8-4.6-8.8-1.6-9.8-2-9.8-4.6 0-1.9.8-2.7 4.3-3.9 3.5-1.2 4.7-1.2 7.5-.1 5.4 2.2 8.2 2.4 9.7.7 3-3.7-3.6-9.4-11.9-10.2-2-.2-5.8.4-8.5 1.4zm-280.9.6c-5.6 1.5-7.8 3.3-11.4 9.5-2.3 3.8-2.7 5.8-2.7 11.6 0 6 .4 7.6 2.8 11.2 4 5.9 9.3 8.3 18.7 8.3 12.2-.1 19.2-4.6 17.5-11.4-.8-3.2-2.5-3.3-5.7-.5-1.3 1.2-3.4 2.5-4.7 3-3.5 1.3-10.8 1.1-14.6-.5-3.5-1.5-7.1-5.6-5.8-6.7.7-.6 14.6-3.3 23.5-4.5 5.6-.8 7.2-2.8 6.4-8.7-.8-5.6-5.6-10.3-11.9-11.6-5.9-1.3-6-1.3-12.1.3zM99 1134c5.2 2.7 5.1 4.6-.2 5.4-2.4.3-6.7 1-9.6 1.4-2.9.5-5.5.5-5.8 0-1.4-2.3 5.8-8.8 9.9-8.8 1 0 3.6.9 5.7 2zm215.9-6.9c-2 2-2.1 2.9-1.7 15.8.4 12.7.6 13.9 3.1 17.8 3.1 4.9 6.2 5.9 16.1 5.1 5.4-.5 6.4-.3 7.5 1.4.8 1.4 2.1 1.8 4.3 1.6 4.3-.4 4.6-2 4.9-23.9.3-19 .1-19.8-4.3-19.9-3.6 0-4.6 2.6-5.3 15-.9 14.6-2.1 17-9 17-6.6 0-7.5-2.1-7.5-17.3 0-12.7-.6-14.7-4.2-14.7-1 0-2.7.9-3.9 2.1zm97.6-1.5c-8.4 2-13.7 7.4-15.6 16.1-2.4 10.8 1.6 20.3 10 23.9 3.9 1.6 15 1.8 20.2.4 7.2-2 11.2-9.5 6.7-12.4-1.4-.8-2.3-.5-4.7 1.8-3.2 3.1-9.3 4.3-15.5 3.2-3.7-.7-9.6-5-9.6-7 0-1 8.8-2.9 23.5-5.1 6-.9 7-1.9 7-6.7 0-4.9-3.1-10-7.3-12.2-3-1.5-11.6-2.7-14.7-2zm9.6 8.5c4.8 2.4 4.6 4.2-.7 5.1-2.1.3-6.3 1-9.2 1.6-5.5 1-6.7.4-5.8-2.6.7-2.1 7.2-6.1 9.9-6.2 1 0 3.6.9 5.8 2.1zm158.5-7.8c-2.7 2-3.5 21-1.2 28.8 2.8 9.7 5.9 11.5 17.8 10.7 6-.5 7.1-.3 8.1 1.3 1.3 2.2 5.9 2.5 7.5.6.5-.6 1.2-9.9 1.4-21 .4-18.7.3-19.9-1.5-20.8-1-.6-2.9-.8-4.2-.5-2.6.7-3.5 5.1-3.5 17.4 0 6.5-.3 8-2.6 10.9-2.2 2.9-3.1 3.3-6.9 3.3-6.3 0-7-1.7-7-16.6 0-8.8-.4-12.5-1.4-13.7-1.6-2-4.1-2.2-6.5-.4zm118.9.1c-3.6 1-5.9 2.5-8.2 5.3-4.4 5.2-5.6 9.1-5.1 17.7.3 6.3.7 7.7 3.3 10.9 4 4.8 9 6.7 17.6 6.7 11.1 0 17.9-3.7 17.9-9.7 0-4.2-2.3-5.3-5.3-2.5-4.6 4.3-13.6 5.5-20.2 2.8-3-1.3-5.5-4.1-5.5-6.3 0-.8 10.6-3 23-4.9 5.9-.8 7-1.9 7-6.7 0-10.6-11.6-16.8-24.5-13.3zm12.9 8.1c3.8 2.5 3.2 4.2-1.6 4.8-2.4.3-6.7 1-9.6 1.5-5.8.9-6.9.3-5.2-2.8 3-5.6 10.7-7.2 16.4-3.5zm-431.3-6.7c-2.8 1.1-5.9 3.5-8.5 6.6l-4.1 4.8v9.7c0 9.1.2 10 2.7 13.4 3.9 5.1 11.5 6.8 20.1 4.5 5.4-1.4 6.4-1.4 8.3-.1 1.3.8 3.3 1.3 4.6 1.1 2.6-.3 2.9-3.1.8-10.8-.8-3.1-1-8.4-.5-16.7.7-11.5.6-12.2-1.3-13.2-3.2-1.7-17-1.2-22.1.7zm13.1 5.7c1.2.5 1.3 4.6.8 23.5 0 1.5-6.3 4-9.7 4-6 0-8.8-3.5-8.8-10.8 0-11 9.4-19.9 17.7-16.7z" stroke-width="3" fill="#667F4C" stroke="#667F4C"/><path d="M527.4 1120c0 5.8.1 8.1.3 5.2.2-2.8.2-7.6 0-10.5-.2-2.8-.3-.5-.3 5.3z" fill="#7F9966" stroke="#7F9966" stroke-width="3"/></svg>