<svg version="1.0" xmlns="http://www.w3.org/2000/svg" viewBox="0 0 783 1259"><g fill="#FFF" stroke="#FFF" stroke-width="3"><path d="M0 629.5V1259h783V0H0v629.5zm158.1-499.1c5.2 1.4 13.3 5.2 22.4 10.7 6.7 3.9 36.2 24.1 41.6 28.3 1.5 1.2 6.2 4.6 10.4 7.6 24.5 17.3 52.1 42.6 63.7 58.1 13.2 17.7 21.1 37.6 25.8 64.9 3.3 19.4 4.1 26.4 5 47 1.9 40 .6 181.6-2 223-.5 9.1-1.1 21.9-1.3 28.6l-.2 12.1 3-1c10.3-3.3 33.6-7.7 41-7.7 2.8 0 5.7-.4 6.5-1 1.2-.8 1.2-1.1-.3-2.7-4.1-4.6-6.2-15.4-3.5-18.1 2.9-2.9 8.4-.5 15.9 7.2l4.6 4.7 5.9-4.9c10.7-8.7 15.7-10.8 18.8-7.6 3.6 3.6.9 12.6-5.6 18.6l-4.1 3.8h2.9c4.4 0 30.2 4.9 36.4 7 3 1 5.6 1.8 5.7 1.7 0-.1-.5-19.3-1.3-42.7-3-93.3-3.8-152.5-2.6-192.5 1.7-53 2.8-64.5 8-87.5 3.8-16.6 10.7-33.8 18.5-45.7 11.3-17.4 32.3-38.2 57.7-57.1 25.2-18.8 30.1-22.3 45-32.4 28.9-19.5 41.8-25.4 50.2-22.9 4.9 1.5 6.2 4 5.5 11.3-.5 5.7-6.2 19-12.6 29.3-9.2 15-14.3 22.8-15.8 24.3-.7.7-1.3 1.7-1.3 2.1 0 1.2-19.7 28.1-33.2 45.4-8 10.3-10.7 14.6-7.5 11.9 1.1-1 4.2-2.3 17-7.2 2.8-1.2 6.6-2.7 8.2-3.4 1.7-.8 8.2-3.1 14.5-5.1 6.3-2.1 12.4-4.2 13.5-4.6 2.2-1 15.7-4.2 27-6.5 10.2-2 37.9-3 44.1-1.5 10.2 2.5 13.2 9.5 7.9 18.6-2.5 4.1-13.3 15.1-20.5 20.7-11.5 8.9-29.3 21.2-44.5 30.6-2.2 1.4-5.1 3.3-6.5 4.2-1.4 1-4.5 2.7-6.8 3.9-2.3 1.2-4.2 2.2-4.2 2.4 0 .1 5.6 0 12.4-.2 25.7-.7 52 4.8 71.3 14.8 9.7 5.1 12.3 8.2 12.3 14.7 0 6.9-8.6 12.6-28 18.4-5.2 1.6-13.1 3.5-17.5 4.4-4.4.8-10.8 2.1-14.3 2.9l-6.2 1.3 3.2 1.1c1.8.7 6.2 1.9 9.8 2.8 3.6.9 7.4 2 8.5 2.4 1.1.5 6.3 2.4 11.5 4.1 16.9 5.8 29.2 12.7 32.4 18.2 4.1 6.9.7 13.7-9.2 18.1-6.4 2.9-27.5 6.6-38.6 6.8-3.3.1-7.4.4-8.9.8l-2.9.6 2 2.5c3.2 4.2 4.5 9.5 3.2 13.4-1.1 3.3-5.5 7.5-9.4 8.9-3.6 1.4-21.7 3.7-28.5 3.7h-7l-.4 127.7c-.3 111.1-.6 128.7-1.9 134.8-.9 3.8-2.1 10.1-2.7 14-1.7 10-9 34.2-12.7 41.5-.6 1.4-3.1 6.3-5.4 11-9.2 18.7-22 36.8-36.2 51.1-2.3 2.4-6 6.6-8 9.4-7.4 9.7-24.4 25.7-35.6 33.4l-3.3 2.3 2.5 2.7c3.8 4 6.8 13.4 6.9 21.6.1 14.6-6.7 27-15 27-4.4 0-8.7-2.7-10.5-6.7-1.6-3.5-1.9-3.5-4 .1-4.8 8.5-15.8 8.5-20.6.1l-1.6-2.8-4.2 4.6c-3.6 4.1-4.6 4.7-8.2 4.7-3.2 0-4.8-.7-7.2-3-3.9-3.7-6.9-9.7-7.7-15.2-.5-3.7-.8-4.2-2.7-3.8-12.7 3-44.7 4.2-64 2.6-7.6-.7-14.4-1.5-15.1-1.7-.8-.3-1.6 1.4-2.3 5-1.2 6-4.8 12.5-8.4 15-1.2.9-4 1.6-6.2 1.6-3.4 0-4.6-.7-8.2-4.4l-4.2-4.5-2.3 3.4c-5.1 7.4-13.9 7.5-18.9.2l-2.4-3.5-4.1 4.4c-3.6 3.8-4.7 4.4-8.2 4.4-3 0-5-.7-7.3-2.6-4.2-3.6-5.9-7.2-7.5-16.3-1.1-6.5-1.1-8.8 0-14.7 1.7-8.6 2.3-10.3 4.8-13.2 1.3-1.3 1.7-2.6 1.1-3.1-.5-.4-5.2-3.9-10.4-7.8-10.6-7.9-24.3-21-31-29.9-2.4-3.3-8.4-10-13.2-14.9-10.3-10.5-18-20.6-24.8-32.5-6.3-11.1-12.7-24.9-15-32.5-.6-2.2-1.5-4.9-2-6-.5-1.1-1.6-4.9-2.5-8.5-.8-3.6-2.2-8.8-3-11.5-.8-2.8-2.1-10.5-3-17.3-.8-6.8-1.7-12.7-2-13.2-.3-.5-.6-57.7-.5-127V446h-7.2c-8.1 0-24.8-2.3-29.3-4-1.7-.6-4.5-2.5-6.3-4.3-4.3-4.1-4.5-10.2-.6-15.9 1.5-2.1 2.4-4.1 2.1-4.4-.3-.3-5.8-.9-12.4-1.4-25-1.9-38-5.2-44.5-11.5-8.2-7.7-2.8-16.7 14.8-25.1 9.8-4.6 33.2-12.7 40.1-13.9 2.4-.4 4.5-1.1 4.9-1.6.3-.5 1.5-.9 2.7-1 2.4-.1-6.4-2.2-18.3-4.4-19.2-3.5-35.7-9.6-42.1-15.6-4.2-3.8-4.9-5.1-4.9-8.2 0-3 .8-4.5 3.9-7.6C74.6 323.4 88 316 91.1 316c.8 0 2.8-.7 4.4-1.6 1.7-.9 6.8-2.5 11.5-3.6 4.7-1 10.5-2.4 13-3 2.5-.6 13.1-1.1 23.7-1.2 10.5 0 18.9-.4 18.6-.9-.2-.4-2.3-1.7-4.6-2.9-9-4.5-44-27.9-54.7-36.5-16.1-12.9-25-23.5-25-29.7 0-1.6 1.1-4.4 2.5-6.2 2-2.6 3.7-3.5 8.2-4.5 7.1-1.4 33.5-.5 43.8 1.5 22.3 4.5 33 7.6 56.5 16.6 8.6 3.2 9.8 3.7 20.3 8.4l5.9 2.6-3.7-4.8c-1.9-2.6-4.3-5.8-5.3-7.2-.9-1.4-4.1-5.7-7.2-9.5-3-3.9-7-9-8.8-11.5-1.8-2.5-5.5-7.4-8.1-11-13.4-18.2-29.1-43.3-34.1-54.5-1.7-3.9-3.6-7.8-4.2-8.9-.5-1-1.2-4.2-1.5-7-.7-7.2 2-10.5 9.2-11.5.6 0 3.6.5 6.6 1.3zm256.4 962.1c2.9 2.8 2.7 1.2 2.9 27 .1 19.2.2 20.2 2.6 24.9 7.2 14 24.8 12 29.4-3.4.4-1.4 1.1-11.8 1.4-23.2.6-18.8.9-20.9 2.8-23.5 1.5-2 3.1-2.9 5.7-3.1 8.6-.7 10 3.2 9.2 26-1.1 28-3.3 36.7-11.5 44.7-7.2 7-21.6 9.9-33.5 6.6-6.3-1.7-8.2-2.8-13.8-8.3-3.2-3-6.9-10.4-8.7-17-1.2-4.5-1.5-43.7-.3-46.9 2.2-6.4 9.3-8.4 13.8-3.8zm-142.9 11c1.5 2.3 1.6 5.5.9 31.8-.4 16.1-1.1 30-1.7 31-1.4 2.7-5.6 4-9 2.8-2-.7-4.4-.7-7.9.1-9.7 2.3-19.2-1.9-24.3-10.6-5.2-8.9-2.9-22.7 5.1-29.7 4.7-4.1 13.6-6.5 18.8-5.1 2.2.6 4.2.8 4.5.5.3-.2.7-4.9 1-10.2.6-11.4 1.5-13.1 7.1-13.1 3 0 4.2.5 5.5 2.5zm217.4.2c2 2.5 2.2 3.7 1.8 12l-.4 9.3 6.8-.7c8.7-.8 14.3 1.2 17.8 6.4 2.3 3.4 2.5 4.6 2.8 18.1.2 8 .1 15.5-.2 16.8-.4 1.3-2 3.1-3.8 4-2.6 1.4-3.4 1.4-5.5.3-3.7-2-4.3-4.7-4.3-18.4 0-11.4-.2-12.5-2-13.5-2.9-1.5-8.9-.2-10.5 2.4-.7 1.2-1.6 6.8-2 13.1-.7 11.9-1.9 14.9-6 15.9-2.5.6-6.3-.7-7.8-2.8-.4-.6-.5-14.6-.1-31.1.7-34 .8-34.5 7.4-34.5 3 0 4.3.6 6 2.7zm-154 19c1.9 1.3 4.1 1.7 9.1 1.4 11.3-.5 18.6 4.4 15.9 10.8-.6 1.6-2.1 3.8-3.2 4.8-1.9 1.7-2.1 1.7-5 0-3.5-2-9.7-2.2-12.2-.4-1.5 1.1-1.9 3.2-2.3 12.8-.2 6.3-.6 12.4-.9 13.6-.9 4.5-11.1 5.2-12.7.8-.7-1.7.1-37.4.9-41.3.8-3.9 6.4-5.3 10.4-2.5zm-29.5 1.4c8.3 2.3 14 11.5 11.8 19.2-1 3.6-3.4 4.6-16.3 6.7-4.1.7-8.8 1.6-10.5 2l-3 .7 3.5 2.2c5 3.2 13.4 2.6 18-1.2 5.4-4.6 10-2.7 10 4 0 4.2-4 8.5-9.8 10.4-5.6 1.9-15.9 1.7-21.4-.4-17.6-6.8-16.4-36.5 1.7-43.1 4.9-1.8 10.7-2 16-.5zm227.7.6c1.6 1.4 1.8 3.3 1.8 14 0 6.8.5 13.3 1 14.4.8 1.3 2.1 1.9 4.5 1.9 5.1 0 6.2-2.5 6.9-16.5.6-10.5.9-12.2 2.7-13.8 2.4-1.9 6.1-2.2 9-.7 1.8 1 1.9 2.3 1.9 21.8 0 23.8-.4 25.2-6.9 25.2-2 0-4.3-.6-5-1.3-.7-.7-4.2-1.2-8.9-1.3-9.2 0-13-1.7-16.3-7.1-2.1-3.5-2.4-5.2-2.7-18.9-.4-14.7-.3-15.2 1.9-17.3 2.7-2.5 7.5-2.7 10.1-.4z"/><path d="M452 702.1c-8 1.4-18.7 6.8-24.2 12.3-6.6 6.8-9.4 11.2-12.3 19.4-9.2 26.2 7.5 56.4 34.3 62.1 25.5 5.4 49.3-8.4 57.1-33.1 8.5-27-10.2-56.7-38.4-60.8-8-1.1-9-1.1-16.5.1zm17.9 24.7c1.9.9 5.3 3.9 7.5 6.5 3.8 4.6 4.1 5.3 4.4 12.3.4 6.5.1 7.9-2.1 11.7-7.6 12.9-24.6 15.5-35.1 5.3-3.5-3.4-4.7-5.5-5.6-9.8-.7-3.1-1-7.2-.6-9.2.6-3.3 1-3.6 4-3.6 4.7 0 7.9-3.6 7.4-8.6-.2-3.3.1-4 2.2-5.1 3.6-1.8 13.8-1.5 17.9.5zm-174.5-19.3c-19.9 5.4-34.3 24.6-34.4 45.6 0 18.8 10.3 35.5 27 43.8 17.6 8.8 40.3 4.9 54.5-9.4 22-22 17.8-57.9-8.9-75-9.5-6-26.2-8.2-38.2-5zm18.7 22.6c7.3 1.6 12.8 7.2 15.1 15.4 1.6 5.8 1.6 6.2-.5 12.4-1.8 5.2-3.1 7.2-7.1 10.5l-4.8 4.1h-8.7c-8.3 0-8.8-.1-12.9-3.3-2.3-1.9-5.4-5.3-6.8-7.7-2.1-3.6-2.5-5.4-2.2-10.7l.3-6.3 3.7-.3c5.2-.4 8.1-4.2 7.3-9.3-.7-3.7-.6-3.8 3.7-4.7 5.9-1.4 7-1.4 12.9-.1zM245 1137.2c-3.1 1.6-5.6 8.3-4.6 12.2 1.1 4.5 4.9 7.6 9.3 7.6 2.1 0 4.9-.7 6.1-1.6 1.9-1.3 2.2-2.4 2.2-8.8 0-5.2-.4-7.7-1.5-8.6-2.2-1.8-8.7-2.2-11.5-.8zm48.1-1.1c-1.8 1.1-3.1 2.3-2.7 2.6.3.3 3.3 0 6.7-.7 5.8-1.3 6-1.4 3.8-2.6-3.2-1.8-3.9-1.7-7.8.7z"/></g><path d="M446.4 451.5c0 5.5.1 7.6.3 4.7.2-2.9.2-7.4 0-10-.2-2.6-.3-.2-.3 5.3zm160 194.5c0 12.9.2 18.2.3 11.7.2-6.4.2-17 0-23.5-.1-6.4-.3-1.1-.3 11.8z" stroke-width="3" fill="#FFE5E5" stroke="#FFE5E5"/><path d="M606.5 509.5c0 35.2.1 49.5.2 31.7.2-17.8.2-46.6 0-64-.1-17.4-.2-2.9-.2 32.3z" fill="#E5CCCC" stroke="#E5CCCC" stroke-width="3"/><path d="M446.3 434c0 4.7.2 6.6.4 4.2.2-2.3.2-6.1 0-8.5-.2-2.3-.4-.4-.4 4.3zm160.1 174.5c0 8.2.2 11.5.3 7.2.2-4.3.2-11 0-15-.1-4-.3-.5-.3 7.8z" stroke-width="3" fill="#E5E5E5" stroke="#E5E5E5"/><path d="M606.4 583.5c0 6 .1 8.4.3 5.2.2-3.2.2-8.1 0-11-.2-2.9-.3-.3-.3 5.8zm-85 557.5c0 6.9.1 9.7.3 6.2.2-3.4.2-9 0-12.5-.2-3.4-.3-.6-.3 6.3z" stroke-width="3" fill="#E5E5CC" stroke="#E5E5CC"/><path d="M327.3 415c0 4.7.2 6.6.4 4.2.2-2.3.2-6.1 0-8.5-.2-2.3-.4-.4-.4 4.3z" fill="#CCB299" stroke="#CCB299" stroke-width="3"/><path d="M326.4 425.5c0 9.9.2 13.8.3 8.7.2-5.1.2-13.2 0-18-.1-4.8-.3-.6-.3 9.3z" fill="#99664C" stroke="#99664C" stroke-width="3"/><g fill="#994C33" stroke="#994C33" stroke-width="3"><path d="M251.5 200.6c1.1 1.1 5.4 4.9 9.5 8.3 6.4 5.4 6.7 5.5 2 1.1-5.4-5.1-15.4-13.2-11.5-9.4zm252.3 16.6c-10.9 10.7-11.1 11-1.9 2.4 5.8-5.5 11.7-11 13.1-12.3 1.3-1.2 2.2-2.3 1.9-2.3-.4 0-6.3 5.5-13.1 12.2zM91.7 232c-8.9 1.7-8.6 6.1 1.1 15.8 4.4 4.5 4.9 4.9 1.6 1.3-12.6-13.7-11.7-15.8 7-17.1 11.1-.7 11.1-.7 2.6-.7-4.7-.1-10.2.3-12.3.7zm575.1-.3c2.3.2 6.1.2 8.5 0 2.3-.2.4-.4-4.3-.4s-6.6.2-4.2.4zM315.2 302c0 .8.6 4.9 1.3 9 1.4 7.4 1.4 7.5.9 1.5-.4-5.6-2.2-13.9-2.2-10.5zm5.2 74.5c0 10.4.2 14.6.3 9.2.2-5.4.2-13.9 0-19-.1-5.1-.3-.7-.3 9.8zM453.5 421c0 20.6.1 29.1.2 18.7.2-10.3.2-27.1 0-37.5-.1-10.3-.2-1.8-.2 18.8zM75.6 392.9c-1.5 1.6-2.6 3.7-2.4 4.7.3 1.9 6.2 6.4 8.2 6.4.6 0-.7-1.1-2.9-2.3-5-2.8-5.5-5.1-1.9-8.8 1.5-1.6 2.5-2.9 2.3-2.9-.3 0-1.8 1.3-3.3 2.9zm245.8 16.6c0 5.5.1 7.6.3 4.7.2-2.9.2-7.4 0-10-.2-2.6-.3-.2-.3 5.3zm-185.6.2 11.3.4-2.3 2c-2.1 1.9-2 1.9 1-.1 1.7-1.2 3.2-2.3 3.2-2.6 0-.2-5.5-.3-12.2-.2l-12.3.2 11.3.3zm492.7 2.3c2.1 1.6 4.1 3 4.4 3 .3 0-.7-1.1-2.4-2.3l-3-2.2 11.5-.6 11.5-.5-12.9-.2-12.9-.2 3.8 3zm-308.1 42c0 13.5.2 19 .3 12.2.2-6.7.2-17.7 0-24.5-.1-6.7-.3-1.2-.3 12.3zm-165.1-15.3c3.7.2 9.7.2 13.5 0 3.7-.2.6-.3-6.8-.3-7.4 0-10.5.1-6.7.3zm444.2.5c-.3.7-.4 51.2-.3 112.3l.3 111 .3-111.7.2-111.7 13.3-.4 13.2-.3-13.3-.2c-9.9-.1-13.4.1-13.7 1zm-145.1 57.3c0 6.6.1 9.2.3 5.7.2-3.4.2-8.8 0-12-.2-3.1-.3-.3-.3 6.3zm-135 18.5c0 6.9.1 9.7.3 6.2.2-3.4.2-9 0-12.5-.2-3.4-.3-.6-.3 6.3zm136 26c0 6.3.1 8.9.3 5.7.2-3.1.2-8.3 0-11.5-.2-3.1-.3-.5-.3 5.8zm1 27.5c0 8.2.2 11.5.3 7.2.2-4.3.2-11 0-15-.1-4-.3-.5-.3 7.8zm-139 15.5c0 5.8.1 8.1.3 5.2.2-2.8.2-7.6 0-10.5-.2-2.8-.3-.5-.3 5.3zm140 9c0 5.2.1 7.4.3 4.7.2-2.6.2-6.8 0-9.5-.2-2.6-.3-.4-.3 4.8zm-141.1 12c0 4.7.2 6.6.4 4.2.2-2.3.2-6.1 0-8.5-.2-2.3-.4-.4-.4 4.3zm-94.7 18.7c-.8 4.9-.6 20.5.2 26.3.4 2.5.7-3 .7-12.7 0-9.5-.1-17.3-.1-17.3-.1 0-.4 1.7-.8 3.7zM542 629c-4.5 8.8-21.3 22.4-30.5 24.6-1.7.4-3.4 1-4 1.4-.5.5-5 1.6-10 2.5-4.9.9-9.9 2.1-11 2.6-1.1.5-5.4 1.6-9.5 2.4-4.1.9-8.4 2-9.5 2.5-1.1.5-4.4 1.6-7.4 2.5-7.4 2-13.3 4.9-21.4 10.3-5.8 3.9-10.2 8-9.4 8.8.4.4 9.2-2 9.7-2.7.6-.8 9.3-2.6 19.2-4.1 10.8-1.5 29.8-2.1 33.8-1 1.9.6 8.8 1.7 15.4 2.6 6.5.8 12.3 1.9 13 2.4.6.4 3.6 1.4 6.6 2.1 3 .7 6.9 1.9 8.5 2.6 9.7 4.1 9 4.1 15-.5 11.8-9.1 22.2-24.9 25.6-38.6.6-2.7 1.5-5.4 1.9-5.9.4-.6 1-3 1.4-5.5.5-4.1.5-4.3-.9-2.5-4 5.4-13.5 15.5-17.2 18.3-5.4 4.1-7.8 5-14.4 5.3l-5.4.3.3-3.4c.1-1.9.8-4 1.4-4.7 1.2-1.4 2.5-26.3 1.5-26.3-.4 0-1.6 1.8-2.7 4z"/><path d="M228.3 639.7c.3 7.1 1.3 15 2.1 17.8.9 2.7 1.6 5.3 1.6 5.7 0 1.6-8.6.7-12.8-1.3-5.6-2.7-15.4-11.9-20.7-19.3-2.2-3-4.3-5.6-4.7-5.6-2.6-.1 5.5 26.6 10.9 35.9 4.3 7.3 15.7 20 20.8 23.1l3.4 2.1 8.8-3.1c37-13.1 76.2-13.9 106.2-2l5.3 2.1-3.1-4c-10-12.7-26.1-19.4-70.2-29.5-13.7-3.2-21.3-6.6-29.4-13.2-7.3-5.8-8.5-7.2-13.6-15.2-2.3-3.4-4.3-6.2-4.6-6.2-.3 0-.3 5.7 0 12.7z"/></g><path d="M152.5 443.6c7.1.8 16.3.8 15.8.1-.2-.4-4.6-.6-9.6-.5-5.1 0-7.8.3-6.2.4zm458.8.1c2.6.2 6.8.2 9.5 0 2.6-.2.4-.3-4.8-.3s-7.4.1-4.7.3zM449.4 504c0 10.2.2 14.3.3 9.2.2-5 .2-13.4 0-18.5-.1-5-.3-.9-.3 9.3zm-126 54c0 5.8.1 8.1.3 5.2.2-2.8.2-7.6 0-10.5-.2-2.8-.3-.5-.3 5.3zm220.4 64.3c-.7 1.4-2.3 4.2-3.5 6.3-2.5 4.6-12 13.9-18.3 18.1-5.5 3.6-16 7.8-22 8.8-12.9 2.1-40.7 9.9-50.5 14.2-9.9 4.3-24.5 15.9-24.5 19.4 0 1.3.2 1.2 9.8-2 12.3-4.2 29.9-7.1 43.2-7.1 19 0 42.7 4.5 60.8 11.6 7.5 3 7.7 2.9 18-7 11-10.5 18-23.2 22.6-41 4.2-15.8 3.5-17.1-3.9-7.1-4.5 6.1-13.3 15-18 18.1-1.1.7-4.5 2-7.5 2.9l-5.5 1.5 5.2-.3c3.7-.3 6.5-1.2 9.3-3.2 4.3-3 13.3-11.9 17.1-17 1.2-1.7 2.6-3.5 3.1-4 1.1-1.2-.1 7.5-1.2 9-.4.5-1.3 3.2-1.9 5.9-3.4 13.7-13.8 29.5-25.6 38.6-6 4.6-5.3 4.6-15 .5-1.6-.7-5.5-1.9-8.5-2.6-3-.7-6-1.7-6.6-2.1-.7-.5-6.5-1.6-13-2.4-6.6-.9-13.5-2-15.4-2.6-4-1.1-23-.5-33.8 1-9.9 1.5-18.6 3.3-19.2 4.1-.5.7-9.3 3.1-9.7 2.7-.8-.8 3.6-4.9 9.4-8.8 8.1-5.4 14-8.3 21.4-10.3 3-.9 6.3-2 7.4-2.5 1.1-.5 5.4-1.6 9.5-2.5 4.1-.8 8.4-1.9 9.5-2.4 1.1-.5 6.1-1.7 11-2.6 5-.9 9.5-2 10-2.5.6-.4 2.3-1 4-1.4 9.2-2.2 26-15.8 30.5-24.6 1.1-2.2 2.3-4 2.7-4 1 0-.3 24.8-1.4 26.2-1.5 1.9-2.5 6.7-1.7 8 1.4 2.2 4.4-13 5-25.3.7-13-.1-16.4-2.8-11.6zM227.3 636c0 4.7.2 6.6.4 4.2.2-2.3.2-6.1 0-8.5-.2-2.3-.4-.4-.4 4.3z" stroke-width="3" fill="#7F4C33" stroke="#7F4C33"/><path d="M605.5 505.5c0 33 .1 46.4.2 29.7.2-16.7.2-43.7 0-60-.1-16.3-.2-2.7-.2 30.3z" fill="#B27F66" stroke="#B27F66" stroke-width="3"/><path d="M447.4 434.5c0 4.9.1 7.1.3 4.8.2-2.3.2-6.4 0-9-.2-2.6-.3-.8-.3 4.2zm158 195c0 14.3.2 20 .3 12.7.2-7.3.2-19 0-26-.1-7-.3-1-.3 13.3z" stroke-width="3" fill="#B2997F" stroke="#B2997F"/><path d="M327.4 434.5c0 6.6.1 9.2.3 5.7.2-3.4.2-8.8 0-12-.2-3.1-.3-.3-.3 6.3zM168.5 561c0 63.5.1 89.5.2 57.7.2-31.7.2-83.7 0-115.5-.1-31.7-.2-5.7-.2 57.8z" stroke-width="3" fill="#CCB2B2" stroke="#CCB2B2"/><path d="M605.4 672.5c0 5.5.1 7.6.3 4.7.2-2.9.2-7.4 0-10-.2-2.6-.3-.2-.3 5.3z" fill="#C99" stroke="#C99" stroke-width="3"/><path d="M605.4 584.5c0 11 .2 15.6.3 10.3.2-5.3.2-14.3 0-20-.1-5.7-.3-1.3-.3 9.7z" fill="#B27F7F" stroke="#B27F7F" stroke-width="3"/><g fill="#7F3319" stroke="#7F3319" stroke-width="3"><path d="M146.6 133.1c-2.1 1.6-2.6 2.9-2.6 6.4 0 2.4.4 4.6.9 4.9.5.3 1.2 1.8 1.6 3.3.7 2.9 7.6 17.4 8.6 18.3.3.3 1.4 2 2.3 3.7 1.5 2.9 5.3 9.1 7.3 11.8.5.6 1.7 2.6 2.7 4.5 1.1 1.9 2.8 4.4 3.8 5.4 1 1.1 1.8 2.5 1.8 3.2 0 .7.6 1.7 1.3 2.1.6.4 3 3.5 5.2 6.8 4 6.1 9.5 13.6 10.6 14.5.3.3 1.1 1.4 1.7 2.5.5 1.1 3.3 4.9 6.1 8.5 2.9 3.6 5.7 7.2 6.4 8 .7.9 3.2 4.2 5.7 7.5s4.7 6.2 5 6.5c.9.8 4 5.9 4 6.5 0 1.1-2.6.4-8.7-2.5-3.4-1.7-6.6-3-7.1-3-.4 0-2.3-.8-4.2-1.9-1.9-1-5.3-2.4-7.5-3.1-2.2-.7-4.4-1.6-5-2-.5-.4-3.7-1.5-7-2.5s-6.4-2.1-7-2.5c-.5-.4-4.1-1.5-8-2.5-3.8-1-7.4-2.1-8-2.5-.5-.4-5-1.5-10-2.4-4.9-1-9.9-2.1-11-2.6-5.8-2.6-40.2-4-47.6-2-4.7 1.3-7.1 4.1-7.1 8.3 0 4.8 2.5 9 9 15.6 6.9 6.8 24.5 21.1 26.1 21.1.6 0 1.1.4 1.1 1 0 .5 1.4 1.7 3.2 2.6 1.7.9 5.7 3.5 8.9 5.8 3.2 2.2 7.3 5 9.1 6.1 1.8 1.1 4.7 2.9 6.4 4 1.8 1.1 7.7 4.7 13.3 8 5.5 3.3 10.1 6.4 10.1 7 0 .6-8.1 1-22.4 1-14.8 0-23.1.4-24.7 1.2-1.3.6-6.4 1.8-11.4 2.8-4.9.9-9.4 2-10 2.5-.5.4-3.2 1.5-6 2.3-2.7.9-6.9 2.5-9.2 3.6-2.3 1.2-4.6 2.1-5.2 2.1-.5 0-3 2-5.5 4.5-6.2 6-6.2 8.9 0 14.4 2.5 2.2 6.2 4.5 8.2 5.2 2.1.6 4.8 1.8 6.2 2.5 4.1 2.1 32 8.7 47.8 11.1 3.7.6 4.5 3.3.9 3.3-1.3 0-2.7.4-3.2.9-.6.5-4.6 1.6-9 2.6-4.4.9-8.4 2-9 2.5-.5.4-3.9 1.5-7.5 2.5-3.6.9-6.9 2.1-7.5 2.5-.5.4-3.5 1.5-6.5 2.5s-5.7 2.1-6 2.4c-.3.4-2.5 1.5-5 2.6-5.3 2.3-6.1 2.9-11.1 7.8-7.1 6.8-4 13.3 8.6 18 8.2 3.1 16.4 4.4 33.5 5.2 15 .7 17 1.1 17 3 0 .8-.4 1.5-.8 1.5-.5 0-2.1 1.9-3.6 4.2-3.7 5.6-3.8 11-.5 13.9 5.6 5 10.5 6.2 26.9 6.8l15.5.6.6 122c.4 75.3 1 126.2 1.7 133 1.6 15.7 3.3 27.9 4.2 28.5.4.3 1.5 4.5 2.4 9.5 1 4.9 2.1 9.4 2.6 10 .4.5 1.6 3.9 2.6 7.5s2.1 6.7 2.4 7c.4.3 1.3 2.2 2 4.4 1.3 4.2 11.8 24.8 13 25.6.4.3 1.3 1.6 2 3 2 3.9 17 22.8 18.5 23.4 1 .3 1.2 0 .8-1.2-1.1-3.2-5.7-10.7-10.3-16.9-17.8-24.5-29.6-55.5-35.1-92.8-.9-5.7-1.3-44.9-1.6-137.6l-.4-129.6-16.7-.6c-17.8-.5-22.6-1.5-26.8-5.1-2.2-1.8-2.6-2.8-2-5 .7-2.8 8.5-11.3 14.5-15.7l3.5-2.6-20.3-.7c-23.9-.8-33.3-1.9-42.1-4.7-15.7-5.1-14.2-11.6 4.6-20.3 12.7-6 39.8-14.3 59.2-18.3 7.9-1.6 8.2-1.8 8.2-4.5 0-1.5-.3-2.8-.7-2.8-1.3 0-18.1-2.8-30.6-5-27.6-4.9-47.4-11.9-50.7-18-2.9-5.5 19.8-16.4 42.5-20.5 23.3-4.2 36-4.3 57.4-.3 9.5 1.7 11.5 1.8 12.2.7 1.6-2.5 1-3.4-4.4-6.3-7.3-4.1-34.4-20.4-39.2-23.6-2.2-1.5-7.6-5.1-12-8-26.8-17.8-45.5-34.7-45.5-41.1 0-.9.9-2.4 2.1-3.5 1.9-1.7 3.7-1.9 18.3-1.8 17.5.1 31.1 2.3 51.9 8.4 11.8 3.6 36 12.2 40.2 14.4 1.7.9 3.3 1.6 3.7 1.6.4 0 6.4 2.7 13.4 6.1l12.7 6 2.1-2 2-2.1-3-3.2c-1.7-1.8-5.2-6.2-7.9-9.8-2.7-3.6-7.1-9.4-9.9-13-10.7-14-14.4-18.9-21.7-29-8.6-12.1-8.7-12.2-17.6-25.5-15.2-22.8-23.9-40.9-22-45.8 2.3-6 22.6 4.1 57.7 28.8 66.1 46.4 91.3 73.1 102.3 108.5 8.9 28.3 11.3 52.1 12.3 118.8.6 40.8-.1 82-3.1 173.7-.7 24.2-1.2 44.1-1 44.3.2.2 1.2.1 2.3-.2 1.8-.6 2-2.5 3.1-34.9 3.8-107.5 4-225.4.6-251.7-.3-2.5-1.3-10.3-2.1-17.4-.9-7.1-1.9-13.6-2.4-14.5-.5-.9-1.6-5.2-2.6-9.6-.9-4.4-2-8.5-2.4-9-.4-.6-1.5-3.4-2.4-6.4-.9-2.9-2-5.9-2.4-6.5-.5-.6-1.7-3.2-2.7-5.9-1-2.6-2.1-4.7-2.5-4.7-.4 0-1.4-1.5-2.1-3.3-2.6-6.2-16.4-23.3-26.9-33.1-3.5-3.4-7.4-7-8.5-8.1-2.5-2.3-21.9-18.1-25.9-21-6.8-5-18.2-13.4-19.7-14.7-.9-.7-2.3-1.8-3.2-2.3-2.1-1.3-8.7-5.9-16.8-11.7-3.7-2.7-7.2-4.8-7.7-4.8-.6 0-1.5-.6-1.9-1.3-.4-.7-2.5-2.1-4.5-3.2-2.1-1.1-3.8-2.2-3.8-2.6 0-.4-1.4-1.2-3.1-1.9-1.7-.7-3.6-1.8-4.2-2.4-1.9-1.7-13.8-7.3-18.2-8.5-5.7-1.6-7.9-1.4-10.9 1zm469.4-.6c-5.3 1.6-19.5 8.8-25 12.8-1.4 1-5 3.5-8.1 5.5-10.3 6.7-20.4 13.7-21.7 14.9-.7.7-1.6 1.3-2 1.3-.4 0-2.3 1.4-4.2 3-1.9 1.6-3.8 3-4.2 3-.4 0-1.3.6-2 1.2-1.2 1.2-3.3 2.8-15.5 11.8-2.6 1.9-5.5 4.2-6.5 5-.9.8-2.9 2.4-4.4 3.5-5.3 4-19 16.1-25.9 23-7.7 7.8-19.5 21.8-19.5 23.3 0 .5-.7 1.6-1.7 2.3-.9.8-2.5 3.2-3.5 5.4s-2.3 4.7-2.8 5.5c-2 3.2-6.8 14.8-8 19.5-.8 2.7-1.7 5.2-2 5.5-.4.3-1.7 5.4-2.9 11.5-1.2 6-2.6 12.8-3.1 15-.5 2.2-1.4 13-2 24-.6 11-1.6 23.6-2.1 28-1 7.7-.6 108.9.5 135 .3 6 1 33.5 1.6 61 1.2 57.7 1.3 58.5 4.2 58.5 2.1 0 2.1-.2 1.4-17.3-4.3-115.3-4.1-263 .4-285.6 2.3-11.3 5.9-27.1 7.5-32.6 2.5-8.8 10.5-25.3 16.7-34.2 5.8-8.5 25.2-29.1 34.5-36.5 3.2-2.6 9.6-7.8 14.3-11.5 7.3-5.9 25.7-19.6 32.6-24.3 1.2-.8 4.4-3 7.1-4.9 26.9-19.1 45.5-29.5 52-28.9 5 .4 5.3 2.2 1.7 11.2-6 15.6-28.2 50.1-51.8 80.6-7.3 9.4-13.5 17.5-19.6 25.5-2.9 3.8-6.1 7.9-7.2 9.1-1.8 2-1.8 2.1.1 3.8 1.8 1.7 2.3 1.5 12.3-3.2 26.6-12.7 57.2-23.6 78.3-27.8 4.4-.9 9.8-2 12-2.5 6.4-1.3 26.6-2.2 32.8-1.5 3.1.4 6.7 1.6 7.9 2.6l2.3 1.9-2.4 4.6c-6.2 11.8-36 34-83.8 62.4-15.6 9.2-17.2 10.4-16.3 12.2 1.3 2.3.5 2.2 10.5.4 27.6-5.2 48.3-4.1 73.8 3.7 18.6 5.7 29.7 12.2 28.3 16.5-1.9 5.8-19.4 12.3-48.6 17.9-10.8 2-31 5.3-33.2 5.4-.5 0-.8 1.3-.8 3 0 2.5.4 3 2.4 3 3.8 0 32 7.5 46.9 12.5 15.4 5.1 26.1 10.1 31.2 14.6 6 5.3 4.3 8.4-7.1 12.4-8.5 3-20.4 4.4-44.6 5.3l-18.8.7 6.8 5.3c7.6 6 11.2 10.6 11.2 14.6 0 2.3-.8 3.1-5.7 5.3-5.2 2.4-7 2.7-23 3.1l-17.2.5-.4 130.6c-.3 113.5-.5 131.9-1.9 140.6-2.4 15-8.9 38.8-13.2 48-9.3 20.1-13.4 27.5-22.3 40.5-3.8 5.4-13.6 24-11.1 20.9.7-.8 3.6-4.3 6.3-7.7 2.8-3.4 5.3-6.2 5.8-6.2.4 0 .7-.6.7-1.3 0-.6 1.6-3.2 3.5-5.5 1.9-2.4 3.7-5.2 4-6.3.4-1 .9-1.9 1.3-1.9s2.7-3.9 5.2-8.8c2.5-4.8 4.8-8.8 5.2-9 .3-.2 1.4-2.8 2.4-5.8.9-3 2-5.4 2.4-5.4.4 0 1.3-2.1 2-4.8.7-2.6 2.1-6.5 3-8.7 1-2.2 2.4-6.7 3.1-10 .7-3.3 1.6-6.2 1.9-6.5.8-.6 4-19.3 4-23.1 0-1.4.6-3.1 1.3-3.7.9-1 1.3-28.5 1.5-129.5.1-70.5.4-129.2.7-130.3.4-2 1.2-2.2 16.2-2.6 15.8-.5 16.6-.7 25-5.1 5.2-2.7 5.3-10.5.2-16.7-5.3-6.3-4.8-6.6 14.1-7.5 22.7-1.1 35.9-4.4 42.3-10.3 4.1-3.9 3.8-9-.9-13.6-3.4-3.3-16.1-10.5-21.4-12.1-1.4-.4-3.8-1.3-5.5-2-1.6-.8-5.7-2.1-9-3-3.3-.9-6.4-2-7-2.5-.5-.4-4.6-1.5-9-2.5-4.4-.9-8.4-2.1-9-2.5-.5-.5-2.1-1-3.4-1.2-1.4-.1-2.6-.8-2.8-1.3-.3-1 2.5-1.7 22.7-5.6 27-5.2 43.5-12 46.5-19.3 1.6-3.7.6-6.7-3.2-10.2-3.3-2.9-14.8-8.6-21.3-10.5-2.5-.7-4.7-1.6-5-1.9-.3-.4-4.5-1.5-9.5-2.4-4.9-1-10.1-2.3-11.4-2.9-1.6-.8-10.1-1.2-25.2-1.2-12.6 0-22.9-.3-22.9-.6 0-.6 5.6-4.9 6.4-4.9.8 0 10.3-5.7 15.3-9.1 2.3-1.6 4.5-2.9 5.1-2.9.5 0 1.7-.9 2.7-2 1-1.1 2.1-2 2.6-2 .4 0 3.2-1.7 6.2-3.8 13.7-9.4 18.4-12.7 21.2-14.8 1.7-1.3 4.3-3.4 5.9-4.6 5.9-4.6 16.9-15.4 19.6-19.3 4.2-6.1 4.6-9.6 1.5-12.9-1.5-1.6-4.3-3.2-6.3-3.7-8-1.9-44.5-.3-47.7 2.1-.5.4-5.3 1.5-10.5 2.5s-9.7 2.1-10 2.5c-.3.4-3.9 1.5-8 2.5s-7.9 2.1-8.5 2.5c-.5.4-3.7 1.6-7 2.6s-6.2 2.1-6.5 2.5c-.3.3-2.3 1.2-4.5 1.9s-5.8 2-8 3c-14.2 6.4-17.8 8-18.6 8-1.3 0-1.1-2.7.4-4.2.6-.7 3.2-4 5.7-7.3s4.7-6.2 5-6.5c.3-.3 2.5-3.2 5-6.5s5.1-6.4 5.7-6.8c.7-.4 1.3-1.2 1.3-1.8 0-.5 2.1-3.8 4.8-7.2 5.2-6.7 5.4-7 12.7-17.8 2.7-4.1 5.2-7.6 5.5-7.9.3-.3 2.5-3.7 5-7.5 2.5-3.9 4.7-7.2 5-7.5.7-.6 12-20.8 12-21.5 0-.2 1.1-2.9 2.5-5.9 3.4-7.5 3.5-14.7 0-17-2.9-1.9-5.4-1.9-11.5-.1z"/><path d="M542.3 612.3c-4 14.7-19.8 30.8-35.1 35.8-2.1.6-4.1 1.5-4.7 1.9-.5.4-5.5 1.5-11 2.5-5.5.9-10.4 2.1-11 2.5-.5.4-4.8 1.6-9.5 2.5-4.7 1-8.7 2-9 2.4-.3.4-2.5 1.3-5 2-6.2 1.8-15.9 6.4-21.6 10.3-9.3 6.2-16 15-18.9 24.3-1.5 5-1 5.4 2.8 2.5 1.4-1.1 2.8-2 3.2-2 .4 0 2.8-1.1 5.4-2.3 2.6-1.3 7.1-3 10.1-3.7 3-.7 6-1.6 6.5-2 6-4.6 64-4.5 70 0 .6.4 3.7 1.3 7 2s7.4 1.8 9 2.5c1.7.7 5.4 2.1 8.2 3 2.9.9 5.6 2.1 5.9 2.7.4.5.9.6 1.3.2.3-.5 2.4-1.8 4.5-2.9 4.9-2.5 16-13.3 20.4-19.9 9.7-14.3 14.3-28.5 16.7-51.5.6-4.8.4-6.5-.6-7.2-2.7-1.7-4.5-.8-7.4 3.9-3.4 5.4-8 11.6-13.8 18.5-4.3 5.2-13.7 12.1-14.8 10.9-.3-.4-.3-3.4.1-6.7 1.2-8.5 1-21.9-.4-29.5-1-6.2-1.2-6.5-4.1-6.8-2.8-.3-3.1 0-4.2 4.1zm4.5 21.4c-.3 7.6-1 14.9-1.5 16.3-.6 1.4-1.3 3.7-1.7 5.2-.6 2.6-.4 2.8 2.3 2.8 8.2 0 17.2-6.2 27.8-19.4 3.6-4.5 7-8.3 7.5-8.5 2.5-.9-3.1 21.8-7.7 31.5-4 8.5-9.9 16.5-17.1 23.5-9.6 9.2-10.1 9.4-17.1 6.7-19.2-7.2-42.9-11.8-61.1-11.8-12 0-32.1 3.3-43 7-4.8 1.6-9 3-9.4 3-1.8 0-.5-2.3 3.4-6.6 10.8-11.7 28.9-19 67.8-27.5 21.2-4.6 35.9-14.5 45-30.4 1.7-3 3.6-5.5 4.2-5.5.7 0 .9 4.3.6 13.7zM223 622.6c-1.2 9.1-.9 26.1.6 32 .9 3.3-.7 3-6.7-1.2-4.8-3.5-17.9-18.9-21.3-25-2.9-5.3-4.3-6.6-6.5-5.9-1.9.6-2.1 1.4-2.1 7.3 0 17.1 5.6 35.1 15.7 50.9 4.6 7.3 15 17.6 20.5 20.4 2.4 1.2 4.6 2.7 5.1 3.3.5.8.9.8 1.5 0 .9-1.3 20.3-8.1 25.7-9 2.2-.4 4.5-1 5-1.4 5.8-4.5 63.2-4.5 69 0 .6.4 3.6 1.4 6.9 2.1 3.2.7 6.4 1.8 7 2.4.6.7 2.9 1.8 5.1 2.5 2.2.7 4.7 1.8 5.5 2.5.8.7 2.6 1.8 4 2.5 2.1 1.1 2.3 1.1 1.4-.1-.6-.8-1.9-3.8-2.8-6.8-1-2.9-2.3-6-2.9-6.7-.7-.7-2.5-3.1-4.2-5.4-2.8-3.9-7.3-7.9-12-10.7-5.1-3.1-16.4-8.2-20.4-9.3-2.4-.6-5.1-1.6-6-2.1-1.8-1.1-14.3-4.2-28.1-7-5.2-1.1-10.4-2.4-11.5-2.9-1.1-.5-3.1-1.2-4.5-1.6-5.5-1.5-15.8-8.1-21.6-13.8-6-6.1-14.4-20.4-14.4-24.7 0-1.5-.7-1.9-3.4-1.9h-3.3l-1.3 9.6zm9 8c8.5 14.7 26.2 27.3 42.2 29.9 2.4.4 9.7 2 16.3 3.7 29 7.2 43.1 13.2 52.6 22.4 4.2 4 6.4 7.2 5.6 8-.3.3-4.7-.9-10-2.6-10.8-3.5-32.7-7-43.7-7-16.9 0-41.8 5-59 11.7-6.3 2.5-6.5 2.5-9.8.7-1.9-1-7.1-5.8-11.6-10.5-10.3-10.9-16.3-22.5-20.1-38.4-3.9-16.6-3.5-17 5.3-5.6 10.2 13.2 20 20.1 28.3 20.1 2.5 0 2.9-.3 2.4-2.3-.3-1.2-1.2-5.1-2-8.7-2.1-9.1-2-27 .1-27 .1 0 1.7 2.5 3.4 5.6z"/></g><path d="M150.6 136.7c-2.4 2.4 1.2 12.5 9.8 27.6 5.2 9.3 21.4 34.1 26 39.8 1.2 1.5 4.6 6.2 7.6 10.4 3 4.3 7.5 10.4 10 13.5 2.5 3.2 7 9 10 13s8.3 10.8 11.8 15.1c6.2 7.8 6.2 7.9 4.6 10.4-.9 1.4-2 2.5-2.5 2.5s-4.6-1.8-9.1-4.1C196.5 254 168.7 243.7 146 238c-24.7-6.1-52.7-7.9-58.6-3.6-7.9 5.8 24 32.2 79.1 65.3 8.3 5 16.5 9.8 18.3 10.7 3.5 1.8 3.9 3.1 1.7 6.3-1.4 2-1.4 2-8.1.2-9.2-2.5-28.7-3.8-43.6-2.8-26.7 1.7-59.8 13.3-59.8 21 0 4.8 17.9 11.7 43.6 16.8 7.9 1.6 35.9 6.1 38 6.1.2 0 .4 1.6.4 3.5s-.2 3.5-.5 3.5c-.2 0-5.1 1.1-10.7 2.5-45.3 11.2-73 22.8-71.6 30.1 1.1 6.1 20.9 10.3 53.3 11.2l22 .7-4.8 3.3c-6.6 4.6-14.6 12.8-15.3 15.8-1.5 6 6.2 8.5 28.8 9.1l16.7.5.4 130.2c.3 127.6.4 130.4 2.5 143.4 5.2 31.9 14.9 58.3 29.8 80.9 6.1 9.1 8.2 11.3 5.4 5.5-1-2-2.1-5.5-2.5-7.7-.4-2.2-1.1-4.5-1.5-5-4.8-6.2-4.6-63.2.2-66.1.4-.3.8-1.5.8-2.7 0-1.2 1.6-5.9 3.4-10.4l3.4-8.1-3.5-3.4c-15-14.2-24.9-36.4-27.4-61.8-.9-8.5-.8-9.6.7-10.7 3.5-2.5 5.1-1.4 11 7.5 6.3 9.4 21 25.2 23.5 25.2 1.4 0 1.5-.8.7-5.8-1.1-6.8-.4-25.7 1.2-32.5 1.2-4.7 1.3-4.8 4.7-4.5 3.4.3 3.7.6 5.5 6.2 3.3 10.1 10.3 19.5 19.6 26.4l5.3 3.9 6.6-6.9c3.7-3.7 7.2-6.8 8-6.8.7 0 1.3-.4 1.3-.9 0-.8 19.2-12.1 20.6-12.1.3 0 2.7-1.1 5.3-2.4 2.6-1.2 6.5-2.9 8.6-3.6 2.2-.7 4.5-1.6 5.1-2.1.6-.5 1.3-.7 1.6-.4.3.3.8-5.9 1.2-13.7 4.5-98.2 5.3-243.5 1.6-276.9-3.3-29.6-9.2-51.2-18.7-68.9-9.5-17.6-21.1-30.6-46.3-51.7-6.9-5.7-16-13-20.4-16.1-12.5-9.1-12.7-9.2-28.2-20.2-19.9-14-30.3-20.6-39.9-25-8.6-4-12.8-5.3-13.9-4.3zm466.2 1.2c-10.2 3.3-30.1 15.8-62.8 39.5-66.9 48.5-85.6 73.3-95 126.4-6 33.6-6.6 138.1-1.7 277.2l1.2 32.5 6 2.2c5.5 1.9 22.3 10.2 32 15.6 2.1 1.2 6.7 4.8 10.2 8.1l6.3 5.9 5.5-3.7c10.6-7 18.4-16.8 22.5-28.3 1.7-4.8 2.8-6.3 4.6-6.7 1.4-.4 2.9-.4 3.4-.1 2.4 1.5 3.5 9.7 3.5 26.2 0 10.8.3 17.3 1 17.3 2 0 17.3-16.9 22.9-25.3 4.5-6.7 6.3-8.7 8.1-8.7 4.1 0 4.6 1.8 3.5 13-2.4 25-12.3 46.7-28 61.4l-4.9 4.6 2.5 4.4c2.3 4.2 4.6 10.8 8 23.1.7 2.7 2 10.6 2.8 17.4 1.9 16.8.1 35.8-5 51-.8 2.4-2 5.3-2.6 6.5-1 1.9-1 2 .6.7 2.7-2.3 12.6-18.8 17.8-30 4.9-10.3 11.8-29.7 13.9-38.8 5.7-24.7 5.3-13.8 5.9-158.3l.5-132.5 16-.6c22.7-.8 29.5-2.9 29.5-8.7 0-2.7-8.8-11.9-16.5-17.5l-3.8-2.7h16.7c34.4 0 59.5-5.2 59.6-12.3 0-2-7.1-7.3-14.5-10.8-12.5-5.8-31.8-11.9-60.2-19-8.9-2.2-9.3-2.4-9.3-5 0-1.5.4-3.1 1-3.4.5-.3 6.7-1.4 13.7-2.5 44.2-6.5 71.2-15.7 67.4-22.8-2.3-4.2-16.1-10.4-34.6-15.3-19.7-5.2-49.9-5.7-67.9-1l-7.6 1.9-1.4-2.9c-1.1-2.3-1.2-3.2-.3-4 .7-.5 8.2-5.1 16.7-10.1 42.5-24.9 74.2-47.9 81.9-59.4 3.7-5.6 3.8-6.9.9-8.6-3-1.7-27.4-1.6-38.3.1-27.7 4.3-62.2 16-95.3 32.3l-6.3 3.1-2.2-2.2c-2.7-2.7-3.5-1.4 15.4-25.8 8-10.3 17.7-23.1 21.5-28.3 27.6-37.4 45.4-68.7 42.8-75.4-.7-1.9-.5-1.9-7.6.3z" stroke-width="3" fill="#B24C33" stroke="#B24C33"/><path d="M599.4 672c0 5.8.1 8.1.3 5.2.2-2.8.2-7.6 0-10.5-.2-2.8-.3-.5-.3 5.3z" fill="#994C19" stroke="#994C19" stroke-width="3"/><path d="M321.4 447.5c0 7.7.2 10.7.3 6.7.2-4 .2-10.3 0-14-.2-3.7-.3-.4-.3 7.3zM174.5 558c0 65.7.1 92.6.2 59.7.2-32.8.2-86.6 0-119.5-.1-32.8-.2-5.9-.2 59.8zm145.9-61.5c0 5.5.1 7.6.3 4.7.2-2.9.2-7.4 0-10-.2-2.6-.3-.2-.3 5.3zm62.4 106.2c2.9.2 7.4.2 10 0 2.6-.2.2-.3-5.3-.3s-7.6.1-4.7.3zm169.7 211c-2.6 4.9-5.5 9.7-6.4 10.8-1.6 2-1.6 2 .6.1 2.8-2.3 12.3-19.6 10.9-19.6-.2 0-2.5 3.9-5.1 8.7zm-332.9-.8c1.9 3.8 4.5 7.7 5.7 8.7 2.2 1.9 2.2 1.9.6-.1-.9-1.1-3.2-5-5.3-8.8-2-3.7-3.9-6.7-4.1-6.7-.2 0 1.2 3.1 3.1 6.9z" stroke-width="3" fill="#7F4C19" stroke="#7F4C19"/><path d="M408.2 581.5c-1.8.8-6.3 3.9-10 7-3.6 3-7 5.5-7.5 5.5-.4 0-3.5-2.7-6.8-6-5.8-5.9-9.6-7.9-12-6.5-2 1.3-.5 9.8 2.7 14.8l2.9 4.6 13.1.1h13l3.6-3.3c6.9-6.2 10.3-15.5 6.2-17.1-.9-.3-1.6-.6-1.7-.6-.1.1-1.7.7-3.5 1.5zm44.3 146c-.6.3-.9 2.2-.7 4.3.5 4.9-2.8 9-7.8 10.1l-3.5.7.1 5.6c.1 6.8 2.5 11.2 8 15.1 7.3 5.1 17.8 4.9 23.7-.6 6.1-5.7 8-9.4 8.1-15.6.1-6.4-2.7-11.9-8.2-16.6-3-2.5-4.4-2.9-11-3.2-4.3-.1-8.2 0-8.7.2zM302 731.9c-2.1.6-2.4 1.2-2.2 4.2.5 5.1-3.7 9.9-8.4 9.9H288v5.6c0 6.4 3.6 13.8 7.6 15.6 1.3.6 2.4 1.5 2.4 1.9 0 1.5 10.4 2.9 14.4 2 4-1 9.7-5 12.8-9.2 2.4-3.2 3.3-11.3 1.8-16.9-2.7-10.1-14.2-16.1-25-13.1z" stroke-width="3" fill="#331919" stroke="#331919"/><path d="M363.5 604.1c-3.3.4-7.1 1-8.5 1.3-1.4.3-6.8 1.2-12 2.1-5.2.9-10.4 2-11.5 2.5-1.1.5-6 1.9-11 3.1-17.6 4.1-43.2 17.4-54.2 28.2-3.5 3.4-6.3 6.5-6.3 7 0 .4 1 1.1 2.3 1.6 1.9.7 3.2-.1 8.7-5.3 6.6-6.1 16.1-12.2 26.8-17.1 3.1-1.4 6.8-3.2 8.2-3.9 1.4-.7 4.3-1.9 6.5-2.6 2.2-.7 4.5-1.6 5-2 1.6-1.3 16-5 27.5-7.1 5.8-1.1 13-2.5 16-3.2 7.2-1.6 46.1-1.6 51.5-.1 2.2.7 8.6 1.9 14.3 2.8 5.6.9 12.6 2.3 15.5 3.2 10.5 3.2 23.3 7.8 27.8 10.1 2.6 1.3 5 2.3 5.3 2.3 1.9 0 21.4 11.9 25.5 15.6 4.4 3.9 5.2 4.3 7.5 3.4l2.7-1-3.3-3.6c-9.6-10.6-41.4-26.6-57.7-29-1.9-.2-4.8-1.1-6.5-1.9-3.2-1.4-22-5-34.1-6.5-8.4-1-37.6-1-46 .1zm85.5 92.4c-8.7 1.8-10.4 2.5-18.4 8-9.5 6.5-15.5 13.8-20.3 24.7-2.6 5.9-2.8 7.2-2.8 19.8 0 12.7.2 13.9 2.9 20 6.8 15.3 17.4 25.8 31.5 31.1 7.2 2.7 21.7 3.6 30.3 1.9 16.3-3.1 33-16.7 38.3-31.1.9-2.4 2.2-5.5 2.8-6.8 1.6-3.2 1.6-28.3.1-30.2-.6-.8-1.7-3.1-2.4-5.2-2.8-8.9-12.8-20.5-22.7-26.4-5.7-3.4-7.4-4-15.7-5.7-8.9-1.9-14.7-1.9-23.6-.1zm26.5 5c3.3.9 6.2 1.9 6.5 2.3.3.4 2.1 1.5 4.1 2.5 4.8 2.5 12.9 10.1 16.6 15.9 5.7 8.6 7.8 16.1 7.8 27.9 0 6.4-.4 11.1-1.1 12-.7.8-1.5 2.8-1.9 4.6-.3 1.8-2.3 5.8-4.4 9-15.9 24.6-48.5 30.5-72.5 13.2-5.7-4.2-12.9-13.8-16.2-21.5-2.5-6.2-2.8-8-2.8-18.4 0-10.3.2-12.1 2.7-17.7 1.4-3.4 4.1-8.2 5.8-10.8 3.4-5.1 13.5-13.9 17.1-15.1 1.3-.3 2.5-1 2.8-1.5 2.3-3.5 25.3-5 35.5-2.4zm76.6-4.1c-1.1 1.3 0 6.5 1.9 9.1 2.1 2.8 7 21.6 8.1 30.7 1.3 11.8.6 31.1-1.5 40.3-2.2 9.5-4.7 17.8-6.1 20.5-.7 1.4-3 6.1-5.1 10.5-11.5 24-32.8 46.2-60.2 62.5-8.3 5-8.7 5.4-7.4 7.6.8 1.4 1.2 1.2 2.8-1.5 2.4-4.2 7.6-7.3 11.2-7 4.1.5 17.8-9.7 30-22.2 10.4-10.5 11.1-11.3 15.7-17.4 9.6-12.6 19.5-32.4 23-45.8 6.8-26.8 5.1-53-5.1-79.5-3.6-9-5-10.6-7.3-7.8zm-335.5 2.5c-1.8 2.9-6.8 18.4-8.7 27.2-1.9 8.3-2.3 13.4-2.3 25.4 0 23.6 4.3 40.1 15.5 60.1 7.7 13.7 13.9 22.1 24.9 33.5 8.2 8.4 21.2 19.6 24.8 21.2 1.2.6 2.2 1.3 2.2 1.7 0 1.6 5.6 3.1 8 2.2 2.2-.8 1.9-1.2-4.8-5.6-20.9-13.6-37.8-31.7-50.2-53.6-6-10.6-10.8-24.3-13.7-39-1.9-9.7-1.3-39.3 1-46 .8-2.5 2-6.7 2.6-9.4.7-2.8 2.1-6.9 3.2-9.2 1-2.4 1.9-4.9 1.9-5.6 0-1.6-3.7-4.1-4.4-2.9zm83.4 0c-.8.4-3.3 1.2-5.5 1.6-11.5 2-28 15-33.7 26.6-11.4 23-7.5 46.4 10.5 64.2 12.1 12 27.9 17.2 44.7 14.8 9.6-1.4 11.2-1.9 18.9-6.1 19.8-10.7 30.7-33.2 27.2-56-1.9-12.1-8.7-24.3-18-32.7-4.2-3.7-14.2-9-20.6-10.9-6.7-1.9-21.2-2.9-23.5-1.5zm18 5c11.5 2 17.7 5.4 26.6 14.6 10.5 10.9 13.9 20.4 13.2 37.3-.3 8.7-.9 11.7-2.8 15.7-6.4 13.2-13.8 21-25 26.3-7.5 3.5-13.4 4.5-24.3 4-8.8-.4-11.2-.9-17-3.6-7.9-3.7-8.3-4-15.6-11.3-10.9-11-15.4-25.4-13.2-42.3 1.4-10.6 5.7-19 13.7-27 7.2-7.3 16.3-12.1 25.3-13.5 3.5-.6 6.6-1.3 7-1.6.3-.4 1.9-.4 3.6-.1 1.6.3 5.5.9 8.5 1.5zm108.5 189.3c-11.7 2.7-17.8 3.2-40 3.2-21.8 0-31.9-.8-36.7-2.9-1.5-.6-1.8-.2-1.8 2.3 0 2.8.2 3 5.3 3.6 11.7 1.4 47.6 1.9 58.7.7 14.8-1.6 19-2.9 19-5.8 0-1.3-.1-2.2-.2-2.2-.2.1-2.1.5-4.3 1.1z" stroke-width="3" fill="#996619" stroke="#996619"/><path d="M382.8 607.7c2.3.2 6.1.2 8.5 0 2.3-.2.4-.4-4.3-.4s-6.6.2-4.2.4z" fill="#B27F33" stroke="#B27F33" stroke-width="3"/><path d="M522.4 1137.5c0 4.9.1 7.1.3 4.8.2-2.3.2-6.4 0-9-.2-2.6-.3-.8-.3 4.2z" fill="#CCB266" stroke="#CCB266" stroke-width="3"/><path d="M416.4 1122.5c0 5.5.1 7.6.3 4.7.2-2.9.2-7.4 0-10-.2-2.6-.3-.2-.3 5.3z" fill="#E5CC99" stroke="#E5CC99" stroke-width="3"/><path d="M456.8 693.7c2.3.2 6.1.2 8.5 0 2.3-.2.4-.4-4.3-.4s-6.6.2-4.2.4z" fill="#FC9" stroke="#FC9" stroke-width="3"/><path d="M367 610c-1.9.5-9.1 1.6-16 2.5-6.9 1-12.9 2-13.5 2.5-.5.4-4.1 1.5-8 2.4-6.9 1.7-16.1 5-24.2 8.7-2.4 1-4.5 1.9-4.7 1.9-.3 0-5.4 2.7-11.5 6.1-6.7 3.7-13.1 8.2-16.7 11.6l-5.8 5.7 4.9 1.4c2.8.7 9 2.2 14 3.2 4.9 1.1 10.1 2.4 11.5 2.9 1.4.5 4.1 1.3 6 1.6 5.4 1.1 20.6 6.3 24.7 8.5 2.1 1.1 4.2 2 4.7 2 1.6 0 11.8 7.2 15.5 10.9 2 2 5 5.7 6.6 8.2 3.3 5.1 8.3 18.4 7.2 19.5-.4.4-3.3-.9-6.4-2.8-3.2-1.9-7.4-4.1-9.3-4.8-1.9-.7-3.9-1.7-4.5-2.1-1-.7-12.5-4-21-6-7.8-1.8-34.3-2.2-45-.6-11.3 1.7-27.4 5.4-29 6.6-.5.5-3.5 1.6-6.6 2.5-3.1.9-6.9 2.2-8.5 3.1-2.5 1.3-3.1 1.3-5.1 0-1.2-.8-2.4-1.5-2.7-1.5-1 0-4.7 9.6-6.2 16-.9 3.6-2 7.4-2.7 8.5-1.5 2.7-2.2 35.4-.9 42.5 1.6 8.6 5.1 21.1 7.1 25.5 1 2.2 2.1 5 2.5 6.1.4 1.2 2 4.6 3.7 7.5 2.9 5.1 4.7 8 11.3 18 1.6 2.4 7.7 9.1 13.5 14.9 13.1 13 26.6 23.1 40.9 30.5l5.4 2.8 2.4-2.6c4.8-5.2 12.1-4.5 17 1.7l2.8 3.5 3.3-3.9c8.3-9.7 20.1-3.9 23.5 11.5l1.3 5.8 5 1.4c6.7 1.8 44.3 2.8 55.5 1.4 4.7-.6 11.5-1.6 15.1-2.2l6.7-1.2.6-4.5c.8-5.8 5.3-14 8.8-15.8 5.8-3 12.5-1.2 15.9 4.3l2.1 3.4 1.8-2.9c1-1.6 2.9-3.7 4.1-4.6 3.3-2.3 10-2.1 13.2.4l2.6 2.1 4.3-2.3c16.6-8.9 35.6-24.6 48.3-39.9 4.3-5.2 12.2-17.8 15.9-25.4 2.1-4.4 4.2-8.8 4.7-9.7.8-1.6 3.4-10.2 6-19.8 2.7-9.7 1.9-48.7-1.1-52.5-.4-.6-1.3-3.5-2-6.5s-2.3-7.9-3.6-10.8c-1.3-2.9-2.4-5.7-2.4-6.2s-1.5-.6-3.4-.3c-2.1.3-4.2 0-5.7-1-1.3-.8-3.7-1.8-5.4-2.2-1.6-.3-4.3-1.3-6-2-4.3-2-18.5-5.5-29-7-15.6-2.4-45.4-1.5-52 1.5-1.1.5-4.9 1.7-8.5 2.6-3.6.8-6.9 1.9-7.5 2.3-.5.4-2.6 1.4-4.5 2.1-1.9.7-6.1 2.9-9.3 4.8-3.1 1.9-6 3.2-6.4 2.8-.9-.8 3.4-13 6.5-18.4 3-5.3 9.3-11.8 15.3-15.8 5.1-3.4 17.2-9.4 19.2-9.4.6 0 2.4-.7 3.9-1.4 1.5-.8 6-2.2 10-3.1 4-.9 8.2-2.1 9.3-2.6 1.1-.5 6.3-1.8 11.5-2.9 5.2-1 10.7-2.2 12.3-2.7l2.7-.8-2.4-2.5c-1.3-1.4-3.2-3.2-4.2-4-1.9-1.6-22.1-13-22.9-13-.2 0-2.8-1.1-5.7-2.4-2.9-1.3-6.4-2.7-7.8-3.1-1.4-.4-3.8-1.3-5.5-2.1-2.6-1.1-10.7-3.4-22.5-6.4-14.5-3.6-56.1-6.2-65-4zm109 85.1c12 3.3 24.5 12.3 31.6 22.9 1.6 2.5 4.3 7.6 5.9 11.5 2.8 6.5 3 7.9 3 20 0 10.6-.4 13.8-1.9 17-1 2.2-3 6.5-4.4 9.5-3.8 8.2-15.1 19.1-24.3 23.5-12.5 5.8-24.8 7.2-37.7 4.3-10.9-2.5-17.7-6.3-26.3-14.8-11.7-11.5-16.9-24-16.9-40.4.1-12.3 3.7-23.2 11.2-33.4 6.7-9.1 20-18.1 29.3-19.7 2.2-.4 4.7-1.2 5.5-1.6 2.2-1.3 18.6-.5 25 1.2zm-150.3 5c18.8 6 33.7 22.5 37.8 41.8 1.9 9.1 1.9 14.1 0 23.2-3.5 16.6-13.7 30-28.8 38.2-7.5 4.1-14.8 5.7-25.4 5.7-18.2 0-29.7-4.8-41.6-17.4-16.6-17.6-19.8-44.4-7.9-65.6 2.9-5.2 3.6-6 9.4-11.8 5.8-5.8 6.6-6.4 11.8-9.4 3.8-2.2 13.1-5.4 20.5-7.2 4.1-1 17.6.4 24.2 2.5zm67.5 103.3c1.4.8 4.3 1.9 6.5 2.6 6.8 2.2 18.5 9.4 23.5 14.4 3.3 3.3 6.8 10 6.8 13.1 0 3.6-3.8 10.1-7.8 13.7-2.2 1.8-4.3 4.4-4.7 5.8-.8 2.7-6.1 10.9-9.7 15.1-10 11.6-25.8 11.1-37.4-1.3-2.2-2.3-5.3-6.3-7-8.8-1.6-2.5-5-6.4-7.6-8.8-5.4-5-7.4-10.1-6.4-17.1 1.3-9.2 8.8-16.5 25.5-24.8 11.2-5.5 14-6.1 18.3-3.9z" fill="#FFE5B2" stroke="#FFE5B2" stroke-width="3"/><path d="M400.4 1124.5c0 4.9.1 7.1.3 4.8.2-2.3.2-6.4 0-9-.2-2.6-.3-.8-.3 4.2z" fill="#E5B266" stroke="#E5B266" stroke-width="3"/><path d="M505.4 1154.5c0 5.5.1 7.6.3 4.7.2-2.9.2-7.4 0-10-.2-2.6-.3-.2-.3 5.3z" fill="#E5B24C" stroke="#E5B24C" stroke-width="3"/><path d="M384 804.9c-.8.5-5.3 2.8-10 5.1-15.2 7.5-22.9 16.1-23 25.5 0 4.9 2.5 9.2 7.9 13.6 2.3 1.8 4.1 3.6 4.1 4 0 1.6 5.9 9.5 10.2 13.6 4.9 4.7 12.3 8.3 17.3 8.3 7.8 0 17.4-7.9 23.1-18.8 1.6-3.1 5.1-8 7.8-10.8 3.9-4.2 4.9-6 5.3-9.7.7-6.4-.2-9.1-4.5-13.4-4.1-4.2-12.9-10.3-14.8-10.3-.7 0-1.9-.6-2.6-1.3-1.7-1.7-12.4-5.8-16.3-6.3-1.6-.2-3.7 0-4.5.5zm9.1 5.6c14.8 5.1 29.9 16.1 29.9 21.9 0 6.1-4.3 10.7-15.5 16.4-9.8 5-20.2 5.8-33.2 2.6-4.1-1.1-13.7-6-15.5-8-7.7-8.7-2.6-18.3 15.5-28.8 4.7-2.7 11.2-5.4 13.3-5.5.6-.1 3.1.6 5.5 1.4zm15.9 44c0 1.9-3.5 6.7-7.3 10.2-8.2 7.6-17.6 6.8-26.4-2.3-5.1-5.2-6.8-8.2-3.9-7.1.8.3 5.1 1.1 9.6 1.8 8.8 1.3 16.3.8 22.6-1.5 4.4-1.6 5.4-1.8 5.4-1.1z" fill="#B27F00" stroke="#B27F00" stroke-width="3"/><path d="M404.4 1094.1c-1.8 2-1.9 3.9-1.9 25.8v23.6l2.9 6.2c3.1 6.8 9.5 13.5 15 15.8 5.3 2.2 12.9 2.8 20.5 1.5 11.4-1.9 17.9-7.4 22.2-18.9 1.8-4.7 2.2-9 2.9-26.6.5-14.8.4-22-.4-24.5-1-3.2-1.4-3.5-5.1-3.5-3.6 0-4.2.4-5.7 3.5-1.5 2.9-1.8 6.3-1.8 19.6 0 25-2.4 33-11.4 37.4-8.5 4.1-16.7 1.7-22.3-6.4-3.4-5.1-4.3-12.2-4.3-33.4 0-16.9-.1-18.3-2-20.2-2.6-2.6-6.2-2.5-8.6.1zM262 1105.6c-.6 1.4-1 6.7-1 11.9s-.4 9.6-.8 9.9c-.5.3-2.9-.1-5.4-.8-13.5-4.1-25.8 6.1-25.8 21.5 0 9.9 5.6 16.8 15.4 19 4.3.9 6.2.9 10.4-.4 2.9-.8 5.5-1.1 5.8-.6.8 1.4 7 1.1 8.1-.4 1.6-1.9 2.7-59.5 1.2-61.3-.6-.8-2.5-1.4-4-1.4-2.2 0-3.2.6-3.9 2.6zm-5.5 30.3c2.9 1.7 3 1.9 3.3 10.2.1 4.6-.2 9-.6 9.7-1.6 2.4-9.3 4.1-13.2 2.8-4.3-1.4-8-6.7-8-11.5 0-5.3 3.8-11.2 8-12.7 3.8-1.4 6-1 10.5 1.5zm222.7-31.2c-1 1.9-2.4 58.9-1.5 61 .7 2 7.1 1.6 8.1-.5.5-.9 1.2-6.6 1.6-12.5.3-5.9 1.1-11.7 1.7-12.8 1.2-2.3 6.6-4.9 10.2-4.9 1.3 0 3.2.6 4.3 1.4 1.7 1.3 2 3.1 2.4 15.6.5 14.9.9 16 5.7 16 3.8 0 4.5-3.1 4.1-18.9-.3-13.7-.5-14.8-2.7-17.9-3.9-5.1-11.3-6.3-22.4-3.6l-2.8.7.7-10.1c.6-8.6.4-10.5-1-12.7-2-3-7-3.5-8.4-.8zM328 1124c-1.2.7-1.6 4.7-2.1 20.7-.3 10.9-.3 20.4-.1 21 .5 1.6 6.4 1.7 8 .1.8-.8 1.2-5.2 1.2-13.3 0-13.2.4-14.3 6-16 3.4-1.1 9.1-.8 10.4.5 1.8 1.8 4.5 1 6-1.9 1.3-2.4 1.3-3.1 0-4.9-2.1-3.1-7.8-4.5-15-3.9-4.8.5-6.5.3-7.1-.8-1.1-1.8-5.4-2.8-7.3-1.5zm-37.5 2.5c-12.4 4.3-17.4 22.9-9.1 33.8 3.8 5 7.9 6.5 17.7 6.6 6.1.1 8.4-.4 12-2.2 4.8-2.6 7.1-6.6 5.3-9.4-1.7-2.6-2.9-2.6-6.4.3-3.8 3.2-11.7 4.3-17.4 2.4-3.7-1.2-8.2-5.8-6.9-7 .7-.7 12.8-3 23.1-4.5 6-1 7.6-2.8 6.8-8.4-.8-6.2-5.2-10.6-11.8-12-6.3-1.4-8.4-1.3-13.3.4zm12.6 7.6c2.2 1.1 3.9 2.5 3.6 3.2-.2.6-2.3 1.5-4.8 2-13.1 2.4-14.1 2.5-14.6 1.1-.6-1.8 1.3-4.2 5.2-6.6 3.8-2.3 5.7-2.3 10.6.3zm221.6-7.3c-1.4 1.5-1.7 4.1-1.7 14.8.1 11.5.3 13.4 2.4 17.4 3.1 6.2 5.4 7.2 15.2 6.7 7-.3 8.3-.1 9.3 1.5 1.3 2.1 6.1 2.4 7.9.6.9-.9 1.2-7 1.2-21.5V1126l-2.4-.6c-1.3-.3-3.4-.1-4.5.6-1.9 1-2.1 1.9-2.1 11.6 0 15.4-2.5 19.9-10.8 19.2-5.3-.4-6.2-2.9-6.2-17.4 0-8-.4-12.4-1.2-13.2-1.8-1.8-5.3-1.5-7.1.6z" stroke-width="3" fill="#E5B200" stroke="#E5B200"/><path d="M377.2 815.2c-4.6 2.3-10.8 6.5-13.9 9.3-4.9 4.4-5.6 5.6-6 9.7-.5 4.3-.3 4.9 2.8 7.8 7.9 7.2 24.4 11.3 36.2 9 7.6-1.5 16.1-5.7 21-10.5 5.3-5.3 5.2-9.4-.6-14.9-6.5-6.3-22.5-14.3-28.7-14.5-1.4-.1-6.2 1.8-10.8 4.1zm-4.2 42.9c0 1.6 8.1 7.8 12.3 9.4 4.4 1.7 4.9 1.7 9.1.1 3.9-1.5 12.4-9.1 11.4-10.2-.2-.2-3.9.4-8.1 1.2-6.8 1.4-8.8 1.4-16.2.2-4.7-.8-8.5-1.1-8.5-.7z" stroke-width="3" fill="#FC0" stroke="#FC0"/><path d="M281 872.7c-3.1 1.2-7 6.6-8.6 12-2 6.8-1.5 21.9.9 27.3 5.1 11.8 15.9 12.2 21 .7 1.5-3.4 2.5-3.4 3.7-.2 1.8 4.8 6.1 8.5 9.7 8.5 4.7 0 6.6-1.2 9.9-6.5 1.6-2.5 3.2-4.5 3.6-4.5.3 0 1.1 1.2 1.6 2.7 1.8 5 5.9 8.3 10.1 8.3 4.3 0 7.7-3 10.7-9.5 1.5-3.2 1.9-6.3 1.8-15.5 0-10.7-.2-11.8-2.8-16.3-2.8-4.8-6.8-7.7-10.5-7.7-2.8 0-7.9 4.7-9.7 8.9l-1.5 3.6-3.2-5.2c-5.2-8.7-12.2-9.6-17.1-2.3-1.4 2.2-2.6 4.4-2.6 4.9s-.7 1.1-1.5 1.5c-.9.3-1.5 0-1.5-.9 0-.8-.4-1.5-1-1.5-.5 0-1-.6-1-1.3-.1-1.6-3.1-5.1-5.7-6.6-2.3-1.2-3.9-1.3-6.3-.4zm7.7 8.1c4.8 7.2 5.4 20.9 1.2 29.5-4 8.1-8 8.3-11.8.4-4.4-9-3.6-23.7 1.5-30.5 3.2-4.1 6-4 9.1.6zm23.1-1.5c3.3 3.5 5.2 10.2 5.2 18.1 0 5.9-.5 8.2-2.7 12.6-3.9 7.5-5.7 8.3-9.3 4.3-3.5-3.9-5-8.9-5-17.1 0-8.3 1.6-14.3 4.6-17.5 3-3.3 4.4-3.4 7.2-.4zm24.5-.6c5.5 6.2 7 21.7 2.9 30.8-4 9.1-8.2 9.3-12.3.8-1.8-3.7-2.3-6.6-2.4-12.3 0-9.8 1-14.3 4.1-18 2.9-3.4 5.4-3.8 7.7-1.3zm104-4.9c-1.2.9-3.3 4.2-4.8 7.2-2.3 4.8-2.7 6.8-2.7 15 0 8.3.3 10.2 2.7 15 3.6 7.2 6 9.5 10.5 9.5 2.8 0 4.4-.8 6.8-3.3 1.8-1.8 3.2-3.9 3.2-4.6 0-.8.7-1.9 1.5-2.6 1.3-1 1.7-.7 3 2.3 2.2 5.2 7.1 9 10.9 8.3 3.6-.8 8.2-4.9 9-8.2.9-3.5 3.3-2.9 5.5 1.3 2.3 4.6 7.2 7.7 10.6 6.9 5.5-1.4 8.6-6.6 11.5-18.9 1.2-5 1.1-6.6-.4-12.7-2.3-9.5-2.9-11.1-6.1-14.3-5.3-5.2-11.2-3.1-17.5 6.2-1.5 2.2-1.5 2.2-5-3.1-2.9-4.4-4-5.4-6.9-5.6-5.4-.5-8.5 1.4-11.2 6.9l-2.5 5.1-2.4-4.7c-1.3-2.6-3.3-5.3-4.4-6.1-2.8-1.9-8.6-1.7-11.3.4zm9.2 4.6c3 3 4.8 9.4 4.8 17.6 0 3.6-.6 8.5-1.2 10.9-1.2 4.3-5 9.1-7.1 9.1-2.1 0-5.9-4.8-7.1-9.1-2.9-9.6-1-23.8 3.6-28.5 1.3-1.3 2.9-2.4 3.5-2.4.6 0 2.2 1.1 3.5 2.4zm24.8.6c3.3 3.9 5.1 12.7 4.4 21.2-.6 7.1-2.2 11.1-5.6 14.2-7.2 6.5-14.1-14.1-9.7-28.9 1.5-4.9 5-9.5 7.2-9.5.7 0 2.4 1.3 3.7 3zm23.8-.9c3.7 3.7 5.1 8.8 5.1 18 0 18.1-8.7 26-14.4 13.1-3.1-7-3.5-16.4-.9-23.7 1.9-5.5 5-9.5 7.2-9.5.5 0 1.8.9 3 2.1z" stroke-width="3" fill="#E57F00" stroke="#E57F00"/><path d="M326.1 886.7c-1.2 4.3-1.3 16.8-.2 19.7.4 1.1.6-1.8.3-6.5-.2-4.6.1-10.2.7-12.4.6-2.1.9-4.1.6-4.3-.2-.2-.8 1.3-1.4 3.5zm175.4 9.3c0 6.1.3 10.1.7 8.8.3-1.3.6-5.2.6-8.8 0-3.6-.3-7.5-.6-8.8-.4-1.3-.7 2.7-.7 8.8zm-201.1-3.4c-.3 3-.3 7.4.2 9.7.8 3.5.9 2.5.9-5.6.1-5.3 0-9.7-.1-9.7-.2 0-.6 2.5-1 5.6z" stroke-width="3" fill="#FF9919" stroke="#FF9919"/><path d="M439.7 886.3c-1.3 3.5-1.7 10.6-.8 14.7l1 4.5-.3-5c-.2-2.8 0-7.3.4-10 .8-5.1.7-6.7-.3-4.2z" fill="#F93" stroke="#F93" stroke-width="3"/><path d="M443.6 879.5c-2.3 2.4-3.9 9.1-3.8 17.1 0 8.2 1.4 13.3 4.3 16 2.1 1.8 2.1 1.8 4.4-.8 3.5-4.1 5-12.8 3.7-21.2-1.5-9.6-5.2-14.4-8.6-11.1zm24.2.7c-2.2 3.4-4.8 12.2-4.8 16 .1 4.4 3.6 14.7 5.7 16.7 1.5 1.5 1.9 1.4 4-.7 3.2-3.2 4.6-9.9 4.1-19.1-.3-5.8-1-8.7-2.7-11.5-2.6-4.2-4.3-4.5-6.3-1.4zm23.7 1.5c-1 2.1-2.2 4.6-2.6 5.5-1.3 2.5-1.1 17.8.1 17.8.6 0 1 .9 1 1.9 0 1.1 1.1 3.3 2.4 4.8l2.4 2.8 2.5-2.4c5.5-5.1 5.9-23.8.7-31.1-2.8-4-4.3-3.8-6.5.7zm-211.6 1.5c-2.1 3.7-2.4 5.6-2.4 13.9 0 8.8.2 9.9 2.8 13.7 1.5 2.3 3.2 4.2 3.7 4.2s2.2-1.9 3.7-4.3c2.4-3.8 2.7-5.1 2.8-13.3 0-9-.9-12.5-4.4-16.7-2.2-2.6-3.5-2.1-6.2 2.5zm25.2-1.1c-4.6 6.1-4.4 24.1.1 29.9 1.3 1.6 2.8 2.9 3.4 2.9.7.1 2.4-2.4 4-5.6 2.5-4.8 2.9-6.7 2.8-13.6 0-5.3-.5-8.2-1.2-8.5-.7-.2-1.2-1-1.2-1.8 0-2.1-3-6.4-4.4-6.4-.7 0-2.3 1.4-3.5 3.1zm24.5-.5c-4.9 6.8-4.4 25.5.9 31.1l2.6 2.8 2-2.4c1.1-1.4 2.3-3.8 2.6-5.3.3-1.6 1-3.1 1.4-3.4 1.2-.7 1.2-15.4 0-15.4-.5 0-1.1-1.4-1.5-3.2-.7-3.4-3.2-6.8-5-6.8-.6 0-1.9 1.2-3 2.6z" stroke-width="3" fill="#FFB233" stroke="#FFB233"/><path d="M415.4 1107.5c0 4.9.1 7.1.3 4.8.2-2.3.2-6.4 0-9-.2-2.6-.3-.8-.3 4.2zm-14.1 17.5c0 4.7.2 6.6.4 4.2.2-2.3.2-6.1 0-8.5-.2-2.3-.4-.4-.4 4.3zm148.1 14c0 5.8.1 8.1.3 5.2.2-2.8.2-7.6 0-10.5-.2-2.8-.3-.5-.3 5.3zm-224 10.5c0 6 .1 8.4.3 5.2.2-3.2.2-8.1 0-11-.2-2.9-.3-.3-.3 5.8z" stroke-width="3" fill="#E5B219" stroke="#E5B219"/></svg>