<svg version="1.0" xmlns="http://www.w3.org/2000/svg" viewBox="0 0 783 1257"><g fill="#FFF" stroke="#FFF" stroke-width="3"><path d="M0 628.5V1257h783V0H0v628.5zm281.4-517.1c1.8.8 4.1 2.4 5 3.7 2.9 4.2 1.7 12.3-2.8 18.4-1.5 1.9-1.3 2 4 2 4.9 0 5.9.3 8.1 2.9 2.2 2.6 2.5 3.6 2 8.3-.3 2.9-1.5 6.8-2.6 8.7-3 4.9-2.7 6.3 1.7 7.1 2 .3 7.3 1.8 11.7 3.2 46.8 14.9 82.4 56.1 89.6 103.8 1.6 10.4 1.6 31.9 0 42-1.4 9.3-6.2 25.2-9.7 32.5-1.3 2.7-2.4 5.2-2.4 5.4 0 .3-1.6 3.2-3.6 6.6l-3.6 6.1 5.4 5.7c12.4 13 21 32.6 23.8 54.2 1 7.5 1.6 8.9 4.9 13 9.9 11.8 23.2 35.4 29.6 52.5 4.6 12.4 9.2 27 10 31.6 1.2 7.5 2.1 7.5 3.8-.3.9-4 2.7-12.3 4.1-18.3 4.3-18.7 7.7-33.6 10.2-44.5 6.3-27.2 7.7-33.3 10-44 1.3-6.3 3.5-17.1 4.9-24 1.3-6.9 3.5-18 4.9-24.8 1.5-6.7 3.7-17.5 5-24 1.4-6.4 3.6-16.7 5-22.7 1.3-6.1 3.4-15.3 4.6-20.5 1.1-5.2 2.4-10.2 2.7-11 .4-.8 1.7-5.8 2.9-11s3.4-13.8 4.8-19c1.5-5.2 3.6-13.1 4.7-17.5 1-4.4 2.3-8.9 2.9-10 .5-1.1 1.8-5.2 2.8-9 3.9-14 6.4-22 7.2-23 .4-.6 1.3-2.8 2-5 2.5-7.8 7.1-16.5 10.8-20.5 4.6-4.8 8.9-5.4 12.6-1.7 4.3 4.3 8.6 22.3 8.6 35.7 0 3.8.4 5.9 1 5.5.6-.3 1-1.5 1-2.6s1.6-6.8 3.6-12.7c10.5-31.6 21.6-51.6 36.2-65.3 9.8-9.2 15.8-12.3 23.8-12.3 5.2-.1 6.5.3 9.5 2.8 7 5.9 9.2 11.9 11.4 31.3 1.3 10.6 1.4 15.7.6 25-1.6 17.8-1.6 17.9 3 8.8 8.4-16.4 18.3-29.4 27-35.2 4.4-2.9 13.5-6.3 16.9-6.3 1.4 0 4.2 1.3 6.1 3 4.9 4 6 9 6 26.9-.1 13.7-2.5 43.8-3.8 47.1-.3.8-1.6 8-2.9 16-1.2 8-3.4 20.1-4.8 27-10.3 51.1-15.7 74.8-30.1 132-1.4 5.8-3.7 15.4-5.1 21.5-1.4 6-3.6 15.9-5 22-1.4 6-3.6 15.9-5 22-1.4 6-3.6 15.8-5 21.7-1.3 6-3.5 15.6-4.8 21.5-2.4 10.7-5.5 23.9-10.2 44.3-1.3 5.8-3.5 15.4-4.9 21.5-1.3 6-3.6 15.9-5 22-1.4 6-3.6 15.7-4.9 21.5-1.3 5.8-3.6 15.7-5 22-1.4 6.3-3.1 13.7-3.7 16.5-1 4.6-7.6 21.2-13.5 34.2-1.3 2.8-2.4 5.4-2.4 5.8 0 .3-3.4 7.6-7.6 16.3-4.2 8.6-8.1 16.6-8.6 17.7-.5 1.1-2.2 4.2-3.8 7-1.6 2.7-3.8 6.8-5 9-1.1 2.2-3.4 6.2-5 9-1.6 2.7-4.8 8.8-7.2 13.5-2.3 4.7-4.9 9.6-5.9 11-.9 1.4-5.9 9-11 17-5.2 8-10.1 15.5-10.9 16.7-.8 1.1-3.7 5.4-6.5 9.5-5 7.3-18.7 25.8-21.5 28.9-3.3 3.7-5.7 6.6-8.7 10.4-1.7 2.2-7.5 7.4-12.8 11.5-5.4 4.1-14.2 11.1-19.6 15.6-9.8 7.9-10 8.2-15.3 19-2.9 6-5.6 11.9-6 13.1-.4 1.2.1 8.6 1 16.5 1.9 16.9 1.5 27.9-1.1 30.8-4.1 4.6-11.2 1.4-17.5-7.8l-2.2-3.3-9.1 9.7c-13.4 14.3-19.9 19.4-24.6 19.4-2 0-4.2-.5-4.9-1.2-1.7-1.7-1.5-9.9.4-14.3.8-2 1.4-4.1 1.2-4.5-.2-.5-2.8.3-5.9 1.8-22.5 10.7-33.9 14-37.2 10.7-4.2-4.2-.9-9.2 14.7-22.5l10-8.5-7.3-.7c-7.7-.8-11.1-2.6-11.1-5.9 0-1.8 6.3-7.9 8.3-7.9.7 0 1.8-.4 2.6-.9 1.1-.7 1-1.4-.6-3.7-1.1-1.6-2.8-5.3-3.7-8.1-1-2.9-2.2-5.5-2.7-5.9-.5-.3-3.1.8-5.7 2.4-15.9 10.1-34 18.2-37.5 16.9-.9-.3-2.3-1.8-3.3-3.2-1.5-2.2-1.5-3.2-.5-6.6.7-2.3 2.8-6.3 4.8-9.1l3.6-5-4.4.6c-2.4.3-10 1.3-16.8 2.2-13.4 1.8-21.9 1.4-25.7-1.1-3-2-3.1-5.6-.1-8.8 3.1-3.5 20.2-12 29.5-14.8 4.1-1.2 5.7-2.9 2.6-2.9-2.9 0-12.5-5.2-14.1-7.6-1.3-2.1-1.4-2.9-.3-4.9 2.4-4.5 5.4-4.9 40.3-5.3l32.7-.3 1.8-2.5c.9-1.4 3-4.1 4.5-6.1s2.6-4.2 2.5-4.9c-.3-1.1-2.4-3.1-24.2-22.4-8.4-7.4-11.9-11.4-16-18-2.9-4.7-5.6-9.2-6-10-.3-.8-2.4-4.4-4.6-7.9-2.2-3.4-4-6.5-4-6.7 0-.2-2-4-4.4-8.3-5.7-10.3-14.2-29-15.1-33.3-.8-3.6-5.6-16.1-8.5-22.3-1.1-2.2-3.8-8.3-6.1-13.5-3.8-8.7-5.2-12.5-10.4-27.5-2.7-7.7-6.6-17.7-8.2-20.8-.8-1.6-2.1-5.6-2.9-9-.7-3.4-2.5-10.9-3.8-16.7-1.4-5.8-3.6-15.6-5-21.8-1.4-6.1-3.7-16.2-5.1-22.2-1.3-6.1-3.6-16-5-22-5.5-24.5-7.4-32.9-9.4-42-1.2-5.2-3-12.9-4.1-17-5.5-21.3-6.9-31.5-7-50 0-19.2 1.7-28.5 8.1-43.3 1.6-3.7 2.9-6.9 2.9-7.1 0-.2-2.4-.6-5.2-.9-9.9-1-24.1-6.7-33.8-13.4-7.8-5.4-19.1-17.8-29-31.7-2.4-3.4-2.7-3.5-9-3.6-18.3-.1-38.1-6.4-54.4-17.1l-4.7-3.1-4.4 1.7c-6.7 2.5-8.9 1.8-9.3-2.9-.6-6.9 6.9-26.2 13.9-35.9 10.3-14.4 32.2-30.8 48-36 1.1-.4 1.9-2.3 2.4-5.4 1.7-11.6 10.7-31.8 19.8-44.2 6.9-9.6 24.5-26.1 35.3-33.4 6.5-4.4 10.4-7.6 10.7-9 .9-3.7 5.7-14.7 10.1-22.9 7.8-14.7 19.6-28.3 29.2-33.7 1.6-.9 3.1-1.9 3.4-2.2 2.6-3.4 25.1-5.1 31.4-2.5zM383 1091.9c1.6 1.8 3.4 5.6 4.5 9.3.9 3.5 2 6.7 2.4 7.3.4.5 2.7 7 5.1 14.2 2.5 7.3 4.7 13.3 5 13.3.3 0 2.9-6.9 5.9-15.3 10.7-30.5 11.4-31.7 17.3-31.7 3.8 0 7.8 4.2 7.8 8.3 0 3-2.3 11.3-6 21.2-1.8 5-4.4 12.8-8 24-3.7 11.8-6.1 17.9-7.6 20.4-5.5 8.8-14.4 7.9-19.4-1.9-1.1-2.1-6-16-11-30.9-10.1-30.7-10.9-35.4-6.4-39 3.7-2.9 7.1-2.6 10.4.8zm-142.1 10.3 2.4 2.1-.8 29.6c-.4 16.3-1.1 30.3-1.5 31.1-.5.9-2 2.2-3.5 3-2.2 1.2-2.9 1.2-5.3-.2s-3.2-1.4-6.7-.2c-2.2.7-5.2 1.4-6.7 1.4-3.4 0-11.6-3.5-14.6-6.3-12.1-11.3-6-34.4 10.2-38.8 3.9-1.1 10.2-.7 13.9.7 1.5.5 1.7-.4 1.7-9.4 0-8.5.3-10.3 2.1-12.6 2.5-3.2 5.7-3.3 8.8-.4zm345-.5 2.4 1.6-.6 30.1c-.3 16.6-.8 30.8-1.2 31.8-.3.9-1.9 2.1-3.5 2.8-3.4 1.4-6.7 0-7.8-3.3-.4-1.2-.5-15.4-.2-31.6.6-29.2.6-29.3 2.9-31.2 2.9-2.3 4.9-2.4 8-.2zm-280.4 20.9c1.8 1.1 3.5 1.4 6 1 6.2-1.2 12.5.3 16.4 4l3.6 3.3-2 3.8c-2.4 4.5-4.5 5.1-9.1 2.7-3.1-1.7-3.7-1.7-7.6-.4-5.2 1.8-5.6 3-5.7 17.2-.1 10.3-.2 10.7-2.7 12.7-3.1 2.4-5.3 2.6-7.9.7-1.8-1.3-1.9-2.7-1.7-22.2.3-19.7.4-21 2.4-22.7 2.5-2.1 5.1-2.2 8.3-.1zm-25.4 2.7c4.9 3.2 7.4 7.8 7.4 13.4 0 2.9-.5 5.7-1.2 6.4-1.3 1.3-5 2.1-19.2 4.2-4.7.7-8.6 1.8-8.8 2.4-.6 1.8 7.1 5.3 11.7 5.3 4.4 0 7.2-1.1 10.7-4.2 2.8-2.6 6.5-2 7.7 1.3 2.2 6.3-1.8 10.6-12.6 13.5-5.8 1.6-7.3 1.6-12.2.4-7.4-1.7-10.9-4-14.3-9.1-2.5-3.8-2.8-5.2-2.8-12.3 0-7.1.4-8.7 2.8-12.7 2.5-4.2 7.6-8.6 11.7-10.3 3-1.2 16.5 0 19.1 1.7zm186.8-1c7.6 2.7 12 13.4 10.7 26-.9 9.4-4.6 14.4-12.5 17.2-5.8 2-11 1.9-16.4-.4-5.4-2.3-8.1-5.7-10.1-12.6-2.1-6.9-2-9 .4-16.1 2.3-6.6 7.8-13 12.5-14.3 4.3-1.3 11.4-1.2 15.4.2zm50.1.7c1.1 1.1 2.4 2 2.9 2s1.4.7 2.1 1.5c1 1.2 1 5.2 0 19.8-1.7 27.1-3.8 33.8-12 38.6-4 2.3-5.5 2.6-14 2.6-11.7-.1-16-1.8-16-6.6 0-1.8.9-3.9 2.4-5.4 2.1-2.1 2.9-2.3 5.1-1.5 4 1.5 12.2 1.2 15.6-.6 2.4-1.2 5.9-6.4 5.9-8.7 0-.3-3-.2-6.7 0-17 1.2-23.9-5.8-21.8-22.5 1.7-14.4 10.1-21 26.8-21.1 6.4-.1 8 .2 9.7 1.9zm38.7-.9c9.4 3.5 14.5 17.3 7.9 21.3-1.8 1.1-15.9 4-23.5 4.8-4 .5-3.5 2.5 1 4.9 5.6 2.8 12.2 2.3 17.1-1.4 4-3.1 6-3.4 8.2-1.1 6 5.9-6.3 16.4-19.3 16.4-4.5 0-13.4-3.6-16.4-6.8-10.1-10.6-6.4-31.3 6.7-37.3 4.6-2.1 13.9-2.5 18.3-.8z"/><path d="M238.7 223c-10.1 1.7-19.6 12.6-19.7 22.7-.1 12.8 11.5 24.3 24.7 24.3 15.7 0 26.8-15.7 22.1-31.3-1.7-5.8-10.5-14.4-15.5-15.2-2.1-.4-4.5-.8-5.3-1-.8-.1-3.6.1-6.3.5zm4.2 16.5c3.5 3 5.5 8.3 4.6 12.4-.9 4-6.4 9.1-10.8 9.8-9 1.4-16.9-9.6-12.7-17.8 3.7-7.1 13-9.3 18.9-4.4z"/><path d="M229 245.5c0 3.1 2.6 4.3 4.7 2.2 2.1-2.1.9-4.7-2.2-4.7-2 0-2.5.5-2.5 2.5zm157.1 630.7c-2.8 3.4-3.7 5.5-4.7 11.7-2.2 13.7-5.2 26.9-6.8 30-2 3.7-2.1 5.7-.3 4.4.6-.6 4.4-1.8 8.2-2.8 3.9-1 7.5-2.2 8-2.5.6-.4 4.2-1.5 8-2.3 13.1-3 14.1-3.7 16.5-11.8 1.8-5.9 1.9-7.4.8-8.4-19-17.5-24.8-22.5-25.5-22.5-.4 0-2.3 1.9-4.2 4.2zm-169.9 259.3c-3.3 1.5-6.2 6.3-6.2 10.5 0 1.6 2.2 7.2 3.4 8.7.1.1 1.8.9 3.7 1.7 3.2 1.3 3.9 1.3 7.7-.4l4.2-1.9v-8c0-7.3-.2-8.2-2.2-9.5-3.6-2.3-7-2.7-10.6-1.1zm49.2-1.4c-1.7.5-3.9 1.8-5 3l-1.9 2.1 4.3-.6c2.3-.3 6-.9 8.2-1.2 2.2-.3 4-1 4-1.5s-.1-.9-.3-.9c-.1 0-1.6-.4-3.2-.8-1.7-.5-4.4-.5-6.1-.1zm188.3 3.1c-2.8 2.9-5.2 9.9-4.4 13 1.9 7.4 8.2 9.9 13.4 5.4 2.6-2.3 2.8-3 2.8-9.9 0-4.8-.5-8-1.4-9-2-2.5-7.7-2.2-10.4.5zm45.8-.2c-5.7 2.3-9.4 12-5.9 15.5 1.4 1.3 2.9 1.6 6.7 1.2 6.9-.6 8.8-2.8 9.4-11.1l.6-6.6-4.4.1c-2.4 0-5.3.4-6.4.9zm45-3.2c-2.6.6-6.5 3.2-6.5 4.4 0 .5 1.2.7 2.8.4 1.5-.3 5.1-.8 8-1.1 2.8-.4 5.2-1 5.2-1.5 0-1-7-2.7-9.5-2.2z"/></g><g fill="#007F19" stroke="#007F19" stroke-width="3"><path d="M261.6 112.1c-12.4 2-26.4 13.1-36.9 29-4.7 7.3-12.6 22.5-12.7 24.7-.1.4-.9 2.5-2 4.7s-1.9 4.6-2 5.3c0 .7-.8 1.6-1.7 2-3.1 1.2-10.6 6.4-18.8 13.1-11.8 9.5-20.3 18.6-27.2 29.2-2.4 3.5-4.6 6.8-5 7.4-.5.5-1.7 3-2.8 5.5-1.1 2.5-2.2 4.7-2.5 5-.9.8-6.1 17.3-6.7 21.2l-.6 3.8 3-1c2.6-1 3.1-1.9 4.6-8.1 6.1-25.2 29.4-54.3 56.6-70.4 4.1-2.4 5.4-3.9 6.7-7.5 7.7-20.8 15.7-34.4 27-45.7 9.5-9.7 17.6-13.5 28.4-13.6 8.5-.1 12 1.3 12 4.6s-4.8 10.4-11.3 16.7c-6 5.8-6.6 7-4.2 9 1.2 1 3.1.6 10-1.9 9.6-3.5 12.7-3.8 14.5-1.6 1.8 2.1-.1 7.6-5.6 16.4l-4.1 6.7 11.6 2.4c21.1 4.3 35.2 10.7 52.9 23.9 32.6 24.2 51.9 69.2 47.3 110.2-1 8.9-5.2 27.1-7.1 30.8-.5.9-2.6 5.5-4.8 10.3-2.2 4.7-5.8 11.3-7.9 14.5l-3.9 5.9 3.9 2.4c5.1 3.2 11.9 10.8 16.1 18 4.1 6.9 9.1 20.4 10.6 28.2 1 5 6.4 14.8 7.6 13.6.6-.7-2.4-17-4-21.3-.8-2.2-1.5-4.6-1.6-5.4 0-.8-1.3-4.3-3-7.8-1.6-3.4-3-6.5-3-6.7 0-1.5-8.6-12.9-12.9-17.1-2.8-2.7-5.1-5.5-5.1-6.1 0-.7 1.7-4.1 3.8-7.5 6.7-11.2 13.2-29.2 15.4-42.2 1.5-9.3 1.5-35.1 0-44.4-1.9-11.4-9.1-32.2-13.4-38.5-1-1.4-1.8-3-1.8-3.5 0-.8-9.7-14.7-13.5-19.2-3.5-4.2-14-14.5-16.9-16.6-1.5-1.1-4.4-3.3-6.4-4.8-4.2-3.3-19.2-11.8-24.2-13.7-1.9-.7-3.9-1.6-4.5-2-.5-.4-3.9-1.5-7.5-2.4-3.6-1-7.4-2.2-8.5-2.6-1.1-.5-3.7-1.1-5.8-1.5-4.3-.7-4.3-1.4-.1-9.5 2.8-5.2 3.2-12.1.8-14.4-2.1-2.2-5.7-3-10.5-2.3-4.8.6-5-.4-1-6.4 1.6-2.4 3.2-6 3.6-8 .6-3.1.3-4.1-2.2-6.8-2.2-2.5-4-3.4-8.8-4.1-6.7-1.1-7-1.1-13.9.1z"/><path d="M622.5 121.1c-10.2 5.5-18.1 13.2-27.3 26.7-3 4.5-10.2 18.6-10.2 20.1 0 .6-.4 1.1-.8 1.1-.5 0-1.5 1.9-2.1 4.2-.7 2.4-2.1 6.1-3.1 8.3-1 2.2-2.3 6-3 8.5-.7 2.5-1.5 4.9-2 5.5-.4.5-1.5 4.1-2.4 8-1.9 7.6-3.7 12.5-4.8 12.5-.3 0-.9-4.4-1.3-9.8-1.3-17.7-3.9-30.6-7.2-35.1-3-4-7.6-4-11.2 0-4.8 5.2-9.9 16.6-15.2 33.9-1.1 3.6-2.4 7.4-2.9 8.5-.5 1.1-1.6 4.9-2.5 8.5-.9 3.6-2 7.4-2.5 8.5-.4 1.1-1.6 5.4-2.6 9.5-.9 4.1-2 7.9-2.4 8.5-.4.5-1.5 4.8-2.5 9.5-.9 4.7-2.1 8.9-2.5 9.5-.4.5-1.5 5-2.4 10-1 4.9-2.1 9.4-2.6 10-.4.5-1.5 5.3-2.5 10.5-.9 5.2-2 9.9-2.3 10.5-.4.5-1.7 5.9-3 12-1.2 6-3.4 16.4-4.7 23-1.4 6.6-3.7 17.4-5 24-1.4 6.6-3.6 17.6-5 24.5-4.1 21.6-6.6 33.4-7.2 35-.3.8-1.7 6.2-3 12-4 17.9-9.3 41.1-18.8 82.5-1.5 6.6-1.4 17.2.3 20 .3.5 1.6-3.8 2.9-9.5 1.2-5.8 3.4-15.5 4.8-21.5 1.4-6.1 3.4-14.8 4.4-19.5 1.1-4.7 3.4-14.6 5.1-22 1.8-7.4 4.3-18.5 5.7-24.5 1.3-6.1 3.5-15.7 4.9-21.5 1.3-5.8 3.3-15.7 4.4-22 1.1-6.3 2.5-12.9 3-14.5.5-1.7 1.4-5.9 2-9.5.6-3.6 1.7-9.2 2.5-12.5.8-3.3 2.3-10.5 3.4-16s3.1-15.2 4.5-21.5c1.5-6.3 3.5-15.7 4.5-20.8 1.1-5.1 2.2-9.6 2.5-10.1.3-.4 1.4-4.6 2.5-9.2 3.1-13.5 6-24.9 8-31.9 1-3.6 3.1-11 4.5-16.5 10-37.3 20.6-64.5 25.2-64.5 2.5 0 4.2 6 6.4 22.4 1.3 10.6 2 21.4 2 33.2V247h2.9c3.2 0 2.6 1.7 7-19 5.8-27.7 16.9-57.8 28-75.6 6-9.6 8.3-12.4 15.2-18.7 7.6-7 16.3-11.3 20.4-10.3 3.5.9 7.2 5.8 9.6 13.1 2.3 6.6 2.4 8.3 2.4 32-.1 15.1-.6 28.2-1.4 33-1.8 11.5-4.1 28.9-3.8 29.1.1 0 1.4.4 2.8.7 2.5.6 2.7.4 4.9-6.9 2.5-8.4 9.3-25.8 13.7-34.9 6.6-13.8 13.6-23.8 21.2-30.7 6.1-5.5 10.7-7.8 15.5-7.8 3 0 3.8.5 5.3 3.2 1.5 2.8 1.8 5.8 1.6 19.8 0 9.1-.6 19.6-1.2 23.5-.6 3.8-1.8 12.2-2.6 18.5-.8 6.3-2.2 14.6-2.9 18.5-.8 3.8-2 10.4-2.6 14.5-.6 4.1-2 11.3-3 16-1.1 4.7-2.6 12.1-3.5 16.5-1.9 9.6-5.5 25.8-9 41.5-1.5 6.3-3.3 14.4-4.1 18-.7 3.6-2 9-2.9 12-.8 3-3 12.2-5 20.5-2 8.2-4.4 18.1-5.4 22-1.1 3.8-3.1 12.4-4.6 19-1.5 6.6-3.8 16.5-5 22-1.3 5.5-3.5 15.4-5 22s-3.4 14.7-4.2 18c-.8 3.3-2.1 9.1-2.9 13-.8 3.8-2 9.2-2.8 12-.8 2.7-1.7 6.8-2.1 9-.3 2.2-1.7 8.7-3.1 14.5-1.3 5.8-3.4 14.5-4.5 19.5-1.1 4.9-3.1 13.5-4.4 19-1.2 5.5-3.7 16.3-5.4 24-5.4 23.7-7 30.6-9.5 41.5-1.4 5.8-3 13.2-3.6 16.4-1.3 6.2-3.5 12.6-9.5 26.6-2 4.7-4.5 10.6-5.5 13.2-1.1 2.6-2.4 5.5-2.9 6.5s-4.6 9.4-9.1 18.8c-4.6 9.3-12.4 24.4-17.5 33.5-5 9.1-10.3 18.7-11.7 21.5-3.9 7.8-28.9 45.8-40.5 61.7-11.7 16-23.8 29.7-31 35.1-3.8 2.9-9.6 7.5-12.9 10.1-3.2 2.6-6.8 5.4-7.9 6.3-1.1.9-4.7 3.9-7.9 6.7l-5.9 5.1-9.4.3c-5.2.2-10.4.1-11.6-.2-1.2-.3-4.3-2.5-6.8-4.8-2.5-2.4-6.8-6.3-9.5-8.7-4.8-4.3-9.1-8.2-24.5-22.6-14.8-13.8-17.5-16.2-27.9-25.2-16-13.8-19.2-17.2-24.1-25.3-2.5-4.1-6.8-11.3-9.6-16-7.8-12.9-19-36.3-22.9-47.5-3.7-10.7-8.3-22.4-9.5-24-.4-.6-1.7-3.7-3-7-1.2-3.3-2.5-6.5-2.9-7-1-1.4-5-11.6-9.8-25.5-2.2-6.3-5.5-14.9-7.2-19-2.9-7-4.2-11.8-10.5-40-1.3-5.8-3.5-15.7-5-22-1.5-6.3-3.8-16.3-5.1-22.2-1.3-6-3.5-15.6-4.9-21.5-1.3-6-3.6-15.8-4.9-21.8-4.3-18.9-6.4-27.8-8-34-2.2-8.3-4.6-29.3-4.6-39.4 0-16.9 5.2-38.4 11-45.8 1.2-1.6 2-4.1 2-6.4 0-3.6-.2-3.9-2.9-3.9-5.5 0-22.1-4-29.1-6.9-3.8-1.6-9.3-4.7-12.2-6.9-5.7-4.2-17.6-16.4-20.5-20.9-3.4-5.5-8.6-11.4-9.2-10.5-.3.5-1.5 1.1-2.5 1.3-1.7.4-1.8.6-.5 1.9.8.8 4 4.9 7.1 9.1 10.6 14.2 21.1 23.7 32.8 29.6 5.4 2.8 18.7 6.8 25.3 7.8 2.6.3 4.7 1.1 4.7 1.8s-1.3 4-3 7.4c-1.6 3.3-3.5 8.5-4.1 11.4-.6 3-1.6 6-2.2 6.8-1.5 1.8-2.2 37.8-.9 46.1 1.9 11.9 5.2 27.5 6.1 29.5.6 1.1 1.8 6 2.6 11 .9 4.9 2.1 9.9 2.5 11 .5 1.1 1.9 6.5 3 12 4.7 22.2 6.7 31.1 7.3 32.5.3.8 1.5 6 2.7 11.5 1.2 5.5 3.2 14.9 4.6 21 1.4 6 3.6 15.7 4.9 21.5 5.2 23.1 6.2 26.9 7.2 28.2.5.7 1.8 3.5 2.7 6.3 1 2.7 2.4 6.3 3.1 8 .7 1.6 1.9 5 2.6 7.5.7 2.5 1.6 4.7 1.9 5 .4.3 1.3 2.7 2 5.5 1.4 5.2 3.5 10.1 12.3 29.5 1.9 4.1 3.8 8.6 4.2 10 .4 1.4 1.1 2.9 1.5 3.5.5.5 1.6 3.9 2.5 7.3.9 3.5 2 7.1 2.5 8 .5 1 2.3 4.8 4.1 8.7 5.1 11.5 10.2 21.2 18.4 35.5 2.1 3.6 4.3 7.4 4.9 8.5 6.1 10.9 11.3 17 24.2 28.5 14 12.3 30.7 27.4 35.4 32 2.2 2.2 16.6 15.3 32.4 29.7l5.9 5.3h26.5l3-3c2.4-2.4 23.3-19.2 37.9-30.5 1.7-1.4 7.6-7.8 13-14.4 9.4-11.4 11.9-14.7 25.4-34.1 6.6-9.4 6.6-9.5 11.1-16.5 1.7-2.8 5.5-8.6 8.3-13 8.1-12.5 8.7-13.5 12.9-22 2.2-4.4 4.2-8.2 4.6-8.5.3-.3 1.2-2 2-3.8.7-1.9 1.8-3.9 2.5-4.5 1.4-1.5 2-2.7 16.1-30.7 6.3-12.4 11.4-22.8 11.4-23.2 0-.7 2.1-5.5 7.5-17.3 1.2-2.8 2.6-6.1 3-7.5.4-1.4 1.6-4.4 2.6-6.6 1-2.3 2.5-7.2 3.4-11 4.3-18.7 9.7-42.5 13.9-61.2 3.3-14.7 6.8-30 10.1-44.2 4.8-20.9 7.3-32.4 9.5-42.5 1.2-5.5 2.4-10.7 2.7-11.5.6-1.4 2.4-9.5 7.3-32.5 1.2-5.5 2.4-10.7 2.7-11.5.6-1.4 2.4-9.5 7.3-32.5 1.2-5.5 2.4-10.7 2.7-11.5.8-2 4.9-18.2 7.3-29.5 1.1-5 2.3-9.7 2.7-10.5 1.2-2.7 11.9-49.6 17.9-78.5 11.1-53.7 15.5-84.2 15.6-109.5.1-20.5-.8-24.5-6.3-27.2-7.7-3.9-21.5 2.9-31.7 15.5-6.2 7.6-6.8 8.7-14.8 24.4-3.1 6.2-6 11.3-6.4 11.3-.5 0-.6-9.8-.3-21.8.6-25.4-.5-37.8-4.3-46.3-3.7-8.2-7.1-11.1-13.6-11.6-4.5-.4-6.2 0-11.3 2.8z"/></g><path d="M706.3 172c0 4.7.2 6.6.4 4.2.2-2.3.2-6.1 0-8.5-.2-2.3-.4-.4-.4 4.3zm-146.5 44c.3 9.1.6 16.7.8 16.9.7.8.2-22.3-.5-27.9-.4-3-.6 1.9-.3 11zm-383-8.2c-3.5 3.7-7.4 8.3-8.7 10.2-2 3.1-1.9 3 1-.5 1.9-2.2 6-6.8 9.3-10.3 3.3-3.4 5.7-6.2 5.4-6.2-.3 0-3.4 3.1-7 6.8zM392.3 291c0 4.7.2 6.6.4 4.2.2-2.3.2-6.1 0-8.5-.2-2.3-.4-.4-.4 4.3zM223.4 457.5c0 6.6.1 9.2.3 5.7.2-3.4.2-8.8 0-12-.2-3.1-.3-.3-.3 6.3zM415 884.3c.3.3 2.2 1.9 4.4 3.6 3.8 3 4.1 3.1 14 2.9l10.1-.2-10.7-.5c-8.9-.5-11-.9-13-2.7-2.1-2-5.9-4.4-4.8-3.1z" stroke-width="3" fill="#007F00" stroke="#007F00"/><g fill="#090" stroke="#090" stroke-width="3"><path d="M253.1 121.2c-8.6 4.2-21.6 18.4-28 30.7-2.8 5.2.8.7 4.5-5.6 5.2-8.9 16.5-20.3 24-24.2 3.2-1.6 5.5-3 4.9-3.1-.5 0-3 1-5.4 2.2zm24.1 5.6c-1.1 2.1-5.1 6.7-8.8 10.2l-6.6 6.4 1.7 3.3c1 1.8 2.5 3.3 3.4 3.3 1.4-.1 1.4-.2-.1-1.1-1-.5-2.3-1.9-2.9-3-.9-1.8-.3-2.8 5-7.9 5.9-5.8 11.8-13.6 10.9-14.5-.2-.3-1.4 1.2-2.6 3.3zm347.9-.6c-5.8 2.9-16.2 12.6-21.8 20.6-4.6 6.4-16.3 28.5-16.3 30.6.1.6 2.2-3.2 4.8-8.4 8.9-18 15.8-28 24.6-35.4 5.5-4.8 12.7-8.5 16.2-8.6 3.5 0 7.1 3.7 8.9 9.1.9 2.8 1.9 4.8 2.2 4.5 1-.9-2.7-9.3-5.2-12-3-3.3-7.4-3.4-13.4-.4zM288.2 149c-.7 2-3.2 6.8-5.7 10.7-3.6 5.9-4.2 7.3-3 8.3.8.6 2.4 1 3.7.7 2-.4 2-.4-.4-.6-3.4-.1-3.5-1.1-.4-5.9 4-6.3 7.7-14.3 7.3-15.5-.2-.7-.9.4-1.5 2.3zm357.1 18.5c0 20.7 0 20.8.9 8.9.5-7.1.5-15.9 0-21-.8-7.7-.9-6.1-.9 12.1zm43.1-11.7c-4.7 3.5-10.9 10.1-15 16.2-4.7 6.9-10.7 18-10.1 18.7.4.3 1.2-.7 1.9-2.3 4.7-11.1 16.6-26.9 24.1-31.9 2.8-1.9 4.7-3.5 4.1-3.5-.6 0-2.9 1.3-5 2.8zm17 16.7c0 6.6.1 9.2.3 5.7.2-3.4.2-8.8 0-12-.2-3.1-.3-.3-.3 6.3zM290 169.9c2 1.2 13 3.4 13.6 2.8.3-.3-2.6-1.2-6.5-2.1-7.8-1.8-9.3-1.9-7.1-.7zm18.5 4.9c.6.5 2.8 1.5 5 2.2 15.6 4.9 39.1 21.9 49.7 35.8 2.4 3.2 4.6 5.9 4.9 6.2.3.3 2.3 3.4 4.4 7 5.8 9.8 7.8 12.7 7.1 10.6-2.8-8.3-17-27.3-28-37.4-7.4-6.7-23-16.9-32.1-20.9-8.1-3.6-12.5-5-11-3.5zm242.2 1c-2 2.2-8.1 15.1-7.4 15.8.2.3 1.5-2 2.7-5.1 1.2-3.1 3.5-6.9 5-8.5 1.6-1.7 2.5-3.2 2-3.5-.4-.2-1.4.3-2.3 1.3zm-337.8 4c-.2.5-4.3 3.4-9 6.5-4.8 3-9 6.1-9.5 6.8-.5.9.2.7 1.6-.4 1.4-.9 5.1-3.4 8.4-5.5 7.9-5 10.2-6.9 9.5-7.7-.4-.3-.9-.2-1 .3zm342.6 2.7c.2 1.6 1 6.8 1.6 11.5.7 4.7 1.4 7.9 1.7 7.2.5-1.7-1.6-16.7-2.9-19.6-.8-1.8-.8-1.6-.4.9zm25.1 12.3c-1 3.1-2.1 6.4-2.4 7.2-.3 1-.2 1.2.5.5 1.2-1.1 4.7-12.5 4-13.1-.2-.2-1.2 2.2-2.1 5.4zm-400.2 10.6c-6.4 6.4-11.3 12-10.9 12.4.4.4 1.5-.4 2.4-1.8 2.1-3.2 12.6-13.8 17.5-17.8 2.2-1.7 3.7-3.5 3.3-3.8-.4-.4-5.9 4.6-12.3 11zm521.8-.2c-1.5 9-2.5 19.4-1.9 18.8.8-.7 3.9-24.2 3.3-24.7-.2-.2-.8 2.4-1.4 5.9zm-59.6 1.5c-1 5.1-2.6 19.6-2.2 20.1.5.5 1.1-2.9 2.6-14.2 1-7.7.8-11.5-.4-5.9zm-66.9 4c-2.3 8.8-2.9 12.1-1.8 10.3 1.1-1.8 4.3-15.1 3.8-15.7-.3-.2-1.1 2.2-2 5.4zm-411.5 14c-4.4 6.5-8.6 14.5-9.6 18.3-.4 1.4 1.4-1.5 3.9-6.5 2.5-4.9 5.6-10.3 6.9-12 2.9-3.9 3.8-5.5 3.2-5.5-.3 0-2.3 2.6-4.4 5.7zm366.4 4.5c-1 3.5-2 7.2-2.3 8.3-.3 1.3-.2 1.7.4 1 1.1-1.1 4.6-14.5 4-15.2-.2-.2-1.2 2.5-2.1 5.9zm39.5 5c-2.1 11.5-2.3 12.4-1.3 10.8 1.1-1.8 3.6-15.9 2.9-16.6-.2-.3-1 2.4-1.6 5.8zm127.9-1.8c0 .3-.9 5.9-2 12.6-1.2 6.7-1.9 12.4-1.7 12.7.3.2 1.2-3.6 2-8.4 2.5-13.9 2.9-17.3 2.3-17.3-.3 0-.6.2-.6.4zM525 249c-1.2 4.5-1.9 8.4-1.6 8.7.2.3.9-1.2 1.5-3.3.5-2.2 1.5-5.9 2.1-8.3.6-2.3.9-4.5.7-4.7-.3-.3-1.4 3.2-2.7 7.6zm-373.4 2.1c-2.3 8.1-3 11.5-2.2 10.7.9-.8 4.7-15.1 4.1-15.6-.2-.2-1.1 2-1.9 4.9zm234.1 2.9c.8 5 3.1 11.8 3.1 9.5.1-1.1-.8-4.5-1.8-7.5-1.3-3.7-1.7-4.4-1.3-2zm306.5 10.2c-1.4 5.6-2.6 14.4-1.9 13.8.7-.7 3.9-17.1 3.4-17.6-.2-.3-.9 1.5-1.5 3.8zm-172.2 4c-.6 2.9-1.4 6.2-1.6 7.3-.4 1.6-.3 1.7.4.5 1.3-2 3.6-12 2.9-12.6-.2-.3-1 1.9-1.7 4.8zm-129.5 21.7c0 10.7.3 17.6.7 15.5.9-5 .9-24.5 0-30.4-.4-2.5-.7 4.2-.7 14.9zm124.5-1.7c-.6 2.9-1.4 6.2-1.7 7.3-.3 1.6-.2 1.7.6.5 1.2-1.8 3.5-11.9 2.8-12.6-.3-.3-1 1.9-1.7 4.8zm172.5-1.1c-.8 3.7-3.5 18.3-3.5 19.3 0 .5.2.7.4.5.8-.8 4.7-21.1 4.2-21.6-.3-.3-.8.5-1.1 1.8zm-177.4 21.5c-1.2 5.3-2 9.9-1.7 10.1.5.6 1.9-4.3 3.6-13 1.9-9.7.5-7.4-1.9 2.9zm172 4c-1.5 5.8-2.4 12-1.8 11.3.8-.7 3.7-14.2 3.2-14.7-.2-.2-.8 1.3-1.4 3.4zm-295.5 10c-2.2 8.7-1.4 9.5.9.9 1-3.6 1.6-6.8 1.3-7.1-.3-.2-1.3 2.5-2.2 6.2zm118.5 8.6c-.7 3.5-1.5 7.4-1.7 8.8-.4 1.8-.3 2.1.4 1 1.2-1.8 3.6-14.9 3-15.6-.3-.2-1.1 2.4-1.7 5.8zm171.5 5.7c-1.6 7.1-2 9.8-1.1 9 .7-.8 3.6-15.1 3.1-15.6-.2-.3-1.1 2.7-2 6.6z"/><path d="M382 336.7c-2.7 6.6-10.2 20.3-13.7 25l-2.4 3.2 4.2 2.6c8.3 5.3 19.5 19.7 21.4 27.8.4 1.5 1.2 3 1.7 3.3 1.4.9.1-2.9-3-9.1-4.6-9.3-11.2-17-19.5-23l-2.8-2.1 5.4-8.7c5.3-8.4 12.3-23.4 11.4-24.3-.2-.3-1.5 2.1-2.7 5.3zm118.1 18.5c-.7 3.5-1.5 7.4-1.7 8.8-.4 1.8-.3 2.1.4 1 1.2-1.8 3.6-14.9 3-15.6-.3-.2-1.1 2.4-1.7 5.8zm172 .4c-1.9 7.4-3.2 13.7-2.7 14.1.2.2 1.3-3.5 2.5-8.3 2-8.7 2.2-13.2.2-5.8zm-507.5.5c.6.8 3.8 5 7.1 9.4 8.3 11.1 19.4 21.3 27.8 25.7 8.1 4.2 19.3 7.8 23.9 7.7 1.9 0 0-.8-5.1-1.9-19.2-4.4-31.5-13.2-46.9-33.6-3.1-4.1-6.1-7.7-6.7-8.1-.9-.5-.9-.3-.1.8zm503.1 17.4c-1.2 3.8-3.7 15.6-3.6 16.8 0 .7 1.2-2.9 2.5-7.8 1.3-5 2.2-9.5 2-10-.1-.6-.6-.1-.9 1zm-172.6 5.7c-.7 3.5-1.5 7.4-1.8 8.8-.3 1.9-.2 2.2.6 1 1.1-1.6 3.6-14.9 2.8-15.6-.2-.3-1 2.4-1.6 5.8zm167 16.3c-.6 2.2-1.3 5.8-1.6 8-.3 2.7.2 1.7 1.5-3 1.1-3.9 1.8-7.5 1.6-8-.2-.6-.8.8-1.5 3zm-172 8.5c-.6 4.1-1.4 8.6-1.7 10-.4 2-.3 2.2.5.9 1.2-1.9 3.4-15.4 2.9-17.1-.3-.7-1 2.1-1.7 6.2zm-259-4.3c4.6.4 4.7.5 5.2 4.1.3 2.7-.2 4.8-1.9 7.7-2.8 4.9-5.6 11.5-4.9 11.5.3 0 1.5-2.1 2.5-4.6 1.1-2.6 2.9-5.9 4-7.4 1.6-2.2 1.8-3.6 1.2-7.1l-.7-4.4-5-.1-5-.1 4.6.4zm164.4 5.8c.4 1.7 1.1 4.6 1.6 6.5 1.4 5.5 1.2 6.5-.8 4.9-1.6-1.3-1.7-1.2-.4.3.7 1 1.7 1.5 2.2 1.2.5-.3.9 0 .9.7s.2 1 .5.8c.6-.6-3-15.7-4-16.7-.3-.4-.4.7 0 2.3zm261.7 11c-.6 2.2-1.4 6-1.6 8.5-.4 3.3 0 2.5 1.4-3 1.1-4.1 1.8-8 1.6-8.5-.2-.6-.8.8-1.4 3zm-172.6 13.1c-1.7 8-1.5 11.5.3 4.8 1.4-5.2 2.5-12.4 1.9-12.4-.3 0-1.2 3.4-2.2 7.6zm-258.4 2.6c-1.3 5.4-2.6 16.5-1.9 15.8.7-.6 3.8-19.3 3.3-19.7-.2-.2-.8 1.6-1.4 3.9zm425.9 6.4c-1.7 6.9-3.3 15.5-2.9 16 .3.2 1.5-3.9 2.7-9.2 1.2-5.3 2-9.9 1.7-10.1-.3-.3-.9 1.2-1.5 3.3zM480 449.7c-.6 3.2-1.4 6.8-1.7 8-.3 1.3-.3 2.3 0 2.3.8 0 4-15 3.4-15.6-.3-.3-1.1 2.1-1.7 5.3zm167.2 10.8c-.6 2.2-1.4 6-1.6 8.5-.4 3.3 0 2.5 1.4-3 1.1-4.1 1.8-8 1.6-8.5-.2-.6-.8.8-1.4 3zm-172.1 10.6c-1.2 5.6-2 10.4-1.7 10.6.2.2 1.1-2.6 1.9-6.4 2.2-9.8 3-14.3 2.4-14.3-.2 0-1.4 4.6-2.6 10.1zM224.4 474c.9 8.8 2.7 19.2 3.2 18.7.6-.6-2.5-23.9-3.2-24.6-.4-.3-.4 2.3 0 5.9zm417.7 8.6c-1.7 6.8-3.3 15.5-2.9 16 .3.2 1.4-4 2.6-9.3 1.2-5.3 2-9.8 1.8-10.1-.3-.2-.9 1.3-1.5 3.4zm-171.5 8.2c-.9 4.3-1.9 8.9-2.2 10.2-.4 1.9-.3 2.1.4 1 1.2-1.8 4.6-18 3.9-18.6-.2-.2-1.2 3.1-2.1 7.4zM229 499.6c.1 2.2 3.8 14.7 3.9 12.9.1-2.2-2.5-12.4-3.3-13.3-.3-.3-.6-.1-.6.4zm408.1 5c-1.7 6.8-3.3 15.5-2.9 16 .3.2 1.4-4 2.6-9.3 1.2-5.3 2-9.8 1.8-10.1-.3-.2-.9 1.3-1.5 3.4zm-172 10c-1.2 5.3-2 9.9-1.7 10.1.5.6 1.9-4.3 3.6-13 1.9-9.7.5-7.4-1.9 2.9zm-230.6 8.8c1.2 6.3 3.3 13.2 3.4 11.1.1-2.6-2.4-13.4-3.4-14.3-.4-.4-.4 1 0 3.2zm397.6 3.2c-1.7 6.8-3.3 15.5-2.9 16 .3.2 1.4-4 2.6-9.3 1.2-5.3 2-9.8 1.8-10.1-.3-.2-.9 1.3-1.5 3.4zm-172.5 12.3c-1 4.5-1.6 8.5-1.3 8.7.7.7 4-14.2 3.5-15.8-.2-.6-1.2 2.5-2.2 7.1zm-220.1 6.5c1.2 6.3 3.3 13.2 3.4 11.1.1-2.6-2.4-13.4-3.4-14.3-.4-.4-.4 1 0 3.2zm387.6 3.2c-1.7 6.8-3.3 15.5-2.9 16 .3.2 1.4-4 2.6-9.3 1.2-5.3 2-9.8 1.8-10.1-.3-.2-.9 1.3-1.5 3.4zm-382.5 18.8c1 5.8 3.2 13.3 3.3 11.5.2-2.7-2.1-13.4-3.1-14.4-.6-.6-.7.4-.2 2.9zm377.5 3.2c-1.7 6.8-3.3 15.5-2.9 16 .3.2 1.4-4 2.6-9.3 1.2-5.3 2-9.8 1.8-10.1-.3-.2-.9 1.3-1.5 3.4zM249 586.4c0 2 3.3 14.7 3.7 14.3.6-.7-1.8-13-2.8-14.2-.5-.5-.9-.6-.9-.1zm368.1 6.2c-1.7 7-3.3 15.6-2.8 16 .2.2 1.4-3.9 2.5-9.3 2-9.6 2.3-14.2.3-6.7zM464.4 615c0 5.2.1 7.4.3 4.7.2-2.6.2-6.8 0-9.5-.2-2.6-.3-.4-.3 4.8zm-210.1-5c.4 1.4 1.1 4.9 1.8 7.8.6 3 1.3 5.1 1.6 4.9.7-.8-1.8-13.1-3-14.2-.6-.7-.8-.2-.4 1.5zm358.3 2.1c-1.1 3.1-3.7 18.1-3.3 18.5.2.3 1.4-3.9 2.5-9.3s1.9-10 1.7-10.2c-.3-.2-.7.2-.9 1zM259.3 632c.4 1.4 1.1 4.9 1.8 7.8.6 3 1.3 5.1 1.6 4.9.7-.8-1.8-13.1-3-14.2-.6-.7-.8-.2-.4 1.5zm348.2 2.2c-1 3.2-2.6 13-2.2 13.5.3.2 1-2.2 1.7-5.4.6-3.2 1.4-6.6 1.6-7.6.6-1.9-.4-2.4-1.1-.5zm-10.5 35c-1.2 2.9-3.2 7.5-4.5 10.3-2.7 5.9-4.2 10.9-2.5 8.3 1.6-2.6 10.1-23.1 9.6-23.5-.2-.2-1.3 2-2.6 4.9zm-323.8 6c.3.7 1.3 3.8 2.3 6.8 1 3 2 5 2.2 4.4.4-1.2-3.5-12.4-4.4-12.4-.3 0-.3.6-.1 1.2zm310.3 24.4c-5.4 11.6-5.8 13.7-.8 3.9 4.3-8.4 6.5-13.5 5.8-13.5-.3 0-2.5 4.3-5 9.6zM279.6 693c.4 1.4 1.5 4.2 2.5 6.2 1.1 2 2.8 6.2 4 9.3 1.1 3.1 2.3 5.5 2.5 5.2.2-.2-.2-2.1-1-4.3-2-5.6-8.7-19.4-8-16.4zm282.5 48c-6.1 11.1-11.1 20.4-11.1 20.9 0 .4-1.4 2.9-3.1 5.5-1.6 2.7-2.8 5.1-2.5 5.3.3.3 1.7-1.7 3.1-4.3 1.5-2.7 7.8-14.3 14.1-25.8 6.3-11.4 11.3-21 11.1-21.2-.2-.3-5.4 8.6-11.6 19.6zm-263.1-.2c0 2.4 13.4 31.2 14.6 31.2.3 0 .3-.3.1-.8-2.1-3.6-10.7-22.6-11.8-25.7-1.4-4.3-2.9-6.7-2.9-4.7zm15.7 33.9c.8 2.1 11.7 20.9 18 31.1 2.5 4 6 8.5 7.8 10 7.3 6.2 28.4 24.9 33.5 29.7 6.6 6.1 42.7 39.2 45.8 41.9 1.2 1.1 2.2 1.7 2.2 1.4 0-.3-7.3-7.2-16.2-15.3-9-8.2-16.7-15.3-17.3-16-1.6-1.8-23.4-21.5-31.5-28.5-4.1-3.6-8-7-8.6-7.5-7.3-6.3-12.7-12.7-16.8-19.6-2.7-4.6-5.7-9.5-6.6-10.9-.9-1.4-3.6-6-5.9-10.3-4.1-7.4-5.8-9.7-4.4-6zm224.6 6.5c-13.4 20.7-22.3 33.9-31.8 47.2-4.9 6.8-21.4 26.3-24.2 28.6-1.7 1.4-10.8 8.6-20.2 16-9.3 7.4-17.3 14.1-17.6 14.8-.3.8 1.9-.7 4.8-3.1 6.6-5.7 30.6-24.6 33-26.1 2.5-1.5 17.8-19.9 26.7-32.1 4.1-5.5 13.3-19 20.5-30 14.9-22.6 14.8-22.5 14.1-22.5-.3 0-2.7 3.3-5.3 7.2zm-111 108.5c3.2.2 8.1.2 11 0 2.9-.2.3-.3-5.8-.3-6 0-8.4.1-5.2.3z"/></g><path d="M261.5 118.9c-9.9 2.6-22.7 13.1-30 24.6-2.1 3.3-4.5 7.1-5.4 8.5-.9 1.4-2.5 4.5-3.6 7s-2.2 4.7-2.5 5c-.3.3-1.4 3-2.4 6-3.8 10.9-4.3 11.5-10.8 15.5-6.3 3.8-8.2 5.3-16.8 12.2-4.5 3.7-14.7 13.9-18.5 18.5-8.4 10.3-16.4 25.5-19.3 37.1l-2 7.8 4.5 4.2c13.5 12.4 20.7 29 20.7 47.7 0 13.2-2 20.8-9.1 35.6l-2.5 5.2 4.8 6.2c9.4 12 17.1 20.5 22 24.3 10.4 7.9 24.2 13 39.4 14.5l6.4.7.8 4.4c.6 3.5.4 4.9-1.1 7-3.8 5.3-7.1 13.8-8.6 21.6-.8 4.4-2 10.2-2.5 12.8-1.3 6.2-1.3 19.1 0 25.4.5 2.6 1.7 10 2.6 16.3.8 6.3 2 12.2 2.4 13 .5.9 1.8 6.1 3 11.6 1.2 5.4 3.3 14.8 4.7 20.9 1.4 6 3.5 15.5 4.6 21 1.2 5.5 2.5 10.4 2.8 11 .4.5 1.4 5.5 2.4 11s2.1 10.4 2.5 11c.4.5 1.6 5.5 2.5 11 1 5.5 2.1 10.4 2.5 11 .4.5 1.6 5.5 2.5 11 1 5.5 2.1 10.4 2.5 11 .4.5 1.5 5.2 2.4 10.2.9 5.1 2.3 10.5 3.1 12 .8 1.6 1.5 3.1 1.5 3.6 0 .4.9 2.6 2 5 2 4.3 4.3 10.6 8.4 23.2 1.3 3.8 4.2 11.1 6.5 16.1 2.2 5.1 4.1 9.5 4.1 9.8 0 .4 1.3 3.5 2.9 6.9 4.4 9.5 5.8 12.8 7.1 17.2.6 2.2 1.5 4.9 2 6 .4 1.1 1.4 3.6 2.1 5.5 3.2 8.9 15.9 34 22.3 44 1.3 1.9 4.5 7.3 7.2 11.9 4.1 6.9 9.5 13.3 16.8 19.6.6.5 4.5 3.9 8.6 7.5 8.1 7 29.9 26.7 31.5 28.5.6.6 8.5 8 17.6 16.3l16.7 15.2h11c8.3 0 11.3-.3 11.9-1.4.7-1.1 22.4-18.8 36.8-29.9 3.2-2.5 19.5-21.6 25-29.3 6.2-8.6 15.4-22.1 20.9-30.4 17.6-26.9 18.5-28.2 21.3-34 1-1.9 6.9-13 13.3-24.5 6.3-11.6 12.7-23.5 14.2-26.5 5.8-11.9 12.8-27 12.8-27.4 0-.3 1.1-2.9 2.4-5.8 4.7-10.5 8.6-19.6 8.6-20.3 0-.4.6-2.1 1.4-3.8.8-1.8 2.2-7 3.1-11.7.9-4.7 2-9.4 2.5-10.5.4-1.1 1.6-6.3 2.6-11.5.9-5.2 1.9-10 2.3-10.5.3-.6 1.5-5.5 2.7-11 1.2-5.5 3.3-15 4.7-21 4.9-21.6 7.5-33.2 10.1-44.5 1.4-6.3 3.7-16.2 5-22 4.6-20.2 7.6-33.6 10-44 2.3-10.1 4.9-21.7 10-44 1.3-5.8 3.3-14.8 4.5-19.9 1.1-5.2 2.3-10.2 2.7-11 .3-.9 1.7-6.1 3-11.6 1.4-5.5 3.6-14.5 4.9-20 1.4-5.5 3.7-15 5.1-21 1.4-6.1 3.7-15.7 5-21.5 3.1-13.4 6.9-31.6 9.4-45 1.1-5.7 2.2-11.1 2.6-12 .8-1.9 5-26.4 7-40 .8-5.8 2.1-14.1 2.9-18.5 1.8-10 3-36.1 2.1-43.8-.9-7-2.7-9-7-8.2-15.6 3.2-33.7 30.9-47.2 72.4l-2.7 8.3-3.5-.6c-1.9-.3-3.7-.8-4-1.1-.7-.7 1.6-22 2.9-26.5 1.4-4.8 2.5-38.8 1.8-52.3-.9-17.1-5.6-27.7-12.3-27.7-6.3.1-18.6 9.1-25.9 18.9-7.6 10.3-17.6 28.9-20.7 38.6-.7 2.2-1.6 4.4-2 5-.4.5-1.3 3.2-2 6-.7 2.7-1.8 6.3-2.5 8-1.7 4.1-5.1 17.5-7.9 31.5-3 15-3 15-7.6 15h-3.7l-.7-21.8c-.8-24.2-4.2-50.2-6.6-50.2-1.3 0-4.7 5.1-7.1 10.6-4 9.4-12.1 33.9-14.9 45.4-.6 2.5-1.4 5.2-1.7 6-.6 1.4-1.7 5.6-7.9 29-1.4 5.2-3.4 13.5-4.4 18.3-1.1 4.9-2.3 9.3-2.6 9.8-.3.6-1.7 6-3 12.2-1.3 6.2-3.6 16.4-4.9 22.7-4.1 18.7-7.4 34.8-9.5 46-1.1 5.8-2.4 11.6-2.9 13-.6 1.4-1.7 7.4-2.6 13.4-.8 5.9-1.8 11.3-2.2 11.9-.3.5-1.6 5.8-2.9 11.6-1.2 5.8-3.4 15.8-4.9 22.1-1.4 6.3-3.8 16.4-5.2 22.5-1.3 6-3.5 15.7-4.9 21.5-12.7 54.9-12.4 53.2-10.9 65.7 6 49.1 4.9 86.1-3.4 119.2-1.2 4.7-2.5 8.9-3 9.5-.4.6-1.5 3.1-2.5 5.4-3.9 10.3-12.7 20.7-21.6 25.9-3.9 2.3-5.7 2.6-13 2.7-7.6 0-9-.3-13.5-2.9-7.9-4.6-15.2-12.8-19.6-21.9-2.2-4.4-3.9-8.7-3.9-9.6 0-.9-.5-2.1-1.1-2.7-1.9-1.9-3.9-18.8-3.9-33.7v-15l-4.2 4.3c-2.4 2.4-6.1 5.5-8.3 7-2.2 1.4-4.6 3.1-5.3 3.8-.7.7-3.2 1.8-5.5 2.4-2.3.7-4.6 1.6-5.1 2.1-3 2.6-12.5-1-16.9-6.3-1.5-1.9-3.2-5.1-3.7-7.4-.6-2.2-1.5-5.6-2.2-7.5-1.3-4.1-1.3-35.2.1-37.8.5-.9 1.2-6 1.6-11.2l.7-9.5-5.7.3c-3.7.3-6.7-.2-8.9-1.2-1.9-.9-3.8-1.6-4.3-1.6-1.3 0-6.5-5.9-8.6-9.7-3.7-6.8-4.1-29.9-.7-44.8 2.4-10.8 5.1-21.2 5.9-23 .5-1.1 2.8-8.1 5.1-15.5 2.4-7.4 4.6-14 5-14.5.4-.6 1.5-3.5 2.5-6.5s2.1-6 2.5-6.5c.4-.6 1.3-2.8 2-5s1.8-5.1 2.5-6.5c.7-1.4 3.2-7.2 5.6-13 2.4-5.8 4.7-11 5.2-11.5.4-.6 1.7-2.4 2.7-4.2 2.5-4.2 9.2-9 14.4-10.4 2.3-.6 7.1-.9 11.1-.6 10.1.8 24.1 8 34.2 17.5 2 1.8 2.4 1.9 1.9.5-.3-1-1.3-4.9-2.1-8.8-.9-3.8-2.5-8.8-3.6-11.2-1-2.3-1.9-4.5-1.9-4.9 0-.4-1.8-3.8-4-7.5-4.5-7.7-10.9-14.5-16.9-18.4l-4.2-2.6 2.4-3.2c7.3-9.7 14.9-26.1 19.3-42.2 2.6-9.3 2.8-11.3 2.8-29s-.2-19.7-2.8-29c-3.2-11.8-7.2-21.9-11.9-30.1-3.6-6.3-6.8-11.6-7.7-12.4-.3-.3-2.4-3-4.8-6.2-10.6-13.9-34.1-30.8-49.7-35.8-2.2-.7-4.5-1.6-5-2.1-1.4-1-17.6-4.9-23.5-5.6-7.1-.8-7.5-1.7-3.3-8.1 3.1-4.9 8.3-15.3 8.3-16.7 0-.9-8.6-.5-9.6.4-.5.5-4 1.9-7.7 3.1-6.6 2.1-6.9 2.1-8.2.4-3.1-4-2.7-5 4.2-11.7 7.7-7.4 12.4-15 10.6-16.8-1.4-1.4-13.7-2.1-17.8-1zm-4.8 105.9c6.3 4.1 9.9 9.1 11.4 16.1 3.3 15.6-7.3 29.7-23.3 30.9-5.9.4-7.3.1-12-2.3-7-3.6-9.5-6-12.6-12-6.4-12.4-1-27.8 12.1-34.5 3.4-1.7 5.6-2 11.7-1.8 6.5.3 8.2.7 12.7 3.6z" fill="#00B200" stroke="#00B200" stroke-width="3"/><path d="m232 239.2-2.5 1.1 3.2.9c4.1 1.1 5.4 4.9 2.8 7.8-3.4 3.7-7.9 2.2-8.7-2.9l-.3-2.4-1.4 2.6c-1.2 2.3-1.2 3 .3 6.1 1.9 4 6.4 7.6 9.6 7.6 3.1 0 9.8-5 10.5-7.9 1-3.7-.4-7.6-3.5-10.5-3.5-3.1-6.7-3.9-10-2.4z" fill="#191900" stroke="#191900" stroke-width="3"/><path d="M142.5 264.9c-2.2 1.1-7.6 3.7-12 5.7-4.4 2.1-8.5 4.3-9.2 4.9-.7.5-3.5 2.6-6.3 4.5-6.7 4.6-16.8 14.4-21.7 21.2-4.2 5.7-9.3 15.9-11.2 22.3-.7 2.2-1.6 4.9-2.1 6-1.4 3.3-1.9 8-1 9.5.7 1.1 1.4 1 4.5-.4 5.4-2.6 8.7-2.3 14.2 1.2 2.6 1.7 5.3 3.5 5.8 4 .6.4 3 1.6 5.5 2.6s5 2.1 5.5 2.6c1.1.9 14.6 4.7 21.5 6 5.6 1.1 22.1 1.2 23.5.2 1.2-.9 6.5-8.6 6.5-9.5 0-.3 1.1-3 2.4-5.9 2.8-6 7-27 6.3-30.8-3-14.7-7.2-25.8-12.5-32.9-4-5.3-12.4-13.1-14.2-13.1-.8 0-3.3.9-5.5 1.9zm8.6 5.3c12.1 11.4 19.9 31 18.3 46.3-.7 7.2-3.1 18.4-4.3 19.9-.4.6-1.5 3.2-2.5 5.8-.9 2.5-2.8 5.8-4.1 7.2-2.2 2.4-3.1 2.6-9.7 2.5-12.9-.1-25.5-3.2-38.5-9.6-5.1-2.5-9.3-4.9-9.3-5.3 0-.5 2.6-1.1 5.8-1.4 10.9-1.1 27.4-5.5 32.4-8.7 5.5-3.6 8.8-8.3 8.8-12.8 0-4.6-2.8-3.7-4.5 1.3-.8 2.1-2 4.5-2.7 5.2-2.7 2.5-10.5 6.2-15.8 7.3-3 .7-7.3 1.6-9.5 2.1-4.7 1.1-31.6 3.2-32.3 2.5-.3-.2 0-1 .5-1.7.6-.7 1.4-2.9 1.8-4.8 1.8-8.8 10.5-23 19.9-32.6 9.4-9.4 24.3-19.2 34.2-22.4 2.2-.7 4.3-1.6 4.9-2.1 1.6-1.5 4.1-1 6.6 1.3zm211.4 587.9-5 7-19.5-.6c-18.2-.6-45.3.5-49.3 2.1-2.2.8-3.9 3.8-3.1 5.7.6 1.7 10.1 6.5 14.6 7.4 4.6.9 3 3.3-3.7 5.8-20.9 7.8-31.1 13.9-30.3 18.2.9 4.7 7.2 5.1 35.2 1.9 7.7-.9 14.1-1.4 14.4-1.2.2.3-1.6 3.4-4.1 6.9-5.2 7.2-6.8 12.8-4.4 15.2 1.7 1.7 6.3 2 7.2.5.3-.6 1.4-1 2.3-1 2.1 0 12.8-5.4 24.8-12.6 5-3 9.8-5.4 10.7-5.4 1 0 2.3 2.2 3.7 6.5 1.2 3.6 3.3 7.9 4.6 9.4 1.3 1.6 2.4 3.2 2.4 3.6 0 .3-2.1 1.5-4.7 2.7-12.6 5.5-10.8 10.8 3.7 10.8 6 0 7 .2 7 1.7-.1 1-2.5 3.5-5.5 5.7-3 2.1-9 7.4-13.5 11.8-6.7 6.6-8.1 8.4-7.8 10.6.3 2.3.8 2.7 4 3 2.1.2 5.2-.3 7-1.1 1.8-.8 4.9-2 6.8-2.7 4.8-1.8 11.3-4.6 18.6-8.1 3.3-1.6 6.8-2.9 7.8-2.9 1.9 0 1.8.6-1.5 9.5-2.5 6.7-2.4 9.1.5 11 2.3 1.5 2.7 1.5 6.3-.4 3.9-1.9 15.4-12.8 24.5-22.9 2.5-2.9 5-5.2 5.5-5.1.4 0 3 2.7 5.6 6 6.7 8.3 11.6 9.8 13.8 4.2 1.4-3.6 1.1-17.3-.6-31.2l-1.6-12.3 4.2-9.2c2.3-5 4.6-9.7 5.2-10.4.7-.9.3-1.2-1.5-1.2-2.2 0-3.2 1.4-7.7 10.7-5 10.2-5.2 11-4.2 14.8 2.9 10.7 4.3 35.7 2 37.1-1.4.8-6.2-3.8-10-9.8-1.8-2.8-3.9-4.8-4.9-4.8-1 0-3.3 1.9-5.3 4.2-5.4 6.7-21.9 23.3-25 25.3-1.5 1-3 1.5-3.3 1.2-.9-.9 1.6-10.5 4.4-17 3.9-9.1 2.9-9.1-17.5.1-25.7 11.6-30.3 12.7-24.4 6 1.7-2 9-8.3 16.2-13.9 8.1-6.4 12.9-10.9 12.7-11.9-.3-1.2-2.4-1.6-11.6-1.8-6.2-.1-11.2-.7-11.2-1.2 0-1.4 19.1-8.8 32-12.4 21.6-6 27.5-7.9 28.2-8.9.5-.7 1.7-4.3 2.9-8.1 1.1-3.8 2.3-7.5 2.6-8.2.3-1-.3-1.4-2-1.4-2.1 0-2.6.6-3.2 3.7-2 10.6-4.3 12.7-17 15.3-3.3.7-6.4 1.5-7 2-.5.4-3.9 1.5-7.5 2.4-3.6.9-8.2 2.4-10.3 3.2-6.5 2.5-6.7 1.9-2.6-7.1 1-2.2 2.3-6.7 2.9-10 .6-3.3 1.7-9.2 2.5-13 .8-3.9 1.7-8.7 2-10.8.4-2.6 2-5.3 4.6-8.1 3.6-4 3.8-4.4 2.1-5.8-1.6-1.5-2-1.2-5.9 3.2-4.4 5-5.2 7.5-8.3 26.5-.6 3.8-2.2 10.5-3.6 14.7-3.9 11.7-6.5 10.4-10.9-5.5-.9-3.2-2.2-6-3.1-6.4-.8-.3-6.6 2.6-13.2 6.5-19.7 11.8-31.2 16.9-31.2 14 0-1.7 4.2-8 9.7-14.5 7.7-9.2 6.1-9.9-14.2-7-16.3 2.4-33.5 3.3-33.5 1.8 0-1.5 16.8-9.5 30.9-14.7 5.7-2.1 10.5-4.4 10.8-5.1.9-2.3-1.5-3.9-7.4-5.2-3.2-.7-8-2.2-10.6-3.4-8.7-3.7-5.2-4.2 30.6-4.5l33.2-.3 5.3-7.5c4.4-6.1 5.1-7.8 4.2-8.9-.7-.8-1.5-1.5-1.9-1.5-.3.1-2.8 3.2-5.6 7.1z" stroke-width="3" fill="#CC7F00" stroke="#CC7F00"/><path d="M323.4 609.5c0 4.9.1 7.1.3 4.8.2-2.3.2-6.4 0-9-.2-2.6-.3-.8-.3 4.2z" fill="#199900" stroke="#199900" stroke-width="3"/><path d="M145 269c-1.1.8-.9.9 1.1.5 2.2-.5 3.3.2 7.4 4.7 2.6 2.9 6 7.5 7.6 10.3 1.6 2.7 2.9 4.5 2.9 3.9 0-3.3-13.8-20.4-16.5-20.4-.5 0-1.7.5-2.5 1zm-6.5 2.3c-8 3.2-26.9 14.9-27.9 17.4-.3.6 2.5-1.1 6.2-3.9s11.2-7.3 16.7-9.9c9.4-4.6 11.7-6.2 5-3.6zm-33.7 22.5c-4.6 4.8-10.4 12.6-12.5 16.6-2 4-.7 2.5 4-4.5 2-3 5.7-7.7 8.3-10.3 2.5-2.6 4.4-5 4.2-5.2-.3-.2-2 1.3-4 3.4zM144 311c0 .5.7.7 1.6.3 2.3-.8 3.3 1.4 2.3 5-1.3 4.7-3.6 7.5-8.7 10.7-2.6 1.6-4.2 3-3.5 3 2.6 0 9.9-6.8 12.1-11.2 2.8-5.6 2.3-8.8-1.4-8.8-1.3 0-2.4.4-2.4 1zm-32.1 18.4c-.3.3-4.9.6-10.4.7-5.9.1-11.2.8-13 1.6-2.6 1.2-2.7 1.3-.5.9 1.4-.2 7.7-.8 14-1.1 6.3-.4 12.2-1.1 13-1.6 1.2-.7 1.1-.8-.6-.9-1.1 0-2.3.2-2.5.4zm-10.9 7.3c0 1.1 10 6.6 10.7 5.9.3-.3-1.5-1.5-4.1-2.7-3.1-1.5-4.2-2.6-3.3-3.1.8-.5.4-.8-1-.8-1.3 0-2.3.3-2.3.7zm59.5 7.3c-2.5 5.2-3.3 6.1-6.3 6.6-3.1.6-11 .1-20.2-1.1-3.2-.5-3.3-.4-1 .5 3.8 1.7 21.2 2.5 23.7 1.1 2.1-1.1 8-11.7 7.1-12.6-.2-.3-1.7 2.2-3.3 5.5zm-46.2.1c2.3 1.3 12.7 4.9 14.1 4.8 1 0-14.3-5.9-15.4-5.8-.3 0 .3.4 1.3 1zm233 525.6c2.6.2 6.7.2 9 0s.2-.3-4.8-.3c-4.9 0-6.8.1-4.2.3z" stroke-width="3" fill="#E59900" stroke="#E59900"/><path d="M136.7 273.5c-19.1 8.5-34.1 21.3-43.1 36.5-3.6 6.1-9.2 20.7-8.3 21.6.3.4 2 .1 3.8-.5 1.8-.6 7.1-1.1 11.9-1.1 10.1 0 17.9-1.2 27.2-4.2 8.4-2.6 13.4-6.6 14.9-11.9 1-3 1.7-3.9 3.5-3.9 5 0 3.6 8.5-2.3 14.3-6.1 5.9-16.9 9.5-36.8 12.2l-5 .7 6.9 3.5c13.8 7 33.6 11.3 44.2 9.7 4.1-.6 4.3-.8 7.8-8.2 4.1-8.9 7.6-22.5 7.6-29.8 0-6.6-4.1-20.9-8.1-27.9-3.5-6.1-11.5-15.5-13.2-15.5-.7 0-5.6 2-11 4.5zm229.5 589-5.2 7.4-28.8-.2c-28.2-.2-40.3.6-37.1 2.3.8.5 5.9 2.3 11.3 4 8.6 2.8 9.7 3.4 9.4 5.3-.3 2.5-2.1 3.5-14.3 8.1-13.1 5.1-21.8 8.9-24.6 10.8-2.4 1.7-2.3 1.7 4.1 1.7 3.6.1 14.6-1 24.5-2.3 23.1-3.1 24.2-2.5 15.5 8.4-5.9 7.3-9.4 12.9-8.7 13.6 1.3 1.3 16.1-6.2 32.6-16.5 10.7-6.6 12.1-6.5 14.2 1.4 2.1 7.7 4.5 13.5 5.7 13.5 2.4 0 8.2-21.3 9.8-35.8.6-5.7 1.2-7 5.5-12.1l4.9-5.8-5.9-5.7c-3.3-3.1-6.4-5.6-6.8-5.6-.5 0-3.3 3.4-6.1 7.5zm54.6 44.5-3.3 9.5-12 3.3c-16.3 4.5-42.6 13.2-44.8 14.7-3 2.1-.3 2.8 9.5 2.4 8-.4 9.2-.2 10.2 1.5.9 1.5.5 2.3-2.9 5.1-2.2 1.8-9.6 8-16.5 13.6-7.7 6.4-11.9 10.5-10.9 10.7 2 .4 13.9-4.4 29.9-12 6.8-3.2 13-5.6 13.7-5.4 2 .8 1.5 4.5-1.7 12.9-3.5 9.2-3.9 12.2-1.2 10.8 2.3-1.3 11.9-10.7 21.6-21.4 4.4-4.8 8.7-8.7 9.7-8.7s3.2 2 5 4.7c3.5 5.3 7.9 10.3 9 10.3 1.9 0 1.8-8.2-.2-24.5l-2.2-18 4.6-9.5c2.6-5.2 4.7-9.5 4.7-9.6 0-.1-4.3-.1-9.5 0l-9.4.1-3.3 9.5z" stroke-width="3" fill="#FFB200" stroke="#FFB200"/><path d="M324.7 602.7c-.8 8.4-.8 19.4.1 25.3.4 2.5.7-3.4.8-13.8 0-10-.1-18.2-.2-18.2 0 0-.4 3-.7 6.7zm137.7 11.8c0 6 .1 8.4.3 5.2.2-3.2.2-8.1 0-11-.2-2.9-.3-.3-.3 5.8z" stroke-width="3" fill="#7F4C00" stroke="#7F4C00"/><path d="M348.4 404.7c-2.9 1.5-6.3 4.1-7.6 5.8-4.2 5.1-10.1 17.3-16.3 33.5-1.9 5.2-4.1 10.6-4.7 12-1.7 3.8-5.6 14.8-7.7 21.6-1 3.4-2.3 7-2.9 8-.6 1.1-1.8 4.9-2.6 8.4-.9 3.6-2.1 7.4-2.6 8.5-.5 1.1-1.9 6.7-3 12.5-4.7 23.2-4.7 36-.3 45.3 4.5 9.5 10.6 12.6 22.3 11.5 2.9-.3 5.1-.1 5.3.5.2.6 0 3.6-.4 6.6-2.9 21-3.2 46.7-.8 57.9 1.9 8.6 8.2 15.2 14.7 15.2 3.6 0 13.2-2.8 13.2-3.9 0-.4 1.5-1.4 3.3-2.3 1.7-.8 6.4-4.5 10.3-8.2 4-3.6 7.4-6.6 7.7-6.6.3 0 .7 9.3.9 20.7.2 13.3.8 21.5 1.5 22.8.6 1.1 1.7 4.2 2.3 7 2.3 9.9 10.3 23.9 16.2 28.3.9.7 2.3 1.9 3 2.6 1.9 1.9 7.4 4.6 9.3 4.6.8 0 1.5.4 1.5 1 0 1.2 10.2 1.4 11.5.2.6-.5 3.1-1.6 5.7-2.6 8.5-3.1 19.5-17.5 23.8-31.1.7-2.2 1.6-4.5 2.1-5 .7-1 2.6-9.9 6.1-29 1.5-7.9 1.4-65.2 0-77-.7-5-1.6-11.9-2.2-15.5-.5-3.6-1.5-9.7-2-13.5-1.2-7.8-5.8-27.9-7.1-31-.4-1.1-1.6-4.7-2.4-8-.9-3.3-2.2-7.4-3-9-.7-1.7-1.8-4.8-2.5-7s-1.9-4.9-2.6-6c-.7-1.1-1.8-3.9-2.5-6.3-.7-2.3-1.5-4.2-1.9-4.2-.4 0-1.5-2.1-2.5-4.8-1-2.6-2.1-4.9-2.5-5.2-.4-.3-1.7-2.3-2.9-4.5-7.5-13.6-13.6-21.7-24.3-32.4-10.9-10.9-14.2-13.3-27.3-20.1-4.6-2.4-7.8-3.2-13.5-3.6-6.9-.5-7.9-.3-12.6 2.3zm22.6 4.8c5.4 2.3 9.7 4.8 15.9 9.3 4.7 3.3 21.8 20.8 24.7 25.1 1.6 2.4 4.1 6.2 5.6 8.5 1.5 2.2 3.6 5.7 4.5 7.6 1 1.9 2.1 3.7 2.4 4 1.3 1.1 11 22.4 12.9 28.5.7 2.2 1.6 4.4 2 5 .5.5 1.6 3.9 2.4 7.5.9 3.6 2.1 7.4 2.6 8.5.6 1.1 1.9 6 3 11 1 4.9 2.4 10.9 2.9 13.2.6 2.3 1.8 9.2 2.6 15.5.9 6.2 2.1 14.2 2.7 17.8 1.5 9.1 1.6 73.8.1 81-.7 3-1.9 9.1-2.7 13.5-4.1 21.4-15.1 40.7-26.2 46-4.1 1.9-14.4 2-19 0-8.4-3.5-18.2-17.4-21.9-31-3.1-11.1-3.4-13-4-23-.7-9.4.6-30 2-33.8.5-1.1 0-2-1.7-2.7-2.1-.9-3.2-.1-13.3 9.7-12.7 12.4-19.6 16.6-26.6 16.1-3.8-.3-4.7-.8-7.1-4.3-3.3-4.9-4.8-13-4.8-27.1 0-10.3 2.5-39.7 3.7-42.4.9-2.3 2.1-10 1.5-10-.3 0-2.5.9-4.9 2.1-5.8 2.8-16.4 2.9-20.2.2-6.6-5-9.6-18.5-7.3-33.3 1.9-11.8 5-26.5 6.1-29 .6-1.4 1.8-5.4 2.7-9 .9-3.6 1.9-7 2.3-7.5.4-.6 1.6-3.9 2.6-7.5.9-3.6 2-7 2.4-7.5.4-.6 1.3-3 2-5.4.7-2.5 2.1-6.1 3.2-8 1-2 1.9-4.1 1.9-4.8 0-.7 1.1-3.6 2.4-6.5 1.3-2.9 2.7-6.4 3.1-7.8.4-1.4 1.3-3.4 1.9-4.5.7-1.1 2-4.2 3-6.8 2.4-6.3 6.1-12.9 8.5-15.1 6.8-6.2 16.2-7.3 26.1-3.1z" fill="#930" stroke="#930" stroke-width="3"/><path d="M381.4 650c0 5.2.1 7.4.3 4.7.2-2.6.2-6.8 0-9.5-.2-2.6-.3-.4-.3 4.8z" fill="#994C00" stroke="#994C00" stroke-width="3"/><path d="M456.4 602.5c0 4.9.1 7.1.3 4.8.2-2.3.2-6.4 0-9-.2-2.6-.3-.8-.3 4.2z" fill="#B24C00" stroke="#B24C00" stroke-width="3"/><path d="M382.3 650c0 4.7.2 6.6.4 4.2.2-2.3.2-6.1 0-8.5-.2-2.3-.4-.4-.4 4.3z" fill="#CC4C00" stroke="#CC4C00" stroke-width="3"/><path d="M331.4 615c0 6.9.1 9.7.3 6.2.2-3.4.2-9 0-12.5-.2-3.4-.3-.6-.3 6.3z" fill="#E56600" stroke="#E56600" stroke-width="3"/><path d="M354.2 408.8c-3.4 1.1-9 5.9-11.6 10-4.1 6.5-18.4 42-25.6 63.2-12.5 37.1-16.2 63.7-10.5 75.8 1.9 4.2 3.2 5.6 6.2 6.8 4.7 2 12.9 1.2 19-1.8 2.4-1.2 4.6-1.8 5-1.4.4.3.1 3.9-.6 7.9-2.5 14-4 30.4-4.1 44.8 0 23.6 2.7 31.5 10.8 31.3 6.4-.2 13.8-5 25.6-16.6l10.8-10.7 3.5 1.4c2.7 1.2 3.4 1.9 2.8 3.2-1.6 4.3-2.7 19.9-2.2 32.3.8 21.6 6.6 38.8 16.6 48.8 11 10.9 23.7 10.9 33.7 0 16.5-18 23.7-54.7 21.3-108.8-3.6-80.3-29.6-145.4-69.9-175.4-11.2-8.4-24.1-12.9-30.8-10.8zm-28.5 119.4c.6.7 1.3 3 1.7 5.1.4 2 2 5.3 3.7 7.1 4.4 5.1 9.7 5.5 24 2.1 2.6-.7 2.7-.5 3.3 5.2 1.1 9 5.3 23.8 8 28.1 6.2 9.9 14.7 9.6 26.7-.8 6.5-5.7 5.4-6.2 13.5 5.9 6.4 9.5 14.3 18.2 18.8 20.6 3.2 1.8 3.7 1.8 5.1.4.9-.8 2.4-3.8 3.3-6.5 1.6-4.4 2.1-4.9 4.7-4.9 2.7 0 3 .4 3.3 3.4.5 4.7-2.3 11.5-5.9 14.6-8.5 7.1-19.8 0-36.5-23.1-2-2.7-2.3-2.8-4-1.3-1.1.9-4.4 2.9-7.4 4.4-11.5 5.8-22 2.8-28.7-8.4-3.4-5.6-6.9-16.1-7.9-23.3l-.6-4.4-6.2.4c-8.6.6-13.8-1.1-19-6.1-7.5-7.2-9.1-19.7-2.5-19.7.9 0 2.1.6 2.6 1.2z" fill="#F60" stroke="#F60" stroke-width="3"/><path d="M321.7 528.6c-1.3 1.4-.7 7.9 1.2 12.1 1.2 2.6 3.5 5.2 6.2 7 3.7 2.5 5.4 2.8 13.3 3.2 9.5.3 10.6.8 10.6 5 0 4.1 5.1 19.2 8.1 23.8 6.1 9.7 15.2 12.6 25.1 7.9 3-1.4 6.5-3.5 7.8-4.6 3.3-2.9 4.6-2.5 7.4 2.2 3.7 6.2 14.6 18.3 18.4 20.4 1.7 1 3.2 2.1 3.2 2.5 0 1 6 2 8.3 1.3 5-1.3 11.3-13.8 8.6-17-1.4-1.7-3.9-.2-3.9 2.3 0 2.7-3.1 8-5.4 9.2-1.9 1.1-2.8.9-6.2-1-5.3-3-13.2-11.7-20-22l-5.7-8.6-3.8 3.7c-4.9 4.7-13.2 9-17.4 9-4.7 0-9.5-3.1-12.6-8.2-3-4.9-6.7-17.3-7.8-26.3-.5-4.6-1-5.9-2.1-5.6-.8.2-5.4.6-10.2.9-7.7.4-9.1.2-12.3-1.8-3.7-2.3-6.5-6.5-6.5-9.8 0-2.4-3.2-6.6-4.3-5.6z" fill="#664C33" stroke="#664C33" stroke-width="3"/><path d="M318.8 863.7c2.9.2 7.4.2 10 0 2.6-.2.2-.3-5.3-.3s-7.6.1-4.7.3z" fill="#CC7F19" stroke="#CC7F19" stroke-width="3"/><path d="M373.2 1092.3c-2 2.3-2.2 6.2-.8 11.7 1.6 6.1 5 16.6 7.1 22 1.6 4.1 4.9 13.9 7.5 22.5 2.9 9.5 5.7 14.9 8.9 17.3 4.1 3 5.5 2.8 9.8-1.6 3.2-3.3 4.6-6.8 13.4-33.2 5.4-16.2 9.8-31.1 9.9-33.1 0-4.4-2.5-6.9-6.8-6.9-3.9 0-3.3-1.2-12.7 25-1.5 4.1-3.5 9.7-4.5 12.5-1.1 2.7-2.2 6.2-2.6 7.8-.6 2.8-2.1 4.3-3.1 3.3-.6-.5-2.3-5.5-10.9-30.5-5.6-16.5-6.6-18.1-10.9-18.1-1.8 0-3.7.6-4.3 1.3zM233 1103.9c-.5 1.1-1 5.7-1 10.3 0 10.9-.6 13.2-3.4 12.3-4.8-1.5-12.7-1.7-15.8-.4-7.5 3.1-13.8 12.6-13.8 20.8 0 12.8 14.2 23 26.3 18.8 3.7-1.2 4.7-1.3 7-.1 2 1.1 3.2 1.1 5 .3 2.3-1 2.4-1.7 3.1-13.1.8-15.3.8-47.1 0-49.2-.9-2.3-6.1-2.1-7.4.3zm-4.5 31.5c2.5 1.6 2.6 2 2.3 10.4-.3 8.6-.3 8.6-3.7 10.9-1.9 1.3-4.9 2.3-6.8 2.3-7.9 0-14.8-10.1-11.4-16.8.5-.9 1.4-2.9 2.1-4.3.7-1.5 2.2-3.2 3.4-3.8 2.9-1.5 10.9-.8 14.1 1.3zm350.3-31.7c-1.3 1.5-1.6 6.8-2.1 30.9-.3 15.9-.2 29.6.3 30.3 1 1.7 5.7 1.8 7.3.2 1.5-1.5 2.7-57.5 1.3-60.9-1.1-2.7-4.7-2.9-6.8-.5zm-279.4 19.5c-2 .9-2.2 1.9-2.9 21.1-.6 18.6-.6 20.2 1.1 21.4 1.7 1.2 5 .9 6.6-.6.4-.3 1-6.5 1.4-13.7l.7-13.1 3-1.8c3.7-2.2 9.9-2.3 13.1-.1 3.3 2.1 3.3 2.1 5.1-1.5 1.5-2.7 1.5-3.3.1-5.4-2.2-3.3-7.8-4.9-14.9-4.1-4.8.5-6.4.3-8.6-1.3-1.9-1.4-3.1-1.6-4.7-.9zm-41.5 4.1c-1.8 1.2-4.7 4.3-6.4 6.7-2.7 4.1-3 5.3-3 12.5 0 7.3.3 8.4 3 12.2 3.8 5.3 8.9 7.5 17.5 7.6 10.1 0 18-4.1 18-9.3 0-4.8-1.8-5.2-7.2-1.4-3.9 2.6-6 3.4-9.5 3.4-6.5 0-14.3-4.4-14.3-8.1 0-1.4 1.1-1.9 5.8-2.4 3.1-.3 7.1-1 8.7-1.4 1.7-.5 5.3-1.2 8.2-1.6 2.9-.4 5.7-1.3 6.4-2.1 1.8-2.2.5-9.8-2.2-13.3-3.1-3.9-6.7-5.1-14.9-5.1-5.3 0-7.4.5-10.1 2.3zm14.8 5.3c4.4 1.7 5.9 3.7 4 5.2-1.4 1.1-18.8 3.4-19.6 2.6-1.1-1 2.8-6 6.1-7.6 4.2-2.1 4.3-2.1 9.5-.2zm177.8-6.2c-9.3 4-13.7 18.9-9.2 30.8 3.2 8.2 12.2 11.5 22.9 8.4 8-2.3 11-6.5 11.6-16.1.8-12.3-2.7-21-9.3-23.5-3.7-1.4-12.4-1.2-16 .4zm14.4 8.5c4 4 3.5 18.2-.8 22.2-4.9 4.6-11.9 3.2-15.1-3-2.5-5-2.5-5.7.1-12.6 1.4-3.7 2.9-6 4.7-7 3.8-2 8.8-1.9 11.1.4zm31-8.9c-4.3 1.3-8 4.2-10.7 8.4-2.4 3.7-2.6 5.1-2.7 13.8 0 9.7 0 9.8 3.3 13 3.2 3.3 3.3 3.3 13.5 3.4 9.7.2 10.2.3 10.5 2.4.6 3.8-2.6 8.9-6.6 10.6-3.7 1.5-13 1.6-16.3 0-2.2-1-4.9 1.8-4.9 5 0 5.6 16.7 7.5 26.4 2.9 4.4-2.1 5.6-3.2 7.1-6.8.9-2.3 2-4.9 2.5-5.7.4-.9 1.3-10.7 2-21.8l1.3-20.3-3.4-2.9c-3.2-2.7-4-2.9-11.4-2.9-4.4.1-9.2.4-10.6.9zm14.5 8.6c3.1 1.2 1.2 15.3-2.5 18.5-2.9 2.5-10 3.4-13.6 1.7-2.6-1.3-2.8-1.7-2.8-7.5 0-5.1.4-6.6 2.5-8.7 3.4-3.7 11.8-5.7 16.4-4zm28-8.6c-3.1 1.2-7.9 6.4-9.9 10.5-1.3 2.8-1.6 5.6-1.4 11.4.4 6.7.8 8.1 3.4 11.4 5.6 7 18.8 9.3 28.8 4.9 6.3-2.8 8.8-8.2 5.2-11.2-1.3-1.1-2-.9-4.3 1.1-4.2 3.7-6.8 4.9-11.2 4.9-5 0-12.5-3.6-13.9-6.7-1.3-2.8-1.2-2.9 7.9-4.3 19.3-3 20.8-3.5 21.6-6.6 1.4-5.5-2-12-7.8-15-3-1.5-15-1.8-18.4-.4zm13.7 7.1c2.7 1.3 3.9 2.6 3.7 3.7-.3 1.3-2.3 1.9-9.8 2.9-5.2.6-9.7.9-10 .7-.9-1 2.6-5.8 5.5-7.5 4-2.3 5.8-2.3 10.6.2z" stroke-width="3" fill="#369" stroke="#369"/></svg>