<svg version="1.0" xmlns="http://www.w3.org/2000/svg" viewBox="0 0 784 1259"><g fill="#FFF" stroke="#FFF" stroke-width="3"><path d="M0 629.5V1259h784V0H0v629.5zm615.6-486.3c10.3 9.5 12.9 19.6 7.8 30.4-1.4 3.1-2.4 5.6-2.3 5.8.2.1 3.1 1 6.4 2 3.3 1 9.7 3.8 14.3 6.2 20.1 10.6 33.8 25 44.5 46.8 9.8 20 15 41 16.7 67.9 1 16.2 0 44.5-2 55.7-.5 3-1.9 12.9-3 22s-2.3 17.2-2.5 18.1c-.3.8-1.7 10.3-3 21-1.4 10.7-3.7 27.5-5 37.4-1.4 9.9-3.4 25-4.5 33.5s-2.2 16.6-2.5 17.9c-.6 2.2-3.4 23.3-7.6 56.1-1 8.5-2.1 16.1-2.4 16.8-.3.7-1.4 9.1-2.5 18.5-1.1 9.5-2.3 17.9-2.5 18.8-.5 1.5-3.3 22.4-7.6 55.9-1 8.5-2.1 16.1-2.4 16.8-.3.7-1.4 9.1-2.5 18.5-1.1 9.5-2.3 17.9-2.5 18.8-.5 1.6-4.2 28.8-7.5 55.9-1.1 8.5-2.4 17.5-2.9 20-.6 2.5-1.3 7-1.6 10-.7 5.7-7.2 35.8-8.1 37.2-.3.5-1.4 3.6-2.4 7.1-10.6 35.5-27.9 61.7-47.2 71.1-11.8 5.8-24.5 7.9-47.8 8-21.2.1-29-1.2-42.5-7-24.9-10.8-45.2-37.2-54.1-70.4-.8-3-2.3-8.9-3.4-13s-3.4-13.6-5-21c-4.3-19.4-7.8-29.5-12-34.3-3.2-3.6-4.2-4.1-9-4.4-7.2-.6-10.2 1.7-14.5 11.1-3.1 6.9-3.9 10.6-9.4 42.6-5.6 32.5-18.1 60.4-33.7 75.1-10.4 9.8-19.2 13.6-42.1 18.4-18.6 3.9-37.5 3.9-52.3.1-27.3-7.1-45.4-22.8-58.4-50.7-11.2-24-18-49.3-25.7-95.9-1-6.3-3-17.8-4.5-25.5-1.4-7.7-3.7-20.1-5-27.5-1.4-7.4-3.6-19.4-4.9-26.5-1.3-7.2-3.5-19.3-4.9-27-1.4-7.7-3.2-17.4-4-21.5-.8-4.1-2.6-14-4.1-22-1.4-8-3.7-20.4-5-27.5-1.3-7.2-3.6-19.3-5-27-1.4-7.7-3.5-18.6-4.6-24.3-1.1-5.7-2.6-13.8-3.4-18-.7-4.2-2.5-13.6-3.9-20.7-1.3-7.2-3.6-19.3-5-26.9-1.4-7.7-2.8-14.8-3.1-15.7-.4-1-1.4-6.4-2.5-12.1-1-5.7-3-15.9-4.4-22.8-3-14.9-6.7-33.8-9.5-47.5-4-20.5-4.6-25.3-4.5-39 0-11.2.5-15.5 2.2-21.3 5.3-18.4 16-29.5 34.3-35.7 10.1-3.4 21.6-4.8 39.9-4.9 21.4-.1 32.3 3 43.5 12.4 12.5 10.6 19 24 21.9 45.5 1.7 12.3 5.3 36.7 9.1 61.7 1.4 9.3 3.6 24.3 5 33.5 1.4 9.3 3.7 24.2 5 33.3 1.3 9.1 3.6 24.1 5 33.5 1.4 9.3 3.5 23.3 4.5 31 1.1 7.7 2.4 16.2 3 19 .6 2.7 1.9 11.3 3 19 1 7.7 3.1 21.6 4.5 31 2.8 18.5 6.1 41.7 10 70.5 5.3 40.1 5.6 41.5 8.1 47 4.5 9.8 10.4 13.6 16.2 10.6 7.5-3.9 11.3-17.2 18.2-62.6 7.6-50.3 13.3-67.2 27.5-81.5 11.6-11.8 22.5-15.6 46.3-16.3 40.6-1.1 64.9 10.3 74.4 35 4 10.7 12.6 48.8 14.3 64.3.4 3.3 1.3 8.7 2 12 .8 3.3 1.8 10.3 2.5 15.5 1.4 11.9 3.8 23.7 5.6 27.2 2.7 5.2 15 6.4 19.9 1.8 3.6-3.4 5.3-9.3 7.4-26.5l4-32c1.1-8.8 2.3-17.4 2.6-19 .6-2.8 2.6-18.4 8-60.8 1.3-10.3 2.6-19.5 2.9-20.5.3-.9 1.2-8.2 2.1-16.2.9-8 2-17 2.6-20 .5-3 1.9-12.7 3-21.5s3.1-24.3 4.4-34.5c1.3-10.2 3.3-25.7 4.4-34.5 1.1-8.8 2.3-17.7 2.7-19.8.6-4 0-4.5-3.2-2.3-1.1.8-6.1 2.8-11.2 4.5-30.8 10.4-65.2 1.8-87.7-22-10.5-11.1-16.8-23.1-21.6-41.4-2.2-8.1-2.4-11-2.4-30 0-19.2.3-22.1 2.8-33.5 1.5-6.9 3.3-13.9 3.8-15.5 1-2.7.7-3.6-2.5-8.3-4.6-6.8-5.9-11.9-5.4-20.7.5-10.6 5.5-18.9 14.7-25.1 4-2.6 15.8-5.6 19-4.7 1.4.4 2.9-.9 6.2-5.4 6.4-8.9 25.4-27.3 34.3-33.2 14.6-9.8 31.5-16.8 46.1-19.1 3.9-.6 14.5-1.2 23.8-1.3 9.2-.1 16.7-.3 16.7-.5 0-1.3-3.3-6.2-5.7-8.3-5.7-5.3-8.3-6.3-17.2-6.9-8.5-.5-8.6-.5-8.9-3.2-.4-3.7 3.2-5.1 11.6-4.5 11.7.9 21.5 8 26.8 19.3 2.1 4.4 2.9 5.3 5.7 5.7 2 .3 3.8-.1 4.9-1 2.1-1.9 5.8-9.7 5.8-12.3 0-3.5-2.9-8.2-9.2-14.7-5.1-5.4-5.8-6.5-4.8-8.3 1.7-3.2 4.4-2.4 10.6 3.2zM461 213.7c3.4 2 4.4 4.8 2.3 6.8-1.8 1.8-1.3 1.8-5.6 0-4.5-1.9-7.1-1-11.4 4-3.4 3.8-4.9 4.1-6.7 1.2-1.6-2.6.5-6.8 5.2-10.4 5-3.8 11.4-4.5 16.2-1.6zm-90.1 878.9c1.2 1.5 2.1 3.3 2.1 4 0 .8 1.1 4.6 2.4 8.6 3 8.9 7.1 22.7 8.6 28.7.6 2.4 1.5 4 2 3.5.8-.9 2.9-7.4 7.5-22.9 4.7-16.1 6.9-22 8.4-23.3 2.3-1.9 10.5-1.5 12.4.5.8 1 2.5 5.2 3.7 9.3 1.2 4.1 3.4 11.3 4.7 16 1.4 4.7 3.5 11.8 4.6 15.9 1.7 6.1 2.2 7 2.8 5 2.4-8.1 6.4-21.5 8.4-27.9 1.3-4.1 2.9-9.4 3.5-11.8 1.5-5.8 4.1-8.2 8.8-8.2 8.5 0 9.7 5.6 4.8 21.6-1.5 4.9-3.8 12.3-5.1 16.4-1.3 4.1-3.8 12.2-5.5 18-1.7 5.8-3.8 12.5-4.7 15-4.5 12.4-15 13.2-20.7 1.5-1.5-2.8-2.6-5.6-2.6-6.1 0-.9-6.5-21.9-8.2-26.7-1.2-3.1-1.2-3.1-9.4 22.8-4 12.7-6.7 16.8-11.8 18.1-3.5.8-9-2-10.6-5.5-2-4.3-9.1-26.5-11-34.1-.6-2.5-1.5-5.4-2-6.5-.5-1.1-1.8-5.2-2.9-9-1-3.9-2.4-8.3-3-9.9-.7-1.7-1.3-5.2-1.4-7.9-.2-5.9 1.6-7.7 7.9-7.7 3.4 0 4.7.5 6.3 2.6zm-143.3 9.8c1.8 1.4 1.9 2.7 1.5 31.3-.2 16.4-.7 30.8-1.2 32-1 2.7-5.3 4-8.8 2.6-1.4-.5-3.7-.6-5.1-.2-1.4.4-5 .7-8.1.8-7.1.1-13-2.8-17.3-8.7-2.9-4.1-3.1-5-3.1-12.5 0-9.7 1.8-14.2 7.6-18.8 4.8-3.8 13.3-5.7 18.8-4.3 4.8 1.3 5.1.8 5.1-11.4 0-6.9.3-8.5 2-10.2 2.3-2.3 5.8-2.6 8.6-.6zm65.6 21.5c.9 1.6 1.7 1.7 4.6.9 1.9-.5 5.6-.7 8.1-.3 9.1 1.4 13.2 5.4 11.2 10.8-1.5 4-5.1 5.3-8.9 3.3-3.9-2-6.3-2-10.7.1l-3.5 1.7v12.3c0 11-.2 12.5-2 14.3-2.4 2.4-7.3 2.6-9.6.3-1.5-1.5-1.6-3.7-1-22.2.8-22.7.9-23.1 7.3-23.1 2.1 0 3.7.7 4.5 1.9zm224.9-.3c1 1.2 2.4 1.4 6.4.9 10.1-1.2 18.5 2.7 18.5 8.7 0 2.7-3 6.8-5 6.8-.5 0-2.5-.7-4.4-1.6-3.8-1.8-9.5-1.3-11.9 1.1-1 1-1.7 5.4-2.2 14.5-.7 14.2-1.1 15-7.2 15-5.1 0-5.3-.8-5.3-22.5 0-22.7.5-24.5 6.4-24.5 1.9 0 3.9.7 4.7 1.6zm39 .1c.9 1.5 2.2 1.7 8 1.5 5.3-.3 7.6 0 9.5 1.3 2.4 1.5 2.8 1.5 5.9.1 3.9-1.9 15.2-2.1 18.9-.5 6.9 3.2 9.6 13.6 8.1 31.3-.8 9.7-1.9 11.6-6.9 11.6-5.2 0-5.6-1.1-5.6-15.3 0-7-.5-13.7-1-14.8-.7-1.3-2.1-1.9-4.4-1.9-5.3 0-6.3 2-6.9 15.2-.4 6.5-1.1 12.7-1.7 13.7-1.2 2.4-6.2 3.6-8.9 2.2-2.7-1.5-3.5-6.4-2.7-16.9.7-10-.4-13.5-4.5-14-4.9-.6-6.1 2.4-6.8 16.4-.5 10.9-.9 12.8-2.5 14-2.3 1.7-3.6 1.7-7.1.4l-2.6-1 .3-21.1c.3-19.5.4-21.2 2.2-22.5 2.7-1.9 7.4-1.8 8.7.3zm-293.2 1.3c5 1.4 8.8 5.5 10.1 10.9 1.3 5.6.2 9.7-3.2 11.1-1.3.5-5.7 1.4-9.8 2.1-17 2.5-17.5 2.7-12.7 6.3 4.3 3.2 13.5 2.8 17.7-.7 5.3-4.5 10-3.2 10 2.9 0 2.4-.9 4-3.5 6.2-4.1 3.7-9 5.2-16.6 5.2-10.3 0-17.4-4.1-20.9-12.2-2-4.8-2.8-15.2-1.1-16.2.4-.3 1.1-1.9 1.4-3.4.8-4.1 5.4-9.2 10.2-11.3 4.4-2 13-2.5 18.4-.9zm210.5 1.2c1.2 1.7 1.6 5 1.6 14.3 0 6.6.4 12.6.8 13.2.8 1.3 3 1.7 6.9 1.5 3.6-.3 5-4.6 5.5-17.6.6-13 .9-13.6 6.9-13.6 6.1 0 6.3.6 5.5 23.3-.7 18.7-.9 20.3-2.8 21.9-2.6 2.3-5.6 2.3-8 .1-1.4-1.2-3.9-1.6-10.7-1.7-8.1-.1-9.2-.3-11.6-2.6-5.2-4.8-6-8.2-5.8-23.8.1-9.3.6-14.9 1.4-15.8 1.9-2.3 8.5-1.8 10.3.8z"/><path d="M461.1 242.1c-12.6 2.5-20.6 15.2-18.1 28.7 1.2 6.5 4.5 11.2 11.1 15.7 3.8 2.6 5.5 3 11.9 3.3 6.8.3 8 0 12.7-2.7 7.6-4.5 11.5-10.6 12.1-19.1.6-8.4-.8-12.5-5.8-18.3-5.9-6.6-14.7-9.5-23.9-7.6zm4.5 18.7c3.6 2 5.7 5.6 6.2 10.4.4 4.5.2 5-3.6 8.8-3.6 3.6-4.4 4-9.1 4-4.4 0-5.6-.5-8.6-3.3-11.2-10.3 1.6-27.3 15.1-19.9z"/><path d="M448.7 269.6c-1.3 1.3-.7 5.5.9 6.1 2.4.9 5.1-2.3 3.8-4.5-1.2-1.9-3.6-2.7-4.7-1.6zm76.1-16.2c-5.5 2-8.5 4.2-11.8 8.7-4 5.6-5.3 10.2-4.7 16.9.7 8.1 4.8 14.2 13.2 19.6 2.3 1.5 4.8 1.9 11 1.9 7.1 0 8.5-.3 12.4-2.8 8.1-5.3 12.1-12.3 12.1-21.2 0-16.5-16.8-28.6-32.2-23.1zm7.1 17c5.4 3.5 7.7 10.7 4.9 15.9-3.1 6.1-9.8 8.8-16.1 6.8-3.9-1.3-7.8-6-7.6-9.3.1-1.8.2-1.9.6-.5.3 1.3 1.2 1.7 3.1 1.5 2.1-.2 2.7-.8 2.7-2.8 0-2-.6-2.6-2.7-2.8-1.8-.2-2.8.1-2.8.9 0 1-.3 1-1.2.1-1.9-1.9 1.8-7.9 6.1-10.2 4.9-2.6 8.4-2.5 13 .4zM202.3 1137c-4.5 2.7-6.2 8.6-4.2 14.3 1.1 3.3 2.1 4.4 5.2 5.6 3.4 1.3 4.4 1.3 8-.1l4.2-1.5.3-8.1.3-8.2-3.3-2c-4.1-2.5-6.4-2.5-10.5 0zm47.3-.9c-5 3.9-2.7 4.4 8.2 1.7 3.8-1 4-1.2 2.5-2.4-2.7-2-7.7-1.7-10.7.7z"/></g><path d="M166.3 294.7c2.6.2 6.7.2 9 0s.2-.3-4.8-.3c-4.9 0-6.8.1-4.2.3z" fill="#FFE5E5" stroke="#FFE5E5" stroke-width="3"/><g fill="#E57F99" stroke="#E57F99" stroke-width="3"><path d="M606.3 140.6c-.4 1.1 1 3.1 4.6 6.5 5.1 4.7 9 11.5 9.1 15.4 0 3.8-2.1 9.5-4.7 12.5-2.2 2.7-3.1 3.1-6.7 2.8-3.8-.3-4.3-.6-6.6-5.4-3.7-7.4-7.6-12-13.4-15.5-4.3-2.8-6.3-3.3-13.1-3.7-6.4-.3-8.3-.1-9.3 1.1-1.9 2.2-.3 2.8 8 3 6 .2 8.1.8 11.7 3.1 6.4 4.1 12.8 12 11.9 14.7-.2.5-9.1 1.1-19.8 1.3-21.3.4-27.3 1.3-39.7 5.6-22.3 7.9-41.6 22.2-59.4 44.1-6.8 8.4-8.1 9.6-10.3 9.2-3.1-.6-11.9 1.4-16.6 3.7-5.1 2.7-9.6 7.5-12.7 13.7-2.2 4.7-2.7 6.9-2.6 13.3 0 8.4 2.1 14.2 7.1 20.1 2.1 2.5 2.3 3.4 1.3 5.2-1.1 2.2-4.4 16.2-6.3 27.2-1.3 7.6-1.3 39.4 0 46 6.1 30.3 19.7 50.2 43.2 63.2 3 1.6 7.3 3.6 9.5 4.3 2.2.7 4.5 1.7 5.1 2.2 1.8 1.3 17.2 3.8 23.9 3.8 7.4 0 24.1-2.5 25.8-3.8.6-.5 2.6-1.2 4.2-1.6 1.7-.4 5.2-1.9 7.9-3.2 2.7-1.4 5.1-2.2 5.4-1.9.6.5-1.9 22.4-6.2 55-2.8 21.2-6.2 47.2-10.1 76.5-4.7 35.2-7.4 56.2-10 76-1.4 10.7-3.7 27.8-5 38-1.4 10.2-3.4 26.4-4.5 36-1.2 9.6-2.5 18.4-3 19.5-.4 1.1-1.4 3.5-2 5.3-.7 1.8-2.6 4.4-4.2 5.7-2.5 2.1-4 2.5-9.7 2.5-11.7 0-13.7-3.7-18-34-3.4-23.2-6.9-45.4-7.5-47-.3-.8-1.5-6-2.5-11.5-6.9-35.8-14.4-49.2-32.1-58-11.7-5.7-39.3-9.4-57.1-7.7-17.6 1.8-28.1 6.2-37.3 15.6-4.3 4.3-11.6 14.6-11.6 16.2 0 .2-.9 2.3-1.9 4.7-5.2 11.5-8.7 26.9-13.1 57.7-1.1 7.4-2.4 15.3-2.9 17.5-.6 2.2-1.5 7.6-2.1 12-.6 4.4-1.6 9.6-2.1 11.5-.6 1.9-1.7 6-2.5 9-3.4 12.5-9.4 18.1-17.2 16-3.7-.9-10.2-6.9-10.2-9.3 0-.7-.6-2.4-1.4-3.8-1.9-3.7-2.6-7.1-4.1-19.4-2.6-20.9-9.3-68.9-13.9-99.5-1.4-9.1-3.7-24.4-5.1-34-1.4-9.6-3.7-24.7-5-33.5-1.3-8.8-3.6-23.9-5-33.5-1.5-9.6-3.7-24.7-5.1-33.5-2.3-15.2-4-26.9-9.9-66.5-1.4-9.6-3.7-24.9-5.1-34-1.3-9.1-3.1-21-3.8-26.5-1.6-11.4-2.5-15.5-3.7-17.1-.5-.6-1.5-2.8-2.3-5-3.5-10.1-14.6-21.6-25.8-26.9-10-4.7-18.8-5.9-37.8-5.2-18.6.8-26.2 1.9-35.5 5.4-23.3 8.7-33.4 25.5-33.5 55.8 0 12.7.6 17.5 5.1 40 1.2 5.5 2.9 14.5 3.9 20s2.1 10.7 2.4 11.5c.4.9 1.5 6.3 2.5 12 1.1 5.8 2.6 14 3.5 18.2 3.6 17.4 4.8 23.8 6.6 34.6 1.1 6.2 2.2 11.6 2.4 12.1.3.5 1.5 6.2 2.6 12.7 1.1 6.6 3.2 17.7 4.6 24.9 1.3 7.1 3.6 19 4.9 26.3 1.4 7.2 3.6 19.2 4.9 26.5 1.4 7.2 3.6 19.6 5 27.3 1.3 7.8 2.9 15.9 3.4 18 .6 2.2 1.5 7.7 2.2 12.4.6 4.7 1.6 9.9 2.1 11.7.6 1.8 1.9 8.3 2.9 14.5 1 6.2 3 17.5 4.5 25 5.6 30.1 7.5 40.8 9.5 52.3 1.1 6.6 2.7 15.1 3.5 19 .9 3.8 2.2 11.3 3 16.5 10 67.7 28.9 111.8 55.2 128.6 16 10.2 30.4 14.3 50.8 14.2 12.3 0 17.5-.6 31.9-3.7 23.8-5.1 35.8-12.4 46.1-27.9 2.1-3.2 4.6-6.9 5.6-8.4 1.1-1.5 1.9-3 1.9-3.3 0-.3 1.2-2.9 2.6-5.8 3.4-7 7.8-19 9.4-25.7.7-3 1.6-6 2-6.5.4-.6 1.5-6.2 2.4-12.5.9-6.3 2.1-13.1 2.6-15 .4-1.9 1.5-7.8 2.4-13.1.8-5.3 2.2-10.9 3.1-12.5.8-1.6 1.5-3.4 1.5-4 0-2.1 6-9.4 9.1-11 2.3-1.2 4.4-1.4 7.8-.9 6.7 1 11.8 6.7 15.5 17.1 2.7 7.5 3.8 12 8.6 34.9 1.2 5.5 2.5 10.9 3 12 .5 1.1 1.8 5.4 2.9 9.5 2.2 8.7 6.1 20.3 7 21 .4.3 1.5 2.5 2.6 5s2.2 4.7 2.6 5c.3.3 1.4 2.1 2.4 4s2.7 4.7 3.9 6.1c1.2 1.5 3.2 4.1 4.6 5.9 1.4 1.8 4.3 4.9 6.4 6.9 2.1 2 4.6 4.3 5.5 5.1 5 4.9 17.6 11.3 28.9 14.8 8.3 2.6 9.6 2.7 31.2 2.7 20.2 0 23.5-.3 32.5-2.4 11.8-2.8 20.1-7.1 27.7-14.4 5.8-5.5 15.2-17.9 18.1-23.7.9-1.9 2.1-4.2 2.7-5 2.1-3.3 6.9-15.1 10-24.5 1.8-5.5 3.8-11.6 4.5-13.5 2.1-5.8 6.4-25 8.1-36.1.8-5.7 1.9-12.2 2.4-14.4.5-2.2 1.7-11 2.6-19.5.9-8.5 1.8-15.8 2-16.2.3-.4 1.3-8.1 2.4-17 1.1-9 2.4-18.3 2.9-20.8.6-2.5 1.7-11.2 2.6-19.5.9-8.2 1.9-15.3 2.1-15.7.3-.4 1.4-8.3 2.4-17.5 1.1-9.2 2.2-17.4 2.5-18.1.3-.7 1.4-9 2.5-18.5 1.2-9.4 2.5-19 3-21.2.5-2.2 1.6-10.7 2.5-19 .9-8.2 1.9-15.3 2.1-15.7.3-.4 1.4-8.3 2.4-17.5 1.1-9.2 2.2-17.4 2.5-18.1.3-.7 1.4-9.1 2.5-18.5 1.1-9.5 2.3-17.9 2.6-18.7.3-.8 1.4-9.1 2.5-18.4 1.1-9.2 2.1-17.2 2.4-17.6.2-.4 1.4-8.7 2.5-18.6 1.2-9.8 2.3-18.1 2.5-18.5.3-.3 1.4-8.4 2.5-18s2.5-19 2.9-20.9c.5-1.9 1.5-8.9 2.1-15.5.7-6.6 1.8-14.9 2.5-18.5 2.5-12.4 3.8-33.9 3.2-53.5-.7-19.9-1.2-24.7-4.7-41-9.7-44.8-34.7-75.2-72.1-87.4l-6.7-2.2 3.4-6.7c1.9-3.7 3.4-8.2 3.4-10 0-5.3-5.3-14.4-11.3-19.6-6-5.1-6.5-5.3-7.4-3zm6.2 42.9c2.8.8 7.6 2.1 10.9 3 17.4 4.8 36.8 19.1 48.8 36 4.3 6 14.8 26.1 14.8 28.3 0 .4 1.1 4.3 2.5 8.6 2.3 7.2 4.2 16.5 6.6 32.1 1.3 8.3 1.2 47.4-.1 56.5-1.8 12.7-6 43.7-8 59.5-1 8.2-2.4 17.5-3 20.5-.5 3-1.7 11.3-2.5 18.5-.9 7.1-1.8 13.7-2 14.6-.5 1.6-2 2.3-16.5 8.1-7.9 3.1-21.9 6.2-33.7 7.3-5.2.6-9.7.2-18.4-1.5-16.6-3.1-27.3-8.3-39.7-19-4.3-3.7-5.2-5.1-5.2-7.7 0-2.9 2.2-17.9 3.5-23.9.2-1.1 2.6-3.4 5.2-5.1 6.2-4 21.3-18.2 23.5-22.1 1.6-2.6 1.6-3.1.3-4.2-1.2-1-2.6 0-8.2 6-14.1 15-28 24.1-47 30.8-7.2 2.5-9 2.7-22.8 2.7-13.7 0-15.7-.2-22.5-2.6-17.8-6.3-29.7-14.7-40.1-28.5-2.2-2.8-3.9-5.5-3.9-5.9 0-.5-.6-1.6-1.3-2.4-2.3-2.7-6.6-14.2-8.8-23.6-2.7-10.9-3.7-34.6-2-45.1 3.1-19.2 5.2-28.5 7-31.3.8-1.2 1.3-1.2 3.6.3 5.8 3.8 21.1 3.8 27.3-.1 12.3-7.8 16.9-16.6 16-30.8-.4-6.1-1-8.2-3.7-12.4-3.5-5.4-7.9-9.5-13.1-12.4l-3.2-1.7 4.8-5.8c12.6-15.1 22.5-24.3 34.9-32.4 7.2-4.7 20.6-11.1 26-12.3 1.7-.4 5-1.4 7.5-2.2 9.7-3.2 51.2-3.1 62.5.2zm-136.4 58c5.3 1.8 11.2 7.2 14.2 12.9 3.1 5.9 3 16.5-.1 22.6-3.3 6.3-6.8 9.7-13 12.5-7.1 3.3-14 3.3-20.7.1-10.2-4.8-15.5-13-15.5-23.7 0-18.3 17.4-30.4 35.1-24.4zM221 383.3c2.5.8 6 1.8 7.7 2.2 4 .8 4.3 1.2 5.3 8.3.5 3.1 1.6 10 2.4 15.2 1.8 11.1 4 25.9 6.7 45.5 1 7.7 2.1 14.6 2.4 15.3.3.7 1.4 7.9 2.5 16s2.7 18.3 3.5 22.7c.8 4.4 1.4 9.5 1.5 11.2 0 4-.8 4.1-11 1.1-6.5-1.9-9.9-2.2-25-2.2-15.9 0-18.4.3-27.5 2.8-19.1 5.1-29.9 10.1-47.2 21.8-4 2.6-7.7 4.8-8.2 4.8-.6 0-1.3-1.5-1.6-3.3-1.6-9-4.5-24.2-11-57.7-1.3-6.9-3.5-18.4-4.9-25.5-4.3-22.7-7.6-38.9-8.6-43-1.8-7.3-1.4-8.2 4.4-12 17.6-11.2 39.2-19.6 62.1-24.1 9.5-1.8 40.2-1.2 46.5.9zm201 206.2c12.9 1.7 13.3 1.8 21 4.8 9.8 3.8 17.5 10.3 22.3 18.7 5.7 10.1 13.5 42.6 17.7 73.5.6 4.4 1.7 10.9 2.4 14.5.8 3.6 2 11.2 2.6 17 .7 5.8 2.4 13.6 3.7 17.3l2.4 6.8-9.6 10.1c-5.3 5.6-10.3 11.5-11.2 13.2-.8 1.7-2.1 3.8-2.8 4.6-2 2.3-11.1 20.2-12.5 24.6-.7 2.2-1.8 5.2-2.6 6.9-1.1 2.6-5.1 17.4-6.8 25.6-.5 2.5-3.6 32.4-3.6 35.8-.1 5.3-5-11.1-9-29.9-7.3-34.7-12.2-46-21.4-50.1-4.7-2-9.4-2.5-14.7-1.5l-3.7.8.1-28.4c.1-28.8-.5-36.4-4.3-54.3-6.8-33-22.1-57.8-42.3-68.8-6.6-3.7-6.7-3.9-1.5-14.4 4-8.2 12.5-17.4 19.6-21.3 11.3-6.3 32.1-8.4 54.2-5.5zm131.9 20.2c12.7 12.2 24 18.4 41.2 22.9 15 3.9 32.6 3.8 49.2-.1 6.5-1.5 12.1-2.4 12.4-2.1.4.4.1 4.6-.5 9.4-.7 4.8-2.3 16.8-3.7 26.7-1.3 9.9-3.6 26.3-5 36.5s-3.4 25.7-4.5 34.5-2.2 16.9-2.5 18c-.3 1.1-1.7 10.5-3 21-3.3 25.5-6.2 45.6-7 47.8-.7 1.7-4 2.4-4.9.9-.3-.5-3-1.4-6.1-2.1-7.2-1.6-26.4-9.9-37.9-16.4-12.7-7.1-22.7-14.6-32.7-24.6-10.4-10.4-16.5-18.7-22-29.9-3.4-6.7-4-8.8-3.1-10.1 3.9-5.6 6-12.3 7.1-22.1.7-5.8 1.8-14.3 2.6-19 .7-4.7 1.9-13.5 2.5-19.5.7-6.1 1.6-12.8 2-15 .5-2.2 1.6-10.5 2.5-18.5.9-8 2.2-18.1 3-22.5.7-4.4 1.7-11 2-14.8.4-3.7 1-6.7 1.5-6.7s3.6 2.6 6.9 5.7zm-281.3 52.1c1.2.8 3.9 15 5.4 29.2 2.8 25.8 5.7 39.6 9.6 46.8 2.5 4.6 3.1 6.7 2.4 8-.5.9-2.8 6-5.1 11.2-7.6 17.1-13.2 34.2-17 51.9-1.1 5.2-2.2 9.8-2.5 10.2-.9 1.5-3.3 22.7-4.5 39.6-1 13.8-1 20 0 31.5 1.3 13.8 3.5 31.4 4.7 37 .5 2.3.3 2.8-1.2 2.8-3.7 0-14.6-3.1-20-5.5-3-1.4-5.6-2.5-5.9-2.5-.2 0-3.2-1.9-6.7-4.2-7.4-4.9-17.9-15.2-20.8-20.5-1.2-2.1-3.6-6.3-5.3-9.3-6.8-11.4-16.4-38.5-20.2-56.9-.8-4-1.7-7.7-2-8.1-.3-.5-1.4-6.4-2.5-13.2-2.8-17-6.4-37.8-9.4-53.8-6.6-35.8-6.6-36.1-5.4-38.3 4.6-8.7 17.3-22.3 29.3-31.2 12.6-9.5 34.4-19.3 46.5-21 2.5-.4 5.9-1.1 7.7-1.7 1.8-.5 6.9-1.3 11.5-1.7 4.6-.5 8.8-.9 9.3-.9.6-.1 1.5.2 2.1.6z"/><path d="M562.5 229c-.9 1.5.4 3 2.7 3 1.1 0 3.3.8 4.9 1.7 2.7 1.6 4 4.3 5.1 10.8.2 1.2 1.1 2 2.3 2 1.6 0 2.1-.8 2.3-4 .3-4.6-3.6-11.6-7.5-13.4-3-1.4-9-1.4-9.8-.1zm-40.2 18.9c-13.6 4.7-21.3 16.7-20.1 31.5.9 10.9 6.8 19.6 16.8 24.8 3.8 1.9 6 2.3 14 2.3 8.7 0 9.9-.3 14.2-2.8 10.3-6.2 15.8-15.8 15.8-27.4 0-5.8-2.9-15.3-5.4-17.8-.9-.9-1.9-2.1-2.3-2.8-1.7-2.6-8.2-6.6-13.3-8.1-6.9-2.1-13.2-2-19.7.3zm24.2 6.8c2.9 1.9 6.3 5.2 8 8 2.5 4 3.1 6 3.4 12.5.2 6.4-.1 8.5-1.9 12.3-4.7 9.7-12.8 14.8-23.5 14.9-5.8 0-7.8-.4-11.5-2.7-5.2-3-8.7-6.5-11.9-12-1.8-2.9-2.3-5.3-2.3-10.6-.1-8.2 2.6-14.4 8.5-19.8 5.9-5.3 9.1-6.4 18.2-6.1 7.1.3 8.6.7 13 3.5zm-96-41c-4.9 1.3-11.6 8.8-10 11.3 1.1 1.8 2.8 1 6.2-3 3.7-4.3 6.9-5.1 11.8-2.8 2 .9 2.8.9 3.7 0 2.8-2.8-6.1-6.9-11.7-5.5z"/></g><path d="M702.4 318.5c0 6.6.1 9.2.3 5.7.2-3.4.2-8.8 0-12-.2-3.1-.3-.3-.3 6.3zM526.8 936.7c2.8.2 7.6.2 10.5 0 2.8-.2.5-.3-5.3-.3s-8.1.1-5.2.3z" stroke-width="3" fill="#E599B2" stroke="#E599B2"/><path d="M574.8 181.7c3.4.2 8.8.2 12 0 3.1-.2.3-.3-6.3-.3s-9.2.1-5.7.3zm-80.4 35.5c-6.6 6.9-15.3 16.7-10.3 11.8 5.6-5.6 19.2-20 18.8-20-.2 0-4.1 3.7-8.5 8.2zM619.5 636l-13 .6 12.5.1c6.9 0 13.9-.3 15.5-.7 3.5-.9 4.5-.9-15 0zM259.3 880c0 4.7.2 6.6.4 4.2.2-2.3.2-6.1 0-8.5-.2-2.3-.4-.4-.4 4.3z" stroke-width="3" fill="#FFB2CC" stroke="#FFB2CC"/><path d="M166.8 295.7c2.3.2 6.1.2 8.5 0 2.3-.2.4-.4-4.3-.4s-6.6.2-4.2.4zm230.5 293c3.1.2 8.3.2 11.5 0 3.1-.2.5-.3-5.8-.3s-8.9.1-5.7.3z" stroke-width="3" fill="#E57FB2" stroke="#E57FB2"/><path d="M563.2 183c-5.1.4-10.5 1.3-12 1.8-1.5.6-5.4 1.8-8.7 2.7-10.5 2.9-24 10.2-34.9 18.7-4.4 3.5-19.7 18.8-23.1 23.2-4.8 6.2-4.8 6.4-1.7 8 4.4 2.3 10.8 9.2 13.4 14.4 3.4 6.9 3.3 20.6-.1 27.7-3.4 6.7-8.5 12.1-14.5 15.3-4.6 2.4-6.2 2.7-15.1 2.7-7.7 0-10.7-.4-12.6-1.6-2.4-1.6-2.5-1.6-3.7 1-1.8 4-5.4 24.5-6.1 34.8-.3 5.1-.3 13.6 0 19 .6 9.5 4.2 28.7 5.8 30.8.4.5 1.5 2.9 2.4 5.2 2.6 6.7 8.6 15.3 15.7 22.5 3.7 3.8 7.1 6.8 7.6 6.8s2.7 1.4 4.8 3c2.2 1.7 4.5 3 5.2 3 .7 0 1.9.6 2.6 1.3 2.3 2.3 16.5 6.7 24.9 7.8 9.3 1.1 25.1-.3 29.7-2.7 1.5-.7 3.3-1.4 3.9-1.4 2.5 0 14.9-6.4 23.2-11.9 4.6-3 12.5-9.7 17.6-14.9 7.3-7.4 9.8-9.3 11.6-9 1.8.2 2.5 1 2.7 3.3.2 2.5-.9 4.2-6.6 10-7 7.3-13.3 12.9-17.2 15.5-5.5 3.7-6 4.5-7.1 11.5-.5 3.8-1.4 9.5-1.9 12.5l-.8 5.5 5.6 5.3c5.2 4.8 7.1 6.2 15.2 10.7 11.5 6.4 22 8.9 37.5 8.9 11 0 26-2.3 32-4.9 1.7-.7 4.6-1.8 6.5-2.5 3.6-1.3 14-6 14-6.3.2-.7 5.4-41.1 6.9-53.7 1.1-8.5 2.4-17.8 3-20.5.6-2.8 1.8-11.5 2.7-19.5.8-8 1.9-16.1 2.4-18 1.5-5.7 2.2-37.6 1.1-49-1.1-12.2-4.7-33.6-6.1-36.5-.5-1.1-1.4-4-2-6.5-1.7-6.7-7.5-19.4-13-28.5-8.1-13.3-17.4-22.5-32.5-32.1-7.4-4.7-23.1-10.1-35.8-12.4-7.3-1.4-32.2-1.9-42.5-1zm9.8 44.5c4.5 2.3 7.8 7.4 8.5 13.1.6 4 .4 5.4-1 6.7-3.3 3.4-7.5 1.4-7.5-3.4 0-6.1-2.5-8.9-9.2-10.3-2.3-.5-2.8-1.2-2.8-3.5 0-1.5.3-3.1.7-3.4 1.2-1.2 8.4-.7 11.3.8zm-30.9 18.1c9.4 2.8 19 11.7 20.7 19.3.5 2 1.3 5.4 1.8 7.6 1 4 .7 6-2.2 16.2-1.8 6.4-8.5 13.7-15.9 17.3-4.2 2.1-6.5 2.5-14 2.5-7.4 0-9.8-.4-13.9-2.4-9.8-4.8-16.8-14.3-18.1-24.9-.8-6.1 1-17.6 3.1-19.7.8-.7 1.4-1.7 1.4-2.2 0-.4 1.3-2.2 2.8-3.9 8.8-9.9 21.5-13.6 34.3-9.8zm-69.1 79c0 8.4-3.8 10.7-8.4 5.2-3.8-4.6-3.4-7.4 1.4-9.4 3.9-1.7 7 .1 7 4.2zm17.4.7c2.7 1.9 2.4 6.6-.5 8.8-5.8 4.5-9.4 3-8.6-3.3.3-2.2 1.1-4.5 1.7-5.3 1.5-1.9 5-1.9 7.4-.2zm51 47.3c-.1 4.6-.8 7.5-3.2 12.5-1.7 3.5-4 7.3-5 8.5-5.5 6.4-17.3 10.3-26.6 8.7-5.5-.9-7.2-2.7-6.2-6.8.7-2.7.7-2.7 7-2 8.4.9 14-.7 18.6-5.3 3.6-3.5 7-11 7-15.3 0-3.6 3-7 5.9-6.7 2.5.3 2.6.6 2.5 6.4zM175 384c-7.9 1.5-21.4 5-24.5 6.4-1.6.8-4.1 1.7-5.5 2.1-6 1.8-20.6 8.9-30.1 14.7l-6.6 4.1.9 4.1c1.7 7.3 9.2 45.3 13.4 67.6 6.4 33.5 7.7 40.2 9.6 51 1.1 6.3 2.2 11.6 2.3 11.8.3.3 9.7-5.9 10.5-6.9.3-.4 2.5-1.8 5-3.1 2.5-1.4 7-3.8 10-5.5 3-1.6 7.3-3.6 9.5-4.3 2.2-.7 4.5-1.6 5.1-2.1.9-.8 12.3-3.8 21.9-5.9 11.6-2.5 41.5-1.9 44.9.9.6.5 3 1.2 5.4 1.6l4.2.7-.1-3.4c0-1.8-.5-5.6-1-8.3-.5-2.8-2.1-12.2-3.4-21-1.3-8.8-3.5-23.9-5-33.5-1.4-9.6-3.7-24.9-5.1-34-1.3-9.1-3-20.1-3.6-24.5-.6-4.4-1.6-8.3-2.1-8.7-.6-.3-3.1-.9-5.6-1.3-2.5-.4-5.2-1.2-6-1.8-1.6-1.4-37.4-2-44.1-.7zm222.8 198.7c2.3.2 6.1.2 8.5 0 2.3-.2.4-.4-4.3-.4s-6.6.2-4.2.4zm-6.8 8c-18.8 1.8-29.6 7.9-38.6 22-3.3 5.1-7 13.1-6.3 13.7.2.1 2.9 1.8 5.9 3.7 3 1.8 6.4 4.1 7.5 4.9 3.7 2.8 13.5 13.5 14.1 15.2.3 1 .9 1.8 1.2 1.8.4 0 1.6 1.7 2.7 3.7 1.1 2.1 2.6 4.4 3.2 5.1.7.7 1.3 1.7 1.3 2.2 0 .5 1.1 3.3 2.4 6.2 3.8 8.5 7.4 20 8.7 27.4.6 3.8 1.5 7.8 2 8.9 2.4 5.7 4.3 63.9 2.3 71.9-.5 2.2-.3 2.6 1.4 2.6 1.2 0 2.4-.5 2.7-1 .9-1.4 4.3-1.2 10.1.8 7.9 2.7 13.8 8.7 16.4 16.7.7 2.2 1.6 4.4 2 5 .4.5 1.5 4.6 2.5 9 .9 4.4 2 8.9 2.5 10 .5 1.1 1.7 6.3 2.5 11.5.9 5.2 2 9.9 2.5 10.5.4.5 1.1 3 1.5 5.3 1.1 7 2.6 3.6 4-9.4 1.6-13.6 2.3-18.1 3.5-20.9.5-1.1 1.4-4.5 2-7.5.7-3 1.8-6.9 2.5-8.5.7-1.7 1.9-4.8 2.5-6.9 1.5-4.8 10.7-22.9 14.1-27.7 5.4-7.7 10.5-13.7 16.2-19.1 6.5-6.2 6.5-5.8 2.6-14.3-.5-1.1-1.8-8.3-2.9-16-4-28.4-10.6-67.9-12-71-.5-1.1-1.7-5.8-2.6-10.5-.9-4.7-2-9-2.4-9.5-.4-.6-1.5-3.6-2.5-6.8-1-3.1-2.1-5.7-2.6-5.7-.4 0-1-.8-1.4-1.9-.8-2.5-11.3-13.1-13-13.1-.3 0-2.8-1.1-5.6-2.4-6.4-3.2-12.4-4.4-27.4-5.6-11.7-.9-18.4-1-25.5-.3zM547.9 607c-.5 1.5-6 43.5-14.8 110.5-1.5 12.1-2.4 15.9-4.6 19.7-1.5 2.6-3 5-3.5 5.3-1.6 1 8.5 18.9 16.3 28.8 16.6 21.1 50.1 42.3 80.2 50.6l6.6 1.9 1-2.2c.9-2.3 3.9-22.9 6.9-48.1 1-8.8 2.3-18 2.9-20.5.6-2.5 1.8-11 2.6-19 .9-8 2-16.1 2.5-18 .5-1.9 1.7-10.5 2.6-19 .9-8.5 1.8-15.9 2.1-16.3.3-.5 1.6-9.3 2.9-19.5 1.4-10.3 2.8-21.1 3.2-24 .9-5.9 1.2-5.8-7.3-3.6-3.3.9-8 2-10.5 2.4-5.9 1.2-30.4 1.2-35.5 0-7.8-1.7-18.6-4.8-19.8-5.7-.7-.5-3.3-1.7-5.9-2.7-2.7-1-4.8-2.1-4.8-2.6s-1-1.2-2.2-1.6c-2.9-.9-8.8-5.4-15.5-11.8-2.9-2.8-5.4-4.8-5.4-4.6zM260 663.7c-3 .2-6.4.7-7.5 1.2-1.1.5-6 1.6-11 2.6-4.9.9-9.4 2-10 2.4-.5.5-2.8 1.4-5 2.1-14 4.4-30.5 14.9-43.1 27.4-8.6 8.5-16.4 18.5-16.4 20.9 0 2.2 2.1 14.4 3.1 17.7.6 1.9 1.9 8.9 3 15.5s3.1 18.3 4.5 26c1.3 7.7 3.3 19.6 4.4 26.5 1.1 6.9 2.3 13.2 2.6 14 .4.8 1.7 6 2.9 11.5 2.8 12.2 6.2 24 8 28 .7 1.6 1.7 4.3 2.1 6 1.8 7.6 13 29.4 18.4 35.7 7.9 9.3 18.3 17.4 26.4 20.5 2.2.9 4.6 2 5.2 2.4 1 .8 12.8 3.9 15 3.9.7 0 .6-2.8-.3-8.8-5.7-38.6-4.7-71.2 3.6-110.7 1.2-5.5 2.6-10.9 3.1-12 .5-1.1 1.6-4.9 2.5-8.3.9-3.5 2-7.1 2.5-8 .5-1 1.7-4.2 2.6-7.2.9-3 2-6 2.4-6.5.3-.6 1.5-3.3 2.5-6 1-2.8 2.1-5.2 2.5-5.5.3-.3 1.5-3 2.6-6l2-5.5-2.3-4c-4.4-7.6-5.2-11.5-9.8-46.5-1.3-10.2-2.7-20.1-3-22-1.4-8.1-1.3-8-4.8-7.8-1.7.1-5.7.3-8.7.5z" stroke-width="3" fill="#FFCCE5" stroke="#FFCCE5"/><path d="M258.4 874c0 7.4.1 10.5.3 6.7.2-3.7.2-9.7 0-13.5-.2-3.7-.3-.6-.3 6.8z" fill="#FCC" stroke="#FCC" stroke-width="3"/><path d="M397.4 749c0 7.4.1 10.5.3 6.7.2-3.7.2-9.7 0-13.5-.2-3.7-.3-.6-.3 6.8z" fill="#FF99B2" stroke="#FF99B2" stroke-width="3"/><path d="M454.5 261.9c-1.1.5-2.8 1.9-3.7 3-1.7 2-1.7 2.1.1 2.1 4.9 0 6.9 7.7 2.6 10-2.4 1.3-2.4 1.5-.8 3.2 1.1 1.2 3 1.8 6 1.8 3.6 0 5-.6 7.8-3.4 4.5-4.2 4.7-8.6.7-13.4-3-3.6-8.7-5.1-12.7-3.3zm64.3 10.7c-3.5 1.9-3.7 4.4-.3 4.4 4.2 0 4.9 7.5.8 9.5-1.9 1-1.9 1.3-.6 3 1 1.5 2.6 2 6.1 2 4 0 5.2-.5 8-3.4 2.2-2.4 3.2-4.3 3.2-6.6 0-2.9-2.7-7.8-5.5-9.7-1.7-1.3-8.9-.8-11.7.8z" stroke-width="3" fill="#190000" stroke="#190000"/><path d="M466 323.5c-.9 1.1-.8 2 .6 4.5 2.3 3.9 3.2 3.8 4-.4.9-5.2-1.7-7.6-4.6-4.1zm17.4 6.1c-.9 3.5.7 4.9 3.7 3.2 3.3-1.8 4-3 2.7-4.5-1.9-2.3-5.7-1.6-6.4 1.3z" stroke-width="3" fill="#330019" stroke="#330019"/><path d="M536.5 369.2c-.2.7-1.4 4.3-2.5 8-4.4 13.8-10.2 18.3-23.7 18.3-7.9-.1-8.3 0-8.3 2.1 0 2 .7 2.3 5.5 2.9 9.7 1.3 17.4-1.4 23.9-8.2 6.6-7 11.6-24.3 7.1-24.3-.9 0-1.8.6-2 1.2z" fill="#CC667F" stroke="#CC667F" stroke-width="3"/><path d="M606.4 1149c0 5.2.1 7.4.3 4.7.2-2.6.2-6.8 0-9.5-.2-2.6-.3-.4-.3 4.8z" fill="#CC997F" stroke="#CC997F" stroke-width="3"/><path d="M475.4 1138.5c0 6 .1 8.4.3 5.2.2-3.2.2-8.1 0-11-.2-2.9-.3-.3-.3 5.8z" fill="#FFFFE5" stroke="#FFFFE5" stroke-width="3"/><path d="M473.4 1139c0 6.3.1 8.9.3 5.7.2-3.1.2-8.3 0-11.5-.2-3.1-.3-.5-.3 5.8z" fill="#963" stroke="#963" stroke-width="3"/><path d="M359.5 1093.6c-1.2 1.3-1.4 2.7-.9 6.3.4 2.5 1 4.8 1.4 5.1.4.3 1.5 3.9 2.5 8s2.1 8 2.6 8.5c.4.6 1.5 4.1 2.3 7.9.9 3.8 2 7.4 2.5 8 .5.6 1.6 4.5 2.6 8.6s2.1 7.9 2.5 8.5c.3.5 1.2 2.9 1.9 5.2 1.6 5.7 4.5 8.3 9.2 8.3 3.2 0 4.3-.6 6.4-3.5 1.5-1.9 3.3-6 4.1-9.2.8-3.2 1.9-6.7 2.4-7.8.5-1.1 1.6-4.7 2.5-8 .9-3.3 2-6.9 2.5-8 .5-1.1 1.3-3.3 1.7-4.9 1.1-3.5 3.3-4.7 3.3-1.7 0 1.2.4 2.1.8 2.1.5 0 1.4 2.6 2.1 5.7.7 3.2 1.9 7.1 2.7 8.8.7 1.6 2 5.7 2.8 9 1.9 7.6 6 16.1 8.1 16.9 2.4.9 6.4.7 8.5-.4 2.4-1.3 5.5-8 7.6-16.5.9-3.9 2-7.5 2.4-8 .4-.6 1.6-4.5 2.6-8.8 1-4.2 2.1-7.7 2.4-7.7.4 0 1.5-3.6 2.5-8s2.1-8 2.5-8c.4 0 1.3-3.1 2-6.8 1.6-8.9.6-11.2-4.9-11.2-4.8 0-6.4 2.1-8.7 11.7-.9 3.7-2 7.2-2.4 7.8-.4.5-1.6 4.5-2.6 8.7-1 4.3-2.1 7.8-2.5 7.8-.4 0-1 1.7-1.3 3.7-1.4 7.8-2.7 11.3-4.1 11.3-1.4 0-2.7-3.5-4.1-11.3-.3-2-.9-3.7-1.3-3.7s-1.5-3.5-2.5-7.8c-1-4.2-2.2-8.2-2.6-8.7-.4-.6-1.5-4.4-2.5-8.5-2.2-9.4-3.5-11-9.2-11-3.8 0-4.5.3-5.3 2.7-.6 1.6-1.4 3.5-1.8 4.3-.5.8-1.7 4.9-2.7 9-1 4.1-2.1 7.9-2.5 8.5-.4.5-1.5 4.1-2.5 7.9-.9 3.8-2.1 7.6-2.6 8.5-.5.9-1.3 3.5-1.9 5.8-.6 2.4-1.4 4.3-1.8 4.3-1.2 0-4-7.2-5.3-13.8-.7-3.4-1.6-6.2-1.9-6.2-.4 0-1.5-3.6-2.5-8s-2.1-8-2.5-8c-.4 0-1.3-2.7-1.9-6-.7-3.3-1.9-6.6-2.7-7.5-2-2-7.8-1.9-9.9.1zm-139.3 10.7c-.6.7-1.4 6.3-1.8 12.5l-.7 11.3-2.6-.8c-1.4-.4-5.4-.8-8.8-.8-5.2 0-6.8.4-10.4 3-11.7 8.2-12.1 26.1-.8 34.5 3.9 2.8 12.3 3.8 18.4 2.1 2.6-.7 4.3-.7 4.9-.1 1.4 1.4 6.2 1.2 7.3-.3 1.5-1.8 2.7-58.1 1.3-60.7-1.2-2.3-5.2-2.7-6.8-.7zm-6.4 30.9 4.2 2.3v18.5l-4.2 2c-5.1 2.5-8.7 2.5-12.7.3-3.8-2.3-5.1-5.1-5.1-11.6 0-6.3 1.5-9.5 5.5-11.8 4.1-2.4 7.2-2.3 12.3.3zm72.5-10.9c-1.9.8-2.2 2-2.8 10.1-.3 5-.5 14.3-.3 20.6l.3 11.5 2.8.3c5.1.6 5.7-.8 5.7-14.4 0-13.8.3-14.6 7.2-16.4 3.2-.9 5-.8 8.7.4 4.4 1.5 4.7 1.5 6.4-.6 2.3-2.7 1.9-4.6-1.6-7.2-2.4-1.8-4.2-2.1-11.8-2-4.9.1-8.9-.2-8.9-.5 0-1.6-3.6-2.8-5.7-1.8zm225.4.1c-1.5 1.2-1.9 3.9-2.6 20.7-.5 12.9-.5 19.8.2 20.7.6.7 2.4 1.2 4.1 1 2.7-.3 3.2-.7 3.8-4.3.4-2.2.7-8.4.7-13.7.1-9.6.1-9.8 2.9-11.2 4.7-2.4 8.5-2.7 13.1-1.1 5.1 1.8 7.4.7 6.9-3.3-.6-4.6-4.9-6.7-14.3-6.7-6.5 0-8.7-.4-10.2-1.8-2.3-2-2.3-2-4.6-.3zm37.9 1.2c-1.3 1.2-1.6 4.1-1.6 14.7 0 7.3-.3 15.4-.6 18.2-.7 6.3 1 9.1 5 8.1 1.5-.4 2.9-1.2 3.1-1.9.2-.7.7-6.6 1-13.1.6-10.7 1-12.2 3.1-14.3 2.8-2.8 7.4-3 9.7-.5 1.4 1.5 1.7 4.2 1.7 14.9 0 14.3.7 16.1 5.5 14.9 3.6-.9 4.5-4.1 4.5-16.2 0-9.8.2-10.7 2.5-12.9 2.9-3 9.5-3.5 11.6-.8 1 1.1 1.6 5.8 1.9 15.7l.5 14.1 2.5.3c5.2.5 5.5-.5 5.5-16.5v-14.8l-3-3.7c-2.1-2.7-4.1-4-7.5-4.8-5.3-1.3-12.1-.1-15 2.5-1.9 1.7-5 1.5-5-.4 0-1.7-9.5-3.3-13.5-2.2-3.1.8-3.9.7-5.6-1-2.3-2.3-4.2-2.4-6.3-.3zm-302.6 1.5c-5.3 2.1-11 10-11 15.2 0 1.2-.5 2.8-1.2 3.5-.9.9-.9 1.7 0 3.4.6 1.3 1.4 3.8 1.7 5.6.8 4 6.1 9.5 10.6 11.1 3.9 1.4 13.2 1.4 17.8.1 6.7-1.9 11.2-8.5 7.9-11.8-.9-.9-1.5-.9-2.7.2-5.3 4.7-16.8 7.5-18.6 4.6-.3-.6-1.4-1-2.3-1-1.9 0-7.2-4.8-7.2-6.6 0-1.3 2.4-1.9 15.9-3.9s13.9-2.1 14.6-5.4c1.3-6.1-2-12.1-8.2-14.7-3.7-1.6-13.6-1.7-17.3-.3zm16 7.9c2.8 3.2 1.2 4.6-6.3 5.4-3.4.4-7.7.9-9.4 1.3-4.5.7-4.4-1.8.2-6.4 3.3-3.3 3.9-3.5 8.5-3.1 3.6.4 5.6 1.2 7 2.8zm202.3-7.1c-.8 1.3-1.3 5.9-1.3 12.6 0 12.7 1.8 19.3 6.4 23.1 2.9 2.6 3.4 2.6 11.8 2.1 6.9-.4 8.7-.3 9.2.9.3.8 1.9 1.4 3.5 1.4 2.6 0 3.2-.5 4.1-3.8.7-2.2 1-10.4.8-20.7l-.3-17-2.8-.3c-5-.6-5.7.9-5.7 13 0 8.6-.4 11.4-1.7 13.6-2.5 3.8-3.2 4.2-8.5 4.2-4.3 0-4.8-.3-6.2-3.3-1.1-2.2-1.6-7-1.8-15.2l-.3-12-3-.3c-2.1-.2-3.4.3-4.2 1.7z" stroke-width="3" fill="#994C19" stroke="#994C19"/></svg>