<svg version="1.0" xmlns="http://www.w3.org/2000/svg" viewBox="0 0 782 1259"><g fill="#FFF" stroke="#FFF" stroke-width="3"><path d="M0 629.5V1259h782V0H0v629.5zm331-475.8c9 5.6 14 15.4 14 27.6 0 5.4-1.3 5.5-3.5.2-1.8-4.2-7.6-11.1-12.3-14.5-2-1.4-7-3.9-11-5.4-6.7-2.6-7.3-3-7-5.5.2-2 1.2-2.9 3.8-3.8 4.2-1.5 12.5-.8 16 1.4zm-209 8.1c1.9 1.5 2.1 2.2 1.1 3.9-.6 1.2-2.5 2.5-4.3 2.8-9.8 2.2-21.3 11.7-25.8 21.2-1.1 2.4-2.3 4.3-2.6 4.3-.4 0-.5-3.6-.2-7.9.7-12.2 6.3-21.6 15-25.1 4.2-1.6 14.4-1.2 16.8.8zm126.5 3.2c7.8 2.5 21.1 8.5 22 10 .3.6 2.5 1 4.8 1 25 0 46.1 15.5 53.4 39.1 2.7 9.1 2.9 20.5.4 29l-1.4 4.5 9.8 17c5.4 9.3 10.8 18.5 12 20.4 1.2 1.9 4.1 6.9 6.5 11 4.1 7.2 12.4 21.5 23.6 40.5 2.9 4.9 7.3 12.6 9.8 17.1 5 8.8 6.8 10.9 9 10.1 1.2-.5 9.7-13.8 16.1-25.2.6-1.1 2.6-4.6 4.5-7.8 1.9-3.3 4.3-7.3 5.3-9 7.6-13 16.4-27.8 18.2-30.7 1.3-1.9 3.9-6.4 6-10 2-3.6 6.1-10.6 9-15.5 3-5 7-11.9 9-15.5 2.1-3.6 4.8-8.1 6-10 1.2-1.9 5.1-8.4 8.6-14.3 7.5-13 13.1-18.9 21.9-23.1l6.5-3.1h76c82 0 78.9-.2 86.2 5.3 4 3 8.3 11.4 8.3 16.4 0 5.8-4 16.1-10.8 27.8-3.3 5.8-10.4 18.1-15.7 27.5-5.3 9.3-14.3 25.1-20 35-5.7 9.9-14.7 25.6-20 35-5.3 9.3-14.3 25.1-20 35-5.7 9.9-14.6 25.4-19.8 34.5-5.2 9.1-14 24.6-19.7 34.5-5.7 9.9-14.7 25.6-20 35-5.4 9.3-14.1 24.8-19.5 34.2-5.3 9.5-10 17.5-10.5 17.8-.5.3-1.1 1.9-1.5 3.5-.5 2.5.2 4.6 4 11.3 2.6 4.5 5.7 9.8 6.9 11.7 1.3 1.9 4.9 8 8.1 13.5 3.2 5.5 9.1 15.4 13 22 4 6.6 7.5 12.7 7.9 13.5.4.8 2.1 3.8 3.9 6.7 3 4.9 4.9 8.1 17.7 29.8 2.9 4.9 7.4 12.6 10.1 17 2.6 4.4 6.7 11.4 9 15.5s5 8.6 5.9 10c1.5 2.1 8 13 17.7 29.7 1 1.7 3.4 5.7 5.3 9 1.9 3.2 3.9 6.7 4.5 7.8.6 1.1 3.2 5.4 5.7 9.5 2.4 4.1 7.8 13.1 11.8 20 4 6.9 8 13.6 8.9 15 1 1.4 3.2 5.2 5 8.5 1.9 3.3 4.4 7.6 5.6 9.5 1.2 1.9 5.4 8.9 9.3 15.5 10 17.1 10.3 17.7 14.2 24.2 1.9 3.2 3.9 6.7 4.5 7.8.7 1.1 4.1 6.9 7.7 13 8.5 14.2 10.9 19.6 11.5 25.9.8 7.7-1.1 13.1-6.3 18.2-7.9 7.6-5.1 7.4-87.4 7.4-78.7 0-78.2 0-87-5.5-4.3-2.7-12.4-11.5-15.1-16.4-1.1-2-4.3-7.4-7.1-12.1-2.8-4.7-6.6-11.2-8.6-14.5-1.9-3.3-4.2-7.2-5.1-8.7-.9-1.4-3.3-5.7-5.5-9.5-2.1-3.7-4.8-8.4-6.1-10.3-1.2-1.9-5.4-8.9-9.3-15.5-3.8-6.6-7.9-13.6-9.1-15.5-1.1-1.9-3.2-5.5-4.6-8-1.4-2.5-3.4-5.9-4.4-7.5-2.3-3.8-16.8-28.2-23.4-39.5-2.7-4.7-7.2-12.3-10-17-2.7-4.7-5.7-9.7-6.6-11.2-.9-1.6-2.1-2.8-2.7-2.8-2 0-1.9-.2-24.6 39.5-4.4 7.7-11.5 20.1-15.8 27.5-4.2 7.4-11.2 19.6-15.5 27-4.3 7.4-8.6 14.8-9.5 16.5-5.3 9-30.4 52.8-35 61-3.5 6.3-9.3 12.9-14.3 16.4-9.1 6.2-7.2 6.1-93.7 6.1-88.8 0-85.6.2-93.4-7.3-9.2-8.8-8.4-21.5 2.5-39.7 3.4-5.8 6.7-11.4 7.4-12.5.6-1.1 2.6-4.6 4.5-7.8 3.9-6.5 4.2-7.1 14.2-24.2 3.9-6.6 8.1-13.6 9.3-15.5 1.2-1.9 3.7-6.2 5.6-9.5 1.8-3.3 4-7.1 5-8.5.9-1.4 4.9-8.1 8.9-15s9.4-15.9 11.8-20c2.5-4.1 5.1-8.4 5.7-9.5.6-1.1 2.6-4.6 4.5-7.8 1.9-3.3 4.3-7.3 5.3-9 9.7-16.6 16.3-27.6 17.7-29.7.9-1.4 3.6-5.9 5.9-10 2.3-4.1 6.4-11.1 9-15.5 2.7-4.4 7.2-12.1 10.1-17 12.8-21.7 14.7-24.9 17.7-29.8 1.8-2.9 3.6-5.9 4-6.7.9-1.9 15.9-27.4 18.8-32 1.2-1.9 4.5-7.3 7.2-12s8.2-14 12.1-20.6c8.6-14.5 8.8-16.1 3.2-25.4-2.1-3.6-6-10.1-8.5-14.5s-7-12.1-10-17c-3-5-7.1-11.9-9.1-15.5-3.5-6-17.3-29.6-19.4-33-.6-.8-2.1-3.5-3.5-6s-3.4-5.9-4.4-7.5c-2.2-3.6-14.4-24.3-28.4-48-10.5-17.8-13-22.1-17.2-29.5-1.4-2.5-3.4-5.9-4.4-7.5-3.5-5.8-18.5-31.2-27.4-46.5-9.6-16.4-12.1-20-14.5-20-3.4 0-14.3-7.3-20.2-13.6-8.1-8.7-12.6-18.1-14-29-3.1-24.8 9.2-46.8 31.7-56.7 6.2-2.8 19.8-5.1 23.7-4.1 1.5.3 4.3-.8 8.7-3.4 8.5-5.2 17.1-8.7 29.9-12.3 9.7-2.7 11.5-2.9 24-2.5 10.4.3 15.1.9 20.5 2.6zm211.8 928.9c2.3 2.2 7.4 7.8 11.2 12.5 3.9 4.6 7.4 8.4 7.9 8.2.4-.1 5.2-5.3 10.5-11.6 6.9-8.3 10.5-11.7 12.8-12.3 6.9-2 12.5 2.4 10.4 8.3-.9 2.7-5.6 9.2-10.1 14-.8.9-2.7 3.2-4.2 5.1-1.4 1.9-3.8 4.7-5.2 6.4-1.4 1.6-2.6 3.5-2.6 4.2 0 .6 2.5 4.2 5.5 8 12.9 15.8 18.1 22.6 18.9 24.7 1.7 4.7-3.9 9.3-9.9 8.2-2.6-.5-5.3-3.2-14.7-14.6l-11.6-14-10.6 13c-5.9 7.2-11.8 13.8-13.2 14.6-3.3 2.2-8.9 1.1-11-2.1-2.5-3.8-.8-6.9 12.2-23.1 8.3-10.4 11.3-14.8 10.6-15.7-21.6-26.9-22.2-27.8-22.2-31.2 0-4.1 2.9-6.5 7.7-6.5 2.5 0 4.4 1 7.6 3.9zm-143.9 8.7c1.4 1.3 1.6 4.9 1.5 24.7-.1 28.3-.9 39.4-2.9 40.7-2 1.3-7.4 1.2-8.6 0-.8-.8-1.9-.8-3.8 0-3.1 1.1-9.8 1.3-14.6.3-2-.4-5.2-2.5-8.1-5.2-5.9-5.8-7.4-11.5-5.7-21.2.9-5.6 1.7-7 5.7-11 6.3-6.4 15.6-8.6 23.3-5.4 1.4.6 1.7-.5 2-9.8.2-8.6.6-10.9 2.2-12.6 2.3-2.5 6.8-2.8 9-.5zm82.8 22.4c1.4.7 3.4 2.7 4.3 4.4 1.7 3.1 1.7 3.4 0 5.9-2 3.1-3.4 3.3-9.3 1-3.3-1.2-5.2-1.4-8-.7-5.7 1.4-4.8 3.7 1.8 4.7 13.1 1.9 19.9 13.6 13.5 23.3-6.4 9.8-34.5 7.2-34.5-3.1 0-3.7 3.3-5.8 7.7-5 2.1.3 6.6.9 10.1 1.2 5.2.4 6.2.2 6.2-1.1 0-2-2.4-3.2-8.5-4-6.4-.9-12.1-4.6-12.8-8.3-.9-4.6 1.1-11.8 4.2-14.7 5.4-5.2 18-7 25.3-3.6zm-38.1 1.9c1.4 1.8 1.6 3.8 1.1 15-.4 10.8-.2 13.7 1.3 17.9 2.1 5.7 1.6 7.7-2.1 9.4-2.1 1-3.1.9-5.4-.4-2.6-1.5-3.4-1.5-8.5-.2-6.9 1.8-15.1.5-19.2-3-3.2-2.8-6.3-10.8-6.3-16.3 0-5.9 3.4-14.3 7.2-18 6.3-5.9 10.8-7.3 22.2-6.8 6.7.2 8.3.6 9.7 2.4z"/><path d="M269.5 184.9c-12.2 3.3-21.1 8.7-28 16.9-4.7 5.6-8.4 15.2-9.1 23.4-1.8 21.2 9.3 39.4 28.9 47.1 13.3 5.2 29.4 3.5 40.9-4.4 15-10.2 22.6-27.3 20-44.5-3.4-21.6-20.8-37.4-42.7-38.9-3.8-.2-8.3-.1-10 .4zm1.4 31.4c2.5 1.2 5.9 3.9 7.5 6 2.9 3.6 3.1 4.4 3.1 12.1 0 7.5-.2 8.6-2.9 12-3.6 4.8-7.9 7.4-13.5 8.2-16.9 2.5-29.4-14.3-21.9-29.4 2.6-5.2 6.4-8.3 12.8-10.5 5.3-1.9 8.8-1.5 14.9 1.6z"/><path d="M255.3 222.2c-1.7.8-2.3 2-2.3 4.3 0 3.7 1.9 5.7 5.5 5.7 1.4 0 3.2-.5 4-1.2 2.3-1.9 1.9-6.6-.7-8.4-2.6-1.8-3.4-1.9-6.5-.4zM154.5 189c-12.7 2.3-25.5 11.8-31.8 23.7-9.1 17.3-6.6 37 6.7 51.9 5.9 6.7 13.7 11 24.3 13.6 8.3 2 8.7 2.1 16.7.4 18.4-4 31.6-16.1 36.1-33.1 8.3-32.1-19.4-62.2-52-56.5zm2.7 31.5c5.1 2.9 9.5 9.3 10.3 14.9 1.9 12.1-8.1 23.6-20.5 23.6-9 0-17.8-6.7-20.1-15.3-3-11.2 4.7-23.3 16.6-26.1 3.5-.7 9.5.5 13.7 2.9z"/><path d="M139.6 226.9c-2.5 2.8-1.7 7.2 1.6 9 2.5 1.4 2.9 1.4 5.5-.5 3.7-2.7 4-5 1.2-8-2.7-2.9-6-3.1-8.3-.5zm151.8 909.5c-3.8 1.7-5.9 6.9-5.1 12.8.7 4.9 2 6.5 6.6 7.9 2.9.9 4.4.8 7.3-.4 3.9-1.6 4.8-4.1 4.8-12.8 0-4.7-.2-4.9-4-6.9-4.6-2.3-5.4-2.4-9.6-.6zm50.4-.3c-7.7 4.6-9.8 18.2-3.4 22.4 2.5 1.7 6.9 1.2 9.9-1 1.5-1.1 1.7-2.7 1.5-12.1-.3-10-.5-10.9-2.3-11.1-1.1-.2-3.6.7-5.7 1.8z"/></g><path d="M553.3 206.7c18.5.2 48.9.2 67.5 0 18.5-.1 3.3-.2-33.8-.2-37.1 0-52.3.1-33.7.2zm-396 707c20.3.2 53.1.2 73 0 19.9-.1 3.4-.2-36.8-.2-40.1 0-56.4.1-36.2.2zm417.5 0c18.2.2 48.2.2 66.5 0 18.2-.1 3.3-.2-33.3-.2-36.6 0-51.5.1-33.2.2z" stroke-width="3" fill="#667FB2" stroke="#667FB2"/><path d="m524.5 788-7 .6 6.5.1c3.6.1 7.6-.3 9-.7 3-1 1.8-1-8.5 0z" fill="#4C6699" stroke="#4C6699" stroke-width="3"/><path d="M314.9 154.9c-2.3 1.9-2.3 2-.4 2.7 11.6 4.2 23.8 12.6 25.8 17.9 1.2 3 1.9.9 1.2-3.4-.4-2.2-1.8-5.7-3.1-7.6-1.3-2-2.4-4-2.4-4.5s-1.2-1.5-2.7-2.3c-1.6-.8-4.1-2.2-5.8-3.1-4.1-2.2-9.7-2-12.6.3zm-202.5 6.7c-.5.1-2.5.5-4.5.8-4 .7-10.3 5.9-11.4 9.3-.3 1.3-1 2.3-1.4 2.3-.9 0-3.1 7.6-3.1 10.6 0 1.2 1.2.2 3.3-2.7 4.1-5.7 7.4-8.6 11.5-10.1 1.7-.7 3.2-1.5 3.2-2 0-.4 2.5-1.5 5.5-2.3 5.9-1.8 7.1-2.7 5.2-4.3-1.2-1-6.6-2-8.3-1.6zM527.8 248c-6.2 1.6-13.5 7-19.7 14.5-.8 1-2.1 4.1-3 7.1-1 2.9-2 5.6-2.4 6-1 1-.9 10.1.2 12.2.4.9 1.6 4.1 2.5 6.9 2.2 6.9 9.3 14.6 17.1 18.6 5.4 2.8 6.9 3.1 15.8 3.1 6 0 10.1-.4 10.5-1 .4-.6 2.7-2.1 5.2-3.2 11.1-5.1 18-16.9 18-30.7 0-6.8-2.2-15.6-4.7-18.4-7.5-8.6-9-9.9-16.8-13.9-3.5-1.9-17.2-2.6-22.7-1.2zm-251.3 85.9c-9.5 3.2-17.4 10-22.2 19.1-2.5 4.9-2.8 6.5-2.8 14.5 0 7.9.4 9.7 2.9 14.8 3.6 7.2 9.7 13.3 17.3 17.2 5.1 2.5 6.9 2.9 14.3 2.9s9.3-.4 14.5-2.9c7.6-3.8 13.6-9.8 17.2-17.1 2.4-5.2 2.8-7 2.8-14.9 0-8.1-.3-9.6-3.2-15-3.7-7.2-9.6-12.9-17.2-16.7-4.8-2.3-6.8-2.7-13.6-2.7-4.4.1-8.9.4-10 .8zm163.3 94.8c-1.6.2-2.8.8-2.8 1.2 0 .4-1.5 1.3-3.4 1.9-4.6 1.7-10.1 6.2-13.8 11.3-3.1 4.3-6.8 15.2-6.8 20.2 0 4.3 4.2 17.8 5.7 18.4.7.3 1.3 1 1.3 1.7 0 1.3 6.2 7.4 9.4 9.3 7.1 4.2 9.2 4.7 19.1 4.8 9.6 0 10.2-.1 16-3.4 6.8-3.9 11.5-8 11.5-9.9 0-.7.7-1.5 1.5-1.8.8-.3 2.2-3.1 3.1-6.2.9-3.2 2-6.5 2.5-7.4 1.2-2.3 1.2-10.8 0-10.8-.5 0-1.2-2-1.5-4.4-1.3-8.2-8.9-17.2-18.7-22-5.4-2.7-16.5-4.1-23.1-2.9zM319 631.6c-9.7 1.9-14.8 5.3-24.4 16.5-1.8 2.2-4.6 13.4-4.6 18.5 0 5.2 2.6 15.2 4.5 17.1.8.8 1.5 1.8 1.5 2.2 0 1.6 8 8.9 11.6 10.6 2.2 1 4.1 2.2 4.5 2.6 1.6 2.5 23.1 2.6 24.8.2.3-.5 2.2-1.5 4.1-2.3 5.5-2.1 13.4-11.1 16.4-18.6 5-12.5 2.1-26.7-7.6-36.5-2.7-2.7-5.3-4.9-5.7-4.9-.5 0-1.6-.6-2.3-1.3-3.1-2.9-16.4-5.3-22.8-4.1zM510.2 721c-6.4 3.1-16.2 11.8-16.2 14.6 0 .8-.4 1.4-.9 1.4-1.6 0-3.6 9.4-3.5 16.5.1 12.7 3 18 16.3 29.6 1 .9 5 2.5 8.7 3.4 7.4 1.9 16.9 1.5 22.1-.8 8.6-3.8 16.6-11.5 19.3-18.7.7-1.9 1.7-3.9 2.2-4.5 1.1-1.2 1.1-18.2-.1-18.9-.4-.3-1.6-2.7-2.6-5.2-1.6-4.2-10.9-15.4-12.8-15.4-.3 0-3.1-1.1-6.1-2.5-8.1-3.7-17.9-3.5-26.4.5zm-299.8 89.6c-9.2 3.2-16.2 9.6-20.5 18.8-3 6.3-3.1 7.2-2.7 15.9.6 10.6 2.9 15.7 10.5 23.2 7.2 7.2 12.1 9 23.8 9 10.2 0 11.8-.4 20.3-5.4 4.2-2.4 8.7-8.1 12-15.1 2.2-4.6 2.6-6.9 2.6-14-.1-7.5-.4-9.2-3.1-14.3-4.6-8.7-11.7-14.9-20.7-18.1-9-3.2-13-3.2-22.2 0z" stroke-width="3" fill="#33667F" stroke="#33667F"/><path d="M571.5 282.1c0 5.4.3 9.1.7 8.1.9-2.3.9-15.4 0-16.9-.4-.6-.7 3.3-.7 8.8z" fill="#369" stroke="#369" stroke-width="3"/><path d="M213.8 170.8c-1 .4 4.8.7 12.7.7 7.9 0 13.7-.3 12.7-.7-.9-.4-6.6-.7-12.7-.7-6 0-11.8.3-12.7.7zm-13.5 24.9c2.5 2.8 6 7.3 7.7 9.9 1.6 2.7 3 4.3 3 3.7 0-1.6-8.2-12.3-12.1-15.8-2.1-1.9-1.6-1 1.4 2.2zm353 5c18.5.2 48.9.2 67.5 0 18.5-.1 3.3-.2-33.8-.2-37.1 0-52.3.1-33.7.2zm-329.6 21c-1 .9-.9 16.1.1 16.6.4.3.7-3.5.7-8.4s0-8.9-.1-8.9c0 0-.4.3-.7.7zm306 23c-.3.5 3.2.8 7.8.8s8.1-.3 7.8-.8c-.2-.4-3.7-.7-7.8-.7s-7.6.3-7.8.7zm-213.4 21.6c-.4.8-3.4 3.5-6.6 6-3.2 2.6-5.5 4.7-5.2 4.7 1.2 0 11.6-8.4 12.6-10.2 1.1-2.1.4-2.5-.8-.5zm124.4 233.9c.2.5 3.8.8 7.9.8 4.1 0 7.4-.3 7.4-.8 0-.4-3.6-.7-7.9-.7-4.4 0-7.7.3-7.4.7zm46.6 242.4c-1.2 2.9-.9 19.2.3 20.4.8.8.8-.5.1-4.5-.7-3.7-.7-7.3 0-11.3 1.1-5.9.9-7.9-.4-4.6zm25.9 46.4c2.6 1.6 13.8 2.4 17.8 1.3 2.9-.8 2-1-5-.9-4.7.1-9.8-.2-11.5-.7-2.3-.5-2.6-.5-1.3.3zM158.3 906.7c19.6.2 51.8.2 71.5 0 19.6-.1 3.5-.2-35.8-.2s-55.4.1-35.7.2zm416 0c18 .2 47.4.2 65.5 0 18-.1 3.2-.2-32.8-.2s-50.8.1-32.7.2z" stroke-width="3" fill="#7F99CC" stroke="#7F99CC"/><path d="M550.8 207.7c19.3.2 51.1.2 70.5 0 19.3-.1 3.5-.2-35.3-.2s-54.6.1-35.2.2z" fill="#69C" stroke="#69C" stroke-width="3"/><path d="M216 164c-12.9 1.6-27.4 6.8-40.2 14.1-5.5 3.2-7.6 3.9-12 3.9-17 0-31 6.7-42.3 20.1-8.8 10.6-12.6 29.2-9.1 44.4 3.7 15.6 16.9 30.7 30.6 35.3 5.3 1.7 6.5 3.1 12.6 13.7 2.5 4.4 7 12 9.9 17 3 4.9 7.5 12.6 10 17s7 12 10 17c3 4.9 7.5 12.6 10 17 2.6 4.4 7.1 12 10.1 17 3 4.9 6.1 10.3 7 12 .8 1.6 2.9 5.3 4.7 8.2 1.8 2.9 5 8.3 7.1 12 3.3 5.7 17.1 29.1 24.4 41.3 1.1 1.9 4 6.8 6.4 10.9 2.4 4 5.5 9.4 7 12 1.5 2.5 4 6.8 5.5 9.5 1.6 2.7 3.3 5.6 3.8 6.5C288.2 520 297 536 297 539c0 2.1-1.4 5.5-3.9 9.4-2.1 3.4-4.9 8.1-6.2 10.5-1.3 2.4-2.9 5.1-3.4 6-.6.9-2.3 3.8-3.9 6.6-1.6 2.7-3.9 6.6-5.1 8.5-1.2 1.9-5.5 9.1-9.5 16s-8.4 14.3-9.7 16.5c-2.2 3.6-13 21.9-28.1 47.5-3 5.2-6.2 10.6-7.1 12-3 4.9-5.1 8.6-7.3 12.7-1.2 2.4-2.6 4.3-3 4.3-.4 0-.8.4-.8.9 0 .9-13.6 24.5-18.5 32.1-1.3 1.9-3.9 6.4-5.9 10-2.1 3.6-6 10.3-8.8 15-7.1 12-10.9 18.3-16.4 27.8-2.7 4.6-5.9 10-7.2 12-1.2 2-3.1 5.3-4.2 7.2-1.1 1.9-3 5.1-4.1 7-1.2 1.9-5.3 8.9-9.1 15.5-3.9 6.6-8.1 13.6-9.3 15.5-1.3 1.9-3.9 6.4-5.9 10-2.1 3.6-6 10.3-8.8 15C97.5 879.4 96 882.7 96 891.2c0 6.5 2.4 12 6.8 15.5 7.5 6 4 5.8 87.3 6.1 83.6.3 86 .2 95.3-5.3 7.3-4.3 10.3-8.2 20.5-26 5.9-10.3 17.5-30.5 24.5-42.6 1.2-2 4.6-8 7.6-13.4 3-5.3 6.4-11.2 7.5-13.1 2-3.3 11.8-20.3 21.5-37.4 2.7-4.7 5.2-9 5.7-9.5.4-.6 1.6-2.6 2.6-4.5s3-5.6 4.5-8.1 5-8.6 7.7-13.4c11.7-20.5 12.7-21.9 15.3-21.1 1.8.6 10.2 13.4 10.2 15.6 0 .5.4 1 .8 1s1.8 1.9 3.1 4.2c1.2 2.4 3.3 6.1 4.6 8.3 1.3 2.2 3.6 6 5 8.5s3.4 5.8 4.4 7.5c1 1.6 3.4 5.7 5.3 9 2 3.3 5.8 9.8 8.6 14.5 2.8 4.7 7.2 12.1 9.7 16.5 2.6 4.4 7.1 12 10.1 17 2.9 4.9 7.4 12.6 10 17 2.5 4.4 6.7 11.6 9.3 16 6.4 10.6 14.4 24.3 19.7 33.4 8.8 15.3 16.9 22.1 29.5 24.7 10.1 2.1 146.3 1.6 152.2-.6 4.4-1.6 11.3-7.9 12.7-11.6 2.1-5.4 1.2-14.5-2.1-21.4-2.8-5.9-14.8-26.9-18.9-33-.9-1.4-3.1-5.2-4.9-8.5-1.9-3.3-4.4-7.6-5.6-9.5-1.2-1.9-5.4-8.9-9.3-15.5-10-17.1-10.3-17.7-14.2-24.2-1.9-3.2-3.9-6.7-4.5-7.8-.6-1.1-4-6.7-7.4-12.5-3.5-5.8-8.8-14.8-11.9-20-3-5.2-6.3-10.6-7.2-12-.9-1.4-3.6-5.9-5.9-10-2.3-4.1-6.7-11.6-9.7-16.5-2.9-5-7.2-12.4-9.6-16.5-2.3-4.1-4.5-7.7-4.8-8-.4-.3-1.7-2.3-2.9-4.5-2.3-4.2-4.7-8.4-7.2-12.5-.9-1.4-4.1-6.8-7.1-12-3.1-5.2-9.6-16.3-14.6-24.5-4.9-8.3-9.9-16.8-11.1-19-1.2-2.2-4.6-8.1-7.6-13-3-5-7.3-12.4-9.7-16.5-2.3-4.1-4.4-7.7-4.8-8-.4-.3-2.6-3.9-4.9-8-2.3-4.1-5.8-10.1-7.7-13.4-1.9-3.2-3.4-7.1-3.4-8.7 0-2.5 3.7-9.6 14-27.3 1.4-2.4 5.9-10.3 10-17.6 4.1-7.2 8.6-15.1 10-17.5 1.4-2.3 5.9-10.2 10-17.5 4.1-7.2 8.6-15.1 10-17.5 1.4-2.3 5.9-10.2 10-17.5 4.1-7.2 8.6-15.1 10-17.5 1.4-2.3 5.9-10.2 10-17.4 4.1-7.3 8.4-14.8 9.5-16.6 1.1-1.9 5.6-9.8 10-17.6 4.4-7.7 8.9-15.6 10-17.5 1.1-1.8 5.4-9.3 9.5-16.5 4.1-7.3 8.6-15.2 10-17.5 1.4-2.4 5.8-10.1 9.8-17.1 4-7 8.4-14.8 9.9-17.3 1.4-2.5 5.5-9.7 9.1-16 3.5-6.3 7.4-13.1 8.6-15 1.3-1.9 2.9-5.3 3.6-7.5.7-2.2 1.6-4.4 2.1-4.9.5-.6.9-3.8.9-7.2 0-9.8-4.6-16.3-14.2-20.2-3.9-1.5-10.8-1.7-72.3-2-44.1-.2-70.8.1-76 .8-9.8 1.3-16.7 4.6-22.8 10.9-4.4 4.4-5.6 6.2-11.2 16.1-1.4 2.5-3.4 5.8-4.4 7.5-1 1.6-3.4 5.7-5.4 9-7.4 12.8-13.1 22.3-17.7 30-2.7 4.4-6.9 11.6-9.4 16-2.6 4.4-7.1 12-10 17-3 4.9-7.5 12.6-10.1 17-2.5 4.4-6.9 11.8-9.7 16.5-2.8 4.7-6.6 11.2-8.5 14.5-3.8 6.6-7 10.5-8.8 10.5-1.5 0-5.7-4.8-7.5-8.5-.8-1.7-1.7-3.2-2.1-3.5-.5-.5-4-6.4-8.1-14-1.1-1.9-4.3-7.6-7.3-12.5-2.9-5-8.1-13.7-11.5-19.5-3.3-5.8-8.9-15.5-12.5-21.5-3.5-6.1-8.5-14.7-11.2-19.3-2.6-4.6-5.8-10-7-12-4.7-7.8-4.7-7.8-2.8-12.8 2.5-6.6 2.4-20-.2-28-7.4-22-24.6-35.7-46.8-37.1-4.9-.3-9.7-1.1-10.5-1.8-3-2.6-13.7-7.3-22-9.8-9.6-2.9-22.2-3.9-32-2.7zm22.3 6.1c8 1.2 21.8 6.2 23.7 8.4 1 1.2.9 1.5-.4 1.5-6.5 0-24.2 14-29.5 23.3-12.4 21.9-8.3 48.2 10 65.1 10.3 9.5 20.9 13.6 35.4 13.6 9.9-.1 15.2-1.2 23.4-5.3 6.3-3.1 16.4-11.9 20.7-18.2l2.1-2.9 4.3 7.4c4.2 7.4 10.9 18.9 20 34.5 2.6 4.4 8 13.6 12 20.5s8.7 15 10.5 18c1.8 3 6.7 11.5 11 18.8 4.3 7.3 8.9 14.2 10.3 15.2 3.2 2.6 8.2 2.5 11.5 0 2.7-2.2 2.7-2.1 13.7-21 4-6.9 8.5-14.5 10-17s6-10.1 10-17 10.6-17.9 14.5-24.5c4-6.6 10.5-17.6 14.5-24.5 7.2-12.3 21.5-36.6 25.1-42.6 3.2-5.3 11.2-12 17.5-14.5l5.9-2.4h143l5.7 2.7c7.3 3.4 9.1 6.2 9.1 14-.1 5-.8 7.4-4 13.7-2.1 4.2-26.3 46.7-53.7 94.6-27.5 47.8-54.3 94.8-59.7 104.3-5.4 9.4-14.4 25.1-19.9 34.7-5.5 9.6-14.4 25.3-19.8 34.8-5.5 9.4-11.7 20.4-14 24.3-7.1 12.4-7.3 17-.9 27.1 2.4 3.7 4.7 7.7 19.7 33.3 4 6.9 8.3 14.1 9.5 16 1.2 1.9 6.7 11.1 12.2 20.5 5.5 9.3 14.7 24.9 20.3 34.5 5.7 9.6 14.7 24.9 20.1 34 5.3 9.1 10.8 18.3 12.1 20.5C597 720 603 730.3 614 749c4 6.9 8.5 14.5 10 17s9.4 15.7 17.5 29.5c8.1 13.7 16 27 17.5 29.5 2.9 4.8 8.2 13.8 20 34 4 6.9 8.3 14.2 9.6 16.2 1.3 2.1 3.1 6.4 3.9 9.5 2.8 10.6-.2 17.3-9.2 20.9-4.6 1.8-8.4 1.9-76.3 1.9h-71.5l-6.1-2.3c-7.7-2.9-14.2-9.5-21.1-21.2-13.9-23.7-20.5-34.9-29.4-50-5.4-9.1-10.7-18.1-11.8-20-1.2-1.9-4.5-7.6-7.4-12.5-3-5-8.6-14.6-12.7-21.5-4-6.9-8.5-14.5-10-17s-7.3-12.4-13-22c-14.3-24.3-14-24-16.3-26.1-3.2-2.9-8.7-2.5-11.9.8-1.4 1.6-7.9 12-14.4 23.3-15 26.2-28.7 50-38.2 66.5-4.1 7.1-10.9 19.1-15.2 26.5-40 69.9-38.5 67.7-49.4 72.7l-6.1 2.8h-157l-5-2.5c-9.3-4.7-11.7-12.1-7.2-23 1.3-3 5.6-11.1 9.7-18 4-6.9 9.6-16.3 12.3-21 2.8-4.7 6.1-10.3 7.5-12.5 2.5-4.2 14.5-24.5 32.2-54.5 5.6-9.6 11.5-19.5 13-22s6-10.1 10-17 8.3-14.1 9.5-16c1.2-1.9 6.2-10.3 11-18.5 15.5-26.4 44-74.7 50.2-85C262 612 268 601.9 272 595s8.5-14.5 10-17c6.1-10 16.9-28.8 18.9-32.7 3.6-7.3 3.5-7.6-11.9-33.8-6.2-10.5-13.4-22.6-16-27-2.6-4.4-7.1-12.1-10-17-2.9-5-7.4-12.6-10-17-2.6-4.4-7-11.9-9.8-16.8-5.6-9.4-11.9-20-20.1-34-2.8-4.8-7.3-12.4-10-17-6.1-10.5-13.4-22.8-20-34-2.8-4.8-7.3-12.4-10-17-20.3-34.5-26.1-44.5-26.1-45 0-.2 4.2-.7 9.3-.9C180 285 189 281 199.1 271c12.1-12 16.6-23.5 15.7-40.5-1.1-19.2-12.2-35.7-29.7-44.1-3.3-1.6-6.1-3.1-6.1-3.4 0-.3 3-2.1 6.8-3.9 17.5-8.7 35-11.7 52.5-9zm49.1 13.8c.3.5 2.3 1.2 4.3 1.6 9.2 1.7 21.5 11.8 27 22.1 1.7 3.2 3.9 9.6 4.8 14.1 1.5 7.7 1.5 8.9 0 16.5-3.6 17.9-14.8 30.7-31.9 36.4-26.9 9-56.2-9.1-60.7-37.6-2.7-17.6 5.2-35.9 19.9-45.6 8.9-6 16.1-8.2 26.9-8.3 5-.1 9.4.3 9.7.8zm-104.9 7.5c9.8 4.7 17.5 12.3 22.5 22.2 3.5 6.9 3.5 6.9 3.5 20.5 0 13.4 0 13.6-3.3 19.9-4.6 8.7-8.6 13.3-16.3 18.6-7.6 5.3-17.3 8.3-26.3 8.4-6 0-18.8-3.2-21.6-5.4-.8-.6-2.8-1.8-4.3-2.6-4.7-2.3-13.5-12.6-17-19.8-3.1-6.5-3.2-7.2-3.2-19.2 0-11.6.2-12.9 2.8-18.4 6.7-14.1 16.3-22.4 31.7-27.7 1.4-.5 7.2-.7 13-.6 9.9.2 11 .5 18.5 4.1z" fill="#4C7FB2" stroke="#4C7FB2" stroke-width="3"/><path d="M156.3 907.7c20.2.2 53.2.2 73.5 0 20.2-.1 3.6-.2-36.8-.2s-57 .1-36.7.2zm418 0c18.5.2 48.9.2 67.5 0 18.5-.1 3.3-.2-33.8-.2-37.1 0-52.3.1-33.7.2z" stroke-width="3" fill="#667FCC" stroke="#667FCC"/><path d="M213.5 171.6c-10.5 2.1-13.1 2.7-14 3.4-.5.4-3.5 1.5-6.5 2.5s-5.7 2.1-6 2.4c-.3.4-1.6 1.1-3 1.7-2.4 1.1-2.3 1.2 4 4.4 8.5 4.3 18.8 14.6 22.4 22.6 1.5 3.2 3.1 6.6 3.6 7.6 1.9 3.4 3.2 15.2 2.6 22.4-1.2 12.9-6.2 23.6-15.3 32.7-6.7 6.8-10 9.2-15.4 11.3-2.4.9-4.8 2.1-5.4 2.5-1.5 1.1-12.2 2.9-17.2 2.9h-4.4l1.9 2.7c2.3 3.5 3.5 5.7 6.7 11.3 1.4 2.5 3.7 6.3 5 8.5 2.5 4 4.4 7.2 9.3 15.7 1.5 2.6 4.3 7.3 6.2 10.5 1.9 3.2 3.7 6.2 4 6.8.3.5 2 3.5 3.8 6.5 9.8 16.5 16.9 28.5 17.6 30 .3.8 2 3.5 3.6 6 1.7 2.5 3.6 5.6 4.3 7 .7 1.4 2.8 5.1 4.7 8.3 1.9 3.2 4.7 7.9 6.2 10.5 4.9 8.5 6.8 11.7 9.3 15.7 1.3 2.2 3.6 6 5 8.5s2.9 5.2 3.4 6c6.1 9.8 13.1 22 13.1 22.9 0 .6.4 1.1.8 1.1s1.8 1.9 3.1 4.2c1.2 2.4 3.3 6.1 4.6 8.3 2.9 4.7 6.7 11.4 9.8 17 1.2 2.2 2.5 4.2 2.8 4.5.4.3 1.6 2.3 2.8 4.5 1.1 2.2 3.2 5.8 4.6 8 1.3 2.2 3.4 5.8 4.6 8 1.2 2.2 2.7 4.7 3.4 5.5 2.4 2.9 5.6 13.8 4.7 15.7-.5 1-2 4-3.3 6.7-4 8.2-6.1 12.1-6.9 12.6-.4.3-1.5 2.1-2.5 4s-2.1 3.7-2.4 4c-.3.3-1.4 2.1-2.4 4s-4.2 7.5-7.2 12.5c-3 4.9-6.4 10.9-7.7 13.2-1.2 2.4-2.6 4.3-3 4.3-.4 0-.8.5-.8 1.1 0 .9-7 13.1-13.1 22.9-.5.8-2 3.5-3.4 6s-3.7 6.3-5 8.5c-1.4 2.2-3.4 5.6-4.5 7.5-1.1 1.9-2.5 4.2-3 5-2 3-10 16.6-12.1 20.5-1.2 2.2-2.4 4.2-2.8 4.5-.3.3-1.4 2.1-2.4 4s-4.2 7.5-7.2 12.5c-3 4.9-6.4 10.9-7.7 13.2-1.2 2.4-2.6 4.3-3 4.3-.4 0-.8.5-.8 1 0 .9-9 16.8-13 23-.5.8-1.9 3.1-3 5s-3.1 5.3-4.5 7.5c-1.3 2.2-3.6 6-5 8.5s-3.7 6.3-5 8.5c-2.3 3.7-5.6 9.3-9.7 16.7-.9 1.6-2.2 3.7-3 4.6-.8.9-2.2 3.3-3.1 5.2-.9 1.9-2.8 5.3-4.2 7.5-1.4 2.2-3.5 5.8-4.6 8-1.2 2.2-2.5 4.2-2.9 4.5-.3.3-2.6 3.9-4.9 8-5.9 10.4-8.8 15.3-9.8 16.5-.4.6-1.7 2.8-2.8 5-1.1 2.2-2.3 4.2-2.6 4.5-.3.3-1.6 2.3-2.8 4.5-1.1 2.2-3.2 5.8-4.6 8-1.3 2.2-3.4 5.8-4.6 8-1.2 2.2-2.5 4.2-2.9 4.5-.4.3-2.1 3.5-3.8 7.1-2.4 5.1-3.2 8.1-3.2 12.4 0 5.1.3 6 3.1 8.6 1.7 1.6 3.7 2.9 4.4 2.9.7 0 1.5.6 1.7 1.2.4 1 17.5 1.3 81.4 1.3h80.9l5-2.9c6.4-3.7 11.3-8.9 15.6-16.6 1.9-3.3 4.6-8.2 6.1-10.8 1.5-2.6 3.9-6.7 5.3-9.2 5.4-9.5 7.5-13.2 17-29.5 2.8-4.8 6.1-10.6 7.5-13 8.8-15.4 12.8-22.3 15.3-26.4 1.5-2.5 3.4-6 4.3-7.6.8-1.7 3-5.5 4.9-8.5 1.8-3 4.3-7.3 5.4-9.5 1.2-2.2 3.1-5.7 4.4-7.7 1.2-2 4.4-7.7 7.1-12.5 2.7-4.8 5.6-9.4 6.3-10.1.7-.7 1.3-1.7 1.3-2.2 0-.8 6.2-11.6 7.8-13.5.4-.6 1.4-2.4 2.1-4.2.7-1.7 2.6-4.6 4.2-6.5 2.7-2.9 3.6-3.3 8.1-3.3s5.3.4 7.9 3.5c1.6 1.9 2.9 4 2.9 4.7 0 .7.4 1.3.8 1.3s1.8 1.9 3 4.2c1.2 2.4 3.3 6.1 4.7 8.3 1.3 2.2 3.6 6 5 8.5s3.7 6.3 5 8.5c1.4 2.2 3.6 6 5 8.5s3.5 6.1 4.7 8.2c4.1 6.6 9.2 15.3 10.5 17.8.7 1.4 2.6 4.5 4.3 7 1.6 2.5 3.3 5.2 3.7 6 .4.8 3.3 5.9 6.5 11.2 3.2 5.3 5.8 10.2 5.8 10.8 0 .5.4 1 .8 1s1.8 1.9 3 4.2c1.3 2.4 4.7 8.3 7.7 13.3 3 4.9 6.2 10.6 7.2 12.5 1 1.9 2.1 3.7 2.4 4 .4.3 1.6 2.3 2.8 4.5 1.2 2.2 3.3 5.8 4.6 8 1.3 2.2 3.6 6 5 8.5s3.1 5.4 3.8 6.5c8.7 13.8 11.7 17.1 19.6 20.8 4.6 2.2 4.6 2.2 78.9 2.2 49.4 0 74.5-.3 75-1 .4-.6 2-1.6 3.5-2.3 1.6-.7 3.4-2.6 4-4.2.6-1.7 1.5-3 1.9-3 1.2 0 1-6.8-.2-7.5-.5-.3-1-1.4-1-2.3-.1-1.6-1.1-3.8-6.5-14.2-1-1.9-2.2-3.7-2.5-4-.4-.3-1.7-2.3-2.9-4.5s-3.3-5.8-4.6-8c-1.4-2.2-3.5-5.8-4.6-8-1.2-2.2-2.5-4.2-2.8-4.5-.3-.3-1.5-2.3-2.6-4.5s-2.4-4.4-2.8-5c-1-1.2-3.7-5.8-9.8-16.5-2.4-4.1-4.8-8-5.4-8.7-.7-.6-1.8-2.6-2.5-4.5-.8-1.8-1.7-3.5-2.1-3.8-1-.7-4.6-6.8-6.9-11.7-1.1-2.3-2.5-4.5-3-4.8-.6-.4-1.7-2.3-2.6-4.3-.8-2-1.8-3.9-2.3-4.2-.5-.3-1.8-2.3-3-4.5-1.1-2.2-3.2-5.8-4.6-8-1.3-2.2-3.6-6-5-8.5s-3.7-6.3-5-8.5c-1.4-2.2-3.4-5.6-4.5-7.5-1.1-1.9-2.5-4.2-3-5-1.9-2.9-12.7-21.5-13.3-23-.4-.8-2.1-3.5-3.7-6-3-4.7-11-18.3-14.5-24.8-1.1-2-2.3-3.9-2.6-4.2-.4-.3-1.6-2.3-2.8-4.5-1.2-2.2-4-6.9-6.2-10.5-2.2-3.6-4.4-7.4-5-8.5-.5-1.1-2.5-4.5-4.4-7.5-1.9-3-4.2-6.9-5-8.5-.8-1.7-2.8-5-4.5-7.5-1.6-2.5-3.3-5.2-3.6-6-.4-.8-3.3-5.8-6.6-11.2-3.2-5.3-5.8-10.1-5.8-10.7 0-.6-.4-1.1-.8-1.1s-1.8-1.9-3-4.3c-1.3-2.3-4.7-8.3-7.7-13.2-3-5-6.2-10.6-7.1-12.5-1-1.9-2.1-3.7-2.5-4-.3-.3-1.4-2.1-2.4-4s-2.7-4.8-3.9-6.3c-3.7-5.1-2.6-17.5 2.2-22.5.6-.7 1.2-1.7 1.2-2.2 0-.7 6.1-11.5 7.7-13.5.5-.6 1.7-2.9 2.7-5.3 1.1-2.3 2.2-4.2 2.5-4.2.3 0 1.5-2 2.6-4.5s2.3-4.5 2.7-4.5c.3 0 .9-.9 1.3-2 .6-1.9 6.7-12.6 8.3-14.5.4-.6 1.4-2.5 2.1-4.3.8-1.9 1.9-3.9 2.5-4.6.6-.6 2-2.7 3-4.6 8.5-15.4 12-21.5 12.6-22 .3-.3 1.2-2 2-3.8.7-1.9 1.8-3.9 2.4-4.6.6-.6 2-2.7 3-4.6 8.5-15.4 12-21.5 12.6-22 .3-.3 1.2-2 2-3.8.7-1.9 1.8-3.9 2.4-4.6.6-.6 2-2.7 3-4.6 8.1-14.7 12-21.5 12.5-22 .3-.3 1.4-2.1 2.4-4 .9-1.9 3.1-5.8 4.7-8.5 1.6-2.8 3.6-6.4 4.5-8 .8-1.7 4.2-7.5 7.5-13 3.2-5.5 6.8-11.8 8-14 1.1-2.2 3.1-5.6 4.3-7.6 1.2-2 4.7-8.1 7.7-13.4 3-5.4 6.7-11.8 8.2-14.4 1.5-2.5 3.4-6 4.3-7.6.9-1.7 3-5.3 4.6-8 1.5-2.8 4-7 5.4-9.5 1.4-2.5 3.9-6.8 5.5-9.5 1.6-2.8 3.6-6.4 4.5-8 .9-1.7 3-5.3 4.6-8 4.5-7.7 5.9-11.2 6.5-15.9 1-6.8-.9-11-6.4-14.3l-4.7-2.8h-74.3c-53.3 0-74.5.3-75 1.1-.4.6-2.4 1.7-4.6 2.5-4.1 1.5-11.4 8.8-14.7 14.8-1.9 3.4-7 12.1-11 18.6-1 1.6-3.9 6.6-6.4 11-7.1 12.2-9.3 15.9-10.2 17-.4.5-1.6 2.6-2.5 4.5-1 1.9-3.6 6.4-5.8 9.9-2.2 3.4-4 6.6-4 6.9 0 .3-1.1 2.2-2.4 4.1-4.2 6.4-18.6 31.2-18.6 32.2 0 .5-.4.9-.8.9s-1.8 1.9-3.1 4.2c-1.2 2.4-3.3 6.1-4.6 8.3-1.3 2.2-3.7 6.2-5.2 8.9-3.5 6.1-4.1 7-8.1 13.4-2.6 4-4.3 5.4-7.2 6.3-4.6 1.4-10-.1-12.4-3.4-2.6-3.5-8.6-13.9-8.6-14.7 0-.5-.6-1.5-1.3-2.2-.7-.7-3.5-5.1-6.1-9.8-5.7-10.2-13.1-22.9-14.6-25-.6-.8-1.8-2.9-2.8-4.6-3.7-6.7-11.3-20-12.2-21.4-.5-.8-3.7-6.2-7-12-3.4-5.8-6.5-11.2-7-12-.6-.8-1.9-3.2-3-5.3-2-3.7-4-4.9-4-2.4 0 .7-1.1 2.3-2.5 3.5-1.4 1.2-2.5 2.6-2.5 3.1 0 1.4-10.9 9.5-15 11.1-1.9.8-3.7 1.7-4 2-.9 1.1-8.4 2.8-15.1 3.5-8.1.9-20.9-1-26.9-3.8-10.6-5.1-22.4-15.4-25.2-22.1-.7-1.7-1.8-3.7-2.4-4.4-.7-.6-1.8-3.8-2.4-7-.6-3.1-1.5-6.5-2-7.4-1.2-2.2-1.3-16.5-.1-17.2.4-.3 1.1-2.8 1.5-5.5.3-2.7 2-7.5 3.8-10.7 6-11.4 13.6-18.6 25.8-24.6 3-1.5 4.9-2.7 4.2-2.8-.7 0-3.2-.9-5.5-2-6.5-3.2-16.9-5-28-4.9-5.6.1-11.1.3-12.2.5zm331.9 73.3c.3.4 2.2 1.1 4.1 1.4 5 .8 13.8 6.9 18 12.4 1.9 2.5 3.5 5.1 3.5 5.7 0 .6.8 2.4 1.7 4.1 2.5 4.2 2.4 22.7 0 27-.9 1.6-1.7 3.5-1.7 4.1 0 1.6-10 12.2-13.1 13.9-7.9 4.5-9.4 4.8-20.4 4.9-10.2 0-11.4-.2-16.8-2.9-6-3-13.8-10.5-15.9-15.2-.7-1.5-1.6-3.1-2-3.4-1.6-1.1-3-12.5-2.5-19.2.7-7.7 4.1-15.7 9-20.9 5-5.2 11.7-9.6 15.9-10.3 2.1-.4 4-1.1 4.4-1.6.7-1.1 15.1-1.2 15.8 0zm-242.9 88.9c10.1 5.6 13.2 8.9 18.2 19.2 2.3 4.7 2.5 23.9.3 29-2.5 6.1-7.6 12.5-14.2 17.5-2.2 1.8-9.7 4.5-12.3 4.5-1.3 0-2.7.4-3 1-.8 1.2-10.2 1.3-10.9.1-.3-.5-2.6-1.2-5-1.5-2.5-.4-6.1-1.8-8.1-3.2-2-1.3-3.9-2.4-4.2-2.4-1 0-7.3-6.4-7.3-7.4 0-.6-.8-1.9-1.9-3-2.1-2.4-4.1-7.8-4.1-11.2 0-1.3-.4-2.4-1-2.4-1.2 0-1.3-11.7-.1-12.4.5-.3 1.2-2.6 1.5-5 1.1-6.9 7.4-15.5 15.1-20.4 7-4.5 10.2-5.2 22-4.9 9.1.2 11.7.7 15 2.5zm163 95.9c11.1 5.7 19 17 20.1 29 .6 7.1-.9 18.6-2.6 19.1-.6.2-1 1.1-1 2.1 0 2.3-7.1 10.7-12.1 14.3-2.2 1.6-6.3 3.5-9 4.1-2.7.6-4.9 1.5-4.9 1.9 0 1.2-14.8 1-15.5-.2-.3-.6-1.6-1-2.8-1-7.1-.1-18.7-9.8-23.3-19.5-2.6-5.4-2.9-7.1-2.9-16s.3-10.7 2.8-15.8c4.7-10.1 14.2-18.3 23.4-20.7 2.1-.5 7.9-.8 12.8-.6 7.7.3 9.9.8 15 3.3zM329.8 628.9c.9.5 4 1.4 6.7 2 8.7 2.1 16.3 8.3 21.8 18 3.1 5.4 3.2 6 3.2 17.1 0 10.3-.3 12-2.5 16.4-5.9 11.5-16.7 19.4-28.4 20.5-8.9.9-18-.4-23.4-3.4-8.5-4.6-17.2-14.7-17.2-19.9 0-.8-.6-1.6-1.2-1.8-1.7-.6-1.8-19.6-.1-22.9.7-1.3 1.9-4.1 2.7-6.2.8-2 2-3.7 2.5-3.7.6 0 1.1-.6 1.1-1.3 0-1.5 5-6.4 9.5-9.3 3.5-2.2 10-4.4 13.3-4.4 1.2 0 2.2-.5 2.2-1 0-1.2 7.4-1.3 9.8-.1zM541 719.4c7.3 3.7 13.3 9.7 16.7 16.5 2.2 4.4 2.8 7.3 3.1 13.9.5 9.6-.4 16.6-2.2 18.4-.6.7-1.8 2.8-2.5 4.6-2 4.9-11.3 12.6-18.4 15.3-11.1 4.3-24.8 2.8-34.2-3.5-4.1-2.8-9.5-7.8-9.5-8.8 0-.5-.9-1.8-2-3s-2-2.9-2-3.7c0-.9-.8-3-1.7-4.6-2.7-4.8-2.4-18.7.5-24.7 1.2-2.6 2.2-5.1 2.2-5.6 0-1.6 10.7-12 14.5-14.1 6.4-3.5 9.4-4 20-3.8 8.8.2 10.7.6 15.5 3.1zm-303.8 89.9c10 4.6 17.8 13.5 19.9 22.5.6 2.6 1.5 5.5 2 6.4 1.2 2.4 1.1 9.5-.1 10.3-.5.3-1 1.7-1 2.9 0 2.9-2.4 10-4.2 12.3-2.6 3.4-13.2 13.3-14.2 13.3-.6 0-2.4.7-4.1 1.7-1.9 1-6.4 1.8-11.8 2.1-8 .4-9.5.2-15.7-2.3-10.5-4.2-18.7-12.7-21.7-22.4-2.6-8.6-.6-31.1 2.7-31.1.6 0 1-.7 1-1.4 0-2.3 8-10.1 13.4-13.1 6.5-3.5 11.4-4.5 20.7-4.1 5.4.3 9.1 1.1 13.1 2.9z" fill="#7F99E5" stroke="#7F99E5" stroke-width="3"/><path d="M254 217.6c-7.1 3.1-11 9.2-11 17.4 0 4 .6 6.1 2.9 9.4 4.6 6.6 7.4 8.1 15.6 8.1s10.9-1.4 15.4-7.5c5.3-7.4 4.9-15.8-1.2-22.7-5.4-6.2-14-8-21.7-4.7zm9.4 3.5c3.1 2.4 3.6 8.1.9 11.1-2.1 2.3-9.5 2.5-11.7.2-1.6-1.6-2.2-8-.8-10 2.4-3.6 7.8-4.3 11.6-1.3zm-124.7.7c-7 4-10.2 9.2-10.2 16.7 0 4.7.5 6.8 2.4 9.6 7.9 11.6 24.1 11.9 31.7.6 2.4-3.5 2.9-5.2 2.9-10.2 0-7.7-3.4-13.1-10.7-16.9-6.2-3.2-10-3.2-16.1.2zm10.3 3.3c1.7 1.4 2.4 3.1 2.4 5.4 0 4.7-2.8 7.5-7.6 7.5s-7.8-2.8-7.8-7.2c0-6.8 7.6-10.1 13-5.7z" stroke-width="3" fill="#001919" stroke="#001919"/><path d="M448.8 1093.1c-2.4 1.3-2.3 6 .1 8.8 1.1 1.2 3.4 4 5.3 6.3 11.8 14.6 14.1 17.3 14.9 17.6 2.5 1 0 5.5-9.3 17-5.7 7-11 13.5-12 14.5-2.9 3.3-3.2 6.9-.8 8.9 5 4.1 7 2.6 22.8-17 4.6-5.6 8.8-10.2 9.5-10.2.7 0 6.4 6.3 12.7 14 6.3 7.8 12.4 14.3 13.6 14.6 2.4.6 8.4-2 8.4-3.7 0-1.2-2.6-5.5-6-9.5-1.4-1.7-3.5-4.4-4.8-6-1.2-1.6-4.9-6.2-8.2-10.2-3.3-4.1-6-8.4-6-9.5 0-1.2 1.4-3.8 3-5.7 3.9-4.6 7.4-8.7 10.8-12.9 1.5-1.9 3.9-4.8 5.3-6.5 5.3-6.3 4.2-11.6-2.3-11.6-3.2 0-6.6 2.9-15.8 13.8-8.1 9.6-9.7 11.2-11.1 11.2-.8 0-3.6-2.8-6.4-6.2-2.7-3.4-7.6-9.1-10.9-12.5-6-6.5-8.8-7.6-12.8-5.2zm-140.2 12.1c-1.2 1.7-1.6 4.8-1.6 12.5 0 6.1-.4 10.3-1 10.3-.5 0-2.9-.5-5.3-1.1-6.7-1.8-13.1-.4-17.8 3.8-4.9 4.5-6.5 7.4-7.3 13.8-1.2 8.9 2.7 16.5 10.8 21.2 2.6 1.5 12.5 1.7 16.2.2 2-.7 3.4-.7 5 .1 3.3 1.8 6.7.9 7.5-2 .9-3.1 1.1-57.2.3-59.4-.9-2.3-5-1.9-6.8.6zm-6.2 29.8c1.9 1.2 3.7 2.8 4 3.7.4.8.3 5.1 0 9.4-.7 7.6-.8 7.9-4.1 9.9-6.8 4-14 1.6-17.5-5.7-2.1-4.4-2.1-4.5-.2-9.9 2.9-8.7 10.3-11.8 17.8-7.4zm79.9-8.8c-7.5 1.6-12.9 10.5-10.4 17.1 1.2 3.2 6 5.6 13.4 6.8 5.7.9 7.7 2.3 7.7 5.4 0 3.6-9.8 6.3-12.6 3.5-.6-.6-3.1-1.2-5.5-1.3-4.4-.2-4.4-.2-4.4 3.3 0 4.3 2.5 5.7 11.3 6.6 8.8 1 16.4-1.6 18.6-6.2 4.3-9.1-1-17.1-12.8-19.3-3.1-.6-6.1-1.3-6.7-1.6-1.7-1.1-1-4.7 1.1-5.2 1.1-.3 2-.9 2-1.4 0-1.6 8.7-1 11.8.8 3.5 2 6.2 1.2 6.2-2 0-3.4-2-5.4-6.5-6.6-4.6-1.3-7.4-1.2-13.2.1zm-42.8.9c-4.2 1.2-11.5 7.6-13.1 11.6-1.8 4.3-1.8 16.4 0 20.8 2.6 6.2 11.8 9.6 20.1 7.4 7.1-1.9 9.5-2.2 9.5-1.1 0 1.7 3.7 2.4 5.9 1.1 1.9-1.2 1.9-1.4.3-4.3-1.4-2.5-1.7-6-1.7-18.4 0-13.3-.2-15.5-1.7-16.6-2-1.5-14.9-1.8-19.3-.5zm10.1 5.5c2.1.5 2.2 1.1 2.1 12.8 0 11.6-.2 12.3-2.4 13.9-1.7 1.3-3.7 1.7-7.5 1.5-4.2-.2-5.5-.8-7.1-2.9-3.2-4.4-3.3-10.7-.3-16.6 1.4-2.9 3.5-5.4 4.6-5.8 1.1-.3 2-1 2-1.5 0-.7 2-1.4 5.5-1.9.6 0 2 .2 3.1.5z" stroke-width="3" fill="#CC4C00" stroke="#CC4C00"/></svg>