<svg version="1.0" xmlns="http://www.w3.org/2000/svg" viewBox="0 0 782 1259"><g fill="#FFF" stroke="#FFF" stroke-width="3"><path d="M0 629.5V1259h782V0H0v629.5zm693.8-515.2c1.2.6 3.3 2.7 4.5 4.6 1.9 3.1 2.2 4.9 2.1 12.1-.1 4.7-.7 10.3-1.2 12.5-3.2 12.5-5.4 20.1-6.3 20.9-.5.6-.9 1.6-.9 2.3 0 1.4-6.1 17.8-8.4 22.8-.8 1.6-2.9 6.4-4.6 10.5-1.8 4.1-4.1 9.5-5.2 12-4.1 8.9-29.9 60.7-35.6 71.5-3.2 6-8.2 15.5-11.1 21-4.4 8.3-38.3 69.4-45.7 82.3-6 10.5-24.7 42.8-32.4 55.9l-4.2 7.2 2.6 4.8c3.4 6 7.6 20.9 7.6 26.5-.1 5.2-3.5 12.5-7.2 15.2-4.4 3.1-13.5 2.6-21-1.3-3.2-1.7-6.3-2.9-6.9-2.6-.5.4-1.8 2.3-2.8 4.4-1.7 3.2-1.8 4.6-1 10.7.5 3.8 1.2 15.6 1.6 26.2l.6 19.4 3.7 2.3c4.8 3.1 10.8 9.9 13.2 15.3 4.1 9 3.2 20.7-2.1 29.2l-2.8 4.5 2.9 4.6c7.1 11.5 8.7 26.5 4.7 42.2-1.9 7.6-5.6 17.1-7.9 20.7-.5.8-1.9 3.3-3.1 5.5-2 3.6-3.4 5.6-8.9 12.9-.8 1.1-4.8 5.4-8.7 9.6l-7.2 7.6-.3 124.4-.3 124.5-3 5.9c-2.6 5.1-4.4 7.1-11.4 12.8-4.3 3.6-10 3.8-91.4 3.8-57.6 0-81.1-.3-84.5-1.2-5.2-1.3-12.1-5.6-15.1-9.4-1.1-1.4-3-4.6-4.3-7.2l-2.3-4.7-.3-123.3-.2-123.4-3.3-2.6c-6.2-5-14.3-13.7-19.1-20.4-15.2-21.5-17.6-50.4-6-74.7 3.1-6.6 3.3-7.5 2-9-.8-.9-2.7-4.2-4.1-7.4-2.1-4.5-2.6-7.2-2.6-12.8 0-8.5 2.8-14.8 9.7-21.9l4.4-4.6v-9.1c0-10.4 1.8-29 3-31.3.5-.9 1.1-4.7 1.5-8.5.6-6.3.5-7.3-1.5-9.8-1.5-1.9-2.6-2.5-3.4-1.8-2.4 2-12.3 5.1-16.2 5.1-5.2 0-10.3-3.3-12.7-8.2-3.4-6.9-1.7-24.7 3.3-34.3 1.1-2.1 2-4.5 2-5.2 0-1.1-16.5-29.8-22-38.3-.5-.8-1.9-3.1-3-5-1.2-1.9-4.5-7.6-7.4-12.5-3-5-8.7-14.8-12.8-21.9-4-7-8.4-14.7-9.8-17.1-4.6-7.8-35-62.6-35-63 0-.2-3.3-6.4-7.3-13.7-7.4-13.3-37.7-73.8-37.7-75.2 0-.4-1.1-3.1-2.4-5.9-4.3-9.2-6.3-14.1-7.6-18.2-.7-2.2-1.6-4.5-2-5-.4-.6-2.2-5.4-3.9-10.8-7-21.4-8.7-34.8-5.2-42.2 5.1-10.9 17.1-10 38.7 3.1 7 4.2 25.2 17.5 30.4 22.2 1 .9 3.6 3 5.6 4.7 7.8 6.2 37.5 33.6 53.9 49.5 9.3 9.1 41.7 41.1 72 71.1 30.2 30 59.3 58.7 64.5 63.7l9.5 9.1 17 .1c9.4.1 22.1.7 28.3 1.4l11.3 1.2 33.1-32.5c18.2-17.9 55.2-54.7 82.3-81.6 70.4-70.1 88.4-86.8 112.9-105 12.3-9 20-13.6 27.9-16.5 8.5-3.1 11.5-3.2 16.5-.7zm-279.2 978.5c1.9 1.5 10.5 14.9 17.7 27.4 1.6 2.7 3.1 4.8 3.5 4.8.5 0 4.2-7.2 8.5-15.9 4.4-9.2 8.5-16.4 9.6-17 2.8-1.6 5.9-1.3 9.2.6 3.9 2.3 3.8 6.2-.5 14.9-1.8 3.8-5.7 11.8-8.6 17.9-21.4 44.9-21.7 45.5-28.5 45.5-9.9 0-10.8-5.1-3.4-19.4l5-9.8-3.5-5.4c-2-3-3.6-5.6-3.6-6 0-.3-1.2-2.4-2.7-4.7-1.6-2.3-3.3-5.1-4-6.2-13.6-22.4-13.8-22.9-10.5-25.7 3.6-3.2 8.7-3.6 11.8-1zm-139.1 11.6 2.4 2.4-.6 29.4c-.3 16.1-.9 30-1.4 30.8-.4.9-1.9 2.2-3.4 3-2.4 1.3-3 1.2-5.6-.2-2.6-1.5-3.3-1.5-6.4-.3-5 2.1-9.9 1.8-15.3-.9-5.9-3-8.5-5.8-11.1-11.9-2.5-5.9-2.6-7.4-.4-15.1 3.6-13 15.3-19 29.1-15 2.2.6 2.2.6 2.2-9.9 0-9.6.2-10.8 2.2-12.7 2.9-2.6 5.4-2.5 8.3.4zm253 .2 2.7 2.5-.7 15.7c-.8 17.9-1.8 17.2 9.1 7 7-6.5 10.2-7.8 13.9-5.4 4 2.6 3.3 6.6-1.7 11.3-7.8 7.1-7.7 6.4-2.2 14.4 8.1 11.8 8.7 12.8 8 15.4-.4 1.4-2 3.2-3.7 4-2.9 1.6-3.2 1.5-6.5-1-1.9-1.4-3.4-2.9-3.4-3.3 0-.4-2.1-3.7-4.8-7.4-4.6-6.4-4.8-6.6-6.8-4.9-1.5 1.2-2.3 3.4-2.8 7.5-1.2 9.3-6.3 13.1-11.3 8.4-2.2-2-2.3-2.9-2.3-14.9 0-7 .5-20.7 1-30.5 1-16.2 1.3-18.1 3.1-19.7 2.9-2.4 5.1-2.1 8.4.9zm-208.1 23.3c1.7 1.4 1.8 2.7 1.2 13.1-.4 7.2-.3 13.4.4 16.5 2.1 9.6 2.2 10.5 1 12-1.7 2-7 1.9-8.5-.2-1.2-1.6-1.5-1.6-5.7 0-9.8 3.8-20.4.7-24.7-7.2-1.9-3.5-2.4-5.9-2.4-11.5 0-12.8 6.7-21.6 18.8-24.7 4.7-1.2 17.7.1 19.9 2zm39.6-.3c2.6 2.2 3.1 3.3 2.8 6.2-.4 5.1-2.6 6-8.8 3.8-5-1.8-9.1-1.6-11.7.6-1.9 1.6-.6 2.8 3 2.8 5 0 13.4 4.4 15.7 8.2 3 4.9 2.7 11.8-.6 15.8-3.8 4.4-8.4 6-17.3 5.9-8.4-.1-12-1.5-15.5-6.2-1.9-2.6-1.9-3-.5-5.5 1.8-3.3 6.4-4 10.8-1.8 6.4 3.3 16.5.8 10.9-2.7-1.3-.8-4.5-1.8-7.3-2.2-5.4-.7-10.9-3.6-11.9-6.1-2.1-5.5.4-14 5.2-17.9 3.6-2.8 5.6-3.3 14.4-3.4 6.9-.1 8 .2 10.8 2.5zm144.5-1.6c1.3 0 3 1.1 4 2.6 1.5 2.3 1.5 3.6.4 12.8-1.2 9.6-1.1 10.6.9 17.3 2.6 8.5 2.6 8.7.6 10.7s-6.2 2-8.5 0c-1.5-1.4-2-1.4-5.4 0-8.6 3.6-19.4.9-24.1-6.2-6.7-9.9-2.8-27.2 7.8-33.8 5.6-3.6 9.1-4.4 16.2-3.9 3.2.3 6.9.5 8.1.5z"/><path d="M324.3 491.5c-16.3 5-20.7 26-7.9 37.3 5 4.3 12.7 6.5 18 5.1 9.5-2.6 14.8-7.3 17.2-15.5 1.1-4 1.2-6.2.4-9.9-2-9-5.8-13.5-13.7-16.5-6.2-2.3-8.2-2.4-14-.5zm15.3 4.5c3.8 1.4 6.5 5.2 7.1 10.1.5 3.5.2 4.3-3.5 7.9-3.3 3.4-4.6 4-8.1 4-11.5 0-15.3-17-4.8-21.5 3.9-1.7 5.6-1.8 9.3-.5z"/><path d="M333.7 501.7c-1.3 1.3-.7 3.2 1.4 4.4 1.7.9 2.5.8 3.7-.4.8-.9 1.2-2.3.9-3.1-.6-1.6-4.8-2.2-6-.9zm114.1-9.9c-5.8 2.1-9.3 5.3-12.4 11.4-3.2 6.3-3.1 12.4.1 18.8 2.9 5.7 7.1 9.1 13.8 11.4 6.8 2.3 15.6 0 21.5-5.7 3.3-3.2 6.2-10.5 6.2-15.6 0-14.6-15.5-25.4-29.2-20.3zm16.5 4.3c7.1 3.7 9 12.3 3.9 18-3.7 4.1-10.2 5-14.9 2-6.8-4.2-6.3-15.8.7-19.3 4-2.1 7.2-2.3 10.3-.7z"/><path d="M459.7 501.2c-2.1 1.1-2.2 4.4-.2 5.2 2.4.9 4.5-.4 4.5-2.9 0-2.7-1.9-3.7-4.3-2.3zm-208.5 636.3c-3.5 1.5-6.2 6.4-6.2 11 0 4.1 2.6 8.1 6.5 9.9 3.5 1.7 3.8 1.7 8-.4l4.5-2.2v-7.9c0-7-.2-8-2.2-9.3-3.6-2.3-7-2.7-10.6-1.1zm49.6 0c-4.2 2.3-7.2 8.1-7.2 13.8 0 4.2.4 5.3 2.9 7.4 2.3 2 3.4 2.3 6.4 1.8 5.8-1.1 6.1-1.7 6.1-13.6V1136h-2.7c-1.6.1-4 .7-5.5 1.5zm185.7 1.6c-6.1 5.3-7.2 17.1-1.9 20.5 2.8 1.9 10.2 1 11.1-1.2.3-.8.6-6.1.7-11.9l.1-10.5h-3.2c-2.2 0-4.4 1-6.8 3.1z"/></g><path d="M387.8 348.7c2.3.2 6.1.2 8.5 0 2.3-.2.4-.4-4.3-.4s-6.6.2-4.2.4z" fill="#FFE5E5" stroke="#FFE5E5" stroke-width="3"/><path d="M543 230.5c-10.7 10.7-19.3 19.5-19 19.5.3 0 9.3-8.8 20-19.5s19.3-19.5 19-19.5c-.3 0-9.3 8.8-20 19.5z" fill="#E5CCB2" stroke="#E5CCB2" stroke-width="3"/><path d="M264.5 252c12.1 12.1 22.2 22 22.5 22 .3 0-9.4-9.9-21.5-22s-22.2-22-22.5-22c-.3 0 9.4 9.9 21.5 22zm236 22.2-20 20.3 20.3-20c11.1-11 20.2-20.1 20.2-20.2 0-.8-1.9 1.1-20.5 19.9z" stroke-width="3" fill="#B29966" stroke="#B29966"/><path d="M677 116.8c-3.6 1.4-10.9 5.5-16.3 9.1-5.5 3.6-10.6 7-11.4 7.6-.9.5-2.6 1.9-3.8 3-1.2 1.1-3.4 2.9-4.9 4-4.2 3.1-21.1 17.7-32.1 27.8-5.5 5.1-36.1 35.1-68 66.8-31.9 31.7-71.4 70.9-87.8 87-26.8 26.4-29.6 29.4-27.5 30 2.1.5 5.5-2.5 26.2-22.7 13.2-12.9 24.3-23.4 24.8-23.4.4 0 .8.7.8 1.5 0 1.5 10.2 23.1 13.7 29 1 1.7 4.5 6.8 7.8 11.4 3.3 4.6 6.7 9.3 7.5 10.5 7.4 10.7 34.5 36.8 49.3 47.4 2.6 1.9 4.7 3.9 4.7 4.6 0 1.1-4 8.7-7 13.6-.5.8-3.4 5.7-6.4 10.8-4.9 8.2-5.4 9.6-4.4 11.8l1.1 2.4 2.3-3.7c1.3-2.1 3-5.2 3.8-6.8.9-1.7 4.2-7.5 7.5-13s9-15.4 12.7-22c3.7-6.6 7.1-12.2 7.4-12.5.4-.3 6.2-10.5 13.1-22.8 6.8-12.3 13.6-24.5 15.1-27 1.5-2.6 3.1-5.6 3.6-6.8.6-1.2 4.4-8.2 8.6-15.7 4.2-7.4 7.6-14 7.6-14.5 0-.6.6-1.7 1.3-2.4.6-.8 3.2-5.4 5.7-10.3 2.5-5 4.8-9.2 5.1-9.5.5-.5 33-65.8 35.5-71.5.7-1.7 2.6-5.9 4.2-9.5 1.6-3.6 3.3-7.6 3.7-9 .4-1.4 1.4-3.4 2.1-4.5.8-1.1 1.4-2.5 1.4-3.2 0-.7.9-3.2 1.9-5.6 1.1-2.3 2.7-6.5 3.6-9.2.8-2.8 2-5.9 2.5-7 1.1-2.3 4.7-15.7 6.2-23 .5-2.8.8-8.1.6-11.9-.4-6.6-.6-7.1-4.3-10.2-4.7-4.2-8.3-4.3-17.5-.6zm-61.9 56.9c4.4 11.6 25 32.5 40.7 41.3 5.9 3.3 6.3 3.7 5.8 6.7-.4 2.9-15.4 33.8-27.6 56.8-2.9 5.5-7.4 14-9.9 18.9-2.5 4.8-5.2 9.1-5.9 9.3-3.3 1.3-23.1-9.9-32.1-18.1-10.7-9.8-23.5-24.9-27.2-31.8-.7-1.3-1.5-2.5-1.8-2.8-1-.7-6.3-9.9-8.3-14.3-1.2-2.6-1.5-4.4-.9-5.5.8-1.4 45.6-46 59.7-59.4 4.7-4.5 6.1-4.7 7.5-1.1zm-516.6-55c-5.3 1.3-10.1 10.4-9.2 17.1.9 6.9 4.9 24.7 5.7 25.7.4.5 1.5 3.7 2.5 7 .9 3.3 2 6.4 2.5 7 .4.5 1.3 2.8 2 5s2.3 6.4 3.6 9.3c1.3 2.9 2.4 5.5 2.4 5.8 0 .3 1.4 3.5 3.1 7.2 1.7 3.7 4.2 9.2 5.5 12.2 1.4 3 3 6.4 3.6 7.5.7 1.1 2.5 4.7 4.1 8 1.6 3.3 4.5 9.4 6.6 13.5 2 4.1 3.8 7.7 4.1 8 .3.3 2.7 4.8 5.3 10 2.6 5.2 7.2 14 10.2 19.5 3 5.5 6.3 11.8 7.4 14 1.1 2.2 4.3 8 7 13 2.8 4.9 6 11 7.2 13.5 1.2 2.5 2.5 4.7 2.8 5 .4.3 1.5 2.3 2.5 4.5 1.1 2.2 2.2 4.2 2.6 4.5.4.3 1.3 1.8 2.2 3.5 3.3 6.5 17.2 31 17.8 31.5.4.3 2.8 4.3 5.4 9 2.5 4.7 5.7 10.3 7.1 12.5 1.4 2.2 3.6 6 5 8.5 3.2 5.8 4.3 7.6 7.5 12.5 1.5 2.2 3 4.7 3.3 5.5.4.8 2.5 4.4 4.7 7.9 2.2 3.4 4 6.5 4 6.7 0 .3 1.2 2.3 2.7 4.7 4.3 6.9 7.7 12.2 8.1 12.7.2.2.7-.1 1.1-.9.5-.8-2.5-6.9-8.8-17.4-5.3-8.9-10.3-17.5-11.1-19.1-1.6-3.2-2.3-2.3 9.1-11.1 28-21.6 52.7-50.5 66.3-77.5 2.7-5.2 5.5-11.6 6.3-14.3.7-2.6 1.9-4.7 2.6-4.7.7 0 11.4 10 23.9 22.2 16 15.8 23.2 22.2 24.6 22 1.4-.2-2.4-4.6-16.1-18-9.9-9.7-27.3-26.9-38.6-38.2-47.2-47-99.4-98.2-110.5-108.5-6.6-6.1-13.6-12.5-15.5-14.4-12.6-11.8-41.6-35-50.2-40.1-2.3-1.4-5.6-3.4-7.3-4.5-7.6-5-20.5-9-25.1-7.8zm91 64.4c22.1 20.6 52.5 50.9 52.5 52.4 0 2.4-11.6 22.1-17 28.9-11 13.7-20.4 23.3-29.5 30.2-5.3 4-20.2 11.8-24.7 12.9-2.4.6-2.9.1-7.1-7.7-9.5-17.3-15.1-28-27.3-52.5-14.1-28-13.8-26.5-6-30.5 14.9-7.6 34.1-26.1 42.1-40.5 2.3-4 3.3-5 4.5-4.3.8.5 6.5 5.4 12.5 11.1zM515 488.2c0 .9-.5 1.8-1.1 2-.8.3-1 1.7-.5 4.2l.7 3.7 2.5-3.7 2.5-3.7-2-2.1c-1.8-1.7-2.1-1.8-2.1-.4zm-241.9 4.7c-.8.5-.5 1.5 1.1 3.6 2 2.6 2.2 2.6 2.9.9 1.1-2.7 1.1-2.8-.9-4.1-1.1-.6-2.4-.8-3.1-.4z" stroke-width="3" fill="#B27F4C" stroke="#B27F4C"/><path d="M501.4 936.5c0 4.9.1 7.1.3 4.8.2-2.3.2-6.4 0-9-.2-2.6-.3-.8-.3 4.2z" fill="#CCB299" stroke="#CCB299" stroke-width="3"/><path d="M217.5 211c7.7 7.7 14.2 14 14.5 14 .2 0-5.8-6.3-13.5-14s-14.2-14-14.5-14c-.2 0 5.8 6.3 13.5 14zm110 109c7.7 7.7 14.2 14 14.5 14 .2 0-5.8-6.3-13.5-14s-14.2-14-14.5-14c-.2 0 5.8 6.3 13.5 14zm137.5-3.3-9.5 9.8 9.5-9.1c5.2-5.1 10.2-9.4 11-9.7 1.3-.5 1.3-.6 0-.6-.9-.1-5.8 4.3-11 9.6z" stroke-width="3" fill="#C96" stroke="#C96"/><path d="M501.5 816c0 59.7.1 84.1.2 54.2.2-29.8.2-78.6 0-108.5-.1-29.8-.2-5.4-.2 54.3z" fill="#E5CCCC" stroke="#E5CCCC" stroke-width="3"/><path d="M360.9 357.4c-7.1 1.3-19.4 5.4-22.9 7.6-.8.6-2.2 1.3-3 1.7-3.5 1.5-13.8 9.5-17.5 13.5-14.2 15.3-20.4 31.5-21.8 57.5-.3 4.7-.1 8.3.4 8.3s.9-.4.9-.8c0-2.8 21.5-21.2 24.8-21.2 3.4 0 1.6 29.8-2.3 39.1-.5 1.4.3 1.3 4.2-.7 6.8-3.4 8-4.3 14.2-9.9 2.9-2.8 6.2-6.9 7.3-9.2 2.3-5.2 3.2-5.8 6.7-4.3 2.6 1 2.9 1.8 4.3 10.3 1.1 7 2.3 10.5 4.9 14.7l3.3 5.4 1.2-5.4c1.6-7.6 5.6-14.8 11.7-20.9l5.2-5.2.7 2.8c3.3 13.9 6.6 21 12.2 26.7 2.6 2.5 7.7 5.6 9.3 5.6.4 0 .8-4.9.8-10.9 0-10.2.2-11.3 3-16.6 3.1-6.1 9.8-12.7 16-16l3.7-1.9 4.6 5.1c8.7 9.5 9.4 11 9.4 20.5 0 3.8.3 6.8.6 6.8.4 0 2.9-1.9 5.5-4.1 5.5-4.7 10-13.3 11.8-22.3.7-3.4 1.7-5.6 2.5-5.6 2.1 0 11.5 12 15.3 19.5 1.8 3.6 3.5 8.4 3.8 10.6.7 4.9 1.4 4.3 4.6-4.1 11.7-30 1.1-63.8-25.7-81.9-9.7-6.4-23.6-11.2-40.1-13.6-13.9-2.1-50.4-2.7-59.6-1.1zM373 554c-10.4.8-34.6 4.6-38 5.9-1.4.6-5.4 1.7-8.9 2.6-3.6.9-7.4 2.3-8.5 3.1-2.9 2-5.3 1.7-8.9-1-8.4-6.4-20.7-8.6-28.3-5-8.9 4.2-17.4 15.7-17.4 23.3 0 4 4.7 14.8 8 18.3 1.1 1.2 2 2.5 2 3 0 .4-1.5 3.8-3.4 7.5-7.5 14.8-10 29.2-7.7 43.9 1.5 9.6 6.9 21.5 14.1 30.9 4 5.2 18 17.9 24.3 22.1 4 2.6 7.4 5 7.7 5.3 1 1.2 23.7 12 27.5 13.1 2.2.7 4.5 1.6 5 2 .6.4 4.4 1.5 8.5 2.5 4.1.9 8.2 2 9.1 2.5 3.7 1.9 24.6 3.3 40.8 2.6 16.9-.6 19.1-.9 34.4-4.5 30.6-7.1 58.9-23.2 75.4-43 8.9-10.7 10-12.3 14.3-20.8 6.6-12.8 8.4-20 8.4-33.3 0-13.4-1.4-18-7.4-25.2-4.5-5.2-4.8-6.3-2.2-7.7.9-.5 3.2-3.9 5.1-7.5 3-5.9 3.3-7.2 2.9-12.9-.3-5.3-.9-7.2-3.9-11.2-1.9-2.7-5.7-6.5-8.4-8.5-4.8-3.4-5.2-3.5-14-3.5-9.5.1-11.5.8-20.3 7.3l-3.3 2.5-2.2-2.2c-1.3-1.1-4.5-2.8-7.3-3.7-2.7-.9-5.4-2.1-6-2.5-1.4-1.1-23.7-5-34.4-5.9-10.1-1-45-.9-57 0zm-77.9 18.1c7.9 4.2 12.6 15.5 9.1 21.9-2.3 4.1-6.1 5.5-12.4 4.6-4.4-.7-11.8-5.8-11.8-8.2 0-.6-.7-1.7-1.5-2.4-3.3-2.7-1.3-12 3.3-15.8 1.9-1.5 10.6-1.6 13.3-.1zm219.7.5c2.9 2 5.2 6.6 5.2 10.1-.1 6.1-7.9 14.6-14.7 15.9-11.4 2.1-17.7-6.7-12.2-17.1 2.2-4.2 5-7.3 8.4-9.3 2.9-1.7 10.7-1.5 13.3.4zm-193.8 77c3.1 1.3 4 2.1 4 4 0 1.4-.7 2.7-1.5 3-2.4.9-1.8 2.6 3.2 9.4 10.9 15 26.8 27.2 40.7 31.2 2.3.6 4.6 1.5 5.1 1.9 4.9 3.7 42.3 3.6 47 0 .5-.5 3.4-1.6 6.3-2.6 4.9-1.6 14.1-6.1 15.2-7.5.3-.3 2.1-1.6 4-2.7 5-3.1 13.2-11.6 19.6-20.2 3-4.1 5.4-7.7 5.4-8.1 0-.5-.7-1-1.5-1.4-.8-.3-1.5-1.6-1.5-3 0-1.8.9-2.7 3.9-4 3.6-1.4 4.3-1.4 7 0 3.7 1.8 6.1 5 6.1 8 0 2.8-2.4 4.8-5 4.1-1.1-.3-2-.2-2 .2 0 1.3-7.1 11.6-11.6 16.9-3.8 4.4-8.2 8.3-18 16.1-1.4 1.1-13.6 7.4-18.4 9.5-11 4.7-36.1 8-44 5.8-1.9-.6-7.4-1.8-12.2-2.8-4.9-.9-8.8-2-8.8-2.5s-.8-.9-1.7-.9c-2.3 0-12-5-19-9.6-6.8-4.5-21.6-19.4-23.3-23.4-.7-1.6-1.6-3-2-3-.4 0-1.3-1.4-2-3-.9-2.1-1.9-3-3.5-3-1.2 0-3-.8-3.9-1.9-1.6-1.8-1.6-2.1.2-5.2 1.4-2.6 5.5-6 7.9-6.8.2-.1 2.1.6 4.3 1.5zm27.6 284c-6 5.7-13.9 14.8-17 19.6-2.3 3.6-3 3.5-6.7-.5-3.8-4.1-7-10.9-7.8-16.7l-.6-4.5-4.2 4c-4.1 4-6.3 9.1-6.3 14.7 0 3.8-1.4 3.5-5.7-1l-3.5-3.7.6 4.9c.9 7.1 4.8 13.6 10.4 17.1l4.7 3 39.2.3 39.3.3v-39l-7.3 7.2c-10.6 10.4-20.8 14.9-26.6 11.7-1.8-.9-1.8-1.2-.1-8.4 1.4-6 1.5-8.2.6-11.1-.6-1.9-1.5-3.5-2.1-3.5-.6 0-3.6 2.5-6.9 5.6zm75.5 3c-3.6 4.5-3.6 11.6-.2 14.4 1.1.9 4.1 5.9 4.1 6.9 0 2.4-14.3-4.7-19.5-9.7-1.6-1.5-4.2-4.4-5.7-6.3l-2.8-3.4v32.6l39.3-.3 39.2-.3 4.8-3c5.7-3.6 9.8-11.1 10.5-19.4l.5-5.4-4.2 4.1c-4.7 4.5-12.4 9.2-15.1 9.2-2.1 0-3-1.9-3-6.2 0-4.4-2-10.5-4.1-12.4-1.6-1.4-1.8-1.3-3.4 2-2.7 5.7-9.2 12.3-13.3 13.7-2 .6-4.3 1.6-4.9 2.1-2.1 1.7-4.3.1-4.3-3 0-8.1-2.8-12.5-10.2-16.3-4.8-2.4-5.3-2.4-7.7.7z" stroke-width="3" fill="#FFE5CC" stroke="#FFE5CC"/><path d="M391.4 951.5c0 11.5.2 16.1.3 10.2.2-5.9.2-15.4 0-21-.1-5.6-.3-.8-.3 10.8z" fill="#E5B299" stroke="#E5B299" stroke-width="3"/><path d="M572.5 210c-6.6 6.6-11.7 12-11.5 12 .3 0 5.9-5.4 12.5-12s11.7-12 11.5-12c-.3 0-5.9 5.4-12.5 12zM217 211.5c6.9 6.9 12.7 12.5 13 12.5.2 0-5.1-5.6-12-12.5S205.3 199 205 199c-.2 0 5.1 5.6 12 12.5zm96.1 95.7c.3.2 6.8 6.4 14.4 13.8l14 13.5-13.5-13.8c-7.4-7.5-13.9-13.7-14.4-13.7s-.7.1-.5.2z" stroke-width="3" fill="#E5B27F" stroke="#E5B27F"/><path d="M569 214.5c-17.8 17.8-21.2 21.7-20.1 22.7 1.1 1.1 1.2 1 .6-.1-.5-.9 5.6-7.7 20.6-22.7 11.8-11.8 21.2-21.4 20.9-21.4-.3 0-10.2 9.7-22 21.5z" fill="#E5CC7F" stroke="#E5CC7F" stroke-width="3"/><path d="m580.3 204.3-31.6 31.4 4.2 7.8c6.5 11.7 10.1 17 18.9 27.6 12.4 14.9 25.4 25.3 39.5 31.8l6.4 2.8 4.7-9.1c2.7-5 7.3-13.8 10.4-19.6 7.7-14.6 25.9-50.9 27.1-54.2.9-2.5.8-2.9-2-4.3-10.1-5.3-27.8-20-35.1-29.2-3.6-4.6-8.8-12.8-8.8-14 0-.6-.5-1.5-1-1.8-.6-.4-15.3 13.5-32.7 30.8zm-405.1-29c-.5.6-1.7 2.8-2.7 4.7-1 1.8-2.3 3.9-2.9 4.6-.6.7-3.1 3.8-5.6 6.8-4.3 5.4-13.8 14.4-18.6 17.6-1.2.8-4.3 3-6.9 4.8-2.6 1.8-6.5 4.2-8.6 5.3-3.4 1.7-3.9 2.4-3.3 4.2 1.1 3.5 18.2 37.5 28.6 56.7 3.1 5.8 7.5 13.9 9.6 18 4.8 8.9 4.8 8.9 17 2.8 19.8-9.9 40.4-32 56-60l3.1-5.6-21.3-20.9c-21.3-20.7-38.3-36.7-41.6-39-1.4-1-2-1-2.8 0zM312 312.2c-1.6 5.6-10.8 23.2-16.7 32.2-12.7 19.3-32.4 40.4-53 56.9-6.8 5.4-12.3 10.1-12.3 10.3 0 .5 14.5 25.5 18.7 32.2l1.5 2.4 7.7-7.7c7.9-7.9 17.9-15.1 26.8-19.5 4.6-2.2 5.2-3 6.3-7 1.4-5.5 5.7-16.5 7.8-20 5.8-9.4 8.8-13.3 14.7-19.2 3.7-3.7 7.5-7 8.6-7.3 1-.4 1.9-1 1.9-1.4 0-1.3 20-10.9 25.5-12.2 2.8-.6 5.3-1.5 5.7-1.8.7-.6-40.1-42.1-41.3-42.1-.3 0-1.2 1.9-1.9 4.2zM453.3 330c-11.7 11.6-21.3 21.2-21.3 21.4 0 .2 3.9 1.6 8.8 3.1 27.3 8.5 44.4 23.7 53.8 48.2 2 5.3 3.3 7.3 4.9 7.7 2 .5 14.1 8.3 21.8 14 1.6 1.2 6.4 5.6 10.8 9.9l7.9 7.7 2.4-3.7c1.3-2.1 5.3-8.9 9-15.1 6.2-10.6 7.7-14.2 5.8-14.2-1.1 0-10.6-7.2-18.2-13.8-17.2-15-33.2-32.8-44.5-49.7-6.2-9.3-18.5-32.7-18.5-35.3 0-.7-.3-1.2-.7-1.2-.5 0-10.4 9.5-22 21z" stroke-width="3" fill="#FC9" stroke="#FC9"/><path d="M396.8 551.7c3.4.2 8.8.2 12 0 3.1-.2.3-.3-6.3-.3s-9.2.1-5.7.3z" fill="#CC7F7F" stroke="#CC7F7F" stroke-width="3"/><path d="M387.8 354.7c2.9.2 7.4.2 10 0 2.6-.2.2-.3-5.3-.3s-7.6.1-4.7.3zM293.4 440c0 5.2.1 7.4.3 4.7.2-2.6.2-6.8 0-9.5-.2-2.6-.3-.4-.3 4.8z" stroke-width="3" fill="#B26666" stroke="#B26666"/><path d="M369.4 350.1c-.4.7-2.2.9-4.9.4-2.4-.3-4.6-.2-4.9.3-.3.5-2.3 1.2-4.5 1.6-9.5 1.5-26.6 9.9-35.2 17.3-14.8 12.8-24.4 28.9-28.4 47.8-1.4 6.7-2.8 9.5-4.9 9.5-2.5 0-17.8 11.5-23.8 17.8-9.7 10.4-15.1 21.4-16.4 33.8-1.2 11.3 1.8 15.4 10.1 14.1 6.2-1 10.9-4 19.2-12.4 6.4-6.4 8.4-9.1 9.3-12.5.6-2.4 1.7-5.7 2.5-7.3l1.4-3v3.2c.1 4.5 1.6 4.8 4 1 2.8-4.3 2.6-3.3-1 9.2-5.5 18.7-7.7 27.3-10.3 40.9-2.6 12.8-5.1 37.6-4.1 39.3.3.4-1.1 2.3-3.2 4.1-6.7 6-12.2 12.3-13.5 15.3-.6 1.6-1.6 3.3-2.2 3.7-1.4 1-1.3 14 .2 17.1.6 1.5 1.8 3.9 2.4 5.4.7 1.6 2 3.9 3 5.2 2.1 2.8 2.3 4.5.5 6.3-.7.7-2.1 3.5-3.1 6.3-1 2.7-2.2 5.4-2.6 6-1.9 2.6-3.4 13.1-3.5 24 0 12.9 1.2 19.5 5.1 27.5 1.3 2.8 2.4 5.2 2.4 5.5 0 .2 1.4 2.4 3 4.7 1.7 2.4 4.1 5.9 5.4 7.8 2.2 3.3 8.4 9.4 20.4 20.2l5.2 4.7v106.4c0 95.2.2 106.8 1.6 111.1l1.6 4.7 5.2-5.4c2.8-3 6.6-6.2 8.5-7.2 2.9-1.4 13.7-5.5 14.7-5.5.2 0-.6 2.5-1.7 5.7-2.3 6.9-2.4 12.4-.3 16.6l1.7 3.2 5.1-6c11.1-13.1 19.3-19.4 25.2-19.5 2.8 0 3.7 1.3 5.9 7.9 1.1 3.5 1.6 7.2 1.3 10.7-.3 3-.2 5.4 0 5.4.3 0 2.6-1.3 5.1-2.9 5.2-3.4 11.1-9.3 16.5-16.4l3.6-4.9v-46.9c0-30.5.4-47.7 1-49 1.5-2.7 5.6-2.5 6.4.3.3 1.3.6 23.5.6 49.4v47.2l4.6 8.3c2.5 4.6 5.8 9.7 7.2 11.2l2.7 2.8.7-2.9c.5-1.7 2.3-5.2 4.1-7.8 4.2-6.1 7.2-6.7 15.5-2.9 6.8 3.1 12.8 8.6 14.3 13.2.6 1.8 1.4 3.3 1.9 3.3.4 0 2.2-1.6 3.8-3.5 3.5-3.9 5.2-9 5.2-15.2 0-2.3.4-4.4.8-4.7 1.4-.9 9.5 5.1 13.4 9.9 2 2.5 4.2 6.2 4.9 8.3.6 2 1.5 4.1 1.9 4.5 1.3 1.5 7.6-5 10.8-11.2l3.2-5.9V712.7l9.9-10.1c5.5-5.6 11.3-11.9 13-14.1 1.6-2.2 3.9-5.1 4.9-6.5 2.6-3.3 10.2-18.1 10.2-19.8 0-.6.4-1.2.8-1.2.9 0 4.2-13.2 4.2-16.6 0-1.1.5-2.5 1.1-3.1 2.7-2.7-1.3-22.9-6.1-30.4-3.4-5.3-3.6-7.2-.9-11.4 3.7-5.9 4.3-8.1 4.3-16.5.1-8.1-.1-8.8-3.4-13.9-1.9-3-4.4-6.4-5.5-7.5-2.7-2.7-10.2-7.7-13.7-9.3l-2.8-1.2v-15.3c-.1-26-4.7-51.4-14.1-77.3-1.9-5.2-2-6.5-1-10.3.6-2.3 1.5-4.2 2-4.2.9 0 4.8 8.4 8.1 17.7 4.4 12.1 21.9 27.7 32.7 28.9 4 .5 5.1.3 6.7-1.5 2.8-3.1 3.1-9.7.8-18.7-4.3-17.1-18.1-33.5-39.4-47-8-5.1-8.9-5.9-9.8-9.7-1.5-6-7-19.9-8.5-21.7-.7-.8-2-2.9-2.8-4.6-2.4-4.7-13.4-15.5-20.5-20.2-3.5-2.3-6.5-4.2-6.7-4.2-.3 0-2.8-1.1-5.7-2.4-2.9-1.3-7.3-2.9-9.8-3.5-2.5-.7-5.4-1.6-6.5-2.1-3.8-1.6-8-2.2-23-3.1-8.2-.5-18-1.3-21.8-1.9-9-1.3-20.4-1.3-21.3.1zm37.6 5c34.3 3.3 50.8 9.5 66 24.8 5.4 5.5 13 15.8 13 17.7 0 .3.9 2.5 2 5 1.2 2.5 2.5 7 3.1 10.2.5 3.1 1.4 8.1 2 10.9.7 3.6.7 7 0 10.5-.6 2.9-1.5 7.9-2 11-.6 3.2-1.9 7.7-3.1 10.2-1.1 2.5-2 4.9-2 5.4s-.9 1.9-2 3.2l-2 2.3-1-2.7c-.5-1.5-1-3.7-1-4.8 0-1.8-5.2-13.5-7.3-16.3-5.4-7.3-9-11.4-9.7-11-.4.2-1 2.4-1.4 4.7-1.2 7.3-6.2 16.3-11.9 21.2-2.9 2.5-6.5 4.8-8.1 5.2-2.8.7-2.8.6-2-2.7 2.5-9.6-.2-18.3-7.9-25.7-2.8-2.7-3.9-3.2-6.2-2.6-3.8.9-13.5 10.9-16.4 16.8-2.2 4.5-2.3 5.7-1.8 16.2.5 10.8.4 11.4-1.4 11.4-1 0-1.9-.4-1.9-.8s-1.7-1.4-3.7-2.1c-6.2-2.3-13.1-10.8-15.4-19.1-.7-2.5-1.6-4.9-2.1-5.5-.4-.5-.8-1.9-.8-3.2 0-3.9-1.9-2.9-6.7 3.3-1.8 2.2-3.8 5.3-4.5 7-.7 1.6-1.6 3.2-2.1 3.5-.4.3-1 3.5-1.4 7.2-.3 3.7-.9 6.7-1.4 6.7-1.1 0-6.9-7.2-6.9-8.6 0-.7-.4-1.4-1-1.6-1-.3-3.5-9.6-4.5-17.1-.5-4.1-.9-4.7-3-4.7-1.8 0-2.6.8-3.5 3.6-.7 1.9-1.8 3.8-2.6 4.1-.8.3-1.4 1.1-1.4 1.8s-2.1 2.9-4.7 4.8c-2.7 2-5.5 4.2-6.3 5-.8.7-3.1 2-5 2.7-1.9.8-3.8 1.8-4.1 2.2-.3.5-1.9 1-3.5 1.1-2.6.2-2.9-.1-2.5-2.3.1-1.4.9-3.6 1.6-5 2.6-5.1 4.6-30.2 2.4-31.5-2-1.3-15.1 10-24.2 21l-2.5 3-.7-2.7c-1.6-6.1 1.8-34.1 4.9-41.2.8-1.7 1.9-4.7 2.6-6.6.8-1.9 1.9-4.2 2.7-5.1.7-.8 1.3-1.9 1.3-2.2 0-1.7 8.5-12.7 13.3-17.2 7.1-6.7 8.4-7.7 15.3-11.3 12.7-6.7 19.3-8.8 34.4-11.2 5.3-.9 24-.3 39 1.1zm-67.9 135.1c6.7 2.7 12.6 8.5 13.5 13.3.3 1.9 1 3.8 1.5 4.1 1.2.7 1.2 7.9 0 10.2-.5.9-1.5 3.2-2.1 4.9-2 5.4-8.6 11.3-12.6 11.3-.8 0-1.4.4-1.4 1s-2.8 1-6.3 1c-18.8 0-30.6-18.4-22.1-34.5 3.2-5.9 5.3-7.9 11.9-11 6.3-3 10.8-3.1 17.6-.3zm124.2-.2c9.3 3.5 15.7 12.7 15.7 22.6 0 2.9-.4 5.5-.9 5.8-.4.3-1.1 1.9-1.4 3.5-.8 3.8-6.1 9.3-11.6 12-8.4 4-20.5 2-26.7-4.3-7-7.2-9.2-18.1-5.3-26.2 2.9-6 7.3-10.5 11.9-12.3 1.9-.8 3.9-1.8 4.5-2.3 1.6-1.4 8.2-.9 13.8 1.2zM441 553c3 .4 7.5 1.3 10 1.8 2.5.6 7.3 1.6 10.8 2.3 3.4.6 6.2 1.6 6.2 2 0 .5.6.9 1.3.9.8 0 3.5 1.1 6.2 2.4l4.8 2.5 3.6-2.5c2-1.3 4.1-2.4 4.8-2.4.7 0 1.3-.4 1.3-.9 0-2.4 16.3-4 22.7-2.2 3.9 1.1 5.1 2.1 11.8 8.7 7 7 9.3 15.8 6.6 25.2-1.1 3.8-7 13.2-8.4 13.2-.5 0 .9 2.1 3.1 4.7 5.9 7.1 8.6 15.8 8.6 27 0 5-.5 10.2-1.1 11.5-.6 1.2-1.9 5.3-2.8 9-1 3.8-2.1 6.8-2.5 6.8-.4 0-1.3 1.8-2 4s-1.9 4.5-2.7 5.1c-.7.6-1.3 1.6-1.3 2.1 0 2.3-10.2 15-18.6 23.3-11.3 11.1-15.3 14.1-26.4 19.7-2.5 1.3-5.1 2.9-5.8 3.5-.7.7-1.7 1.3-2.2 1.3-.5 0-3.3 1.1-6.2 2.4-2.9 1.3-7.3 3-9.8 3.7-2.5.7-4.7 1.6-5 2-.6.7-15.2 4.5-25.5 6.5-12.5 2.4-39.2 2.9-54.5.9-7.4-.9-13.7-2-14-2.4-.3-.4-4.1-1.5-8.5-2.5-4.4-1.1-8.9-2.4-10-3.1-1.1-.6-3.9-1.8-6.2-2.5-2.4-.7-4.3-1.7-4.3-2.2 0-.4-.6-.8-1.3-.8-1.4 0-7.8-2.9-8.7-3.9-.3-.3-2.2-1.4-4.3-2.4-2.1-.9-4.3-2.2-5-2.7-.7-.6-3.1-2.3-5.3-3.8-10.3-6.7-23.8-19.5-29.2-27.6-8.6-12.6-14.3-33.3-12.2-44.1.5-2.8 1.5-7.9 2.1-11.5.7-3.6 2.3-8.6 3.6-11.1 1.3-2.6 2.3-5.1 2.3-5.7 0-.5.9-2.1 2.1-3.6l2.1-2.6-2.6-3.1c-1.4-1.7-2.9-4.1-3.2-5.5-.3-1.3-1-2.4-1.4-2.4-1.4 0-3.2-10.6-2.4-14.7 1.2-7 6.9-14.9 14.2-19.7 4.4-2.9 5.2-3.1 14.2-3.1s9.8.2 15.5 3.5c3.3 1.9 6.3 3.8 6.7 4.4.4.5 1.9.3 4-.7 1.8-.8 5.6-2.1 8.3-2.8 2.8-.6 5.5-1.5 6-2 .6-.4 6-1.5 12-2.4 6.1-.9 11.9-2.1 13-2.6 5.9-2.6 70.6-3.3 85.5-.9z" fill="#B2664C" stroke="#B2664C" stroke-width="3"/><path d="M289.4 937.5c0 6 .1 8.4.3 5.2.2-3.2.2-8.1 0-11-.2-2.9-.3-.3-.3 5.8z" fill="#B27F7F" stroke="#B27F7F" stroke-width="3"/><path d="M338.7 972.7c9.4.2 25.2.2 35 0 9.8-.1 2.1-.2-17.2-.2-19.2-.1-27.3.1-17.8.2zm78.1 0c9.4.2 25 .2 34.5 0 9.4-.1 1.7-.3-17.3-.3s-26.7.2-17.2.3z" stroke-width="3" fill="#C99" stroke="#C99"/><path d="M398.4 953c0 10.2.2 14.3.3 9.2.2-5 .2-13.4 0-18.5-.1-5-.3-.9-.3 9.3z" fill="#E5B2B2" stroke="#E5B2B2" stroke-width="3"/><path d="M374.3 355.7c3.1.2 8.3.2 11.5 0 3.1-.2.5-.3-5.8-.3s-8.9.1-5.7.3z" fill="#FFCCB2" stroke="#FFCCB2" stroke-width="3"/><path d="m399.2 954.1.3 17.4h70l-34.8-.2-34.8-.3.1-16.6c.1-9.1-.1-16.8-.4-17.2-.4-.3-.5 7.3-.4 16.9zm-60.9 17.6c9.7.2 25.7.2 35.5 0 9.7-.1 1.7-.2-17.8-.2s-27.5.1-17.7.2z" stroke-width="3" fill="#FCC" stroke="#FCC"/><path d="M510.3 543c0 4.7.2 6.6.4 4.2.2-2.3.2-6.1 0-8.5-.2-2.3-.4-.4-.4 4.3zM391.5 870.5c0 25.8.1 36.6.2 23.8.2-12.7.2-33.9 0-47-.1-13.1-.2-2.7-.2 23.2zm7 0c0 25.8.1 36.6.2 23.8.2-12.7.2-33.9 0-47-.1-13.1-.2-2.7-.2 23.2zM500.4 937c0 5.2.1 7.4.3 4.7.2-2.6.2-6.8 0-9.5-.2-2.6-.3-.4-.3 4.8zm-108 13.5c0 12.1.2 16.9.3 10.7.2-6.2.2-16.1 0-22-.1-5.9-.3-.8-.3 11.3zm-35.2 28.2c20.7.2 54.9.2 76 0 21.1-.1 4.1-.2-37.7-.2-41.8 0-59 .1-38.3.2z" stroke-width="3" fill="#99664C" stroke="#99664C"/><path d="M392.5 870c0 25.6.1 36 .2 23.3.2-12.8.2-33.8 0-46.5-.1-12.8-.2-2.4-.2 23.2z" fill="#994C33" stroke="#994C33" stroke-width="3"/><path d="M508.7 505c.9 9.2 2.3 14.6 1.6 6.6-.3-3.9-.9-8.1-1.4-9.5-.5-1.6-.6-.5-.2 2.9zM312.4 653.5c-3.1 3.1-2.8 5.8.8 6.5 2.4.4 7.8 6.6 7.8 8.8 0 2.3 17.8 20.4 22.5 22.9 1.7.9 3.2 1.9 3.5 2.3.9 1.3 16.4 9 18.2 9 .9 0 1.9.4 2.2.9 2.2 3.4 36.8 5 49.6 2.2 3.6-.8 6.7-1.7 7-2.1.3-.3 3.1-1.4 6.3-2.5 3.1-1.1 5.7-2.3 5.7-2.7 0-.4.5-.8 1.2-.8 5 0 28.7-21 32.8-29.1 1.1-2.1 2.5-3.9 3-3.9.6 0 1-.6 1-1.3 0-.7.7-2.3 1.6-3.5 1.2-1.8 1.9-2 2.9-1.2.8.7 1.9.9 2.5.5 3.1-1.9-2.1-8.5-6.8-8.5-3.8 0-5.8 2.2-3.6 4 2.6 2.2.9 6-7.9 17.4-3.5 4.6-13.6 14.2-16.5 15.7-1.5.8-3.3 2-4.1 2.7-1.9 1.9-15.3 8.2-17.3 8.2-.9 0-1.9.4-2.2.9-1.3 2-13.7 3.6-27.6 3.6-13.3 0-22.5-1.2-27-3.6-.8-.4-3.4-1.5-5.8-2.3-12.8-4.7-29.2-18.3-38-31.3-5.1-7.6-5.6-9.3-3.6-10.8 2.6-1.8 1-4.5-2.6-4.5-2 0-4 .9-5.6 2.5zm184.3 57.3c-1.6 1.7-1.7 10.7-1.7 109.3v107.5l-2.4 5c-2.2 4.6-10.9 14.4-12.7 14.4-.4 0-1-1.2-1.4-2.8-1.4-5.7-6.1-12.8-11.5-17.1l-5.5-4.4-1.1 5.9c-1.4 7.4-3.6 12.3-6.6 15-4.2 3.8-4.6 3.7-7.4-2.1-3-6.5-9.7-11.6-17.8-13.6l-4.8-1.2-3.3 3.9c-1.9 2.1-3.9 5.8-4.6 8.2-.6 2.3-1.5 4.5-2 4.7-1.2.8-7.3-7.4-12.3-16.6l-4.6-8.6v-48.1c0-47.5 0-48.2-2-48.2s-2 .7-2 47.6c0 33.8-.3 48.2-1.1 49.7-3.1 5.9-15.6 19.2-21.4 22.8-5.5 3.5-6.2 2.8-6.1-5.9.1-8.6-2.4-16.2-5.3-16.2-5.6.1-14.3 6.8-24.3 18.7-6.1 7.3-6.2 7.4-8.1 5.5-2.6-2.7-3.4-13.2-1.4-19 .8-2.3 1.4-4.2 1.3-4.2-2.3.2-10.5 3.6-13.7 5.7-5 3.2-9.8 8.2-9.9 10.1 0 2.5-3.3.7-5.1-2.8-1.8-3.3-1.9-8.2-2.1-111l-.3-107.5-.2 103.2c-.3 101-.4 103.3-2.2 103.3-1.1 0-2.1.4-2.3 1-.1.5-.1 8.3.2 17.2.5 14.8.8 16.8 3 21.1 2 4.1 5.9 8.3 11.6 12.6 4.5 3.5 7.5 3.6 89.4 3.6 64 0 81.4-.3 85.1-1.3 6-1.8 13.3-8.2 16.7-14.6 2.5-4.8 2.7-6 3-21.4.4-15.9.3-16.2-1.7-16.2H496V818.3c0-96.9.1-105.8 1.7-107.5.9-1 1.4-1.8 1.1-1.8-.3 0-1.2.8-2.1 1.8zM358.8 927.2c1.5 1.5 1.6 16.4.2 17.3-.5.3-1 1.7-1 3.1 0 2 .5 2.4 3.2 2.4 5.4 0 13.7-5 21.5-12.8 4-4.1 7.3-7.7 7.3-8.2 0-.4.7-1 1.5-1.4 1.3-.5 1.5 2.4 1.5 22.5v23l-40.8-.3-40.8-.3-4.6-3c-8-5.2-11.7-12.8-11.8-23.7 0-5.6 1-5.5 5.7.3l3.2 4 .6-3.8c.4-2.1 1.1-5 1.7-6.5 1.4-3.8 8.3-9.8 11.2-9.8 2.2 0 2.4.4 2.4 5 .1 5.7 2.8 12.5 6.4 15.8l2.4 2.2 5.1-6.2c10.4-12.8 19-20.8 22.2-20.8 1 0 2.2.5 2.9 1.2zM401 935c3.6 7 9.8 13.3 17.2 17.3 5.6 3 7.1 3 4-.1-4-4-3.6-12.8.8-18.1 1.7-2 2.6-2.3 5.8-1.8 2 .4 3.8 1.1 4 1.7.2.5.9 1 1.6 1 2.6 0 7.6 6.3 9.3 11.8.9 3.2 1.8 5.9 1.9 6 .6.9 9.2-3.9 11.5-6.4 3.5-3.9 6.9-10.1 6.9-12.5 0-1 .6-1.9 1.3-1.9 3 0 8.7 10 9.6 17.2l.6 4.7 4.2-2c2.3-1 6.4-4.2 9.1-6.9 6.9-7 7.6-6.7 6.9 3.1-.8 10.4-3.8 16.1-10.9 20.9l-5.1 3.5-41.3.3-41.4.3v-20.4c0-17.8.3-21.7 1.6-21.7.2 0 1.3 1.8 2.4 4z" stroke-width="3" fill="#7F3333" stroke="#7F3333"/><path d="M390.3 708.7c3.1.2 8.3.2 11.5 0 3.1-.2.5-.3-5.8-.3s-8.9.1-5.7.3zm104.8 2.7c-.8 1-1 29.9-.8 107.7l.2 106.4.3-106.6c.1-81.2.5-106.8 1.4-107.7.7-.7.9-1.2.6-1.2-.3 0-1.1.6-1.7 1.4zM296.3 821.5c-.1 58.8.1 107.8.5 108.7.6 1.6.6-129.8-.1-190.7-.1-13.8-.3 23.1-.4 82zm124.1 107.7-2.9 3.3 3.2-2.9c3.2-2.9 5.3-3.1 11.8-1.2 1.1.4.7 0-1-.8-4.8-2.4-7.8-2-11.1 1.6zm-23 23.8c0 11.3.2 15.9.3 10.2.2-5.6.2-14.8 0-20.5-.1-5.6-.3-1-.3 10.3z" stroke-width="3" fill="#994C4C" stroke="#994C4C"/><path d="M497.4 413.6c.3.9.6 2 .6 2.4 0 .5 2.1 2.1 4.8 3.6 2.6 1.6 8.1 5.3 12.2 8.3 18.7 13.9 28.9 28.1 32.5 45.1 1.8 8.5.9 14.4-2.7 17.7-2.8 2.5-9.1 2-15.8-1.3-6.3-3.1-21.9-18.2-23.7-22.9-5.9-15.7-7.7-19.5-8.6-17.9-1.2 2.1-.4 8.2 1.8 12.7 3.9 8.4 10.9 39.7 12.5 56.2.5 6 1 16 1 22.1 0 10.3.2 11.2 2 11.7 1.9.5 2 0 2-13.6 0-15.3-2-35.6-4.3-45.2-2.7-10.9-2.8-11.5-1.5-11.5.7 0 3.3 2 5.8 4.4 6.7 6.5 16.1 11 23.1 11.1 6.3 0 8.8-1.5 11.7-7 3.4-6.5 1-22.5-5-34-7.1-13.7-22.9-28.9-41.3-39.9-6.6-4-8-4.4-7.1-2zm-213.9 8.3c-2.7 1.4-5.2 2.8-5.5 3.1-.3.3-3 2.2-6 4.2-6.2 4.2-16.5 14.2-20.7 20.3-9.5 13.4-13.6 33.9-8.7 43.6.7 1.4 3.3 3.6 5.8 4.9l4.6 2.3 5.8-1.9c6.4-2.1 12-5.3 17.5-10.1 2-1.8 4.1-3.3 4.6-3.3s.2 2.6-.6 5.7c-1.7 6.6-6 28.2-7.3 36.3-.4 3-.9 10.6-.9 16.8-.1 11-.1 11.2 1.9 10 1.7-1.1 2-2.4 2-9.3.1-16.1 4.6-39.5 13.4-70.5.9-3.3 1.2-5.6.6-5.8-.6-.2-1-1-1-1.8 0-2.4-1.8-1.5-2.4 1.3-2.2 8.5-17.3 23-27.1 25.8-6.8 2-12.1.8-13.6-3.2-1.3-3.5-1.1-15 .5-20.8 4.1-15.4 19.6-33.4 36.7-42.4 4.7-2.6 5.9-3.7 5.9-5.7 0-1.3-.1-2.3-.2-2.3-.2.1-2.5 1.3-5.3 2.8zm214.2 288.9c-1.6 1.7-1.7 10.6-1.7 107.5 0 105 0 105.7 2 105.7s2-.7 2-107.5c0-59.1-.2-107.5-.3-107.5-.2 0-1.1.8-2 1.8zM291 817.5c0 103.8 0 104.5 2 104.5s2-.7 2-103.9c0-93.8-.2-103.9-1.6-104.5-.9-.3-1.8-.6-2-.6-.2 0-.4 47-.4 104.5z" stroke-width="3" fill="#633" stroke="#633"/><path d="M397.5 871c0 26.7.1 37.6.2 24.2.2-13.3.2-35.1 0-48.5-.1-13.3-.2-2.4-.2 24.3z" fill="#7F4C33" stroke="#7F4C33" stroke-width="3"/><path d="M289.5 816.5c0 58.3.1 82.3.2 53.3.2-28.9.2-76.6 0-106-.1-29.3-.2-5.6-.2 52.7z" fill="#CCB2B2" stroke="#CCB2B2" stroke-width="3"/><path d="M516.4 538.5c0 4.9.1 7.1.3 4.8.2-2.3.2-6.4 0-9-.2-2.6-.3-.8-.3 4.2zM290.5 818c0 58.6.1 82.5.2 53.3.2-29.3.2-77.3 0-106.5-.1-29.3-.2-5.4-.2 53.2zm-.1 117c0 5.2.1 7.4.3 4.7.2-2.6.2-6.8 0-9.5-.2-2.6-.3-.4-.3 4.8z" stroke-width="3" fill="#7F4C4C" stroke="#7F4C4C"/><path d="M500.5 816.5c0 60 .1 84.6.2 54.8.2-29.8.2-78.8 0-109-.1-30.1-.2-5.8-.2 54.2z" fill="#966" stroke="#966" stroke-width="3"/><path d="M330.4 498.2c-5.1 2.4-5.9 10.5-1.5 14.9 4.1 4 8.9 4 13-.2 4.2-4.2 4.2-8.4 0-12.7-3.3-3.4-7.3-4.1-11.5-2zm9.8 1.5c2.1 1.8 2.4 5.3.6 7.1-.7.7-2.7 1.2-4.5 1.2-2.6 0-3.6-.5-4.2-2.3-1-2.6-.4-4.7 1.8-6.4 2.2-1.7 4.1-1.6 6.3.4zm114.7-1.2c-1.4.8-3.2 2.8-3.9 4.4-4 9.7 8.5 17.8 15.3 10.1 7.4-8.2-1.7-19.8-11.4-14.5zm9.5 1.4c1 1.1 1.6 3.1 1.4 4.8-.3 2.4-.8 2.8-3.6 3.1-5.7.6-8.3-4-4.4-7.9 2.3-2.3 4.5-2.3 6.6 0z" stroke-width="3" fill="#190000" stroke="#190000"/><path d="M283.9 573.6c-2 .6-3.9 4.6-3.9 8.4 0 3.8 2.9 9.8 5.1 10.5.9.3 2 1.2 2.3 2 .6 1.7 6.7 3 10.1 2.1 1.6-.4 3.2-2 4.2-4.1 1.4-2.9 1.5-4 .4-7.6-1.9-6.3-7-11.1-12.3-11.5-2.4-.1-5-.1-5.9.2zm217.5 1.9c-1.6 1.4-3.2 2.5-3.5 2.5-1.1 0-3.9 7.1-3.9 10 0 7 3.9 10.1 10.9 8.5 3.1-.7 9.1-5.7 10.9-9.2 2.3-4.3.7-10.8-3.2-13.5-2.4-1.7-8.3-.8-11.2 1.7z" stroke-width="3" fill="#661919" stroke="#661919"/><path d="M516.3 1146c0 4.7.2 6.6.4 4.2.2-2.3.2-6.1 0-8.5-.2-2.3-.4-.4-.4 4.3z" fill="#E5FFE5" stroke="#E5FFE5" stroke-width="3"/><path d="M405.2 1094.6c-2.3 1.6-2.9 4.7-1.2 6.7 1.9 2.1 8 12.1 8.6 13.9.3 1 .9 1.8 1.3 1.8s1.6 1.8 2.6 4 2.1 4 2.5 4c.4 0 1.3 1.3 2 2.9.6 1.6 2.2 4.4 3.5 6.2 3.5 4.7 4 8.4 1.9 13.3-1 2.2-2.4 4.7-3.1 5.4-.7.7-1.3 1.8-1.3 2.3 0 .5-1 3-2.2 5.6l-2.2 4.6 3 2.3c1.6 1.3 3.5 2.4 4.2 2.4 1.6 0 9.1-5.2 9.2-6.3 0-.4 1.5-4 3.4-8 1.8-4 3.6-8.2 4-9.5.4-1.2 1.2-2.2 1.7-2.2s.9-.5.9-1.1c0-1.1 4-9.6 15.6-33.4 3-6.1 5.4-11.6 5.4-12.2 0-1.6-4.6-4.3-7.3-4.3-3.1 0-4.7 1.9-8.8 10.9-6.6 14.3-11.4 23.4-12.5 23.8-.6.2-2.5-1.8-4.3-4.4-1.7-2.6-3.5-5.3-4-5.9-.5-.6-1.9-2.9-3-5-2.2-4.1-2.9-5.2-7.5-12.4-4.7-7.3-7.8-8.7-12.4-5.4zm-137.5 11.1c-.2.5-.8 5.7-1.2 11.8-.3 6-.9 11.3-1.1 11.7-.3.4-1.9.1-3.6-.8-7.7-4-20.2.9-24.5 9.6-2.5 4.9-3.1 13.8-1.2 18.7 1.8 4.8 7 9.3 12.6 10.9 4.6 1.3 5.8 1.3 11 0 3.7-1 6.1-1.2 6.7-.6 1.4 1.4 6.2 1.2 7.4-.3 1.6-1.9 2.7-58.4 1.2-60.2-1.3-1.5-6.6-2.1-7.3-.8zm-4.9 31.3 3.2 2v17.8l-3.4 2.1c-9 5.6-19.6-.3-19.6-10.8 0-4.6 3.3-10.9 6.4-12.1 3.8-1.5 10-1.1 13.4 1zm257.5-30.8c-1.2 2-2.2 59.1-1.1 60.5 1.3 1.6 5 1.7 6.6.1.7-.7 1.2-3.5 1.2-6.4 0-4.7.3-5.5 3.5-8.3 2-1.7 4-3.1 4.4-3.1.5 0 2.4 2.4 4.2 5.2 1.9 2.9 4.2 6.2 5.1 7.2 1 1.1 1.8 2.3 1.8 2.7 0 1.6 3.2 3.9 5.4 3.9 5.1 0 5.8-5.2 1.4-10.3-3-3.3-10.8-14.3-10.8-15.1 0-.6 2.8-3.4 9.4-9.4 4.1-3.7 4.3-4.4 2-6.7-2.4-2.4-6-1.1-11.4 3.8-2.4 2.3-6 5.7-8 7.4-1.9 1.8-4 3.3-4.5 3.3-.7 0-.9-5.6-.7-16.5.3-12.2.1-16.9-.8-18-1.5-1.8-6.6-2-7.7-.3zm-177.9 21.1c-7.8 2.3-11.4 6.9-11.4 14.7 0 5 3.4 7.5 11.9 8.9 7.4 1.2 9.1 2.4 9.1 6.1 0 2-.6 2.9-2.2 3.4-4.1 1.1-10.4.6-12.4-.9-2.3-1.8-6.6-1.9-8.2-.3-2.8 2.8-.1 6.3 6.9 8.8 5.6 2.1 12.4 2.6 13.3 1.1.3-.4 1.8-1.1 3.4-1.4 4.7-1 8.2-5.3 8.2-10.3 0-2.4-.5-5.4-1.1-6.7-1.2-2.6-10.1-7.7-13.4-7.7-4.2 0-6.5-1.2-6.5-3.4 0-1.2.5-2.7 1.2-3.4 1.5-1.5 10.2-1.5 14.5 0 2.8 1 3.6 1 5-.5 1.5-1.4 1.5-2 .3-4.2-.8-1.5-2.1-3-3-3.5-3-1.6-11.4-2-15.6-.7zm-41.9.5c-4.7 1.7-10.5 5.4-12.2 7.9-2.8 4.1-5.3 11.3-5.3 15.4 0 5 4.4 13.5 7.7 15.2 5.5 2.7 11.2 4 12.5 3 .7-.5 3.5-1.6 6.2-2.3 4.7-1.3 5-1.3 6.8 1 2.7 3.3 5.4 1.6 5-3.1-.2-1.9-.6-10.7-1-19.6-.4-8.9-1-16.5-1.4-16.9-1-.9-15.8-1.4-18.3-.6zm8 6.4c2.5 1.1 2.5 1.2 2.5 12.9 0 11-.1 11.9-2.2 13.3-3.5 2.4-11.6 2.1-14.5-.6-1.9-1.8-2.3-3.1-2.3-8.7 0-5.3.5-7.1 2.5-10.1 1.4-2.1 3.8-4.3 5.3-5 1.5-.7 3.4-1.6 4.2-2.1.8-.4 1.6-.8 1.7-.8.1-.1 1.4.4 2.8 1.1zm179-6.4c-5.2 1.8-10.3 5.7-13 10-2.6 4.2-3 5.6-3 12.7 0 11.4 2.1 14.6 11.5 17.6 4.9 1.5 7.3 1.9 8.2 1.1.7-.5 3.3-1.5 5.7-2.2 4-1 4.5-1 6.8 1.1 1.9 1.8 2.8 2.1 4.1 1.3 2.4-1.5 2.7-5 .7-8.1-1.4-2.1-1.7-5.1-1.6-17.4.1-13.2-.1-14.9-1.6-15.7-2.1-1-15-1.3-17.8-.4zm9 6.4c2.5 1.1 2.5 1.2 2.5 12.9 0 11-.1 11.9-2.2 13.3-2.8 2-11.7 2.1-14.3.2-2.3-1.6-3.4-8.5-2.3-14.5s4.7-9.5 13.5-13c.1-.1 1.4.4 2.8 1.1z" stroke-width="3" fill="#33B24C" stroke="#33B24C"/><path d="M518.4 1128c0 10.2.2 14.3.3 9.2.2-5 .2-13.4 0-18.5-.1-5-.3-.9-.3 9.3zm8.8 32.6c-.2 5.5-1.2 6.9-5.2 7.7l-2.5.4 2.6.2c4.1.2 6.1-2.8 5.6-8.5l-.3-4.9-.2 5.1z" stroke-width="3" fill="#4CB266" stroke="#4CB266"/></svg>