<svg version="1.0" xmlns="http://www.w3.org/2000/svg" viewBox="0 0 784 1259"><g fill="#FFF" stroke="#FFF" stroke-width="3"><path d="M0 629.5V1259h784V0H0v629.5zm410.8-500.7c11.2 5.5 24.2 24.2 26.7 38.3.6 3.2 1.2 3.8 4.8 4.9 2.3.7 4.7 1.6 5.2 2 .6.4 2.7 1.3 4.9 2 9.7 3.1 25.2 13 34.7 22.2 10.9 10.4 17.9 21.4 21.6 33.6l1.7 5.7 1.1-10.5c1-10.3 1.1-10.5 3.6-10.8 5.3-.6 17.8 17.3 24 34.3 3.3 9 5.8 21.6 6.8 35.2.4 5.1 1 9.6 1.4 9.9.4.4.7-.2.7-1.2 0-2.6 1.9-4.4 4.6-4.4 3.1 0 3.4.7 5.6 12.9 5 27.9 5.1 44.4.3 74.6-.8 5.5-2 11.3-2.5 13-.4 1.6-1.8 6.4-2.9 10.5-1.2 4.1-2.6 8.4-3.1 9.5-.5 1.1-1.6 3.8-2.4 6-.8 2.2-2.2 5.8-3.1 8-1.6 3.6-1.6 3.8 0 2.5 2-1.6 10.4-12.7 11.2-14.6.3-.8 1.8-1.4 3.4-1.4 5 0 4.8 4-1 23.5-1.9 6.4-4 12.2-10 27.2-3.2 8.2-16 32.5-24.3 46.3-6.8 11.4-24.3 37.9-29 44-1.1 1.4-6.5 8.6-12 16-20.9 27.8-54.8 67.3-82.1 95.4-21.1 21.7-24.7 25.8-24.7 27.8 0 .4 56.6.9 125.8 1l125.7.3 9.5 2.3c21.7 5.1 37.6 15 49.3 30.5 10.5 13.9 16.6 29.3 20.3 51.2 1.4 8.4 2 42.2.9 49.8-.5 3.4-.2 5.4 1.5 8.8 6.1 12.5 6.8 36.6 1.5 48.4-5.3 11.6-7.5 17.2-10.2 26-3.6 11.3-7.3 27.1-7.3 30.8 0 1.3-.9 3.2-1.9 4.1-2.6 2.4-4.9.8-9.9-6.8-8.8-13.5-14.4-26.1-17.1-38.8-2.7-12.6-2.6-18.3.3-29.4 4-14.8 11.1-26.1 22.5-35.7l3.4-2.8-.6-9.7c-.7-12.5-4.3-26.7-9.7-37.8-4.6-9.6-7.7-14.1-14.9-21.8-6.4-6.7-18.7-15.6-21.6-15.6-.3 0-.3 15 .1 33.2.6 32-.8 91-2.6 109.3-1.1 11.9-4.8 34.6-5.8 35.9-.5.6-1.4 2.9-2.1 5.1-1.5 4.6-3.5 7.4-7.3 9.9-2.3 1.5-6 1.8-33 1.9-27.8.2-30.8 0-36.1-1.8-3.1-1-6.9-3.2-8.4-4.7-2.5-2.7-2.7-3.4-2.6-10.6.3-12.1 1.3-26.6 2.8-40.2.8-6.9 1.7-17.2 2-23 .4-5.8.9-11.3 1.1-12.3.5-1.6-.7-1.7-16.2-1.7h-16.7l.6 14.2c1 22.3-1.2 54.7-4.2 61.3-.5 1.1-1.6 4-2.5 6.5-1.4 4.1-3.7 7.1-8.3 11-2.2 1.8-31.1 3.3-52.8 2.7-12.8-.4-15.8-.8-20.3-2.7-8.2-3.5-9.2-5.5-9.1-16.9 0-5.3.4-13 .9-17.1.4-4.1 1.7-17.4 2.9-29.5 1.1-12.1 2.3-23.7 2.7-25.8l.6-3.7H329v8.3c0 12.4-1.9 44.5-3 50.2-3.1 16-4.2 20.2-6.7 25.2-1.9 3.7-4.1 6.4-6.8 8.1l-4 2.6H250l-58.5.1-6.4-2.7c-10.5-4.5-10.5-4.5-9.7-23.8.4-9.1 1.3-22.1 2.1-29 .8-6.9 1.9-16.8 2.5-22 .5-5.2 1.1-11.1 1.4-13.2l.4-3.6-20.8-.4c-13.2-.2-21.2-.7-22.1-1.4-.8-.6-2.6-1.4-4-1.7-4.9-1.2-11.5-7.3-14.3-13.2-5.7-12.1-2-28.4 11.5-51 5.2-8.8 11.8-20.3 26.6-46.4 5.4-9.5 11-19.4 12.5-22 1.4-2.5 3.5-6.2 4.6-8.1 1-1.9 6.8-12.1 12.7-22.5 6-10.5 15.3-26.9 20.8-36.5 5.4-9.6 11.1-19.6 12.6-22.1 1.4-2.6 7.9-14.1 14.4-25.5 6.5-11.5 13.7-24.1 15.9-27.9 10.6-18.5 22-38.6 31.2-54.8 5.6-9.8 11.2-19.8 12.6-22.2 1.4-2.4 5.9-10.2 10-17.5 4.1-7.3 8.7-15.3 10.2-17.9 1.4-2.5 3.5-6.2 4.6-8.1 9.7-17.5 20.9-37.2 22.9-40.2 1.4-2 2.3-4.2 2.2-4.7-.2-.6-2.9.2-5.9 1.8-17 8.7-41.6 14.1-64 14.1-18.4 0-48.3-4.2-60.5-8.4-2.2-.8-5.6-1.8-7.5-2.1-1.9-.4-6.2-1.8-9.5-3-19-7.3-19.4-7.4-34.6-7.9-14.2-.6-16.8-.9-31.4-4.1-6.7-1.4-18.6-5.8-21.3-7.8-.7-.5-2.6-1.7-4.2-2.6-5.9-3.2-13.9-11.2-19.4-19.4-3.1-4.6-5.6-8.6-5.6-9 0-.3-1.1-3-2.4-5.9-1.3-2.9-2.9-8-3.5-11.2-2.2-12.1-.9-34.3 2.5-41 .8-1.6 1.4-3.4 1.4-4 0-1.6 7.8-16.6 9.6-18.3.8-.8 1.4-1.8 1.4-2.3 0-3.2 12-13 21-17.2 16.7-7.8 34.1-10.7 71-11.8 24.6-.8 50.5-2.5 52.2-3.6.4-.2 5.3-1.3 11-2.3 13.5-2.5 23.7-6 37.7-12.8 12.7-6.1 27.5-12.3 29.6-12.3 2.2 0 4.5-2.9 4.5-5.9 0-5.6-3.1-14.3-6.9-19.5-4.2-5.7-8.9-9.7-18.2-15.8-8.6-5.5-8-7.5 3.3-11.2 4.2-1.4 11.4-3 16-3.6 4.6-.6 10.2-1.6 12.5-2.1 2.3-.5 6.3-.9 9-.9 4.5 0 20.6 2.3 24.2 3.5 1.2.4 2.2-.5 3.4-3.2 4-8.9 15.5-21.1 23.4-24.8 8.4-4 17.6-3.9 26.1.3zm10.9 963.7c2.9 2 3.8 7.2 2.1 11.3-1.1 2.5-18.7 22.1-41 45.7l-3.8 4 21.5.5c23 .5 22.7.5 24.1 5.7.9 3.2-.9 7.6-3.7 9.1-1.8.9-9.9 1.2-32.7 1l-30.4-.3-2.4-2.8c-3.9-4.6-3.2-7.5 4-15.7 4.2-4.8 19.7-22 23.1-25.5 1.1-1.2 5-5.5 8.7-9.7l6.8-7.6-3.1-.6c-1.8-.3-10.5-.6-19.4-.6-14.3 0-16.6-.2-18.5-1.8-2.9-2.3-3.2-9.3-.5-12.2 1.7-1.9 3.2-2 32.4-2 25.9 0 31 .2 32.8 1.5zm-194.5 10.2c1.6 1.5 1.8 3.5 1.7 24.7-.1 28.2-.9 39.3-2.9 40.7-.8.5-3.1.7-5 .4-1.9-.3-4.6-.5-6-.4-1.4.1-5.9.3-10.2.3-7.1.1-7.9-.1-11.4-3-6.1-4.9-7.7-7.8-8.2-14.4-.8-10.5.4-14.6 5.6-20 3.3-3.4 6-5.2 9.2-6 4.3-1.2 10.7-1 14.2.5 1.4.6 1.7-.6 2-10 .3-9.8.5-10.8 2.7-12.6 2.9-2.3 5.9-2.4 8.3-.2zm257.9.2c2.3 1.8 2.4 2.4 2.1 12.1l-.3 10.1 4.9-.7c16.2-2.1 28.7 12.1 25.1 28.5-1.2 5.7-6.7 12.7-11.6 14.7-3.8 1.6-12.3 1.8-17.3.4-2.2-.6-3.8-.6-4.4 0-1.3 1.3-5.6 1.3-7.6 0-1.6-1-1.7-4.1-1.2-42.8.2-18.7.4-20.4 2.2-22.2 2.5-2.5 5.1-2.5 8.1-.1zm49.7 20.3c.8.8 4.2 1.3 9 1.4 11.8.1 16.6 3.6 14.8 10.9-1 3.9-4.1 5-8.7 3-3.7-1.7-8.7-1.6-11.8.4-.9.6-1.4 4.5-1.8 13.7-.6 14.5-1.4 16.4-6.9 16.4-6.5 0-6.8-1-6-23.4.4-11 1.2-20.8 1.7-21.8 1.1-2.1 7.8-2.5 9.7-.6zm-228.5.7c7.1 1.7 10.4 7 7.7 12.2-1.3 2.4-3.6 2.4-9 0-3.7-1.6-4.8-1.7-7.9-.6-5.4 1.8-4.6 3.8 1.9 4.8 12.3 1.7 18.8 11.1 14.6 21.2-1.9 4.4-5.2 6.4-12.8 7.7-11.7 2-22.8-2.3-22.8-8.7 0-3.7 3.3-5.8 7.7-5 2.1.3 6.6.9 10.1 1.2 5.2.4 6.2.2 6.2-1.1 0-2-2.5-3.2-8.5-4.1-6.6-1-12.1-4.5-12.8-8.2-.9-4.7 1.1-11.8 4.3-14.8 4.6-4.4 13.7-6.3 21.3-4.6zm-34.2 3c1.3 1.6 1.5 4 1.1 14.9-.4 10.8-.2 13.9 1.3 18 2.1 5.7 1.6 7.7-2.1 9.4-2.1 1-3.1.9-5.4-.4-2.6-1.5-3.5-1.5-8.3-.2-4.1 1-6.7 1.2-10.6.4-8.4-1.6-10.6-3.4-13.4-11-5.2-14 2.8-29.6 16.8-33.1 1.7-.4 6.6-.6 11-.3 6.3.3 8.3.8 9.6 2.3zm185.8-1.6c7.7 2.7 12.7 14.3 8.3 19.6-1.9 2.4-4.7 3.1-23 5.8-2.3.3-4.5.9-4.7 1.4-.9 1.3 2.4 3.8 6.6 4.9 5 1.4 10.5.4 14.6-2.6 5.3-4 9.3-2.4 9.3 3.6 0 3.1-5.9 8.6-10.5 9.9-5.2 1.4-13.8 1.4-18.7-.1-5.2-1.5-11.5-7.9-12.9-13.2-3.1-11.6 3.1-26.1 12.6-29.4 4.1-1.4 14.2-1.4 18.4.1zm142.1 1.3c1.2 1.2 1.5 4.4 1.5 16.7 0 10.7.5 16 1.4 17.9 3 5.9-2.1 10.8-7.5 7.3-2.2-1.4-3-1.4-8.3 0-6.5 1.7-14.5.8-18.8-2-4.3-2.8-6.7-9.2-6.7-17.6 0-6.7.4-8.2 3.1-12.5 3.3-5.4 9.3-10.2 14.4-11.4 5.2-1.3 19.1-.3 20.9 1.6z"/><path d="M395 133.6c-6.7 2.5-12.9 6.1-16.1 9.5-5.1 5.3-10.4 13.4-11.9 18.4-.7 2.2-1.8 4.6-2.4 5.4-.7.9-1.1 5.9-1.1 13 0 10.7.2 12.1 2.8 17.5 1.6 3.2 5.1 8.1 7.8 10.8 5.1 5.1 6.4 9.3 3.3 10.5-.9.3-5.5-.1-10.3-1.1-14.6-2.8-44-1.4-50.9 2.4-.9.5-4.5 1.7-7.9 2.7-3.5 1-6.3 2.1-6.3 2.5 0 .4-.5.8-1.1.8-.6 0-6.6 2.7-13.4 6-6.8 3.3-12.9 6-13.7 6-.7 0-2.5.7-4 1.4-1.5.8-6.2 2.2-10.5 3.1-4.3.9-8.7 2.1-9.8 2.6-2.5 1.2-23.2 3.9-29.6 3.9-2.6 0-5.1.4-5.4 1-.4.6-8 1-19.6 1h-19l3.5 3.2c1.9 1.8 4.6 5.5 6 8.2 2.3 4.3 2.6 6.1 2.6 14.4 0 10-1.6 22.2-3 22.2-.4 0-1.6 4.4-2.5 9.7-1 5.4-2.2 10.8-2.8 12.1-1.5 3.2-1.4 39.7.1 41.5.6.7 1.4 7.4 1.8 14.9l.7 13.6 4.6 1.2c2.5.7 5.5 1.8 6.7 2.6 1.1.7 4 1.8 6.4 2.4 2.3.6 5.4 1.6 6.9 2.2 17.6 7.4 68.7 14.1 83.6 10.9 2.8-.6 9.3-1.7 14.5-2.6 13.7-2.3 25.2-6.6 39.2-14.7 7.8-4.4 10.2-4.7 12.4-1.3 1.8 2.8 1.2 9.6-1.2 11.9-.8.8-1.4 1.8-1.4 2.1 0 .4-2.1 4.5-4.7 9.2-2.7 4.6-5.6 10.1-6.7 12.1-1 2-2.2 3.9-2.6 4.2-.4.3-1.5 2.1-2.4 4-1 1.9-3 5.7-4.6 8.5-3.9 6.6-8 13.8-10.8 18.9-1.2 2.2-3.6 6.3-5.2 9.1-1.6 2.7-3.6 6.6-4.6 8.5-.9 1.9-2 3.7-2.4 4-.4.3-1.6 2.2-2.6 4.2-1.1 2-4.5 8.3-7.8 14-3.2 5.7-6.5 11.6-7.4 13.3-.8 1.6-1.8 3.2-2.2 3.5-.4.3-1.5 2.4-2.5 4.7-1.1 2.4-2.2 4.3-2.5 4.3-.4 0-1.5 1.9-2.6 4.2-1 2.4-2.1 4.5-2.4 4.8-.4.3-2.6 4.1-5 8.5s-4.6 8.2-5 8.5c-.3.3-1.2 2-2 3.8-.7 1.9-1.8 3.9-2.4 4.6-.6.6-2 2.9-3.1 5.1-1.1 2.2-2.2 4.2-2.6 4.5-.3.3-2.5 4.1-4.9 8.5-2.4 4.4-4.6 8.2-5 8.5-.3.3-1.4 2.4-2.4 4.7-1.1 2.4-2.2 4.3-2.5 4.3-.3 0-1.5 2-2.6 4.5s-2.2 4.5-2.5 4.5c-.4 0-1.5 1.9-2.5 4.2-1 2.4-2.5 4.9-3.2 5.6-.7.7-1.3 1.9-1.3 2.6 0 .7-.8 2.1-1.8 3.2-.9 1-2.6 3.8-3.6 6.1-1.1 2.4-2.2 4.3-2.5 4.3-.3 0-1.4 2-2.4 4.5-1.1 2.5-2.2 4.5-2.7 4.5-.4 0-1.5 2-2.4 4.5-1 2.5-2.1 4.5-2.5 4.5-.5 0-1.6 1.7-2.5 3.7-.9 2.1-3 6-4.6 8.8-3.7 6.3-7.8 13.6-10.8 18.9-1.2 2.2-3.3 5.9-4.7 8.1-1.3 2.2-3.4 5.8-4.6 8-1.1 2.2-3.3 6.1-4.8 8.6-1.4 2.6-5.1 9-8.1 14.3-3 5.4-6.5 11.4-7.7 13.4-1.2 2-3.3 5.6-4.5 7.9-1.3 2.3-4.9 8.8-8.2 14.5-3.2 5.7-6.5 11.6-7.4 13.3-.8 1.6-1.8 3.2-2.2 3.5-.3.3-1.4 2.3-2.4 4.5-1.1 2.2-2.2 4.2-2.6 4.5-1.2.8-9 16.1-9 17.6 0 .8-.4 1.4-.8 1.4-1.4 0-3.4 9.9-3.4 16.5 0 6.8 1.1 9.7 5.1 13.5 6 5.6 4.7 5.5 57.2 5.8l48.6.3 1.2-10.8c2.1-20.3 2.2-20.8 5.5-21.1 1.6-.2 3.3.1 3.8.6 1 1-1.7 46.1-3 49.2-.3.8-1.1 8.2-1.8 16.5-.8 10.9-.8 15.2 0 16 .6.6 4.3 2 8.1 3 3.9 1 7.6 2.3 8.4 2.9 1.9 1.5 34.9 1.5 35.9 0 .4-.6 3.6-1.7 7.2-2.3 3.6-.7 8.8-2.5 11.5-4l5-2.6.7-7c.4-3.9.7-23.3.6-43.3-.1-24 .2-36.6.9-37.3.6-.6 2.1-.9 3.4-.7 3.1.4 3.7 4.3 3.8 25l.1 15.8h222.7l.7-3.8c.3-2 .6-6 .6-8.9 0-2.8.4-5.5 1-5.8.5-.3 1-2.8 1-5.5 0-6.9.6-8 4.6-8 3.4 0 3.4 0 3.4 4.7 0 7.6-3 44.5-4 48.8-.4 2.2-1.1 9.4-1.5 16l-.7 12 3.9 1.7c2.1 1 6.1 2.3 8.8 2.9 2.8.7 5.6 1.7 6.4 2.3 2 1.5 31 1.5 34.2-.1 1.3-.6 5.4-1.8 9.1-2.7 3.7-.9 8.2-2.4 10-3.4 3.2-1.8 3.3-2 4-10.8 2.1-24.7 2.9-56.5 2.4-96.6-.6-49.5-1-47 6.9-44.8 2.5.7 4.8 1.7 5.1 2.2.3.4 2.1 1.5 3.9 2.2 7.1 3 20.2 14.7 28.2 25.2 3.7 4.8 11.2 19.9 12.4 25.1.7 2.6 1.5 5.2 2 5.8 1 1.3 2.7 11.2 3.5 20.7.4 4.3 1 7.8 1.4 7.8 2 0 2-38.6 0-43.5-.4-1.1-1.5-6.5-2.4-11.9-.9-5.5-2-10.5-2.5-11-.5-.6-1.6-3.5-2.6-6.5-1.6-5-5.6-12.8-10.1-19.6-6.3-9.7-22.5-22.2-32.9-25.5-2.2-.7-4.4-1.6-5-2-1.1-.8-9-2.5-16.5-3.4l-4.5-.6-5 6.2c-6.7 8.4-24.9 26.4-29.9 29.6-2.3 1.5-4.3 3-4.6 3.4-.8 1-7.7 5.6-11.3 7.4-1.7.9-3.4 2-3.7 2.3-1.6 2.1-21 10.3-33 13.9-13.9 4.3-34.5 6-52.2 4.3-13.3-1.3-14.5-1.6-15.3-4.2-1-3 1.1-5.6 6-7.4 2.5-1 4.5-2.1 4.5-2.4 0-.4 2-1.5 4.5-2.5 2.5-1.1 4.5-2.2 4.5-2.6 0-.4 1.3-1.3 3-2 1.6-.7 4-2.2 5.4-3.4 1.3-1.1 4.4-3.5 6.8-5.1 5.8-4 27-24.9 29.3-28.8 1-1.8 2.4-3.7 3-4.2.7-.6 1.5-1.8 1.8-2.8.6-1.6-1.7-1.7-39.1-1.7h-39.7l-6 8.2c-6.2 8.4-14.7 17.5-20.4 21.8-1.8 1.4-4.1 3.2-5.2 4.1-1.1.9-3.3 2.2-4.9 2.9-1.7.7-3 1.6-3 2 0 .4-2.1 1.5-4.7 2.5-2.7 1-5.2 2.1-5.8 2.5-2.7 2-19.6 6.1-29.2 7.1-8.1.8-13.5.8-21.7-.1-13.8-1.5-15.6-2.3-15.6-6.7 0-3.1.3-3.4 4.5-4.5 2.5-.7 4.5-1.5 4.5-1.9 0-.3 1.8-1.4 4-2.4s4-2.2 4-2.6c0-.4.8-1 1.9-1.4 1.8-.5 16.1-14.2 16.1-15.4 0-.3 1.4-2.2 3-4.1 1.6-1.9 3-3.9 3-4.3 0-.5.9-2 2-3.4s2-3 2-3.4c0-.5-2.6-.9-5.8-.9-4.9 0-6.3-.4-9.1-2.8-4.9-4-4.7-8.9.5-16.7 2.2-3.2 4.4-6.7 5.1-7.8.6-1.1 1.5-2.2 2-2.6.4-.3 2.1-2.6 3.7-5 3.1-4.9 3.2-4.7-4.4-8.3-2.5-1.2-4.7-2.4-5-2.7-.3-.4-2.3-1.9-4.5-3.6-3.9-2.9-10.4-9.2-13.5-13.1-4.7-6-11.2-17.7-13.5-24.4-1.1-3-2.3-6-2.7-6.6-1.6-2.2-2.2-11.3-.8-12.9 1.3-1.6 4.6-2.1 5.2-.8.4 1 17.1 9.3 18.6 9.3.7 0 1.2.4 1.2.8s2.8 1.6 6.3 2.5c3.4 1 7.1 2.2 8.2 2.7 4 1.8 15.1 3.2 26.3 3.1 11.4 0 14.2-.8 14.2-3.7 0-.8.4-1.4.8-1.4.5 0 1.7-1.9 2.7-4.2 1-2.4 2.2-4.7 2.7-5.3 1.1-1.2 3.9-6.3 6.9-12.5 1.2-2.5 2.5-4.7 2.9-5 .4-.3 1.5-2.6 2.5-5.3 1-2.6 2.1-4.7 2.4-4.7.8 0 4.6-9.9 4-10.4-.2-.1-2.9-.8-5.9-1.6-3-.7-7.7-2.4-10.5-3.8-4.8-2.4-19.5-13.1-19.5-14.2 0-.3-1.4-2.1-3-4s-3-3.8-3-4.2c0-.4-.6-1.3-1.3-2-2.2-2.3-6.4-10.5-8.2-16-.9-2.9-2.2-6.4-2.8-7.7-.7-1.3-1.2-5.1-1.2-8.5 0-5.8.1-6.1 2.6-6.4 1.8-.2 4 .8 7 3.3 13.7 11.2 24.2 16.4 36.8 18.5 16.6 2.8 34.1-2.5 34.1-10.1 0-1.1.4-1.9.8-1.9.7 0 4.2-10.5 4.2-12.8 0-.7.4-1.2.8-1.2.5 0 1.7-3.4 2.7-7.5 1.1-4.1 2.2-7.5 2.6-7.5.3 0 1.2-2.6 1.8-5.8.6-3.1 1.4-6.7 1.7-8 .6-2.1.4-2.2-5.9-2.2-3.6 0-6.8-.4-7.1-.9-.4-.5-2.4-1.2-4.6-1.6-4.8-.8-17-7.1-18.8-9.7-.7-1-1.7-1.8-2.2-1.8-1.1 0-6.3-5.2-10.5-10.4-1.6-2.1-3.5-4.3-4-5-1.7-1.9-6.9-10-8.8-13.6-1-1.9-2.5-4.8-3.4-6.4-1.1-2.1-1.3-3.6-.7-5.5 1.1-3.2 4.1-3.8 8.6-1.7 10.9 4.9 33.1 8.9 46.8 8.4 11.2-.5 15-1.7 20.4-6.4 3.6-3.2 4.2-6.4 5.2-27.6l.7-15.7-2.4.6c-1.3.4-2.6 1-2.9 1.4-.8 1.1-15.4 3.9-20.8 3.9-2.6 0-5.2.4-5.8 1-.6.6-2.2.6-4.4 0-1.9-.6-6.2-1-9.5-1-6.8 0-24.3-2.6-25.9-3.9-.6-.5-2.8-1.1-4.9-1.5-4.5-.8-6.9-4.5-4.7-7.1.7-.9 6.4-4.1 12.5-7.1 6.2-3 14.2-7.3 17.8-9.4 3.6-2.2 7-4 7.6-4 .5 0 1.1-.3 1.3-.8.2-.4 3.6-2.9 7.6-5.6 9.5-6.5 19.5-16.4 22-21.9 2-4.5 1-12.4-1.9-14.7-.3-.3-1.4-2.7-2.4-5.3-1-2.6-2.2-5-2.6-5.3-.5-.3-1.6-2.2-2.6-4.2-.9-2-2.5-4.6-3.5-5.6-1-1.1-2-2.7-2.3-3.7-1-3-3.4-3.1-4.1-.1-.4 1.5-1.2 3.4-1.9 4.2-.6.8-1.7 2.9-2.4 4.7-.7 1.7-2.1 3.9-3.2 4.9-1 .9-1.9 2.1-1.9 2.7 0 .9-4.8 5.7-10.5 10.5-1.5 1.2-3.8 2.5-5.1 2.8-1.3.3-2.4 1-2.4 1.5 0 .4-2.6 1.5-5.7 2.5-3.2.9-6.7 2.1-7.8 2.7-3.1 1.6-31.1 2.2-33 .7-2.1-1.7-1.9-5.6.4-7.9 1-1 2.7-3.2 3.7-5 1-1.7 2.1-3.1 2.5-3.1.4 0 1.5-2 2.5-4.5.9-2.5 2-4.5 2.4-4.5.4 0 1.3-1.9 1.9-4.3.7-2.3 2.1-6 3.1-8.2 1-2.2 2.4-6.9 3.1-10.5.7-3.6 1.5-6.7 1.9-7 .8-.6 4-21.2 4-25.8 0-1.7.3-3.2.8-3.4 1.3-.6 7.1-13.2 8.4-18.3.7-2.8 1.7-5.3 2.2-5.7 1.4-1 1.3-22-.1-24.9-.6-1.3-1.8-4.4-2.6-6.9s-2.6-6.3-4-8.5c-3.6-5.4-12.7-15.5-14-15.5-.6 0-1.8-.7-2.6-1.5-1.8-1.5-8.7-2.8-11.1-1.9zm11.8 37.4c4.8 3.5 5.9 5.2 6.8 11.1.4 2.4 1.1 5.3 1.6 6.3.7 1.2.7 3.1 0 5.5-.6 2-1.5 5.5-2.1 7.8-.7 2.3-2.5 5.6-4.2 7.2-2.5 2.6-3.9 3.1-7.6 3.1-4.9 0-11.3-3.7-11.3-6.6 0-.7-.4-1.4-1-1.4-1.7 0-4-10.2-4-17.6 0-8.9 1.8-13.1 6.8-16.1 5.3-3.2 10-2.9 15 .7zm-97.9 71.9c2.4.5 4.6 1.3 5 1.8.3.5 2 1.5 3.7 2.2 7.4 2.9 14.2 13.9 15.1 24 .6 6.7-1.1 17.1-2.7 17.1-.4 0-1.1 1.1-1.4 2.4-.9 3.5-8.3 10.3-14.6 13.4-4.6 2.2-6.8 2.6-13.8 2.6-4.6 0-8.7-.5-9-1-.4-.6-2.2-1.6-3.9-2.2-4-1.3-11.3-7.1-11.3-8.8 0-.7-.6-1.7-1.4-2.1-2-1.2-5.6-12.3-5.6-17.7 0-7.5 3.5-16.6 8.3-21.8 8.2-8.9 19.1-12.3 31.6-9.9z"/><path d="M294.5 251.7c-9.4 2.8-15.4 9.9-16.9 19.8l-.7 4 1.8-3.4c5.7-11.4 23.2-8.1 23.3 4.4 0 11.6-14 17-21.2 8.1-1-1.1-1.8-1.6-1.8-1 0 .7 2.1 3.5 4.6 6.3 3.6 4.1 5.7 5.4 10.1 6.7 12.3 3.6 23-1 28.7-12.3 3.2-6.4 3.4-12.4.5-19-3-7.2-7.3-11-14.7-13.3-7.5-2.3-7.2-2.3-13.7-.3z"/><path d="M285.1 271.9c-2.1 1.4-.5 4.3 2.1 3.9 1.5-.2 2.3-1 2.3-2.3 0-2.2-2.2-3-4.4-1.6zm-94.7 575.9c-.6.4-1.6 7.5-2.3 16.7-.7 8.8-1.4 17-1.7 18.2-.3 1.8.2 2.4 3.3 3.3 2.1.6 6.2 1.4 9.1 1.7 2.8.3 5.2 1 5.2 1.4 0 1.2 13.6 1.1 15.8-.1.9-.5 4.2-1.2 7.3-1.5 6.3-.7 6.9-1.4 6.9-9 0-2.2.4-5.6.9-7.5.5-1.9 1.2-8.1 1.6-13.8l.7-10.2h-22.9c-12.5 0-23.3.4-23.9.8zm246.1 9.4c-.3 5.7-1 11.6-1.5 13.3-.4 1.6-1.1 5.9-1.4 9.5l-.6 6.5 4.1 1.8c4.6 2.2 14.2 4.6 18.2 4.7 1.5 0 2.7.4 2.7 1 0 1.2 20.2 1.4 21.6.2.5-.5 4.5-1.4 8.9-2.1 4.4-.7 9.4-1.9 11-2.7 1.7-.7 4.8-2 6.9-2.7 2.2-.8 4.4-2 4.9-2.8.6-.9.7-8.6.2-19.2l-.7-17.7h-73.6l-.7 10.2zm-234.1 279.2c-4.7 2.1-6.8 9.8-4.4 16.1 1.5 3.9 7.3 6 12.2 4.5 4.7-1.3 5.8-3.7 5.8-12 0-5.9 0-6-4-8-4.6-2.3-5.4-2.4-9.6-.6zm287.9.1-3.3 1.4v17.1l4.1 2.1c3.5 1.7 4.6 1.9 6.9.9 6.7-2.8 9.5-9.6 6.6-16.3-2.2-5.3-8.8-7.7-14.3-5.2zm-237.5-.3c-7.5 4.4-9.8 15.9-4.2 21.5 2 2 3 2.3 5.6 1.7 6.7-1.4 6.9-1.8 6.6-13.9-.3-10.1-.5-11-2.3-11.2-1.1-.2-3.7.7-5.7 1.9zm188.6.9-2.9 3.1 4-.7c2.2-.3 6-1.1 8.4-1.7 4.2-1.1 4.3-1.1 2-2.4-4.2-2.3-8.2-1.7-11.5 1.7zm140-1.2c-5.3 3.2-7.8 7.8-7.8 13.9 0 4.7.3 5.8 2.7 7.8 3.3 2.8 4.7 2.9 9.3.8l3.4-1.6v-11.4c0-11.2 0-11.4-2.2-11.4-1.3 0-3.7.9-5.4 1.9z"/></g><path d="M523.4 1152.5c0 5.5.1 7.6.3 4.7.2-2.9.2-7.4 0-10-.2-2.6-.3-.2-.3 5.3z" fill="#FFFFE5" stroke="#FFFFE5" stroke-width="3"/><path d="M173.3 250.6c.6.7 37.9.5 38.6-.1.2-.3-8.5-.5-19.4-.5-10.9 0-19.6.3-19.2.6zM498.4 366c0 5.2.1 7.4.3 4.7.2-2.6.2-6.8 0-9.5-.2-2.6-.3-.4-.3 4.8zm-27.7 89.2c.2.5 3.1.8 6.3.8 4.7 0 5.9.3 6.3 1.7.4 1.4.5 1.3.6-.4.1-2-.4-2.2-6.8-2.5-3.8-.2-6.7 0-6.4.4zm-62.4 237.5c8.6.2 22.8.2 31.5 0 8.6-.1 1.5-.3-15.8-.3s-24.4.2-15.7.3zm150 0c8.1.2 21.3.2 29.5 0 8.1-.1 1.4-.3-14.8-.3s-22.9.2-14.7.3zM148.5 839.2c2.8.3 24.1.6 47.5.5 23.4 0 40.5-.2 38-.4-9.6-.6-90.2-.8-85.5-.1zm236.3.5c31 .2 81.4.2 112 0 30.6-.1 5.3-.2-56.3-.2-61.6 0-86.7.1-55.7.2z" stroke-width="3" fill="#E5E5E5" stroke="#E5E5E5"/><path d="M322.4 843.5c0 7.1.1 9.9.3 6.2.2-3.7.2-9.6 0-13-.2-3.4-.3-.4-.3 6.8z" fill="#7F7F7F" stroke="#7F7F7F" stroke-width="3"/><path d="M477.3 699.7c11.4.2 30 .2 41.5 0 11.4-.1 2-.2-20.8-.2s-32.2.1-20.7.2zM642.4 803c0 13.5.2 19 .3 12.2.2-6.7.2-17.7 0-24.5-.1-6.7-.3-1.2-.3 12.3z" stroke-width="3" fill="#7F6666" stroke="#7F6666"/><path d="M408.8 693.7c8.3.2 22.1.2 30.5 0 8.3-.1 1.5-.3-15.3-.3s-23.6.2-15.2.3zm148.4 0c7 .2 18.7.2 26 0 7.3-.1 1.6-.3-12.7-.3-14.3 0-20.3.2-13.3.3z" stroke-width="3" fill="#B2B299" stroke="#B2B299"/><path d="M500.3 364c0 4.7.2 6.6.4 4.2.2-2.3.2-6.1 0-8.5-.2-2.3-.4-.4-.4 4.3z" fill="#664C4C" stroke="#664C4C" stroke-width="3"/><path d="M497.9 698.7c31.6.3 41.7.6 42.4 1.6.6.9.7.8.4-.3-.3-1.3-5.9-1.5-42.3-1.5h-41.9l41.4.2zm-336.1 147c3.9.2 10.5.2 14.5 0 3.9-.1.7-.3-7.3-.3s-11.2.2-7.2.3zm40 0c6.7.2 17.7.2 24.5 0 6.7-.1 1.2-.3-12.3-.3s-19 .2-12.2.3zm152.5 0c14.2.2 37.2.2 51 0 13.9-.1 2.3-.2-25.8-.2-28 0-39.4.1-25.2.2zm101 0c10.3.2 27.1.2 37.5 0 10.3-.1 1.8-.2-18.8-.2s-29.1.1-18.7.2zm70.9 0c4.8.2 12.9.2 18 0 5.1-.1 1.2-.3-8.7-.3-9.9 0-14.1.2-9.3.3z" stroke-width="3" fill="#4C4C4C" stroke="#4C4C4C"/><g fill="#4C4C33" stroke="#4C4C33" stroke-width="3"><path d="M390.5 128.3c-5.7 1.7-10 4.4-15.9 10.2-5 4.8-12.6 15.8-12.6 18.2 0 1.8-2.2 2.1-6 .9-8-2.4-46.4-.9-54 2.2-.8.3-4 1.3-7 2.1-3.2.9-5.6 2.2-5.7 3.1-.2.9 2 2.8 5.7 4.9 10.5 6.1 20.6 17.4 23 25.6.6 2.2 1 6.8.8 10.3l-.3 6.3-5.5 2c-3 1.1-7 2.4-8.8 3-3.4 1.1-8.1 3.2-22.2 10.3-4.7 2.3-10.7 4.9-13.5 5.6-2.7.7-5.5 1.7-6 2.1-1.3.9-17.7 4.5-30 6.5-4.9.8-21.8 1.9-37.5 2.4-27.1.8-52.4 2.9-60 4.9-20 5.3-29.1 9.7-37.9 18.1-4.2 4-13 18.8-15.1 25.5-.7 2.2-1.7 4.5-2.1 5.1-1.1 1.4-3.9 19.4-3.9 25 0 5.4 2.8 21.5 4 22.9.5.7 1.6 2.9 2.4 5.1 2.7 7.9 12.9 21.6 20.2 27.4 4.2 3.3 12.1 7.8 15.9 9.1 2.2.7 4.5 1.7 5.2 2.2 3.3 2.4 25.6 6 41.3 6.6 13.9.6 17.2 1 21 2.8 2.5 1.2 5.9 2.5 7.5 2.9 1.7.4 4.3 1.4 6 2.2 1.6.8 5.7 2.1 9 2.9 3.3.7 6.9 1.8 8 2.3 1.1.6 6.7 1.9 12.5 3.1 5.8 1.1 12.5 2.4 15 2.9 8.2 1.7 39.8 2.3 51.5 1.1 6-.7 11.4-1.6 12-2 .5-.5 3.9-1.4 7.5-2.1 3.6-.6 8.4-2 10.7-3.1 2.3-1 4.5-1.9 4.9-1.9.9 0 14.2-6.6 16.6-8.3.9-.6 2-.9 2.3-.5.6.6-3.1 9.8-4.4 10.8-.3.3-1.5 2.2-2.6 4.2-6.6 12.1-16.9 30.4-17.5 30.8-.3.3-1.2 2-2 3.8-.7 1.9-1.8 3.9-2.4 4.6-.6.6-2 2.7-3 4.6-7.1 12.9-12.1 21.6-12.6 22-.3.3-1.4 2.4-2.4 4.7-1.1 2.4-2.2 4.3-2.6 4.3-.3 0-1.2 1.6-1.9 3.5s-1.8 4-2.5 4.7c-.6.7-2.1 2.9-3.1 4.9-1.8 3.3-15.3 27.3-19.8 35.2-4.5 7.9-7.6 13.3-12.7 22.3-3 5.3-6.7 11.7-8.2 14.3-1.4 2.5-3.4 5.9-4.3 7.6-.9 1.6-2.8 5.1-4.3 7.7-1.5 2.5-6.2 10.8-10.5 18.5-4.3 7.6-8.8 15.6-10.2 17.8-1.3 2.2-3 5.1-3.8 6.5-11.4 20.5-18.2 32.6-18.6 33-.3.3-1.5 2.2-2.6 4.2-5 9.3-16.9 30.3-17.5 30.8-.3.3-1.4 2.4-2.4 4.7-1.1 2.4-2.2 4.3-2.5 4.3-.4 0-1.2 1.2-1.9 2.7-.6 1.6-2.6 5.3-4.4 8.4-1.8 3.1-5.5 9.6-8.2 14.5-2.7 4.9-5.2 9.1-5.5 9.4-.4.3-1.5 2.4-2.5 4.7-1.1 2.4-2.3 4.3-2.7 4.3-.4 0-1.1 1-1.4 2.2-.4 1.3-1.7 3.9-3 5.8-3.1 4.8-14 24.1-18.2 32-1.8 3.6-4.5 11.1-5.9 16.7-2.4 9.6-2.4 10.5-1.1 15.1 3.3 10.9 7.9 15.8 18.1 19.1 5.7 1.8 8.9 2.1 25.6 2.1h19v3.6c0 6.4-2 27.8-3 31.4-.5 1.9-1.6 13.5-2.5 25.6-2.2 29.5-2.6 28.7 15.6 33.4 3.3.8 19.5 1.1 59.5.8 63.3-.4 59.8.1 64.9-9.5 5.5-10.6 8.1-27.9 9.1-60.6.7-23 .8-23.8 2.8-24.2 1.2-.3 24.4-.4 51.6-.3l49.5.3.3 3.9c.2 2.1-.1 4.3-.7 4.9-.6.6-1.1 3.1-1.1 5.6-.1 2.6-1 13.6-2.1 24.6-4.1 41.5-4.3 45.5-2.2 48.4 1.1 1.4 4 3.7 6.4 5 4 2.3 5.8 2.5 20.4 2.9 8.8.2 23.8.1 33.4-.3l17.3-.7 3.8-3.8c2-2 4.5-5.9 5.5-8.6.9-2.7 2.1-5.8 2.6-6.9 2.2-5.2 3.3-19.8 3.3-46.5l.1-28.5 17.8-.3 17.7-.2v5.2c-.1 5.9-2.4 33.5-4 47.2-.5 4.8-1.1 14.7-1.2 21.8l-.3 13 2.8 2.2c5.8 4.7 11.9 5.6 37 5.5 37.8 0 40.6-.8 44.2-11.5 1.1-3.2 2.3-6.4 2.7-6.9.3-.6 1.3-6.2 2.2-12.5.9-6.3 2-14.7 2.6-18.5 1.8-12.9 3.2-62.6 2.8-104.9-.2-32.9 0-42 1-42.3.6-.3 1.2-.1 1.2.4s1.7 1.5 3.8 2.2c2 .8 4.4 2 5.2 2.7.8.8 4.3 3.6 7.7 6.3 8.2 6.7 16.8 17.9 20.9 27.1.8 1.9 2.2 4.8 3 6.5 2.8 5.8 6.4 22.3 7 32.4l.7 10.2-6.7 6.5c-14.7 14-20.9 27.9-20.9 46.9 0 17.3 5.2 32.3 18 51.8 6.1 9.3 7.6 9 9.2-1.5.7-4.6 1.6-8.8 2.1-9.3.4-.6 1-2.9 1.4-5.3.7-4.8 6.6-23 8.9-27.7 9.5-19.1 10.8-37.9 3.8-54.5-2.8-6.4-2.8-6.7-1.9-18 .9-11.8.4-32.3-1.2-42-1.2-7.9-5-23.2-5.9-24.5-.5-.5-1.4-2.7-2.1-4.9-2.2-6.9-10.3-20.8-15.8-27.1-2.4-2.8-14.3-12.6-18.5-15.1-1.9-1.2-5.6-2.9-8.3-3.9-2.7-1-5.4-2.2-5.9-2.6-1-.7-3.6-1.4-16-4.2-3.4-.7-44.4-1.3-131-1.6l-126-.6-.3-3c-.2-2.5 1-4.3 8-11.5 36.7-38.3 40.3-42.2 61.5-66.5 6.4-7.4 28.5-34.8 34.3-42.5 1.4-1.8 3.6-4.8 5-6.6 1.4-1.8 3.6-5 5-7s3.2-4.3 4-5.3c1.6-1.7 25.1-37 28.7-43.1 9.6-15.9 24.6-45.2 25.8-50.3.4-1.5 1-2.7 1.4-2.7.4 0 1.3-2.2 2-4.8.6-2.6 1.8-5.9 2.5-7.3.7-1.4 2.1-5.9 3.1-10s2.1-7.9 2.5-8.4c1.2-1.5 2.3-10.2 1.5-11.4-.9-1.5-4.5.5-4.5 2.4 0 .8-.4 1.5-.8 1.5s-1.5 1.3-2.5 2.9C550 424.5 542 433 540.3 433c-.8 0-1.3-.3-1.1-.8.2-.4 1.2-3 2.2-5.7 1.1-2.8 2.3-5.2 2.6-5.5.3-.3 1.4-3.2 2.4-6.5s2.2-6.5 2.6-7c.4-.6 1.5-4.4 2.5-8.5s2.1-8 2.5-8.5c.5-.6 1.6-6.4 2.5-13 .9-6.6 2-13.4 2.6-15.1 1.2-4 1.2-37.6-.1-42.3-.5-2-1.7-8.9-2.6-15.4-1.2-8.6-2.1-12-3.2-12.4-2.4-1-3.8 2-5.2 11.4-.7 4.8-1.7 9.7-2.2 10.7-.9 1.7-1.1 1.8-2 .3-.5-1.1-.5-2.4.2-3.6 1.2-2.4 1.3-24.3.1-28.5-.5-1.7-1.5-7.1-2.1-12-1.4-11.5-8.4-31.6-13.3-38.1-14.3-19.2-15.7-19.6-15.7-4.1 0 5.5-.3 11.1-.6 12.3-.8 2.7-2.4 3-2.4.5 0-1-.4-2.2-.8-2.8-.5-.5-1.7-3.9-2.7-7.7-.9-3.7-2.1-6.7-2.5-6.7-.4 0-1.5-2-2.4-4.5-1-2.5-2.1-4.5-2.5-4.5-.4 0-1.5-1.5-2.6-3.3-1-1.7-5.7-6.9-10.4-11.5-9.8-9.4-10.5-10-15.2-12.6-1.9-1.1-3.8-2.4-4.4-2.8-1.8-1.5-12.7-6.8-13.9-6.8-.6 0-3.3-1.1-6.1-2.5-2.7-1.3-5.7-2.5-6.6-2.5-2.3 0-3.5-1.9-4.4-6.5-.8-5-7.8-19.5-11.4-23.7-4.4-5.3-10.3-10.7-12.2-11.3-1.1-.4-1.9-1-1.9-1.5 0-1-8.9-3-12.8-2.9-1.5 0-4.5.6-6.7 1.2zm19.8 7c5.9 3.7 12.7 11.8 16.2 19.5 1.5 3.1 3.1 6.5 3.6 7.4 2.2 4.3 3.2 16.8 2 26-.7 5.1-1.6 9.7-2 10.3-.5.5-1.4 2.7-2.1 4.8-.6 2.1-2.5 6.3-4.1 9.5-1.6 3.1-2.9 6.9-2.9 8.4s-.4 3-1 3.3c-.5.3-1 2.1-1 3.8 0 4.2-2.8 20.6-3.9 23.2-.5 1.1-1.7 4.9-2.6 8.5-.9 3.6-2.1 6.9-2.5 7.5-.4.5-1.5 3.4-2.4 6.2-1 2.9-2.1 5.3-2.6 5.3-.4 0-1 1.1-1.4 2.3-.5 2.2-3.8 7-8.6 12.6-2.4 2.9-2.5 3.5-.5 5.1 1.9 1.6 21.8.8 30.6-1.3 7.4-1.7 16.3-6.2 22.7-11.4 4.1-3.3 13.2-14.7 13.2-16.5 0-.4 1.1-3.2 2.5-6.2s2.5-6 2.5-6.5c0-2.4 2-.8 5.7 4.5 14.7 21.5 19.8 35.6 15.9 43.3-3.4 6.5-20 21.3-30.4 27.1-1.5.9-3.8 2.3-5.2 3.2-1.4.9-9.5 5.3-18 9.6-8.5 4.4-15.5 8.6-15.5 9.3 0 .9 2.3 2 6 2.9 3.3.8 6.5 1.8 7 2.1 1.3.9 13.8 2.7 24 3.5 11.7.9 27.3-1.1 36.2-4.7 4-1.6 7.8-2.9 8.4-2.9 1.2 0 .7 14.4-1 32-1.2 12-2.2 14.5-7.3 18.3-5.4 4-24.4 7-31.8 4.9-1.9-.6-8-1.8-13.4-2.7-5.5-.8-10.5-1.9-11-2.4-2.2-1.6-15.8-4.3-16.8-3.3-1.1 1.1 5.9 14.2 12 22.5 6.5 9 16.8 18.5 25.2 23.3 6.2 3.6 10.3 4.6 20.5 5.3 10 .6 10 .6 9.7 3.1-.2 1.4-.7 2.9-1.2 3.5-.4.5-1.5 4.4-2.4 8.5-1 4.1-2.1 7.9-2.6 8.5-.4.5-1.6 3.9-2.5 7.5-1 3.6-2.1 6.9-2.6 7.5-.4.5-1.4 3.3-2.2 6.1-3.3 11.3-5.8 14.1-14.2 16-1.6.4-3.6 1.1-4.3 1.7-1.7 1.3-21.8 1.3-23.4-.1-.7-.5-2.9-1.3-4.8-1.7-5.7-1.1-23.3-10.2-26-13.4-1.4-1.7-9-7.1-9.9-7.1-1.3 0-1.5 7.2-.2 8.5.4.6 1.4 3.2 2 6 3.2 12.9 13.2 28.6 23.6 36.6 2.8 2.1 5.5 4.2 6 4.7 2.2 1.7 14.2 7 17.5 7.7 1.9.4 4.5 1.1 5.7 1.6l2.2.8-2.9 6c-1.7 3.3-3 6.4-3 7 0 .5-.3 1.1-.7 1.3-.5.1-3 4.6-5.6 9.8-7.2 14.3-14.1 26.8-16 29-1.5 1.8-2.9 2-14.4 2-7.1 0-15.7-.5-19.3-1.1-9.1-1.4-22.4-6.2-33.7-12-5.3-2.7-10.2-4.9-11-4.9-1.5 0-1.9 5.5-.4 6.4.5.3 1.2 2.3 1.6 4.3 1 5.5 8.7 21.1 13.9 27.9 7.5 10 16.5 17.5 27.9 23.2 2.6 1.3 4.7 2.8 4.7 3.3 0 .9-7.8 12.7-13.6 20.4-3.8 5.2-5.2 9.6-3.8 12.4 1.8 3.5 3.2 4.1 10.6 4.1 3.7 0 7 .5 7.4 1.1.7 1.2-2.5 8.9-3.8 8.9-.4 0-.8.6-.8 1.3 0 2.8-14.2 19.1-21.6 24.8-2.7 2.1-13.2 7.7-16.7 8.9-1.9.7-2.7 1.6-2.5 2.7.3 1.8 2.7 2.5 14.8 4.4 6.7 1 25.7.3 27.5-1.1.6-.4 3.9-1.3 7.5-2 3.6-.6 8.3-2 10.5-2.9 2.2-1 5.6-2.4 7.5-3.2 1.9-.7 4-1.7 4.5-2.1.6-.5 3.9-2.7 7.5-5.1 8-5.2 19.5-16.5 27.6-27.2l6-8 41.4-.3c23.5-.1 41.8.2 42.3.7.7.7-2.1 6.3-5.4 10.5-15.5 19.9-37.3 37.9-57.5 47.6-12.2 5.9-10.6 7.8 7.3 9.3 12.9 1 37.3-.3 39.8-2.2.5-.4 3.9-1.4 7.5-2.1 3.6-.7 8.3-2.1 10.5-3 2.2-1 5.9-2.4 8.3-3.1 2.3-.6 4.2-1.5 4.2-1.9 0-.4 2.1-1.5 4.8-2.5 2.6-1 4.9-2.1 5.2-2.5.3-.4 2-1.5 3.8-2.4 1.8-.9 5.1-3 7.5-4.7 2.3-1.6 6-4.1 8.2-5.6 4.5-3 23.3-21.5 32.1-31.6 5.4-6.3 6.1-6.8 8.4-5.9 1.4.5 6.1 1.5 10.5 2.2 8.2 1.2 10.3 1.9 21.5 7.4 9.8 4.7 20.3 13.8 26.7 23.1 5.5 8 11.7 22.1 14.1 32 3.7 15.9 4.2 20.5 4.3 40.3.1 21-.3 23.2-4.1 23.2-1.4 0-1.8-1.3-2.3-8.6-.3-4.7-1.1-9.9-1.6-11.7-.6-1.8-1.7-6.1-2.6-9.7-.9-3.6-2.3-8.1-3.1-10-2.2-5.1-8.6-17.4-9.3-18-.3-.3-1.9-2.3-3.5-4.5-3.3-4.5-15.5-16.5-16.8-16.5-.4 0-1.7-.9-2.7-1.9-2.5-2.5-17-9.5-17.9-8.6-.4.4-.8 28.6-.9 62.8 0 34.2-.5 67.8-1.1 74.6-1.1 14.4-1.3 14.8-12.2 17.6-3.6 1-6.9 2.1-7.5 2.5-1.5 1.1-16.8 3-24.1 3-7.1 0-21.4-1.9-22.9-3-.5-.4-3.6-1.5-6.7-2.5-3.2-1-6.3-2.4-7-3.2-1.2-1.5-.4-13.7 4.4-67 1.1-13 .8-16.3-1.6-14.4-.9.7-1.6 4.4-2 9.9-.3 4.8-1.2 12-1.8 16l-1.2 7.2-113-.2-113.1-.3-.5-19.7c-.3-13.7-.9-20.1-1.7-20.9-.7-.7-1.6-.9-2-.5-.4.4-.6 13.9-.4 30 .1 16 0 35.7-.4 43.6l-.8 14.5-3.6 1.7c-11.3 5.4-26.7 8.7-39.8 8.8-7.8 0-22.2-1.7-23.8-2.9-.5-.4-3.8-1.6-7.2-2.6-3.4-1-6.4-2.3-6.6-3-.5-1.1 2-32.1 4.7-60.5 2-20.1 2-21-.3-21-2 0-2.4 2.1-3.6 20-.3 4.7-.8 9.5-1.1 10.7l-.4 2.3h-47.5c-26.3 0-48.3-.4-49.3-.9-.9-.5-3.5-1.4-5.7-2.1-8-2.3-13.4-10.1-13.5-19.3 0-11.1 5.1-23 22.2-51.7 1.7-2.8 15.8-27.7 21.5-38 .8-1.4 2.6-4.5 4.1-7 1.5-2.5 6.1-10.6 10.2-17.9 4.1-7.3 8.7-15.4 10.2-17.9 1.4-2.6 3.5-6.3 4.6-8.2 1.1-1.9 4.4-7.7 7.3-12.8 7.7-13.4 10.5-18.3 12.3-21.7.9-1.7 2.8-5.1 4.3-7.6 2.6-4.3 16.5-29 20.5-36.3.9-1.7 2.1-3.6 2.5-4.1.9-1 15.3-26.6 18.1-32 .9-1.7 1.8-3.2 2.2-3.5.3-.3 1.4-2.3 2.4-4.5 1.1-2.2 2.2-4.2 2.6-4.5.3-.3 3.7-6.1 7.5-13s7.1-12.7 7.5-13c.3-.3 1.2-2 2-3.8.7-1.9 1.8-3.9 2.4-4.6.6-.6 2-2.9 3.1-5.1 1.1-2.2 2.2-4.2 2.6-4.5.3-.3 1.2-1.9 2.1-3.5 2.7-5.3 12.2-22 12.7-22.5.3-.3 1.4-2.2 2.4-4.3.9-2.1 2.2-4.3 2.8-5 .5-.7 1.8-2.7 2.7-4.4.9-1.8 5.3-9.6 9.7-17.3 4.4-7.8 9-16 10.3-18.3 1.2-2.3 3.3-5.9 4.5-7.9 5.4-9 13.3-23.5 13.9-25.8 1.8-5.9-2.6-8-8.3-3.9-4.7 3.3-16 8.8-19.6 9.5-1.8.3-3.3 1-3.3 1.4 0 .4-3.5 1.5-7.7 2.4-4.3 1-8.9 2.2-10.3 2.7-3.9 1.4-19.5 2.9-30.5 2.9-11.4 0-30.5-1.6-35-3-1.6-.5-7.3-1.8-12.5-2.8-11.1-2.3-25.1-6.1-26.5-7.1-.5-.4-3-1.3-5.5-2.1-4.6-1.4-12.3-4.4-15-5.9-1.1-.6-1.4-2.2-1.2-6.4.2-3-.1-7.9-.7-10.9-1.9-9.3-3-33.7-2.1-46.3.8-11 3.5-24.1 7.6-36.4.8-2.4 1.5-8.5 1.6-13.5.1-7.9-.3-9.8-2.5-14.1-2.8-5.5-8-10.9-11.4-12-2.9-.8-2.9-2.3 0-2.9 1.2-.3 10.8-.8 21.2-1.1 10.5-.3 23.7-1.1 29.5-1.6 19.1-1.8 44.3-7.9 57-14 2.5-1.1 8.6-4 13.5-6.4 13.1-6.2 18.7-8.2 31.2-11 14.5-3.2 30.4-3.4 41.4-.5 12.9 3.4 13.8 2.5 5.4-6.3-3-3.1-5.7-6.8-6.1-8.2-.3-1.4-1-2.5-1.4-2.5-1.4 0-3-9.6-3-17.4 0-7.8 1.8-18.6 3.1-18.6.4 0 1-1.3 1.4-2.9.7-3.4 5.7-11.3 10.5-16.5 10.3-11.3 23.5-14.1 34.3-7.3zm-241.8 120c5.8 2.9 8.5 5.5 11.5 11.5 2 3.8 2.2 5.4 1.8 14-.3 5.3-1 10.6-1.6 11.7-1.1 1.9-4.3 13.9-6.4 24-1.4 6.7-1.3 41.9.1 52.5 3.2 23 3.6 22.3-12 22.1-6.1-.1-11.5-.4-12-.7-.5-.3-5-1.2-10-2-5.1-.8-10.6-2.1-12.3-2.9-1.7-.7-4.2-1.7-5.6-2-9.6-2.7-23.5-14.1-30.4-24.9-5.3-8.3-6.1-10.6-3.6-10.6 1 0 2.2.5 2.5 1 1.2 2 11 6.1 16.5 7.1 12 2 24-2.3 36.2-13 2.1-1.8 3.8-4 3.8-4.7 0-2.1-3.4-1.7-5.6.7-2.1 2.3-10 7.7-15.4 10.4-2.1 1-6.7 2-11.6 2.2-7.4.5-8.6.3-14.6-2.5-6.6-3.1-7.8-3.9-14.6-10.1l-3.7-3.3v-14.7c0-13.5.2-15.2 2.9-22.6 3.8-10.7 11.2-24.1 15.6-28.5 5.7-5.6 17.5-11.7 27.1-14 3-.7 5.9-1.6 6.4-2 1.7-1.4 7.4-1.8 19-1.5 9.4.2 11.7.6 16 2.8zm70 590.7c.6 1-.6 22.3-2.1 36.2l-.6 5.7-5.6 1.7c-7.9 2.4-28.5 2.4-36.2 0-11-3.5-10.3-2.9-9.5-9.9.4-3.4 1.3-12.2 2-19.6.8-9.1 1.7-13.6 2.6-14.2 2-1.3 48.6-1.1 49.4.1zm273.1-.2c2.4 1.6 2.6 41.2.2 41.2-.5 0-2.8.9-5.1 2.1-4.1 2-15.7 5.2-24.7 6.9-13.4 2.6-36.4-.6-47.8-6.5l-3.2-1.6.6-7.2c.3-4 1-10.8 1.6-15.2.5-4.4 1.2-10.5 1.5-13.5.3-3 1-5.8 1.7-6.2.6-.4 17.5-.8 37.6-.8s37 .4 37.6.8z"/><path d="M291.1 246.5c-7.7 2.8-16 10.8-18 17.5-2 6.8-1.6 17.4 1 22.8 2.9 5.9 8.9 11.9 14.8 14.5 5.8 2.6 18.7 2.9 24.1.4 5.1-2.2 12.5-9.1 14.1-12.9.7-1.8 1.8-3.6 2.3-4 .7-.4 1.1-4.6 1.1-10-.1-8.3-.4-9.8-2.8-13.9-3.8-6.5-10.7-12.5-15.9-14-2.3-.7-4.7-1.6-5.2-2.1-1.7-1.4-8.9-.7-15.5 1.7zm17.3 3.5c11.6 4 17.9 12.6 18 24.5 0 7.5-1.8 11.9-7.2 17.9-6.1 6.5-19.7 9-28.7 5.2-4.6-2-11.2-8.6-13.2-13.3-1.7-4.2-1.7-15.4.1-19.6 2.5-6.1 9.6-12.5 16.1-14.6 7.5-2.5 7.9-2.5 14.9-.1zM108 276.2c-2.4 4-2.6 8.6-.4 9.5 2.5.9 7.3-5.3 7.4-9.5 0-2.8-.3-3.2-2.5-3.2-1.8 0-3.1 1-4.5 3.2z"/></g><path d="M144 254c-13.3 1.2-31.7 8-40.2 15-13.1 10.8-23.3 39.4-21.2 59.6.7 6.3.8 6.6 6.2 11.5 14.6 13.4 30.4 13.7 47.5 1 3.1-2.2 5.8-4.5 6.2-5.1.3-.5 1.7-1 3-1 2.6 0 4.2 3 2.8 5.4-1.6 2.8-10.9 9.7-17.8 13.2-6.1 3.2-8.2 3.7-16 4.1-8.2.5-9.6.3-15.5-2.2-3.6-1.5-7.3-3.4-8.2-4.3-2.6-2.2-2.2-.6 1 4.5 8.3 13.4 17.9 21.5 32 26.8 8.6 3.2 24.5 6.2 38.4 7.1 9.7.7 9.7.7 10.9-1.8.8-2 .7-5.9-.6-17.4-1.7-14.9-2.2-41.4-.9-50.2.7-5.6 3.8-18.2 6.6-27.2 1.2-4 2-9.7 2.1-14.7.1-7.4-.2-8.6-2.9-13-2.3-3.9-4.2-5.4-9.4-8-7.2-3.5-12.7-4.2-24-3.3zm-28.2 18.2c3 3-.5 11.9-5.7 14.4-3 1.6-5 .8-5.7-2.2-1.8-7.1 7-16.6 11.4-12.2zm361 421.5c12.8.2 33.5.2 46 0 12.5-.1 2-.2-23.3-.2s-35.5.1-22.7.2zm159.6 109.8c0 13.2.2 18.5.3 11.7.2-6.8.2-17.6 0-24-.1-6.4-.3-.9-.3 12.3zm-475.2 43.2c3.7.2 10 .2 14 0 4-.1 1-.3-6.7-.3s-11 .1-7.3.3zm40.6 0c6.8.2 17.6.2 24 0 6.4-.1.9-.3-12.3-.3-13.2 0-18.5.2-11.7.3zm126.6.7c-.3.7-.3 3.8-.1 6.7l.3 5.4.2-6.2.2-6.3 50.3-.3 50.2-.2-50.3-.3c-41.8-.2-50.4 0-50.8 1.2zm126.9-.7c10.3.2 27.1.2 37.5 0 10.3-.1 1.8-.2-18.8-.2s-29.1.1-18.7.2zm63.2.3c-.4.6-.4 1.4-.1 1.7.3.4.6.1.6-.5 0-1.6 32.6-1.7 33.3-.2.3.6.4.5.3-.2-.3-1.7-33.1-2.4-34.1-.8zm-6.1 26c0 6.9.1 9.7.3 6.2.2-3.4.2-9 0-12.5-.2-3.4-.3-.6-.3 6.3z" stroke-width="3" fill="#B2B2B2" stroke="#B2B2B2"/><path d="M171.4 340c0 5.2.1 7.4.3 4.7.2-2.6.2-6.8 0-9.5-.2-2.6-.3-.4-.3 4.8zm466 470.5c0 8.2.2 11.5.3 7.2.2-4.3.2-11 0-15-.1-4-.3-.5-.3 7.8zm-465.6 30.2c12.2.2 32.2.2 44.5 0 12.2-.1 2.2-.2-22.3-.2s-34.5.1-22.2.2zm213 0c31 .2 81.4.2 112 0 30.6-.1 5.3-.2-56.3-.2-61.6 0-86.7.1-55.7.2z" stroke-width="3" fill="#666" stroke="#666"/><path d="M561.4 340c0 5.2.1 7.4.3 4.7.2-2.6.2-6.8 0-9.5-.2-2.6-.3-.4-.3 4.8zm82 464c0 11.8.2 16.7.3 10.7.2-5.9.2-15.5 0-21.5-.1-5.9-.3-1-.3 10.8zm-322 40c0 6.9.1 9.7.3 6.2.2-3.4.2-9 0-12.5-.2-3.4-.3-.6-.3 6.3z" stroke-width="3" fill="#CCC" stroke="#CCC"/><path d="M174.3 838.7c12 .2 31.4.2 43 0 11.7-.1 1.9-.2-21.8-.2-23.6 0-33.2.1-21.2.2zm210.5 0c31 .2 81.4.2 112 0 30.6-.1 5.3-.2-56.3-.2-61.6 0-86.7.1-55.7.2z" stroke-width="3" fill="#FFE5FF" stroke="#FFE5FF"/><path d="M477.2 700.7c10.8.2 28.8.2 40 0 11.2-.1 2.3-.2-19.7-.2s-31.1.1-20.3.2z" fill="#E5CCE5" stroke="#E5CCE5" stroke-width="3"/><path d="M477.3 692.7c12.6.2 32.8.2 45 0 12.2-.1 2-.2-22.8-.2-24.7 0-34.7.1-22.2.2z" fill="#FFE5E5" stroke="#FFE5E5" stroke-width="3"/><path d="M395.5 171.1c-4.8 1.3-7.2 4.3-8.4 10.1-2.8 13.4 4.8 29.1 14 29.1 3.8 0 8.4-4.1 10-8.8 2.1-6.1 1.8-18.2-.6-22.9-3.2-6.4-8.9-9.2-15-7.5z" fill="#FF997F" stroke="#FF997F" stroke-width="3"/><path d="M370.3 1169.7c3.7.2 9.7.2 13.5 0 3.7-.2.6-.3-6.8-.3-7.4 0-10.5.1-6.7.3z" fill="#FFE5CC" stroke="#FFE5CC" stroke-width="3"/><path d="M285.2 267.6c-1.7.8-6.2 7.9-6.2 9.9 0 1.6.8 2.9 4.7 7.1 3.4 3.7 9.5 3.4 13.3-.7 4.4-4.9 4.5-8.4.2-13.8-1.3-1.6-3.1-2.4-6.3-2.7-2.4-.2-5-.1-5.7.2zm5.6 2.6c2.9 2.9.3 7.8-4.2 7.8-1.8 0-4.6-2.7-4.6-4.5 0-3.6 6.2-5.9 8.8-3.3z" fill="#333319" stroke="#333319" stroke-width="3"/><path d="M390.3 1091.7c5.4.2 13.9.2 19 0 5.1-.1.7-.3-9.8-.3-10.4 0-14.6.2-9.2.3zm-21.5 15c3.9.2 10.5.2 14.5 0 3.9-.1.7-.3-7.3-.3s-11.2.2-7.2.3z" stroke-width="3" fill="#FC9" stroke="#FC9"/><path d="M368.8 1091.7c2.3.2 6.1.2 8.5 0 2.3-.2.4-.4-4.3-.4s-6.6.2-4.2.4z" fill="#FFCC7F" stroke="#FFCC7F" stroke-width="3"/><path d="M525.4 1144.5c0 5.5.1 7.6.3 4.7.2-2.9.2-7.4 0-10-.2-2.6-.3-.2-.3 5.3zm-123.1 11.2c3.2.2 8.1.2 11 0 2.9-.2.3-.3-5.8-.3-6 0-8.4.1-5.2.3zm-27 13c8.2.2 21.2.2 29 0 7.8-.1 1.2-.3-14.8-.3-15.9 0-22.3.2-14.2.3z" stroke-width="3" fill="#E59933" stroke="#E59933"/><path d="M381.8 1155.7c2.8.2 7.6.2 10.5 0 2.8-.2.5-.3-5.3-.3s-8.1.1-5.2.3z" fill="#E57F33" stroke="#E57F33" stroke-width="3"/><path d="M360.2 1093c-2.6 1.1-4.4 5.2-3.5 7.7 1.7 4.6 2.6 4.8 24.5 5.1 11.4.2 20.8.7 20.8 1.1 0 .4-2.1 3-4.7 5.8-2.7 2.8-7.3 7.8-10.3 11.2-13.6 15-18.9 20.7-24.3 26.4-5.9 6.3-7.1 8.7-6.5 12.8.6 4.5 3.4 4.9 33 4.9 15.4 0 28.8-.4 30.2-1 3.3-1.2 4.3-5.2 2.2-8.5l-1.6-2.5h-21.5c-21 0-21.5-.1-21.5-2 0-1.2 3-5.1 7.1-9.3 3.9-4 8.7-9.1 10.6-11.4 1.9-2.3 6.4-7.3 10.1-11.1 18.3-18.9 19.8-21.2 17.1-26.1-1.4-2.5-2-2.6-11.9-3.2-16-1-47.2-.9-49.8.1zm-140.4 12.2c-1.5 1.8-1.8 4.2-1.8 12.6v10.4l-3.2-.6c-11.4-2.4-15.5-1.6-21.7 4.2-4.9 4.5-6.2 7.9-6.3 15.7-.1 7.3 1.6 11.1 7.3 15.6 4.8 3.8 12.2 5 18.4 2.9 2.9-1 4.2-1 6 0 4 2.1 7.1.6 7.9-3.7.8-4.9.8-55.6 0-57.7-.9-2.3-4.6-1.9-6.6.6zm-7.5 28.8c.7.6 2.3 1.8 3.6 2.8 2.3 1.8 2.3 2.1 1.6 10.9-.7 8.5-.9 9.2-3.1 9.7-1.3.4-2.4 1.1-2.4 1.6 0 .6-2.2 1-5 1-2.7 0-5-.5-5-1 0-.6-.5-1-1.2-1-1.9 0-4.8-3.1-4.8-5.2 0-1-.4-1.8-1-1.8-3.2 0 1.6-14.8 5.1-15.7 1-.3 1.9-.9 1.9-1.4 0-1.2 8.8-1.1 10.3.1zm265.8-29.3c-.5 1-1 15-1.2 31.2-.4 26.7-.2 29.5 1.3 30.4 1.2.8 2.3.8 4.1-.2 1.8-1 3.3-1 6.3-.2 4.8 1.3 11.4 1.4 14.7.2 2.9-1.1 7.7-5.6 10.2-9.6 2.8-4.4 2.6-13.7-.6-19-6-10.2-13.6-13.2-25.5-9.9-2 .5-2.1.3-1.6-9.8.4-9.2.2-10.5-1.6-12.6-2.3-2.6-4.8-2.8-6.1-.5zm23.9 30.8c7.6 4.8 8 16.8.7 22.5-3.6 2.8-9.8 3.7-11.8 1.7-.8-.8-2.5-1.8-3.7-2.1-2.2-.7-2.3-1.2-2-10.9.3-9.5.5-10.3 2.6-11.2 1.2-.5 2.2-1.3 2.2-1.7 0-1.9 8.2-.7 12 1.7zm25.8-10.3c-1.4 1.1-1.7 4.2-2 20.5-.3 20.4 0 21.7 4.3 21.1 2-.2 2.4-1 2.7-4.3.1-2.2.7-4.9 1.2-6 .5-1.1 1.1-5.8 1.2-10.5l.3-8.5 4-1.3c3.9-1.3 8.7-.9 13.7 1.3 2.7 1.1 4.6-3.7 2.8-7-1.8-3.3-10-5.2-16.1-3.7-2.4.6-4.6.7-4.9.3-.5-.8-4.5-3.1-5.2-3.1-.2 0-1.1.6-2 1.2zm-233.8 1c-10.3 2.3-15.8 16.3-7.9 20.3 1.5.8 3.5 1.5 4.4 1.5.8 0 1.5.4 1.5.9 0 .4 2 1.1 4.5 1.3 2.5.3 5.2 1.1 6 1.8 1.9 1.6 1.9 4.7.1 6.6-1.9 1.9-9.5 1.8-13.4-.2-4.5-2.2-7.6-1.5-8 1.7-.4 3.7 1.9 5.6 8.4 6.9 11.1 2.3 20.4-.9 22.5-7.8 2.3-7.8-3.6-15.6-12.9-16.8-7.5-1-8.2-1.3-8.2-3.8 0-1.2.8-3 1.8-3.9 2.4-2.2 11.7-2.3 13.8-.2 1.8 1.7 5 2 5.9.4 1.1-1.7-.4-5.8-2.8-7.3-3.1-1.9-10.3-2.6-15.7-1.4zm-43 .8c-1.9.5-3.6 1.3-3.8 1.9-.2.6-.9 1.1-1.6 1.1-1.8 0-6.5 5.5-8.2 9.6-1.6 3.9-1.8 13.4-.4 18.3 1.3 4.6 4.4 7.2 10.4 8.8 4.4 1.2 6 1.1 11.7-.4 6.3-1.6 6.8-1.6 8.4 0 2 2 2.6 2.1 4.8.4 1.6-1.1 1.6-1.6.1-6.2-1.2-3.9-1.5-7.9-1.1-17.7.3-8.6.1-13.2-.7-14.3-1.3-1.8-14.2-2.8-19.6-1.5zm11.7 18.3c.2 15-.3 15.7-9.7 15.7-7.8 0-9.5-2-9.5-11.8 0-4 .5-7.6 1-8 .6-.4 1.5-1.6 2.1-2.6.6-1.1 1.9-2.4 3-3 1-.6 2.1-1.4 2.4-1.7 1-1.2 3.6-1.8 7-1.6l3.5.2.2 12.8zm177.7-18.3c-6.2 2.5-12.4 12.8-12.4 20.6 0 5.2 4.4 14.4 7.2 15.2 1 .2 1.8.8 1.8 1.2 0 2.5 14.1 4 20.5 2.1 4.1-1.2 9.5-6.1 9.5-8.7 0-2.6-2.5-5-3.5-3.4-.4.6-2.4 2.2-4.6 3.5-7.5 4.8-22 1.8-22.7-4.8-.2-1.9.1-2.7 1.2-2.7.9 0 2.4-.4 3.4-1 .9-.5 6.3-1.4 12-2.1 12.1-1.3 13.6-2.3 13-8.4-.6-4.6-4.6-9.7-9.1-11.4-3.3-1.3-13.3-1.3-16.3-.1zm16.1 7.7c3 3.8 1.9 5-5.2 5.7-3.8.4-8.5.9-10.5 1.3-3.4.5-3.8.3-3.8-1.5 0-1.1 1.4-3.5 3.2-5.2 3-3.1 3.5-3.2 9.1-2.7 4.1.4 6.3 1.1 7.2 2.4zm123.5-7.8c-7.4 2.3-13.5 8.2-14.7 14.1-.3 1.7-1 3.3-1.4 3.6-1.2.7-1.1 9.1 0 9.9.5.3 1.2 1.8 1.6 3.3.8 3.7 4.9 8 8.3 8.8 1.5.3 3.7.7 4.9 1 1.3.2 5.2-.3 8.8-1.2 6.2-1.6 6.7-1.6 8.6.2 2.8 2.5 5.5.8 5-3.2-.2-1.6-.5-10.2-.8-19l-.4-16.2-2.7-1c-3.3-1.2-13.8-1.4-17.2-.3zm9.4 5.7c2.4.9 2.3 23.9-.1 26.6-2.4 2.7-12.5 2.6-15.3-.2-2.9-2.9-2.9-15.6 0-19.1 5.9-7.2 10.3-9.3 15.4-7.3z" stroke-width="3" fill="#E57F19" stroke="#E57F19"/><path d="M590.4 1146.5c0 6 .1 8.4.3 5.2.2-3.2.2-8.1 0-11-.2-2.9-.3-.3-.3 5.8zm-115 6.5c0 6.9.1 9.7.3 6.2.2-3.4.2-9 0-12.5-.2-3.4-.3-.6-.3 6.3zm-88.1 1.7c4.8.2 12.6.2 17.5 0 4.8-.1.8-.3-8.8-.3-9.6 0-13.6.2-8.7.3z" stroke-width="3" fill="#E5994C" stroke="#E5994C"/></svg>